<?xml version="1.0" encoding="utf-8"?>
<!-- Generator: Adobe Illustrator 23.0.1, SVG Export Plug-In . SVG Version: 6.00 Build 0)  -->
<svg version="1.1" id="Layer_1" xmlns="http://www.w3.org/2000/svg" xmlns:xlink="http://www.w3.org/1999/xlink" x="0px" y="0px"
	 width="200px" height="200px" viewBox="0 0 200 200" style="enable-background:new 0 0 200 200;" xml:space="preserve">
<style type="text/css">
	.st0{fill-rule:evenodd;clip-rule:evenodd;fill:#1F1D42;}
</style>
<g id="Page-1">
	<g id="Movers-Services" transform="translate(-423.000000, -1656.000000)">
		<g id="Group-10" transform="translate(340.000000, 1656.000000)">
			<g id="Group-6" transform="translate(83.000000, 0.000000)">
				<path id="Combined-Shape" class="st0" d="M134.3,117.2V68.5c0-0.5-0.4-0.9-0.9-0.9h-68c-0.5,0-0.9,0.4-0.9,0.9v48.8
					c0,0.5,0.4,0.9,0.9,0.9h17.4c2-3.8,6-6.3,10.5-6.3c4.6,0,8.5,2.6,10.5,6.3h29.6C133.9,118.1,134.3,117.7,134.3,117.2z
					 M93.4,132.4c4.8,0,8.7-3.9,8.7-8.7c0-4.8-3.9-8.7-8.7-8.7s-8.7,3.9-8.7,8.7C84.6,128.5,88.6,132.4,93.4,132.4z M133.5,64.5
					c2.2,0,4,1.8,4,4v48.8c0,2.2-1.8,4-4,4H105c0.2,0.8,0.2,1.6,0.2,2.4c0,6.6-5.3,11.9-11.9,11.9c-6.6,0-11.9-5.3-11.9-11.9
					c0-0.8,0.1-1.6,0.2-2.4H65.4c-2.2,0-4-1.8-4-4V68.5c0-2.2,1.8-4,4-4H133.5z M176.9,117.4v-17.2c-0.7-1.7-6.6-11.4-12.2-20.2
					h-21.6c-0.6,0-1,0.4-1,0.7v36.7c0,0.2,0.2,0.4,0.4,0.6c2-3.7,5.9-6.2,10.4-6.2c4.6,0,8.5,2.6,10.5,6.3h12.4
					C176.4,118.1,176.9,117.7,176.9,117.4z M153,132.4c4.8,0,8.7-3.9,8.7-8.7c0-4.8-3.9-8.7-8.7-8.7s-8.7,3.9-8.7,8.7
					C144.2,128.5,148.1,132.4,153,132.4z M173.3,87.9C180,98.7,180,99.3,180,100v17.4c0,2.1-1.9,3.8-4.1,3.8h-11.3
					c0.2,0.8,0.2,1.6,0.2,2.4c0,6.6-5.3,11.9-11.9,11.9c-6.5,0-11.9-5.3-11.9-11.9c0-0.9,0.1-1.9,0.3-2.7c-1.4-0.6-2.4-1.9-2.4-3.5
					V80.7c0-2.1,1.9-3.8,4.1-3.8h23.3l0.5,0.7C166.9,77.6,170.1,82.7,173.3,87.9z M147.3,98.3l21.5,0l-8-13.9h-13.5V98.3z
					 M144.1,81.2h18.5l11.7,20.2l-30.1,0V81.2z M93.4,127.4c2.1,0,3.8-1.7,3.8-3.8c0-2.1-1.7-3.8-3.8-3.8c-2.1,0-3.8,1.7-3.8,3.8
					C89.6,125.7,91.3,127.4,93.4,127.4z M93.4,116.7c3.8,0,6.9,3.1,6.9,6.9c0,3.8-3.1,6.9-6.9,6.9c-3.8,0-6.9-3.1-6.9-6.9
					C86.5,119.8,89.6,116.7,93.4,116.7z M153,127.4c2.1,0,3.8-1.7,3.8-3.8c0-2.1-1.7-3.8-3.8-3.8c-2.1,0-3.8,1.7-3.8,3.8
					C149.2,125.7,150.9,127.4,153,127.4z M153,116.7c3.8,0,6.9,3.1,6.9,6.9c0,3.8-3.1,6.9-6.9,6.9c-3.8,0-6.9-3.1-6.9-6.9
					C146,119.8,149.1,116.7,153,116.7z M58.1,72.9c0.9,0,1.6,0.7,1.6,1.6S59,76,58.1,76H34.4c-0.9,0-1.6-0.7-1.6-1.6
					s0.7-1.6,1.6-1.6H58.1z M51.1,82.9c0,0.9-0.7,1.6-1.6,1.6h-28c-0.9,0-1.6-0.7-1.6-1.6c0-0.9,0.7-1.6,1.6-1.6h28
					C50.4,81.3,51.1,82,51.1,82.9z M56.3,89.6c0.9,0,1.6,0.7,1.6,1.6s-0.7,1.6-1.6,1.6H32.7c-0.9,0-1.6-0.7-1.6-1.6s0.7-1.6,1.6-1.6
					H56.3z M103.1,96.4l-7.9,5.3l2.6-9.2l-7.5-5.9l9.5-0.4l3.3-9l3.3,9l9.5,0.4l-7.5,5.9l2.6,9.2L103.1,96.4z"/>
			</g>
		</g>
	</g>
</g>
</svg>
