<?xml version="1.0" encoding="utf-8"?>
<!-- Generator: Adobe Illustrator 23.0.1, SVG Export Plug-In . SVG Version: 6.00 Build 0)  -->
<svg version="1.1" id="Layer_1" xmlns="http://www.w3.org/2000/svg" xmlns:xlink="http://www.w3.org/1999/xlink" x="0px" y="0px"
	 width="200px" height="200px" viewBox="0 0 200 200" style="enable-background:new 0 0 200 200;" xml:space="preserve">
<style type="text/css">
	.st0{clip-path:url(#SVGID_2_);}
	.st1{clip-path:url(#SVGID_4_);fill:#11112E;}
	.st2{clip-path:url(#SVGID_6_);}
	.st3{clip-path:url(#SVGID_8_);fill:#11112E;}
	.st4{clip-path:url(#SVGID_10_);}
	.st5{clip-path:url(#SVGID_12_);fill:#11112E;}
	.st6{clip-path:url(#SVGID_14_);}
	.st7{clip-path:url(#SVGID_16_);fill:#11112E;}
</style>
<g>
	<defs>
		<path id="SVGID_1_" d="M-348.8-1463.9c-1.4,0-2.5,1.1-2.5,2.5c0,1.4,1.1,2.5,2.5,2.5h20.8c0.7,0,1.3,0.6,1.3,1.3s-0.6,1.3-1.3,1.3
			h-20.8c-2.8,0-5-2.3-5-5c0-2.8,2.3-5,5-5h17c1.4,0,2.5-1.1,2.5-2.5c0-1.4-1.1-2.5-2.5-2.5h-22.7c-0.7,0-1.3-0.6-1.3-1.3
			s0.6-1.3,1.3-1.3h22.7c2.8,0,5,2.3,5,5c0,2.8-2.3,5-5,5H-348.8z M-382.9-1500.5h20.8c3.5,0,6.3-2.8,6.3-6.3v-5.7
			c0-0.4-0.3-0.6-0.6-0.6h-26.5c-0.3,0-0.6,0.3-0.6,0.6v11.3C-383.5-1500.8-383.2-1500.5-382.9-1500.5z M-362.3-1473.4h-20.3
			c-0.5,0-0.9,0.4-0.9,0.9v5.2c0,0.5,0.4,0.9,0.9,0.9h20.3c0.5,0,0.9-0.4,0.9-0.9v-5.2C-361.4-1473-361.8-1473.4-362.3-1473.4z
			 M-363.5-1497.3c0-0.1,0-0.3-0.1-0.5c-0.1-0.1-0.3-0.2-0.5-0.2h-3.3c-0.1,0-0.3,0-0.4,0.1c-2,1.7-3.4,3.7-4,6c0,0.2,0,0.4,0.1,0.6
			c0.1,0.1,0.3,0.2,0.5,0.2C-365.6-1491.2-363.9-1494.5-363.5-1497.3z M-353.4-1505c0,0.2,0,0.4,0.1,0.5c0.1,0.1,0.3,0.2,0.5,0.2
			h7.7c2.4,0,4.4-2,4.4-4.4s-2-4.4-4.4-4.4h-7.6c-0.3,0-0.6,0.3-0.6,0.6v5.7C-353.2-1506.2-353.3-1505.6-353.4-1505z M-371.4-1488.5
			c-0.2,0-0.3,0.1-0.5,0.2c-0.1,0.1-0.2,0.3-0.1,0.5c0.3,2.4,1.4,4.7,3.3,6.6c0.3,0.2,0.4,0.6,0.4,0.9c0,0.3-0.1,0.7-0.4,0.9
			c-0.2,0.2-0.6,0.4-0.9,0.4s-0.6-0.1-0.9-0.4c-2.7-2.7-4.1-6.1-4.1-9.7c0-2.7,0.9-5.5,2.7-7.9c0.1-0.2,0.1-0.4,0-0.6
			c-0.1-0.2-0.3-0.3-0.6-0.3h-6.6c-0.4,0-0.6,0.3-0.6,0.6v20.7c0,0.4,0.3,0.6,0.6,0.6h16.8c1.9,0,3.4,1.5,3.4,3.4v5.2
			c0,1.9-1.5,3.4-3.4,3.4h-20.3c-1.9,0-3.4-1.5-3.4-3.4v-5.2c0-1.8,1.4-3.3,3.2-3.4c0.3,0,0.6-0.3,0.6-0.6v-20.8
			c0-0.3-0.3-0.6-0.6-0.6h-1.9c-0.7,0-1.3-0.6-1.3-1.3v-15.1c0-0.7,0.6-1.3,1.3-1.3h39.7c3.1,0,5.9,2.1,6.7,5.3
			c0.1,0.3,0.3,0.5,0.6,0.5c0,0,0,0,0.1,0c0.1,0,0.1,0,0.2,0h9.4c0.7,0,1.3,0.6,1.3,1.3s-0.6,1.3-1.3,1.3h-9.4c-0.1,0-0.1,0-0.2,0
			c0,0,0,0-0.1,0c-0.3,0-0.5,0.2-0.6,0.5c-0.8,3.1-3.5,5.3-6.7,5.3h-9.4c0,0,0,0-0.1,0h0c-0.2,0-0.4,0.1-0.5,0.3
			c-1.3,1.8-3.3,3-5.4,3.4c-0.3,0.1-0.4,0.3-0.5,0.6C-361.2-1494.9-362.9-1488.6-371.4-1488.5z"/>
	</defs>
	<clipPath id="SVGID_2_">
		<use xlink:href="#SVGID_1_"  style="overflow:visible;"/>
	</clipPath>
	<g class="st0">
		<defs>
			<rect id="SVGID_3_" x="-886" y="-2762" width="1920" height="5715"/>
		</defs>
		<clipPath id="SVGID_4_">
			<use xlink:href="#SVGID_3_"  style="overflow:visible;"/>
		</clipPath>
		<rect x="-391" y="-1520.7" class="st1" width="69.3" height="69.3"/>
	</g>
</g>
<g>
	<defs>
		<path id="SVGID_5_" d="M-348.8-1463.9c-1.4,0-2.5,1.1-2.5,2.5c0,1.4,1.1,2.5,2.5,2.5h20.8c0.7,0,1.3,0.6,1.3,1.3s-0.6,1.3-1.3,1.3
			h-20.8c-2.8,0-5-2.3-5-5c0-2.8,2.3-5,5-5h17c1.4,0,2.5-1.1,2.5-2.5c0-1.4-1.1-2.5-2.5-2.5h-22.7c-0.7,0-1.3-0.6-1.3-1.3
			s0.6-1.3,1.3-1.3h22.7c2.8,0,5,2.3,5,5c0,2.8-2.3,5-5,5H-348.8z M-382.9-1500.5h20.8c3.5,0,6.3-2.8,6.3-6.3v-5.7
			c0-0.4-0.3-0.6-0.6-0.6h-26.5c-0.3,0-0.6,0.3-0.6,0.6v11.3C-383.5-1500.8-383.2-1500.5-382.9-1500.5z M-362.3-1473.4h-20.3
			c-0.5,0-0.9,0.4-0.9,0.9v5.2c0,0.5,0.4,0.9,0.9,0.9h20.3c0.5,0,0.9-0.4,0.9-0.9v-5.2C-361.4-1473-361.8-1473.4-362.3-1473.4z
			 M-363.5-1497.3c0-0.1,0-0.3-0.1-0.5c-0.1-0.1-0.3-0.2-0.5-0.2h-3.3c-0.1,0-0.3,0-0.4,0.1c-2,1.7-3.4,3.7-4,6c0,0.2,0,0.4,0.1,0.6
			c0.1,0.1,0.3,0.2,0.5,0.2C-365.6-1491.2-363.9-1494.5-363.5-1497.3z M-353.4-1505c0,0.2,0,0.4,0.1,0.5c0.1,0.1,0.3,0.2,0.5,0.2
			h7.7c2.4,0,4.4-2,4.4-4.4s-2-4.4-4.4-4.4h-7.6c-0.3,0-0.6,0.3-0.6,0.6v5.7C-353.2-1506.2-353.3-1505.6-353.4-1505z M-371.4-1488.5
			c-0.2,0-0.3,0.1-0.5,0.2c-0.1,0.1-0.2,0.3-0.1,0.5c0.3,2.4,1.4,4.7,3.3,6.6c0.3,0.2,0.4,0.6,0.4,0.9c0,0.3-0.1,0.7-0.4,0.9
			c-0.2,0.2-0.6,0.4-0.9,0.4s-0.6-0.1-0.9-0.4c-2.7-2.7-4.1-6.1-4.1-9.7c0-2.7,0.9-5.5,2.7-7.9c0.1-0.2,0.1-0.4,0-0.6
			c-0.1-0.2-0.3-0.3-0.6-0.3h-6.6c-0.4,0-0.6,0.3-0.6,0.6v20.7c0,0.4,0.3,0.6,0.6,0.6h16.8c1.9,0,3.4,1.5,3.4,3.4v5.2
			c0,1.9-1.5,3.4-3.4,3.4h-20.3c-1.9,0-3.4-1.5-3.4-3.4v-5.2c0-1.8,1.4-3.3,3.2-3.4c0.3,0,0.6-0.3,0.6-0.6v-20.8
			c0-0.3-0.3-0.6-0.6-0.6h-1.9c-0.7,0-1.3-0.6-1.3-1.3v-15.1c0-0.7,0.6-1.3,1.3-1.3h39.7c3.1,0,5.9,2.1,6.7,5.3
			c0.1,0.3,0.3,0.5,0.6,0.5c0,0,0,0,0.1,0c0.1,0,0.1,0,0.2,0h9.4c0.7,0,1.3,0.6,1.3,1.3s-0.6,1.3-1.3,1.3h-9.4c-0.1,0-0.1,0-0.2,0
			c0,0,0,0-0.1,0c-0.3,0-0.5,0.2-0.6,0.5c-0.8,3.1-3.5,5.3-6.7,5.3h-9.4c0,0,0,0-0.1,0h0c-0.2,0-0.4,0.1-0.5,0.3
			c-1.3,1.8-3.3,3-5.4,3.4c-0.3,0.1-0.4,0.3-0.5,0.6C-361.2-1494.9-362.9-1488.6-371.4-1488.5z"/>
	</defs>
	<clipPath id="SVGID_6_">
		<use xlink:href="#SVGID_5_"  style="overflow:visible;"/>
	</clipPath>
	<g class="st2">
		<defs>
			<rect id="SVGID_7_" x="-886" y="-2762" width="1920" height="5715"/>
		</defs>
		<clipPath id="SVGID_8_">
			<use xlink:href="#SVGID_7_"  style="overflow:visible;"/>
		</clipPath>
		<rect x="-391" y="-1520.7" class="st3" width="69.3" height="69.3"/>
	</g>
</g>
<g>
	<defs>
		<path id="SVGID_9_" d="M-353.8-1410.9c-1.4,0-2.5,1.1-2.5,2.5c0,1.4,1.1,2.5,2.5,2.5h20.8c0.7,0,1.3,0.6,1.3,1.3s-0.6,1.3-1.3,1.3
			h-20.8c-2.8,0-5-2.3-5-5c0-2.8,2.3-5,5-5h17c1.4,0,2.5-1.1,2.5-2.5c0-1.4-1.1-2.5-2.5-2.5h-22.7c-0.7,0-1.3-0.6-1.3-1.3
			s0.6-1.3,1.3-1.3h22.7c2.8,0,5,2.3,5,5c0,2.8-2.3,5-5,5H-353.8z M-387.9-1447.5h20.8c3.5,0,6.3-2.8,6.3-6.3v-5.7
			c0-0.4-0.3-0.6-0.6-0.6h-26.5c-0.3,0-0.6,0.3-0.6,0.6v11.3C-388.5-1447.8-388.2-1447.5-387.9-1447.5z M-367.3-1420.4h-20.3
			c-0.5,0-0.9,0.4-0.9,0.9v5.2c0,0.5,0.4,0.9,0.9,0.9h20.3c0.5,0,0.9-0.4,0.9-0.9v-5.2C-366.4-1420-366.8-1420.4-367.3-1420.4z
			 M-368.5-1444.3c0-0.1,0-0.3-0.1-0.5c-0.1-0.1-0.3-0.2-0.5-0.2h-3.3c-0.1,0-0.3,0-0.4,0.1c-2,1.7-3.4,3.7-4,6c0,0.2,0,0.4,0.1,0.6
			c0.1,0.1,0.3,0.2,0.5,0.2C-370.6-1438.2-368.9-1441.5-368.5-1444.3z M-358.4-1452c0,0.2,0,0.4,0.1,0.5c0.1,0.1,0.3,0.2,0.5,0.2
			h7.7c2.4,0,4.4-2,4.4-4.4s-2-4.4-4.4-4.4h-7.6c-0.3,0-0.6,0.3-0.6,0.6v5.7C-358.2-1453.2-358.3-1452.6-358.4-1452z M-376.4-1435.5
			c-0.2,0-0.3,0.1-0.5,0.2c-0.1,0.1-0.2,0.3-0.1,0.5c0.3,2.4,1.4,4.7,3.3,6.6c0.3,0.2,0.4,0.6,0.4,0.9c0,0.3-0.1,0.7-0.4,0.9
			c-0.2,0.2-0.6,0.4-0.9,0.4s-0.6-0.1-0.9-0.4c-2.7-2.7-4.1-6.1-4.1-9.7c0-2.7,0.9-5.5,2.7-7.9c0.1-0.2,0.1-0.4,0-0.6
			c-0.1-0.2-0.3-0.3-0.6-0.3h-6.6c-0.4,0-0.6,0.3-0.6,0.6v20.7c0,0.4,0.3,0.6,0.6,0.6h16.8c1.9,0,3.4,1.5,3.4,3.4v5.2
			c0,1.9-1.5,3.4-3.4,3.4h-20.3c-1.9,0-3.4-1.5-3.4-3.4v-5.2c0-1.8,1.4-3.3,3.2-3.4c0.3,0,0.6-0.3,0.6-0.6v-20.8
			c0-0.3-0.3-0.6-0.6-0.6h-1.9c-0.7,0-1.3-0.6-1.3-1.3v-15.1c0-0.7,0.6-1.3,1.3-1.3h39.7c3.1,0,5.9,2.1,6.7,5.3
			c0.1,0.3,0.3,0.5,0.6,0.5c0,0,0,0,0.1,0c0.1,0,0.1,0,0.2,0h9.4c0.7,0,1.3,0.6,1.3,1.3s-0.6,1.3-1.3,1.3h-9.4c-0.1,0-0.1,0-0.2,0
			c0,0,0,0-0.1,0c-0.3,0-0.5,0.2-0.6,0.5c-0.8,3.1-3.5,5.3-6.7,5.3h-9.4c0,0,0,0-0.1,0h0c-0.2,0-0.4,0.1-0.5,0.3
			c-1.3,1.8-3.3,3-5.4,3.4c-0.3,0.1-0.4,0.3-0.5,0.6C-366.2-1441.9-367.9-1435.6-376.4-1435.5z"/>
	</defs>
	<clipPath id="SVGID_10_">
		<use xlink:href="#SVGID_9_"  style="overflow:visible;"/>
	</clipPath>
	<g class="st4">
		<defs>
			<rect id="SVGID_11_" x="-891" y="-2709" width="1920" height="5715"/>
		</defs>
		<clipPath id="SVGID_12_">
			<use xlink:href="#SVGID_11_"  style="overflow:visible;"/>
		</clipPath>
		<rect x="-396" y="-1467.7" class="st5" width="69.3" height="69.3"/>
	</g>
</g>
<g>
	<defs>
		<path id="SVGID_13_" d="M120.4,159.7c-3.7,0-6.8,3-6.8,6.8s3.1,6.8,6.8,6.8h56.2c1.9,0,3.4,1.5,3.4,3.4s-1.5,3.4-3.4,3.4h-56.2
			c-7.5,0-13.6-6.1-13.6-13.6s6.1-13.6,13.6-13.6h45.9c3.8,0,6.8-3.1,6.8-6.8c0-3.8-3.1-6.8-6.8-6.8H105c-1.9,0-3.4-1.5-3.4-3.4
			s1.5-3.4,3.4-3.4h61.3c7.5,0,13.6,6.1,13.6,13.6c0,7.5-6.1,13.6-13.6,13.6H120.4z M28.5,60.9h56.2c9.4,0,17-7.6,17-17V28.6
			c0-1-0.8-1.7-1.7-1.7H28.5c-0.9,0-1.7,0.8-1.7,1.7v30.6C26.8,60.2,27.6,60.9,28.5,60.9z M84,134.2H29.2c-1.3,0-2.3,1-2.3,2.3v14
			c0,1.3,1,2.3,2.3,2.3H84c1.3,0,2.3-1,2.3-2.3v-14C86.3,135.2,85.3,134.2,84,134.2z M80.8,69.7c0.1-0.4,0-0.9-0.2-1.3
			c-0.3-0.4-0.8-0.6-1.3-0.6h-8.8c-0.4,0-0.8,0.1-1.1,0.4c-5.4,4.5-9.1,10.1-10.8,16.1c-0.1,0.5,0,1.1,0.3,1.5
			c0.3,0.4,0.8,0.6,1.3,0.6C75,86,79.6,77.1,80.8,69.7z M108.1,48.7c-0.1,0.5,0,1,0.4,1.4c0.3,0.4,0.8,0.6,1.3,0.6h20.9
			c6.6,0,11.9-5.3,11.9-11.9c0-6.6-5.3-11.9-11.9-11.9h-20.4c-0.9,0-1.7,0.8-1.7,1.7v15.3C108.6,45.5,108.4,47.1,108.1,48.7z
			 M59.5,93.3c-0.5,0-0.9,0.2-1.3,0.6c-0.3,0.3-0.5,0.8-0.4,1.3c0.8,6.6,3.9,12.7,8.9,17.8c0.7,0.6,1,1.5,1,2.4c0,0.9-0.3,1.8-1,2.4
			c-0.6,0.6-1.5,1-2.4,1c-0.9,0-1.7-0.3-2.4-1c-7.2-7.3-11.2-16.6-11.2-26.1c0-7.4,2.5-14.8,7.2-21.3c0.3-0.5,0.4-1.1,0.1-1.7
			c-0.3-0.5-0.9-0.9-1.5-0.9H38.7c-1,0-1.7,0.8-1.7,1.7v55.8c0,1,0.8,1.7,1.7,1.7H84c5.1,0,9.2,4.1,9.2,9.2v14
			c0,5.1-4.1,9.2-9.2,9.2H29.2c-5.1,0-9.2-4.1-9.2-9.2v-14c0-4.8,3.8-8.8,8.6-9.1c0.9-0.1,1.6-0.8,1.6-1.7V69.2
			c0-0.9-0.8-1.7-1.7-1.7h-5.1c-1.9,0-3.4-1.5-3.4-3.4V23.3c0-1.9,1.5-3.4,3.4-3.4h107.2c8.5,0,16,5.8,18.1,14.2
			c0.2,0.8,0.8,1.3,1.6,1.3c0,0,0.1,0,0.2,0c0.2,0,0.3-0.1,0.5-0.1h25.4c1.9,0,3.4,1.5,3.4,3.4c0,1.9-1.5,3.4-3.4,3.4H151
			c-0.2,0-0.3-0.1-0.5-0.1c0,0-0.1,0-0.2,0c-0.7,0-1.4,0.5-1.6,1.3c-2.1,8.4-9.5,14.2-18.1,14.2h-25.4c-0.1,0-0.1,0-0.2,0h-0.1
			c-0.5,0-1,0.3-1.3,0.7c-3.6,4.8-8.8,8-14.5,9.1c-0.7,0.2-1.2,0.8-1.3,1.5C87,76.1,82.5,93.1,59.5,93.3z"/>
	</defs>
	<clipPath id="SVGID_14_">
		<use xlink:href="#SVGID_13_"  style="overflow:visible;"/>
	</clipPath>
	<g class="st6">
		<defs>
			<rect id="SVGID_15_" x="-1330" y="-3345.1" width="5184" height="15430.5"/>
		</defs>
		<clipPath id="SVGID_16_">
			<use xlink:href="#SVGID_15_"  style="overflow:visible;"/>
		</clipPath>
		<rect x="6.5" y="6.4" class="st7" width="187" height="187.2"/>
	</g>
</g>
</svg>
