<?xml version="1.0" encoding="utf-8"?>
<!-- Generator: Adobe Illustrator 23.0.1, SVG Export Plug-In . SVG Version: 6.00 Build 0)  -->
<svg version="1.1" id="Layer_1" xmlns="http://www.w3.org/2000/svg" xmlns:xlink="http://www.w3.org/1999/xlink" x="0px" y="0px"
	 width="200px" height="200px" viewBox="0 0 200 200" style="enable-background:new 0 0 200 200;" xml:space="preserve">
<style type="text/css">
	.st0{clip-path:url(#SVGID_2_);}
	.st1{clip-path:url(#SVGID_4_);fill:#11112E;}
	.st2{clip-path:url(#SVGID_6_);}
	.st3{clip-path:url(#SVGID_8_);fill:#11112E;}
	.st4{clip-path:url(#SVGID_10_);}
	.st5{clip-path:url(#SVGID_12_);fill:#11112E;}
	.st6{clip-path:url(#SVGID_14_);}
	.st7{clip-path:url(#SVGID_16_);fill:#11112E;}
	.st8{fill-rule:evenodd;clip-rule:evenodd;fill:#13122E;}
</style>
<g>
	<defs>
		<path id="SVGID_1_" d="M128-1499.6c0.4-0.6,0.3-1.5-0.3-1.8c-0.7-0.4-1.4-0.1-1.8,0.5l-2.6,4.2l2,1.3L128-1499.6z M107.3-1466.8
			l16.8-26.6l-2-1.3l-16.8,26.6c-0.4,0.7-0.6,2-0.6,3.2C105.8-1465.4,106.9-1466.1,107.3-1466.8z M88.9-1465.3
			c1.2-1.5,2.5-3.2,3.4-4.7c0.7-1-0.1-1.5-0.7-1.2C88.7-1470.2,88.3-1468.2,88.9-1465.3z M102.5-1462.7c-0.1-0.4-0.5-4.5,0.8-6.7
			l7.7-12.2v-27.8H73.3v55h37.6v-13.8l-1.6,2.5c-1.2,1.9-4.4,3.2-5.2,3.5c-0.1,0.3-0.2,0.4-0.6,1c-0.6,1-2.1,0.7-2.6,0.3
			c-2.8-2.9-4.6-1.9-7.1-0.7c-2,0.9-4.4,1.9-5.9,0.1c-0.9,0.6-1.7,1-2.6,1.1c-1.3,0.1-2.5-0.4-3.5-1.3c-0.5-0.4-0.5-1.2,0-1.7
			s1.2-0.5,1.7,0c0.7,0.6,1.2,0.7,1.6,0.6c0.6,0,1.2-0.3,1.8-0.8c-1.6-4.4-0.7-8.4,3.8-10.1c2.9-1,5.4,2,3.7,4.5
			c0,0-4.5,6.2-4.5,6.3c0.7,0.1,1.8-0.4,2.9-0.9C96.4-1465.2,99.4-1465.9,102.5-1462.7z M113.3-1485.3l10.7-16.9
			c1.1-1.7,3.3-2.3,5-1.3c1.7,1.1,2.2,3.4,1.1,5.1l-2.7,4.3c1.8,1.8,2,4.8,0.5,7.3l-5,7.9c-0.3,0.6-1.1,0.7-1.6,0.4
			c-0.6-0.3-0.7-1.1-0.4-1.6l5-7.9c0.8-1.3,0.9-2.8,0.2-3.9l-12.7,20.2v18.6c0,0.7-0.5,1.2-1.2,1.2H72.2c-0.7,0-1.2-0.5-1.2-1.2
			v-57.6c0-0.7,0.5-1.2,1.2-1.2h39.9c0.7,0,1.2,0.5,1.2,1.2V-1485.3z M81.2-1491.1H103v2.6H81.2V-1491.1z M81.2-1482.1H103v2.3H81.2
			V-1482.1z M81.2-1499H103v2.6H81.2V-1499z"/>
	</defs>
	<clipPath id="SVGID_2_">
		<use xlink:href="#SVGID_1_"  style="overflow:visible;"/>
	</clipPath>
	<g class="st0">
		<defs>
			<rect id="SVGID_3_" x="-860" y="-2758" width="1920" height="5715"/>
		</defs>
		<clipPath id="SVGID_4_">
			<use xlink:href="#SVGID_3_"  style="overflow:visible;"/>
		</clipPath>
		<rect x="66" y="-1517" class="st1" width="69.6" height="70"/>
	</g>
</g>
<g>
	<defs>
		<path id="SVGID_5_" d="M128-1499.6c0.4-0.6,0.3-1.5-0.3-1.8c-0.7-0.4-1.4-0.1-1.8,0.5l-2.6,4.2l2,1.3L128-1499.6z M107.3-1466.8
			l16.8-26.6l-2-1.3l-16.8,26.6c-0.4,0.7-0.6,2-0.6,3.2C105.8-1465.4,106.9-1466.1,107.3-1466.8z M88.9-1465.3
			c1.2-1.5,2.5-3.2,3.4-4.7c0.7-1-0.1-1.5-0.7-1.2C88.7-1470.2,88.3-1468.2,88.9-1465.3z M102.5-1462.7c-0.1-0.4-0.5-4.5,0.8-6.7
			l7.7-12.2v-27.8H73.3v55h37.6v-13.8l-1.6,2.5c-1.2,1.9-4.4,3.2-5.2,3.5c-0.1,0.3-0.2,0.4-0.6,1c-0.6,1-2.1,0.7-2.6,0.3
			c-2.8-2.9-4.6-1.9-7.1-0.7c-2,0.9-4.4,1.9-5.9,0.1c-0.9,0.6-1.7,1-2.6,1.1c-1.3,0.1-2.5-0.4-3.5-1.3c-0.5-0.4-0.5-1.2,0-1.7
			s1.2-0.5,1.7,0c0.7,0.6,1.2,0.7,1.6,0.6c0.6,0,1.2-0.3,1.8-0.8c-1.6-4.4-0.7-8.4,3.8-10.1c2.9-1,5.4,2,3.7,4.5
			c0,0-4.5,6.2-4.5,6.3c0.7,0.1,1.8-0.4,2.9-0.9C96.4-1465.2,99.4-1465.9,102.5-1462.7z M113.3-1485.3l10.7-16.9
			c1.1-1.7,3.3-2.3,5-1.3c1.7,1.1,2.2,3.4,1.1,5.1l-2.7,4.3c1.8,1.8,2,4.8,0.5,7.3l-5,7.9c-0.3,0.6-1.1,0.7-1.6,0.4
			c-0.6-0.3-0.7-1.1-0.4-1.6l5-7.9c0.8-1.3,0.9-2.8,0.2-3.9l-12.7,20.2v18.6c0,0.7-0.5,1.2-1.2,1.2H72.2c-0.7,0-1.2-0.5-1.2-1.2
			v-57.6c0-0.7,0.5-1.2,1.2-1.2h39.9c0.7,0,1.2,0.5,1.2,1.2V-1485.3z M81.2-1491.1H103v2.6H81.2V-1491.1z M81.2-1482.1H103v2.3H81.2
			V-1482.1z M81.2-1499H103v2.6H81.2V-1499z"/>
	</defs>
	<clipPath id="SVGID_6_">
		<use xlink:href="#SVGID_5_"  style="overflow:visible;"/>
	</clipPath>
	<g class="st2">
		<defs>
			<rect id="SVGID_7_" x="-860" y="-2758" width="1920" height="5715"/>
		</defs>
		<clipPath id="SVGID_8_">
			<use xlink:href="#SVGID_7_"  style="overflow:visible;"/>
		</clipPath>
		<rect x="66" y="-1517" class="st3" width="69.6" height="70"/>
	</g>
</g>
<g>
	<defs>
		<path id="SVGID_9_" d="M116-1516.6c0.4-0.6,0.3-1.5-0.3-1.8c-0.7-0.4-1.4-0.1-1.8,0.5l-2.6,4.2l2,1.3L116-1516.6z M95.3-1483.8
			l16.8-26.6l-2-1.3l-16.8,26.6c-0.4,0.7-0.6,2-0.6,3.2C93.8-1482.4,94.9-1483.1,95.3-1483.8z M76.9-1482.3c1.2-1.5,2.5-3.2,3.4-4.7
			c0.7-1-0.1-1.5-0.7-1.2C76.7-1487.2,76.3-1485.2,76.9-1482.3z M90.5-1479.7c-0.1-0.4-0.5-4.5,0.8-6.7l7.7-12.2v-27.8H61.3v55h37.6
			v-13.8l-1.6,2.5c-1.2,1.9-4.4,3.2-5.2,3.5c-0.1,0.3-0.2,0.4-0.6,1c-0.6,1-2.1,0.7-2.6,0.3c-2.8-2.9-4.6-1.9-7.1-0.7
			c-2,0.9-4.4,1.9-5.9,0.1c-0.9,0.6-1.7,1-2.6,1.1c-1.3,0.1-2.5-0.4-3.5-1.3c-0.5-0.4-0.5-1.2,0-1.7s1.2-0.5,1.7,0
			c0.7,0.6,1.2,0.7,1.6,0.6c0.6,0,1.2-0.3,1.8-0.8c-1.6-4.4-0.7-8.4,3.8-10.1c2.9-1,5.4,2,3.7,4.5c0,0-4.5,6.2-4.5,6.3
			c0.7,0.1,1.8-0.4,2.9-0.9C84.4-1482.2,87.4-1482.9,90.5-1479.7z M101.3-1502.3l10.7-16.9c1.1-1.7,3.3-2.3,5-1.3
			c1.7,1.1,2.2,3.4,1.1,5.1l-2.7,4.3c1.8,1.8,2,4.8,0.5,7.3l-5,7.9c-0.3,0.6-1.1,0.7-1.6,0.4c-0.6-0.3-0.7-1.1-0.4-1.6l5-7.9
			c0.8-1.3,0.9-2.8,0.2-3.9l-12.7,20.2v18.6c0,0.7-0.5,1.2-1.2,1.2H60.2c-0.7,0-1.2-0.5-1.2-1.2v-57.6c0-0.7,0.5-1.2,1.2-1.2h39.9
			c0.7,0,1.2,0.5,1.2,1.2V-1502.3z M69.2-1508.1H91v2.6H69.2V-1508.1z M69.2-1499.1H91v2.3H69.2V-1499.1z M69.2-1516H91v2.6H69.2
			V-1516z"/>
	</defs>
	<clipPath id="SVGID_10_">
		<use xlink:href="#SVGID_9_"  style="overflow:visible;"/>
	</clipPath>
	<g class="st4">
		<defs>
			<rect id="SVGID_11_" x="-872" y="-2775" width="1920" height="5715"/>
		</defs>
		<clipPath id="SVGID_12_">
			<use xlink:href="#SVGID_11_"  style="overflow:visible;"/>
		</clipPath>
		<rect x="54" y="-1534" class="st5" width="69.6" height="70"/>
	</g>
</g>
<g>
	<defs>
		<path id="SVGID_13_" d="M116-1516.6c0.4-0.6,0.3-1.5-0.3-1.8c-0.7-0.4-1.4-0.1-1.8,0.5l-2.6,4.2l2,1.3L116-1516.6z M95.3-1483.8
			l16.8-26.6l-2-1.3l-16.8,26.6c-0.4,0.7-0.6,2-0.6,3.2C93.8-1482.4,94.9-1483.1,95.3-1483.8z M76.9-1482.3c1.2-1.5,2.5-3.2,3.4-4.7
			c0.7-1-0.1-1.5-0.7-1.2C76.7-1487.2,76.3-1485.2,76.9-1482.3z M90.5-1479.7c-0.1-0.4-0.5-4.5,0.8-6.7l7.7-12.2v-27.8H61.3v55h37.6
			v-13.8l-1.6,2.5c-1.2,1.9-4.4,3.2-5.2,3.5c-0.1,0.3-0.2,0.4-0.6,1c-0.6,1-2.1,0.7-2.6,0.3c-2.8-2.9-4.6-1.9-7.1-0.7
			c-2,0.9-4.4,1.9-5.9,0.1c-0.9,0.6-1.7,1-2.6,1.1c-1.3,0.1-2.5-0.4-3.5-1.3c-0.5-0.4-0.5-1.2,0-1.7s1.2-0.5,1.7,0
			c0.7,0.6,1.2,0.7,1.6,0.6c0.6,0,1.2-0.3,1.8-0.8c-1.6-4.4-0.7-8.4,3.8-10.1c2.9-1,5.4,2,3.7,4.5c0,0-4.5,6.2-4.5,6.3
			c0.7,0.1,1.8-0.4,2.9-0.9C84.4-1482.2,87.4-1482.9,90.5-1479.7z M101.3-1502.3l10.7-16.9c1.1-1.7,3.3-2.3,5-1.3
			c1.7,1.1,2.2,3.4,1.1,5.1l-2.7,4.3c1.8,1.8,2,4.8,0.5,7.3l-5,7.9c-0.3,0.6-1.1,0.7-1.6,0.4c-0.6-0.3-0.7-1.1-0.4-1.6l5-7.9
			c0.8-1.3,0.9-2.8,0.2-3.9l-12.7,20.2v18.6c0,0.7-0.5,1.2-1.2,1.2H60.2c-0.7,0-1.2-0.5-1.2-1.2v-57.6c0-0.7,0.5-1.2,1.2-1.2h39.9
			c0.7,0,1.2,0.5,1.2,1.2V-1502.3z M69.2-1508.1H91v2.6H69.2V-1508.1z M69.2-1499.1H91v2.3H69.2V-1499.1z M69.2-1516H91v2.6H69.2
			V-1516z"/>
	</defs>
	<clipPath id="SVGID_14_">
		<use xlink:href="#SVGID_13_"  style="overflow:visible;"/>
	</clipPath>
	<g class="st6">
		<defs>
			<rect id="SVGID_15_" x="-872" y="-2775" width="1920" height="5715"/>
		</defs>
		<clipPath id="SVGID_16_">
			<use xlink:href="#SVGID_15_"  style="overflow:visible;"/>
		</clipPath>
		<rect x="54" y="-1534" class="st7" width="69.6" height="70"/>
	</g>
</g>
<g id="Page-1">
	<g id="Movers-Services" transform="translate(-931.000000, -1246.000000)">
		<g id="Group-12-Copy" transform="translate(771.000000, 1196.000000)">
			<g id="Group-11" transform="translate(110.000000, 0.000000)">
				<g id="icon-2" transform="translate(50.000000, 50.000000)">
					<path id="Combined-Shape" class="st8" d="M47.4,54.3h58.4v6.9H47.4V54.3z M47.4,99.7h58.4v6.2H47.4V99.7z M47.4,75.6h58.4v6.9
						H47.4V75.6z M133.4,91.2L162,45.8c2.9-4.6,8.9-6.3,13.5-3.4c4.6,2.9,5.9,9,2.9,13.7l-7.3,11.5c4.8,4.8,5.5,12.9,1.3,19.5
						l-13.3,21.1c-0.9,1.5-2.9,1.9-4.4,1c-1.5-0.9-1.9-2.9-1-4.4L167,83.7c2.1-3.5,2.3-7.6,0.5-10.4l-34.1,54.2v49.8
						c0,1.8-1.4,3.2-3.2,3.2h-107c-1.8,0-3.2-1.4-3.2-3.2V22.8c0-1.8,1.4-3.2,3.2-3.2h107c1.8,0,3.2,1.4,3.2,3.2V91.2z M104.4,151.6
						c-0.4-1.2-1.3-12.2,2.2-17.9l20.7-32.8V26.4H26.2V174H127v-36.9l-4.3,6.8c-3.2,5.2-11.7,8.5-13.9,9.3c-0.2,0.8-0.5,1.2-1.5,2.8
						c-1.7,2.7-5.6,2-6.9,0.7c-7.5-7.7-12.3-5-19-1.9c-5.5,2.5-11.8,5.2-15.7,0.4c-2.3,1.7-4.6,2.7-7.1,3c-3.6,0.4-6.7-1-9.3-3.4
						c-1.3-1.2-1.3-3.2-0.1-4.5s3.2-1.3,4.5-0.1c1.8,1.7,3.3,1.8,4.2,1.7c1.5-0.1,3.2-0.9,4.8-2.2c-4.3-11.7-1.9-22.6,10.3-27.1
						c7.7-2.8,14.5,5.5,10,12.2c0,0-12.1,16.7-12,16.8c2,0.3,4.9-1,7.9-2.4C88.1,144.9,96.3,143,104.4,151.6z M68,144.6
						c3.3-3.9,6.6-8.7,9.2-12.7c1.8-2.6-0.2-3.9-1.9-3.3C67.4,131.6,66.3,137,68,144.6z M117.5,140.7l45-71.3L157,66l-45,71.4
						c-1.2,1.8-1.6,5.4-1.6,8.6C113.3,144.5,116.3,142.6,117.5,140.7z M173,52.7c1-1.7,0.7-3.9-0.7-4.8c-1.8-1.1-3.8-0.2-4.8,1.3
						l-7.1,11.2l5.5,3.5L173,52.7z"/>
				</g>
			</g>
		</g>
	</g>
</g>
</svg>
