<svg version="1.1" id="icons" xmlns="http://www.w3.org/2000/svg" x="0" y="0" viewBox="0 0 57.1 62.4" xml:space="preserve"><style>.st1,.st4{fill:#fff;stroke:#2a5082;stroke-width:2;stroke-miterlimit:10}.st4{fill:none}</style><circle transform="rotate(-77.502 29.672 31.398)" cx="29.7" cy="31.4" fill="#e0f8d8" r="27.5"/><path class="st1" d="M41.1 23.5l-.2-.2c-1.1-1.2-1.2-2.9-.3-3.8l4.1-3.8c1.5-1.4 3.6-1.6 4.7-.4l.2.2c1.1 1.2.8 3.3-.7 4.7l-4 3.8c-1 .9-2.7.7-3.8-.5zM20.5 28.6l-5.3-2-7 22.4c.4.3.8.7 1.2 1 1.3 1.2 2.6 2.5 3.7 4l6.8 1c1.5-1.6 2.6-2.7 3.9-3.9 10 .7 14.7-6.7 15.7-7.8.9-1.3-19-14.7-19-14.7z"/><path d="M40.5 44.1H22.8c-2.2 0-3.9-1.7-3.9-3.9V4.9c0-2.2 1.8-3.9 3.9-3.9h17.7c2.2 0 3.9 1.7 3.9 3.9v35.3c0 2.2-1.8 3.9-3.9 3.9z" fill="#e9eaeb" stroke="#2a5082" stroke-width="2" stroke-miterlimit="10"/><path class="st1" d="M18.9 6.9h25.5v29.4H18.9zM43.8 43.3l-.2-.2c-1.1-1-1.5-2.3-.9-3l2.6-3c.9-1.1 2.6-1.2 3.7-.2l.2.2c1.1 1 1.3 2.6.3 3.7l-2.6 3c-.6.6-2 .4-3.1-.5z"/><path d="M19.4 28.4c1-3.1 1.4-5.2 1.8-8.8.2-2.1-.7-3.8-1.6-5.1-.9-1.3-3.2-1-3.7.5-2 6.4-2.4 8.2-3.6 11.4-1.4 3.6-.6 8.7-1.3 10.2-.1.3-4.8 6.3-6.1 8.1 1.4.7 4.3 2 5.4 3 1.4 1.2 2.7 2.6 3.8 4.2l1.1.1 6.2-6.4c2.7-7.7.4-14.1-2-17.2z" fill="#fff"/><path class="st4" d="M21.4 45.5c2.7-7.6.5-14-2-17.1 1-3.1 1.4-5.2 1.8-8.8.2-2.1-.7-3.8-1.6-5.1-.9-1.3-3.2-1-3.7.5-2 6.4-2.4 8.2-3.6 11.4-1.4 3.6-.6 8.7-1.3 10.2-.1.3-4.8 6.3-6.1 8.1 1.4.7 4.3 2 5.4 3 1.4 1.2 2.7 2.6 3.8 4.2l1.1.1"/><path fill="#34bf49" stroke="#2a5082" stroke-width="1.99998" stroke-miterlimit="10" d="M1.43 45.86l5.306-5.302 15.055 15.068-5.305 5.301z"/><path class="st1" d="M43.8 36.4l-.2-.2c-1.1-1-1.5-2.3-.9-3.1l2.6-3c.9-1.1 2.6-1.2 3.8-.2l.2.2c1.1 1 1.3 2.7.3 3.8l-2.6 3c-.6.7-2 .5-3.2-.5z"/><path class="st1" d="M43.8 29.7l-.2-.2c-1.1-1-1.5-2.3-.9-3.1l2.6-3c.9-1.1 2.6-1.2 3.8-.2l.2.2c1.1 1 1.3 2.7.3 3.8l-2.6 3c-.6.7-2 .5-3.2-.5z"/><path class="st4" d="M28.7 40.2h5.9"/></svg>