<svg version="1.1" id="icons" xmlns="http://www.w3.org/2000/svg" x="0" y="0" viewBox="0 0 66.4 60" xml:space="preserve"><style>.st2{fill:none;stroke:#2a5082;stroke-width:2;stroke-miterlimit:10}</style><circle transform="rotate(-45.001 34.273 30)" cx="34.3" cy="30" fill="#e0f8d8" r="30"/><path d="M62.1 21.8h-12V36c0 1.8-1.5 3.3-3.3 3.3H28.3v6.5c0 1.8 1.5 3.3 3.3 3.3h19.7l5.6 8.3c.6.9 2 .5 2-.6v-7.7h3.3c1.8 0 3.3-1.5 3.3-3.3V25.1c-.1-1.8-1.6-3.3-3.4-3.3z" fill="#34bf49"/><path class="st2" d="M51.2 21.8h10.9c1.8 0 3.3 1.5 3.3 3.3v20.7c0 1.8-1.5 3.3-3.3 3.3h-3.3v7.7c0 1.1-1.4 1.5-2 .6l-5.6-8.3H31.5c-1.8 0-3.3-1.5-3.3-3.3v-6.5"/><path d="M1 10.9V36c0 1.8 1.5 3.3 3.3 3.3h4.4v11.8c0 1 1.3 1.5 1.9.7l10.3-12.5h25.9c1.8 0 3.3-1.5 3.3-3.3V10.9c0-1.8-1.5-3.3-3.3-3.3H4.3C2.5 7.6 1 9.1 1 10.9z" fill="#fff" stroke="#2a5082" stroke-width="2" stroke-miterlimit="10"/><path class="st2" d="M46.8 21.8H31.5c-1.8 0-3.3 1.5-3.3 3.3V36"/></svg>