<svg xmlns="http://www.w3.org/2000/svg" width="116" height="141" viewBox="0 0 116 141">
  <defs>
    <style>
      .cls-1 {
        fill: #fff;
        fill-rule: evenodd;
      }
    </style>
  </defs>
  <path id="awards-icon" class="cls-1" d="M550.714,2151.67h-8.285v-4.41a8.285,8.285,0,0,0-8.286-8.26H467.857a8.285,8.285,0,0,0-8.286,8.26v4.41h-8.285a8.279,8.279,0,0,0-8.286,8.26c0,17.92,8.408,31.08,22.048,34.75a60.812,60.812,0,0,0,21.452,25.29,7.955,7.955,0,0,1,3.452,6.65v15.17a11.086,11.086,0,0,0-5.049,2.88,10.931,10.931,0,0,0-3.236,7.79h-2.762a8.285,8.285,0,0,0-8.286,8.26v16.53a2.756,2.756,0,0,0,2.762,2.75h55.238a2.756,2.756,0,0,0,2.762-2.75v-16.53a8.285,8.285,0,0,0-8.286-8.26h-2.762a11.051,11.051,0,0,0-8.285-10.67v-15.16a7.959,7.959,0,0,1,3.454-6.66,60.8,60.8,0,0,0,21.454-25.29c13.638-3.67,22.044-16.84,22.044-34.75A8.279,8.279,0,0,0,550.714,2151.67Zm-102.19,8.26a2.757,2.757,0,0,1,2.762-2.75h8.285v12.31a60.327,60.327,0,0,0,2.837,18.34C453.619,2183.49,448.524,2173.46,448.524,2159.93Zm74.571,98.04a2.757,2.757,0,0,1,2.762,2.75v13.77H476.143v-13.77a2.757,2.757,0,0,1,2.762-2.75H523.1Zm13.81-88.48a55.326,55.326,0,0,1-24.488,45.91,13.469,13.469,0,0,0-5.893,11.23v17.57a2.756,2.756,0,0,0,2.762,2.75,5.521,5.521,0,0,1,5.523,5.51H487.19a5.519,5.519,0,0,1,5.308-5.5c0.071,0,.143.01,0.216,0.01a2.773,2.773,0,0,0,2.762-2.77v-17.58a13.455,13.455,0,0,0-5.889-11.22,55.332,55.332,0,0,1-24.492-45.91v-22.23a2.757,2.757,0,0,1,2.762-2.75h66.286a2.757,2.757,0,0,1,2.762,2.75v22.23Zm2.688,18.34a60.357,60.357,0,0,0,2.836-18.34v-12.31h8.285a2.757,2.757,0,0,1,2.762,2.75C553.476,2173.46,548.382,2183.49,539.593,2187.83Z" transform="translate(-443 -2139)"/>
</svg>
