<svg xmlns="http://www.w3.org/2000/svg" width="64.031" height="60.03" viewBox="0 0 64.031 60.03"><defs><style>
      .cls-1 {
        fill: #393d72;
        fill-rule: evenodd;
      }
    </style></defs><path id="pricing-con" class="cls-1" d="M870.762,5692.11H828.238a5.759,5.759,0,0,1-5.753-5.75v-30.27a2,2,0,0,1,4,0v30.27a1.756,1.756,0,0,0,1.751,1.75h42.524a1.756,1.756,0,0,0,1.751-1.75v-30.27a2,2,0,0,1,4,0v30.27A5.759,5.759,0,0,1,870.762,5692.11Zm8.755-29.01a2,2,0,0,1-1.415-.59l-24.888-24.89a5.273,5.273,0,0,0-7.428,0L820.9,5662.51a2,2,0,1,1-2.83-2.83l24.888-24.88a9.262,9.262,0,0,1,13.088,0l24.888,24.88a2.005,2.005,0,0,1-1.415,3.42h0ZM857.5,5692.11H841.5a2,2,0,0,1-2-2v-17.76a6.257,6.257,0,0,1,6.254-6.25h7.5a6.257,6.257,0,0,1,6.254,6.25v17.76A2,2,0,0,1,857.5,5692.11Zm-14.007-4H855.5v-15.76a2.254,2.254,0,0,0-2.251-2.25h-7.5a2.254,2.254,0,0,0-2.251,2.25v15.76Z" transform="translate(-817.5 -5632.09)"></path></svg>