<?xml version="1.0" encoding="utf-8"?>
<!-- Generator: Adobe Illustrator 24.0.3, SVG Export Plug-In . SVG Version: 6.00 Build 0)  -->
<svg version="1.1" id="Layer_1" xmlns="http://www.w3.org/2000/svg" xmlns:xlink="http://www.w3.org/1999/xlink" x="0px" y="0px"
	 width="47.2px" height="44px" viewBox="0 0 47.2 44" style="enable-background:new 0 0 47.2 44;" xml:space="preserve">
<style type="text/css">
	.st0{fill:#FFFFFF;}
</style>
<path class="st0" d="M40.6,4.3h-3.7V2.5c0-1.4-1.1-2.5-2.5-2.5C33.1,0,32,1.1,32,2.5v1.8H15.4V2.5c0-1.4-1.1-2.5-2.4-2.5
	c-1.4,0-2.5,1.1-2.5,2.5v1.8H6.6C3,4.3,0,7.2,0,10.9v26.6C0,41,3,44,6.6,44h34c3.6,0,6.6-3,6.6-6.6V10.9C47.2,7.2,44.2,4.3,40.6,4.3
	z M12.1,40.6H6.6c-1.8,0-3.2-1.4-3.2-3.2v-3.7h8.7V40.6z M12.1,32.2H3.4v-6.6h8.7V32.2z M12.1,24.2H3.4v-6.6h8.7V24.2z M22.9,40.6
	h-9.3v-6.9h9.3V40.6z M22.9,32.2h-9.3v-6.6h9.3V32.2z M22.9,24.2h-9.3v-6.6h9.3V24.2z M33.6,40.6h-9.3v-6.9h9.3V40.6z M33.6,32.2
	h-9.3v-6.6h9.3V32.2z M33.6,24.2h-9.3v-6.6h9.3V24.2z M43.8,32.2h-8.8v-6.6h8.8V32.2z M43.8,24.2h-8.8v-6.6h8.8V24.2z M43.8,16.1
	H3.4v-5.2c0-1.8,1.4-3.2,3.2-3.2h3.9v2.6c0,1.4,1.1,2.5,2.5,2.5c1.4,0,2.4-1.1,2.4-2.5V7.6H32v2.6c0,1.4,1.1,2.5,2.5,2.5
	c1.4,0,2.5-1.1,2.5-2.5V7.6h3.7c1.8,0,3.2,1.4,3.2,3.2V16.1z"/>
</svg>
