<?xml version="1.0" encoding="utf-8"?>
<!-- Generator: Adobe Illustrator 24.0.3, SVG Export Plug-In . SVG Version: 6.00 Build 0)  -->
<svg version="1.1" id="_x2014_ÎÓÈ_x5F_1" xmlns="http://www.w3.org/2000/svg" xmlns:xlink="http://www.w3.org/1999/xlink"
	 x="0px" y="0px" width="50px" height="50px" viewBox="0 0 50 50" style="enable-background:new 0 0 50 50;" xml:space="preserve">
<style type="text/css">
	.st0{fill:#FFC389;}
</style>
<g>
	<path class="st0" d="M34.7,38l-5.9-1.3c-2.3-0.5-4.6,0.4-6,2.3l-2,2.9c-1.4-0.3-2.7-0.9-3.9-1.5c-3-1.7-5.5-4.2-7.2-7.2
		c-0.6-1.2-1.2-2.5-1.5-3.9l2.9-2c1.9-1.3,2.8-3.7,2.3-6L12,15.3c-0.2-1.1-0.9-2.1-1.9-2.7c-1-0.6-2.1-0.8-3.3-0.5l-3.8,0.9
		l-0.2,0.4c-2.3,4.3-3.2,9.2-2.8,14.1c1.1,11.9,10.6,21.3,22.4,22.4C23.4,50,24.2,50,25,50c4.1,0,8.1-1,11.7-2.9l0.4-0.2l0.9-3.8
		c0.3-1.1,0.1-2.3-0.5-3.3C36.8,38.9,35.9,38.2,34.7,38z M36,42.6l-0.7,2.9c-3.9,2-8.2,2.8-12.6,2.3c-10.9-1-19.6-9.7-20.6-20.6
		c-0.4-4.4,0.4-8.7,2.3-12.6L7.4,14c0.6-0.1,1.2,0,1.7,0.3s0.9,0.8,1,1.4l1.3,5.9c0.3,1.5-0.3,3-1.5,3.9l-2.3,1.6
		c-0.2-1.1-0.3-2.1-0.3-3.2h-2c0,3.7,1,7.1,2.6,10.1c1.8,3.5,4.7,6.3,8.1,8.1c3,1.7,6.4,2.6,10.1,2.6v-2c-1.1,0-2.2-0.1-3.2-0.3
		l1.6-2.3c0.9-1.3,2.4-1.9,3.9-1.5l5.9,1.3c0.6,0.1,1.1,0.5,1.4,1C36.1,41.4,36.2,42.1,36,42.6z"/>
	<path class="st0" d="M10.6,7.1L9.3,5.5C8.6,6.1,8,6.7,7.3,7.3l1.4,1.4C9.3,8.1,9.9,7.6,10.6,7.1z"/>
	<path class="st0" d="M45.9,34.7l1.8,0.8c0.7-1.6,1.3-3.2,1.7-4.9l-2-0.4C47.1,31.7,46.6,33.2,45.9,34.7z"/>
	<path class="st0" d="M40.5,5.3c-1.4-1.1-2.9-2-4.4-2.8l-0.9,1.8c1.4,0.7,2.8,1.6,4.1,2.6L40.5,5.3z"/>
	<path class="st0" d="M24.9,2l0-2c-1.7,0-3.5,0.2-5.2,0.6l0.4,2C21.7,2.2,23.3,2,24.9,2z"/>
	<path class="st0" d="M17.4,3.3l-0.7-1.9C15.1,2,13.5,2.7,12,3.6l1,1.7C14.4,4.5,15.9,3.8,17.4,3.3z"/>
	<path class="st0" d="M43.8,38.2l1.6,1.2c0.3-0.4,0.5-0.7,0.7-1.1l-1.7-1.1C44.3,37.5,44.1,37.9,43.8,38.2z"/>
	<path class="st0" d="M46.1,11.5c-0.9-1.5-2-2.8-3.3-4.1l-1.4,1.4c1.1,1.1,2.1,2.4,3,3.7L46.1,11.5z"/>
	<path class="st0" d="M49.9,22.3l-2,0.2C48,23.3,48,24.2,48,25c0,0.8,0,1.5-0.1,2.3l2,0.2C50,26.7,50,25.8,50,25
		C50,24.1,49.9,23.2,49.9,22.3z"/>
	<path class="st0" d="M33.1,1.4c-1.6-0.6-3.4-1-5.1-1.2l-0.2,2c1.6,0.2,3.2,0.6,4.7,1.1L33.1,1.4z"/>
	<path class="st0" d="M47.4,19.6l1.9-0.5c-0.4-1.7-1-3.3-1.7-4.9l-1.8,0.9C46.5,16.6,47,18.1,47.4,19.6z"/>
	<path class="st0" d="M41.3,41.3l1.4,1.4c0.6-0.6,1.2-1.3,1.8-2l-1.6-1.3C42.4,40.1,41.8,40.7,41.3,41.3z"/>
	<path class="st0" d="M17.7,27v3.1H26v-2h-6.3V28l6.3-5.2V20c0-2.3-1.9-4.1-4.1-4.1s-4.1,1.9-4.1,4.2h2c0-1.2,1-2.2,2.1-2.2
		s2.1,1,2.1,2.1v1.8L17.7,27z"/>
	<path class="st0" d="M36.4,15.7h-3.7l-4.6,8V26h6.3v4.2h2V26h2.1v-2h-2.1V15.7z M34.4,24h-4.1l3.6-6.3h0.5V24z"/>
	<path class="st0" d="M40.5,9.5C36.3,5.4,30.8,3.1,25,3.1S13.7,5.4,9.5,9.5l1.4,1.4c3.8-3.8,8.7-5.8,14-5.8S35.3,7.2,39,11
		s5.8,8.7,5.8,14S42.8,35.3,39,39l1.4,1.4c4.1-4.1,6.4-9.6,6.4-15.5S44.6,13.7,40.5,9.5z"/>
</g>
</svg>
