<svg xmlns="http://www.w3.org/2000/svg" xmlns:xlink="http://www.w3.org/1999/xlink" id="Layer_1" x="0px" y="0px" width="59px" height="59px" viewBox="0 0 59 59" style="enable-background:new 0 0 59 59;" xml:space="preserve">
<style type="text/css">
	.st0{fill:#FFC389;}
</style>
<g>
	<g>
		<g>
			<path class="st0" d="M29.5,0C13.2,0,0,13.2,0,29.5S13.2,59,29.5,59S59,45.8,59,29.5S45.8,0,29.5,0z M29.5,56.5     c-14.9,0-27-12.1-27-27s12.1-27,27-27s27,12.1,27,27S44.4,56.5,29.5,56.5z"></path>
			<path class="st0" d="M41.2,28.5L24,17.4c-0.4-0.2-0.9-0.3-1.3,0c-0.4,0.2-0.6,0.6-0.6,1.1v22.1c0,0.5,0.2,0.9,0.6,1.1     c0.2,0.1,0.4,0.2,0.6,0.2c0.2,0,0.5-0.1,0.7-0.2l17.2-11.1c0.4-0.2,0.6-0.6,0.6-1S41.6,28.7,41.2,28.5z M24.6,38.3V20.7l13.7,8.8     L24.6,38.3z"></path>
		</g>
	</g>
</g>
</svg>