<?xml version="1.0" encoding="utf-8"?>
<!-- Generator: Adobe Illustrator 24.0.3, SVG Export Plug-In . SVG Version: 6.00 Build 0)  -->
<svg version="1.1" id="Layer_1" xmlns="http://www.w3.org/2000/svg" xmlns:xlink="http://www.w3.org/1999/xlink" x="0px" y="0px"
	 width="44px" height="44px" viewBox="0 0 44 44" style="enable-background:new 0 0 44 44;" xml:space="preserve">
<style type="text/css">
	.st0{fill:#FFFFFF;}
</style>
<g>
	<path class="st0" d="M27.5,25.3c0,0.7-0.1,1.4-0.4,2c-0.3,0.6-0.6,1.1-1.1,1.5c-0.5,0.4-1.1,0.8-1.7,1c-0.7,0.3-1.4,0.4-2.2,0.5
		l-0.3,2.7c0,0.1,0,0.1-0.1,0.2c0,0.1-0.1,0.1-0.2,0.1c-0.1,0-0.2,0.1-0.3,0.1c-0.1,0-0.3,0-0.5,0c-0.3,0-0.5,0-0.7,0
		c-0.2,0-0.3-0.1-0.4-0.1c-0.1,0-0.2-0.1-0.2-0.2c0-0.1,0-0.2,0-0.3l0.3-2.6c-0.4-0.1-0.7-0.1-1-0.2c-0.3-0.1-0.6-0.2-0.9-0.3
		c-0.3-0.1-0.5-0.2-0.7-0.3c-0.2-0.1-0.3-0.2-0.4-0.3c-0.1-0.1-0.2-0.2-0.2-0.4c0-0.2-0.1-0.5-0.1-0.8c0-0.3,0-0.5,0-0.7
		c0-0.2,0-0.3,0.1-0.4c0-0.1,0.1-0.2,0.2-0.2c0.1,0,0.1-0.1,0.2-0.1c0.1,0,0.3,0.1,0.5,0.2c0.2,0.1,0.5,0.3,0.8,0.4
		c0.3,0.2,0.7,0.3,1.2,0.4c0.5,0.1,1,0.2,1.7,0.2c1,0,1.7-0.2,2.2-0.6c0.5-0.4,0.7-0.9,0.7-1.5c0-0.4-0.1-0.7-0.3-1
		c-0.2-0.3-0.5-0.5-0.8-0.7c-0.3-0.2-0.7-0.4-1.2-0.5c-0.4-0.2-0.9-0.3-1.3-0.5c-0.5-0.2-0.9-0.4-1.3-0.6c-0.4-0.2-0.8-0.5-1.2-0.9
		c-0.3-0.3-0.6-0.8-0.8-1.3c-0.2-0.5-0.3-1.1-0.3-1.8c0-0.6,0.1-1.2,0.3-1.7c0.2-0.5,0.5-1,0.9-1.4c0.4-0.4,0.9-0.7,1.5-1
		c0.6-0.2,1.2-0.4,2-0.5l0.3-2.6c0-0.1,0-0.1,0.1-0.2c0,0,0.1-0.1,0.2-0.1c0.1,0,0.2-0.1,0.3-0.1c0.1,0,0.3,0,0.5,0
		c0.3,0,0.5,0,0.7,0c0.2,0,0.3,0.1,0.4,0.1c0.1,0,0.2,0.1,0.2,0.2c0,0.1,0,0.2,0,0.3l-0.3,2.4c0.2,0,0.5,0.1,0.8,0.1
		c0.3,0.1,0.5,0.1,0.7,0.2c0.2,0.1,0.4,0.2,0.6,0.3c0.2,0.1,0.3,0.2,0.4,0.2c0.1,0.1,0.1,0.1,0.2,0.2c0,0.1,0.1,0.2,0.1,0.3
		c0,0.1,0,0.2,0,0.4c0,0.1,0,0.3,0,0.5c0,0.3,0,0.5,0,0.7c0,0.2,0,0.3-0.1,0.4c0,0.1-0.1,0.1-0.1,0.2c0,0-0.1,0-0.2,0
		c-0.1,0-0.3-0.1-0.5-0.2c-0.2-0.1-0.5-0.2-0.8-0.4c-0.3-0.1-0.7-0.2-1.1-0.4c-0.4-0.1-0.8-0.2-1.3-0.2c-0.4,0-0.8,0-1.1,0.1
		c-0.3,0.1-0.6,0.2-0.8,0.4c-0.2,0.2-0.3,0.3-0.4,0.5c-0.1,0.2-0.1,0.4-0.1,0.7c0,0.4,0.1,0.7,0.3,1c0.2,0.3,0.5,0.5,0.8,0.7
		c0.4,0.2,0.8,0.4,1.2,0.5c0.4,0.2,0.9,0.3,1.4,0.5c0.5,0.2,0.9,0.4,1.4,0.6c0.4,0.2,0.8,0.5,1.2,0.9c0.3,0.3,0.6,0.8,0.8,1.3
		C27.4,24,27.5,24.6,27.5,25.3z"/>
</g>
<g>
	<path class="st0" d="M22,44C9.9,44,0,34.1,0,22C0,9.9,9.9,0,22,0c12.1,0,22,9.9,22,22C44,34.1,34.1,44,22,44z M22,3
		C11.5,3,3,11.5,3,22c0,10.5,8.5,19,19,19c10.5,0,19-8.5,19-19C41,11.5,32.5,3,22,3z"/>
</g>
</svg>
