<svg xmlns="http://www.w3.org/2000/svg" xmlns:xlink="http://www.w3.org/1999/xlink" id="Layer_1" x="0px" y="0px" viewBox="0 0 27.56 36.15" style="enable-background:new 0 0 27.56 36.15;" xml:space="preserve">
<style type="text/css">
	.st0{fill:#FFFFFF;}
</style>
<g>
	<path class="st0" d="M13.85-77.99l17.93,6.82v22.64l-18,6.75l-18-6.75v-22.64L13.85-77.99z M-2.11-68.92v18.91l14.84,5.55v-18.91   L-2.11-68.92z M13.78-65.2l5.48-2.11l-13.92-5.2l-5.48,2.04L13.78-65.2z M27.7-70.47l-13.92-5.27l-5.41,2.11l13.85,5.2L27.7-70.47z    M14.84-44.46l14.84-5.55v-18.91l-14.84,5.55V-44.46z"></path>
</g>
<g>
	<path class="st0" d="M27.56,18.01v14.91c0,0.47-0.09,0.89-0.28,1.27c-0.19,0.38-0.42,0.71-0.7,1.02c-0.28,0.3-0.61,0.53-0.98,0.67   c-0.38,0.14-0.8,0.23-1.27,0.28L3.23,36.08c-0.47,0.05-0.89-0.02-1.27-0.21c-0.38-0.19-0.7-0.41-0.98-0.67   c-0.28-0.26-0.52-0.6-0.7-1.02C0.09,33.76,0,33.36,0,32.98V17.93c0-0.42,0.09-0.83,0.28-1.23c0.19-0.4,0.42-0.73,0.7-0.98   c0.28-0.26,0.61-0.48,0.98-0.67c0.37-0.19,0.8-0.26,1.27-0.21l18.98-0.07v-4.15c0-1.22-0.21-2.33-0.63-3.34   c-0.42-1.01-1.02-1.91-1.79-2.71c-0.77-0.8-1.68-1.41-2.71-1.83c-1.03-0.42-2.13-0.66-3.3-0.7c-1.17,0.05-2.27,0.28-3.3,0.7   C9.44,3.17,8.54,3.78,7.77,4.58C7,5.37,6.4,6.28,5.98,7.28C5.55,8.29,5.34,9.4,5.34,10.62l-2.18-0.07c0-1.41,0.28-2.77,0.84-4.08   C4.57,5.16,5.33,4.04,6.29,3.1c0.96-0.94,2.08-1.7,3.38-2.29c1.29-0.59,2.66-0.85,4.11-0.81c1.45-0.05,2.82,0.22,4.11,0.81   c1.29,0.59,2.41,1.35,3.38,2.29c0.96,0.94,1.72,2.06,2.29,3.38c0.56,1.31,0.84,2.67,0.84,4.08v4.29c0.42-0.05,0.82,0.02,1.2,0.21   c0.37,0.19,0.71,0.41,1.02,0.67c0.3,0.26,0.54,0.59,0.7,0.98c0.16,0.4,0.25,0.81,0.25,1.23V18.01z M25.31,17.55   c-0.05-0.12-0.12-0.23-0.21-0.35c-0.09-0.12-0.2-0.19-0.32-0.21c-0.12-0.02-0.27-0.06-0.46-0.11L3.23,16.95   c-0.19-0.05-0.34-0.04-0.46,0.04c-0.12,0.07-0.22,0.14-0.32,0.21c-0.09,0.07-0.17,0.19-0.21,0.35c-0.05,0.17-0.07,0.29-0.07,0.39   v15.05c0,0.09,0.02,0.22,0.07,0.39c0.05,0.17,0.12,0.28,0.21,0.35c0.09,0.07,0.2,0.14,0.32,0.21c0.12,0.07,0.27,0.08,0.46,0.04   l21.09,0.07c0.19-0.05,0.34-0.08,0.46-0.11c0.12-0.02,0.22-0.09,0.32-0.21c0.09-0.12,0.16-0.23,0.21-0.35   c0.05-0.12,0.07-0.27,0.07-0.46V18.01C25.38,17.82,25.36,17.67,25.31,17.55z M15.89,23.28c0,0.19-0.02,0.38-0.07,0.56   c-0.05,0.19-0.12,0.35-0.21,0.49c-0.09,0.14-0.21,0.28-0.35,0.42s-0.28,0.24-0.42,0.28v4.64l-2.11-0.07v-4.5   c-0.14-0.14-0.28-0.26-0.42-0.35c-0.14-0.09-0.26-0.23-0.35-0.42c-0.09-0.19-0.17-0.35-0.21-0.49c-0.05-0.14-0.07-0.35-0.07-0.63   c0-0.23,0.06-0.49,0.18-0.77c0.12-0.28,0.27-0.5,0.46-0.67c0.19-0.16,0.41-0.32,0.67-0.46c0.26-0.14,0.53-0.19,0.81-0.14   c0.28-0.05,0.55,0,0.81,0.14c0.26,0.14,0.48,0.29,0.67,0.46c0.19,0.17,0.34,0.39,0.46,0.67c0.12,0.28,0.18,0.54,0.18,0.77V23.28z"></path>
</g>
<g>
	<path class="st0" d="M-4.22,100.02V87.29h2.11v8.72c0.56-1.69,1.36-3.25,2.39-4.68c1.03-1.43,2.24-2.66,3.62-3.69   c1.38-1.03,2.92-1.83,4.61-2.39s3.45-0.84,5.27-0.84c1.87,0,3.67,0.29,5.38,0.88c1.71,0.59,3.27,1.42,4.68,2.5   c1.41,1.08,2.62,2.37,3.66,3.87c1.03,1.5,1.8,3.14,2.32,4.92l-2.04,0.56c-0.42-1.55-1.09-2.98-2-4.29   c-0.91-1.31-1.99-2.44-3.23-3.38c-1.24-0.94-2.6-1.66-4.08-2.18c-1.48-0.52-3.04-0.77-4.68-0.77c-1.69,0-3.32,0.28-4.89,0.84   c-1.57,0.56-2.98,1.35-4.22,2.36c-1.24,1.01-2.31,2.21-3.2,3.62c-0.89,1.41-1.52,2.93-1.9,4.57h8.93v2.11H-4.22z M19.05,104.24   h8.93c-0.38,1.64-1.01,3.16-1.9,4.57c-0.89,1.41-1.96,2.61-3.2,3.62c-1.24,1.01-2.65,1.79-4.22,2.36c-1.57,0.56-3.2,0.84-4.89,0.84   c-1.64,0-3.2-0.26-4.68-0.77c-1.48-0.52-2.84-1.24-4.08-2.18c-1.24-0.94-2.32-2.06-3.23-3.38c-0.91-1.31-1.58-2.74-2-4.29   l-2.04,0.56c0.52,1.78,1.29,3.42,2.32,4.92c1.03,1.5,2.25,2.79,3.66,3.87c1.41,1.08,2.96,1.91,4.68,2.5   c1.71,0.59,3.5,0.88,5.38,0.88c1.83,0,3.59-0.28,5.27-0.84s3.22-1.36,4.61-2.39c1.38-1.03,2.59-2.26,3.62-3.69   c1.03-1.43,1.83-2.99,2.39-4.68v8.72h2.11v-12.73H19.05V104.24z"></path>
</g>
</svg>