<svg xmlns="http://www.w3.org/2000/svg" xmlns:xlink="http://www.w3.org/1999/xlink" id="Layer_1" x="0px" y="0px" viewBox="0 0 36 33.33" style="enable-background:new 0 0 36 33.33;" xml:space="preserve">
<style type="text/css">
	.st0{fill:#FFFFFF;}
</style>
<g>
	<path class="st0" d="M18.07-162.41L36-155.59v22.64l-18,6.75l-18-6.75v-22.64L18.07-162.41z M2.11-153.34v18.91l14.84,5.55v-18.91   L2.11-153.34z M18-149.61l5.48-2.11l-13.92-5.2l-5.48,2.04L18-149.61z M31.92-154.88L18-160.16l-5.41,2.11l13.85,5.2L31.92-154.88z    M19.05-128.87l14.84-5.55v-18.91l-14.84,5.55V-128.87z"></path>
</g>
<g>
	<path class="st0" d="M31.78-66.41v14.91c0,0.47-0.09,0.89-0.28,1.27c-0.19,0.38-0.42,0.71-0.7,1.02c-0.28,0.3-0.61,0.53-0.98,0.67   c-0.38,0.14-0.8,0.23-1.27,0.28L7.45-48.34c-0.47,0.05-0.89-0.02-1.27-0.21c-0.38-0.19-0.7-0.41-0.98-0.67   c-0.28-0.26-0.52-0.6-0.7-1.02c-0.19-0.42-0.28-0.82-0.28-1.2v-15.05c0-0.42,0.09-0.83,0.28-1.23c0.19-0.4,0.42-0.73,0.7-0.98   c0.28-0.26,0.61-0.48,0.98-0.67c0.37-0.19,0.8-0.26,1.27-0.21l18.98-0.07v-4.15c0-1.22-0.21-2.33-0.63-3.34   c-0.42-1.01-1.02-1.91-1.79-2.71c-0.77-0.8-1.68-1.41-2.71-1.83c-1.03-0.42-2.13-0.66-3.3-0.7c-1.17,0.05-2.27,0.28-3.3,0.7   c-1.03,0.42-1.93,1.03-2.71,1.83c-0.77,0.8-1.37,1.7-1.79,2.71c-0.42,1.01-0.63,2.12-0.63,3.34l-2.18-0.07   c0-1.41,0.28-2.77,0.84-4.08c0.56-1.31,1.32-2.44,2.29-3.38c0.96-0.94,2.08-1.7,3.38-2.29c1.29-0.59,2.66-0.85,4.11-0.81   c1.45-0.05,2.82,0.22,4.11,0.81c1.29,0.59,2.41,1.35,3.38,2.29c0.96,0.94,1.72,2.06,2.29,3.38c0.56,1.31,0.84,2.67,0.84,4.08v4.29   c0.42-0.05,0.82,0.02,1.2,0.21c0.37,0.19,0.71,0.41,1.02,0.67c0.3,0.26,0.54,0.59,0.7,0.98c0.16,0.4,0.25,0.81,0.25,1.23V-66.41z    M29.53-66.86c-0.05-0.12-0.12-0.23-0.21-0.35c-0.09-0.12-0.2-0.19-0.32-0.21c-0.12-0.02-0.27-0.06-0.46-0.11L7.45-67.46   C7.27-67.51,7.11-67.5,7-67.43c-0.12,0.07-0.22,0.14-0.32,0.21c-0.09,0.07-0.17,0.19-0.21,0.35C6.42-66.7,6.4-66.57,6.4-66.48   v15.05c0,0.09,0.02,0.22,0.07,0.39c0.05,0.17,0.12,0.28,0.21,0.35c0.09,0.07,0.2,0.14,0.32,0.21c0.12,0.07,0.27,0.08,0.46,0.04   l21.09,0.07c0.19-0.05,0.34-0.08,0.46-0.11c0.12-0.02,0.22-0.09,0.32-0.21c0.09-0.12,0.16-0.23,0.21-0.35   c0.05-0.12,0.07-0.27,0.07-0.46v-14.91C29.6-66.59,29.58-66.75,29.53-66.86z M20.11-61.13c0,0.19-0.02,0.38-0.07,0.56   c-0.05,0.19-0.12,0.35-0.21,0.49c-0.09,0.14-0.21,0.28-0.35,0.42s-0.28,0.24-0.42,0.28v4.64l-2.11-0.07v-4.5   c-0.14-0.14-0.28-0.26-0.42-0.35c-0.14-0.09-0.26-0.23-0.35-0.42c-0.09-0.19-0.17-0.35-0.21-0.49c-0.05-0.14-0.07-0.35-0.07-0.63   c0-0.23,0.06-0.49,0.18-0.77c0.12-0.28,0.27-0.5,0.46-0.67c0.19-0.16,0.41-0.32,0.67-0.46c0.26-0.14,0.53-0.19,0.81-0.14   c0.28-0.05,0.55,0,0.81,0.14c0.26,0.14,0.48,0.29,0.67,0.46c0.19,0.17,0.34,0.39,0.46,0.67c0.12,0.28,0.18,0.54,0.18,0.77V-61.13z"></path>
</g>
<g>
	<path class="st0" d="M0,15.61V2.88h2.11v8.72C2.67,9.91,3.47,8.36,4.5,6.93C5.53,5.5,6.74,4.27,8.12,3.23   c1.38-1.03,2.92-1.83,4.61-2.39S16.17,0,18,0c1.87,0,3.67,0.29,5.38,0.88c1.71,0.59,3.27,1.42,4.68,2.5   c1.41,1.08,2.62,2.37,3.66,3.87c1.03,1.5,1.8,3.14,2.32,4.92l-2.04,0.56c-0.42-1.55-1.09-2.98-2-4.29C29.07,7.13,28,6,26.75,5.06   c-1.24-0.94-2.6-1.66-4.08-2.18C21.2,2.37,19.64,2.11,18,2.11c-1.69,0-3.32,0.28-4.89,0.84c-1.57,0.56-2.98,1.35-4.22,2.36   C7.65,6.32,6.58,7.52,5.7,8.93c-0.89,1.41-1.52,2.93-1.9,4.57h8.93v2.11H0z M23.27,19.83h8.93c-0.38,1.64-1.01,3.16-1.9,4.57   c-0.89,1.41-1.96,2.61-3.2,3.62c-1.24,1.01-2.65,1.79-4.22,2.36c-1.57,0.56-3.2,0.84-4.89,0.84c-1.64,0-3.2-0.26-4.68-0.77   c-1.48-0.52-2.84-1.24-4.08-2.18C8,27.33,6.93,26.2,6.01,24.89c-0.91-1.31-1.58-2.74-2-4.29l-2.04,0.56   c0.52,1.78,1.29,3.42,2.32,4.92c1.03,1.5,2.25,2.79,3.66,3.87c1.41,1.08,2.96,1.91,4.68,2.5c1.71,0.59,3.5,0.88,5.38,0.88   c1.83,0,3.59-0.28,5.27-0.84s3.22-1.36,4.61-2.39c1.38-1.03,2.59-2.26,3.62-3.69c1.03-1.43,1.83-2.99,2.39-4.68v8.72H36V17.72   H23.27V19.83z"></path>
</g>
</svg>