<?xml version="1.0" encoding="utf-8"?>
<!-- Generator: Adobe Illustrator 24.3.0, SVG Export Plug-In . SVG Version: 6.00 Build 0)  -->
<svg version="1.0" id="Layer_1" xmlns="http://www.w3.org/2000/svg" xmlns:xlink="http://www.w3.org/1999/xlink" x="0px" y="0px"
	 viewBox="0 0 17.831 27" style="enable-background:new 0 0 17.831 27;" xml:space="preserve">
<g>
	<path style="fill:#BA9778;" d="M16.772,8.297L10.53,3.547c-0.004-0.003-0.009-0.007-0.013-0.01
		c-0.425-0.319-0.929-0.503-1.459-0.531c-0.004,0-0.009-0.001-0.013-0.001c-0.618-0.03-1.231,0.159-1.727,0.531
		c-0.005,0.004-0.01,0.007-0.015,0.011L6.613,4.071C6.592,3.971,6.576,3.87,6.567,3.766C6.455,2.488,7.324,1.356,8.589,1.133
		c1.265-0.223,2.47,0.544,2.802,1.783l1.057-0.284c-0.481-1.791-2.221-2.899-4.049-2.577C6.571,0.377,5.314,2.014,5.476,3.861
		C5.504,4.183,5.575,4.491,5.68,4.78L1.071,8.288c-0.004,0.003-0.009,0.006-0.013,0.01C0.396,8.802,0,9.602,0,10.438v13.878
		C0,25.77,1.224,27,2.673,27h12.485c1.449,0,2.673-1.23,2.673-2.685V10.437C17.831,9.602,17.435,8.802,16.772,8.297z M16.736,24.315
		c0,0.862-0.723,1.59-1.578,1.59H2.673c-0.856,0-1.578-0.728-1.578-1.591V10.438c0-0.491,0.23-0.962,0.617-1.261
		c0.004-0.003,0.007-0.005,0.011-0.008l4.495-3.421c0.65,0.83,1.662,1.354,2.799,1.354V6.007c-0.781,0-1.476-0.357-1.927-0.924
		l0.862-0.656c0.004-0.003,0.009-0.006,0.013-0.01c0.291-0.221,0.651-0.335,1.015-0.32c0.003,0,0.006,0,0.01,0.001
		c0.319,0.015,0.622,0.126,0.876,0.319C9.87,4.42,9.874,4.423,9.878,4.426l6.231,4.742c0.393,0.299,0.627,0.773,0.627,1.269V24.315z
		"/>
	<path style="fill:#BA9778;" d="M8.915,16.256c-0.632,0-1.197-0.381-1.44-0.97c-0.243-0.591-0.11-1.265,0.339-1.717
		c0.447-0.45,1.113-0.584,1.696-0.34c0.585,0.244,0.964,0.815,0.964,1.454h1.095c0-1.082-0.643-2.05-1.637-2.464
		c-0.154-0.064-0.311-0.111-0.469-0.145v-0.665H8.368v0.663c-0.493,0.104-0.957,0.35-1.33,0.726
		c-0.76,0.765-0.986,1.905-0.574,2.905c0.412,1.001,1.374,1.648,2.452,1.648c0.632,0,1.197,0.381,1.44,0.97
		c0.243,0.591,0.11,1.265-0.339,1.717c-0.447,0.45-1.113,0.584-1.696,0.34c-0.585-0.244-0.964-0.815-0.964-1.454H6.262
		c0,1.082,0.643,2.05,1.637,2.464c0.154,0.064,0.311,0.112,0.469,0.146v0.664h1.095v-0.662c0.493-0.104,0.957-0.35,1.33-0.726
		c0.76-0.765,0.986-1.905,0.574-2.905C10.955,16.902,9.993,16.256,8.915,16.256z"/>
</g>
</svg>
