<?xml version="1.0" encoding="utf-8"?>
<!-- Generator: Adobe Illustrator 24.3.0, SVG Export Plug-In . SVG Version: 6.00 Build 0)  -->
<svg version="1.0" id="_x2014_ÎÓÈ_x5F_1" xmlns="http://www.w3.org/2000/svg" xmlns:xlink="http://www.w3.org/1999/xlink"
	 x="0px" y="0px" viewBox="0 0 27 27" style="enable-background:new 0 0 27 27;" xml:space="preserve">
<g>
	<g>
		<path style="fill:#BA9778;" d="M1.862,23.883H0V3.117C0,1.398,1.398,0,3.117,0h3.117v22.629H3.117
			C2.425,22.629,1.862,23.191,1.862,23.883z M3.117,1.862c-0.692,0-1.255,0.563-1.255,1.255V21.03
			c0.384-0.169,0.809-0.264,1.255-0.264h1.255V1.862H3.117z"/>
	</g>
	<g>
		<path style="fill:#BA9778;" d="M5.303,27H3.117C1.398,27,0,25.602,0,23.883c0-1.718,1.398-3.117,3.117-3.117h2.186v1.862H3.117
			c-0.692,0-1.255,0.563-1.255,1.255s0.563,1.255,1.255,1.255h2.186V27z"/>
	</g>
	<g>
		<polygon style="fill:#BA9778;" points="27,27 5.303,27 5.303,25.138 25.138,25.138 25.138,5.687 5.303,5.687 5.303,3.825 
			27,3.825 		"/>
	</g>
	<g>
		<path style="fill:#BA9778;" d="M18.256,24.814H7.104v-9.513h4.372v-3.602H7.104V6.558h13.885v6.011h3.279v9.513h-6.012V24.814z
			 M8.966,22.952h7.428V20.22h6.012v-5.789h-3.279V8.42H8.966v1.417h4.372v7.326H8.966V22.952z"/>
	</g>
	<g>
		<path style="fill:#BA9778;" d="M18.256,20.625h-1.862v-1.862h1.862V20.625z M17.325,17.163h-1.194v-1.862h2.125V16.9h-0.931
			V17.163z M14.269,17.163h-1.862v-1.862h1.862V17.163z"/>
	</g>
	<g>
		<rect x="12.407" y="9.837" style="fill:#BA9778;" width="5.464" height="1.862"/>
	</g>
	<g>
		<rect x="19.127" y="13.5" style="fill:#BA9778;" width="1.862" height="3.279"/>
	</g>
</g>
</svg>
