<?xml version="1.0" encoding="utf-8"?>
<!-- Generator: Adobe Illustrator 23.0.3, SVG Export Plug-In . SVG Version: 6.00 Build 0)  -->
<svg version="1.1" id="Layer_1" xmlns="http://www.w3.org/2000/svg" xmlns:xlink="http://www.w3.org/1999/xlink" x="0px" y="0px"
	 width="209.6px" height="14px" viewBox="0 0 209.6 14" style="enable-background:new 0 0 209.6 14;" xml:space="preserve">
<style type="text/css">
	.st0{fill:#253B80;}
	.st1{fill:#179BD7;}
	.st2{fill:#222D65;}
	.st3{fill:#E20D17;}
	.st4{fill:#EA610A;}
	.st5{fill:#1D1D1B;}
	.st6{fill:#F59E00;}
	.st7{fill:#10357F;}
</style>
<g id="XMLID_12_">
	<g id="XMLID_13_">
		<g id="XMLID_14_">
			<g id="XMLID_15_">
				<path id="XMLID_57_" class="st0" d="M177,5.6c-0.2,1-1,1-1.7,1h-0.4l0.3-1.9c0-0.1,0.1-0.2,0.2-0.2h0.2c0.5,0,1,0,1.3,0.3
					C177,4.9,177.1,5.2,177,5.6z M176.7,2.9h-2.9c-0.2,0-0.4,0.1-0.4,0.3l-1.2,7.4c0,0.1,0.1,0.3,0.2,0.3h1.4c0.2,0,0.4-0.1,0.4-0.3
					l0.3-2c0-0.2,0.2-0.3,0.4-0.3h0.9c1.9,0,3-0.9,3.3-2.7c0.1-0.8,0-1.4-0.4-1.9C178.4,3.1,177.7,2.9,176.7,2.9z"/>
				<path id="XMLID_54_" class="st0" d="M183.4,8.2c-0.1,0.8-0.8,1.3-1.6,1.3c-0.4,0-0.7-0.1-0.9-0.4c-0.2-0.2-0.3-0.6-0.2-1
					c0.1-0.8,0.8-1.3,1.6-1.3c0.4,0,0.7,0.1,0.9,0.4C183.4,7.5,183.5,7.8,183.4,8.2z M185.3,5.5h-1.4c-0.1,0-0.2,0.1-0.2,0.2
					l-0.1,0.4L183.6,6c-0.3-0.4-1-0.6-1.6-0.6c-1.5,0-2.8,1.2-3.1,2.8c-0.1,0.8,0.1,1.6,0.5,2.1c0.4,0.5,1,0.7,1.7,0.7
					c1.2,0,1.9-0.8,1.9-0.8l-0.1,0.4c0,0.1,0.1,0.3,0.2,0.3h1.2c0.2,0,0.4-0.1,0.4-0.3l0.7-4.7C185.6,5.7,185.5,5.5,185.3,5.5z"/>
				<path id="XMLID_33_" class="st0" d="M192.7,5.5h-1.4c-0.1,0-0.3,0.1-0.3,0.2l-1.9,2.8l-0.8-2.7c-0.1-0.2-0.2-0.3-0.4-0.3h-1.4
					c-0.2,0-0.3,0.2-0.2,0.3l1.5,4.5l-1.4,2c-0.1,0.2,0,0.4,0.2,0.4h1.4c0.1,0,0.3-0.1,0.3-0.2l4.6-6.7C193,5.7,192.9,5.5,192.7,5.5
					z"/>
				<path id="XMLID_38_" class="st1" d="M197.6,5.6c-0.2,1-1,1-1.7,1h-0.4l0.3-1.9c0-0.1,0.1-0.2,0.2-0.2h0.2c0.5,0,1,0,1.3,0.3
					C197.7,4.9,197.7,5.2,197.6,5.6z M197.3,2.9h-2.9c-0.2,0-0.4,0.1-0.4,0.3l-1.2,7.4c0,0.1,0.1,0.3,0.2,0.3h1.5
					c0.1,0,0.3-0.1,0.3-0.2l0.3-2.1c0-0.2,0.2-0.3,0.4-0.3h0.9c1.9,0,3-0.9,3.3-2.7c0.1-0.8,0-1.4-0.4-1.9
					C199,3.1,198.3,2.9,197.3,2.9z"/>
				<path id="XMLID_21_" class="st1" d="M204,8.2c-0.1,0.8-0.8,1.3-1.6,1.3c-0.4,0-0.7-0.1-0.9-0.4c-0.2-0.2-0.3-0.6-0.2-1
					c0.1-0.8,0.8-1.3,1.6-1.3c0.4,0,0.7,0.1,0.9,0.4C204,7.5,204.1,7.8,204,8.2z M206,5.5h-1.4c-0.1,0-0.2,0.1-0.2,0.2l-0.1,0.4
					L204.2,6c-0.3-0.4-1-0.6-1.6-0.6c-1.5,0-2.8,1.2-3.1,2.8c-0.1,0.8,0.1,1.6,0.5,2.1c0.4,0.5,1,0.7,1.7,0.7c1.2,0,1.9-0.8,1.9-0.8
					l-0.1,0.4c0,0.1,0.1,0.3,0.2,0.3h1.2c0.2,0,0.4-0.1,0.4-0.3l0.7-4.7C206.2,5.7,206.1,5.5,206,5.5z"/>
				<path id="XMLID_28_" class="st1" d="M207.6,3.1l-1.2,7.5c0,0.1,0.1,0.3,0.2,0.3h1.2c0.2,0,0.4-0.1,0.4-0.3l1.2-7.4
					c0-0.1-0.1-0.3-0.2-0.3h-1.3C207.7,2.9,207.6,2.9,207.6,3.1z"/>
				<path id="XMLID_27_" class="st0" d="M160.2,12.3l0.2-1.4l-0.5,0h-2.4l1.6-10.4c0,0,0-0.1,0-0.1c0,0,0.1,0,0.1,0h4
					c1.3,0,2.2,0.3,2.7,0.8c0.2,0.3,0.4,0.5,0.4,0.8c0.1,0.3,0.1,0.7,0,1.1l0,0v0.3l0.2,0.1c0.2,0.1,0.3,0.2,0.5,0.3
					c0.2,0.2,0.3,0.5,0.4,0.8c0.1,0.3,0,0.7-0.1,1.2c-0.1,0.5-0.3,1-0.5,1.3c-0.2,0.3-0.5,0.6-0.8,0.8c-0.3,0.2-0.6,0.4-1,0.5
					c-0.4,0.1-0.8,0.2-1.3,0.2h-0.3c-0.2,0-0.4,0.1-0.6,0.2c-0.2,0.1-0.3,0.3-0.3,0.6l0,0.1l-0.4,2.5l0,0.1c0,0,0,0,0,0.1
					c0,0,0,0,0,0H160.2z"/>
				<path id="XMLID_26_" class="st1" d="M166.9,3.2c0,0.1,0,0.2,0,0.2c-0.5,2.7-2.3,3.6-4.6,3.6h-1.2c-0.3,0-0.5,0.2-0.6,0.5
					l-0.6,3.8l-0.2,1.1c0,0.2,0.1,0.3,0.3,0.3h2.1c0.2,0,0.5-0.2,0.5-0.4l0-0.1l0.4-2.5l0-0.1c0-0.2,0.2-0.4,0.5-0.4h0.3
					c2,0,3.6-0.8,4-3.2c0.2-1,0.1-1.8-0.4-2.4C167.3,3.5,167.1,3.4,166.9,3.2z"/>
				<path id="XMLID_25_" class="st2" d="M166.4,3c-0.1,0-0.2,0-0.2-0.1c-0.1,0-0.2,0-0.3,0c-0.3-0.1-0.7-0.1-1-0.1h-3.1
					c-0.1,0-0.1,0-0.2,0c-0.1,0.1-0.2,0.2-0.3,0.4l-0.7,4.2l0,0.1c0-0.3,0.3-0.5,0.6-0.5h1.2c2.3,0,4.1-0.9,4.6-3.6
					c0-0.1,0-0.2,0-0.2c-0.1-0.1-0.3-0.1-0.4-0.2C166.4,3,166.4,3,166.4,3z"/>
				<path id="XMLID_24_" class="st0" d="M161.2,3.3c0-0.2,0.1-0.3,0.3-0.4c0.1,0,0.1,0,0.2,0h3.1c0.4,0,0.7,0,1,0.1
					c0.1,0,0.2,0,0.3,0c0.1,0,0.2,0,0.2,0.1c0,0,0.1,0,0.1,0c0.2,0.1,0.3,0.1,0.4,0.2c0.2-1,0-1.7-0.5-2.3c-0.6-0.7-1.7-1-3-1h-4
					c-0.3,0-0.5,0.2-0.6,0.5l-1.7,10.5c0,0.2,0.1,0.4,0.3,0.4h2.4l0.6-3.9L161.2,3.3z"/>
			</g>
		</g>
	</g>
</g>
<g>
	<path class="st3" d="M68.6,6.5c0-2.1,1-3.9,2.5-5.1C70,0.5,68.6,0,67,0c-3.6,0-6.5,2.9-6.5,6.5S63.4,13,67,13c1.5,0,2.9-0.5,4-1.4
		C69.6,10.4,68.6,8.6,68.6,6.5z"/>
	<ellipse class="st4" cx="71.1" cy="6.5" rx="2.5" ry="5.1"/>
	<g>
		<path class="st5" d="M92.3,4.8c-0.2-0.2-0.3-0.3-0.5-0.4c-0.2-0.1-0.4-0.1-0.7-0.1c-0.1,0-0.3,0-0.4,0c-0.1,0-0.3,0.1-0.4,0.1
			c-0.1,0.1-0.3,0.1-0.4,0.2c-0.1,0.1-0.2,0.2-0.3,0.4c-0.1-0.2-0.3-0.4-0.6-0.6c-0.2-0.1-0.5-0.2-0.9-0.2c-0.1,0-0.2,0-0.3,0
			c-0.1,0-0.2,0.1-0.3,0.1c-0.1,0-0.2,0.1-0.3,0.2c-0.1,0.1-0.2,0.2-0.3,0.3V4.4H86v4.3h0.9V6.3c0-0.2,0-0.3,0.1-0.5
			c0.1-0.1,0.1-0.3,0.2-0.4c0.1-0.1,0.2-0.2,0.3-0.2c0.1,0,0.3-0.1,0.4-0.1c0.3,0,0.5,0.1,0.7,0.3c0.2,0.2,0.3,0.5,0.3,0.8v2.4h0.9
			V6.3c0-0.2,0-0.3,0.1-0.5c0.1-0.1,0.1-0.3,0.2-0.4c0.1-0.1,0.2-0.2,0.3-0.2c0.1,0,0.3-0.1,0.4-0.1c0.3,0,0.5,0.1,0.7,0.3
			c0.2,0.2,0.3,0.5,0.3,0.8v2.4h0.9V6c0-0.3,0-0.5-0.1-0.7C92.6,5.1,92.5,4.9,92.3,4.8z"/>
		<path class="st5" d="M97.2,4.9c-0.2-0.2-0.3-0.3-0.6-0.5c-0.2-0.1-0.5-0.2-0.8-0.2c-0.3,0-0.6,0.1-0.8,0.2
			c-0.3,0.1-0.5,0.3-0.7,0.5c-0.2,0.2-0.3,0.4-0.5,0.7c-0.1,0.3-0.2,0.6-0.2,0.9c0,0.3,0.1,0.6,0.2,0.9c0.1,0.3,0.3,0.5,0.5,0.7
			c0.2,0.2,0.4,0.4,0.7,0.5c0.3,0.1,0.5,0.2,0.8,0.2c0.3,0,0.6-0.1,0.8-0.2c0.2-0.1,0.4-0.3,0.6-0.5v0.5h0.9V4.4h-0.9V4.9z
			 M97.1,7.1c-0.1,0.2-0.2,0.3-0.3,0.4c-0.1,0.1-0.3,0.2-0.4,0.3c-0.2,0.1-0.3,0.1-0.5,0.1c-0.2,0-0.4,0-0.5-0.1
			c-0.2-0.1-0.3-0.2-0.4-0.3c-0.1-0.1-0.2-0.3-0.3-0.4c-0.1-0.2-0.1-0.3-0.1-0.5c0-0.2,0-0.4,0.1-0.5c0.1-0.2,0.1-0.3,0.3-0.4
			c0.1-0.1,0.2-0.2,0.4-0.3c0.2-0.1,0.3-0.1,0.5-0.1c0.2,0,0.4,0,0.5,0.1c0.2,0.1,0.3,0.2,0.4,0.3C97,5.7,97.1,5.8,97.1,6
			c0.1,0.2,0.1,0.4,0.1,0.6S97.2,6.9,97.1,7.1z"/>
		<path class="st5" d="M102.5,6.6c-0.3-0.2-0.6-0.3-1.1-0.4l-0.4-0.1c-0.1,0-0.2,0-0.3-0.1c-0.1,0-0.2,0-0.2-0.1
			c-0.1,0-0.1-0.1-0.2-0.1c0-0.1-0.1-0.1-0.1-0.2c0-0.2,0.1-0.3,0.2-0.4c0.1-0.1,0.3-0.1,0.6-0.1c0.1,0,0.3,0,0.4,0
			c0.1,0,0.3,0.1,0.4,0.1c0.1,0,0.2,0.1,0.3,0.1c0.1,0,0.2,0.1,0.2,0.1l0.4-0.7c-0.2-0.1-0.5-0.3-0.8-0.3c-0.3-0.1-0.6-0.1-1-0.1
			c-0.3,0-0.5,0-0.7,0.1c-0.2,0.1-0.4,0.2-0.6,0.3c-0.2,0.1-0.3,0.3-0.4,0.4c-0.1,0.2-0.1,0.4-0.1,0.6c0,0.3,0.1,0.6,0.4,0.8
			c0.2,0.2,0.6,0.4,1.1,0.4l0.5,0.1c0.3,0,0.4,0.1,0.6,0.2c0.1,0.1,0.2,0.2,0.2,0.3c0,0.2-0.1,0.3-0.2,0.4C101.5,8,101.2,8,100.9,8
			c-0.2,0-0.3,0-0.5,0c-0.1,0-0.3-0.1-0.4-0.1c-0.1,0-0.2-0.1-0.3-0.1c-0.1-0.1-0.2-0.1-0.3-0.2L99,8.3c0.2,0.1,0.3,0.2,0.5,0.3
			s0.3,0.1,0.5,0.2c0.2,0,0.3,0.1,0.5,0.1c0.1,0,0.3,0,0.4,0c0.3,0,0.6,0,0.8-0.1c0.2-0.1,0.5-0.2,0.6-0.3c0.2-0.1,0.3-0.3,0.4-0.4
			c0.1-0.2,0.1-0.4,0.1-0.6C102.9,7,102.7,6.8,102.5,6.6z"/>
		<path class="st5" d="M111.3,4.9c-0.2-0.2-0.4-0.4-0.6-0.5c-0.3-0.1-0.5-0.2-0.8-0.2c-0.3,0-0.6,0.1-0.9,0.2
			c-0.3,0.1-0.5,0.3-0.7,0.5c-0.2,0.2-0.3,0.4-0.4,0.7c-0.1,0.3-0.2,0.6-0.2,0.9c0,0.3,0.1,0.7,0.2,0.9c0.1,0.3,0.3,0.5,0.5,0.7
			c0.2,0.2,0.4,0.4,0.7,0.5c0.3,0.1,0.6,0.2,0.9,0.2c0.3,0,0.6,0,0.9-0.1c0.3-0.1,0.6-0.2,0.8-0.5l-0.5-0.7
			c-0.2,0.1-0.4,0.3-0.6,0.3C110.4,8,110.1,8,109.9,8c-0.2,0-0.3,0-0.4-0.1c-0.1,0-0.3-0.1-0.4-0.2c-0.1-0.1-0.2-0.2-0.3-0.3
			c-0.1-0.1-0.1-0.3-0.2-0.5h3.2c0-0.1,0-0.1,0-0.2c0-0.1,0-0.1,0-0.2c0-0.3-0.1-0.6-0.2-0.9C111.6,5.4,111.5,5.1,111.3,4.9z
			 M108.6,6.2c0-0.2,0.1-0.3,0.1-0.4c0.1-0.1,0.1-0.2,0.2-0.3c0.1-0.1,0.2-0.2,0.3-0.2c0.1-0.1,0.3-0.1,0.4-0.1
			c0.3,0,0.5,0.1,0.7,0.3c0.2,0.2,0.3,0.4,0.4,0.8H108.6z"/>
		<path class="st5" d="M123.8,4.9c-0.2-0.2-0.3-0.3-0.6-0.5c-0.2-0.1-0.5-0.2-0.8-0.2c-0.3,0-0.6,0.1-0.8,0.2
			c-0.3,0.1-0.5,0.3-0.7,0.5c-0.2,0.2-0.3,0.4-0.5,0.7c-0.1,0.3-0.2,0.6-0.2,0.9c0,0.3,0.1,0.6,0.2,0.9c0.1,0.3,0.3,0.5,0.5,0.7
			c0.2,0.2,0.4,0.4,0.7,0.5c0.3,0.1,0.5,0.2,0.8,0.2c0.3,0,0.6-0.1,0.8-0.2s0.4-0.3,0.6-0.5v0.5h0.9V4.4h-0.9V4.9z M123.8,7.1
			c-0.1,0.2-0.2,0.3-0.3,0.4c-0.1,0.1-0.3,0.2-0.4,0.3c-0.2,0.1-0.3,0.1-0.5,0.1c-0.2,0-0.4,0-0.5-0.1c-0.2-0.1-0.3-0.2-0.4-0.3
			c-0.1-0.1-0.2-0.3-0.3-0.4c-0.1-0.2-0.1-0.3-0.1-0.5c0-0.2,0-0.4,0.1-0.5c0.1-0.2,0.1-0.3,0.3-0.4c0.1-0.1,0.2-0.2,0.4-0.3
			c0.2-0.1,0.3-0.1,0.5-0.1c0.2,0,0.4,0,0.5,0.1c0.2,0.1,0.3,0.2,0.4,0.3c0.1,0.1,0.2,0.3,0.3,0.4c0.1,0.2,0.1,0.4,0.1,0.6
			S123.8,6.9,123.8,7.1z"/>
		<path class="st5" d="M106.5,7.9c-0.2,0.1-0.3,0.1-0.4,0.1c-0.1,0-0.2,0-0.3,0c-0.1,0-0.2-0.1-0.2-0.1c-0.1-0.1-0.1-0.1-0.1-0.3
			c0-0.1-0.1-0.2-0.1-0.4V5.3h1.5V4.4h-1.5V3.1h-0.9v1.3h-0.9v0.9h0.9v1.9c0,0.6,0.1,1,0.4,1.3c0.3,0.3,0.7,0.4,1.1,0.4
			c0.3,0,0.5,0,0.7-0.1c0.1-0.1,0.3-0.1,0.4-0.2l-0.3-0.8C106.7,7.8,106.6,7.8,106.5,7.9z"/>
		<path class="st5" d="M115,4.3c-0.3,0-0.5,0-0.7,0.1c-0.2,0.1-0.4,0.3-0.5,0.5V4.4h-0.9v4.3h0.9V6.3c0-0.2,0-0.3,0.1-0.5
			c0.1-0.1,0.1-0.3,0.2-0.4c0.1-0.1,0.2-0.2,0.3-0.2c0.1-0.1,0.3-0.1,0.4-0.1c0.1,0,0.2,0,0.4,0c0.1,0,0.1,0,0.2,0.1l0.3-0.9
			c-0.1,0-0.2,0-0.2-0.1C115.3,4.3,115.2,4.3,115,4.3z"/>
		<path class="st5" d="M128.1,4.3c-0.3,0-0.5,0-0.7,0.1c-0.2,0.1-0.4,0.3-0.5,0.5V4.4H126v4.3h0.9V6.3c0-0.2,0-0.3,0.1-0.5
			c0.1-0.1,0.1-0.3,0.2-0.4c0.1-0.1,0.2-0.2,0.3-0.2c0.1-0.1,0.3-0.1,0.4-0.1c0.1,0,0.2,0,0.4,0c0.1,0,0.1,0,0.2,0.1l0.3-0.9
			c-0.1,0-0.2,0-0.2-0.1C128.4,4.3,128.3,4.3,128.1,4.3z"/>
		<path class="st5" d="M132.5,2.6v2.3c-0.2-0.2-0.3-0.3-0.6-0.5c-0.2-0.1-0.5-0.2-0.8-0.2c-0.3,0-0.6,0.1-0.8,0.2
			c-0.3,0.1-0.5,0.3-0.7,0.5c-0.2,0.2-0.3,0.4-0.5,0.7C129,5.9,129,6.2,129,6.6c0,0.3,0.1,0.6,0.2,0.9c0.1,0.3,0.3,0.5,0.5,0.7
			c0.2,0.2,0.4,0.4,0.7,0.5c0.3,0.1,0.5,0.2,0.8,0.2c0.3,0,0.6-0.1,0.8-0.2c0.2-0.1,0.4-0.3,0.6-0.5v0.5h0.9V2.6H132.5z M132.5,7.1
			c-0.1,0.2-0.2,0.3-0.3,0.4c-0.1,0.1-0.3,0.2-0.4,0.3c-0.2,0.1-0.3,0.1-0.5,0.1c-0.2,0-0.4,0-0.5-0.1c-0.2-0.1-0.3-0.2-0.4-0.3
			c-0.1-0.1-0.2-0.3-0.3-0.4C130,6.9,130,6.7,130,6.6c0-0.2,0-0.4,0.1-0.5c0.1-0.2,0.1-0.3,0.3-0.4c0.1-0.1,0.2-0.2,0.4-0.3
			c0.2-0.1,0.3-0.1,0.5-0.1c0.2,0,0.4,0,0.5,0.1c0.2,0.1,0.3,0.2,0.4,0.3c0.1,0.1,0.2,0.3,0.3,0.4c0.1,0.2,0.1,0.4,0.1,0.6
			S132.5,6.9,132.5,7.1z"/>
		<path class="st5" d="M117.3,5.6c0.1-0.1,0.3-0.2,0.4-0.3c0.2-0.1,0.3-0.1,0.5-0.1v0c0.2,0,0.4,0,0.6,0.1c0.2,0.1,0.3,0.2,0.5,0.3
			l0.5-0.8c-0.2-0.1-0.4-0.2-0.6-0.3c-0.3-0.1-0.6-0.2-0.9-0.2c-0.3,0-0.6,0.1-0.9,0.2c-0.3,0.1-0.5,0.3-0.7,0.5
			c-0.2,0.2-0.4,0.4-0.5,0.7c-0.1,0.3-0.2,0.6-0.2,0.9c0,0.3,0.1,0.6,0.2,0.9c0.1,0.3,0.3,0.5,0.5,0.7c0.2,0.2,0.5,0.4,0.7,0.5
			c0.3,0.1,0.6,0.2,0.9,0.2c0.3,0,0.6-0.1,0.9-0.2c0.2-0.1,0.4-0.2,0.6-0.3l-0.5-0.8c-0.1,0.1-0.3,0.2-0.5,0.3
			c-0.2,0.1-0.4,0.1-0.6,0.1v0c-0.2,0-0.4,0-0.5-0.1c-0.2-0.1-0.3-0.2-0.4-0.3c-0.1-0.1-0.2-0.3-0.3-0.4c-0.1-0.2-0.1-0.4-0.1-0.6
			c0-0.2,0-0.4,0.1-0.6C117,5.8,117.1,5.7,117.3,5.6z"/>
	</g>
	<path class="st6" d="M81.1,10.1V9.9H81V9.8h0.2v0.1h-0.1L81.1,10.1L81.1,10.1z M81.6,10.1V9.9V10.1l-0.1,0l-0.1-0.2v0.2h-0.1V9.8
		h0.1l0.1,0.2l0.1-0.2h0.1L81.6,10.1L81.6,10.1z"/>
	<g>
		<path class="st5" d="M134.6,8.3c0,0,0.1,0,0.1,0c0,0,0.1,0,0.1,0.1c0,0,0.1,0.1,0.1,0.1c0,0,0,0.1,0,0.1c0,0,0,0.1,0,0.1
			c0,0,0,0.1-0.1,0.1c0,0-0.1,0.1-0.1,0.1c0,0-0.1,0-0.1,0c0,0-0.1,0-0.1,0c0,0-0.1,0-0.1-0.1c0,0-0.1-0.1-0.1-0.1c0,0,0-0.1,0-0.1
			c0,0,0-0.1,0-0.1c0,0,0-0.1,0.1-0.1c0,0,0.1-0.1,0.1-0.1C134.5,8.3,134.6,8.3,134.6,8.3z M134.6,8.9
			C134.7,8.9,134.7,8.9,134.6,8.9c0.1,0,0.1,0,0.2-0.1c0,0,0,0,0.1-0.1c0,0,0-0.1,0-0.1c0,0,0-0.1,0-0.1c0,0,0-0.1-0.1-0.1
			c0,0,0,0-0.1-0.1c0,0-0.1,0-0.1,0c0,0-0.1,0-0.1,0c0,0-0.1,0-0.1,0.1c0,0,0,0-0.1,0.1c0,0,0,0.1,0,0.1c0,0,0,0.1,0,0.1
			c0,0,0,0.1,0.1,0.1C134.5,8.8,134.5,8.8,134.6,8.9C134.6,8.9,134.6,8.9,134.6,8.9z M134.6,8.5C134.7,8.5,134.7,8.5,134.6,8.5
			c0.1,0,0.1,0.1,0.1,0.1c0,0,0,0,0,0.1c0,0,0,0-0.1,0l0.1,0.1h-0.1l-0.1-0.1h0v0.1h-0.1V8.5H134.6z M134.6,8.6L134.6,8.6L134.6,8.6
			C134.7,8.6,134.7,8.6,134.6,8.6c0.1,0,0.1,0,0.1,0C134.7,8.6,134.7,8.6,134.6,8.6C134.7,8.6,134.7,8.6,134.6,8.6L134.6,8.6z"/>
	</g>
	<path class="st6" d="M75.1,0c-1.5,0-2.9,0.5-4,1.4c1.5,1.2,2.5,3,2.5,5.1s-1,3.9-2.5,5.1c1.1,0.9,2.5,1.4,4,1.4
		c3.6,0,6.5-2.9,6.5-6.5S78.7,0,75.1,0z"/>
</g>
<path class="st7" d="M39,12.3c-0.8-3.9-1.6-7.8-2.5-11.8c0-0.2-0.1-0.2-0.2-0.2c-0.8,0-1.6,0-2.4,0c-0.7,0-1.2,0.3-1.5,1
	c-1.4,3.4-2.8,6.7-4.2,10.1c-0.1,0.4-0.3,0.7-0.5,1.1c0.1,0,0.1,0,0.1,0c1,0,2,0,3,0c0.1,0,0.2,0,0.2-0.2c0.2-0.5,0.4-1,0.5-1.5
	c0-0.1,0.1-0.2,0.3-0.2c1.2,0,2.4,0,3.6,0c0.2,0,0.2,0.1,0.3,0.2c0.1,0.5,0.2,1.1,0.3,1.6H39C39,12.5,39,12.4,39,12.3z M32.6,8.2
	c0.5-1.5,1.1-3,1.6-4.5l0,0c0.3,1.5,0.6,3,0.9,4.5H32.6z M14.8,0.4h-0.2c-0.9,0-1.9,0-2.8,0c-0.2,0-0.3,0-0.3,0.2
	c-1,2.6-2,5.2-3.1,7.8c0,0.1-0.1,0.1-0.1,0.2c0-0.1,0-0.1,0-0.1C7.8,6.2,7.3,4,6.9,1.7C6.7,0.8,6.2,0.4,5.3,0.4c-1.7,0-3.3,0-5,0
	H0.1C0,0.5,0,0.6,0,0.7c0.1,0,0.1,0,0.2,0C1.1,1,2.1,1.3,3,1.7c0.5,0.2,0.7,0.5,0.8,1c0.8,3.2,1.7,6.4,2.5,9.6
	c0,0.1,0.1,0.2,0.2,0.2c1,0,2,0,2.9,0c0.2,0,0.2-0.1,0.3-0.2c1.6-3.9,3.3-7.8,4.9-11.7C14.7,0.6,14.8,0.5,14.8,0.4z M26.7,6.2
	c-0.5-0.4-1.1-0.7-1.6-1c-0.4-0.2-0.8-0.5-1.2-0.7c-0.5-0.4-0.5-1,0-1.3c0.3-0.2,0.7-0.3,1.1-0.4c1-0.1,1.9,0.1,2.7,0.5
	c0.1,0,0.1,0.1,0.2,0.1c0.2-0.9,0.4-1.7,0.5-2.6c-0.1,0-0.1,0-0.2-0.1c-1.5-0.5-3.1-0.6-4.7-0.3c-1.1,0.3-2,0.8-2.7,1.6
	c-0.9,1.2-1.3,3.2,0.5,4.6c0.5,0.4,1.1,0.7,1.7,1c0.4,0.2,0.8,0.5,1.1,0.7c0.4,0.4,0.4,1-0.1,1.4c-0.3,0.2-0.6,0.3-0.9,0.4
	c-1.1,0.2-2.2,0-3.2-0.4c-0.2-0.1-0.4-0.2-0.6-0.3c-0.2,0.9-0.4,1.8-0.6,2.7c0.1,0.1,0.3,0.1,0.4,0.1c0.7,0.3,1.5,0.4,2.2,0.4
	c1.2,0.1,2.5,0,3.6-0.4c1.3-0.5,2.3-1.4,2.6-2.8C28.1,8.2,27.8,7,26.7,6.2z M19.3,0.4c-1,0-2,0-3,0c0,0-0.1,0.1-0.1,0.1
	C16,0.9,16,1.3,15.9,1.7c-0.7,3.3-1.4,6.6-2.1,9.9c-0.1,0.3-0.1,0.6-0.2,1h0.3c0.9,0,1.7,0,2.6,0c0.2,0,0.3-0.1,0.4-0.3
	C17.5,8.8,18.2,5.4,19,2C19.1,1.4,19.2,0.9,19.3,0.4z"/>
</svg>
