<svg xmlns="http://www.w3.org/2000/svg" width="182.285" height="66.356" viewBox="0 0 182.285 66.356"><path d="M32.44,65.179a74.907,74.907,0,0,1-7.867-49.647c.8-4.006,3.237-12.7,10.728-14.185,9.208-1.82,15.124,11.639,16.756,14.9A100.807,100.807,0,0,1,61.2,44.065c.15.874.532,12.549.869,7.645.469-6.829.476-13.677,1.226-20.5C63.813,26.5,63.16,19.86,66,15.435c1.9-2.958,2.192,6.239,3.423,9.337.976,2.458,2.509,8.459,8.072,8.459,4.265,0,9.708-8.553,11.648-4.23,2.063,4.6,4.014,9.7,9.553,13.176,8.576,5.385,20.528,3.8,29.272-.618,5.161-2.609,8.336-6.677,10.932-10.443.543-.788.576-3.025.256-1.594-1.117,4.977,11.944.46,14.151-.813,4.573-2.638,6.517-6.053,10.013-9.142,2.918-2.579,7.425,7.575,7.867,8.426,2.576,4.967,4.446,10.08,7.254,15,.5.876.909,3.257,1.839,2.538.488-.377.027-.982-.1-1.464C179.148,40.2,1.834,34.535.5,31.214" transform="translate(0.801 -0.179)" fill="none" stroke="#5ce5d0" stroke-linecap="round" stroke-linejoin="round" stroke-width="2"/></svg>