<svg xmlns="http://www.w3.org/2000/svg" width="201.628" height="113.713" viewBox="0 0 201.628 113.713"><path d="M35.989,113.179C26.679,86.2,23.665,54.565,27.248,26.3c.889-7.01,3.6-22.232,11.92-24.823C49.4-1.711,55.972,21.841,57.786,27.55a253.255,253.255,0,0,1,10.16,48.679c.167,1.529.591,21.961.965,13.38.521-11.95.529-23.935,1.362-35.869.575-8.243-.15-19.869,3.009-27.613,2.111-5.177,2.436,10.918,3.8,16.34,1.084,4.3,2.788,14.8,8.968,14.8,4.739,0,10.786-14.968,12.942-7.4,2.293,8.049,4.46,16.973,10.615,23.058,9.529,9.423,22.809,6.654,32.524-1.082,5.735-4.566,9.262-11.685,12.147-18.276.6-1.379.64-5.293.284-2.79-1.241,8.709,13.271.8,15.723-1.423,5.081-4.616,7.241-10.592,11.125-16,3.242-4.513,8.25,13.256,8.741,14.746,2.862,8.692,4.94,17.639,8.06,26.247.556,1.532,1.01,5.7,2.043,4.441.542-.66.03-1.719-.114-2.562C199,69.465,1.982,59.552.5,53.74" transform="translate(0.412 -0.42)" fill="none" stroke="#fdcb6e" stroke-linecap="round" stroke-linejoin="round" stroke-width="1.5"/></svg>