<svg xmlns="http://www.w3.org/2000/svg" width="79.875" height="79.82" viewBox="0 0 79.875 79.82">
  <defs>
    <style>
      .cls-1 {
        fill: #08d665;
        fill-rule: evenodd;
      }
    </style>
  </defs>
  <path id="home-cta-icon" class="cls-1" d="M1015.84,2750.01a4,4,0,0,0-7.32-.96l-0.66,1.16a1.323,1.323,0,0,0-1.81.48l-3.38,5.76-1.16-.67a1.281,1.281,0,0,0-1.01-.13,1.3,1.3,0,0,0-.813.62,1.329,1.329,0,0,0,.493,1.81l1.16,0.67-11.313,19.59-2.794,7.47-1.33,2.49a3.991,3.991,0,0,0,.213,4.31l-2.994,3.67-0.838-2.1a2.663,2.663,0,0,0-4.751-.38l-0.478.81-0.453-5.32a2.661,2.661,0,0,0-5.176-.62l-3.273,9.82a1.324,1.324,0,0,0,.838,1.67,1.188,1.188,0,0,0,.413.11,1.327,1.327,0,0,0,1.264-.91l3.26-9.81,0.465,5.4a2.661,2.661,0,0,0,4.937,1.14l0.492-.81,0.825,2.09a2.661,2.661,0,0,0,4.551.68l3.1-3.93a4.144,4.144,0,0,0,1.051.14,4,4,0,0,0,3.473-1.97l1.33-2.23,5.07-6.16,11.428-19.83,1.16,0.66a1.319,1.319,0,0,1,.62.82,1.281,1.281,0,0,1-.13,1.01l-5.32,9.22a1.331,1.331,0,0,0-.19,1.03,1.31,1.31,0,0,0,.61.84,1.352,1.352,0,0,0,1.02.14,1.379,1.379,0,0,0,.81-0.63l5.32-9.22a3.985,3.985,0,0,0-1.46-5.45l-1.16-.67,3.32-5.76a1.331,1.331,0,0,0-.47-1.81l0.66-1.16A3.954,3.954,0,0,0,1015.84,2750.01Zm-5.02.37a1.37,1.37,0,0,1,.82-0.63,1.424,1.424,0,0,1,1.01.14,1.3,1.3,0,0,1,.62.81,1.37,1.37,0,0,1-.13,1.01l-0.67,1.16-2.31-1.33Zm-18.132,37.14-0.665-.38-1.969-1.15,1.889-5.05,4.191,2.42Zm-3.991,3.85a1.327,1.327,0,0,1-.4-1.74l0.665-1.16,2.315,1.33-0.665,1.14a1.316,1.316,0,0,1-.864.64A1.352,1.352,0,0,1,988.7,2791.37Zm8.954-10.19-4.6-2.66,10.642-18.44,4.61,2.66Zm11.979-20.74-4.61-2.66,2.66-4.61,4.61,2.66Zm-52.494,30.26-4.709,4.7-2.821-2.82a1.332,1.332,0,0,0-1.877,1.89l2.821,2.82a2.687,2.687,0,0,0,3.766,0l4.7-4.71A1.332,1.332,0,0,0,957.136,2790.7Zm-15.673,3.58a11.31,11.31,0,1,0,22.619,0,1.331,1.331,0,0,0-2.661,0,8.65,8.65,0,1,1-3.46-6.92,1.327,1.327,0,1,0,1.6-2.12A11.308,11.308,0,0,0,941.463,2794.28Zm42.577-52.55a1.33,1.33,0,1,0,0-2.66H949.446a1.333,1.333,0,0,0-1.331,1.33v5.32a1.327,1.327,0,0,0,1.331,1.33H984.04a1.33,1.33,0,1,0,0-2.66H950.776v-2.66H984.04Zm-30.6,7.98a1.33,1.33,0,1,0,0,2.66h26.61a1.33,1.33,0,1,0,0-2.66h-26.61Zm34.594,9.32H958.76a1.33,1.33,0,1,0,0,2.66h29.272A1.33,1.33,0,1,0,988.032,2759.03Zm-13.306,9.31a1.327,1.327,0,0,0-1.33-1.33H946.785a1.33,1.33,0,1,0,0,2.66H973.4A1.333,1.333,0,0,0,974.726,2768.34Zm13.306-1.33h-9.314a1.33,1.33,0,1,0,0,2.66h9.314A1.33,1.33,0,1,0,988.032,2767.01Zm-27.942,9.31a1.33,1.33,0,1,0,0-2.66H946.785a1.33,1.33,0,1,0,0,2.66H960.09Zm5.322,0h9.314a1.33,1.33,0,1,0,0-2.66h-9.314A1.33,1.33,0,0,0,965.412,2776.32Zm30.6,15.97a1.327,1.327,0,0,0-1.331,1.33v13.3a1.327,1.327,0,0,1-1.33,1.33H940.132a1.326,1.326,0,0,1-1.33-1.33v-71.84a1.326,1.326,0,0,1,1.33-1.33h53.222a1.327,1.327,0,0,1,1.33,1.33v24.98a1.331,1.331,0,0,0,2.661,0v-24.98a3.993,3.993,0,0,0-3.991-3.99H940.132a3.994,3.994,0,0,0-3.992,3.99v71.84a3.987,3.987,0,0,0,3.992,3.99h53.222a3.987,3.987,0,0,0,3.991-3.99v-13.3A1.327,1.327,0,0,0,996.015,2792.29Z" transform="translate(-936.125 -2731.09)"/>
</svg>
