<svg xmlns="http://www.w3.org/2000/svg" width="53.81" height="59.78" viewBox="0 0 53.81 59.78">
  <defs>
    <style>
      .cls-1 {
        fill: #08d665;
        fill-rule: evenodd;
      }
    </style>
  </defs>
  <path id="service-icon-06" class="cls-1" d="M1342.67,1130.27l-2.56-2.25,2.56-2.25a1.256,1.256,0,0,0,.34-1.39,1.242,1.242,0,0,0-1.18-.82h-10.58v-0.45a0.875,0.875,0,1,0-1.75,0v11.81l-7.2,3.91a2.726,2.726,0,0,0-.28-0.92l-1.02-1.98a2.769,2.769,0,0,0-3.73-1.2l-0.78.4a2.764,2.764,0,0,0-1.2,3.72l1.01,1.98a2.848,2.848,0,0,0,1,1.09,7.708,7.708,0,0,0-1.06,2.54l-1.2,4.28a0.888,0.888,0,0,0,.61,1.09,0.852,0.852,0,0,0,.23.03,0.876,0.876,0,0,0,.85-0.64l1.2-4.28c0.38-1.36.62-2.08,1.37-2.49l1.35-.73,0.16-.09a0.827,0.827,0,0,0,.16-0.09l9.6-5.21a3.71,3.71,0,0,1-1.77,2.98l-6.24,3.79c-0.01,0-.01.01-0.02,0.01l-1.94,1.18a0.875,0.875,0,0,0,.83,1.54l-1.47,4.45-1.08.44-2.93,1.2,0.85-2.98a0.878,0.878,0,0,0-1.69-.48l-1.33,4.72a1.062,1.062,0,0,0-.04.19l-0.35,6.4a2.76,2.76,0,0,1-.07.95l-3.87,8.15h-2.82a2.992,2.992,0,0,0-2.99,2.99v2.53a3.034,3.034,0,0,0-1.24-.27h-7.16a2.992,2.992,0,0,0-2.99,2.99v3.14h-2.11a0.875,0.875,0,0,0,0,1.75h51.69a0.875,0.875,0,1,0,0-1.75h-2.28v-22.58a2.992,2.992,0,0,0-2.99-2.99h-5.31V1139.4a5.461,5.461,0,0,0,.89-4.69,0.927,0.927,0,0,0-.51-0.57,0.986,0.986,0,0,0-.38-0.07v-1.6h10.58A1.259,1.259,0,0,0,1342.67,1130.27Zm-25.89,7.01a1.027,1.027,0,0,1,.51-0.59l0.78-.4a1,1,0,0,1,.47-0.12,1.028,1.028,0,0,1,.9.56l1.02,1.98a1.019,1.019,0,0,1-.34,1.3l-0.29.16-0.6.3a1.015,1.015,0,0,1-1.37-.44l-1.01-1.98A0.984,0.984,0,0,1,1316.78,1137.28Zm-1.76,31.86a3.028,3.028,0,0,0-.96-0.26l0.96-1.27v1.53Zm4.17-7.06a3.337,3.337,0,0,0,.63-1.57l0.45-2.47s0.41,0.25.46,0.27a0.079,0.079,0,0,1,.05.08l0.48,4.84h-2.94Zm5.18-4.83-0.74,5.98h-0.61l-0.49-5.01a1.865,1.865,0,0,0-1.04-1.49l-0.88-.55,0.59-3.26s2.47,2.94,2.53,3.02A1.822,1.822,0,0,1,1324.37,1157.25Zm-9.47,4.24a4.823,4.823,0,0,0,.25-1.63l0.31-5.84,4.06-1.66-0.74,4.07v0.04l-0.61,3.37a3.34,3.34,0,0,1-.37,1.17l-5.92,7.86h-0.49Zm-20.9,15.62a1.246,1.246,0,0,1,1.24-1.24h7.16a1.246,1.246,0,0,1,1.24,1.24v3.14H1294v-3.14Zm11.39,0v-5.25a1.24,1.24,0,0,1,1.24-1.24h7.15a1.24,1.24,0,0,1,1.24,1.24v8.39h-9.63v-3.14h0Zm32.41-19.44v22.58h-9.64V1175a0.875,0.875,0,1,0-1.75,0v5.25h-9.63v-14.03a1.24,1.24,0,0,1,1.24-1.24h7.15a1.246,1.246,0,0,1,1.24,1.24v10.23a0.875,0.875,0,1,0,1.75,0v-18.78a1.246,1.246,0,0,1,1.24-1.24h7.16A1.246,1.246,0,0,1,1337.8,1157.67Zm-8.4-2.99a2.992,2.992,0,0,0-2.99,2.99v5.83a3.127,3.127,0,0,0-1.02-.26l0.72-5.78a3.363,3.363,0,0,0-.99-2.59c-0.06-.08-3.47-4.12-3.47-4.12l2.09-6.32,5.76-3.49v13.74h-0.1Zm1.85-23.96v-5.41h9.28l-2,1.76a1.253,1.253,0,0,0,0,1.89l2,1.76h-9.28Z" transform="translate(-1289.28 -1122.22)"/>
</svg>
