<svg xmlns="http://www.w3.org/2000/svg" width="71.09" height="60.47" viewBox="0 0 71.09 60.47">
  <defs>
    <style>
      .cls-1 {
        fill: #08d665;
        fill-rule: evenodd;
      }
    </style>
  </defs>
  <path id="service-icon-03" class="cls-1" d="M1102.34,2134.76h-16.59v-1.19a10.672,10.672,0,0,0-10.66-10.67h-22.51a10.684,10.684,0,0,0-10.66,10.67v14.23a10.678,10.678,0,0,0,10.66,10.67h1.19v9.49a1.181,1.181,0,0,0,2.02.84l10.31-10.33h3.07v1.19a10.678,10.678,0,0,0,10.66,10.67h6.62l12.68,12.7a1.187,1.187,0,0,0,2.02-.84v-11.86h1.19a10.684,10.684,0,0,0,10.66-10.67v-14.23A10.684,10.684,0,0,0,1102.34,2134.76Zm-36.73,21.34a1.182,1.182,0,0,0-.83.35l-8.64,8.65v-7.81a1.186,1.186,0,0,0-1.19-1.19h-2.37a8.309,8.309,0,0,1-8.29-8.3v-14.23a8.316,8.316,0,0,1,8.29-8.3h22.51a8.3,8.3,0,0,1,8.29,8.3v1.19h-3.55a10.678,10.678,0,0,0-10.66,10.67v10.67h-3.56Zm45.02,3.56a8.3,8.3,0,0,1-8.29,8.3h-2.37a1.186,1.186,0,0,0-1.19,1.19v10.18l-11-11.02a1.181,1.181,0,0,0-.84-0.35h-7.11a8.3,8.3,0,0,1-8.29-8.3v-14.23a8.3,8.3,0,0,1,8.29-8.3h22.51a8.3,8.3,0,0,1,8.29,8.3v14.23Zm-5.92-15.41h-27.25a1.185,1.185,0,0,0,0,2.37h27.25A1.185,1.185,0,0,0,1104.71,2144.25Zm0,7.11h-27.25a1.185,1.185,0,0,0,0,2.37h27.25A1.185,1.185,0,0,0,1104.71,2151.36Zm0,7.11h-27.25a1.19,1.19,0,0,0,0,2.38h27.25A1.19,1.19,0,0,0,1104.71,2158.47Zm-55.68-23.71h24.88a1.185,1.185,0,0,0,0-2.37h-24.88A1.185,1.185,0,1,0,1049.03,2134.76Zm17.77,4.74h-17.77a1.185,1.185,0,1,0,0,2.37h17.77A1.185,1.185,0,0,0,1066.8,2139.5Zm-1.19,7.12h-16.58a1.185,1.185,0,1,0,0,2.37h16.58A1.185,1.185,0,1,0,1065.61,2146.62Z" transform="translate(-1041.91 -2122.91)"/>
</svg>
