<svg xmlns="http://www.w3.org/2000/svg" width="59.625" height="59.62" viewBox="0 0 59.625 59.62">
  <defs>
    <style>
      .cls-1 {
        fill: #08d665;
        fill-rule: evenodd;
      }
    </style>
  </defs>
  <path id="service-icon-05" class="cls-1" d="M868.659,1123.7a1.159,1.159,0,0,0-.824-0.34H839.18a1.164,1.164,0,0,0-1.164,1.17v3.33l-11.042,2.96a1.157,1.157,0,0,0-.824,1.42l5.723,21.36-4.95,4.95a3.49,3.49,0,0,0-2.885-1.52H812.856a3.493,3.493,0,0,0-3.5,3.49v18.99a3.5,3.5,0,0,0,3.5,3.49h11.182a3.5,3.5,0,0,0,3.391-2.65l1.386,1.2a5.832,5.832,0,0,0,3.857,1.45h35.163a1.163,1.163,0,0,0,1.165-1.16v-57.31A1.182,1.182,0,0,0,868.659,1123.7ZM825.2,1179.51a1.164,1.164,0,0,1-1.165,1.16H812.856a1.163,1.163,0,0,1-1.165-1.16v-18.99a1.172,1.172,0,0,1,1.165-1.17h4.426v13.42a1.165,1.165,0,1,0,2.33,0v-13.42h4.426a1.172,1.172,0,0,1,1.165,1.17v18.99h0Zm3.5-46.74,9.314-2.5v4.32l-0.781.21a1.16,1.16,0,0,0-.824,1.42,3.135,3.135,0,0,1-2.218,3.84,1.167,1.167,0,0,0-.707.55,1.153,1.153,0,0,0-.116.88l4.541,16.82h-2.338l-1.2-4.72a1.159,1.159,0,0,0-.2-0.41Zm9.314,7.16v9.83l-2.125-7.87A5.452,5.452,0,0,0,838.016,1139.93Zm16.734,40.74H832.672a3.55,3.55,0,0,1-2.327-.87l-2.813-2.45v-16.12l5.086-5.08,0.922,3.61a1.166,1.166,0,0,0,1.129.87l22.9,0.01a1.63,1.63,0,1,1,0,3.26H845.835a1.165,1.165,0,0,0,0,2.33h15.381a1.63,1.63,0,1,1,0,3.26H845.835a1.165,1.165,0,0,0,0,2.33h12.889a1.63,1.63,0,0,1,0,3.26H845.835a1.165,1.165,0,0,0,0,2.33h8.915A1.63,1.63,0,1,1,854.75,1180.67Zm11.92,0h-8.312a3.94,3.94,0,0,0,0-3.26h0.366a3.967,3.967,0,0,0,3.96-3.96,3.907,3.907,0,0,0-.42-1.77,3.96,3.96,0,0,0,2.131-6.18v-14.76a1.165,1.165,0,1,0-2.33,0v13.25a3.965,3.965,0,0,0-.849-0.09h-0.038a3.958,3.958,0,0,0-3.608-5.59H855.7a5.575,5.575,0,1,0-4.379,0H844.95v-22.15a5.5,5.5,0,0,0,4.176-4.18h8.762a5.5,5.5,0,0,0,4.177,4.18v16.43a1.165,1.165,0,1,0,2.329,0v-17.47a1.171,1.171,0,0,0-1.164-1.17,3.134,3.134,0,0,1-3.137-3.13,1.164,1.164,0,0,0-1.164-1.17H848.087a1.165,1.165,0,0,0-1.165,1.17,3.134,3.134,0,0,1-3.137,3.13,1.171,1.171,0,0,0-1.164,1.17v23.19h-2.276v-32.62H866.67v54.98Zm-13.162-24.24a3.245,3.245,0,1,1,3.245-3.25A3.252,3.252,0,0,1,853.508,1156.43Z" transform="translate(-809.375 -1123.38)"/>
</svg>
