<svg xmlns="http://www.w3.org/2000/svg" width="60.125" height="60.06" viewBox="0 0 60.125 60.06">
  <defs>
    <style>
      .cls-1 {
        fill: #08d665;
        fill-rule: evenodd;
      }
    </style>
  </defs>
  <path id="service-icon-02" class="cls-1" d="M622.025,2160.56l0.009-.01-9.872-21.51,2.394-1.2-0.9-1.79-2.333,1.16-0.316-.68a1,1,0,0,0-1.822,0l-0.281.61a12.859,12.859,0,0,0-5.422-1.2h-8.417v-2h2v-2h-1.722l0.72-2.88a4.131,4.131,0,1,0-8.016,0l0.72,2.88h-1.723v2h2v2h-8.413a12.877,12.877,0,0,0-5.426,1.2l-0.282-.61a1,1,0,0,0-1.328-.49,0.989,0.989,0,0,0-.493.49l-0.316.69-2.334-1.17-0.9,1.79,2.394,1.2-9.871,21.51a1.027,1.027,0,0,0-.091.42,7.017,7.017,0,0,0,7.014,7.01h10.021a7.017,7.017,0,0,0,7.014-7.01,0.96,0.96,0,0,0-.1-0.41l-9.9-21.6a10.722,10.722,0,0,1,4.592-1.01h8.413v36.62l-3.422,3.42h-3.593a5.023,5.023,0,0,0-5.01,5.01,1,1,0,0,0,1,1h28.058a1,1,0,0,0,1-1,5.024,5.024,0,0,0-5.011-5.01H598.49l-3.421-3.42v-36.62h8.417a10.724,10.724,0,0,1,4.593,1.01l-9.913,21.59a1.043,1.043,0,0,0-.091.42,7.018,7.018,0,0,0,7.015,7.01h10.02a7.018,7.018,0,0,0,7.015-7.01A0.99,0.99,0,0,0,622.025,2160.56Zm-42.989,5.42H569.015a5.019,5.019,0,0,1-4.91-4.01h19.841A5.019,5.019,0,0,1,579.036,2165.98Zm4.451-6.01H564.564l9.205-20.06a1.112,1.112,0,0,0,.513,0Zm6.9-33.22a2.191,2.191,0,0,1,3.09-.27,1.922,1.922,0,0,1,.263.27,2.1,2.1,0,0,1,.388,1.82l-0.843,3.37h-2.443L590,2128.57A2.1,2.1,0,0,1,590.386,2126.75Zm0.675,9.19v-2h2v2h-2Zm2,2.01v36.04h-2v-36.04h2Zm9.018,42.05a3.006,3.006,0,0,1,2.835,2H579.207a3.007,3.007,0,0,1,2.835-2h20.041Zm-6.427-2.01h-7.187l2-2h3.179Zm14.185-38.08a0.687,0.687,0,0,0,.508-0.02l9.213,20.08H600.638Zm5.269,26.07H605.09a5.019,5.019,0,0,1-4.91-4.01h19.84A5.019,5.019,0,0,1,615.11,2165.98Z" transform="translate(-562 -2123.94)"/>
</svg>
