<svg xmlns="http://www.w3.org/2000/svg" width="53.93" height="60.34" viewBox="0 0 53.93 60.34">
  <defs>
    <style>
      .cls-1 {
        fill: #08d665;
        fill-rule: evenodd;
      }
    </style>
  </defs>
  <path id="service-icon-04" class="cls-1" d="M1576.8,2134.15a2.93,2.93,0,0,0-2.93-2.68h-7.62v-1.12h0.14a1.985,1.985,0,0,0,1.98-1.98v-2.73a1.985,1.985,0,0,0-1.98-1.98h-26.78a0.885,0.885,0,1,0,0,1.77h26.78a0.205,0.205,0,0,1,.21.21v2.73a0.205,0.205,0,0,1-.21.21h-33.03a0.205,0.205,0,0,1-.21-0.21v-2.73a0.205,0.205,0,0,1,.21-0.21h6.46a0.885,0.885,0,1,0,0-1.77h-6.46a1.985,1.985,0,0,0-1.98,1.98v2.73a1.985,1.985,0,0,0,1.98,1.98h0.15v1.12h-7.63a2.93,2.93,0,0,0-2.93,2.68,25.812,25.812,0,0,0,1.54,10.24c1.78,4.83,5.87,10.99,15.25,13.41a16.368,16.368,0,0,0,5.11,2.74l0.44,0.73a9.158,9.158,0,0,1,1.29,4.74,9.467,9.467,0,0,1-.5,3.05l-0.62,1.82h-2.05a3.826,3.826,0,0,0-3.82,3.82v1.86h-3.22a1.643,1.643,0,0,0-1.65,1.64v4.15a1.652,1.652,0,0,0,1.65,1.65h27.01a1.652,1.652,0,0,0,1.65-1.65v-4.15a1.643,1.643,0,0,0-1.65-1.64h-3.21v-1.86a3.835,3.835,0,0,0-3.83-3.82h-2.05l-0.62-1.82a9.467,9.467,0,0,1-.5-3.05,9.158,9.158,0,0,1,1.29-4.74l0.44-.73a16.368,16.368,0,0,0,5.11-2.74c9.38-2.42,13.47-8.58,15.26-13.41a25.7,25.7,0,0,0,1.53-10.24h0Zm-42.97,14.07a15.009,15.009,0,0,1-3.77-5.74,20.135,20.135,0,0,1-1.17-5.12h4.62v7.59A16.788,16.788,0,0,0,1533.83,2148.22Zm-7.69-4.44a23.813,23.813,0,0,1-1.43-9.47,1.174,1.174,0,0,1,1.17-1.07h7.63v2.36h-4.69a1.71,1.71,0,0,0-1.26.55,1.69,1.69,0,0,0-.43,1.31,21.092,21.092,0,0,0,1.28,5.64,16.412,16.412,0,0,0,6.33,8.1,16.583,16.583,0,0,0,2.24,3.82,18.993,18.993,0,0,1-10.84-11.24h0Zm37.12,34.54v3.91h-26.77v-3.91h26.77Zm-6.92-5.67a2.055,2.055,0,0,1,2.06,2.05v1.86h-17.05v-1.86a2.061,2.061,0,0,1,2.06-2.05h12.93Zm-4.34-3.02,0.42,1.25h-5.09l0.43-1.25a11.3,11.3,0,0,0,.59-3.62,11.02,11.02,0,0,0-1.13-4.9,16.13,16.13,0,0,0,5.31,0,11.329,11.329,0,0,0-.53,8.52h0Zm-2.12-10.07a14.621,14.621,0,0,1-14.61-14.61v-14.6h29.21v14.6A14.619,14.619,0,0,1,1549.88,2159.56Zm23.73-15.78a18.963,18.963,0,0,1-10.84,11.24,16.3,16.3,0,0,0,2.24-3.83,16.1,16.1,0,0,0,5.74-6.68,0.886,0.886,0,0,0-1.6-.76,14.725,14.725,0,0,1-3.23,4.47,16.789,16.789,0,0,0,.33-3.27v-7.59h4.61a21.385,21.385,0,0,1-.43,2.68,0.883,0.883,0,1,0,1.72.4,24.351,24.351,0,0,0,.48-2.98,1.735,1.735,0,0,0-.44-1.31,1.71,1.71,0,0,0-1.26-.55h-4.68v-2.36h7.62a1.167,1.167,0,0,1,1.17,1.07,23.813,23.813,0,0,1-1.43,9.47h0Zm-17.92-2.95-2.54-.37a0.347,0.347,0,0,1-.25-0.19l-1.14-2.29a2.1,2.1,0,0,0-3.77,0l-1.14,2.29a0.347,0.347,0,0,1-.25.19l-2.53.37a2.063,2.063,0,0,0-1.7,1.43,2.086,2.086,0,0,0,.53,2.16l1.83,1.79a0.339,0.339,0,0,1,.1.3l-0.43,2.52a2.1,2.1,0,0,0,3.05,2.22l2.27-1.19a0.339,0.339,0,0,1,.31,0l2.27,1.19a2.041,2.041,0,0,0,.98.25,2.123,2.123,0,0,0,2.08-2.47l-0.44-2.52a0.339,0.339,0,0,1,.1-0.3l1.83-1.79a2.1,2.1,0,0,0-1.16-3.59h0Zm-0.07,2.33-1.83,1.78a2.1,2.1,0,0,0-.61,1.87l0.43,2.52a0.325,0.325,0,0,1-.13.33,0.332,0.332,0,0,1-.36.03l-2.26-1.19a2.148,2.148,0,0,0-.98-0.24,2.088,2.088,0,0,0-.98.24l-2.27,1.19a0.336,0.336,0,0,1-.36-0.03,0.325,0.325,0,0,1-.13-0.33l0.43-2.52a2.1,2.1,0,0,0-.61-1.87l-1.83-1.78a0.318,0.318,0,0,1-.08-0.35,0.3,0.3,0,0,1,.27-0.23l2.53-.37a2.114,2.114,0,0,0,1.59-1.15l1.13-2.3a0.34,0.34,0,0,1,.61,0l1.13,2.3a2.114,2.114,0,0,0,1.59,1.15l2.53,0.37a0.329,0.329,0,0,1,.28.23A0.347,0.347,0,0,1,1555.62,2143.16Z" transform="translate(-1522.91 -2123.66)"/>
</svg>
