<svg xmlns="http://www.w3.org/2000/svg" width="70.407" height="59.84" viewBox="0 0 70.407 59.84">
  <defs>
    <style>
      .cls-1 {
        fill: #08d665;
        fill-rule: evenodd;
      }
    </style>
  </defs>
  <path id="service-icon-01" class="cls-1" d="M147.726,2175.05l-1.051-3.16a1.151,1.151,0,0,0-.633-0.69,4.681,4.681,0,0,0,.693-2.45v-1.18a1.153,1.153,0,0,0-.235-0.7h0a16.552,16.552,0,0,1-3.285-9.86v-2.49a4.708,4.708,0,0,0,3.519-4.55v-10.56a1.169,1.169,0,0,0-1.173-1.17h-4.693a1.161,1.161,0,0,0-.976.52l-1.371,2.06-1.37-2.06a1.163,1.163,0,0,0-.976-0.52h-4.694a1.169,1.169,0,0,0-1.173,1.17v10.56a4.709,4.709,0,0,0,3.52,4.55v2.49a16.552,16.552,0,0,1-3.285,9.86h0a1.16,1.16,0,0,0-.236.7v1.18a4.673,4.673,0,0,0,.694,2.45,1.153,1.153,0,0,0-.634.69l-1.051,3.16c-0.046.03-.09,0.07-0.135,0.1a9.42,9.42,0,0,0-1.221-1.14v-2.92a1.169,1.169,0,0,0-1.173-1.17h-1.844a10.776,10.776,0,0,1-2.849-7.33v-10.27h1.173a1.177,1.177,0,0,0,1.173-1.18v-1.17a4.694,4.694,0,0,0-2.116-3.92l3.215-8.57a1.183,1.183,0,0,0-.687-1.52,1.424,1.424,0,0,0-.412-0.07h-1.759l-3.168-4.22a1.163,1.163,0,0,0-.939-0.47H117.4v-2.35h2.346v-2.35H117.4v-2.34h-2.347v2.34h-2.347v2.35h2.347v2.35h-1.173a1.161,1.161,0,0,0-.939.47l-3.168,4.22h-1.76a1.175,1.175,0,0,0-1.173,1.17,1.242,1.242,0,0,0,.075.42l3.215,8.57a4.7,4.7,0,0,0-2.117,3.92v1.17a1.177,1.177,0,0,0,1.173,1.18h1.174v10.27a10.78,10.78,0,0,1-2.849,7.33h-1.845a1.17,1.17,0,0,0-1.173,1.17v2.92a9.4,9.4,0,0,0-1.219,1.14c-0.046-.03-0.091-0.07-0.137-0.1l-0.99-2.97V2148.8a9.4,9.4,0,0,0-9.387-9.39H83.377a1.176,1.176,0,0,0-1.173,1.17v2.35a1.176,1.176,0,0,0,.344.83l3.176,3.18v10.07a1.169,1.169,0,0,0,1.173,1.17h2.347a1.206,1.206,0,0,0,.733-0.25l3.96-3.17v1.77l-2.892,2.89a18.048,18.048,0,0,0-5.319,12.65l-0.993,2.98a9.05,9.05,0,0,0-3.7,7.31v0.47A1.176,1.176,0,0,0,82.2,2184h68.052a1.176,1.176,0,0,0,1.174-1.17v-0.47A9.051,9.051,0,0,0,147.726,2175.05Zm-15.07-6.3h11.733a2.346,2.346,0,0,1-2.347,2.34H135A2.346,2.346,0,0,1,132.656,2168.75Zm2.892-28.17,2,3a1.173,1.173,0,0,0,1.627.33,1.233,1.233,0,0,0,.326-0.33l2-3h2.892v7.04H132.656v-7.04h2.892Zm-2.892,9.39h11.733a2.349,2.349,0,0,1-2.347,2.35H135A2.348,2.348,0,0,1,132.656,2149.97Zm3.52,7.04v-2.35h4.693v2.35a18.914,18.914,0,0,0,2.518,9.39h-9.729A18.914,18.914,0,0,0,136.176,2157.01Zm-25.813-7.04a2.361,2.361,0,0,1,2.346-2.35h7.04a2.361,2.361,0,0,1,2.347,2.35H110.363Zm4.106-16.43h3.52l1.76,2.35h-7.04Zm-2.12,11.74-2.64-7.04h13.04l-2.639,7.04h-7.761Zm0.36,17.31v-10.27h7.04v10.27a13.12,13.12,0,0,0,2.216,7.33H110.494A13.119,13.119,0,0,0,112.709,2162.59Zm-23.878-6.75H88.07v-9.39a1.177,1.177,0,0,0-.343-0.83l-3.176-3.18v-0.68h8.213a7.043,7.043,0,0,1,7.04,7.04v10.46l-3.52-2.81v-6.48a4.694,4.694,0,0,0-4.693-4.69v2.34a2.361,2.361,0,0,1,2.347,2.35v1.78Zm3.873,5.24,2.493-2.5,4.606,3.69v8.82H88.112A15.69,15.69,0,0,1,92.7,2161.08Zm-6.33,15.68a1.172,1.172,0,0,0,.462-0.6l0.906-2.72h12.389l0.905,2.72a1.177,1.177,0,0,0,.463.6c0.156,0.11.306,0.22,0.453,0.33a9.1,9.1,0,0,0-.976,4.1v0.46H83.414A6.719,6.719,0,0,1,86.374,2176.76Zm16.949,4.89v-0.46a6.722,6.722,0,0,1,3-5.6,1.185,1.185,0,0,0,.523-0.98v-2.34h18.773v2.34a1.187,1.187,0,0,0,.522.98,6.723,6.723,0,0,1,3,5.6v0.46H103.323Zm28.159,0v-0.46a9.049,9.049,0,0,0-.975-4.09c0.147-.12.3-0.23,0.453-0.34a1.169,1.169,0,0,0,.462-0.6l0.906-2.72h12.389l0.905,2.72a1.177,1.177,0,0,0,.463.6,6.718,6.718,0,0,1,2.96,4.89H131.482Z" transform="translate(-81.031 -2124.16)"/>
</svg>
