<svg xmlns="http://www.w3.org/2000/svg" width="59.687" height="59.65" viewBox="0 0 59.687 59.65">
  <defs>
    <style>
      .cls-1 {
        fill: #08d665;
        fill-rule: evenodd;
      }
    </style>
  </defs>
  <path id="why-choose-icon-03" class="cls-1" d="M474.714,5089.33a2.986,2.986,0,0,0-5.47-.72l-0.5.86a1,1,0,0,0-1.352.36l-2.526,4.31-0.866-.5a0.992,0.992,0,0,0-1.363.37,0.991,0.991,0,0,0,.368,1.35l0.866,0.5-8.454,14.65-2.089,5.58-1,1.86a2.979,2.979,0,0,0,.16,3.22l-2.238,2.74-0.627-1.57a1.992,1.992,0,0,0-1.689-1.24,2.021,2.021,0,0,0-1.862.96l-0.358.61-0.338-3.98a1.988,1.988,0,0,0-3.869-.46l-2.447,7.34a1,1,0,0,0,.627,1.25,1.076,1.076,0,0,0,.308.08,0.994,0.994,0,0,0,.945-0.68l2.437-7.34,0.348,4.04a1.992,1.992,0,0,0,3.69.86l0.368-.61,0.617,1.56a1.992,1.992,0,0,0,3.4.51l2.318-2.94a3.046,3.046,0,0,0,3.381-1.37l1-1.66,3.79-4.6,8.543-14.83,0.866,0.49a1.017,1.017,0,0,1,.467.61,1,1,0,0,1-.1.76l-3.979,6.89a0.986,0.986,0,1,0,1.681,1.03l3.979-6.89a2.985,2.985,0,0,0-1.094-4.08l-0.866-.49,2.487-4.31a0.992,0.992,0,0,0-.358-1.35l0.5-.87A2.968,2.968,0,0,0,474.714,5089.33Zm-3.749.27a1,1,0,0,1,1.83.24,1.05,1.05,0,0,1-.1.76l-0.5.86-1.731-.99Zm-13.557,27.77-0.5-.29-1.472-.85,1.412-3.78,3.133,1.81Zm-2.984,2.87a0.989,0.989,0,0,1-.3-1.3l0.5-.86,1.731,0.99-0.5.86a0.99,0.99,0,0,1-.646.47A0.961,0.961,0,0,1,454.424,5120.24Zm6.694-7.61-3.442-1.99,7.957-13.79,3.442,1.99Zm8.951-15.51-3.441-1.99,1.989-3.44,3.442,1.99Zm-39.238,22.63-3.52,3.51-2.109-2.11a0.986,0.986,0,0,0-1.4,0,1,1,0,0,0-.3.71,0.976,0.976,0,0,0,.3.7l2.108,2.11a1.994,1.994,0,0,0,1.4.58,2.015,2.015,0,0,0,1.412-.58l3.511-3.52A0.994,0.994,0,0,0,430.831,5119.75Zm-11.716,2.67a8.455,8.455,0,1,0,16.909,0,1,1,0,0,0-1.99,0,6.465,6.465,0,1,1-6.465-6.46,6.386,6.386,0,0,1,3.879,1.29,0.994,0.994,0,0,0,1.194-1.59A8.453,8.453,0,0,0,419.115,5122.42Zm31.828-39.28a1,1,0,0,0,0-1.99h-25.86a1,1,0,0,0-1,.99v3.98a1,1,0,0,0,1,1h25.86a1,1,0,0,0,0-1.99H426.077v-1.99h24.866Zm-22.876,5.97a1,1,0,1,0,0,1.99h19.892a1,1,0,1,0,0-1.99H428.067Zm25.86,6.96H432.045a1,1,0,1,0,0,1.99h21.882A1,1,0,0,0,453.927,5096.07Zm-9.946,6.96a0.991,0.991,0,0,0-1-.99H423.093a0.99,0.99,0,1,0,0,1.98h19.893A0.991,0.991,0,0,0,443.981,5103.03Zm9.946-.99h-6.963a0.99,0.99,0,1,0,0,1.98h6.963A0.99,0.99,0,1,0,453.927,5102.04ZM433.04,5109a1,1,0,0,0,0-1.99h-9.947a1,1,0,0,0,0,1.99h9.947Zm3.978,0h6.963a1,1,0,0,0,0-1.99h-6.963A1,1,0,0,0,437.018,5109Zm22.876,11.93a1,1,0,0,0-.994,1v9.94a0.991,0.991,0,0,1-1,.99H418.12a0.99,0.99,0,0,1-.994-0.99v-53.7a1,1,0,0,1,.994-1h39.785a1,1,0,0,1,1,1v18.67a0.995,0.995,0,1,0,1.989,0v-18.67a2.988,2.988,0,0,0-2.984-2.99H418.12a2.989,2.989,0,0,0-2.984,2.99v53.7a2.98,2.98,0,0,0,2.984,2.98h39.785a2.979,2.979,0,0,0,2.984-2.98v-9.94A1,1,0,0,0,459.894,5120.93Z" transform="translate(-415.125 -5075.19)"/>
</svg>
