<svg xmlns="http://www.w3.org/2000/svg" width="52.75" height="60.18" viewBox="0 0 52.75 60.18">
  <defs>
    <style>
      .cls-1 {
        fill: #08d665;
        fill-rule: evenodd;
      }
    </style>
  </defs>
  <path id="why-choose-icon-02" class="cls-1" d="M467,4910.83a0.884,0.884,0,0,0,.889-0.89V4893.8a0.89,0.89,0,0,0-.889-0.89H423.354a0.89,0.89,0,0,0-.889.89v35.67H416a0.89,0.89,0,0,0-.889.89v8.14a0.89,0.89,0,1,0,1.779,0v-7.25h31.174a9.2,9.2,0,0,0,5.71,4.24v15.82H416.891v-14.55a0.89,0.89,0,1,0-1.779,0v15.44a0.89,0.89,0,0,0,.889.89h51a0.89,0.89,0,0,0,.889-0.89v-43.96a0.889,0.889,0,1,0-1.778,0v43.07H455.554v-15.56c0.138,0.01.276,0.01,0.415,0.01a9.2,9.2,0,1,0-8.718-6.29H424.244v-34.78H466.11v15.25A0.884,0.884,0,0,0,467,4910.83Zm-11.03,8.31a7.42,7.42,0,1,1-7.412,7.42A7.425,7.425,0,0,1,455.969,4919.14Zm-19.213-7.95a0.891,0.891,0,0,0,.89-0.89v-6.95h1.482a0.89,0.89,0,0,0,0-1.78h-4.744a0.89,0.89,0,0,0,0,1.78h1.483v6.95A0.89,0.89,0,0,0,436.756,4911.19Zm10.793,0a0.89,0.89,0,0,0,.889-0.89v-6.65a2.085,2.085,0,0,0-2.076-2.08h-2.371a2.085,2.085,0,0,0-2.076,2.08v6.65a0.89,0.89,0,1,0,1.779,0v-3.03h2.965v3.03A0.891,0.891,0,0,0,447.549,4911.19Zm-3.855-5.7v-1.84a0.3,0.3,0,0,1,.3-0.3h2.371a0.3,0.3,0,0,1,.3.3v1.84h-2.965Zm7.07,5.57a0.864,0.864,0,0,0,.46.13,0.883,0.883,0,0,0,.762-0.43l1.611-2.66,1.612,2.66a0.88,0.88,0,0,0,.761.43,0.862,0.862,0,0,0,.46-0.13,0.886,0.886,0,0,0,.3-1.22l-2.093-3.46,2.093-3.45a0.891,0.891,0,1,0-1.521-.93l-1.612,2.66-1.611-2.66a0.891,0.891,0,1,0-1.521.93l2.092,3.45-2.092,3.46A0.886,0.886,0,0,0,450.764,4911.06Zm9.771,0.55v-10.45a3.271,3.271,0,0,0-3.261-3.27H440.362a0.9,0.9,0,0,0,0,1.79h16.912a1.48,1.48,0,0,1,1.482,1.48v10.45a1.487,1.487,0,0,1-1.482,1.48H433.08a1.487,1.487,0,0,1-1.483-1.48v-10.45a1.48,1.48,0,0,1,1.483-1.48h7.811a0.9,0.9,0,0,0,0-1.79H433.08a3.271,3.271,0,0,0-3.262,3.27v10.45a3.269,3.269,0,0,0,3.262,3.26h24.194A3.269,3.269,0,0,0,460.535,4911.61Zm-38.68,36.91a0.89,0.89,0,0,0,.889.89h25.178a0.89,0.89,0,0,0,.889-0.89,1.942,1.942,0,0,1,1.94-1.94,0.891,0.891,0,0,0,.89-0.89v-8.7a0.891,0.891,0,0,0-.89-0.89,1.942,1.942,0,0,1-1.94-1.94,0.89,0.89,0,0,0-.889-0.89H422.744a0.89,0.89,0,0,0-.889.89,1.942,1.942,0,0,1-1.94,1.94,0.891,0.891,0,0,0-.89.89v8.7a0.891,0.891,0,0,0,.89.89A1.942,1.942,0,0,1,421.855,4948.52Zm-1.051-10.75a3.727,3.727,0,0,0,2.722-2.72H447.14a3.725,3.725,0,0,0,2.721,2.72v7.14a3.725,3.725,0,0,0-2.721,2.72H423.526a3.725,3.725,0,0,0-2.722-2.72v-7.14Zm22.544,4.45h2.986a0.89,0.89,0,0,0,0-1.78h-2.986A0.89,0.89,0,0,0,443.348,4942.22Zm-13,0h0.63a4.447,4.447,0,0,0,8.716,0h0.615a0.89,0.89,0,0,0,0-1.78h-0.615a4.447,4.447,0,0,0-8.716,0h-0.63A0.89,0.89,0,0,0,430.345,4942.22Zm4.988-3.56a2.67,2.67,0,1,1-2.668,2.67A2.674,2.674,0,0,1,435.333,4938.66Zm-11,3.56h2.986a0.89,0.89,0,0,0,0-1.78h-2.986A0.89,0.89,0,0,0,424.331,4942.22Zm29.182-16.18a1.876,1.876,0,0,0,1.872-1.88v-0.86a1.872,1.872,0,0,0-3.744,0v0.86A1.875,1.875,0,0,0,453.513,4926.04Zm3.041,2.92v0.86a1.872,1.872,0,0,0,3.744,0v-0.86A1.872,1.872,0,1,0,456.554,4928.96Zm-3.207,2.63a0.866,0.866,0,0,0,.411.1,0.881,0.881,0,0,0,.789-0.48l4.422-8.48a0.889,0.889,0,1,0-1.578-.82l-4.421,8.48A0.888,0.888,0,0,0,453.347,4931.59Zm-6.569-12.86a0.885,0.885,0,0,0-.89-0.89h-15.18a0.89,0.89,0,1,0,0,1.78h15.18A0.891,0.891,0,0,0,446.778,4918.73Zm-5.634,7.06H430.708a0.89,0.89,0,1,0,0,1.78h10.436A0.89,0.89,0,0,0,441.144,4925.79Zm0-3.98H430.708a0.89,0.89,0,1,0,0,1.78h10.436A0.89,0.89,0,0,0,441.144,4921.81Z" transform="translate(-415.125 -4892.91)"/>
</svg>
