<svg xmlns="http://www.w3.org/2000/svg" width="60.124" height="60.12" viewBox="0 0 60.124 60.12">
  <defs>
    <style>
      .cls-1 {
        fill: #08d665;
        fill-rule: evenodd;
      }
    </style>
  </defs>
  <path id="why-choose-icon-01" class="cls-1" d="M469.25,4745.45v-19.02a6.785,6.785,0,1,0-7.76-6.71H414.93v38.8h29.15A15.51,15.51,0,1,0,469.25,4745.45Zm-0.97-30.58a4.85,4.85,0,1,1-4.85,4.85A4.858,4.858,0,0,1,468.28,4714.87Zm-51.41,6.79h44.906a6.818,6.818,0,0,0,1.074,2.12l-5.933,5.93a2.824,2.824,0,0,0-2.493,0l-1.955-1.95a2.911,2.911,0,1,0-5.237,0l-4.865,4.86a2.938,2.938,0,1,0,1.371,1.37l4.865-4.86a2.824,2.824,0,0,0,2.493,0l1.955,1.95a2.911,2.911,0,1,0,5.237,0l5.934-5.93a6.633,6.633,0,0,0,3.088,1.28v17.7a15.427,15.427,0,0,0-19.4,3.19V4743h-5.82v11.64h2.223a15.346,15.346,0,0,0-.233,1.94H416.87v-34.92Zm38.8,9.7a0.97,0.97,0,1,1-.97.97A0.968,0.968,0,0,1,455.67,4731.36Zm-6.79-4.85a0.97,0.97,0,1,1,.97.97A0.968,0.968,0,0,1,448.88,4726.51Zm-6.79,8.73a0.97,0.97,0,1,1-.97-0.97A0.968,0.968,0,0,1,442.09,4735.24Zm17.46,30.07a7.76,7.76,0,1,1,7.76-7.76A7.768,7.768,0,0,1,459.55,4765.31Zm-13.58-15.26a15.539,15.539,0,0,0-1.153,2.65H444.03v-7.76h1.94v5.11Zm12.61-6.03v3.88a9.679,9.679,0,0,0-7.866,13.63l-3.365,1.94a13.424,13.424,0,0,1-1.379-5.92,13.587,13.587,0,0,1,12.61-13.53h0Zm0.97,27.11a13.574,13.574,0,0,1-11.24-5.97l3.378-1.95a9.67,9.67,0,0,0,15.724,0l3.379,1.95A13.576,13.576,0,0,1,459.55,4771.13Zm12.2-7.66-3.365-1.94a9.679,9.679,0,0,0-7.866-13.63v-3.88a13.586,13.586,0,0,1,12.61,13.53,13.424,13.424,0,0,1-1.379,5.92h0Zm-12.2-11.74a5.82,5.82,0,1,0,5.82,5.82A5.826,5.826,0,0,0,459.55,4751.73Zm0,9.7a3.88,3.88,0,1,1,3.88-3.88A3.884,3.884,0,0,1,459.55,4761.43Zm-40.5-37.83h13.58v1.94h-13.58v-1.94Zm0,3.88h13.58v1.94h-13.58v-1.94Zm0,3.88h13.58v1.94h-13.58v-1.94Zm0,3.88h13.58v1.94h-13.58v-1.94Zm-0.242,19.4h5.82v-9.7h-5.82v9.7Zm1.94-7.76h1.94v5.82h-1.94v-5.82Zm5.82,7.76h5.82v-7.76h-5.82v7.76Zm1.94-5.82h1.94v3.88h-1.94v-3.88Zm5.82,5.82h5.82v-15.52h-5.82v15.52Zm1.94-13.58h1.94v11.64h-1.94v-11.64Z" transform="translate(-414.938 -4712.94)"/>
</svg>
