<?xml version="1.0" encoding="UTF-8"?>
<svg width="23px" height="16px" viewBox="0 0 23 16" version="1.1" xmlns="http://www.w3.org/2000/svg" xmlns:xlink="http://www.w3.org/1999/xlink">
    <!-- Generator: Sketch 52.6 (67491) - http://www.bohemiancoding.com/sketch -->
    <title>Combined Shape</title>
    <desc>Created with Sketch.</desc>
    <g id="Page-1" stroke="none" stroke-width="1" fill="none" fill-rule="evenodd">
        <g id="Spa&amp;Massage-Homepage" transform="translate(-948.000000, -5329.000000)" fill="#968E88">
            <g id="Group-11" transform="translate(41.000000, 5237.000000)">
                <g id="Group-9" transform="translate(713.000000, 92.000000)">
                    <path d="M201.567493,14.894792 C201.508865,14.8987305 201.4508,14.9031192 201.391722,14.9067764 C199.981278,14.9939867 197.367219,15.070563 195.592686,16 C197.041221,13.4156486 200.514161,8.28976334 205.674143,7.07827127 C199.024665,7.27744839 195.395534,12.929015 194,15.7559236 C194.047037,12.6305869 195.085065,5.96141646 202.746802,3.37430812 C203.811837,3.01472026 204.99604,2.7911805 206.223624,2.61833527 C209.989647,2.08809649 214.165221,2.03560151 216.571495,2.84217094e-14 C216.571495,2.84217094e-14 218.773696,13.7364701 201.567493,14.894792 Z" id="Combined-Shape"></path>
                </g>
            </g>
        </g>
    </g>
</svg>