<svg xmlns="http://www.w3.org/2000/svg" width="194" height="70" viewBox="0 0 194 70"><g transform="translate(-390 -637)"><g transform="translate(390 637)" fill="rgba(249,249,249,0)" stroke="rgba(255,255,255,0.4)" stroke-linejoin="round" stroke-width="1"><rect width="194" height="70" rx="5" stroke="none"/><rect x="0.5" y="0.5" width="193" height="69" rx="4.5" fill="none"/></g><path d="M3.876-6.636a3.442,3.442,0,0,1,1.674.4A2.872,2.872,0,0,1,6.708-5.07a3.659,3.659,0,0,1,.42,1.794,3.625,3.625,0,0,1-.42,1.788A2.921,2.921,0,0,1,5.55-.324,3.4,3.4,0,0,1,3.876.084,3.436,3.436,0,0,1,2.2-.324a2.94,2.94,0,0,1-1.17-1.17A3.592,3.592,0,0,1,.6-3.276,3.618,3.618,0,0,1,1.026-5.07,2.9,2.9,0,0,1,2.2-6.234,3.477,3.477,0,0,1,3.876-6.636Zm0,.732a2.555,2.555,0,0,0-1.2.288,2.166,2.166,0,0,0-.888.882,2.922,2.922,0,0,0-.336,1.458,2.888,2.888,0,0,0,.336,1.452,2.174,2.174,0,0,0,.888.876,2.555,2.555,0,0,0,1.2.288A2.5,2.5,0,0,0,5.058-.948a2.185,2.185,0,0,0,.882-.876,2.888,2.888,0,0,0,.336-1.452A2.922,2.922,0,0,0,5.94-4.734a2.176,2.176,0,0,0-.882-.882A2.5,2.5,0,0,0,3.876-5.9Zm8.04-.768a2.486,2.486,0,0,1,1.854.726,2.917,2.917,0,0,1,.714,2.13V0h-.828V-3.756a2.292,2.292,0,0,0-.54-1.638,1.936,1.936,0,0,0-1.476-.57,2.028,2.028,0,0,0-1.566.63A2.642,2.642,0,0,0,9.492-3.48V0H8.64V-6.552h.852v1.608A2.276,2.276,0,0,1,10.4-6.228,2.645,2.645,0,0,1,11.916-6.672ZM24.264-2.064H20.412L19.644,0h-.9l3.12-8.268h.948L25.932,0H25.02Zm-.252-.672L22.344-7.3l-1.692,4.56Zm6.6-3.9a3.1,3.1,0,0,1,1.59.4,2.77,2.77,0,0,1,1.08,1.164,3.889,3.889,0,0,1,.39,1.794,3.861,3.861,0,0,1-.39,1.782A2.8,2.8,0,0,1,32.2-.324a3.073,3.073,0,0,1-1.584.408,2.781,2.781,0,0,1-1.7-.516,2.623,2.623,0,0,1-.96-1.368V3.1h-.84V-6.552h.84v1.8a2.623,2.623,0,0,1,.96-1.368A2.781,2.781,0,0,1,30.612-6.636Zm-.228.744a2.451,2.451,0,0,0-1.254.324,2.241,2.241,0,0,0-.87.918,2.912,2.912,0,0,0-.312,1.374A2.912,2.912,0,0,0,28.26-1.9a2.241,2.241,0,0,0,.87.918,2.451,2.451,0,0,0,1.254.324,2.321,2.321,0,0,0,1.776-.7,2.682,2.682,0,0,0,.66-1.914,2.682,2.682,0,0,0-.66-1.914A2.321,2.321,0,0,0,30.384-5.892Zm8.3-.744a3.1,3.1,0,0,1,1.59.4,2.77,2.77,0,0,1,1.08,1.164,3.889,3.889,0,0,1,.39,1.794,3.861,3.861,0,0,1-.39,1.782,2.8,2.8,0,0,1-1.086,1.17,3.073,3.073,0,0,1-1.584.408,2.781,2.781,0,0,1-1.7-.516,2.623,2.623,0,0,1-.96-1.368V3.1h-.84V-6.552h.84v1.8a2.623,2.623,0,0,1,.96-1.368A2.781,2.781,0,0,1,38.688-6.636Zm-.228.744a2.451,2.451,0,0,0-1.254.324,2.241,2.241,0,0,0-.87.918,2.912,2.912,0,0,0-.312,1.374A2.912,2.912,0,0,0,36.336-1.9a2.241,2.241,0,0,0,.87.918A2.451,2.451,0,0,0,38.46-.66a2.321,2.321,0,0,0,1.776-.7,2.682,2.682,0,0,0,.66-1.914,2.682,2.682,0,0,0-.66-1.914A2.321,2.321,0,0,0,38.46-5.892ZM51.54-2.148a2.287,2.287,0,0,1-.27,1.086,2.052,2.052,0,0,1-.834.828,2.826,2.826,0,0,1-1.4.318,3.365,3.365,0,0,1-1.452-.3,2.584,2.584,0,0,1-1.014-.822,2.325,2.325,0,0,1-.438-1.17h.888a1.884,1.884,0,0,0,.276.744,1.793,1.793,0,0,0,.66.618A2.078,2.078,0,0,0,49-.6a1.652,1.652,0,0,0,1.23-.432,1.491,1.491,0,0,0,.426-1.092,1.429,1.429,0,0,0-.282-.918,1.9,1.9,0,0,0-.7-.546,9.937,9.937,0,0,0-1.134-.42,10.062,10.062,0,0,1-1.278-.486,2.194,2.194,0,0,1-.822-.69A2,2,0,0,1,46.1-6.4a1.993,1.993,0,0,1,.672-1.56,2.676,2.676,0,0,1,1.848-.6,2.869,2.869,0,0,1,1.9.588A2.3,2.3,0,0,1,51.36-6.5h-.9a1.748,1.748,0,0,0-.57-.96,1.812,1.812,0,0,0-1.266-.42,1.753,1.753,0,0,0-1.188.384,1.337,1.337,0,0,0-.444,1.068,1.336,1.336,0,0,0,.276.876,1.836,1.836,0,0,0,.678.516q.4.18,1.1.408a9.9,9.9,0,0,1,1.3.492,2.238,2.238,0,0,1,.846.72A2.12,2.12,0,0,1,51.54-2.148Zm4.512,1.4V0h-.78a1.973,1.973,0,0,1-1.416-.45,2.046,2.046,0,0,1-.468-1.518V-5.82h-1v-.732h1V-8.208h.852v1.656h1.8v.732h-1.8v3.864A1.371,1.371,0,0,0,54.492-1a1.22,1.22,0,0,0,.888.258ZM60.4-6.636a3.442,3.442,0,0,1,1.674.4A2.872,2.872,0,0,1,63.228-5.07a3.659,3.659,0,0,1,.42,1.794,3.625,3.625,0,0,1-.42,1.788A2.921,2.921,0,0,1,62.07-.324,3.4,3.4,0,0,1,60.4.084a3.436,3.436,0,0,1-1.68-.408,2.94,2.94,0,0,1-1.17-1.17,3.592,3.592,0,0,1-.426-1.782,3.618,3.618,0,0,1,.426-1.794,2.9,2.9,0,0,1,1.17-1.164A3.477,3.477,0,0,1,60.4-6.636Zm0,.732a2.555,2.555,0,0,0-1.2.288,2.166,2.166,0,0,0-.888.882,2.922,2.922,0,0,0-.336,1.458,2.888,2.888,0,0,0,.336,1.452,2.174,2.174,0,0,0,.888.876,2.555,2.555,0,0,0,1.2.288,2.5,2.5,0,0,0,1.182-.288,2.185,2.185,0,0,0,.882-.876A2.888,2.888,0,0,0,62.8-3.276a2.922,2.922,0,0,0-.336-1.458,2.176,2.176,0,0,0-.882-.882A2.5,2.5,0,0,0,60.4-5.9Zm5.616.708a2.213,2.213,0,0,1,.924-1.092,2.943,2.943,0,0,1,1.548-.384v.912h-.276a2.4,2.4,0,0,0-1.572.51,2.027,2.027,0,0,0-.624,1.662V0H65.16V-6.552h.852ZM72.456-.612a2.432,2.432,0,0,0,1.488-.444,1.783,1.783,0,0,0,.72-1.2h.888a2.667,2.667,0,0,1-1,1.692,3.216,3.216,0,0,1-2.064.648,3.373,3.373,0,0,1-1.662-.4A2.816,2.816,0,0,1,69.7-1.482a3.747,3.747,0,0,1-.408-1.794A3.747,3.747,0,0,1,69.7-5.07,2.816,2.816,0,0,1,70.83-6.234a3.374,3.374,0,0,1,1.662-.4,3.289,3.289,0,0,1,1.662.4A2.729,2.729,0,0,1,75.222-5.16,3.012,3.012,0,0,1,75.588-3.7a3.585,3.585,0,0,1-.048.612H70.116A2.764,2.764,0,0,0,70.458-1.7a2.064,2.064,0,0,0,.858.822A2.514,2.514,0,0,0,72.456-.612Zm.036-5.34a2.566,2.566,0,0,0-1.164.264,2.083,2.083,0,0,0-.858.81,2.754,2.754,0,0,0-.354,1.362h4.632a2.417,2.417,0,0,0-.264-1.356,1.964,1.964,0,0,0-.84-.816A2.54,2.54,0,0,0,72.492-5.952Z" transform="translate(467.659 687.985)" fill="#fff"/><path d="M9.88-2.84H4.22L3.22,0H.24l5.2-13.96H8.66L13.84,0H10.86ZM9.12-4.98,7.04-10.94,4.96-4.98ZM20.18-2.82l2.8-8.26h3L21.88,0H18.44l-4.1-11.08h3.02Zm11.7-8.4a4.258,4.258,0,0,1,2.4.66A3.6,3.6,0,0,1,35.7-8.78v-2.3h2.8V0H35.7V-2.32A3.648,3.648,0,0,1,34.28-.53a4.211,4.211,0,0,1-2.4.67,4.759,4.759,0,0,1-2.52-.68,4.594,4.594,0,0,1-1.75-1.97,6.832,6.832,0,0,1-.63-3.03,6.832,6.832,0,0,1,.63-3.03,4.594,4.594,0,0,1,1.75-1.97A4.759,4.759,0,0,1,31.88-11.22Zm.88,2.46a2.758,2.758,0,0,0-2.12.86,3.329,3.329,0,0,0-.8,2.36,3.293,3.293,0,0,0,.8,2.35,2.775,2.775,0,0,0,2.12.85,2.79,2.79,0,0,0,2.11-.87,3.235,3.235,0,0,0,.83-2.33,3.263,3.263,0,0,0-.83-2.35A2.79,2.79,0,0,0,32.76-8.76Zm7.98-5.5a1.422,1.422,0,0,1,.48-1.11,1.817,1.817,0,0,1,1.26-.43,1.817,1.817,0,0,1,1.26.43,1.422,1.422,0,0,1,.48,1.11,1.4,1.4,0,0,1-.48,1.09,1.817,1.817,0,0,1-1.26.43,1.817,1.817,0,0,1-1.26-.43A1.4,1.4,0,0,1,40.74-14.26Zm3.14,3.18V0H41.06V-11.08Zm5.38-3.72V0H46.44V-14.8Zm6.9,3.58a4.258,4.258,0,0,1,2.4.66,3.6,3.6,0,0,1,1.42,1.78v-2.3h2.8V0h-2.8V-2.32A3.648,3.648,0,0,1,58.56-.53a4.211,4.211,0,0,1-2.4.67,4.759,4.759,0,0,1-2.52-.68,4.594,4.594,0,0,1-1.75-1.97,6.832,6.832,0,0,1-.63-3.03,6.832,6.832,0,0,1,.63-3.03,4.594,4.594,0,0,1,1.75-1.97A4.759,4.759,0,0,1,56.16-11.22Zm.88,2.46a2.758,2.758,0,0,0-2.12.86,3.329,3.329,0,0,0-.8,2.36,3.293,3.293,0,0,0,.8,2.35,2.775,2.775,0,0,0,2.12.85,2.79,2.79,0,0,0,2.11-.87,3.235,3.235,0,0,0,.83-2.33,3.263,3.263,0,0,0-.83-2.35A2.79,2.79,0,0,0,57.04-8.76Zm14.92-2.46a4.759,4.759,0,0,1,2.52.68,4.594,4.594,0,0,1,1.75,1.97,6.832,6.832,0,0,1,.63,3.03,6.832,6.832,0,0,1-.63,3.03A4.594,4.594,0,0,1,74.48-.54a4.759,4.759,0,0,1-2.52.68,4.163,4.163,0,0,1-2.39-.67,3.666,3.666,0,0,1-1.41-1.79V0H65.34V-14.8h2.82v6.02a3.612,3.612,0,0,1,1.41-1.78A4.21,4.21,0,0,1,71.96-11.22Zm-.88,2.46a2.79,2.79,0,0,0-2.11.87,3.263,3.263,0,0,0-.83,2.35,3.235,3.235,0,0,0,.83,2.33,2.79,2.79,0,0,0,2.11.87,2.775,2.775,0,0,0,2.12-.85A3.293,3.293,0,0,0,74-5.54a3.329,3.329,0,0,0-.8-2.36A2.758,2.758,0,0,0,71.08-8.76Zm10.6-6.04V0H78.86V-14.8ZM94.66-5.96a5.339,5.339,0,0,1-.1.96H86.44a3.054,3.054,0,0,0,.8,2.18,2.574,2.574,0,0,0,1.84.7,2.67,2.67,0,0,0,1.63-.48,2.126,2.126,0,0,0,.83-1.3h2.98a4.768,4.768,0,0,1-.94,2.08A4.912,4.912,0,0,1,91.73-.38a5.933,5.933,0,0,1-2.51.52,5.9,5.9,0,0,1-2.88-.69,4.85,4.85,0,0,1-1.96-1.97,6.2,6.2,0,0,1-.7-3.02,6.259,6.259,0,0,1,.7-3.03,4.771,4.771,0,0,1,1.96-1.97,5.968,5.968,0,0,1,2.88-.68,5.837,5.837,0,0,1,2.87.68,4.793,4.793,0,0,1,1.9,1.87A5.427,5.427,0,0,1,94.66-5.96Zm-2.84-.28a2.485,2.485,0,0,0-.71-2.06A2.707,2.707,0,0,0,89.22-9a2.77,2.77,0,0,0-1.92.7,2.866,2.866,0,0,0-.86,2.06Z" transform="translate(467.659 668.985)" fill="#fff"/><path d="M430.112,692a7.357,7.357,0,0,1-4.234-2.88A25.147,25.147,0,0,1,420,674.582v-1.795a11.685,11.685,0,0,1,5.181-9.621,8.855,8.855,0,0,1,5.868-1.348,15.709,15.709,0,0,1,2.882.815,7.929,7.929,0,0,0,2.871.859,7.061,7.061,0,0,0,2.024-.609c1.977-.714,3.921-1.519,6.493-1.141a9,9,0,0,1,6.612,3.9,8.372,8.372,0,0,0-4.313,8.321A8.6,8.6,0,0,0,453,681.358v.086a23.19,23.19,0,0,1-3.368,6.416c-1.284,1.75-2.865,4.1-5.677,4.1-2.422,0-4.036-1.544-6.526-1.588-2.64-.041-4.089,1.3-6.493,1.629Zm6.326-30.78a8.3,8.3,0,0,1,2.222-6.261A9.642,9.642,0,0,1,444.294,652h.284a8.506,8.506,0,0,1-2.186,6.457,6.876,6.876,0,0,1-5.383,2.784Q436.731,661.242,436.438,661.219Z" fill="#fff"/></g></svg>