<svg xmlns="http://www.w3.org/2000/svg" width="210" height="70" viewBox="0 0 210 70"><g transform="translate(-612 -7284)"><rect width="210" height="70" rx="5" transform="translate(612 7284)" fill="#6b23ff"/><path d="M3.672-8.292a1.83,1.83,0,0,0-1.278.33,1.515,1.515,0,0,0-.366,1.146v.264H3.672v.744H2.028V0h-.84V-5.808H.216v-.744h.972v-.324a2.141,2.141,0,0,1,.6-1.656,2.57,2.57,0,0,1,1.884-.5ZM5.784-5.2a2.213,2.213,0,0,1,.924-1.092,2.943,2.943,0,0,1,1.548-.384v.912H7.98a2.4,2.4,0,0,0-1.572.51,2.027,2.027,0,0,0-.624,1.662V0H4.932V-6.552h.852Zm6.552-1.44a3.442,3.442,0,0,1,1.674.4A2.872,2.872,0,0,1,15.168-5.07a3.659,3.659,0,0,1,.42,1.794,3.625,3.625,0,0,1-.42,1.788A2.921,2.921,0,0,1,14.01-.324a3.4,3.4,0,0,1-1.674.408,3.436,3.436,0,0,1-1.68-.408,2.94,2.94,0,0,1-1.17-1.17A3.592,3.592,0,0,1,9.06-3.276,3.618,3.618,0,0,1,9.486-5.07a2.9,2.9,0,0,1,1.17-1.164A3.477,3.477,0,0,1,12.336-6.636Zm0,.732a2.555,2.555,0,0,0-1.2.288,2.166,2.166,0,0,0-.888.882,2.922,2.922,0,0,0-.336,1.458,2.888,2.888,0,0,0,.336,1.452,2.174,2.174,0,0,0,.888.876,2.555,2.555,0,0,0,1.2.288,2.5,2.5,0,0,0,1.182-.288,2.185,2.185,0,0,0,.882-.876,2.888,2.888,0,0,0,.336-1.452A2.922,2.922,0,0,0,14.4-4.734a2.176,2.176,0,0,0-.882-.882A2.5,2.5,0,0,0,12.336-5.9Zm12.72-.768a2.431,2.431,0,0,1,1.83.726,2.947,2.947,0,0,1,.7,2.13V0h-.84V-3.756a2.335,2.335,0,0,0-.51-1.62,1.79,1.79,0,0,0-1.4-.564,1.938,1.938,0,0,0-1.512.624,2.655,2.655,0,0,0-.564,1.836V0h-.828V-3.756a2.335,2.335,0,0,0-.51-1.62,1.79,1.79,0,0,0-1.4-.564,1.938,1.938,0,0,0-1.512.624,2.655,2.655,0,0,0-.564,1.836V0H17.1V-6.552h.852v1.56a2.185,2.185,0,0,1,.87-1.254,2.541,2.541,0,0,1,1.458-.426,2.453,2.453,0,0,1,1.488.456,2.358,2.358,0,0,1,.864,1.344,2.423,2.423,0,0,1,.924-1.338A2.552,2.552,0,0,1,25.056-6.672Zm8.268,3.144V0h-.852V-8.46H35a3.013,3.013,0,0,1,2.13.66,2.367,2.367,0,0,1,.7,1.812A2.3,2.3,0,0,1,37.11-4.17,3.084,3.084,0,0,1,35-3.528Zm1.608-.72A2.257,2.257,0,0,0,36.5-4.7a1.682,1.682,0,0,0,.48-1.29A1.715,1.715,0,0,0,36.5-7.3a2.257,2.257,0,0,0-1.572-.45H33.324v3.5ZM40.02-8.88V0h-.852V-8.88ZM44.6-6.636a2.788,2.788,0,0,1,1.7.516,2.611,2.611,0,0,1,.966,1.368v-1.8H48.1V0h-.828V-1.8A2.611,2.611,0,0,1,46.3-.432a2.788,2.788,0,0,1-1.7.516,3.106,3.106,0,0,1-1.59-.408,2.785,2.785,0,0,1-1.092-1.17,3.861,3.861,0,0,1-.39-1.782,3.889,3.889,0,0,1,.39-1.794,2.758,2.758,0,0,1,1.086-1.164A3.133,3.133,0,0,1,44.6-6.636Zm.216.744a2.326,2.326,0,0,0-1.77.7,2.667,2.667,0,0,0-.666,1.914,2.667,2.667,0,0,0,.666,1.914,2.326,2.326,0,0,0,1.77.7,2.451,2.451,0,0,0,1.254-.324A2.281,2.281,0,0,0,46.95-1.9a2.867,2.867,0,0,0,.318-1.374A2.867,2.867,0,0,0,46.95-4.65a2.281,2.281,0,0,0-.876-.918A2.451,2.451,0,0,0,44.82-5.892Zm5.28-.66,2.28,5.46,2.1-5.46h.936L51.564,3.1H50.6l1.32-3.168-2.76-6.48Zm14.664,4.4a2.287,2.287,0,0,1-.27,1.086,2.052,2.052,0,0,1-.834.828,2.826,2.826,0,0,1-1.4.318,3.365,3.365,0,0,1-1.452-.3,2.584,2.584,0,0,1-1.014-.822,2.325,2.325,0,0,1-.438-1.17h.888a1.884,1.884,0,0,0,.276.744,1.793,1.793,0,0,0,.66.618A2.078,2.078,0,0,0,62.22-.6a1.652,1.652,0,0,0,1.23-.432,1.491,1.491,0,0,0,.426-1.092,1.429,1.429,0,0,0-.282-.918,1.9,1.9,0,0,0-.7-.546,9.937,9.937,0,0,0-1.134-.42,10.062,10.062,0,0,1-1.278-.486,2.194,2.194,0,0,1-.822-.69A2,2,0,0,1,59.328-6.4,1.993,1.993,0,0,1,60-7.956a2.676,2.676,0,0,1,1.848-.6,2.869,2.869,0,0,1,1.9.588A2.3,2.3,0,0,1,64.584-6.5h-.9a1.748,1.748,0,0,0-.57-.96,1.812,1.812,0,0,0-1.266-.42A1.753,1.753,0,0,0,60.66-7.5a1.337,1.337,0,0,0-.444,1.068,1.336,1.336,0,0,0,.276.876,1.836,1.836,0,0,0,.678.516q.4.18,1.1.408a9.9,9.9,0,0,1,1.3.492,2.238,2.238,0,0,1,.846.72A2.12,2.12,0,0,1,64.764-2.148Zm4.512,1.4V0H68.5A1.973,1.973,0,0,1,67.08-.45a2.046,2.046,0,0,1-.468-1.518V-5.82h-1v-.732h1V-8.208h.852v1.656h1.8v.732h-1.8v3.864A1.371,1.371,0,0,0,67.716-1a1.22,1.22,0,0,0,.888.258ZM73.62-6.636a3.442,3.442,0,0,1,1.674.4A2.872,2.872,0,0,1,76.452-5.07a3.659,3.659,0,0,1,.42,1.794,3.625,3.625,0,0,1-.42,1.788A2.921,2.921,0,0,1,75.294-.324,3.4,3.4,0,0,1,73.62.084a3.436,3.436,0,0,1-1.68-.408,2.94,2.94,0,0,1-1.17-1.17,3.592,3.592,0,0,1-.426-1.782A3.618,3.618,0,0,1,70.77-5.07a2.9,2.9,0,0,1,1.17-1.164A3.477,3.477,0,0,1,73.62-6.636Zm0,.732a2.555,2.555,0,0,0-1.2.288,2.166,2.166,0,0,0-.888.882A2.922,2.922,0,0,0,71.2-3.276a2.888,2.888,0,0,0,.336,1.452,2.174,2.174,0,0,0,.888.876,2.555,2.555,0,0,0,1.2.288A2.5,2.5,0,0,0,74.8-.948a2.185,2.185,0,0,0,.882-.876,2.888,2.888,0,0,0,.336-1.452,2.922,2.922,0,0,0-.336-1.458,2.176,2.176,0,0,0-.882-.882A2.5,2.5,0,0,0,73.62-5.9Zm5.616.708a2.213,2.213,0,0,1,.924-1.092,2.943,2.943,0,0,1,1.548-.384v.912h-.276a2.4,2.4,0,0,0-1.572.51,2.027,2.027,0,0,0-.624,1.662V0h-.852V-6.552h.852ZM85.68-.612a2.432,2.432,0,0,0,1.488-.444,1.783,1.783,0,0,0,.72-1.2h.888a2.667,2.667,0,0,1-1,1.692,3.216,3.216,0,0,1-2.064.648,3.373,3.373,0,0,1-1.662-.4A2.816,2.816,0,0,1,82.92-1.482a3.747,3.747,0,0,1-.408-1.794A3.747,3.747,0,0,1,82.92-5.07a2.816,2.816,0,0,1,1.134-1.164,3.374,3.374,0,0,1,1.662-.4,3.289,3.289,0,0,1,1.662.4A2.729,2.729,0,0,1,88.446-5.16,3.012,3.012,0,0,1,88.812-3.7a3.585,3.585,0,0,1-.048.612H83.34A2.764,2.764,0,0,0,83.682-1.7a2.064,2.064,0,0,0,.858.822A2.514,2.514,0,0,0,85.68-.612Zm.036-5.34a2.566,2.566,0,0,0-1.164.264,2.083,2.083,0,0,0-.858.81,2.754,2.754,0,0,0-.354,1.362h4.632a2.417,2.417,0,0,0-.264-1.356,1.964,1.964,0,0,0-.84-.816A2.54,2.54,0,0,0,85.716-5.952Z" transform="translate(689.659 7334.985)" fill="#fff"/><path d="M13.7-7.08a7.553,7.553,0,0,1-.88,3.7A6.124,6.124,0,0,1,10.27-.89,8.33,8.33,0,0,1,6.3,0H1.28V-14.12H6.3a8.488,8.488,0,0,1,3.97.87,6.018,6.018,0,0,1,2.55,2.46A7.539,7.539,0,0,1,13.7-7.08ZM6.06-2.52a4.892,4.892,0,0,0,3.53-1.2,4.438,4.438,0,0,0,1.25-3.36,4.465,4.465,0,0,0-1.25-3.38,4.892,4.892,0,0,0-3.53-1.2H4.1v9.14Zm14.88-8.7a6.144,6.144,0,0,1,2.91.68,4.977,4.977,0,0,1,2.03,1.97,5.985,5.985,0,0,1,.74,3.03,5.93,5.93,0,0,1-.74,3.02A5.062,5.062,0,0,1,23.85-.55a6.072,6.072,0,0,1-2.91.69,6.072,6.072,0,0,1-2.91-.69A5.062,5.062,0,0,1,16-2.52a5.93,5.93,0,0,1-.74-3.02A5.985,5.985,0,0,1,16-8.57a4.977,4.977,0,0,1,2.03-1.97A6.144,6.144,0,0,1,20.94-11.22Zm0,2.44a2.7,2.7,0,0,0-2,.83,3.288,3.288,0,0,0-.82,2.41,3.288,3.288,0,0,0,.82,2.41,2.7,2.7,0,0,0,2,.83,2.7,2.7,0,0,0,2-.83,3.288,3.288,0,0,0,.82-2.41,3.288,3.288,0,0,0-.82-2.41A2.7,2.7,0,0,0,20.94-8.78Zm23.54-2.3L41.5,0H38.38L36-8.06,33.56,0H30.44L27.48-11.08H30.3l1.8,8.56,2.46-8.56h2.98l2.48,8.56,1.82-8.56Zm8-.16a3.923,3.923,0,0,1,3.06,1.26,5.09,5.09,0,0,1,1.14,3.54V0h-2.8V-6.12a2.893,2.893,0,0,0-.68-2.05,2.418,2.418,0,0,0-1.86-.73,2.487,2.487,0,0,0-1.92.78,3.186,3.186,0,0,0-.72,2.24V0H45.88V-11.08H48.7v2.22a3.53,3.53,0,0,1,1.45-1.75A4.31,4.31,0,0,1,52.48-11.24Zm9.5-3.56V0H59.16V-14.8Zm7.68,3.58a6.144,6.144,0,0,1,2.91.68A4.977,4.977,0,0,1,74.6-8.57a5.985,5.985,0,0,1,.74,3.03,5.93,5.93,0,0,1-.74,3.02A5.062,5.062,0,0,1,72.57-.55a6.072,6.072,0,0,1-2.91.69,6.072,6.072,0,0,1-2.91-.69,5.062,5.062,0,0,1-2.03-1.97,5.93,5.93,0,0,1-.74-3.02,5.985,5.985,0,0,1,.74-3.03,4.977,4.977,0,0,1,2.03-1.97A6.144,6.144,0,0,1,69.66-11.22Zm0,2.44a2.7,2.7,0,0,0-2,.83,3.288,3.288,0,0,0-.82,2.41,3.288,3.288,0,0,0,.82,2.41,2.7,2.7,0,0,0,2,.83,2.7,2.7,0,0,0,2-.83,3.288,3.288,0,0,0,.82-2.41,3.288,3.288,0,0,0-.82-2.41A2.7,2.7,0,0,0,69.66-8.78Zm12.02-2.44a4.258,4.258,0,0,1,2.4.66A3.594,3.594,0,0,1,85.5-8.78v-2.3h2.8V0H85.5V-2.32A3.648,3.648,0,0,1,84.08-.53a4.211,4.211,0,0,1-2.4.67,4.759,4.759,0,0,1-2.52-.68,4.594,4.594,0,0,1-1.75-1.97,6.832,6.832,0,0,1-.63-3.03,6.832,6.832,0,0,1,.63-3.03,4.594,4.594,0,0,1,1.75-1.97A4.759,4.759,0,0,1,81.68-11.22Zm.88,2.46a2.758,2.758,0,0,0-2.12.86,3.329,3.329,0,0,0-.8,2.36,3.293,3.293,0,0,0,.8,2.35,2.775,2.775,0,0,0,2.12.85,2.79,2.79,0,0,0,2.11-.87,3.235,3.235,0,0,0,.83-2.33,3.263,3.263,0,0,0-.83-2.35A2.79,2.79,0,0,0,82.56-8.76ZM95.2-11.22a4.21,4.21,0,0,1,2.39.66,3.726,3.726,0,0,1,1.43,1.78V-14.8h2.8V0h-2.8V-2.32A3.782,3.782,0,0,1,97.59-.53,4.163,4.163,0,0,1,95.2.14a4.759,4.759,0,0,1-2.52-.68,4.594,4.594,0,0,1-1.75-1.97,6.832,6.832,0,0,1-.63-3.03,6.832,6.832,0,0,1,.63-3.03,4.594,4.594,0,0,1,1.75-1.97A4.759,4.759,0,0,1,95.2-11.22Zm.88,2.46a2.758,2.758,0,0,0-2.12.86,3.329,3.329,0,0,0-.8,2.36,3.293,3.293,0,0,0,.8,2.35,2.775,2.775,0,0,0,2.12.85,2.79,2.79,0,0,0,2.11-.87,3.235,3.235,0,0,0,.83-2.33,3.263,3.263,0,0,0-.83-2.35A2.79,2.79,0,0,0,96.08-8.76Z" transform="translate(689.659 7315.985)" fill="#fff"/><path d="M661.387,7338.283a2.382,2.382,0,0,1-.726-1.755v-5.456H657.33v5.456a2.475,2.475,0,1,1-4.951,0l-.024-5.456h-1.787a2.574,2.574,0,0,1-1.882-.768,2.541,2.541,0,0,1-.774-1.877V7312.42h22.167v16.009a2.626,2.626,0,0,1-2.632,2.643h-1.81v5.456a2.5,2.5,0,0,1-4.249,1.755Zm10.386-11.776a2.383,2.383,0,0,1-.726-1.755v-10.334a2.344,2.344,0,0,1,.726-1.743,2.391,2.391,0,0,1,1.737-.709,2.423,2.423,0,0,1,1.763.709,2.344,2.344,0,0,1,.726,1.743v10.334a2.384,2.384,0,0,1-.726,1.755,2.411,2.411,0,0,1-1.763.72A2.38,2.38,0,0,1,671.773,7326.507Zm-29.053,0a2.383,2.383,0,0,1-.726-1.755v-10.334a2.356,2.356,0,0,1,.726-1.731,2.4,2.4,0,0,1,1.761-.72,2.465,2.465,0,0,1,2.464,2.452v10.334a2.413,2.413,0,0,1-.711,1.755,2.378,2.378,0,0,1-1.753.72A2.41,2.41,0,0,1,642.72,7326.507Zm5.1-14.951a9.28,9.28,0,0,1,1.545-5.179,10.567,10.567,0,0,1,4.155-3.689l-1.717-3.148a.317.317,0,0,1,.12-.482.337.337,0,0,1,.484.146l1.739,3.171a12.178,12.178,0,0,1,9.708,0l1.737-3.171a.337.337,0,0,1,.484-.146.317.317,0,0,1,.12.482l-1.713,3.148a10.615,10.615,0,0,1,4.128,3.689,9.28,9.28,0,0,1,1.545,5.179Zm15.612-5.612a.9.9,0,0,0-.276.663.887.887,0,0,0,.276.657.908.908,0,0,0,.665.28.871.871,0,0,0,.652-.28.959.959,0,0,0,0-1.32.875.875,0,0,0-.652-.276A.912.912,0,0,0,663.428,7305.944Zm-10.178,0a.916.916,0,0,0-.265.663.906.906,0,0,0,.265.657.859.859,0,0,0,.65.28.938.938,0,0,0,0-1.877A.865.865,0,0,0,653.25,7305.944Z" fill="#fff"/></g></svg>