<?xml version="1.0" encoding="utf-8"?>
<!-- Generator: Adobe Illustrator 24.2.0, SVG Export Plug-In . SVG Version: 6.00 Build 0)  -->
<svg version="1.1" id="_x2014_ÎÓÈ_x5F_1" xmlns="http://www.w3.org/2000/svg" xmlns:xlink="http://www.w3.org/1999/xlink"
	 x="0px" y="0px" width="68px" height="68px" viewBox="0 0 68 68" style="enable-background:new 0 0 68 68;" xml:space="preserve">
<style type="text/css">
	.st0{fill:#FC8A4E;}
</style>
<g>
	<path class="st0" d="M34,19.8c-3.1,0-5.7,2.5-5.7,5.7v1.4c0,3.1,2.5,5.7,5.7,5.7s5.7-2.5,5.7-5.7v-1.4C39.7,22.4,37.1,19.8,34,19.8
		z M36.8,26.9c0,1.6-1.3,2.8-2.8,2.8s-2.8-1.3-2.8-2.8v-1.4c0-1.6,1.3-2.8,2.8-2.8s2.8,1.3,2.8,2.8V26.9z"/>
	<path class="st0" d="M68,34C68,15.3,52.7,0,34,0S0,15.3,0,34c0,10.6,4.9,20.5,13.3,26.9c-0.3,0.7-0.5,1.4-0.5,2.1c0,2.7,2.2,5,5,5
		h14.9h2.8h14.9c2.7,0,5-2.2,5-5c0-0.8-0.2-1.5-0.5-2.1C63.1,54.5,68,44.6,68,34z M50.3,65.2H39.4c0.2-0.4,0.3-0.9,0.3-1.4
		c0-0.5-0.1-1-0.3-1.4h5.9v-2.8h-9.9h-2.8h-9.9v2.8h9.9h2.8c0.8,0,1.4,0.6,1.4,1.4c0,0.8-0.6,1.4-1.4,1.4h-2.8H17.7
		c-1.2,0-2.1-1-2.1-2.1c0-0.7,0.3-1.3,0.9-1.6l9.4-6.1h3.8v-2.8h-2.8V51l5.1-1c0.8-0.2,1.4-0.5,2-1c0.6,0.5,1.2,0.9,2,1l5.1,1v1.4
		h-8.5v2.8h9.5l9.4,6.1c0.6,0.4,0.9,1,0.9,1.6C52.4,64.2,51.5,65.2,50.3,65.2z M36.6,47.2c-0.7-0.1-1.1-0.7-1.1-1.4v-4.8h-2.8v4.8
		c0,0.7-0.5,1.3-1.1,1.4L20,49.5c-0.5,0.1-1-0.1-1.4-0.5c-0.2-0.2-0.3-0.5-0.3-0.8c0-0.4,0.2-0.7,0.3-0.9l7.1-8.5
		c0.2-0.2,0.5-0.5,1.1-0.5h14.2c0.6,0,0.9,0.3,1.1,0.5l7.1,8.5c0.2,0.2,0.3,0.5,0.3,0.9c0,0.4-0.2,0.8-0.5,1.1
		c-0.3,0.3-0.7,0.4-1.1,0.3L36.6,47.2z M52.8,58.8l-8.9-5.8v-1.5l3.5,0.7c0.3,0.1,0.6,0.1,0.8,0.1c1,0,1.9-0.3,2.7-1
		c1-0.8,1.5-2,1.5-3.2c0-1-0.3-1.9-1-2.7l-7.1-8.5c-0.8-1-2-1.5-3.2-1.5H26.9c-1.2,0-2.4,0.5-3.2,1.5l-7.1,8.5c-0.6,0.8-1,1.7-1,2.7
		c0,0.9,0.3,1.7,0.8,2.4c0.8,1.1,2.1,1.8,3.4,1.8c0.3,0,0.5,0,0.8-0.1l3.5-0.7v1.5l-8.9,5.8C7.5,53,2.8,43.8,2.8,34
		c0-17.2,14-31.2,31.2-31.2s31.2,14,31.2,31.2C65.2,43.8,60.5,53,52.8,58.8z"/>
	<path class="st0" d="M22.7,19.7l-2.5-1.3c-0.5,0.9-0.9,1.9-1.1,2.9l2.7,0.8C22,21.2,22.3,20.4,22.7,19.7z"/>
	<path class="st0" d="M34,12.8c0.4,0,0.9,0,1.4,0.1l0.3-2.8c-0.5-0.1-1.1-0.1-1.6-0.1c0,0,0,0,0,0c-0.5,0-1,0-1.5,0.1l0.3,2.8
		C33.2,12.8,33.6,12.8,34,12.8z"/>
	<path class="st0" d="M21.2,25.5c0-0.3,0-0.7,0-1l-2.8-0.2c0,0.4,0,0.8,0,1.2c0,0.6,0,1.3,0.1,1.9l2.8-0.3
		C21.3,26.6,21.3,26,21.2,25.5z"/>
	<path class="st0" d="M46.3,22.1l2.7-0.7c-0.3-1-0.6-2-1.1-2.9l-2.5,1.3C45.8,20.5,46.1,21.3,46.3,22.1z"/>
	<path class="st0" d="M37.8,13.3c0.8,0.3,1.6,0.6,2.3,1l1.4-2.5c-0.9-0.5-1.9-0.9-2.9-1.2L37.8,13.3z"/>
	<path class="st0" d="M45,31.9l2.5,1.4c0.5-0.9,0.9-1.8,1.2-2.7L46,29.7C45.8,30.4,45.4,31.2,45,31.9z"/>
	<path class="st0" d="M44.1,13.6l-1.8,2.2c0.6,0.6,1.2,1.2,1.8,1.8l2.2-1.8C45.6,15.1,44.9,14.3,44.1,13.6z"/>
	<path class="st0" d="M46.7,24.7c0,0.3,0,0.6,0,0.8c0,0.6,0,1.1-0.1,1.7l2.8,0.4c0.1-0.7,0.1-1.4,0.1-2.1c0-0.3,0-0.7,0-1L46.7,24.7
		z"/>
	<path class="st0" d="M29.5,10.6c-1,0.3-2,0.7-2.9,1.2l1.3,2.5c0.7-0.4,1.5-0.7,2.3-1L29.5,10.6z"/>
	<path class="st0" d="M19.2,30.5c0.3,1,0.8,1.9,1.3,2.8l2.5-1.4c-0.4-0.7-0.8-1.5-1-2.3L19.2,30.5z"/>
	<path class="st0" d="M21.8,15.7l2.2,1.8c0.5-0.7,1.1-1.3,1.8-1.8L24,13.5C23.2,14.2,22.5,14.9,21.8,15.7z"/>
</g>
</svg>
