<?xml version="1.0" encoding="utf-8"?>
<!-- Generator: Adobe Illustrator 24.2.0, SVG Export Plug-In . SVG Version: 6.00 Build 0)  -->
<svg version="1.1" id="_x2014_ÎÓÈ_x5F_1" xmlns="http://www.w3.org/2000/svg" xmlns:xlink="http://www.w3.org/1999/xlink"
	 x="0px" y="0px" width="77px" height="77px" viewBox="0 0 77 77" style="enable-background:new 0 0 77 77;" xml:space="preserve">
<style type="text/css">
	.st0{fill:#FC8A4E;}
</style>
<g>
	<path class="st0" d="M65.8,61c-0.5,0-0.9,0-1.5,0.1L53,63.2l-1.7-6.4c-0.5-1.7-0.8-3.4-1-5.1l4.1,1.8c1.7,0.7,3.6,0.4,5-0.8
		c1.4-1.2,2-3.1,1.5-4.9l-4-16c-0.7-2.8-2.8-5-5.5-5.8c-8.5-2.6-17.5-2.6-26,0c-2.7,0.8-4.8,3-5.5,5.8l-4,16
		c-0.4,1.8,0.1,3.7,1.5,4.9c0.9,0.8,2,1.2,3.1,1.2c0.6,0,1.3-0.1,1.9-0.4l4.1-1.8c-0.3,1.7-0.6,3.4-1,5.1L24,63.2l-11.3-2.1
		c-0.5-0.1-1-0.1-1.5-0.1c-4.4,0-8,3.6-8,8s3.6,8,8,8h19.2h35.3c4.4,0,8-3.6,8-8S70.2,61,65.8,61z M21.3,50.5
		c-0.6,0.2-1.2,0.1-1.7-0.3c-0.5-0.4-0.7-1.1-0.5-1.7l4-16c0.4-1.7,1.7-3,3.3-3.5c4-1.2,8-1.8,12.1-1.8c4.1,0,8.1,0.6,12.1,1.8
		c1.6,0.5,2.9,1.8,3.3,3.5l4,16c0.1,0.6-0.1,1.3-0.5,1.7c-0.5,0.4-1.1,0.5-1.7,0.3l-15.5-6.7v-5.3h-3.2v5.3L21.3,50.5z M28.8,57.6
		c0.7-2.4,1.1-4.9,1.4-7.5l8.3-3.6l8.3,3.6c0.3,2.5,0.7,5,1.4,7.5l1.7,6.1l-11.4,2.1l-11.4-2.1L28.8,57.6z M6.4,69
		c0-2.7,2.2-4.8,4.8-4.8c0.3,0,0.6,0,0.9,0.1l17.5,3.2c-2.3,0.4-3.9,2.4-3.9,4.7c0,0.6,0.1,1.1,0.3,1.6H11.2
		C8.6,73.8,6.4,71.6,6.4,69z M65.8,73.8H30.5c-0.9,0-1.6-0.7-1.6-1.6c0-0.8,0.6-1.4,1.3-1.6h0l34.7-6.4c0.3-0.1,0.6-0.1,0.9-0.1
		c2.7,0,4.8,2.2,4.8,4.8C70.6,71.6,68.4,73.8,65.8,73.8z"/>
	<path class="st0" d="M38.5,20.9c4.4,0,8-3.6,8-8V8c0-4.4-3.6-8-8-8s-8,3.6-8,8v4.8C30.5,17.3,34.1,20.9,38.5,20.9z M33.7,8
		c0-2.7,2.2-4.8,4.8-4.8s4.8,2.2,4.8,4.8v4.8c0,2.7-2.2,4.8-4.8,4.8s-4.8-2.2-4.8-4.8V8z"/>
	<rect x="46.5" y="35.3" class="st0" width="3.2" height="6.4"/>
	<rect x="27.3" y="35.3" class="st0" width="3.2" height="6.4"/>
	<path class="st0" d="M59.3,6.1c-0.9-0.6-1.9-1.2-2.9-1.7l-1.5,2.8c0.9,0.5,1.8,1,2.7,1.5L59.3,6.1z"/>
	<path class="st0" d="M64.6,10.2C63.8,9.4,62.9,8.7,62,8l-2,2.5c0.8,0.6,1.6,1.3,2.3,2L64.6,10.2z"/>
	<path class="st0" d="M53.4,3c-1-0.4-2.1-0.8-3.1-1.2l-1,3.1c1,0.3,1.9,0.7,2.9,1.1L53.4,3z"/>
	<path class="st0" d="M69.8,22.2l2.8-1.5c-0.5-1-1.1-2-1.7-2.9l-2.7,1.7C68.8,20.4,69.4,21.3,69.8,22.2z"/>
	<path class="st0" d="M73.5,33.9l3.2-0.4c-0.1-1.1-0.3-2.2-0.6-3.3L73,30.9C73.2,31.8,73.4,32.9,73.5,33.9z"/>
	<path class="st0" d="M72.2,27.9l3.1-1c-0.3-1.1-0.7-2.1-1.1-3.1l-3,1.2C71.5,25.9,71.9,26.9,72.2,27.9z"/>
	<path class="st0" d="M72.7,56.2l-2.8-1.5c-0.4,0.7-0.8,1.5-1.2,2.2l2.7,1.7C71.8,57.8,72.3,57,72.7,56.2z"/>
	<path class="st0" d="M66.5,17.1l2.5-2c-0.7-0.9-1.4-1.7-2.1-2.6l-2.4,2.2C65.3,15.5,65.9,16.3,66.5,17.1z"/>
	<path class="st0" d="M71.1,51.9l3,1.2c0.4-1,0.8-2.1,1.1-3.1l-3.1-1C71.9,50,71.5,51,71.1,51.9z"/>
	<path class="st0" d="M73,46.1l3.1,0.7c0.2-1.1,0.4-2.2,0.6-3.3l-3.2-0.4C73.4,44.1,73.2,45.1,73,46.1z"/>
	<path class="st0" d="M77,36.8l-3.2,0.1c0,0.5,0,1,0,1.6c0,0.5,0,1,0,1.5l3.2,0.1c0-0.5,0-1.1,0-1.6C77,37.9,77,37.4,77,36.8z"/>
	<path class="st0" d="M22.6,7l-1.5-2.9c-1,0.5-2,1.1-2.9,1.6l1.7,2.7C20.8,8,21.7,7.5,22.6,7z"/>
	<path class="st0" d="M27.8,4.9l-1-3.1c-0.9,0.3-1.7,0.6-2.6,0.9l1.2,3C26.2,5.4,27,5.1,27.8,4.9z"/>
	<path class="st0" d="M6.1,24.5l-2.9-1.3c-0.4,1-0.8,2.1-1.2,3.1l3,1C5.3,26.4,5.7,25.5,6.1,24.5z"/>
	<path class="st0" d="M12.8,14.3l-2.3-2.2c-0.8,0.8-1.5,1.7-2.2,2.5l2.5,2C11.4,15.8,12.1,15.1,12.8,14.3z"/>
	<path class="st0" d="M4.2,30.3L1,29.6c-0.3,1.1-0.5,2.2-0.6,3.3l3.2,0.5C3.7,32.3,3.9,31.3,4.2,30.3z"/>
	<path class="st0" d="M9,19.1l-2.7-1.8c-0.6,0.9-1.2,1.9-1.7,2.9l2.8,1.5C7.9,20.9,8.4,20,9,19.1z"/>
	<path class="st0" d="M3.2,38.5c0-0.7,0-1.4,0.1-2.1l-3.2-0.2C0,37,0,37.7,0,38.5c0,0.4,0,0.7,0,1.1l3.2-0.1
		C3.2,39.1,3.2,38.8,3.2,38.5z"/>
	<path class="st0" d="M4.7,48.5l-3.1,0.9c0.3,1.1,0.7,2.1,1.1,3.2l3-1.2C5.3,50.5,4.9,49.5,4.7,48.5z"/>
	<path class="st0" d="M5.7,58.6l2.7-1.7c-0.5-0.9-1-1.8-1.5-2.7L4,55.7C4.5,56.7,5.1,57.6,5.7,58.6z"/>
	<path class="st0" d="M3.4,42.5l-3.2,0.4c0.1,1.1,0.3,2.2,0.5,3.3l3.1-0.6C3.7,44.6,3.6,43.5,3.4,42.5z"/>
	<path class="st0" d="M17.4,10.2l-1.9-2.6c-0.9,0.7-1.8,1.4-2.6,2.1l2.1,2.4C15.8,11.5,16.6,10.8,17.4,10.2z"/>
	<path class="st0" d="M59,13.8c-0.9-0.7-1.8-1.4-2.7-2l-1.8,2.7c0.8,0.6,1.7,1.2,2.4,1.8L59,13.8z"/>
	<path class="st0" d="M66.9,43.5l3.2,0.6c0.2-1.1,0.3-2.2,0.4-3.4l-3.2-0.2C67.2,41.5,67.1,42.5,66.9,43.5z"/>
	<path class="st0" d="M69.3,47.4l-3.1-0.9c-0.3,1-0.6,1.9-1,2.9l3,1.2C68.7,49.5,69,48.4,69.3,47.4z"/>
	<path class="st0" d="M65.6,28.6c0.3,0.9,0.6,1.9,0.9,2.9l3.1-0.8c-0.3-1.1-0.6-2.2-1-3.2L65.6,28.6z"/>
	<path class="st0" d="M70.3,34l-3.2,0.4c0.1,1,0.2,2,0.3,3l3.2-0.1C70.5,36.2,70.4,35.1,70.3,34z"/>
	<path class="st0" d="M59.2,18.4c0.7,0.7,1.4,1.5,2,2.3l2.5-2c-0.7-0.9-1.4-1.7-2.2-2.5L59.2,18.4z"/>
	<path class="st0" d="M66.8,53.6L64,52.1c-0.5,0.9-1,1.8-1.6,2.6l2.7,1.8C65.7,55.6,66.3,54.6,66.8,53.6z"/>
	<path class="st0" d="M53.4,10.1c-1-0.5-2-1-3.1-1.4l-1.2,3c0.9,0.4,1.9,0.8,2.8,1.3L53.4,10.1z"/>
	<path class="st0" d="M62.9,23.1c0.5,0.9,1,1.7,1.5,2.6l2.9-1.4c-0.5-1-1-2-1.6-2.9L62.9,23.1z"/>
	<path class="st0" d="M6.4,38.5c0,0.6,0,1.1,0,1.7L9.7,40c0-0.5,0-1,0-1.5c0-0.5,0-1,0-1.5l-3.2-0.2C6.4,37.4,6.4,37.9,6.4,38.5z"/>
	<path class="st0" d="M13.6,18.2c-0.7,0.9-1.4,1.8-2,2.7l2.7,1.8c0.6-0.8,1.2-1.7,1.8-2.5L13.6,18.2z"/>
	<path class="st0" d="M12.8,51.7c-0.5-0.9-0.9-1.8-1.2-2.8l-3,1.2c0.4,1,0.9,2.1,1.4,3.1L12.8,51.7z"/>
	<path class="st0" d="M22.9,14.2c0.8-0.5,1.7-1.1,2.6-1.5l-1.4-2.9c-1,0.5-2,1.1-2.9,1.7L22.9,14.2z"/>
	<path class="st0" d="M20.4,16l-2-2.5c-0.9,0.7-1.7,1.5-2.5,2.2l2.3,2.3C18.9,17.3,19.6,16.6,20.4,16z"/>
	<path class="st0" d="M16.1,56.7c-0.6-0.8-1.2-1.6-1.8-2.4L11.6,56c0.6,0.9,1.3,1.9,2,2.7L16.1,56.7z"/>
	<path class="st0" d="M10,43l-3.2,0.5c0.2,1.1,0.4,2.2,0.7,3.3l3.1-0.8C10.4,45,10.1,44,10,43z"/>
	<path class="st0" d="M6.8,33.5L10,34c0.2-1,0.4-2,0.6-3l-3.1-0.8C7.2,31.2,7,32.3,6.8,33.5z"/>
	<path class="st0" d="M12.8,25.3l-2.9-1.5c-0.5,1-1,2-1.4,3.1l3,1.2C11.9,27.2,12.3,26.2,12.8,25.3z"/>
</g>
</svg>
