<?xml version="1.0" encoding="utf-8"?>
<!-- Generator: Adobe Illustrator 24.2.0, SVG Export Plug-In . SVG Version: 6.00 Build 0)  -->
<svg version="1.1" id="_x2014_ÎÓÈ_x5F_1" xmlns="http://www.w3.org/2000/svg" xmlns:xlink="http://www.w3.org/1999/xlink"
	 x="0px" y="0px" width="68.3px" height="77px" viewBox="0 0 68.3 77" style="enable-background:new 0 0 68.3 77;"
	 xml:space="preserve">
<style type="text/css">
	.st0{fill:#FC8A4E;}
</style>
<g>
	<path class="st0" d="M40.6,20.9v-1.6c0-3.5-2.9-6.4-6.4-6.4s-6.4,2.9-6.4,6.4v1.6c0,3.5,2.9,6.4,6.4,6.4S40.6,24.4,40.6,20.9z
		 M37.4,20.9c0,1.8-1.4,3.2-3.2,3.2s-3.2-1.4-3.2-3.2v-1.6c0-1.8,1.4-3.2,3.2-3.2s3.2,1.4,3.2,3.2V20.9z"/>
	<path class="st0" d="M55.7,54l-10.4-6.7v-1.7l4,0.8c0.3,0.1,0.6,0.1,0.9,0.1c1.5,0,3-0.7,3.9-2c0.6-0.8,0.9-1.8,0.9-2.8
		c0-1.1-0.4-2.2-1.1-3.1L45.8,29c-0.9-1.1-2.3-1.7-3.7-1.7h-8h-8c-1.4,0-2.7,0.6-3.7,1.7l-8,9.7c-0.7,0.9-1.1,1.9-1.1,3.1
		c0,1,0.3,1.9,0.9,2.8c0.9,1.3,2.3,2,3.9,2c0.3,0,0.6,0,0.9-0.1l4-0.8v1.7L12.6,54c-1.6,1-2.5,2.7-2.5,4.6c0,3.1,2.5,5.6,5.6,5.6
		h16.8h3.2h16.8c3.1,0,5.6-2.5,5.6-5.6C58.2,56.7,57.3,55,55.7,54z M18.3,43.2c-0.6,0.1-1.2-0.1-1.5-0.6c-0.2-0.3-0.3-0.6-0.3-0.9
		c0-0.5,0.2-0.8,0.4-1l8-9.6c0.2-0.2,0.6-0.6,1.2-0.6h16c0.6,0,1,0.4,1.2,0.6l8,9.7c0.2,0.2,0.4,0.6,0.4,1c0,0.3-0.1,0.6-0.3,0.9
		c-0.3,0.5-0.9,0.7-1.5,0.6L37,40.7c-0.7-0.1-1.3-0.8-1.3-1.6v-5.4h-3.2v5.4c0,0.8-0.5,1.4-1.3,1.6L18.3,43.2z M52.6,61H40.3
		c0.2-0.5,0.3-1,0.3-1.6c0-0.6-0.1-1.1-0.3-1.6H47v-3.2H35.7h-3.2H21.3v3.2h11.2h3.2c0.9,0,1.6,0.7,1.6,1.6c0,0.9-0.7,1.6-1.6,1.6
		h-3.2H15.7c-1.3,0-2.4-1.1-2.4-2.4c0-0.8,0.4-1.4,1-1.9l10.7-7h4.3v-3.2h-3.2v-1.6l5.8-1.2c0.9-0.2,1.6-0.6,2.3-1.1
		c0.6,0.6,1.4,1,2.3,1.1l5.8,1.2v1.6h-9.6v3.2h10.8l10.7,7c0.6,0.4,1,1.1,1,1.9C55,59.9,53.9,61,52.6,61z"/>
	<path class="st0" d="M39.6,68.5c-2.3,0.4-4.2,1.7-5.5,3.5c-1.3-1.8-3.2-3.1-5.5-3.5c-1.4-0.3-2.8-1-3.7-2.1l-2.4,2.1
		c1.4,1.7,3.4,2.8,5.6,3.2c2.6,0.5,4.5,2.7,4.5,5.4h3.2c0-2.6,1.9-4.9,4.5-5.4c2.2-0.4,4.1-1.5,5.6-3.2l-2.4-2.1
		C42.4,67.5,41.1,68.2,39.6,68.5z"/>
	<path class="st0" d="M65.9,49.8c1-3,0.6-6.3-1.2-8.8c-0.7-1-1.6-1.8-2.6-2.5c1-0.7,1.9-1.5,2.6-2.5c1.8-2.6,2.2-5.9,1.2-8.8
		C65,24.7,66,22,68.3,20.6c0,0,0,0,0,0l-1.6-2.8c-2.3,1.3-5.2,0.8-6.9-1.2c-2-2.4-5.1-3.6-8.2-3.4c-1.2,0.1-2.4,0.5-3.4,1
		c-0.1-1.2-0.4-2.4-0.9-3.5c-1.3-2.9-4-4.9-7-5.4c-2.6-0.5-4.5-2.7-4.5-5.4h-3.2c0,2.6-1.9,4.9-4.5,5.4C25,5.9,22.3,8,21,10.8
		c-0.5,1.1-0.8,2.3-0.9,3.5c-1.1-0.5-2.2-0.9-3.4-1c-3.1-0.3-6.2,1-8.2,3.4c-1.7,2-4.6,2.5-6.9,1.2c0,0,0,0,0,0L0,20.6
		c2.3,1.3,3.3,4.1,2.4,6.6c-1,3-0.6,6.3,1.2,8.8c0.7,1,1.6,1.8,2.6,2.5c-1,0.7-1.9,1.5-2.6,2.5c-1.8,2.6-2.2,5.9-1.2,8.8
		C3.3,52.3,2.3,55,0,56.4c0,0,0,0,0,0l1.6,2.8c1.4-0.8,3.2-0.9,4.8-0.3l1.2-3c-0.8-0.3-1.6-0.5-2.4-0.6c0.9-2,1.1-4.3,0.3-6.5
		c-0.7-2-0.4-4.2,0.8-5.9c1-1.4,2.5-2.3,4.1-2.6c0.4-0.1,0.8-0.1,1.1-0.1l0-3.2c-0.4,0-0.8,0-1.1-0.1c-1.7-0.3-3.2-1.3-4.1-2.6
		c-1.2-1.7-1.5-3.9-0.8-5.9c0.8-2.2,0.6-4.5-0.3-6.5c2.2-0.2,4.3-1.2,5.8-3c1.3-1.6,3.4-2.4,5.5-2.3c1.7,0.2,3.2,1,4.4,2.3
		c0.3,0.3,0.5,0.6,0.7,0.9l2.8-1.6c-0.2-0.3-0.4-0.7-0.5-1c-0.6-1.6-0.5-3.4,0.2-4.9c0.9-1.9,2.6-3.3,4.7-3.7
		c2.3-0.4,4.2-1.7,5.5-3.5c1.3,1.8,3.2,3.1,5.5,3.5c2.1,0.4,3.8,1.7,4.7,3.6c0.7,1.6,0.8,3.3,0.2,4.9c-0.1,0.4-0.3,0.7-0.5,1
		l2.8,1.6c0.2-0.3,0.4-0.7,0.7-0.9c1.1-1.3,2.7-2.1,4.3-2.3c2.1-0.2,4.2,0.7,5.5,2.2c1.5,1.8,3.6,2.8,5.8,3c-0.9,2-1.1,4.3-0.3,6.5
		c0.7,2,0.4,4.2-0.8,5.9c-1,1.4-2.5,2.3-4.1,2.6c-0.4,0.1-0.8,0.1-1.1,0.1l0,3.2c0.4,0,0.8,0,1.1,0.1c1.7,0.3,3.2,1.3,4.1,2.6
		c1.2,1.7,1.5,3.9,0.8,5.9c-0.8,2.2-0.6,4.5,0.3,6.5c-0.8,0.1-1.6,0.3-2.4,0.6l1.2,3c1.6-0.6,3.3-0.5,4.8,0.3c0,0,0,0,0,0l1.6-2.8
		C66,55,65,52.3,65.9,49.8z"/>
</g>
</svg>
