<?xml version="1.0" encoding="utf-8"?>
<!-- Generator: Adobe Illustrator 24.3.0, SVG Export Plug-In . SVG Version: 6.00 Build 0)  -->
<svg version="1.0" id="_x2014_ÎÓÈ_x5F_1" xmlns="http://www.w3.org/2000/svg" xmlns:xlink="http://www.w3.org/1999/xlink"
	 x="0px" y="0px" viewBox="0 0 35.638 40" style="enable-background:new 0 0 35.638 40;" xml:space="preserve">
<g>
	<path style="fill:#FFAB40;" d="M19.597,19.252c-0.427,0-0.771,0.344-0.771,0.771c0,0.516-0.458,0.954-1,0.954
		c-0.56,0-1-0.419-1-0.954c0-0.571,0.43-1.001,1-1.001c0.427,0,0.771-0.344,0.771-0.771c0-0.427-0.344-0.771-0.771-0.771
		c-1.425,0-2.542,1.117-2.542,2.543c0,1.4,1.117,2.497,2.542,2.497c1.402,0,2.542-1.12,2.542-2.497
		C20.369,19.596,20.024,19.252,19.597,19.252z"/>
	<path style="fill:#FFAB40;" d="M31.015,19.985c3.788-3.828,5.502-7.572,4.143-9.974c-1.391-2.4-5.503-2.796-10.735-1.429
		C22.996,3.363,20.597,0,17.827,0c-2.755,0-5.163,3.203-6.607,8.573c-0.857-0.227-1.692-0.411-2.495-0.544
		c-4.164-0.687-7.089,0.013-8.229,1.982c-1.409,2.433,0.26,6.152,4.082,9.989c-3.822,3.837-5.491,7.556-4.082,9.991
		c0.878,1.506,2.767,2.262,5.375,2.262c1.553,0,3.362-0.27,5.362-0.808C12.66,36.649,15.057,40,17.827,40
		c2.774,0,5.175-3.363,6.602-8.581c1.972,0.514,3.785,0.779,5.353,0.779c2.592,0,4.514-0.72,5.381-2.216
		C36.514,27.582,34.935,23.901,31.015,19.985z M33.819,10.777c0.91,1.609-0.541,4.725-3.926,8.139
		c-0.528-0.48-1.088-0.963-1.682-1.445c-0.327-0.264-0.817-0.219-1.086,0.113c-0.269,0.332-0.219,0.817,0.113,1.086
		c0.54,0.438,1.052,0.88,1.536,1.32c-0.901,0.824-1.906,1.657-3.015,2.484c0.038-0.802,0.057-1.619,0.057-2.45
		c0-3.641-0.369-7.025-1.021-9.938C29.459,8.863,32.888,9.175,33.819,10.777z M20.225,26.906c0.191,0.383,0.657,0.537,1.035,0.344
		c0.17-0.084,0.343-0.2,0.538-0.338c0.743-0.428,1.464-0.868,2.16-1.315c-0.162,1.387-0.382,2.686-0.648,3.888
		c-2.653-0.834-5.628-2.122-8.73-3.91c-1.087-0.63-2.109-1.273-3.07-1.923c-0.085-1.162-0.132-2.372-0.132-3.629v-0.591
		c0-0.427-0.344-0.771-0.771-0.771c-0.427,0-0.771,0.344-0.771,0.771v0.591c0,0.844,0.02,1.673,0.059,2.487
		C8.762,21.672,7.738,20.83,6.824,20c2.041-1.855,4.641-3.77,7.755-5.573c1.097-0.632,2.177-1.2,3.234-1.71
		c1.081,0.524,2.169,1.102,3.254,1.73c0.152,0.077,0.303,0.149,0.416,0.225c0.352,0.235,0.832,0.141,1.071-0.214
		c0.236-0.355,0.139-0.834-0.214-1.071c-0.16-0.105-0.371-0.214-0.541-0.297c-0.727-0.421-1.456-0.818-2.186-1.195
		c1.283-0.551,2.518-1.009,3.692-1.378c0.6,2.713,0.969,5.93,0.969,9.507c0,1.246-0.047,2.445-0.13,3.598
		c-0.975,0.663-2.013,1.316-3.115,1.952c-0.019,0.011-0.141,0.094-0.158,0.105c-0.091,0.063-0.196,0.139-0.302,0.192
		C20.189,26.061,20.034,26.524,20.225,26.906z M17.827,1.542c1.855,0,3.838,2.814,5.108,7.468c-1.634,0.51-3.356,1.178-5.122,1.998
		c-1.738-0.81-3.458-1.486-5.111-2.007C13.923,4.427,15.845,1.542,17.827,1.542z M1.831,10.784c0.782-1.351,3.21-1.797,6.64-1.231
		c0.766,0.127,1.563,0.303,2.382,0.52c-0.155,0.703-0.295,1.436-0.418,2.199c-0.069,0.422,0.217,0.818,0.638,0.885
		c0.427,0.058,0.817-0.217,0.885-0.638c0.112-0.696,0.24-1.367,0.38-2.012c1.192,0.379,2.422,0.843,3.673,1.384
		c-0.731,0.376-1.466,0.774-2.203,1.199c-3.176,1.839-5.92,3.84-8.108,5.839C2.291,15.511,0.885,12.42,1.831,10.784z M1.831,29.216
		c-0.946-1.636,0.46-4.727,3.869-8.144c1.266,1.156,2.717,2.311,4.331,3.437c0.171,1.939,0.453,3.763,0.827,5.431
		C6.341,31.146,2.821,30.918,1.831,29.216z M17.827,38.458c-1.855,0-3.839-2.807-5.109-7.451c0.673-0.215,1.363-0.457,2.071-0.728
		c0.397-0.153,0.596-0.599,0.444-0.998c-0.153-0.397-0.601-0.593-0.998-0.444c-0.642,0.247-1.272,0.468-1.889,0.666
		c-0.266-1.199-0.486-2.495-0.649-3.879c0.681,0.437,1.384,0.868,2.112,1.289c3.159,1.82,6.278,3.187,9.13,4.076
		C21.671,35.643,19.684,38.458,17.827,38.458z M33.822,29.216c-0.932,1.603-4.359,1.918-9.021,0.698
		c0.373-1.671,0.653-3.496,0.824-5.437c1.586-1.113,3.019-2.264,4.274-3.417C33.199,24.372,34.776,27.523,33.822,29.216z"/>
</g>
</svg>
