<?xml version="1.0" encoding="utf-8"?>
<!-- Generator: Adobe Illustrator 24.3.0, SVG Export Plug-In . SVG Version: 6.00 Build 0)  -->
<svg version="1.0" id="_x2014_ÎÓÈ_x5F_1" xmlns="http://www.w3.org/2000/svg" xmlns:xlink="http://www.w3.org/1999/xlink"
	 x="0px" y="0px" viewBox="0 0 79.999 80" style="enable-background:new 0 0 79.999 80;" xml:space="preserve">
<g>
	<path style="fill:#FFAB40;" d="M79.546,13.266L66.734,0.454c-0.291-0.288-0.682-0.451-1.092-0.451
		c-0.369-0.031-0.814,0.169-1.105,0.463L60.54,4.558c-0.588,0.601-0.585,1.562,0.003,2.163l1.492,1.519L43.803,26.475
		c-11.259-6.808-25.914-5.074-35.305,4.323C3.033,36.213,0.016,43.424,0,51.106c-0.016,7.722,2.999,14.999,8.492,20.493
		c5.6,5.6,12.974,8.401,20.362,8.401c7.387,0,14.79-2.801,20.443-8.408c9.297-9.387,11.103-23.579,4.573-34.917l18.281-18.284
		l1.11,1.134c0.291,0.294,0.686,0.463,1.096,0.463c0.003,0,0.009,0,0.009,0c0.41,0,0.801-0.163,1.092-0.451l4.088-4.088
		C80.15,14.846,80.15,13.87,79.546,13.266z M74.378,16.252l-0.897-0.916c-0.058-0.09-0.126-0.176-0.205-0.254
		c-0.069-0.069-0.144-0.128-0.222-0.181l-1.944-1.985c-0.604-0.614-1.578-0.626-2.185-0.022c-0.61,0.595-0.62,1.574-0.022,2.182
		l1.085,1.109L50.83,35.346c-0.51,0.51-0.598,1.308-0.213,1.919c6.501,10.279,5.055,23.501-3.506,32.147
		c-10.088,10.001-26.434,10.01-36.435,0.003C5.769,64.506,3.074,58.004,3.09,51.112c0.013-6.852,2.708-13.287,7.587-18.127
		c8.664-8.667,22.33-10.032,32.485-3.258c0.61,0.401,1.427,0.322,1.95-0.194l19.089-19.089l1.25,1.273
		c0.598,0.604,1.574,0.614,2.185,0.019c0.607-0.598,0.617-1.574,0.019-2.185l-3.847-3.916l1.847-1.891l10.614,10.614L74.378,16.252z
		"/>
	<path style="fill:#FFAB40;" d="M27.915,48.655c-6.961,1.922-13.547,3.738-19.504,0.507c-0.47-0.257-1.042-0.247-1.506,0.019
		s-0.758,0.755-0.773,1.29c-0.2,6.242,2.216,12.351,6.63,16.768c4.291,4.291,10.001,6.655,16.083,6.655s11.794-2.363,16.07-6.639
		c3.371-3.28,5.6-7.625,6.442-12.568c0.144-0.842-0.419-1.64-1.261-1.781c-0.823-0.138-1.637,0.416-1.781,1.261
		c-0.736,4.291-2.654,8.051-5.569,10.887c-3.709,3.709-8.645,5.75-13.901,5.75c-5.256,0-10.192-2.041-13.898-5.75
		c-3.252-3.252-5.249-7.572-5.659-12.117c6.348,2.304,12.996,0.476,19.45-1.302c6.817-1.881,13.867-3.828,20.681-0.964
		c0.78,0.329,1.694-0.037,2.022-0.826c0.329-0.786-0.041-1.693-0.826-2.022C42.823,44.548,35.242,46.639,27.915,48.655z"/>
	<path style="fill:#FFAB40;" d="M15.037,57.97c0,0.855,0.689,1.543,1.543,1.543c0.855,0,1.543-0.689,1.543-1.543v-0.091
		c0-0.855-0.689-1.499-1.543-1.499C15.726,56.38,15.037,57.116,15.037,57.97z"/>
	<path style="fill:#FFAB40;" d="M24.305,64.875c0,0.855,0.689,1.543,1.543,1.543c0.855,0,1.543-0.689,1.543-1.543v-0.091
		c0-0.855-0.689-1.499-1.543-1.499C24.994,63.285,24.305,64.021,24.305,64.875z"/>
	<path style="fill:#FFAB40;" d="M27.758,57.789c0,0.854,0.689,1.543,1.543,1.543c0.855,0,1.543-0.689,1.543-1.543v-0.091
		c0-0.854-0.689-1.499-1.543-1.499C28.447,56.198,27.758,56.934,27.758,57.789z"/>
	<path style="fill:#FFAB40;" d="M36.66,61.513c0,0.855,0.689,1.543,1.543,1.543c0.855,0,1.543-0.689,1.543-1.543v-0.091
		c0-0.855-0.689-1.499-1.543-1.499C37.349,59.923,36.66,60.659,36.66,61.513z"/>
	<path style="fill:#FFAB40;" d="M40.567,53.882c0,0.854,0.689,1.543,1.543,1.543c0.854,0,1.543-0.689,1.543-1.543v-0.091
		c0-0.855-0.689-1.499-1.543-1.499C41.255,52.292,40.567,53.028,40.567,53.882z"/>
</g>
</svg>
