<?xml version="1.0" encoding="utf-8"?>
<!-- Generator: Adobe Illustrator 24.3.0, SVG Export Plug-In . SVG Version: 6.00 Build 0)  -->
<svg version="1.0" id="_x2014_ÎÓÈ_x5F_1" xmlns="http://www.w3.org/2000/svg" xmlns:xlink="http://www.w3.org/1999/xlink"
	 x="0px" y="0px" viewBox="0 0 71.275 80" style="enable-background:new 0 0 71.275 80;" xml:space="preserve">
<g>
	<path style="fill:#FFAB40;" d="M39.195,38.505c-0.854,0-1.542,0.688-1.542,1.542c0,1.032-0.917,1.908-1.999,1.908
		c-1.12,0-1.999-0.838-1.999-1.908c0-1.142,0.86-2.002,1.999-2.002c0.854,0,1.542-0.688,1.542-1.542
		c0-0.854-0.688-1.542-1.542-1.542c-2.85,0-5.084,2.234-5.084,5.087c0,2.8,2.234,4.993,5.084,4.993c2.803,0,5.084-2.24,5.084-4.993
		C40.737,39.193,40.049,38.505,39.195,38.505z"/>
	<path style="fill:#FFAB40;" d="M62.031,39.97c7.575-7.656,11.003-15.144,8.286-19.948c-2.781-4.799-11.006-5.592-21.47-2.857
		C45.991,6.725,41.194,0,35.654,0c-5.51,0-10.327,6.405-13.215,17.146c-1.714-0.453-3.383-0.821-4.99-1.088
		c-8.328-1.373-14.178,0.025-16.459,3.964C-1.827,24.888,1.511,32.327,9.155,40C1.511,47.673-1.827,55.113,0.991,59.981
		c1.755,3.013,5.534,4.524,10.749,4.524c3.106,0,6.724-0.54,10.724-1.615C25.32,73.297,30.115,80,35.654,80
		c5.548,0,10.35-6.725,13.204-17.163c3.944,1.029,7.57,1.558,10.707,1.558c5.184,0,9.029-1.439,10.762-4.433
		C73.028,55.165,69.87,47.801,62.031,39.97z M67.639,21.555c1.819,3.218-1.081,9.451-7.851,16.277
		c-1.055-0.961-2.175-1.925-3.364-2.89c-0.654-0.529-1.633-0.438-2.171,0.225c-0.538,0.663-0.438,1.633,0.225,2.171
		c1.08,0.877,2.104,1.759,3.073,2.641c-1.801,1.648-3.812,3.314-6.031,4.968c0.075-1.603,0.115-3.238,0.115-4.9
		c0-7.282-0.739-14.051-2.041-19.876C58.919,17.726,65.776,18.349,67.639,21.555z M40.449,53.812
		c0.382,0.766,1.314,1.073,2.071,0.688c0.341-0.169,0.685-0.4,1.076-0.676c1.487-0.857,2.928-1.736,4.32-2.63
		c-0.324,2.774-0.764,5.373-1.296,7.775c-5.306-1.668-11.256-4.243-17.459-7.82c-2.174-1.259-4.218-2.547-6.139-3.846
		c-0.17-2.324-0.265-4.744-0.265-7.257v-1.182c0-0.854-0.688-1.542-1.542-1.542c-0.854,0-1.542,0.688-1.542,1.542v1.182
		c0,1.688,0.04,3.347,0.118,4.974c-2.267-1.677-4.316-3.36-6.143-5.02c4.083-3.711,9.282-7.541,15.51-11.147
		c2.194-1.265,4.354-2.4,6.468-3.42c2.161,1.048,4.339,2.204,6.509,3.46c0.303,0.153,0.607,0.297,0.832,0.451
		c0.704,0.469,1.664,0.282,2.143-0.429c0.472-0.71,0.278-1.667-0.429-2.143c-0.319-0.21-0.741-0.429-1.082-0.594
		c-1.453-0.842-2.913-1.636-4.372-2.39c2.566-1.103,5.037-2.017,7.384-2.756c1.201,5.426,1.938,11.861,1.938,19.014
		c0,2.491-0.093,4.891-0.261,7.196c-1.95,1.325-4.026,2.633-6.231,3.903c-0.038,0.022-0.282,0.188-0.316,0.21
		c-0.181,0.125-0.391,0.279-0.604,0.385C40.377,52.123,40.068,53.049,40.449,53.812z M35.654,3.085
		c3.71,0,7.677,5.628,10.216,14.936c-3.268,1.02-6.711,2.357-10.244,3.997c-3.476-1.62-6.916-2.971-10.223-4.013
		C27.847,8.855,31.689,3.085,35.654,3.085z M3.662,21.567c1.564-2.703,6.419-3.595,13.28-2.462c1.532,0.254,3.126,0.605,4.765,1.04
		c-0.309,1.406-0.59,2.871-0.836,4.397c-0.138,0.845,0.435,1.636,1.276,1.771c0.854,0.116,1.633-0.435,1.771-1.276
		c0.224-1.393,0.48-2.734,0.76-4.024c2.384,0.759,4.844,1.685,7.345,2.768c-1.462,0.752-2.932,1.547-4.407,2.398
		c-6.352,3.679-11.839,7.68-16.217,11.677C4.582,31.021,1.77,24.839,3.662,21.567z M3.662,58.433
		c-1.893-3.272,0.92-9.454,7.738-16.289c2.531,2.311,5.435,4.623,8.662,6.874c0.343,3.878,0.905,7.526,1.654,10.863
		C12.683,62.291,5.643,61.836,3.662,58.433z M35.654,76.915c-3.711,0-7.678-5.615-10.218-14.902
		c1.346-0.431,2.727-0.914,4.142-1.456c0.795-0.306,1.192-1.198,0.888-1.996c-0.307-0.795-1.201-1.186-1.996-0.888
		c-1.284,0.493-2.544,0.935-3.777,1.331c-0.532-2.397-0.973-4.989-1.298-7.758c1.363,0.873,2.768,1.735,4.224,2.579
		c6.317,3.641,12.555,6.375,18.261,8.153C43.342,71.286,39.369,76.915,35.654,76.915z M67.645,58.433
		c-1.864,3.207-8.719,3.836-18.042,1.397c0.747-3.341,1.307-6.992,1.647-10.874c3.172-2.226,6.039-4.527,8.547-6.834
		C66.398,48.744,69.552,55.046,67.645,58.433z"/>
</g>
</svg>
