<?xml version="1.0" encoding="utf-8"?>
<!-- Generator: Adobe Illustrator 23.0.6, SVG Export Plug-In . SVG Version: 6.00 Build 0)  -->
<svg version="1.1" id="icons" xmlns="http://www.w3.org/2000/svg" xmlns:xlink="http://www.w3.org/1999/xlink" x="0px" y="0px"
	 viewBox="0 0 69.6 60" style="enable-background:new 0 0 69.6 60;" xml:space="preserve">
<style type="text/css">
	.st0{fill:#E0F8D8;}
	.st1{fill:#FFFFFF;}
	.st2{fill:#E9EAEB;}
	.st3{fill:#2A5082;}
	.st4{fill:#34BF49;}
</style>
<g>
	<circle class="st0" cx="34.3" cy="25.1" r="25.1"/>
	<polygon class="st1" points="8.1,12 1.5,18.5 8.1,25.1 31,25.1 31,12 	"/>
	<polygon class="st2" points="61.5,18.5 36.5,18.5 36.5,31.6 61.5,31.6 68.1,25.1 	"/>
	<polygon class="st3" points="62,32.7 35.4,32.7 35.4,17.5 41.9,17.5 41.9,19.6 37.5,19.6 37.5,30.5 61.1,30.5 66.5,25.1 61.1,19.6 
		53.9,19.6 53.9,17.5 62,17.5 69.6,25.1 	"/>
	<rect x="44.1" y="17.5" class="st3" width="2.2" height="2.2"/>
	<rect x="48.5" y="17.5" class="st3" width="3.3" height="2.2"/>
	<path class="st1" d="M35.9,4.4c-2.7,0-4.9,2.2-4.9,4.9v49.6h9.8V9.3C40.8,6.6,38.6,4.4,35.9,4.4z"/>
	<path class="st3" d="M41.9,60h-12V25.1h2.2v32.7h7.6V9.3c0-2.1-1.7-3.8-3.8-3.8s-3.8,1.7-3.8,3.8v12.5h-2.2V9.3c0-3.3,2.7-6,6-6
		s6,2.7,6,6V60z"/>
	<rect x="21.2" y="57.8" class="st3" width="29.5" height="2.2"/>
	<rect x="23.4" y="10.9" class="st3" width="7.6" height="2.2"/>
	<rect x="40.8" y="24" class="st3" width="7.6" height="2.2"/>
	<polygon class="st3" points="37.5,26.2 7.6,26.2 0,18.5 7.6,10.9 16.8,10.9 16.8,13.1 8.5,13.1 3.1,18.5 8.5,24 37.5,24 	"/>
	<polygon class="st4" points="15.7,31.6 9.2,38.2 15.7,44.7 35.4,44.7 35.4,31.6 	"/>
	<polygon class="st3" points="36.5,45.8 26.6,45.8 26.6,43.6 34.3,43.6 34.3,32.7 16.2,32.7 10.7,38.2 16.2,43.6 20.1,43.6 
		20.1,45.8 15.3,45.8 7.6,38.2 15.3,30.5 36.5,30.5 	"/>
	<rect x="19" y="10.9" class="st3" width="2.2" height="2.2"/>
	<rect x="22.3" y="43.6" class="st3" width="2.2" height="2.2"/>
	<rect x="50.6" y="24" class="st3" width="2.2" height="2.2"/>
	<rect x="55" y="24" class="st3" width="2.2" height="2.2"/>
</g>
</svg>
