<svg xmlns="http://www.w3.org/2000/svg" width="50.938" height="60.44" viewBox="0 0 50.938 60.44">
  <defs>
    <style>
      .cls-1 {
        fill: #34bf49;
        fill-rule: evenodd;
      }
    </style>
  </defs>
  <path id="service-icon-04" class="cls-1" d="M550.525,1480.34l7.576-22.84H540.32l29.241-36.23-7.576,22.84h17.781Zm-6.48-24.62h16.521l-5.261,15.86,20.736-25.69H559.52l5.262-15.87Zm11.747-22.8-1.324-1.19,4.376-4.88-4.376-4.88,1.325-1.19,5.442,6.07Zm8.152,48.29-5.443-6.07,5.443-6.07,1.324,1.19-4.376,4.88,4.377,4.89Zm-17.713-8.84a25.255,25.255,0,0,1,13.526-46.57v1.78a23.476,23.476,0,0,0-12.57,43.29Zm14,3.8v-1.78a23.479,23.479,0,0,0,12.567-43.3l0.957-1.5A25.259,25.259,0,0,1,560.236,1476.17Z" transform="translate(-534.531 -1420.78)"/>
</svg>
