<svg xmlns="http://www.w3.org/2000/svg" width="51.812" height="60.06" viewBox="0 0 51.812 60.06">
  <defs>
    <style>
      .cls-1 {
        fill: #34bf49;
        fill-rule: evenodd;
      }
    </style>
  </defs>
  <path id="service-icon-02" class="cls-1" d="M956.411,2434a19.908,19.908,0,0,1-16.119-7.97A26.686,26.686,0,0,1,935,2410.07c0-6.34,3.506-14.13,10.434-23.16a101.815,101.815,0,0,1,10.227-11.47c0.01-.01.02-0.03,0.03-0.04l0.01,0.01a2.024,2.024,0,0,1,.428-0.33,0.878,0.878,0,0,1,.986.32h0.007c0.067,0.09.244,0.28,0.513,0.59,1.5,1.7,5.5,6.23,9.886,11.85l-1.387,1.09c-4.318-5.53-8.263-10.01-9.784-11.73-3.455,3.42-19.6,20.09-19.589,32.87,0.01,10.66,6.9,22.06,19.65,22.16,12.745-.1,19.63-11.5,19.63-22.16a20.846,20.846,0,0,0-1.633-7.55l1.638-.65a22.589,22.589,0,0,1,1.756,8.2C977.8,2421.58,970.305,2433.88,956.411,2434Zm-10-11.47a19.776,19.776,0,0,1-4.5-12.47c0-3.9,2.345-9.11,6.977-15.49l1.425,1.04c-4.409,6.07-6.643,10.93-6.641,14.45a18.187,18.187,0,0,0,4.059,11.3ZM974.6,2381.5l-4.785,11.85H982.6l-18.628,18.95,4.785-11.84H955.968L974.6,2381.5m4.95-7.55-6.205,6.32-18.628,18.95-2.95,3h14.378l-3.806,9.42-3.317,8.21,6.2-6.31,18.628-18.95,2.951-3H972.424l3.805-9.43,3.317-8.21h0Z" transform="translate(-935 -2373.94)"/>
</svg>
