<svg xmlns="http://www.w3.org/2000/svg" width="56.93" height="59.59" viewBox="0 0 56.93 59.59">
  <defs>
    <style>
      .cls-1 {
        fill: #34bf49;
        fill-rule: evenodd;
      }
    </style>
  </defs>
  <path id="service-icon-03" class="cls-1" d="M1368.01,2403.72l3.52-11.58h-6.95l13.35-18.04-3.52,11.58h6.95Zm0.02-13.32h5.85l-1.27,4.18,5.3-7.16h-5.85l1.27-4.18Zm-6.07,14.18a0.855,0.855,0,0,1-.67-0.31l-5.79-7.07a0.854,0.854,0,0,1-.17-0.77l5.79-21.88a0.86,0.86,0,0,1,.95-0.64,0.88,0.88,0,0,1,.76.86v28.94a0.862,0.862,0,0,1-.58.82A0.739,0.739,0,0,1,1361.96,2404.58Zm-4.84-8.14,3.97,4.84v-19.82Zm-22.17,24.08a0.874,0.874,0,0,1-.43-1.63l25.02-14.47a0.861,0.861,0,0,1,.99.09,0.893,0.893,0,0,1,.26.97l-3.21,8.55a0.884,0.884,0,0,1-.59.54l-21.81,5.92A0.908,0.908,0,0,1,1334.95,2420.52Zm23.35-13.37-17.13,9.91,14.93-4.06Zm-1.54,6.58h0Zm30.49,7.78a0.821,0.821,0,0,1-.43-0.12l-25.02-14.47a0.865,0.865,0,0,1,.29-1.61l9-1.49a0.837,0.837,0,0,1,.75.24l16.02,15.96A0.87,0.87,0,0,1,1387.25,2421.51Zm-22.48-14.88,17.14,9.91-10.98-10.93Zm-3.53,2.31a3.92,3.92,0,1,1,3.91-3.92A3.918,3.918,0,0,1,1361.24,2408.94Zm0-6.1a2.18,2.18,0,1,0,2.18,2.18A2.177,2.177,0,0,0,1361.24,2402.84Zm1.02,27.87h-1.74v-22.64h1.74v22.64Zm-27.64-26.03h-1.73a28.4,28.4,0,0,1,25.11-28.26l0.2,1.73A26.672,26.672,0,0,0,1334.62,2404.68Zm9.92-12.14-1.41-1.02a22.411,22.411,0,0,1,13.65-8.84l0.35,1.71A20.609,20.609,0,0,0,1344.54,2392.54Zm16.35,40.95a28.336,28.336,0,0,1-22.79-11.47l1.4-1.04a26.612,26.612,0,0,0,34.73,7.18l0.87,1.51A28.343,28.343,0,0,1,1360.89,2433.49Zm-2.3-6.12a22.363,22.363,0,0,1-14.46-7.43l1.3-1.15a20.644,20.644,0,0,0,13.34,6.84Zm28.89-10.89-1.6-.69a26.67,26.67,0,0,0-3.66-27.29l1.35-1.09A28.411,28.411,0,0,1,1387.48,2416.48Zm-4.81-4.2-1.65-.55a20.661,20.661,0,0,0-.75-14.99l1.59-.71A22.426,22.426,0,0,1,1382.67,2412.28Z" transform="translate(-1332.88 -2373.91)"/>
</svg>
