<svg xmlns="http://www.w3.org/2000/svg" width="59.969" height="60.12" viewBox="0 0 59.969 60.12">
  <defs>
    <style>
      .cls-1 {
        fill: #34bf49;
        fill-rule: evenodd;
      }
    </style>
  </defs>
  <path id="service-icon-05" class="cls-1" d="M950.553,1442.54a10.381,10.381,0,0,1-5.882-1.84,10.716,10.716,0,0,1-4.492-6.98,1.767,1.767,0,0,1-.02-0.43H940.14c-0.428-5.52,3.508-11.03,8.594-12.02,13.662-2.67,22.152,8.39,22.237,8.5l-1.029,1.43c-2.961-1.04-5.547,1.67-8.538,4.82-2.638,2.77-5.365,5.64-8.844,6.33A10.5,10.5,0,0,1,950.553,1442.54Zm-8.568-9.09a8.88,8.88,0,0,0,3.717,5.73,8.511,8.511,0,0,0,6.507,1.36c2.91-.57,5.434-3.23,7.876-5.79s4.946-5.21,7.856-5.58c-2.885-2.81-9.585-7.91-18.859-6.09-3.5.68-6.338,3.97-7,7.72,5.266-4.55,13.53-5.83,18.028-3.75l-0.765,1.68C955.063,1426.74,946.468,1428.42,941.985,1433.45Zm35.708,12.61a7.311,7.311,0,0,1-1.743-.21,7.158,7.158,0,0,1-4.4-3.39,7.394,7.394,0,0,1-.721-5.66,1.2,1.2,0,0,1,.118-0.29l-0.009-.01c1.361-3.54,5.415-5.76,8.858-4.85,9.029,2.38,11.112,11.82,11.2,12.22l-1.538.84c-1.368-1.36-3.681-.64-6.359.21A18.759,18.759,0,0,1,977.693,1446.06Zm-5.116-8.72a5.55,5.55,0,0,0,.555,4.2,5.308,5.308,0,0,0,3.278,2.52c1.784,0.47,4-.23,6.139-0.9,2.063-.65,4.173-1.31,5.991-0.94-1.086-2.71-3.7-7.34-9.208-8.79-2.5-.66-5.583,1.03-6.649,3.63l0.016,0.01a2.8,2.8,0,0,1-.117.26S972.578,1437.33,972.577,1437.34Zm0.018-.07c0,0.01,0,.02-0.007.03C972.59,1437.29,972.592,1437.28,972.6,1437.27Zm-36.006,3.68-1.678-.72a24.9,24.9,0,0,1,2.917-5.07,24.308,24.308,0,0,1,6.165-5.84l1,1.54a22.271,22.271,0,0,0-5.7,5.41A22.832,22.832,0,0,0,936.589,1440.95Zm51.993,2.89c-6.9-7.66-18.022-9.35-23.687-6.07l-0.91-1.6c7.81-4.51,19.943-.23,25.949,6.43Zm2.318,37.15H931.04V1440h9.339v17.19l9.2,7.61v-9.27l11.2,9.27v-9.27l11.2,9.27v-9.27l18.915,15.66v9.8Zm-58.033-1.84h56.205v-7.09l-15.26-12.63v9.27l-11.2-9.27v9.27l-11.2-9.27v9.27l-12.86-10.64v-16.22h-5.684v37.31Z" transform="translate(-931.031 -1420.88)"/>
</svg>
