<svg xmlns="http://www.w3.org/2000/svg" width="61.06" height="60" viewBox="0 0 61.06 60">
  <defs>
    <style>
      .cls-1 {
        fill: #34bf49;
        fill-rule: evenodd;
      }
    </style>
  </defs>
  <path id="service-icon-06" class="cls-1" d="M1334.75,1454.45l-3.98-3.98,29.5-29.47,23.32,23.3-1.23,1.23-22.09-22.06-27.03,27,1.51,1.51,25.52-25.49,18.49,18.47-1.24,1.23-17.25-17.23Zm3.5,26.16h-1.74v-29.87h1.74v29.87Zm4.55-46.18a9.753,9.753,0,0,1-9.71-10.86l0.08-.69,0.69-.08a10.516,10.516,0,0,1,1.77-.04,9.9,9.9,0,0,1,2.4.47,9.8,9.8,0,0,1,6.65,10.38l-0.08.69-0.7.07A10.275,10.275,0,0,1,1342.8,1434.43Zm-8.03-9.94a8,8,0,1,0,2.72.4,8.47,8.47,0,0,0-1.98-.39C1335.27,1424.49,1335.02,1424.48,1334.77,1424.49Zm19.11,56.51h-1.74v-19.7h-9.13V1481h-1.75v-21.44h12.62V1481Zm10.24-.62a28.675,28.675,0,0,1-6.61-.77l-0.53-.12-0.12-.53a28.52,28.52,0,0,1,34.31-34.28,0.873,0.873,0,0,1-.4,1.7,26.775,26.775,0,0,0-32.33,31.65,26.774,26.774,0,0,0,30.84-17.18,0.876,0.876,0,0,1,1.65.59A28.556,28.556,0,0,1,1364.12,1480.38Zm23.83-18.73a0.947,0.947,0,0,1-.28-0.04,0.873,0.873,0,0,1-.55-1.1,22.76,22.76,0,0,0,.54-12.32,0.873,0.873,0,0,1,1.7-.4,24.555,24.555,0,0,1-.58,13.26A0.876,0.876,0,0,1,1387.95,1461.65Zm-30.29,18.03a0.9,0.9,0,0,1-.62-0.25,0.881,0.881,0,0,1,0-1.24l32.98-32.94a0.873,0.873,0,0,1,1.24,1.23l-32.98,32.95A0.861,0.861,0,0,1,1357.66,1479.68Zm32.44-17.69h-14.69a0.87,0.87,0,1,1,0-1.74h14.69A0.87,0.87,0,0,1,1390.1,1461.99Zm-20.06,5.2a0.875,0.875,0,0,1-.88-0.88v-17.05a0.875,0.875,0,1,1,1.75,0v17.05A0.873,0.873,0,0,1,1370.04,1467.19Zm14.12,4.26h-17.95a0.87,0.87,0,1,1,0-1.74h17.95A0.87,0.87,0,0,1,1384.16,1471.45Z" transform="translate(-1330.78 -1421)"/>
</svg>
