<svg xmlns="http://www.w3.org/2000/svg" width="60.25" height="60.25" viewBox="0 0 60.25 60.25">
  <defs>
    <style>
      .cls-1 {
        fill: #34bf49;
        fill-rule: evenodd;
      }
    </style>
  </defs>
  <path id="service-icon-01" class="cls-1" d="M565.179,2433.97h-9.486l-0.709-3.31a28.218,28.218,0,0,1-3.189-.8l-2.356,2.6-8.214-4.74,1.055-3.26a26.941,26.941,0,0,1-2.279-2.28l-3.438,1.11-4.744-8.21,2.75-2.49a26.023,26.023,0,0,1-.726-2.86l-3.848-.82,0-9.49,4.058-.87c0.195-.82.429-1.64,0.7-2.44l-3.254-2.94,4.742-8.22,4.421,1.43c0.475-.5.979-0.98,1.507-1.45l-1.5-4.64,8.215-4.74,3.376,3.73c0.568-.16,1.135-0.31,1.7-0.44l1.1-5.12h9.486l1.1,5.12c0.515,0.12,1.029.25,1.537,0.39l3.619-4,8.215,4.74-1.6,4.95c0.4,0.36.8,0.73,1.185,1.12l5.075-1.64,4.743,8.22-3.644,3.29c0.209,0.6.4,1.21,0.563,1.82l4.9,1.05v9.49l-4.381.94c-0.132.75-.3,1.51-0.5,2.26l3.379,3.06-4.745,8.21-3.817-1.23c-0.585.7-1.209,1.38-1.862,2.02l1.249,3.87-8.215,4.75-2.415-2.68a26,26,0,0,1-2.981.9Zm-7.974-1.87h6.462l0.707-3.29,0.591-.13a24.151,24.151,0,0,0,3.885-1.18l0.6-.24,2.266,2.51,5.6-3.23-1.147-3.55,0.433-.41a24.724,24.724,0,0,0,2.513-2.74l0.4-.51,3.608,1.17,3.233-5.6-3.121-2.82,0.164-.56a24.61,24.61,0,0,0,.709-3.23l0.1-.64,4.161-.89v-6.46l-4.563-.98-0.14-.57a24.379,24.379,0,0,0-.863-2.78l-0.225-.6,3.462-3.13-3.23-5.59-4.753,1.53-0.4-.43a25.421,25.421,0,0,0-1.925-1.82l-0.475-.41,1.513-4.68-5.6-3.24-3.4,3.77-0.572-.18c-0.827-.26-1.676-0.47-2.524-0.65l-0.6-.12-1.035-4.83h-6.463l-1.035,4.83-0.6.12c-0.877.18-1.776,0.42-2.674,0.7l-0.575.19-3.168-3.51-5.6,3.23,1.414,4.38-0.474.41a24.246,24.246,0,0,0-2.227,2.14l-0.4.45-4.119-1.33-3.23,5.59,3.063,2.77-0.218.6a24.369,24.369,0,0,0-.97,3.37l-0.125.6-3.761.8v6.47l3.6,0.77,0.107,0.62a24.167,24.167,0,0,0,.959,3.78l0.2,0.59-2.537,2.29,3.232,5.6,3.186-1.03,0.4,0.48a24.339,24.339,0,0,0,2.945,2.94l0.48,0.41-0.973,3.01,5.6,3.23,2.164-2.4,0.584,0.2a24.359,24.359,0,0,0,4.1,1.03l0.634,0.1Zm2.9-10.43a17.381,17.381,0,0,1-3.063-.27l0.321-1.84a15.209,15.209,0,0,0,3.1.23,15.951,15.951,0,0,0,6.51-30.35l0.805-1.69a17.822,17.822,0,0,1-7.275,33.91C560.371,2421.66,560.24,2421.67,560.109,2421.67Zm-7.909-1.86a17.821,17.821,0,0,1,7.535-33.78,16.988,16.988,0,0,1,3.49.27l-0.324,1.84a16.327,16.327,0,0,0-3.125-.24,15.953,15.953,0,0,0-6.743,30.24Zm10.82-27.12-2.613,8.58h6.982L557.216,2415l2.613-8.58h-6.982l10.173-13.73m4.944-9.81-6.446,8.7-10.173,13.73-2.212,2.98H557.3l-1.877,6.17-3.155,10.35,6.447-8.7,10.173-13.72,2.211-2.99h-8.171l1.878-6.16,3.154-10.36h0Z" transform="translate(-530 -2373.72)"/>
</svg>
