<svg xmlns="http://www.w3.org/2000/svg" width="50" height="43" viewBox="0 0 50 43"><defs><style>
      .cls-1 {
        fill: #07d2b7;
        fill-rule: evenodd;
      }
    </style></defs><path id="mission-icon-01" class="cls-1" d="M421.21,1565.84a12.8,12.8,0,0,0-17.943-.31h0c-0.107.1-.214,0.21-0.319,0.32-0.009,0-.011.02-0.019,0.02l-12.647,12.81a3.425,3.425,0,0,0-.723,3.69,3.331,3.331,0,0,0,3.079,2.08c0.042,0,.083-0.01.124-0.01L405,1596.84h0l0,0.01a1.694,1.694,0,0,1,0,2.38,1.649,1.649,0,0,1-2.356,0l-14.728-14.92a0.808,0.808,0,0,0-.805-0.22,0.819,0.819,0,0,0-.589.59,0.852,0.852,0,0,0,.216.82l14.728,14.93a1.7,1.7,0,0,1,0,2.38,1.656,1.656,0,0,1-2.354.01l-19.146-19.41h0c-0.092-.09-0.183-0.19-0.27-0.28a11.515,11.515,0,0,1,.409-15.98,11.138,11.138,0,0,1,15.767.14,0.825,0.825,0,0,0,1.178,0,0.86,0.86,0,0,0,0-1.2,12.787,12.787,0,0,0-18.1-.16,13.215,13.215,0,0,0-.479,18.34c0.009,0.01.012,0.03,0.022,0.04l19.441,19.7a3.275,3.275,0,0,0,3.732.69,3.362,3.362,0,0,0,1.934-3.31,1.735,1.735,0,0,0,.225.03,3.319,3.319,0,0,0,2.433-1.07,3.4,3.4,0,0,0,.876-2.54,1.724,1.724,0,0,0,.226.02,3.272,3.272,0,0,0,2.433-1.06,3.4,3.4,0,0,0,.876-2.54c0.076,0,.15.02,0.226,0.02a3.332,3.332,0,0,0,3.271-2.75l7.052-7.15,0.23-.24s0.006-.01.01-0.01c0.02-.02.042-0.05,0.063-0.07A13.222,13.222,0,0,0,421.21,1565.84Zm-12.673,29.81a1.65,1.65,0,0,1-2.357,0h0l-11.645-11.81a3.21,3.21,0,0,0,.461-0.38l1.939-1.96,11.6,11.75a0.07,0.07,0,0,1,.008.01A1.707,1.707,0,0,1,408.537,1595.65Zm3.542-3.58a1.648,1.648,0,0,1-2.355,0h0l-11.608-11.77,2.355-2.38,11.6,11.76h0A1.707,1.707,0,0,1,412.079,1592.07Zm8.223-9.19c-0.022.02-.047,0.05-0.07,0.07l-6.355,6.45a3.522,3.522,0,0,0-.621-0.91h0l-11.608-11.77,1.583-1.6a9.173,9.173,0,0,0,5.664,2.73,8.037,8.037,0,0,0,6.133-2.75,0.848,0.848,0,0,0,0-1.19,0.823,0.823,0,0,0-1.177,0,6.4,6.4,0,0,1-4.862,2.25c-2.909-.14-5.076-2.76-5.1-2.79a0.88,0.88,0,0,0-.6-0.31,0.834,0.834,0,0,0-.631.25l-2.773,2.81h0l0,0.01-3.526,3.57h0l0,0.01-2.526,2.56a1.656,1.656,0,0,1-2.354-.01,1.7,1.7,0,0,1,0-2.38l12.95-13.12a11.14,11.14,0,0,1,15.624.28A11.515,11.515,0,0,1,420.3,1582.88Z" transform="translate(-375 -1562)"></path></svg>