<svg width="90" height="90" viewBox="0 0 90 90" fill="none" xmlns="http://www.w3.org/2000/svg">
<path d="M32.0787 36.3311C31.6742 36.3311 31.3433 36.0001 31.3433 35.5957V23.6235C31.3433 23.219 31.6742 22.8881 32.0787 22.8881H38.0611C38.4655 22.8881 38.7964 23.219 38.7964 23.6235V29.8743C38.7964 30.2788 38.4655 30.6097 38.0611 30.6097C37.6566 30.6097 37.3257 30.2788 37.3257 29.8743V24.3589H32.814V35.5957C32.814 36.0001 32.4868 36.3311 32.0787 36.3311Z" fill="#FDA17F"/>
<path d="M68.2672 44.3652H62.6746C62.2701 44.3652 61.9392 44.0343 61.9392 43.6298C61.9392 43.2253 62.2701 42.8944 62.6746 42.8944H66.4949L46.371 22.7741L26.2507 42.8944H30.0711C30.4755 42.8944 30.8065 43.2253 30.8065 43.6298C30.8065 44.0343 30.4755 44.3652 30.0711 44.3652H24.4748C24.1769 44.3652 23.9085 44.185 23.7945 43.9129C23.6805 43.6371 23.743 43.3209 23.9526 43.1113L45.8489 21.2151C46.1357 20.9283 46.6026 20.9283 46.8894 21.2151L68.7857 43.1113C68.9953 43.3209 69.0578 43.6371 68.9438 43.9129C68.8335 44.185 68.5651 44.3652 68.2672 44.3652Z" fill="#FDA17F"/>
<path d="M57.4349 39.4712C57.2474 39.4712 57.0598 39.3976 56.9164 39.2542L47.7866 30.128C47.4998 29.8412 47.4998 29.3742 47.7866 29.0874C48.0734 28.8006 48.5403 28.8006 48.8272 29.0874L57.9533 38.2136C58.2401 38.5004 58.2401 38.9674 57.9533 39.2542C57.8099 39.3976 57.6224 39.4712 57.4349 39.4712Z" fill="#FDA17F"/>
<path d="M62.6709 68.8353H30.0674C29.6629 68.8353 29.332 68.5044 29.332 68.0999V43.6298C29.332 43.2253 29.6629 42.8944 30.0674 42.8944C30.4718 42.8944 30.8028 43.2253 30.8028 43.6298V67.3645H61.9355V43.6298C61.9355 43.2253 62.2664 42.8944 62.6709 42.8944C63.0753 42.8944 63.4063 43.2253 63.4063 43.6298V68.0999C63.4063 68.508 63.079 68.8353 62.6709 68.8353Z" fill="#FDA17F"/>
<path d="M38.1566 51.0683C36.4248 51.0683 35.0128 49.66 35.0128 47.9245C35.0128 46.1926 36.4211 44.7807 38.1566 44.7807C39.8885 44.7807 41.3004 46.1889 41.3004 47.9245C41.3004 49.6563 39.8921 51.0683 38.1566 51.0683ZM38.1566 46.2515C37.2337 46.2515 36.4836 47.0015 36.4836 47.9245C36.4836 48.8474 37.2337 49.5975 38.1566 49.5975C39.0795 49.5975 39.8296 48.8474 39.8296 47.9245C39.8296 47.0015 39.0795 46.2515 38.1566 46.2515Z" fill="#FDA17F"/>
<path d="M48.6764 52.8222C46.9445 52.8222 45.5326 51.4139 45.5326 49.6784C45.5326 47.9465 46.9409 46.5346 48.6764 46.5346C50.4082 46.5346 51.8202 47.9465 51.8202 49.6784C51.8202 51.4102 50.4082 52.8222 48.6764 52.8222ZM48.6764 48.0054C47.7535 48.0054 47.0034 48.7555 47.0034 49.6784C47.0034 50.6013 47.7535 51.3514 48.6764 51.3514C49.5993 51.3514 50.3494 50.6013 50.3494 49.6784C50.3494 48.7555 49.5993 48.0054 48.6764 48.0054Z" fill="#FDA17F"/>
<path d="M56.3613 59.4113C55.5008 59.4113 54.6404 59.0583 54.019 58.3707C53.4565 57.7456 53.1733 56.9404 53.2211 56.102C53.2653 55.2637 53.6366 54.4915 54.2617 53.9326C54.8868 53.37 55.6921 53.0869 56.5304 53.1347C57.3687 53.1788 58.1409 53.5502 58.6998 54.1753C59.858 55.4659 59.7514 57.4551 58.4608 58.6134C57.8615 59.1465 57.1114 59.4113 56.3613 59.4113ZM56.3576 54.5981C55.9458 54.5981 55.5523 54.7489 55.2435 55.0247C54.9125 55.3225 54.714 55.7343 54.6919 56.1792C54.6662 56.6241 54.8206 57.0543 55.1184 57.3853C55.4163 57.7162 55.8281 57.9147 56.273 57.9368C56.7142 57.9589 57.1481 57.8081 57.479 57.5103C58.1666 56.8926 58.2218 55.8336 57.6077 55.1497C57.3099 54.8188 56.8981 54.6202 56.4532 54.5981C56.4201 54.5981 56.3907 54.5981 56.3576 54.5981Z" fill="#FDA17F"/>
<path d="M35.3806 48.6599H21.7354C21.3309 48.6599 21 48.3289 21 47.9245C21 47.52 21.3309 47.1891 21.7354 47.1891H35.3806C35.785 47.1891 36.1159 47.52 36.1159 47.9245C36.1159 48.3289 35.7887 48.6599 35.3806 48.6599Z" fill="#FDA17F"/>
<path d="M50.5774 62.7058H21.7354C21.3309 62.7058 21 62.3749 21 61.9704C21 61.566 21.3309 61.235 21.7354 61.235H50.2796L53.7359 57.8927C54.0264 57.6096 54.4933 57.6169 54.7765 57.9111C55.0596 58.2016 55.0522 58.6685 54.7581 58.9517L51.0885 62.4999C50.9524 62.6323 50.7686 62.7058 50.5774 62.7058Z" fill="#FDA17F"/>
<path d="M43.628 55.9586H21.7354C21.3309 55.9586 21 55.6277 21 55.2232C21 54.8187 21.3309 54.4878 21.7354 54.4878H43.3301L46.7865 51.1455C47.0769 50.8623 47.5439 50.8697 47.827 51.1639C48.1102 51.4543 48.1028 51.9213 47.8086 52.2044L44.139 55.7527C43.9993 55.8851 43.8155 55.9586 43.628 55.9586Z" fill="#FDA17F"/>
</svg>
