<svg width="90" height="90" viewBox="0 0 90 90" fill="none" xmlns="http://www.w3.org/2000/svg">
<path d="M44.8542 66.2338H31.5906C28.2867 66.2338 25.2792 65.0146 23.3332 62.8869C21.5832 60.9695 20.7895 58.4545 21.0477 55.6048C21.0525 55.5761 21.0525 55.5474 21.0621 55.514L25.174 33.3762C26.5415 26.4863 30.0845 23.0006 35.6978 23.0006H42.2196C42.7456 23.0006 43.1759 23.431 43.1759 23.9569C43.1759 24.4829 42.7456 24.9132 42.2196 24.9132H35.6978C30.993 24.9132 28.2437 27.7151 27.0436 33.7348L22.9459 55.8152C22.7499 58.0959 23.3715 60.0945 24.7437 61.5959C26.3263 63.3267 28.8222 64.3213 31.5906 64.3213H44.8542C45.3801 64.3213 45.8104 64.7516 45.8104 65.2775C45.8104 65.8035 45.3849 66.2338 44.8542 66.2338Z" fill="#FDA17F"/>
<path d="M58.4046 66.2341H45.141C44.6151 66.2341 44.1848 65.8038 44.1848 65.2779C44.1848 64.7519 44.6151 64.3216 45.141 64.3216H58.4046C61.173 64.3216 63.6641 63.327 65.2515 61.5962C66.6237 60.0996 67.2405 58.101 67.0493 55.8155L62.9469 33.7208C61.7515 27.7154 59.0022 24.9135 54.2974 24.9135H47.4887C46.9627 24.9135 46.5324 24.4832 46.5324 23.9572C46.5324 23.4313 46.9627 23.0009 47.4887 23.0009H54.2974C59.9155 23.0009 63.4537 26.4866 64.8259 33.3622L68.9379 55.5143C68.9427 55.543 68.9475 55.5717 68.9523 55.6051C69.2105 58.4548 68.4168 60.9746 66.6668 62.8872C64.716 65.0149 61.7085 66.2341 58.4046 66.2341Z" fill="#FDA17F"/>
<path d="M63.884 36.8526H26.1112C25.5852 36.8526 25.1549 36.4222 25.1549 35.8963C25.1549 35.3703 25.5852 34.94 26.1112 34.94H63.8888C64.4148 34.94 64.8451 35.3703 64.8451 35.8963C64.8403 36.427 64.4148 36.8526 63.884 36.8526Z" fill="#FDA17F"/>
<path d="M66.5329 51.8517H23.1085C22.5825 51.8517 22.1522 51.4214 22.1522 50.8955C22.1522 50.3695 22.5825 49.9392 23.1085 49.9392H66.5377C67.0637 49.9392 67.494 50.3695 67.494 50.8955C67.494 51.4214 67.0637 51.8517 66.5329 51.8517Z" fill="#FDA17F"/>
<path d="M34.4308 66.2341C34.3926 66.2341 34.3543 66.2341 34.316 66.2293C33.7901 66.1671 33.4172 65.689 33.4841 65.1631L38.5141 23.8424C38.5763 23.3165 39.0544 22.9483 39.5803 23.0105C40.1063 23.0726 40.4792 23.5508 40.4123 24.0767L35.3823 65.3926C35.3201 65.8803 34.9089 66.2341 34.4308 66.2341Z" fill="#FDA17F"/>
<path d="M54.9763 66.2341C54.4934 66.2341 54.0774 65.8707 54.0248 65.3782L49.5829 24.0576C49.5255 23.5316 49.908 23.063 50.4292 23.0057C50.9552 22.9483 51.4237 23.3308 51.4811 23.852L55.923 65.1726C55.9804 65.6986 55.5979 66.1671 55.0767 66.2245C55.048 66.2341 55.0098 66.2341 54.9763 66.2341Z" fill="#FDA17F"/>
</svg>
