<svg width="90" height="90" viewBox="0 0 90 90" fill="none" xmlns="http://www.w3.org/2000/svg">
<path d="M45.002 69C44.5586 69 44.1957 68.6372 44.1957 68.1938V21.8062C44.1957 21.3628 44.5586 21 45.002 21C45.4454 21 45.8082 21.3628 45.8082 21.8062V68.1938C45.8082 68.6412 45.4454 69 45.002 69Z" fill="#FDA17F"/>
<path d="M68.1938 45.8083H21.8062C21.3628 45.8083 21 45.4455 21 45.002C21 44.5586 21.3628 44.1958 21.8062 44.1958H68.1938C68.6372 44.1958 69 44.5586 69 45.002C69 45.4455 68.6412 45.8083 68.1938 45.8083Z" fill="#FDA17F"/>
<path d="M61.3769 62.2316C61.1713 62.2316 60.9617 62.1509 60.8045 61.9937L28.0547 29.1431C27.7402 28.8287 27.7402 28.3167 28.0547 28.0023C28.3691 27.6878 28.8811 27.6878 29.1955 28.0023L61.9453 60.8569C62.2598 61.1713 62.2598 61.6833 61.9453 61.9977C61.7881 62.155 61.5825 62.2316 61.3769 62.2316Z" fill="#FDA17F"/>
<path d="M27.7483 61.3084C27.5266 61.3084 27.3089 61.2197 27.1477 61.0423C26.8494 60.7118 26.8776 60.1998 27.2082 59.9055L61.7116 28.8972C62.0421 28.5989 62.5541 28.6271 62.8484 28.9577C63.1467 29.2882 63.1185 29.8002 62.7879 30.0945L28.2885 61.1028C28.1353 61.2439 27.9418 61.3084 27.7483 61.3084Z" fill="#FDA17F"/>
<path d="M44.9295 29.8042C44.7239 29.8042 44.5183 29.7236 44.3611 29.5664L39.9912 25.2006C39.6768 24.8861 39.6768 24.3741 39.9912 24.0597C40.3056 23.7453 40.8176 23.7453 41.132 24.0597L44.9335 27.8612L48.735 24.0597C49.0494 23.7453 49.5614 23.7453 49.8758 24.0597C50.1902 24.3741 50.1902 24.8861 49.8758 25.2006L45.5019 29.5704C45.3447 29.7276 45.1391 29.8042 44.9295 29.8042Z" fill="#FDA17F"/>
<path d="M49.3719 66.1096C49.1663 66.1096 48.9607 66.029 48.8035 65.8717L45.002 62.0703L41.2006 65.8717C40.8861 66.1862 40.3742 66.1862 40.0597 65.8717C39.7453 65.5573 39.7453 65.0453 40.0597 64.7309L44.4296 60.361C44.744 60.0466 45.256 60.0466 45.5705 60.361L49.9403 64.7309C50.2548 65.0453 50.2548 65.5573 49.9403 65.8717C49.7831 66.029 49.5775 66.1096 49.3719 66.1096Z" fill="#FDA17F"/>
<path d="M65.38 50.1096C65.1744 50.1096 64.9688 50.029 64.8116 49.8718L60.4417 45.5019C60.2885 45.3487 60.2039 45.1472 60.2039 44.9335C60.2039 44.7198 60.2885 44.5142 60.4417 44.3651L64.8116 39.9952C65.126 39.6808 65.638 39.6808 65.9524 39.9952C66.2668 40.3097 66.2668 40.8216 65.9524 41.1361L62.1509 44.9375L65.9524 48.739C66.2668 49.0534 66.2668 49.5654 65.9524 49.8798C65.7952 50.029 65.5896 50.1096 65.38 50.1096Z" fill="#FDA17F"/>
<path d="M24.7088 50.1781C24.5032 50.1781 24.2976 50.0975 24.1404 49.9403C23.8259 49.6259 23.8259 49.1139 24.1404 48.7994L27.9418 44.998L24.1404 41.1965C23.8259 40.8821 23.8259 40.3701 24.1404 40.0557C24.4548 39.7412 24.9668 39.7412 25.2812 40.0557L29.6511 44.4255C29.9655 44.74 29.9655 45.252 29.6511 45.5664L25.2812 49.9403C25.12 50.0975 24.9144 50.1781 24.7088 50.1781Z" fill="#FDA17F"/>
<path d="M56.2452 63.1386C55.8017 63.1386 55.4389 62.7758 55.4389 62.3323V56.1524C55.4389 55.709 55.8017 55.3462 56.2452 55.3462H62.425C62.8685 55.3462 63.2313 55.709 63.2313 56.1524C63.2313 56.5959 62.8685 56.9587 62.425 56.9587H57.0514V62.3323C57.0514 62.7798 56.6886 63.1386 56.2452 63.1386Z" fill="#FDA17F"/>
<path d="M33.6178 34.4281H27.4379C26.9945 34.4281 26.6317 34.0653 26.6317 33.6218C26.6317 33.1784 26.9945 32.8156 27.4379 32.8156H32.8115V27.4419C32.8115 26.9985 33.1744 26.6357 33.6178 26.6357C34.0612 26.6357 34.424 26.9985 34.424 27.4419V33.6218C34.424 34.0653 34.0653 34.4281 33.6178 34.4281Z" fill="#FDA17F"/>
<path d="M32.5979 62.4331C32.5817 62.4331 32.5656 62.4331 32.5495 62.4331C32.1061 62.4049 31.7674 62.0259 31.7916 61.5785L32.1101 56.2129L26.7445 55.8944C26.3011 55.8662 25.9624 55.4873 25.9866 55.0398C26.0149 54.5964 26.3898 54.2537 26.8413 54.2819L33.0131 54.6488C33.4565 54.677 33.7951 55.0559 33.771 55.5034L33.4041 61.6752C33.3799 62.1025 33.0211 62.4331 32.5979 62.4331Z" fill="#FDA17F"/>
<path d="M63.066 35.4883C63.0499 35.4883 63.0338 35.4883 63.0177 35.4883L56.8458 35.1214C56.4024 35.0932 56.0638 34.7143 56.088 34.2668L56.4548 28.095C56.479 27.6515 56.8579 27.3089 57.3094 27.3371C57.7529 27.3653 58.0915 27.7443 58.0673 28.1917L57.7488 33.5573L63.1144 33.8758C63.5578 33.904 63.8965 34.2829 63.8723 34.7304C63.8441 35.1577 63.4893 35.4883 63.066 35.4883Z" fill="#FDA17F"/>
</svg>
