<svg xmlns="http://www.w3.org/2000/svg" width="90" height="90" viewBox="0 0 90 90" fill="none"><path d="M44.6793 55.8073C41.564 55.8073 38.5187 54.7327 36.0965 52.7795C32.8587 50.1682 31 46.2864 31 42.128C31 34.5848 37.1361 28.4487 44.6793 28.4487C52.2225 28.4487 58.3586 34.5848 58.3586 42.128C58.3586 46.2899 56.4964 50.1787 53.2481 52.79C50.8294 54.7362 47.7876 55.8073 44.6793 55.8073ZM44.6793 29.8488C37.9096 29.8488 32.4001 35.3583 32.4001 42.128C32.4001 45.8593 34.0663 49.3457 36.9751 51.6909C39.1768 53.469 41.8405 54.4071 44.6793 54.4071C47.511 54.4071 50.1713 53.4725 52.3695 51.7014C55.2853 49.3562 56.9584 45.8663 56.9584 42.128C56.9584 35.3583 51.4489 29.8488 44.6793 29.8488Z" fill="#FDA17F"></path><path d="M52.499 39.0722C52.219 39.0722 51.953 38.9007 51.8445 38.6241C51.0779 36.636 49.4817 35.0993 47.4656 34.4098C47.1015 34.2837 46.9055 33.8847 47.0315 33.5207C47.1575 33.1566 47.5531 32.9606 47.9206 33.0866C50.3288 33.9127 52.233 35.7469 53.1501 38.1201C53.2901 38.4806 53.1116 38.8867 52.7475 39.0267C52.6705 39.0547 52.583 39.0722 52.499 39.0722Z" fill="#FDA17F"></path><path d="M50.7349 62.0203H38.6202C37.2236 62.0203 36.086 60.8827 36.086 59.4861V52.4294C36.086 52.0444 36.401 51.7294 36.7861 51.7294C37.1711 51.7294 37.4861 52.0444 37.4861 52.4294V59.4826C37.4861 60.1092 37.9972 60.6167 38.6202 60.6167H50.7349C51.3614 60.6167 51.869 60.1057 51.869 59.4826V52.4294C51.869 52.0444 52.184 51.7294 52.569 51.7294C52.9541 51.7294 53.2691 52.0444 53.2691 52.4294V59.4826C53.2726 60.8827 52.135 62.0203 50.7349 62.0203Z" fill="#FDA17F"></path><path d="M49.9613 65.5802H39.3938C39.0088 65.5802 38.6937 65.2652 38.6937 64.8801C38.6937 64.4951 39.0088 64.1801 39.3938 64.1801H49.9613C50.3463 64.1801 50.6613 64.4951 50.6613 64.8801C50.6613 65.2652 50.3498 65.5802 49.9613 65.5802Z" fill="#FDA17F"></path><path d="M47.8891 69H41.466C41.081 69 40.7659 68.685 40.7659 68.2999C40.7659 67.9149 41.081 67.5999 41.466 67.5999H47.8891C48.2741 67.5999 48.5892 67.9149 48.5892 68.2999C48.5892 68.6885 48.2776 69 47.8891 69Z" fill="#FDA17F"></path><path d="M44.6512 26.38C44.2662 26.38 43.9512 26.065 43.9512 25.6799V21.7001C43.9512 21.315 44.2662 21 44.6512 21C45.0363 21 45.3513 21.315 45.3513 21.7001V25.6799C45.3513 26.065 45.0398 26.38 44.6512 26.38Z" fill="#FDA17F"></path><path d="M50.0697 26.793C50.0032 26.793 49.9332 26.7825 49.8667 26.7615C49.4957 26.6495 49.2857 26.261 49.3977 25.8899L50.5458 22.0781C50.6578 21.7071 51.0498 21.497 51.4174 21.609C51.7884 21.7211 51.9984 22.1096 51.8864 22.4806L50.7383 26.2925C50.6473 26.597 50.3708 26.793 50.0697 26.793Z" fill="#FDA17F"></path><path d="M54.7427 29.1523C54.5817 29.1523 54.4172 29.0963 54.2842 28.9808C53.9902 28.7287 53.9587 28.2877 54.2107 27.9937L56.8079 24.9799C57.0599 24.6859 57.501 24.6544 57.795 24.9064C58.089 25.1584 58.1205 25.5995 57.8685 25.8935L55.2713 28.9073C55.1348 29.0683 54.9387 29.1523 54.7427 29.1523Z" fill="#FDA17F"></path><path d="M39.3938 26.793C39.0928 26.793 38.8162 26.597 38.7252 26.296L37.5771 22.4841C37.4651 22.1131 37.6751 21.7246 38.0462 21.6126C38.4172 21.5005 38.8057 21.7106 38.9178 22.0816L40.0659 25.8935C40.1779 26.2645 39.9678 26.653 39.5968 26.765C39.5303 26.7825 39.4603 26.793 39.3938 26.793Z" fill="#FDA17F"></path><path d="M34.7244 29.1523C34.5284 29.1523 34.3323 29.0683 34.1923 28.9108L31.5951 25.8935C31.3431 25.5995 31.3746 25.1584 31.6686 24.9064C31.9626 24.6544 32.4037 24.6859 32.6557 24.9799L35.2529 27.9937C35.5049 28.2877 35.4734 28.7287 35.1794 28.9808C35.0464 29.0963 34.8854 29.1523 34.7244 29.1523Z" fill="#FDA17F"></path></svg>