<?xml version="1.0" encoding="utf-8"?>
<!-- Generator: Adobe Illustrator 23.0.4, SVG Export Plug-In . SVG Version: 6.00 Build 0)  -->
<svg version="1.1" id="_x2014_ÎÓÈ_x5F_1" xmlns="http://www.w3.org/2000/svg" xmlns:xlink="http://www.w3.org/1999/xlink"
	 x="0px" y="0px" width="24px" height="24px" viewBox="0 0 24 24" style="enable-background:new 0 0 24 24;" xml:space="preserve">
<style type="text/css">
	.st0{fill:#394246;}
</style>
<g>
	<path class="st0" d="M3.5,12.2V2.4C3.5,1.6,4.2,1,5,1s1.5,0.6,1.5,1.4v0.3h-1v1h3v-1h-1V2.4C7.5,1.1,6.4,0,5,0S2.5,1.1,2.5,2.4v9.8
		H0v2.8l0.4,0.2c0.4,0.2,0.6,0.6,0.6,1v3c0,1.9,1.6,3.5,3.5,3.5V24h1v-1.2h13V24h1v-1.2c1.9,0,3.5-1.6,3.5-3.5v-3
		c0-0.4,0.2-0.8,0.6-1l0.4-0.2v-2.8H3.5z M22,19.2c0,1.4-1.1,2.5-2.5,2.5h-15c-1.4,0-2.5-1.1-2.5-2.5v-3c0-0.4-0.1-0.7-0.2-1h14.7
		v-1H1v-1h22v1h-3.5v1h2.7c-0.2,0.3-0.2,0.6-0.2,1V19.2z"/>
	<rect x="6.5" y="4.8" class="st0" width="1" height="1"/>
	<rect x="7.5" y="6.2" class="st0" width="1" height="1"/>
	<rect x="5.5" y="6.2" class="st0" width="1" height="1"/>
	<rect x="4.5" y="7.8" class="st0" width="1" height="1"/>
	<rect x="8.5" y="7.8" class="st0" width="1" height="1"/>
	<rect x="6.5" y="7.8" class="st0" width="1" height="1"/>
	<path class="st0" d="M15,3.8h0.5v6h6v-6h1v-1h-1.1c-0.2-0.6-0.8-1-1.4-1h-4c-0.7,0-1.2,0.4-1.4,1h-1.1v1h1H15z M16,2.8h4
		c0.3,0,0.5,0.2,0.5,0.5v0.5v5h-4V3.6c0-0.4-0.3-0.7-0.6-0.8C15.9,2.8,15.9,2.8,16,2.8z"/>
</g>
</svg>
