<?xml version="1.0" encoding="utf-8"?>
<!-- Generator: Adobe Illustrator 23.0.4, SVG Export Plug-In . SVG Version: 6.00 Build 0)  -->
<svg version="1.1" id="_x2014_ÎÓÈ_x5F_1" xmlns="http://www.w3.org/2000/svg" xmlns:xlink="http://www.w3.org/1999/xlink"
	 x="0px" y="0px" width="24px" height="24px" viewBox="0 0 24 24" style="enable-background:new 0 0 24 24;" xml:space="preserve">
<style type="text/css">
	.st0{fill:#394246;}
</style>
<g>
	<path class="st0" d="M23,14.5l-0.4-1.8c-0.1-0.5-0.5-0.9-0.9-1.1l-1-4c-0.1-0.6-0.6-1-1.2-1.1l0-1.1C19.4,4.7,18.8,4,18,4L14,4
		c-0.8,0-1.5,0.7-1.5,1.5l0,1h-1l0-1C11.4,4.7,10.8,4,10,4L6,4C5.2,4,4.6,4.7,4.5,5.5l0,1c-0.6,0.1-1,0.5-1.2,1.1l-1,4
		c-0.4,0.2-0.8,0.6-0.9,1.1L1,14.5H0V24h5.4l0.5-2h12.2l0.5,2H24v-9.5H23z M14,5l3.9,0c0.3,0,0.5,0.3,0.6,0.5v2
		C18.5,7.7,18.2,8,18,8l-3.9,0c-0.3,0-0.5-0.3-0.6-0.5l0-1.9C13.5,5.3,13.8,5,14,5z M6,5l3.9,0c0.3,0,0.5,0.3,0.6,0.5v2
		C10.5,7.7,10.2,8,10,8L6.1,8C5.8,8,5.5,7.7,5.5,7.5l0-1.9C5.5,5.3,5.8,5,6,5z M4.3,7.9c0-0.1,0.1-0.2,0.2-0.3C4.6,8.3,5.3,9,6,9
		L10,9c0.8,0,1.5-0.7,1.5-1.5l0,0v0h1l0,0C12.6,8.3,13.2,9,14,9L18,9c0.8,0,1.4-0.7,1.5-1.4c0.1,0.1,0.2,0.2,0.2,0.3l0.9,3.6H3.4
		L4.3,7.9z M2.4,13c0.1-0.3,0.3-0.5,0.6-0.5h18c0.3,0,0.5,0.2,0.6,0.5l0.4,1.5H2L2.4,13z M23,23h-3.6l-0.2-1h2.4v-1h-2.6h-0.4h-13
		H5.1H2.5v1h2.4l-0.2,1H1v-7.5h22V23z"/>
	<polygon class="st0" points="2.5,1 21.5,1 21.5,8.5 22.5,8.5 22.5,0 1.5,0 1.5,8.5 2.5,8.5 	"/>
</g>
</svg>
