<?xml version="1.0" encoding="utf-8"?>
<!-- Generator: Adobe Illustrator 23.0.4, SVG Export Plug-In . SVG Version: 6.00 Build 0)  -->
<svg version="1.1" id="_x2014_ÎÓÈ_x5F_1" xmlns="http://www.w3.org/2000/svg" xmlns:xlink="http://www.w3.org/1999/xlink"
	 x="0px" y="0px" width="24px" height="24px" viewBox="0 0 24 24" style="enable-background:new 0 0 24 24;" xml:space="preserve">
<style type="text/css">
	.st0{fill:#394246;}
</style>
<g>
	<g>
		<rect y="21" class="st0" width="24" height="1"/>
	</g>
	<g>
		<polygon class="st0" points="6.5,24 5.5,24 5.5,22 2,22 2,24 1,24 1,21 6.5,21 		"/>
	</g>
	<g>
		<polygon class="st0" points="23,24 22,24 22,22 18.5,22 18.5,24 17.5,24 17.5,21 23,21 		"/>
	</g>
	<g>
		<rect x="1" y="17.5" class="st0" width="22" height="1"/>
	</g>
	<g>
		<polygon class="st0" points="7,20.5 6,20.5 6,18.5 3,18.5 3,20.5 2,20.5 2,17.5 7,17.5 		"/>
	</g>
	<g>
		<polygon class="st0" points="22,20.5 21,20.5 21,18.5 18,18.5 18,20.5 17,20.5 17,17.5 22,17.5 		"/>
	</g>
	<g>
		<rect x="2" y="14.5" class="st0" width="20" height="1"/>
	</g>
	<g>
		<polygon class="st0" points="7.5,17 6.5,17 6.5,15.5 4,15.5 4,17 3,17 3,14.5 7.5,14.5 		"/>
	</g>
	<g>
		<polygon class="st0" points="21,17 20,17 20,15.5 17.5,15.5 17.5,17 16.5,17 16.5,14.5 21,14.5 		"/>
	</g>
	<g>
		<rect x="3" y="11.5" class="st0" width="18" height="1"/>
	</g>
	<g>
		<polygon class="st0" points="8,14 7,14 7,12.5 5,12.5 5,14 4,14 4,11.5 8,11.5 		"/>
	</g>
	<g>
		<polygon class="st0" points="20,14 19,14 19,12.5 17,12.5 17,14 16,14 16,11.5 20,11.5 		"/>
	</g>
	<g>
		<rect x="4" y="8.5" class="st0" width="16" height="1"/>
	</g>
	<g>
		<polygon class="st0" points="8.5,11 7.5,11 7.5,9.5 6,9.5 6,11 5,11 5,8.5 8.5,8.5 		"/>
	</g>
	<g>
		<polygon class="st0" points="19,11 18,11 18,9.5 16.5,9.5 16.5,11 15.5,11 15.5,8.5 19,8.5 		"/>
	</g>
	<g>
		<rect x="5" y="5.5" class="st0" width="14" height="1"/>
	</g>
	<g>
		<polygon class="st0" points="9,8 8,8 8,6.5 7,6.5 7,8 6,8 6,5.5 9,5.5 		"/>
	</g>
	<g>
		<polygon class="st0" points="18,8 17,8 17,6.5 16,6.5 16,8 15,8 15,5.5 18,5.5 		"/>
	</g>
	<g>
		<rect x="6" y="2.5" class="st0" width="12" height="1"/>
	</g>
	<g>
		<polygon class="st0" points="9.5,5 8.5,5 8.5,3.5 8,3.5 8,5 7,5 7,2.5 9.5,2.5 		"/>
	</g>
	<g>
		<polygon class="st0" points="17,5 16,5 16,3.5 15.5,3.5 15.5,5 14.5,5 14.5,2.5 17,2.5 		"/>
	</g>
	<g>
		<rect x="7" class="st0" width="10" height="1"/>
	</g>
	<g>
		<rect x="8.5" y="0.5" class="st0" width="1" height="1.5"/>
	</g>
	<g>
		<rect x="14.5" y="0.5" class="st0" width="1" height="1.5"/>
	</g>
	<g>
		<path class="st0" d="M24,16.5h-1v-0.7c0-1.5-0.3-2.9-0.8-4.3L18,0.7L19,0.3l4.2,10.9c0.6,1.5,0.9,3,0.9,4.6V16.5z"/>
	</g>
	<g>
		<path class="st0" d="M1,16.5H0v-0.7c0-1.6,0.3-3.1,0.9-4.6L5,0.3L6,0.7L1.8,11.5C1.3,12.9,1,14.3,1,15.8V16.5z"/>
	</g>
</g>
</svg>
