<?xml version="1.0" encoding="utf-8"?>
<!-- Generator: Adobe Illustrator 23.0.4, SVG Export Plug-In . SVG Version: 6.00 Build 0)  -->
<svg version="1.1" id="_x2014_ÎÓÈ_x5F_1" xmlns="http://www.w3.org/2000/svg" xmlns:xlink="http://www.w3.org/1999/xlink"
	 x="0px" y="0px" width="24px" height="17.8px" viewBox="0 0 24 17.8" style="enable-background:new 0 0 24 17.8;"
	 xml:space="preserve">
<style type="text/css">
	.st0{fill:#394246;}
</style>
<g>
	<path class="st0" d="M24,8.3l-0.6-0.8l-2,1.4l-4.6-6.5l2-1.4l-0.6-0.8l-2.8,2L16,3c-0.3,0.1-0.7,0.1-1-0.1
		c-0.8-0.4-1.7-0.3-2.4,0.2L12,3.5l-0.5-0.4c-0.7-0.5-1.6-0.6-2.4-0.2C8.8,3,8.4,3.1,8.1,2.9l0.6-0.9L6,0L5.4,0.8l2,1.5L2.6,8.6
		l-2-1.5L0,7.9L2.8,10l0.5-0.7l0.2,0.1c0.1,0.1,0.2,0.2,0.2,0.4c-0.1,0.5,0.1,1,0.5,1.4l0.3,0.2c-0.5,0.5-0.6,1.2-0.3,1.7
		c0.1,0.2,0.3,0.5,0.5,0.6c-0.4,0.5-0.4,1.1-0.2,1.6c0.2,0.4,0.6,0.7,1,0.8c0.3,0.1,0.6,0.1,0.9,0c0.1,0.3,0.2,0.5,0.4,0.7
		c0.5,0.5,1.4,0.6,2,0.1l0.4-0.3c0.1,0.2,0.2,0.5,0.4,0.6c0.3,0.3,0.7,0.4,1,0.4c0.3,0,0.6-0.1,0.9-0.3l0.7-0.5
		c0.1,0.1,0.2,0.2,0.3,0.3l0.4,0.3c0.3,0.2,0.6,0.3,0.9,0.3c0.4,0,0.9-0.2,1.2-0.6c0.1-0.2,0.2-0.3,0.3-0.5c0.2,0.1,0.4,0.1,0.6,0.1
		c0.1,0,0.1,0,0.2,0c0.4,0,0.8-0.2,1-0.5c0.2-0.2,0.3-0.5,0.3-0.7c0.1,0,0.1,0,0.2,0c0.4,0,0.9-0.2,1.2-0.6c0.3-0.3,0.4-0.7,0.3-1.1
		c0-0.3-0.1-0.5-0.3-0.7c0.2-0.1,0.3-0.2,0.4-0.4c0.3-0.4,0.4-0.8,0.3-1.3l0.4-0.3c0.4-0.3,0.6-0.8,0.6-1.4c0-0.1,0-0.3,0.2-0.4
		l0.1-0.1l0.6,0.8L24,8.3z M4.1,8.7L3.9,8.5l3.6-4.8c0.6,0.3,1.4,0.3,2.1,0c0.4-0.2,1-0.2,1.4,0.1l5.7,4.3l-0.2,0.2
		c-0.3,0.3-0.8,0.3-1.2,0l0,0l-2.6-1.9l-0.4,0.3c-1.2,0.9-2.7,0.9-3.9,0.1L7.8,7.7c0.3,0.2,0.7,0.4,1.1,0.5L8.7,8.3l0,0l-3.4,2.5
		l-0.5-0.4c-0.1-0.1-0.2-0.2-0.2-0.4C4.7,9.5,4.5,9,4.1,8.7z M14.1,16.6c-0.2,0.2-0.5,0.2-0.7,0.1L13,16.4c-0.1-0.1-0.2-0.2-0.2-0.3
		c0-0.1,0-0.3,0.1-0.4l0,0c0.1-0.1,0.2-0.2,0.4-0.2c0.1,0,0.2,0,0.3,0.1l0.4,0.3c0.1,0.1,0.2,0.2,0.2,0.3S14.2,16.5,14.1,16.6z
		 M16.2,15.7c-0.1,0.1-0.2,0.2-0.3,0.2c-0.1,0-0.3,0-0.4-0.1l-1.2-0.9c-0.1-0.1-0.2-0.2-0.2-0.3c0-0.1,0-0.3,0.1-0.4
		c0.1-0.1,0.2-0.2,0.3-0.2c0.1,0,0.3,0,0.4,0.1l1.2,0.9C16.3,15.2,16.3,15.5,16.2,15.7z M17.8,14.5c-0.2,0.2-0.5,0.2-0.7,0.1
		l-0.4-0.3c0,0,0,0,0,0l-1.2-0.9c-0.2-0.2-0.2-0.5-0.1-0.7c0.1-0.1,0.2-0.2,0.3-0.2c0.1,0,0.3,0,0.4,0.1l1.6,1.3
		c0.1,0.1,0.2,0.2,0.2,0.3C17.9,14.2,17.9,14.4,17.8,14.5z M16.7,11c0.1-0.1,0.2-0.2,0.3-0.2c0.1,0,0.3,0,0.4,0.1l0.8,0.6
		c0.2,0.2,0.2,0.5,0.1,0.7c-0.1,0.1-0.2,0.2-0.3,0.2c-0.1,0-0.3,0-0.4-0.1l-0.8-0.6C16.6,11.5,16.6,11.2,16.7,11z M19.9,8.8
		c-0.4,0.3-0.6,0.8-0.6,1.4c0,0.1,0,0.3-0.2,0.4l-0.4,0.3l-0.8-0.6c-0.3-0.3-0.7-0.4-1.1-0.3c-0.4,0-0.8,0.2-1,0.5h0
		c-0.2,0.3-0.3,0.7-0.3,1c-0.4,0.1-0.7,0.2-0.9,0.5l0,0c-0.2,0.3-0.3,0.7-0.3,1c-0.4,0.1-0.7,0.2-0.9,0.5l0,0
		c-0.2,0.3-0.3,0.7-0.3,1c-0.4,0.1-0.7,0.2-0.9,0.5c-0.2,0.2-0.3,0.5-0.3,0.8l-1,0.7c-0.2,0.2-0.5,0.1-0.7,0
		c-0.1-0.1-0.2-0.2-0.1-0.4c0-0.1,0.1-0.3,0.2-0.4l1.7-1.2l-0.6-0.8L9.6,15c0,0,0,0,0,0l-1.6,1.1c-0.2,0.2-0.5,0.1-0.7,0
		c-0.1-0.1-0.2-0.2-0.1-0.4c0-0.1,0.1-0.3,0.2-0.4l0,0l4-2.9l-0.6-0.8l-4,2.9c0,0,0,0,0,0l-0.8,0.6c-0.1,0.1-0.3,0.1-0.4,0.1
		c-0.1,0-0.3-0.1-0.3-0.3c-0.1-0.2,0-0.5,0.2-0.6l0.8-0.5L6,13.3l0.3,0.4l4-2.9L9.7,10l-4,2.9l0,0l0,0C5.6,13,5.5,13,5.3,13
		c-0.1,0-0.3-0.1-0.3-0.3c-0.1-0.2,0-0.5,0.2-0.6l4-2.9l0,0l1.1-0.8c0.9,0,1.7-0.2,2.5-0.7l2.1,1.6l0,0c0.3,0.2,0.7,0.3,1,0.3
		c0.4,0,0.9-0.1,1.2-0.4l0.2-0.2c0.2-0.2,0.4-0.5,0.4-0.8c0-0.3-0.2-0.6-0.4-0.8l-4.4-3.2l0.3-0.2c0.4-0.3,0.9-0.3,1.4-0.1
		c0.7,0.3,1.4,0.3,2.1,0L19.9,8.8L19.9,8.8z"/>
	<rect x="21.1" y="7.1" transform="matrix(0.8155 -0.5787 0.5787 0.8155 -0.3826 13.9162)" class="st0" width="1" height="1"/>
	<rect x="1.9" y="6.7" transform="matrix(0.6006 -0.7995 0.7995 0.6006 -4.8334 4.7932)" class="st0" width="1" height="1"/>
</g>
</svg>
