<?xml version="1.0" encoding="utf-8"?>
<!-- Generator: Adobe Illustrator 23.0.4, SVG Export Plug-In . SVG Version: 6.00 Build 0)  -->
<svg version="1.1" id="_x2014_ÎÓÈ_x5F_1" xmlns="http://www.w3.org/2000/svg" xmlns:xlink="http://www.w3.org/1999/xlink"
	 x="0px" y="0px" width="24px" height="24px" viewBox="0 0 24 24" style="enable-background:new 0 0 24 24;" xml:space="preserve">
<style type="text/css">
	.st0{fill:#394246;}
</style>
<g>
	<path class="st0" d="M5,3.5V0H2.5C1.1,0,0,1.1,0,2.5v19C0,22.9,1.1,24,2.5,24h2H24V3.5H5z M1,2.5C1,1.6,1.6,1,2.5,1H4v18H2.5
		c-0.2,0-0.3,0-0.5,0c0,0-0.1,0-0.1,0c-0.1,0-0.2,0-0.3,0.1c0,0-0.1,0-0.1,0c-0.1,0-0.2,0.1-0.2,0.1s-0.1,0-0.1,0.1c0,0,0,0,0,0V2.5
		z M23,23H4.5h-2C1.6,23,1,22.4,1,21.5S1.6,20,2.5,20h2H5V4.5h18V23z"/>
	<path class="st0" d="M6.5,14v8H16v-2.5h5.5v-8h-3V6h-12v4h4v4H6.5z M11.5,15H12v-1h-0.5v-4H16V9h-4.5H11H7.5V7h10v5v0.5V15h1v-2.5
		h2v6H16V18h-1v0.5V19v2H7.5v-6H11H11.5z"/>
	<rect x="15" y="16" class="st0" width="1" height="1"/>
	<rect x="13" y="14" class="st0" width="1" height="1"/>
	<rect x="15" y="14" class="st0" width="1" height="1"/>
</g>
</svg>
