<svg xmlns="http://www.w3.org/2000/svg" width="37.65" height="37.66" viewBox="0 0 37.65 37.66">
  <defs>
    <style>
      .cls-1 {
        fill: #0099e5;
        fill-rule: evenodd;
      }
    </style>
  </defs>
  <path id="about-icon2" class="cls-1" d="M1303.59,1669.31a14.167,14.167,0,0,1-1.45,5.63,16,16,0,0,1-3.36,4.53,15.166,15.166,0,0,1-4.72,3.04,15.25,15.25,0,0,1-11.64-.11,15.227,15.227,0,0,1-8.17-8.17,14.768,14.768,0,0,1-1.21-5.93,15.265,15.265,0,0,1,4.1-10.39,15.864,15.864,0,0,1,4.5-3.33,15.066,15.066,0,0,1,5.54-1.52l-0.15-2.34a16.585,16.585,0,0,0-6.41,1.72,18.4,18.4,0,0,0-5.2,3.86,17.736,17.736,0,0,0-3.47,5.47,17.617,17.617,0,0,0,.15,13.4,17.918,17.918,0,0,0,9.38,9.38,17.467,17.467,0,0,0,13.44.11,18.072,18.072,0,0,0,5.5-3.51,17.575,17.575,0,0,0,3.83-5.2,17.057,17.057,0,0,0,1.68-6.48l-2.34-.16h0Zm4.76-3.36a17.3,17.3,0,0,0-5.15-12.46,18.662,18.662,0,0,0-5.63-3.79,16.645,16.645,0,0,0-6.79-1.4h-1.18v18.82h18.75v-1.17h0Zm-2.42-1.17h-13.98v-14.06a14.962,14.962,0,0,1,5.27,1.4,15.728,15.728,0,0,1,4.34,3.05,15.262,15.262,0,0,1,3.04,4.38,13.841,13.841,0,0,1,1.33,5.23h0Z" transform="translate(-1270.69 -1648.28)"/>
</svg>
