<svg xmlns="http://www.w3.org/2000/svg" width="43.782" height="43.88" viewBox="0 0 43.782 43.88">
  <defs>
    <style>
      .cls-1 {
        fill: #3f4451;
        fill-rule: evenodd;
      }
    </style>
  </defs>
  <path id="approve-loan" class="cls-1" d="M872.028,4748.94l2.9-.1v19.95a17.253,17.253,0,0,1-3.244,10.45,33.046,33.046,0,0,1-7.166,7.32,39.856,39.856,0,0,1-7.359,4.35,30.291,30.291,0,0,1-3.728,1.5l-0.484.29-0.484-.29a27.562,27.562,0,0,1-3.68-1.55,43.075,43.075,0,0,1-7.311-4.4,32.136,32.136,0,0,1-7.117-7.31,17.163,17.163,0,0,1-3.2-10.27v-20.04l2.905,0.1a8.6,8.6,0,0,0,.678,3.29,8.12,8.12,0,0,0,1.888,2.81,9.956,9.956,0,0,0,2.808,1.88,7.124,7.124,0,0,0,3.437.63,6.887,6.887,0,0,0,3.341-.63,9.984,9.984,0,0,0,2.808-1.88,8.178,8.178,0,0,0,1.889-2.81,8.65,8.65,0,0,0,.677-3.29l2.9-.1a8.344,8.344,0,0,0,.678,3.39,9.571,9.571,0,0,0,1.888,2.81,7.694,7.694,0,0,0,2.808,1.88,10.278,10.278,0,0,0,3.341.73,10.486,10.486,0,0,0,3.438-.73,7.7,7.7,0,0,0,2.808-1.88,9.63,9.63,0,0,0,1.888-2.81,8.36,8.36,0,0,0,.678-3.39v0.1Zm-37.958,19.94a13.979,13.979,0,0,0,2.082,7.46,26.49,26.49,0,0,0,4.89,5.91,33.847,33.847,0,0,0,5.761,4.21,47.119,47.119,0,0,0,4.793,2.47v-32.34a22.611,22.611,0,0,1-1.791,1.59,8.023,8.023,0,0,1-2.13,1.26q-1.114.435-2.324,0.78a7.34,7.34,0,0,1-2.47.24,7.743,7.743,0,0,1-2.566-.24q-1.212-.345-2.324-0.78a7.831,7.831,0,0,1-2.081-1.21,21.222,21.222,0,0,1-1.84-1.64v12.29Zm37.958-.09v-12.3a9.209,9.209,0,0,1-1.84,1.74,14.374,14.374,0,0,1-2.082,1.21,9.579,9.579,0,0,1-2.324.78,9.487,9.487,0,0,1-5.035,0,8.533,8.533,0,0,1-2.324-.83,20.043,20.043,0,0,1-2.13-1.26,7.929,7.929,0,0,1-1.792-1.64v32.44c1.226-.58,2.84-1.41,4.842-2.47a28.4,28.4,0,0,0,5.81-4.17,27.01,27.01,0,0,0,4.841-5.9,14.532,14.532,0,0,0,2.034-7.7v0.1Z" transform="translate(-831.156 -4748.84)"/>
</svg>
