<svg xmlns="http://www.w3.org/2000/svg" width="49.594" height="49.66" viewBox="0 0 49.594 49.66">
  <defs>
    <style>
      .cls-1 {
        fill: #3f4451;
        fill-rule: evenodd;
      }
    </style>
  </defs>
  <path id="loan-amount" class="cls-1" d="M494.838,4756v0.34a0.8,0.8,0,0,1-.049.34,1.53,1.53,0,0,0-.1.34,1.929,1.929,0,0,0-.049.34l0.194,0.1v27.69a5.689,5.689,0,0,1-2.179,4.41,18.33,18.33,0,0,1-5.713,3.19,38.782,38.782,0,0,1-7.94,1.94,55.316,55.316,0,0,1-17.914,0,38.734,38.734,0,0,1-7.94-1.94,18.307,18.307,0,0,1-5.713-3.19,5.689,5.689,0,0,1-2.179-4.41v-27.69l0.193-.1a2.11,2.11,0,0,0-.048-0.34,1.7,1.7,0,0,0-.1-0.34,0.785,0.785,0,0,1-.048-0.34V4756a5.684,5.684,0,0,1,2.179-4.4,18.316,18.316,0,0,1,5.713-3.2,38.748,38.748,0,0,1,7.94-1.93,55.316,55.316,0,0,1,17.914,0,38.8,38.8,0,0,1,7.94,1.93,18.339,18.339,0,0,1,5.713,3.2,5.684,5.684,0,0,1,2.179,4.4h0Zm-24.789-7.35a64.053,64.053,0,0,0-8.667.72,38.077,38.077,0,0,0-6.972,1.7,17.289,17.289,0,0,0-4.6,2.32,3.431,3.431,0,0,0-1.646,2.61,2.422,2.422,0,0,0,.193.88,2.774,2.774,0,0,0,.63.92c0.29,0.29.629,0.59,1.017,0.92a4.6,4.6,0,0,0,1.355.77,16.386,16.386,0,0,0,3.583,1.65,36.993,36.993,0,0,0,4.454,1.16,48.253,48.253,0,0,0,5.132.72c1.807,0.17,3.647.28,5.52,0.34,1.871-.06,3.711-0.17,5.519-0.34a48.326,48.326,0,0,0,5.132-.72,37.06,37.06,0,0,0,4.455-1.16,16.421,16.421,0,0,0,3.582-1.65,4.617,4.617,0,0,0,1.356-.77c0.387-.33.726-0.63,1.017-0.92a2.8,2.8,0,0,0,.629-0.92,2.446,2.446,0,0,0,.194-0.88,3.436,3.436,0,0,0-1.646-2.61,17.328,17.328,0,0,0-4.6-2.32,38.118,38.118,0,0,0-6.972-1.7,64.065,64.065,0,0,0-8.666-.72h0Zm0,43.76a42.8,42.8,0,0,0,8.666-.63,51.5,51.5,0,0,0,6.972-1.69,14.369,14.369,0,0,0,4.6-2.32,3.64,3.64,0,0,0,1.646-2.52v-4.94a1.21,1.21,0,0,1-.387.39,2.155,2.155,0,0,0-.436.29,2.109,2.109,0,0,1-.484.29,0.92,0.92,0,0,0-.436.39v-0.05h0v0.05c-1.033.45-2.179,0.91-3.438,1.4a28.742,28.742,0,0,1-4.067,1.21q-2.178.48-4.648,0.87a31.907,31.907,0,0,1-4.986.39,2.258,2.258,0,0,1-.775.05,2.936,2.936,0,0,0-.726,0,5.523,5.523,0,0,1-.727.05,3.4,3.4,0,0,0-.774.09q-3-.09-5.907-0.34a39.093,39.093,0,0,1-5.471-.82c-1.711-.39-3.309-0.82-4.793-1.31a22.652,22.652,0,0,1-3.97-1.69,2.728,2.728,0,0,1-.436-0.29,1.8,1.8,0,0,0-.484-0.29,1.352,1.352,0,0,1-.436-0.29,1.426,1.426,0,0,0-.387-0.29v4.74a3.431,3.431,0,0,0,1.646,2.62,17.289,17.289,0,0,0,4.6,2.32,38.122,38.122,0,0,0,6.972,1.69,63.993,63.993,0,0,0,8.667.73v-0.1Zm18.688-13.36c0.516-.32.969-0.63,1.356-0.92a7.245,7.245,0,0,0,1.017-.92,4.043,4.043,0,0,0,.629-0.87,2.162,2.162,0,0,0,.194-0.97v-4.65a1.589,1.589,0,0,0-.387.29,1.243,1.243,0,0,1-.436.29,2.422,2.422,0,0,0-.484.29,0.742,0.742,0,0,1-.436.2,18.526,18.526,0,0,1-3.97,1.79,47.385,47.385,0,0,1-4.793,1.26,46.392,46.392,0,0,1-5.471.77c-1.937.16-3.907,0.28-5.907,0.34-2-.06-3.97-0.18-5.907-0.34a46.3,46.3,0,0,1-5.471-.77,47.107,47.107,0,0,1-4.793-1.26,18.481,18.481,0,0,1-3.97-1.79,0.735,0.735,0,0,1-.436-0.2,2.539,2.539,0,0,0-.484-0.29,1.208,1.208,0,0,1-.436-0.29,1.668,1.668,0,0,0-.387-0.29v4.65a2.149,2.149,0,0,0,.193.97,3.984,3.984,0,0,0,.63.87,7.135,7.135,0,0,0,1.017.92c0.387,0.29.838,0.6,1.355,0.92v-0.1a13.917,13.917,0,0,0,3.1,1.46c1.162,0.38,2.421.76,3.776,1.11a28.39,28.39,0,0,0,4.309.77c1.516,0.17,3.082.31,4.7,0.44a2.026,2.026,0,0,1,.726-0.05,1.93,1.93,0,0,0,.678,0,1.736,1.736,0,0,1,.678.05,1.28,1.28,0,0,0,.726,0,33.688,33.688,0,0,0,5.519-.24q2.711-.345,5.132-0.78a27.368,27.368,0,0,0,4.455-1.16,31.109,31.109,0,0,0,3.582-1.5h0Zm0-9.78a7.214,7.214,0,0,0,1.356-.87q0.58-.48,1.017-0.87a2.3,2.3,0,0,0,.629-0.92,2.661,2.661,0,0,0,.194-0.83v-4.84a1.426,1.426,0,0,1-.387.29,3.559,3.559,0,0,0-.436.29,1.8,1.8,0,0,1-.484.29,1.039,1.039,0,0,0-.436.39,33.847,33.847,0,0,1-8.763,2.91q-2.568.48-5.471,0.82a72.813,72.813,0,0,1-11.814,0q-2.906-.345-5.471-0.82a33.847,33.847,0,0,1-8.763-2.91,1.057,1.057,0,0,0-.436-0.39,1.745,1.745,0,0,1-.484-0.29,3.893,3.893,0,0,0-.436-0.29,1.368,1.368,0,0,1-.387-0.29v4.84a2.625,2.625,0,0,0,.193.83,2.28,2.28,0,0,0,.63.92q0.435,0.39,1.017.87a7.173,7.173,0,0,0,1.355.87,15.044,15.044,0,0,0,3.583,1.6c1.356,0.42,2.84.81,4.454,1.16a35.13,35.13,0,0,0,5.132.73c1.807,0.13,3.647.22,5.52,0.29,1.871-.07,3.711-0.16,5.519-0.29a35.169,35.169,0,0,0,5.132-.73c1.613-.35,3.1-0.74,4.455-1.16a15.072,15.072,0,0,0,3.582-1.6h0Z" transform="translate(-445.25 -4745.75)"/>
</svg>
