<svg xmlns="http://www.w3.org/2000/svg" width="10.41" height="16" viewBox="0 0 10.41 16">
  <defs>
    <style>
      .cls-1 {
        fill: #0099e5;
        fill-rule: evenodd;
      }
    </style>
  </defs>
  <path id="phone" class="cls-1" d="M1494.09,31.99a1.443,1.443,0,0,1,.55.109,1.283,1.283,0,0,1,.45.3,1.651,1.651,0,0,1,.32.453,1.039,1.039,0,0,1,.09.547l0.03,13.188a2.533,2.533,0,0,1-.12.547,1.1,1.1,0,0,1-.32.453,1.8,1.8,0,0,1-.45.3,1.383,1.383,0,0,1-.58.109h-7.47a1.383,1.383,0,0,1-.58-0.109,2.245,2.245,0,0,1-.45-0.3,1.072,1.072,0,0,1-.31-0.453,2.551,2.551,0,0,1-.13-0.547l0.04-13.187a0.949,0.949,0,0,1,.09-0.547,1.625,1.625,0,0,1,.31-0.453,1.5,1.5,0,0,1,.45-0.3,1.443,1.443,0,0,1,.55-0.109h7.53Zm-7.53.938a0.666,0.666,0,0,0-.19.031,0.255,0.255,0,0,0-.14.109,0.733,0.733,0,0,1-.11.156,0.178,0.178,0,0,0-.03.172l-0.03,1.406h8.53l-0.03-1.406a0.178,0.178,0,0,0-.03-0.172,1.439,1.439,0,0,1-.11-0.156,0.255,0.255,0,0,0-.14-0.109,0.569,0.569,0,0,0-.19-0.031h-7.53Zm8.03,2.813h-8.53l0.03,7.531h8.47l0.03-7.531h0Zm-0.53,11.313a0.523,0.523,0,0,0,.22-0.031,0.566,0.566,0,0,0,.14-0.109,0.493,0.493,0,0,0,.11-0.156c0.02-.052.04-0.109,0.06-0.172l-0.03-2.344h-8.47l-0.03,2.344c0.02,0.063.04,0.12,0.06,0.172a0.493,0.493,0,0,0,.11.156,0.84,0.84,0,0,0,.14.109,0.59,0.59,0,0,0,.22.031h7.47Zm-3.25-1.406a1.3,1.3,0,0,1-.05-0.187,0.25,0.25,0,0,0-.09-0.156,0.508,0.508,0,0,0-.16-0.094,0.548,0.548,0,0,0-.2-0.031,0.664,0.664,0,0,0-.17.031,0.307,0.307,0,0,0-.16.094,1.055,1.055,0,0,0-.09.156,0.248,0.248,0,0,0-.02.188,0.206,0.206,0,0,0,.02.172,1.594,1.594,0,0,0,.09.141,0.4,0.4,0,0,0,.16.109,0.46,0.46,0,0,0,.17.047,0.382,0.382,0,0,0,.2-0.047,0.863,0.863,0,0,0,.16-0.109,0.242,0.242,0,0,0,.09-0.141,1.618,1.618,0,0,1,.05-0.172h0Z" transform="translate(-1485.12 -32)"/>
</svg>
