<svg xmlns="http://www.w3.org/2000/svg" width="40" height="43" viewBox="0 0 40 43">
  <defs>
    <style>
      .cls-1 {
        fill: #f7cb47;
        fill-rule: evenodd;
      }
    </style>
  </defs>
  <path id="mission-icon-03" class="cls-1" d="M803.347,1582.87a17.416,17.416,0,0,0,4.151-10.47,10.541,10.541,0,0,0-21.08,0,17.416,17.416,0,0,0,4.151,10.47c-15.463,5.13-13.842,19.25-13.164,22.13h39.107A18.709,18.709,0,0,0,803.347,1582.87Zm-6.389-19.48a9.118,9.118,0,0,1,8.31,5.3c-3.507,2.36-7.066-.31-7.066-0.31a7.5,7.5,0,0,0-7.959.33l-2.127,1.48A9.119,9.119,0,0,1,796.958,1563.39Zm-9.133,9.01c0-.11.008-0.22,0.017-0.33l3.207-2.22a6.047,6.047,0,0,1,6.441-.27,7.783,7.783,0,0,0,8.267.44,9.031,9.031,0,0,1,.335,2.37c0,4.93-4.091,12.49-9.134,12.49S787.825,1577.33,787.825,1572.4Zm27.52,31.21H778.58a17.19,17.19,0,0,1,6.612-16.53,19.526,19.526,0,0,0,1.749,5.6,5.505,5.505,0,0,0-2.307,6.52l1.167,3.27,2.65-.92-0.463-1.32-1.33.46-0.7-1.96a4.153,4.153,0,0,1,2.581-5.31,4.239,4.239,0,0,1,5.378,2.55l0.694,1.96-1.329.46,0.463,1.31,2.65-.92-1.166-3.28a5.629,5.629,0,0,0-7.024-3.43,18.115,18.115,0,0,1-1.724-5.9,17.842,17.842,0,0,1,5.206-2.19,7.264,7.264,0,0,0,10.531,0,17.652,17.652,0,0,1,5.978,2.7,17.774,17.774,0,0,1-2.058,5.22,3.092,3.092,0,0,0-.755-0.11,2.775,2.775,0,1,0,2.813,2.77,2.728,2.728,0,0,0-.841-1.97,19.29,19.29,0,0,0,2.059-4.98A17.3,17.3,0,0,1,815.345,1603.61Zm-8.55-9.01a1.407,1.407,0,1,1-1.407-1.39A1.407,1.407,0,0,1,806.8,1594.6Z" transform="translate(-777 -1562)"/>
</svg>
