<svg xmlns="http://www.w3.org/2000/svg" width="47.969" height="43" viewBox="0 0 47.969 43">
  <defs>
    <style>
      .cls-1 {
        fill: #8969ba;
        fill-rule: evenodd;
      }
    </style>
  </defs>
  <path id="mission-icon-04" class="cls-1" d="M813.432,1801.28a0.775,0.775,0,0,0-.928-0.21l-1.341.52-4.126-9.13a0.774,0.774,0,0,0-.722-0.46H792.907a0.726,0.726,0,0,0-.619.31l-7.581,9.07a0.689,0.689,0,0,0-.155.62,1.256,1.256,0,0,0,.309.57l7.581,5.62a0.806,0.806,0,0,0,1.135-.16l4.951-6.7,2.372,4.23-1.5.77a0.739,0.739,0,0,0-.412.78,0.763,0.763,0,0,0,.619.67l8.457,2.06h0.207a0.9,0.9,0,0,0,.67-0.36l4.538-7.27A0.774,0.774,0,0,0,813.432,1801.28Zm-20.68,5.1-6.24-4.64,6.807-8.14H794.4l3.352,6.24Zm15.059,1.81-5.725-1.39,0.31-.16a0.731,0.731,0,0,0,.412-0.46,0.864,0.864,0,0,0-.051-0.62l-3.4-6.08-3.2-5.93h9.592l4.229,9.38a0.819,0.819,0,0,0,.825.46Zm-12.223,13.92-8.354-.36,2.166-4.33,1.444,0.82a0.766,0.766,0,0,0,.928-0.1,0.72,0.72,0,0,0,.206-0.88l-3.042-8.14a0.8,0.8,0,0,0-.774-0.52l-8.612.31a0.775,0.775,0,0,0-.722.57,0.823,0.823,0,0,0,.309.87l1.186,0.83-5.208,8.56a0.872,0.872,0,0,0,0,.87l5.775,8.51,2.218,3.35a0.87,0.87,0,0,0,.67.36h11.759a0.813,0.813,0,0,0,.825-0.82v-9.08A0.877,0.877,0,0,0,795.588,1822.11Zm-13.46,5.98-5.363-7.94,5.415-8.76a0.714,0.714,0,0,0-.1-0.93l5.621-.26,2.063,5.57-0.31-.16a0.682,0.682,0,0,0-.619-0.05,0.741,0.741,0,0,0-.464.41l-3.094,6.19Zm12.583,3.15h-10.52l-1.031-1.6,3.3-6.29,8.251,0.36v7.53Zm28.21-11.81-5.157-10.62a0.714,0.714,0,0,0-.464-0.41,0.643,0.643,0,0,0-.619.1l-8.252,4.59a0.824,0.824,0,0,0-.309,1.08l4.023,7.27-4.848.41-0.052-1.65a0.768,0.768,0,0,0-.567-0.72,0.816,0.816,0,0,0-.877.26l-5.363,6.86a0.855,0.855,0,0,0-.052.92l4.8,7.12a0.871,0.871,0,0,0,.671.36,0.317,0.317,0,0,0,.206-0.05,0.819,0.819,0,0,0,.567-0.72l0.052-1.45h10a0.8,0.8,0,0,0,.722-0.46l5.518-12.22A0.765,0.765,0,0,0,822.921,1819.43Zm-6.653,11.81H806.006a0.831,0.831,0,0,0-.774.56l-3.146-4.69,3.662-4.69v0.36a0.788,0.788,0,0,0,.876.77l6.911-.62,6.7-.46Zm4.642-10.47-7.066.51-3.971-7.21,6.808-3.82,4.693,9.54Z" transform="translate(-775.031 -1792)"/>
</svg>
