<svg xmlns="http://www.w3.org/2000/svg" width="45" height="43" viewBox="0 0 45 43">
  <defs>
    <style>
      .cls-1 {
        fill: #e78d55;
        fill-rule: evenodd;
      }
    </style>
  </defs>
  <path id="mission-icon-02" class="cls-1" d="M397.259,1835a11.525,11.525,0,0,1-4.583-.95l-6.934-3.02a26.284,26.284,0,0,0-7.884-2.06l-2.278-.23a0.726,0.726,0,0,1-.66-0.73v-7.15a0.717,0.717,0,0,1,.147-0.44c0.17-.23,4.252-5.57,10.486-4.18a26.386,26.386,0,0,1,8.081,3.33,8.142,8.142,0,0,0,4.309,1.2h6.935a3.335,3.335,0,0,1,2.833,1.59l5.973-6.9a6.331,6.331,0,0,1,5.036-2.5h0.446a0.732,0.732,0,0,1,.613.34,0.724,0.724,0,0,1,.058.69l-5.4,12.3a9.629,9.629,0,0,1-6.432,5.44l-0.95.24-5.529,2.21A11.383,11.383,0,0,1,397.259,1835Zm-20.873-7.65,1.618,0.16a27.908,27.908,0,0,1,8.323,2.17l6.934,3.02a10.029,10.029,0,0,0,7.719.12l5.574-2.23a0.356,0.356,0,0,1,.1-0.04l1-.25a8.13,8.13,0,0,0,5.446-4.6l4.927-11.22a4.928,4.928,0,0,0-3.2,1.9l-6.616,7.64c0,0.03,0,.06,0,0.09a3.34,3.34,0,0,1-3.331,3.34H395.2a11.6,11.6,0,0,0-3.694.6l-0.269-.69-0.228-.7,0.038-.01a13.291,13.291,0,0,1,4.153-.67h9.675a1.87,1.87,0,0,0,0-3.74h-6.934a9.558,9.558,0,0,1-5.082-1.43,25.28,25.28,0,0,0-7.626-3.14c-4.721-1.05-8.119,2.58-8.849,3.45v6.23h0Zm27.4-14.55a8.562,8.562,0,0,1-3.783-1.05,0.712,0.712,0,0,1-.362-0.41c-0.057-.16-1.367-3.93.715-6.72,1.512-2.03,4.357-2.94,8.458-2.72a0.747,0.747,0,0,1,.691.7c0.015,0.29.317,7.18-3.186,9.47A4.506,4.506,0,0,1,403.787,1812.8Zm-2.848-2.23c1.925,0.91,3.464,1,4.58.27,2.077-1.36,2.526-5.4,2.537-7.5-3.214-.08-5.4.65-6.525,2.16C400.194,1807.29,400.714,1809.76,400.939,1810.57Zm-8.362-7.39a6.85,6.85,0,0,1-4.107-1.24c-2.22-1.63-3.239-4.73-3.032-9.22a0.729,0.729,0,0,1,.689-0.7c0.317-.02,7.821-0.42,10.346,3.38,1.176,1.76,1.08,4.08-.285,6.88a0.755,0.755,0,0,1-.406.37A10.322,10.322,0,0,1,392.577,1803.18Zm2.952-1.22h0Zm-8.649-8.5c-0.063,3.6.762,6.05,2.456,7.29,2.028,1.49,4.8.86,5.668,0.6,1-2.16,1.08-3.89.25-5.14C393.711,1793.89,389.184,1793.44,386.88,1793.46Zm11.422,28.52h-0.07a0.74,0.74,0,0,1-.663-0.77c0.043-.86.117-1.68,0.217-2.46,0.305-5.19.148-17.3-7.489-20.65a0.727,0.727,0,0,1-.378-0.96,0.736,0.736,0,0,1,.965-0.38c4.5,1.97,7.332,6.88,8.186,14.2,0.077,0.66.135,1.31,0.177,1.94,2.012-5.1,5.089-6.9,5.272-7a0.735,0.735,0,0,1,.721,1.28c-0.078.04-4.8,2.88-5.981,11.63-0.09,1.5-.22,2.45-0.232,2.54A0.727,0.727,0,0,1,398.3,1821.98Z" transform="translate(-374.906 -1792)"/>
</svg>
