<?xml version="1.0" encoding="UTF-8"?>
<svg width="381px" height="25px" viewBox="0 0 381 25" version="1.1" xmlns="http://www.w3.org/2000/svg" xmlns:xlink="http://www.w3.org/1999/xlink">
    <!-- Generator: Sketch 52.6 (67491) - http://www.bohemiancoding.com/sketch -->
    <title>Shape</title>
    <desc>Created with Sketch.</desc>
    <g id="Page-1" stroke="none" stroke-width="1" fill="none" fill-rule="evenodd">
        <g id="Cafe-&amp;-Patisserie-Menus" transform="translate(-766.000000, -3660.000000)" fill="#57473D" fill-rule="nonzero">
            <g id="Group-6" transform="translate(496.000000, 3555.000000)">
                <g id="Group-8" transform="translate(270.000000, 0.000000)">
                    <g id="line-border-2" transform="translate(0.000000, 105.000000)">
                        <path d="M81,5 L0,5 L0,7 L81,7 L81,5 Z M190.490761,19.9889367 C187.389487,19.984407 184.723428,17.7913188 184.123436,14.751203 C183.523444,11.7110872 185.156678,8.67092996 188.024075,7.49042178 C190.891472,6.3099136 194.194166,7.31794786 195.91187,9.89790129 C197.629575,12.4778547 197.283731,15.9109439 195.085896,18.0971186 C193.865251,19.3120288 192.213683,19.9959558 190.490761,20 L190.490761,19.9889367 Z M190.241332,9.00526509 C188.399526,8.9251645 186.658229,9.76390662 185.71067,11.1875804 C184.76311,12.6112541 184.76311,14.3887459 185.71067,15.8124196 C186.658229,17.2360934 188.399526,18.0748355 190.241332,17.9947349 C192.905829,17.8788553 195,15.9008342 195,13.5 C195,11.0991658 192.905829,9.12114469 190.241332,9.00526509 Z M258.5437,9.7641593 L259.488633,10.1685846 C261.237266,10.936639 262.922236,11.8368983 264.528276,12.8612058 C266.010839,13.7815921 267.35287,14.9031297 268.514373,16.1923933 C268.667603,16.3764552 268.805616,16.5721925 268.927102,16.7777457 C269.19388,17.2082267 269.30127,17.7155835 269.231219,18.2145198 C269.165035,18.6088468 268.952241,18.9652143 268.633847,19.2149404 C268.54324,19.2917821 268.444997,19.3595253 268.340592,19.417153 C267.923694,19.640511 267.770517,20.152741 267.998461,20.561251 C268.226405,20.9697609 268.749153,21.1198562 269.166051,20.8964983 C269.372513,20.791199 269.565707,20.6626133 269.7417,20.5133585 C270.369371,20.0017406 270.792496,19.2893611 270.936442,18.5018747 C271.071023,17.626394 270.894643,16.7321817 270.436823,15.9688951 C270.264151,15.6647693 270.064241,15.37628 269.839451,15.1068306 C269.151785,14.329866 268.39184,13.6172772 267.56944,12.9782763 C271.037811,13.9849932 274.577375,14.7391367 278.159206,15.2345438 C283.589856,15.9582523 288.933615,15.8943957 292.832822,14.2447661 C294.269039,13.6201661 295.51526,12.6410479 296.449634,11.4031461 C297.357987,10.2425921 297.887932,8.84052801 297.970216,7.38017849 C298.150286,5.74048481 297.506294,4.11725863 296.24327,3.02728496 C295.640022,2.54547809 294.922981,2.21978698 294.1579,2.0800783 C293.410146,1.94484295 292.64058,1.98127208 291.909611,2.18650601 C290.507647,2.56293856 289.39071,3.60148166 288.933615,4.95362659 C288.678569,5.6630643 288.678569,6.43659981 288.933615,7.14603752 C289.302432,8.20373313 290.194256,9.0054586 291.301378,9.27459181 C289.574432,10.5730099 286.848246,10.9029358 283.95914,10.7752226 C280.276587,10.4872358 276.635702,9.81652133 273.097841,8.77438155 C272.638953,8.64800798 272.162402,8.91007919 272.033434,9.35973398 C271.904465,9.80938877 272.171918,10.276352 272.630805,10.4027256 C276.312904,11.4855485 280.103898,12.1742526 283.937418,12.4567805 C288.347105,12.6589931 292.474399,11.828857 294.201345,8.50831226 C294.3585,8.24158858 294.3585,7.91297146 294.201345,7.64624777 C294.075219,7.45921294 293.878087,7.32927929 293.653748,7.28531415 C293.429409,7.24134901 293.196441,7.2869935 293.006602,7.4121068 C292.719798,7.60275905 292.374073,7.68933328 292.029085,7.65689055 C291.72653,7.63185256 291.437007,7.52500542 291.192765,7.34825017 C290.947317,7.16735065 290.762112,6.91920615 290.660562,6.63518448 C290.543749,6.28965828 290.543749,5.91643354 290.660562,5.57090734 C290.948285,4.74744166 291.630332,4.11491981 292.48526,3.87870667 C292.915159,3.73857138 293.370158,3.68782486 293.8212,3.72970787 C294.302809,3.81888574 294.754348,4.0236576 295.135417,4.32570308 C295.961974,5.08338894 296.366152,6.18439762 296.221547,7.28439354 C296.14961,8.40905035 295.737464,9.48723002 295.037665,10.38144 C294.28459,11.3812692 293.27722,12.1702169 292.115976,12.6696359 C288.542608,14.1809095 283.513827,14.2234805 278.35471,13.5423432 C272.136481,12.6488785 266.052678,11.0155699 260.238063,8.67859661 L259.151933,8.19967189 C258.726336,8.04873779 258.253778,8.24321925 258.065803,8.64666829 C257.976649,8.85966536 257.978143,9.09875634 258.069953,9.31066752 C258.161762,9.52257871 258.336259,9.68970297 258.554561,9.77480207 L258.5437,9.7641593 Z M210.756553,17.4741693 C211.38096,16.5384824 213.659495,16.9084051 212.837908,19.0409009 C212.795547,19.1570585 212.744275,19.2698169 212.684545,19.3781835 C212.047024,20.4213487 210.941162,21.0941384 209.715876,21.1842769 C208.333199,21.3722582 206.925152,21.2152095 205.618895,20.7273135 C205.385328,20.6466441 205.158279,20.5484399 204.939716,20.4335513 C203.782012,19.824456 202.812698,18.9143759 202.135365,17.8005717 C200.152602,14.5365475 201.26996,10.3150762 203.679949,7.55153566 C205.628876,5.42140891 208.118392,3.85066623 210.888007,3.00366191 C218.830017,0.435962846 227.736022,1.91565383 236.269574,5.24495854 C244.576427,8.68592215 252.421344,13.1372354 259.624559,18.4968969 C260.01267,18.7755996 260.554169,18.6932307 260.840508,18.3119355 C260.996617,18.0859423 261.040945,17.8017652 260.961007,17.5394498 C260.247729,14.9397539 258.852892,12.5745033 256.918798,10.6849989 C254.968042,8.73425998 252.552698,7.30462844 249.896967,6.52880807 C249.674766,6.45459623 249.431626,6.47431727 249.224492,6.58335226 C249.017359,6.69238725 248.864427,6.88115822 248.801517,7.10545235 C248.733587,7.32764816 248.757868,7.56759154 248.868958,7.77191716 C248.980049,7.97624278 249.168738,8.12800851 249.39306,8.19346043 C251.77807,8.87696816 253.951668,10.145329 255.713804,11.8818078 C256.76829,12.9271405 257.654975,14.1270414 258.342883,15.4395942 C251.666356,10.7102058 244.461561,6.7635345 236.872071,3.67822691 C228.020839,0.218361231 218.731426,-1.32661024 210.329328,1.38252987 C207.256825,2.32868881 204.498045,4.08020881 202.343501,6.45264751 C201.348067,7.58127015 200.565136,8.87851876 200.032102,10.2824359 C199.51733,8.97827357 198.738026,7.7931862 197.742612,6.80081009 C193.741819,2.84337856 187.272517,2.84337856 183.271724,6.80081009 C182.27631,7.7931862 181.497006,8.97827357 180.982234,10.2824359 C180.457339,8.87701835 179.677655,7.57899709 178.68179,6.45264751 C176.523164,4.07981365 173.760773,2.32840345 170.685008,1.38252987 C162.337682,-1.32661024 153.037315,0.218361231 144.164174,3.65646675 C136.57426,6.74089396 129.369366,10.6876197 122.693362,15.4178341 C123.373559,14.1033317 124.256987,12.9028356 125.311487,11.8600476 C127.077867,10.1234969 129.255002,8.85526991 131.643185,8.17170027 C131.867507,8.10624835 132.056196,7.95448262 132.167287,7.750157 C132.278377,7.54583138 132.302658,7.305888 132.234728,7.08369219 C132.169105,6.86117628 132.015752,6.67443099 131.809481,6.56585009 C131.60321,6.45726918 131.36152,6.43606382 131.139278,6.50704791 C128.47403,7.2733187 126.044752,8.69105851 124.073629,10.6305985 C122.138909,12.5178106 120.747142,14.8842697 120.042374,17.4850494 C119.926252,17.8401989 120.054283,18.229186 120.359199,18.4476311 C120.664115,18.6660762 121.076153,18.6640013 121.378823,18.4424965 C128.604162,13.1070418 136.467326,8.68139585 144.78858,5.2667187 C153.333087,2.00269448 162.239092,0.457723008 170.170147,3.02542207 C172.947887,3.88439009 175.441512,5.47037099 177.389159,7.61681615 C179.788194,10.3803567 180.916507,14.5691878 178.933743,17.8658522 C178.252552,18.9804214 177.27952,19.8904368 176.118438,20.4988318 C175.903692,20.6137908 175.680278,20.712007 175.450214,20.792594 C174.140041,21.2800657 172.728567,21.437077 171.342278,21.2495573 C170.117566,21.1576512 169.012454,20.485318 168.373609,19.4434639 C168.373609,19.3455432 168.275019,19.2258623 168.220246,19.1061814 C167.398659,16.9301653 169.677194,16.6037629 170.301601,17.5394498 C170.926007,18.4751367 172.109092,17.7896917 172.700635,17.3871287 C173.421763,16.9151826 173.946949,16.2003724 174.179492,15.3743137 C174.378519,14.614474 174.378519,13.8166963 174.179492,13.0568565 C174.013299,12.3366306 173.712303,11.6538417 173.292178,11.0440416 C172.509327,9.90671511 171.507889,8.93426439 170.345419,8.18258035 C167.854744,6.65252937 164.940604,5.94417686 162.020002,6.15888533 C158.997246,6.30893075 156.071498,7.26753041 153.552177,8.93330592 C152.05256,9.92563745 150.76765,11.2055181 149.772876,12.6978139 C149.211821,13.4927974 148.962498,14.4639672 149.071788,15.4287141 C149.14144,15.8847916 149.334545,16.3135043 149.630467,16.6690433 C149.938481,17.0351791 150.363966,17.284894 150.835462,17.3762486 C151.597835,17.5149174 152.384551,17.3508293 153.026361,16.9192852 C153.29249,16.759915 153.452799,16.4716371 153.446901,16.163043 C153.441003,15.8544489 153.269794,15.5724214 152.997767,15.4231975 C152.725739,15.2739736 152.394221,15.280224 152.128092,15.4395942 C151.873369,15.6285473 151.557469,15.7176379 151.240778,15.6898361 C151.149175,15.6710463 151.065279,15.6255954 150.999779,15.5592751 C150.914647,15.4445016 150.861723,15.3093358 150.846416,15.1675922 C150.794595,14.6232088 150.951031,14.0794021 151.284596,13.6443809 C152.14948,12.3492276 153.266933,11.2393651 154.570945,10.3803567 C156.813978,8.87016707 159.424722,7.98704076 162.129547,7.82353768 C164.682865,7.63176345 167.232037,8.244739 169.414286,9.57523069 C170.371537,10.2076572 171.194143,11.0209781 171.83523,11.9688485 C172.128978,12.4075128 172.343947,12.8934289 172.470591,13.4050191 C172.596713,13.8976647 172.596713,14.4138246 172.470591,14.9064703 C172.396947,15.1531643 172.274,15.3825867 172.109092,15.5810353 C172.087792,14.1573694 171.404242,12.8236583 170.257783,11.9688485 C169.610658,11.4941134 168.860126,11.1773043 168.066884,11.0440416 C167.244217,10.9100813 166.401723,10.9621471 165.602122,11.1963627 C163.273632,11.8901769 161.601241,13.916977 161.373687,16.3208808 C161.322671,16.6813365 161.297048,17.0448893 161.297005,17.4088888 C161.267088,19.2582152 161.957862,21.0474854 163.224996,22.4028459 C164.550675,23.7810407 166.315554,24.6613297 168.220246,24.8943844 C171.850505,25.3568312 175.509781,24.2874206 178.309337,21.9458825 C179.556306,20.8324365 180.501752,19.4257723 181.058915,17.8549721 C182.643093,21.6587269 186.379114,24.1393945 190.5236,24.1393945 C194.668085,24.1393945 198.404107,21.6587269 199.988284,17.8549721 C200.541482,19.425045 201.483218,20.8317948 202.726908,21.9458825 C205.533065,24.283184 209.193726,25.3518391 212.826953,24.8943844 C214.727751,24.6589197 216.48839,23.7788155 217.811249,22.4028459 C219.074476,21.0696887 219.772696,19.3048283 219.761149,17.4741693 C219.757336,17.1099221 219.728053,16.7463778 219.673513,16.3861612 C219.488776,13.9685483 217.832977,11.9096224 215.49985,11.1963627 C214.700183,10.9625169 213.857774,10.9104564 213.035089,11.0440416 C212.24126,11.1753124 211.490276,11.4923124 210.844189,11.9688485 C209.687935,12.8215118 208.999084,14.1616821 208.981925,15.5919153 C208.82042,15.3928731 208.701175,15.1634057 208.631381,14.9173503 C208.499927,14.4253815 208.499927,13.9078681 208.631381,13.4158992 C208.737051,12.8996762 208.941591,12.408423 209.233879,11.9688485 C209.884824,11.017267 210.72331,10.2066848 211.69864,9.58611077 C213.876332,8.25438634 216.422457,7.64122132 218.972425,7.83441776 C221.680848,7.97155992 224.302556,8.82825382 226.563891,10.3150762 C227.86548,11.1770231 228.982397,12.2863533 229.850239,13.5791004 C230.176299,14.0178226 230.331899,14.5587241 230.288419,15.1023117 C230.264952,15.2437569 230.208699,15.377847 230.124102,15.4939946 C230.064312,15.5618819 229.9833,15.60786 229.894057,15.6245556 C229.577267,15.6534021 229.260997,15.5642071 229.006743,15.3743137 C228.594775,15.1317312 228.063033,15.2625524 227.812703,15.6680759 C227.689323,15.8632109 227.651136,16.099787 227.706918,16.3234495 C227.762699,16.5471119 227.907653,16.7386312 228.108475,16.8540047 C228.734792,17.2736413 229.499884,17.4373108 230.244601,17.3109681 C230.713316,17.2124312 231.136589,16.9640142 231.449596,16.6037629 C231.742525,16.2475969 231.931918,15.8187141 231.997321,15.3634337 C232.116038,14.39964 231.870089,13.4264056 231.307187,12.6325334 C230.308292,11.1399244 229.01975,9.860135 227.516932,8.86802544 C225.010784,7.21009632 222.100279,6.25528992 219.092925,6.10448492 C216.17207,5.8867582 213.257003,6.59533614 210.767508,8.12817994 C209.602653,8.8769041 208.600673,9.84987972 207.820749,10.9896412 C207.401596,11.601306 207.097276,12.283218 206.92248,13.0024561 C206.7193,13.7801984 206.7193,14.5965715 206.92248,15.3743137 C207.148841,16.1798205 207.657852,16.8783328 208.357519,17.3436083 C208.960016,17.7461713 210.28551,18.4316164 210.745599,17.4959295 L210.756553,17.4741693 Z M190.500519,5.0000047 C186.445618,4.99992354 182.955333,7.86423134 182.164187,11.8412294 C181.373042,15.8182274 183.50138,19.8002641 187.247594,21.3520815 C190.993808,22.9038989 195.314523,21.5932933 197.567358,18.2217799 C199.820194,14.8502665 199.377702,10.3568606 196.510494,7.48955367 C194.917932,5.89351792 192.755192,4.99763295 190.500519,5.0000047 Z M210.827768,14.9177954 C210.851255,14.0417594 211.242436,13.2213097 211.896638,12.675984 C212.317837,12.3468889 212.809677,12.1313374 213.328924,12.0482768 C213.885856,11.9571139 214.455086,11.9953794 214.996361,12.1603674 C216.675322,12.7085295 217.849265,14.2977593 217.935754,16.1395826 C217.978744,16.4363576 218.000184,16.7361276 217.999886,17.0363072 C218.008823,18.4715579 217.492343,19.8557071 216.556911,20.9034319 C215.531295,22.022823 214.167996,22.7356771 212.69829,22.9210622 C211.464316,23.069153 210.215675,23.0086014 209,22.7417173 C209.383263,22.7420131 209.76586,22.7082653 210.143691,22.6408358 C211.877022,22.4742244 213.424393,21.4328513 214.290907,19.8497805 C214.380103,19.6720043 214.45864,19.4885669 214.526058,19.3005367 C215.00106,18.2277104 214.903648,16.9720649 214.269529,15.9938649 C213.4601,14.920758 212.087326,14.5100871 210.859834,14.9738407 L210.827768,14.9177954 Z M122.346682,9.7580658 L121.404281,10.1627182 C119.662685,10.9358579 117.982585,11.8364326 116.378143,12.8568511 C114.904837,13.7805032 113.570352,14.9024153 112.41356,16.1899089 C112.25395,16.3713568 112.112479,16.5674885 111.991105,16.7755899 C111.729896,17.2081778 111.623148,17.7141407 111.687803,18.2131707 C111.762936,18.6044226 111.973428,18.9580797 112.283574,19.2141529 C112.377706,19.2911762 112.479292,19.3589424 112.586875,19.4164791 C112.999906,19.6450469 113.14951,20.1574207 112.922673,20.5665438 C112.694423,20.9712135 112.176579,21.1187021 111.763629,20.8966549 C110.826996,20.4126202 110.173952,19.5264463 109.997981,18.5006869 C109.859615,17.6259245 110.031738,16.7309996 110.48543,15.9662852 C110.661569,15.6618745 110.864549,15.3732507 111.092033,15.1037367 C111.772416,14.3212616 112.530848,13.6077808 113.355961,12.9739873 C109.896601,13.9801824 106.366604,14.7347318 102.794572,15.2315216 C97.3784753,15.9556364 92.0382037,15.8917439 88.1602784,14.2411882 C86.7247398,13.616543 85.478273,12.6369908 84.5423256,11.3979728 C83.6411176,10.234216 83.1131464,8.83283548 83.0258185,7.37274652 C82.8588849,5.73256956 83.5085114,4.11419102 84.7698017,3.02805784 C85.3767193,2.54783056 86.094827,2.22229055 86.8604151,2.08031938 C87.6025277,1.94472973 88.3665831,1.98119166 89.091847,2.18680684 C90.4893357,2.56882918 91.604405,3.60522252 92.0707003,4.95548101 C92.3250628,5.66531702 92.3250628,6.43928683 92.0707003,7.14912284 C91.8673012,7.7432528 91.4905869,8.26542449 90.9874809,8.65059614 C90.6146287,8.92960729 90.1866674,9.12908359 89.7309465,9.23627721 C91.4099365,10.5034781 94.1613137,10.8335892 97.0426773,10.7058043 C100.715504,10.4186966 104.346743,9.74758487 107.874871,8.70383987 C108.170924,8.6220446 108.488877,8.70173009 108.70896,8.91287959 C108.929044,9.12402909 109.017822,9.43456397 108.941852,9.72750873 C108.865883,10.0204535 108.636708,10.2513029 108.340655,10.3330981 C104.672153,11.4166699 100.894891,12.1057713 97.0751739,12.3883063 C92.6773032,12.5906324 88.5502373,11.7600302 86.8279185,8.42697245 C86.6789799,8.08660123 86.7709198,7.69062225 87.0553383,7.44749029 C87.3397567,7.20435834 87.7514217,7.16983638 88.0736208,7.36209778 C88.3592738,7.55369089 88.7043835,7.64039197 89.0485182,7.60701895 C89.3465027,7.58005035 89.6312513,7.47323638 89.871765,7.2982053 C90.1194845,7.12006375 90.3049243,6.87079737 90.4025425,6.58473926 C90.5291303,6.24068817 90.5291303,5.86391568 90.4025425,5.51986459 C90.1188582,4.69387609 89.4372836,4.0597388 88.5827339,3.82671385 C88.1285723,3.68301298 87.6477945,3.63938507 87.1745487,3.69892889 C86.6929457,3.78418795 86.2416548,3.98951267 85.8638533,4.29525871 C85.0440646,5.05630775 84.6418297,6.15558331 84.7806339,7.25561031 C84.8568101,8.38176382 85.2715272,9.46029906 85.9721752,10.3543956 C86.7216929,11.3519599 87.7220665,12.1409072 88.8752031,12.6438762 C92.4498271,14.1559982 97.4651329,14.1985932 102.610425,13.5170734 C108.804688,12.6273378 114.865103,10.9966369 120.65686,8.66124488 L121.740079,8.18205128 C122.032899,8.03542449 122.384892,8.064238 122.649012,8.25645484 C122.913131,8.44867168 123.043928,8.77121621 122.986762,9.08934391 C122.929595,9.4074716 122.694303,9.66644077 122.379179,9.7580658 L122.346682,9.7580658 Z M170.148674,14.9077735 C168.919734,14.4402025 167.545341,14.8542538 166.734957,15.936194 C166.087285,16.9176316 165.989189,18.1909925 166.478125,19.2700847 C166.54108,19.4616038 166.61986,19.6469058 166.713554,19.8238496 C167.58109,21.4199514 169.130286,22.4698965 170.865661,22.6378793 C171.240337,22.7058764 171.619833,22.7399043 172,22.7395912 C170.782891,23.0086722 169.532777,23.0697223 168.297348,22.9204124 C166.825909,22.7335013 165.461001,22.0147794 164.434176,20.886174 C163.501538,19.828072 162.988353,18.4327315 163.000201,16.9872172 C162.999903,16.6845666 163.021367,16.3823291 163.064408,16.0831112 C163.174083,14.2807493 164.308817,12.7291448 165.932359,12.1615517 C166.470644,11.9954094 167.037023,11.95682 167.591061,12.0485384 C168.113956,12.1331658 168.609653,12.3503174 169.035738,12.6814126 C169.691885,13.2302212 170.08382,14.0580425 170.105869,14.9416775 L170.148674,14.9077735 Z M381,5 L300,5 L300,7 L381,7 L381,5 Z" id="Shape"></path>
                    </g>
                </g>
            </g>
        </g>
    </g>
</svg>