<?xml version="1.0" encoding="UTF-8"?>
<svg width="150px" height="150px" viewBox="0 0 150 150" version="1.1" xmlns="http://www.w3.org/2000/svg" xmlns:xlink="http://www.w3.org/1999/xlink">
    <!-- Generator: Sketch 53.1 (72631) - https://sketchapp.com -->
    <title>Artboard</title>
    <desc>Created with Sketch.</desc>
    <g id="Artboard" stroke="none" stroke-width="1" fill="none" fill-rule="evenodd">
        <path d="M87.9491304,101.807339 C87.9491304,101.807339 88.2636451,102.47581 87.5632826,101.27281 C86.8635686,100.070739 86.4433511,94.4594213 86.618766,93.1905335 C86.7932081,91.9207177 87.7737156,87.6463415 87.7737156,87.6463415 C87.7737156,87.6463415 88.018194,89.0154534 88.2289512,89.817247 C88.4387357,90.6181125 88.5087719,96.3299635 88.5087719,97.5651339 C88.5087719,98.8012323 87.9491304,101.807339 87.9491304,101.807339 Z M125.242355,53.1789113 C124.978911,53.1789113 124.721915,53.2057686 124.469218,53.2463598 C124.163095,53.2967173 123.866491,53.3751528 123.582475,53.4804457 C122.913734,52.4211079 122.342632,51.1884185 121.854432,49.5174666 C120.551952,45.0609846 118.587792,43.159304 115.287991,43.159304 C114.850761,43.159304 114.445156,43.209051 114.062886,43.2972529 C114.215487,42.9783223 114.342296,42.6624438 114.443007,42.3514483 C115.578455,38.8743424 113.710093,36 113.710093,36 C112.657546,40.5962622 110.051665,42.2946817 109.29388,42.7008985 C107.094832,40.8974913 105.619486,39.0110706 103.834333,41.2469415 C102.437283,42.9966341 103.202129,44.0007312 104.647385,45.2025958 C100.789992,46.7426183 96.1450323,48.4816291 94.2852674,48.7660724 C90.9707285,49.2726989 81.5994415,47.5620714 75.0965587,49.7167601 C68.593983,51.8711435 35.443374,49.081951 35.443374,49.081951 C35.443374,49.081951 29.3242961,48.8283325 27.4749706,50.4763946 C25.6262593,52.1241516 21.2272413,52.3774648 22.1195109,68.5361036 C23.0127016,84.6950476 22.4388365,85.5825596 21.2272413,88.1800886 C20.0162602,90.7785332 18.6775487,97.9387528 22.693683,101.487275 C22.693683,101.487275 23.3307991,96.038293 24.2230687,94.4537118 C25.1159523,92.8691306 24.7972408,88.8771579 24.4146641,84.3782534 C24.0323944,79.8790438 23.7133758,63.720405 24.7972408,60.6785096 C24.7972408,60.6785096 28.6865659,74.682765 29.2601239,77.9779736 C29.8339889,81.2731823 25.7536825,89.1936468 25.8178547,91.9819238 C25.8807987,94.7705059 23.0759526,108.964594 24.351106,109.344869 C25.6262593,109.725144 25.8178547,108.140563 25.8807987,108.521143 C25.945585,108.901418 25.6738511,112.322368 27.7215269,113.463803 C29.7704308,114.604323 32.701779,114.730675 33.4675465,113.843773 C34.2323928,112.957177 31.8098164,111.436076 30.981105,110.358122 C30.1523935,109.281083 28.1127008,105.66908 28.813375,101.86755 C29.5146633,98.0654094 30.5988353,95.9745069 31.4914119,93.566505 C32.3836815,91.1581979 35.443374,88.4968828 35.443374,88.4968828 C35.443374,88.4968828 34.4878534,90.96745 35.443374,92.9323063 C36.4004298,94.8971626 38.0575458,99.0792728 38.5675457,100.282969 C39.0772386,101.48697 39.8414708,107.823463 40.2885268,108.204043 C40.7352756,108.584624 42.7752753,109.724228 43.7952752,110.61174 C44.815275,111.499557 50.0430045,111.625909 49.1501208,110.23177 C48.2575442,108.837327 45.8985259,107.760287 44.6242937,105.922698 C43.3485263,104.085719 41.8191406,97.6216534 41.6278523,96.4814386 C41.4362569,95.3403082 41.3094477,91.538473 41.3094477,91.538473 C41.3094477,91.538473 41.4169131,91.5329795 41.5882436,91.5277911 C41.5041136,91.0254374 41.6435115,90.4812717 42.0027529,90.1208344 L42.0027529,91.2753934 C42.0027529,91.7264742 42.3699774,92.0914894 42.8231742,92.0914894 C43.2769851,92.0914894 43.6439025,91.7264742 43.6439025,91.2753934 L43.6439025,89.8232676 C43.8969067,89.9245929 44.0970993,90.0887887 44.242024,90.2911341 C44.5404707,90.1223603 44.9080023,90.0506391 45.3295735,90.1397566 C45.3630413,90.1467761 45.3965091,90.1489125 45.4299769,90.1550164 L45.4299769,91.980703 C45.4299769,92.4317837 45.7975084,92.7964938 46.2510123,92.7964938 C46.7042091,92.7964938 47.0717406,92.4317837 47.0717406,91.980703 L47.0717406,90.1763802 C47.7223667,90.0915355 48.36808,89.9255085 49.0064243,89.7674166 C49.0362075,89.7600919 49.0644556,89.7567347 49.0936247,89.750936 L49.0936247,91.2753934 C49.0936247,91.7264742 49.4611563,92.0914894 49.9143531,92.0914894 C50.3678569,92.0914894 50.7353885,91.7264742 50.7353885,91.2753934 L50.7353885,88.7431765 C51.8588621,88.0931076 52.7799938,87.1985761 53.4075916,86.1483942 C53.9869834,86.0086142 54.5031242,86.1203161 54.8245992,86.1523618 C55.4614082,86.2152323 61.0720214,89.3843948 69.0404248,87.7363326 C77.0091352,86.0891861 79.8784605,84.8845747 82.0461904,84.9483609 C84.2136133,85.0118418 81.5994415,92.4894659 82.365209,94.4537118 C83.1300554,96.4179577 81.2804229,107.951035 82.1097485,108.584624 C82.93846,109.218212 82.2767804,108.141173 82.9264853,107.951035 C83.575269,107.760593 83.6391342,109.219128 84.2771714,110.168595 C84.9142875,111.118672 86.253306,113.083223 88.3571708,112.449635 C90.4613426,111.816352 89.9516498,113.21049 90.8436123,113.527284 C91.7361889,113.844384 98.7487646,114.857331 96.3261882,112.51281 C93.9036118,110.168595 91.9268632,110.295251 91.799747,107.380623 C91.6726308,104.465994 91.3533052,98.8894405 91.9268632,98.0657146 C92.5007282,97.2416836 92.8829979,93.3766727 93.0745933,92.425985 C93.2661887,91.4749921 94.6049001,87.4195385 94.6049001,87.4195385 C94.6049001,87.4195385 96.9636113,87.9267754 98.5577833,85.8358728 C100.151341,83.7449703 105.506187,72.7823052 107.036187,70.6914026 C107.717824,69.7596371 109.411785,67.3940576 111.080876,65.0571665 C111.0732,65.0309196 111.065524,65.0043675 111.058155,64.9778154 C111.728739,64.6512549 112.371074,64.3091294 112.983627,63.9343479 C113.139912,63.8940619 113.295891,63.8528604 113.450334,63.8092173 C116.941116,63.8067757 123.777141,63.8018925 125.135811,63.8018925 C127.763185,63.8018925 130,60.5182813 130,57.9073237 C130,55.2957556 127.869729,53.1789113 125.242355,53.1789113 L125.242355,53.1789113 Z" id="Fill-1" fill="#000000"></path>
    </g>
</svg>