<?xml version="1.0" encoding="UTF-8"?>
<svg width="150px" height="150px" viewBox="0 0 150 150" version="1.1" xmlns="http://www.w3.org/2000/svg" xmlns:xlink="http://www.w3.org/1999/xlink">
    <!-- Generator: Sketch 53.1 (72631) - https://sketchapp.com -->
    <title>Artboard Copy</title>
    <desc>Created with Sketch.</desc>
    <g id="Artboard-Copy" stroke="none" stroke-width="1" fill="none" fill-rule="evenodd">
        <path d="M84,49.0611035 C87.8503787,45.7422238 92.4942813,42.5644883 98.0204303,40 C98.6600477,42.1264546 99,44.2945002 99,46.4647582 C99,47.6664749 98.9049401,48.8469537 98.7229683,50 L84,49.0611035 Z M92.4929575,62 L86.252891,61.5484697 L85.2252873,61.4740948 L85.02068,61.4595719 L84.1976836,61.3997199 L79.2907616,61.045009 L78.8002521,61.0093619 L78.2631579,60.9706341 L77.7269771,60.9319064 L77.2355542,60.8962593 L76.6317799,60.8526905 L73,60.5895179 C73.7097316,59.6041608 74.5021283,58.5695139 75.3694258,57.5058212 C75.6055463,57.2166833 75.8466907,56.9257852 76.0946857,56.6322464 C76.3276092,56.3567514 76.5587059,56.0816963 76.8021338,55.8035607 C78.1795795,54.2271654 79.7319461,52.6085217 81.4633442,51 L98,52.0390478 C97.0404465,55.8075215 95.1181425,59.2155631 92.4929575,62 Z M90.8078496,38 C92.5453802,38 94.2829109,38.2019589 96,38.5850151 C90.0705914,41.5136415 85.1678023,45.1187193 81.1735259,48.8072439 C81.035432,48.8835888 80.9191424,48.9914482 80.8305624,49.1201693 C79.4482602,50.414038 78.1781594,51.7158963 77.0143545,53 L76,43.0898088 C80.0619606,39.9090667 85.2095939,38 90.8078496,38 Z M71.2540289,48.235401 C72.0581167,47.0778888 72.9583357,45.9935161 73.9488461,45 L75,55.6333939 C74.9456455,55.701082 74.8890449,55.7692244 74.8351395,55.8364582 C73.8895502,57.0207731 73.0329047,58.1723796 72.2580156,59.2767407 C71.7980235,59.9322706 71.364984,60.5705377 70.9633893,61.186545 C69.4396653,63.5215578 68.3292156,65.5340299 67.5862205,67 C67.2030434,65.2923515 67,63.5642603 67,61.834352 C67,57.5159412 68.1526756,53.4664657 70.1548094,49.9748493 C70.3282048,49.6727513 70.5078893,49.3747419 70.6938627,49.080821 C70.8748947,48.7946229 71.0617665,48.5129677 71.2540289,48.235401 Z M52.1544956,44.1516063 C53.0736986,44.0484423 53.884572,44 54.6616208,44 C60.0383416,44 65.0050549,45.7551348 69,48.7105612 C67.1003442,51.8288074 65.8593515,55.3754088 65.4721983,59.1664642 C65.3862659,60.0070271 65.3414713,60.8592521 65.3414713,61.7217934 C65.3414713,62.9485488 65.4402022,64.1739585 65.6253227,65.3926402 C65.757878,66.2659465 65.9329426,67.136113 66.159658,68 C65.9809368,67.9215056 65.8013014,67.8452539 65.6253227,67.7627226 C65.2779361,67.5999028 64.9351205,67.4290093 64.5968757,67.2504906 C57.1052108,63.2952698 52,55.5283608 52,46.6118452 C52,45.8493281 52.0493655,45.0540677 52.1544956,44.1516063 Z M86.7932863,66.2177083 C86.4612718,66.3939186 86.1247706,66.5631504 85.7837827,66.724095 C85.4611902,66.8763163 85.1336624,67.0206866 84.8029938,67.1589507 C84.7931231,67.1628762 84.7837011,67.167674 84.7742791,67.1715995 C83.2887384,67.7900804 81.7237835,68.2611378 80.0996044,68.5708144 C80.0515969,68.5799738 80.002692,68.5873886 79.9537872,68.5965481 C79.6599095,68.6506324 79.3655831,68.7034083 79.068116,68.7465886 C79.0272872,68.7526949 78.985561,68.7561842 78.9442836,68.7618543 C78.6100257,68.8089601 78.2739732,68.8521403 77.9347799,68.8852888 C77.6929478,68.9088417 77.4466289,68.9158203 77.2021047,68.9306499 C76.933801,68.9515858 76.6726761,68.9685962 76.4187299,68.9795003 C76.1405555,68.9890959 75.8623812,69 75.5819635,69 C75.0220255,69 74.4616389,68.9751386 73.9025982,68.9350115 C73.8240812,68.9297776 73.7455643,68.9236713 73.667496,68.917565 C73.5270629,68.9062247 73.386181,68.8826718 73.2457478,68.8687146 C72.908798,68.8346938 72.5718481,68.7993644 72.2362442,68.7513864 C71.898397,68.7029721 71.5627932,68.638856 71.2267406,68.5756122 C70.479708,68.4356035 69.7376106,68.2611378 69,68.0495981 C69.4226455,67.1742165 70.1521801,65.7579912 71.2267406,63.9854197 C71.5331811,63.4794691 71.8723743,62.9408063 72.2362442,62.3820799 C72.3183505,62.2551561 72.3995595,62.1295408 72.4852551,62 L73.2457478,62.055829 L77.8122935,62.3890585 L77.9347799,62.3977818 L78.8532039,62.4649511 L78.9442836,62.4714936 L79.8909736,62.5408437 L79.9537872,62.5452053 L84.7742791,62.8971899 L85.3364604,62.9381893 L85.7837827,62.9709016 L86.7932863,63.0446134 L91,63.351673 C89.7132194,64.4477538 88.3052984,65.4129852 86.7932863,66.2177083 Z M99.5860434,38.0232184 C99.5819971,38.010289 99.5739045,37.9995889 99.568959,37.9871054 C99.5626647,37.9710552 99.5595176,37.9541133 99.5523242,37.9385089 C99.5406349,37.9130961 99.5248993,37.8916958 99.5114116,37.8676205 C99.4974744,37.8430993 99.4844363,37.8176865 99.4687007,37.7949487 C99.4412758,37.7539315 99.4102541,37.716481 99.3769846,37.680368 C99.3621482,37.6643178 99.3491101,37.6469301 99.3338241,37.6317715 C99.2852685,37.5854043 99.2326666,37.5430495 99.1751192,37.5064907 C99.1724217,37.5047074 99.1697242,37.5020323 99.166577,37.500249 C99.105433,37.4623526 99.0393434,37.4315897 98.9701068,37.4066227 C98.96651,37.4057311 98.9638125,37.4035019 98.9602158,37.4021643 C96.2433509,36.4716979 93.4455601,36 90.6459709,36 C84.4600792,36 78.7835715,38.1966498 74.3632148,41.8431688 C74.2993732,41.8957778 74.2386787,41.9510619 74.1757363,42.0041168 C72.5468762,43.3741807 71.0951541,44.9435348 69.8551883,46.6729451 C65.6052258,43.5293327 60.3387431,41.6661706 54.6411048,41.6661706 C53.5733315,41.6661706 52.4583513,41.7504343 51.1325141,41.931445 C50.6833749,41.992525 50.3299981,42.3429546 50.2679549,42.788348 C50.0854219,44.1040195 50,45.2097008 50,46.2685689 C50,56.2740927 55.8909615,64.9398696 64.413366,69.037132 L64.4129164,84.3231755 C64.4129164,88.1921683 66.4693354,91.7076105 69.6636635,93.6933784 C70.316916,94.0995379 71.0137786,94.4468467 71.7547008,94.7143502 C71.557781,96.5017197 71.3356841,100.288232 71.1257262,105.409141 C71.0479473,107.318671 70.9715172,109.407873 70.8986839,111.656686 C70.8807003,112.210419 71.3190493,112.673646 71.8774386,112.691033 C71.8886783,112.691925 71.8994684,112.691925 71.9102586,112.691925 C72.4538114,112.691925 72.9034001,112.263474 72.9209341,111.720441 C73.3921031,97.1250029 73.804376,94.5061433 73.8434902,94.2863446 C73.9095798,94.0527248 73.8884491,93.8017173 73.781447,93.5805811 C73.6542134,93.3193193 73.4204272,93.1253793 73.1389846,93.0482491 C71.6733253,92.6469938 70.3731146,91.8988756 69.3161314,90.9108958 C67.5263186,89.2376613 66.4360658,86.8733759 66.4360658,84.3231755 L66.4365154,69.8989393 C66.5268828,69.9332689 66.6154517,69.971611 66.7062687,70.005049 C68.1274187,70.5240058 69.6097129,70.914561 71.1356171,71.1771603 L71.1356171,80.220563 C71.1356171,80.7742953 71.588353,81.2237013 72.1471918,81.2237013 C72.7055811,81.2237013 73.1587665,80.7742953 73.1587665,80.220563 L73.1587665,71.444218 C73.188889,71.446893 73.219461,71.4482305 73.2495835,71.4513514 C73.4172801,71.4656183 73.5854263,71.4781018 73.7540221,71.4892477 C73.9473452,71.5030688 74.1406684,71.5168898 74.3344411,71.5258066 C74.7210875,71.5431943 75.1090826,71.555232 75.4997752,71.555232 C75.818084,71.555232 76.1336954,71.5427485 76.4493067,71.5316025 C76.9218244,71.5142147 77.3916447,71.485681 77.8574187,71.4428805 L77.8574187,80.220563 C77.8574187,80.7742953 78.3101545,81.2237013 78.8689934,81.2237013 C79.4273826,81.2237013 79.8805681,80.7742953 79.8805681,80.220563 L79.8805681,71.1740394 C81.460423,70.9016317 82.9912727,70.4878929 84.4582808,69.9404023 C84.5428035,69.9083019 84.626427,69.8739723 84.7109497,69.841426 L84.7105001,84.3231755 C84.7105001,86.8582173 83.6341846,89.2104651 81.8628049,90.8819163 C80.8004267,91.8846087 79.4876275,92.6425354 78.0080309,93.0478032 C77.7265883,93.1244876 77.4928022,93.3184276 77.3660181,93.5796894 C77.259016,93.7994882 77.2374358,94.0482664 77.3017269,94.2801028 C77.3385932,94.5025766 77.7621058,97.3617435 78.2355228,112.028962 C78.2535064,112.571549 78.7026455,113 79.2461983,113 C79.2569885,113 79.2682282,113 79.2790183,112.999554 C79.8374075,112.981721 80.2757566,112.518494 80.257773,111.964761 C80.1849397,109.703019 80.10806,107.599995 80.0302811,105.675307 C79.8162769,100.413959 79.5905833,96.5306992 79.3914155,94.7143502 C80.1449263,94.4419425 80.8543773,94.0879461 81.5170711,93.672424 C84.692067,91.6826435 86.7336495,88.1783473 86.7336495,84.3231755 L86.7340991,68.962231 C93.7445366,65.5355108 98.9363876,59.0057496 100.500507,51.1946465 C100.525234,51.1184079 100.543667,51.0394944 100.549512,50.9556766 C100.549962,50.9498807 100.547264,50.9449765 100.547264,50.9391806 C100.834551,49.4233272 101,47.865565 101,46.2685689 C101,43.4914364 100.524335,40.7174248 99.5860434,38.0232184 L99.5860434,38.0232184 Z" id="Fill-1" fill="#000000"></path>
    </g>
</svg>