<?xml version="1.0" encoding="UTF-8"?>
<svg width="150px" height="150px" viewBox="0 0 150 150" version="1.1" xmlns="http://www.w3.org/2000/svg" xmlns:xlink="http://www.w3.org/1999/xlink">
    <!-- Generator: Sketch 53.1 (72631) - https://sketchapp.com -->
    <title>Artboard Copy 2</title>
    <desc>Created with Sketch.</desc>
    <g id="Artboard-Copy-2" stroke="none" stroke-width="1" fill="none" fill-rule="evenodd">
        <path d="M97.2714394,114 L97.2714394,109.828002 L97.970025,109.806421 L98.658799,109.741678 L99.3416861,109.635735 L100.014761,109.488592 L100.680969,109.301229 L101.338346,109.072667 L101.987873,108.805848 L102.62857,108.49979 L103.259456,108.154494 L103.879549,107.770941 L104.487868,107.351092 L105.084413,106.892987 L105.668203,106.398586 L106.237275,105.868871 L106.79163,105.304822 L107.329306,104.707421 L107.84932,104.076667 L108.350693,103.413542 L108.832442,102.720008 L109.292606,101.996063 L109.732165,101.243672 L110.148177,100.462832 L110.540641,99.6555067 L110.907595,98.8236576 L111.249038,97.9672845 L111.564972,97.0873686 L111.852451,96.1848908 L112.110496,95.2608319 L112.339106,94.3191159 L112.538282,93.3567998 L112.705079,92.3778075 L112.840479,91.382139 L116.983916,91.8726161 L116.829874,93.009542 L116.638547,94.1297917 L116.410918,95.2323842 L116.147968,96.3163386 L115.848714,97.379693 L115.517082,98.4214663 L115.152091,99.4416587 L114.754721,100.438308 L114.325954,101.410434 L113.865791,102.356074 L113.375211,103.275228 L112.855196,104.166915 L112.306728,105.029174 L111.728825,105.861023 L111.12345,106.660501 L110.491583,107.427607 L109.833225,108.16038 L109.148376,108.857838 L108.438016,109.519001 L107.704109,110.139945 L106.945672,110.721651 L106.162707,111.262157 L105.358156,111.759501 L104.531039,112.21172 L103.684298,112.616855 L102.816953,112.973922 L101.930966,113.281942 L101.026337,113.536009 L100.10699,113.736123 L99.1739078,113.881305 L98.22807,113.970571 L97.2714394,114 Z M53.7285606,114 L53.7285606,109.828002 L97.2704583,109.828002 L97.2704583,114 L53.7285606,114 Z M36.0882933,89.5418689 L36.0882933,93.7128862 L38.1595211,91.382139 L38.2949211,92.3778075 L38.4617182,93.3567998 L38.6599125,94.3191159 L38.8895038,95.2608319 L39.1485299,96.1848908 L39.4360097,97.0873686 L39.7499807,97.9672845 L40.0914242,98.8236576 L40.459359,99.6555067 L40.8518229,100.462832 L41.2688157,101.243672 L41.707394,101.996063 L42.168539,102.720008 L42.6493071,103.413542 L43.1516608,104.076667 L43.6716754,104.707421 L44.2083696,105.304822 L44.7627248,105.868871 L45.3317973,106.398586 L45.9155872,106.892987 L46.5121322,107.351092 L47.1204511,107.770941 L47.7405439,108.154494 L48.3714295,108.49979 L49.0121267,108.805848 L49.6616543,109.072667 L50.3190312,109.301229 L50.9852385,109.488592 L51.6592951,109.635735 L52.341201,109.741678 L53.029975,109.806421 L53.7285606,109.828002 L53.7285606,114 L52.77193,113.970571 L51.8260922,113.881305 L50.8920284,113.736123 L49.973663,113.536009 L49.0690339,113.281942 L48.184028,112.973922 L47.3157019,112.616855 L46.4689612,112.21172 L45.6418437,111.759501 L44.8372929,111.262157 L44.0543276,110.721651 L43.2958913,110.139945 L42.5619839,109.519001 L41.8516244,108.857838 L41.1667751,108.16038 L40.508417,107.427607 L39.8755691,106.660501 L39.2711749,105.861023 L38.6932719,105.029174 L38.1448037,104.166915 L37.6247892,103.275228 L37.1342094,102.356074 L36.6740456,101.410434 L36.2452789,100.438308 L35.8469281,99.4416587 L35.4829179,98.4214663 L35.151286,97.379693 L34.8530135,96.3163386 L34.5900627,95.2323842 L34.3624337,94.1297917 L34.1701264,93.009542 L34.0160844,91.8726161 L36.0882933,89.5418689 Z M34.0160844,91.8726161 L33.7403786,89.5418689 L36.0882933,89.5418689 L34.0160844,91.8726161 Z M114.911707,93.7128862 L36.0882933,93.7128862 L36.0882933,89.5418689 L114.911707,89.5418689 L116.983916,91.8726161 L114.911707,93.7128862 Z M114.911707,89.5418689 L117.259621,89.5418689 L116.983916,91.8726161 L114.911707,89.5418689 Z M35.8655701,56.3022358 L115.13443,56.3022358 L115.13443,60.4732531 L35.8655701,60.4732531 L33.7786438,58.3877444 L35.8655701,56.3022358 Z M35.8655701,60.4732531 L33.7786438,60.4732531 L33.7786438,58.3877444 L35.8655701,60.4732531 Z M115.13443,60.4732531 L115.13443,56.3022358 L113.048485,58.3877444 L112.859121,56.405236 L112.309672,54.5708516 L111.413873,52.8453532 L110.168781,51.2091216 L108.579303,49.6641187 L106.659174,48.2201541 L104.430961,46.8919422 L101.922136,45.6902733 L99.1640962,44.6210332 L96.1872582,43.6920696 L93.024981,42.9053443 L89.7076806,42.2647812 L86.265773,41.7693993 L82.7335987,41.4231225 L79.1386301,41.2230078 L75.5132457,41.1719982 L71.88688,41.2671508 L68.2909303,41.5104274 L64.7567937,41.8979043 L61.3129237,42.4315434 L57.993661,43.1064399 L54.8284404,43.9225938 L51.8476777,44.8751003 L49.0847325,45.9600357 L46.5700206,47.1715141 L44.3369015,48.5007071 L42.4118665,49.9348621 L40.8194446,51.4612268 L39.5753343,53.064106 L38.681498,54.7395758 L38.1389168,56.5003886 L37.9515153,58.3877444 L33.7786438,58.3877444 L34.0474815,55.6822728 L34.8294657,53.1376776 L36.0745571,50.793197 L37.7238863,48.6645264 L39.7215271,46.7467609 L42.0252897,45.0281292 L44.5998523,43.4948978 L47.4177425,42.1362762 L50.4514877,40.9444168 L53.6736156,39.913434 L57.058616,39.0403847 L60.5799976,38.3242882 L64.2102878,37.7631824 L67.9229955,37.3551054 L71.6916293,37.1000573 L75.4877355,37 L79.2838417,37.0549334 L83.0524755,37.2628957 L86.7661643,37.6287916 L90.3993981,38.1506593 L93.9237231,38.8314415 L97.311667,39.6740812 L100.53772,40.6825021 L103.576371,41.8596471 L106.399167,43.2143449 L108.979616,44.754443 L111.287303,46.4907319 L113.288869,48.4389069 L114.937217,50.6107395 L116.178384,53.0072107 L116.955462,55.612625 L117.220375,58.3877444 L115.13443,60.4732531 Z M117.220375,58.3877444 L117.220375,60.4732531 L115.13443,60.4732531 L117.220375,58.3877444 Z M76.4708574,72.2741321 L100.589721,72.2741321 C111.26768,72.2741321 120,74.1104784 120,76.3568635 L120,81.8001784 C120,84.0465635 111.26768,85.8829097 100.589721,85.8829097 L50.4112602,85.8829097 C39.733301,85.8829097 31,84.0465635 31,81.8001784 L31,76.3568635 C31,74.7245557 35.6114498,73.3100197 42.2274085,72.6567042 C51.4355907,86.0526148 63.0525196,76.7600357 76.4708574,72.2741321 Z M42.9554289,69.3528505 C39.5066531,69.3528505 38.0015544,67.3644563 34.6538381,67.3644563 C34.3182815,67.3644563 33.9895931,67.3821135 33.6697351,67.415466 L33.6697351,64.3960889 C37.4805587,64.3960889 39.3437807,66.3835021 42.8406332,66.3835021 C46.1579336,66.3835021 47.6071062,64.3960889 50.9793516,64.3960889 C54.4742418,64.3960889 56.0195681,66.3835021 59.3849453,66.3835021 C62.679679,66.3835021 64.0915675,64.3960889 67.4088679,64.3960889 C70.4504625,64.3960889 71.7132148,66.3835021 74.8980586,66.3835021 C78.4125721,66.3835021 80.3287766,64.3960889 84.1817901,64.3960889 C87.7934384,64.3960889 89.4427675,66.3835021 92.8552404,66.3835021 C96.2755625,66.3835021 97.9396091,64.3960889 101.566956,64.3960889 C104.966674,64.3960889 106.435469,66.3835021 109.762581,66.3835021 C112.964105,66.3835021 114.245499,64.3960889 117.329284,64.3960889 L117.329284,67.5341614 C117.202714,67.5292566 117.076145,67.5272947 116.948594,67.5272947 C113.865791,67.5272947 112.417599,69.3528505 109.362268,69.3528505 C106.161726,69.3528505 104.824406,67.3644563 101.575786,67.3644563 C98.1672381,67.3644563 96.530664,69.3528505 92.9317708,69.3528505 C89.5006559,69.3528505 88.0092935,67.3644563 84.6684452,67.3644563 C81.1470637,67.3644563 79.2210475,69.3528505 75.3562601,69.3528505 C71.7563858,69.3528505 70.1188305,67.3644563 66.7102823,67.3644563 C63.4616631,67.3644563 62.1253238,69.3528505 58.9267438,69.3528505 C55.7566173,69.3528505 54.4349954,67.3644563 51.1981501,67.3644563 C47.8602454,67.3644563 46.3767322,69.3528505 42.9554289,69.3528505 Z M48.0407788,51.5956176 C48.7570252,52.2548188 49.1112238,53.0376202 48.8306122,53.3407351 C48.5509817,53.6448309 47.7425063,53.3554494 47.0262598,52.6952672 C46.3100133,52.036066 45.9558147,51.2542455 46.2364264,50.9501497 C46.5160568,50.6460539 47.3245323,50.9354354 48.0407788,51.5956176 Z M62.5923558,47.7385056 C63.5009095,47.388305 64.3594241,47.4177336 64.5075792,47.8032486 C64.6567154,48.1887636 64.0395661,48.7851838 63.1300312,49.1353844 C62.2214775,49.4846041 61.3629629,49.4561564 61.2148078,49.0696605 C61.0656715,48.6851264 61.6828209,48.0887063 62.5923558,47.7385056 Z M76.6925994,43.7362125 C76.1009602,44.5092044 75.3542978,44.9329766 75.0256094,44.6818523 C74.6979021,44.4307281 74.9117949,43.5988789 75.5044152,42.825887 C76.0960544,42.0528951 76.8427168,41.6291229 77.1704241,41.8802471 C77.4991125,42.1313714 77.2842386,42.9622396 76.6925994,43.7362125 Z M91.7043403,47.9042869 C92.0467649,48.8155933 92.0094809,49.6729473 91.622904,49.8181285 C91.235346,49.9633098 90.6437068,49.3404038 90.3022633,48.4290974 C89.9608198,47.51681 89.9981038,46.6584751 90.3846807,46.5142748 C90.7712575,46.3690936 91.3628967,46.9919995 91.7043403,47.9042869 Z M105.057921,49.7631951 C106.024364,49.8838525 106.767101,50.3135104 106.716081,50.7235493 C106.665061,51.1335881 105.839906,51.3690171 104.872482,51.2483598 C103.90604,51.1286834 103.163302,50.6980445 103.214323,50.2880056 C103.265343,49.8779667 104.091479,49.6435187 105.057921,49.7631951 Z" id="Combined-Shape" fill="#1A1919"></path>
    </g>
</svg>