<svg xmlns="http://www.w3.org/2000/svg" width="64" height="60" viewBox="0 0 64 60"><defs><style>
      .cls-1 {
        fill: #fe3a46;
        fill-rule: evenodd;
      }
    </style></defs><path id="about-icon01" class="cls-1" d="M935.471,944.319v2.833a0.927,0.927,0,1,1-1.853,0v-2.833A0.927,0.927,0,1,1,935.471,944.319Zm-0.927,7.4a0.931,0.931,0,0,0-.926.937v2.833a0.927,0.927,0,1,0,1.853,0v-2.833A0.932,0.932,0,0,0,934.544,951.718Zm-5.529-.878h2.806a0.937,0.937,0,0,0,0-1.873h-2.806A0.937,0.937,0,0,0,929.015,950.84Zm11.058-1.873h-2.8a0.937,0.937,0,0,0,0,1.873h2.8A0.937,0.937,0,0,0,940.073,948.967Zm-53.411,33.911V941.4a0.932,0.932,0,0,1,.927-0.936h39.028a0.932,0.932,0,0,1,.927.936v41.475a0.932,0.932,0,0,1-.927.936H887.589A0.932,0.932,0,0,1,886.662,982.878Zm1.854-.936H925.69v-39.6H888.516v39.6Zm-1.854-43.413V931.8a4.778,4.778,0,0,1,4.748-4.8H922.8a4.778,4.778,0,0,1,4.749,4.8v6.734a0.931,0.931,0,0,1-.927.936H887.589A0.931,0.931,0,0,1,886.662,938.529Zm24.4-9.658a2.235,2.235,0,0,0-.1.665v2.792a2.217,2.217,0,0,0,2.2,2.226h12.53V931.8a2.912,2.912,0,0,0-2.9-2.924H911.059Zm-22.543,8.722H925.69v-1.167H913.16a4.082,4.082,0,0,1-4.057-4.1v-2.792a4.111,4.111,0,0,1,.061-0.665H891.41a2.912,2.912,0,0,0-2.894,2.924v5.8Zm9.078-4.355a3.169,3.169,0,1,1-3.169-3.2A3.189,3.189,0,0,1,897.594,933.238Zm-1.854,0a1.315,1.315,0,1,0-1.315,1.328A1.323,1.323,0,0,0,895.74,933.238Zm-15.727,7.418a3.045,3.045,0,1,1,3.014-3.044A3.033,3.033,0,0,1,880.013,940.656Zm0-1.872a1.173,1.173,0,1,0-1.161-1.172A1.168,1.168,0,0,0,880.013,938.784Zm1.194,7.547a0.927,0.927,0,1,0-1.854,0v1.54a0.927,0.927,0,1,0,1.854,0v-1.54Zm-0.927,5.1a0.932,0.932,0,0,0-.927.936v21.066a0.927,0.927,0,1,0,1.854,0V952.367A0.932,0.932,0,0,0,880.28,951.431ZM907.1,976.4a14.611,14.611,0,1,1,14.465-14.61A14.555,14.555,0,0,1,907.1,976.4Zm12.611-14.61A12.612,12.612,0,1,0,907.1,974.529,12.689,12.689,0,0,0,919.714,961.792ZM907.1,951.338a10.414,10.414,0,0,0-10.35,10.454,10.538,10.538,0,0,0,.387,2.838,0.924,0.924,0,0,0,1.143.647,0.937,0.937,0,0,0,.641-1.155,8.685,8.685,0,0,1-.317-2.33,8.5,8.5,0,1,1,8.5,8.581,8.356,8.356,0,0,1-3.725-.866,0.921,0.921,0,0,0-1.239.43,0.94,0.94,0,0,0,.426,1.252,10.158,10.158,0,0,0,4.538,1.056A10.454,10.454,0,0,0,907.1,951.338Zm-6.457,16.031a0.921,0.921,0,0,0-1.307-.1,0.942,0.942,0,0,0-.1,1.32c0.117,0.138.238,0.274,0.362,0.4a0.921,0.921,0,0,0,1.311.033,0.943,0.943,0,0,0,.032-1.324C900.843,967.6,900.743,967.483,900.646,967.369Zm21.824,10.117h-7.2a0.937,0.937,0,0,0,0,1.873h7.2A0.937,0.937,0,0,0,922.47,977.486Zm8.6,7.638H879.478a0.936,0.936,0,0,0,0,1.872h51.591A0.936,0.936,0,0,0,931.069,985.124Zm3.475,0h-1.219a0.936,0.936,0,0,0,0,1.872h1.219A0.936,0.936,0,0,0,934.544,985.124Zm-33.36-23.813a6.585,6.585,0,0,1,3.845-1.6,3.451,3.451,0,0,1,2.494.946,4.756,4.756,0,0,0,3.218,1.231,5.273,5.273,0,0,0,4.158-2.129,0.942,0.942,0,0,0-.236-1.3,0.922,0.922,0,0,0-1.29.238,3.434,3.434,0,0,1-2.632,1.32,2.944,2.944,0,0,1-2.087-.842,5.259,5.259,0,0,0-3.625-1.334,8.345,8.345,0,0,0-5.1,2.1,0.941,0.941,0,0,0-.055,1.322A0.92,0.92,0,0,0,901.184,961.311Zm3.845,1.861a3.455,3.455,0,0,1,2.494.946,4.756,4.756,0,0,0,3.218,1.231,7.35,7.35,0,0,0,4.068-1.486,0.942,0.942,0,0,0,.158-1.314,0.92,0.92,0,0,0-1.3-.16,5.544,5.544,0,0,1-2.925,1.088,2.949,2.949,0,0,1-2.087-.843,5.255,5.255,0,0,0-3.625-1.334,6.885,6.885,0,0,0-4.083,1.49,0.942,0.942,0,0,0-.186,1.311,0.921,0.921,0,0,0,1.3.187A5.073,5.073,0,0,1,905.029,963.172Zm-1.97,3.956a4.452,4.452,0,0,1,1.97-.494,2.458,2.458,0,0,1,1.563.653,4.89,4.89,0,0,0,3.141,1.13,7.849,7.849,0,0,0,1.717-.209,0.938,0.938,0,0,0,.7-1.117,0.928,0.928,0,0,0-1.106-.711,3.45,3.45,0,0,1-3.387-.623,4.242,4.242,0,0,0-2.633-1,6.265,6.265,0,0,0-2.785.685,0.941,0.941,0,0,0-.425,1.252A0.921,0.921,0,0,0,903.059,967.128Z" transform="translate(-877 -927)"></path></svg>