<svg xmlns="http://www.w3.org/2000/svg" width="67" height="60" viewBox="0 0 67 60"><defs><style>
      .cls-1 {
        fill: #fe3a46;
        fill-rule: evenodd;
      }
    </style></defs><path id="about-icon02" class="cls-1" d="M1303.58,930.836v-2.821a1.015,1.015,0,1,1,2.03,0v2.821A1.015,1.015,0,1,1,1303.58,930.836Zm1.02,9.318a1.012,1.012,0,0,0,1.01-1.017v-2.821a1.015,1.015,0,1,0-2.03,0v2.821A1.02,1.02,0,0,0,1304.6,940.154Zm-5.57-5.561h2.83a1.017,1.017,0,0,0,0-2.034h-2.83A1.017,1.017,0,0,0,1299.03,934.593Zm8.31,0h2.82a1.017,1.017,0,1,0,0-2.034h-2.82A1.017,1.017,0,1,0,1307.34,934.593Zm28.66,19.86a2.7,2.7,0,0,1-2.69,2.693h-8.42l-20.12,12.946a3.441,3.441,0,0,1,.21,1.2,3.525,3.525,0,0,1-.09.8l20.25,13.03a1.015,1.015,0,0,1-.55,1.872h-7.28a1.017,1.017,0,1,1,0-2.033h3.82l-17.24-11.1a3.577,3.577,0,0,1-4.99,0l-17.24,11.1h3.82a1.017,1.017,0,1,1,0,2.033h-7.28a1.015,1.015,0,0,1-.55-1.872l20.25-13.03a3.525,3.525,0,0,1-.09-0.8,3.441,3.441,0,0,1,.21-1.2l-20.12-12.946h-6.21a2.694,2.694,0,0,1,0-5.387h1.52v-8.553a1.02,1.02,0,0,1,1.02-1.016h19.62a1.018,1.018,0,0,1,.96.689l0.85,2.5h0.58a1.01,1.01,0,0,1,1,.849l0.39,2.34h0.51a1.029,1.029,0,0,1,1,.8l0.52,2.389h7.9l-0.08-3.582a1.018,1.018,0,0,1,1.02-1.039h7.7a0.73,0.73,0,0,0,.54-0.231,0.755,0.755,0,0,0,.21-0.552,0.822,0.822,0,0,0-.84-0.7h-5.86a2.892,2.892,0,0,1-2.88-2.82,2.647,2.647,0,0,1,2.53-2.729,36.181,36.181,0,0,1,12.13,1.66,13.17,13.17,0,0,1,9.14,9.994h2.14A2.7,2.7,0,0,1,1336,954.453Zm-26.41-2.694h19.5a11.166,11.166,0,0,0-7.66-8.051,34.1,34.1,0,0,0-11.43-1.573,0.639,0.639,0,0,0-.6.656,0.853,0.853,0,0,0,.85.83h5.86a2.83,2.83,0,0,1,2.87,2.628,2.75,2.75,0,0,1-.76,2.057,2.8,2.8,0,0,1-2.02.866h-6.66Zm-34.34-3.19h20.32l-0.19-1.156h-20.13v1.156Zm0-3.189h18.26l-0.39-1.156h-17.87v1.156Zm0,6.379h22.33l-0.26-1.156h-22.07v1.156Zm26.29,18c-0.05,0-.1-0.015-0.15-0.015s-0.09.01-.14,0.015l0.14,0.091Zm0.52,2.939-0.67-.43-0.66.43a1.5,1.5,0,0,0,.66.156A1.542,1.542,0,0,0,1302.06,972.7Zm19.07-15.549h-39.47l17.56,11.3a3.566,3.566,0,0,1,4.35,0Zm12.84-2.693a0.663,0.663,0,0,0-.66-0.66h-61.62a0.66,0.66,0,0,0,0,1.32h61.62A0.663,0.663,0,0,0,1333.97,954.453Zm-59.74-13.624h19.76a1.017,1.017,0,1,0,0-2.034h-19.76A1.017,1.017,0,1,0,1274.23,940.829Zm0-3.108h19.76a1.017,1.017,0,1,0,0-2.033h-19.76A1.017,1.017,0,1,0,1274.23,937.721Zm0-3.108h19.76a1.017,1.017,0,1,0,0-2.034h-19.76A1.017,1.017,0,1,0,1274.23,934.613Zm36.96,3.583a1.019,1.019,0,0,0,1.15.865c0.12-.017,11.96-1.581,17.43,6.319a1.015,1.015,0,0,0,.84.438,0.974,0.974,0,0,0,.57-0.181,1.009,1.009,0,0,0,.26-1.414c-6.18-8.919-18.85-7.251-19.39-7.176A1.017,1.017,0,0,0,1311.19,938.2Zm19.73,8.963a10.555,10.555,0,0,1,.61,1.18,1.019,1.019,0,0,0,.96.67,0.971,0.971,0,0,0,.34-0.062,1.01,1.01,0,0,0,.61-1.3,12.259,12.259,0,0,0-.77-1.519,1.026,1.026,0,0,0-1.4-.358A1.013,1.013,0,0,0,1330.92,947.159Z" transform="translate(-1269 -927)"></path></svg>