<svg xmlns="http://www.w3.org/2000/svg" width="61" height="61" viewBox="0 0 61 61"><defs><style>
      .cls-1 {
        fill: #fe3a46;
        fill-rule: evenodd;
      }
    </style></defs><path id="about-icon03" class="cls-1" d="M883.094,1197.05v-2.98a0.986,0.986,0,0,1,1.972,0v2.98A0.986,0.986,0,1,1,883.094,1197.05Zm0.986,9.75a0.984,0.984,0,0,0,.986-0.98v-2.98a0.986,0.986,0,1,0-1.972,0v2.98A0.984,0.984,0,0,0,884.08,1206.8Zm-5.882-5.87h2.984a0.985,0.985,0,1,0,0-1.97H878.2A0.985,0.985,0,1,0,878.2,1200.93Zm8.78,0h2.985a0.985,0.985,0,1,0,0-1.97h-2.985A0.985,0.985,0,1,0,886.978,1200.93Zm31.345-5.58a2.738,2.738,0,1,1,2.738,2.73A2.743,2.743,0,0,1,918.323,1195.35Zm1.973,0a0.766,0.766,0,0,0,1.531,0A0.766,0.766,0,1,0,920.3,1195.35Zm17.712,9.68a5.106,5.106,0,1,1-5.106-5.1A5.11,5.11,0,0,1,938.008,1205.03Zm-1.973,0a3.134,3.134,0,1,0-3.133,3.13A3.132,3.132,0,0,0,936.035,1205.03Zm-0.752,44.98a0.986,0.986,0,0,1-.986.99H877.982a0.985,0.985,0,1,1,0-1.97h2.166c-0.194-4.25-.846-20.36.054-28.28,0.662-5.82,9.956-8.91,12.707-9.71a5.039,5.039,0,0,1,.725-2.38,6.628,6.628,0,0,1,4.323-2.93,0.982,0.982,0,0,1,1.136,1.11,2.01,2.01,0,0,0,.4,1.18l5.8-2.35v-5.35a3.573,3.573,0,0,1,2.089-3.24,2.674,2.674,0,0,0,1.576-2.47,2.731,2.731,0,0,0-2.641-2.64,2.692,2.692,0,0,0-1.919.77,2.656,2.656,0,0,0-.8,1.91,0.986,0.986,0,0,1-1.972,0,4.654,4.654,0,0,1,4.718-4.65,4.646,4.646,0,0,1,1.852,8.88,1.577,1.577,0,0,0-.932,1.44v5.47l5.731,2.32a2.025,2.025,0,0,0,.459-1.27,0.954,0.954,0,0,1,.279-0.84,1,1,0,0,1,.857-0.26,6.628,6.628,0,0,1,4.323,2.93,5.051,5.051,0,0,1,.725,2.38c2.751,0.8,12.045,3.89,12.706,9.71,0.9,7.91.25,24.01,0.055,28.27h1.9A0.984,0.984,0,0,1,935.283,1250.01Zm-15.928-36.99c-1.242,3.78-6.761,7.67-7.56,7.67a1,1,0,0,1-.717-0.31l-3.812-4.03v32.68h12.755v-22.59a0.986,0.986,0,0,1,1.972,0v22.59h8.433c0.183-4.07.838-20.33-.039-28.05C929.926,1216.93,922.968,1214.08,919.355,1213.02Zm-18.363-3.48a23.729,23.729,0,0,0,5.292,3.26,23.417,23.417,0,0,0,5.184-3.18l-5.338-2.17Zm13.141,0.29a22.466,22.466,0,0,1-6.191,4.37l4,4.23c1.92-1.32,7.264-5.4,5.275-8.76a4.3,4.3,0,0,0-1.97-1.67A4.806,4.806,0,0,1,914.133,1209.83Zm-13.528,8.59,4-4.23a22.466,22.466,0,0,1-6.191-4.37,4.793,4.793,0,0,1-1.115-1.83,4.355,4.355,0,0,0-1.97,1.67C893.337,1213.02,898.684,1217.1,900.605,1218.42Zm-18.481,30.61h8.431v-22.6a0.986,0.986,0,0,1,1.972,0v22.6h12.767v-32.7c-3.82,4.04-4.142,4.75-5.047,4.21-0.307-.18-5.721-3.48-7.053-7.53-3.613,1.06-10.572,3.92-11.032,7.96C881.284,1228.7,881.941,1244.98,882.124,1249.03Zm29.076-23.58a0.984,0.984,0,0,0-.986.98v1.94a0.986,0.986,0,1,0,1.972,0v-1.94A0.984,0.984,0,0,0,911.2,1225.45Zm0,6.51a0.984,0.984,0,0,0-.986.98v1.94a0.986,0.986,0,1,0,1.972,0v-1.94A0.984,0.984,0,0,0,911.2,1231.96Zm0,6.5a0.986,0.986,0,0,0-.986.99v1.94a0.986,0.986,0,0,0,1.972,0v-1.94A0.986,0.986,0,0,0,911.2,1238.46Z" transform="translate(-877 -1190)"></path></svg>