<svg xmlns="http://www.w3.org/2000/svg" width="72" height="60" viewBox="0 0 72 60"><defs><style>
      .cls-1 {
        fill: #fe3a46;
        fill-rule: evenodd;
      }
    </style></defs><path id="about-icon04" class="cls-1" d="M1305.54,1230.86a3.125,3.125,0,0,1-1.44-.35,3.207,3.207,0,0,1-.31-0.19,3.13,3.13,0,0,1,1.43-5.71l23.8-2.02,2.2-.22a5.007,5.007,0,0,0,3.48-5.23,4.521,4.521,0,0,0-.14-0.75,4.974,4.974,0,0,0-4.32-3.68l-2.13.22c-0.02,0-.07.01-0.12,0.01l-19.8,1.62-0.88.09a0.86,0.86,0,0,0,.25,1.7c7.19-.59,20.74-1.71,21.33-1.77h0.01a3.13,3.13,0,0,1,1.36.16,2.518,2.518,0,0,1,.34.15,3.094,3.094,0,0,1,1.74,2.49,2.853,2.853,0,0,1-.53,2.23c-1.08,1.28-3.53,1.44-9.46,1.82-3.38.22-8.02,0.52-14.11,1.14a7.2,7.2,0,0,1-3.99-.72c-0.07-.04-0.14-0.07-0.2-0.11a7.114,7.114,0,0,1,2.53-13.31c0.02,0,.06-0.01.09-0.01l0.89-.09s0.05-.01.06-0.01l19.7-1.6c0.02,0,.05-0.01.08-0.01l2.34-.24a3.147,3.147,0,0,1,.76-0.01,11.2,11.2,0,0,1,2.11,22.02,4.048,4.048,0,0,1-.48.09l-2.49.25-23.79,2.02A3.028,3.028,0,0,1,1305.54,1230.86Zm24.69-19.75c0.02,0,.04.01,0.06,0.01a6.548,6.548,0,0,1,5.82,4.87,5.4,5.4,0,0,1,.18.99,6.549,6.549,0,0,1-4.69,6.94c-0.04.01-.09,0.02-0.14,0.03l-2.29.23-23.8,2.02a1.531,1.531,0,0,0-.68,2.8c0.04,0.03.09,0.06,0.14,0.09a1.528,1.528,0,0,0,.87.16l23.79-2.02,2.48-.25a1.846,1.846,0,0,0,.23-0.04,9.56,9.56,0,0,0,7.15-10.27,9.145,9.145,0,0,0-.27-1.46,9.581,9.581,0,0,0-5.14-6.24,9.764,9.764,0,0,0-3.57-.92,1.438,1.438,0,0,0-.43.01l-2.38.24c-0.01,0-.07.01-0.09,0.01l-19.72,1.61-0.93.09a5.517,5.517,0,0,0-2,10.33l0.15,0.09a5.624,5.624,0,0,0,3.1.56c6.13-.63,10.78-0.93,14.18-1.15,4.8-.31,7.69-0.5,8.34-1.26a1.3,1.3,0,0,0,.16-1.04,1.5,1.5,0,0,0-.85-1.22,1.22,1.22,0,0,0-.17-0.07,1.468,1.468,0,0,0-.66-0.08v-0.02h-0.04v0.02a0.482,0.482,0,0,1-.12,0c-0.21.03-.47,0.05-0.77,0.08l-20.42,1.69a1.929,1.929,0,0,1-.25.01,2.457,2.457,0,0,1-.35-4.89l0.88-.09h0.06l19.86-1.62,2.23-.23C1330.18,1211.12,1330.2,1211.11,1330.23,1211.11Zm-25.8,10.73a0.8,0.8,0,0,1-.36-0.09l-32.22-16.47a0.8,0.8,0,0,1,.73-1.42l32.22,16.47a0.809,0.809,0,0,1,.35,1.08A0.829,0.829,0,0,1,1304.43,1221.84Zm-4.77-11.67a0.8,0.8,0,0,1-.36-0.09l-21.33-10.9a0.8,0.8,0,0,1-.34-1.08,0.786,0.786,0,0,1,1.07-.34l21.33,10.9A0.8,0.8,0,0,1,1299.66,1210.17Zm11.2,40.83h-0.03a11.192,11.192,0,0,1-10.13-8.35,10.4,10.4,0,0,1-.3-1.71,11.144,11.144,0,0,1,8.14-11.91,0.795,0.795,0,1,1,.43,1.53,9.642,9.642,0,0,0-6.72,11.69,9.573,9.573,0,0,0,8.66,7.15c0.71-.05,8.76-0.72,14.68-1.2,6.42-.53,7.7-0.64,7.98-0.66h0.05l0.89-.1h0.05a5.518,5.518,0,0,0,1.82-10.4,5.366,5.366,0,0,0-3.11-.57l-21.33,1.76a1.533,1.533,0,0,0-.55,2.88,1.441,1.441,0,0,0,.87.17l21.35-1.77c0.07,0,.17-0.01.25-0.01a2.457,2.457,0,0,1,.35,4.89l-0.88.09h-0.03a0.02,0.02,0,0,0-.02.01l-13.06,1.06c-6.82.55-6.82,0.55-8,.67l-1.03.11a0.379,0.379,0,0,1-.15,0,6.559,6.559,0,0,1-5.82-4.87,5.977,5.977,0,0,1-.17-1,6.617,6.617,0,0,1,4.68-6.93,0.772,0.772,0,0,1,.15-0.02l2.29-.24,23.79-2.02a1.523,1.523,0,0,0,1.03-.56,1.554,1.554,0,0,0,.33-1.12,1.522,1.522,0,0,0-1.52-1.38,0.757,0.757,0,0,0-.15.01l-3,.25a0.792,0.792,0,0,1-.87-0.72,0.805,0.805,0,0,1,.73-0.87l2.98-.25a2.689,2.689,0,0,1,.31-0.02,3.118,3.118,0,0,1,3.11,2.82,3.067,3.067,0,0,1-.68,2.29,3.138,3.138,0,0,1-2.12,1.14l-23.79,2.02-2.21.23a4.991,4.991,0,0,0-3.47,5.22,5.128,5.128,0,0,0,.13.75,4.975,4.975,0,0,0,4.33,3.68l0.95-.1c1.2-.13,1.2-0.13,8.04-0.68l13.06-1.07h0.02l0.86-.09a0.861,0.861,0,0,0-.27-1.7l-21.34,1.77a2.851,2.851,0,0,1-.31.02,3.173,3.173,0,0,1-1.47-.37,3.129,3.129,0,0,1,1.15-5.88l21.32-1.76a6.494,6.494,0,0,1,.77-0.05,7.122,7.122,0,0,1,.87,14.19c-0.01,0-.05.01-0.06,0.01l-0.91.09a0.037,0.037,0,0,0-.03.01h-0.04c-0.17.01-3.73,0.31-7.99,0.66C1312.12,1250.91,1311.02,1251,1310.86,1251Zm25.89-13.88a0.8,0.8,0,0,1-.37-0.08l-7.09-3.63a0.8,0.8,0,0,1,.73-1.43l7.09,3.64a0.8,0.8,0,0,1,.35,1.07A0.783,0.783,0,0,1,1336.75,1237.12Zm-30.18,12.63a0.924,0.924,0,0,1-.39-0.09l-31.53-17.15a0.793,0.793,0,0,1-.32-1.08,0.8,0.8,0,0,1,1.09-.32l31.53,17.14A0.8,0.8,0,0,1,1306.57,1249.75Zm-7.56-17.1a0.849,0.849,0,0,1-.38-0.09l-23.98-13.04a0.793,0.793,0,0,1-.32-1.08,0.8,0.8,0,0,1,1.09-.32l23.97,13.03a0.807,0.807,0,0,1,.32,1.09A0.8,0.8,0,0,1,1299.01,1232.65Zm-24.86-26.3a0.928,0.928,0,0,1-.24-0.03,7.276,7.276,0,0,1-1.12-.45,7.126,7.126,0,0,1-1.05-.66c-0.01-.01-0.02-0.01-0.03-0.02a6.825,6.825,0,0,1-2.65-4.69,6.9,6.9,0,0,1,5.99-7.6h0.06l0.85-.09h0c0.03,0,.05-0.01.08-0.01l19.13-1.54c0.01,0,.05-0.01.06-0.01l2.25-.23a3.23,3.23,0,0,1,.71-0.02,10.917,10.917,0,0,1,4,1.04,0.8,0.8,0,0,1-.68,1.44,9.351,9.351,0,0,0-3.43-.88,1.386,1.386,0,0,0-.41,0l-2.28.24c-0.02,0-.08.01-0.09,0.01l-19.09,1.54a0.127,0.127,0,0,0-.06.01l-0.86.08a5.29,5.29,0,0,0-2.59,9.46h0a0.02,0.02,0,0,1,.02.01,5.964,5.964,0,0,0,.8.5,5.672,5.672,0,0,0,.84.34A0.793,0.793,0,0,1,1274.15,1206.35Zm-1.14,7.94a0.677,0.677,0,0,1-.36-0.1,3.064,3.064,0,0,1-1.11-.97,2.947,2.947,0,0,1-.52-1.41,3.05,3.05,0,0,1,2.72-3.34l6.31-.65a0.819,0.819,0,0,1,.88.72,0.8,0.8,0,0,1-.72.87l-6.31.65a1.446,1.446,0,0,0-1.29,1.58,1.3,1.3,0,0,0,.25.67,1.34,1.34,0,0,0,.53.47,0.791,0.791,0,0,1,.33,1.08A0.8,0.8,0,0,1,1273.01,1214.29Zm14.48-1.11h-0.01a0.8,0.8,0,1,1,.8-0.8A0.794,0.794,0,0,1,1287.49,1213.18Zm16.98,17.42a0.808,0.808,0,0,1-.37-0.09l-31.45-16.32a0.789,0.789,0,0,1-.35-1.07,0.8,0.8,0,0,1,1.08-.34l31.46,16.31a0.8,0.8,0,0,1,.34,1.08A0.813,0.813,0,0,1,1304.47,1230.6Zm29.81-21.55a0.844,0.844,0,0,1-.34-0.08l-32.44-15.49a0.8,0.8,0,0,1,.7-1.44l32.43,15.49a0.8,0.8,0,0,1,.38,1.06A0.812,0.812,0,0,1,1334.28,1209.05Zm-59.01,23.69a0.746,0.746,0,0,1-.38-0.1l-0.23-.13a10.8,10.8,0,0,1-5.29-6.76,10.58,10.58,0,0,1-.3-1.64,10.767,10.767,0,0,1,5.28-10.41,0.813,0.813,0,0,1,1.1.29,0.8,0.8,0,0,1-.29,1.09,9.16,9.16,0,0,0-4.5,8.87,10.064,10.064,0,0,0,.25,1.39,9.233,9.233,0,0,0,4.51,5.77l0.23,0.13A0.8,0.8,0,0,1,1275.27,1232.74Zm19.38-15.9h0a0.8,0.8,0,1,1,.8-0.8A0.8,0.8,0,0,1,1294.65,1216.84Zm-8.79,4.11h0a0.8,0.8,0,1,1,.8-0.8A0.8,0.8,0,0,1,1285.86,1220.95Zm7.27,3.76h-0.01A0.805,0.805,0,1,1,1293.13,1224.71Z" transform="translate(-1269 -1191)"></path></svg>