<?xml version="1.0" encoding="UTF-8" standalone="no"?>
<svg width="109px" height="17px" viewBox="0 0 109 17" version="1.1" xmlns="http://www.w3.org/2000/svg" xmlns:xlink="http://www.w3.org/1999/xlink" xmlns:sketch="http://www.bohemiancoding.com/sketch/ns">
    <!-- Generator: Sketch 3.3 (11970) - http://www.bohemiancoding.com/sketch -->
    <title>JUEVES</title>
    <desc>Created with Sketch.</desc>
    <defs></defs>
    <g id="Page-1" stroke="none" stroke-width="1" fill="none" fill-rule="evenodd" sketch:type="MSPage">
        <g id="Home-Page" sketch:type="MSArtboardGroup" transform="translate(-150.000000, -90.000000)" fill="#FFFFFF">
            <g id="Header" sketch:type="MSLayerGroup" transform="translate(0.000000, -335.000000)">
                <path d="M158.668,425.85 L151.386,425.85 L151.386,427.544 L156.886,427.544 L156.886,436.586 C156.886,438.5 155.94,439.512 154.246,439.512 C153.058,439.512 151.848,438.896 150.88,437.73 L150,439.138 C151.078,440.524 152.552,441.338 154.268,441.338 C157.018,441.338 158.668,439.622 158.668,436.63 L158.668,425.85 Z M180.712,425.85 L178.952,425.85 L178.952,434.914 C178.952,437.906 177.192,439.644 174.266,439.644 C171.34,439.644 169.536,437.906 169.536,434.914 L169.536,425.85 L167.776,425.85 L167.776,434.914 C167.776,438.918 170.218,441.338 174.266,441.338 C178.292,441.338 180.712,438.918 180.712,434.914 L180.712,425.85 Z M200.644,427.544 L200.644,425.85 L190.194,425.85 L190.194,441.25 L200.93,441.25 L200.93,439.578 L191.954,439.578 L191.954,434.298 L199.72,434.298 L199.72,432.604 L191.954,432.604 L191.954,427.544 L200.644,427.544 Z M215.56,441.25 L221.852,425.85 L220.004,425.85 L214.68,439.204 L209.378,425.85 L207.486,425.85 L213.734,441.25 L215.56,441.25 Z M239.936,427.544 L239.936,425.85 L229.486,425.85 L229.486,441.25 L240.222,441.25 L240.222,439.578 L231.246,439.578 L231.246,434.298 L239.012,434.298 L239.012,432.604 L231.246,432.604 L231.246,427.544 L239.936,427.544 Z M253.554,425.784 C250.364,425.784 248.23,427.346 248.23,429.766 C248.23,435.288 256.898,433.132 256.876,437.18 C256.876,438.654 255.49,439.556 253.268,439.556 C251.53,439.556 249.572,438.764 248.142,437.378 L247.35,438.962 C248.802,440.348 251.002,441.316 253.246,441.316 C256.546,441.316 258.812,439.666 258.812,437.092 C258.834,431.504 250.166,433.572 250.166,429.612 C250.166,428.314 251.464,427.566 253.444,427.566 C254.676,427.566 256.304,427.94 257.69,428.864 L258.438,427.214 C257.162,426.356 255.336,425.784 253.554,425.784 L253.554,425.784 Z" id="JUEVES" sketch:type="MSShapeGroup"></path>
            </g>
        </g>
    </g>
</svg>