<svg xmlns="http://www.w3.org/2000/svg" id="contact-phone" width="28.275" height="28.275" viewBox="0 0 28.275 28.275"><path id="Path_18" data-name="Path 18" d="M28.257,23.272a2.169,2.169,0,0,0-1.076-1.607l-6.976-4.016A2.189,2.189,0,0,0,17.57,18L16.2,19.371a1.007,1.007,0,0,1-1.345.075,39.712,39.712,0,0,1-3.17-2.851,39.724,39.724,0,0,1-2.851-3.17A1.007,1.007,0,0,1,8.9,12.08l1.374-1.374a2.189,2.189,0,0,0,.349-2.635L6.611,1.095A2.185,2.185,0,0,0,3.172.64L1.1,2.71C-.343,4.155-.367,6.8,1.036,10.153a32.87,32.87,0,0,0,7.088,10,32.869,32.869,0,0,0,10,7.088A11.66,11.66,0,0,0,22.5,28.275a4.176,4.176,0,0,0,3.064-1.1l2.07-2.07a2.17,2.17,0,0,0,.621-1.832Zm-8.509-4.83,6.976,4.016a1.269,1.269,0,0,1,.388,1.854l-9.271-5.291.376-.376a1.271,1.271,0,0,1,1.531-.2ZM4.884.927a1.26,1.26,0,0,1,.934.625L9.833,8.528a1.271,1.271,0,0,1-.2,1.531l-.346.346-5.32-9.24A1.254,1.254,0,0,1,4.714.916a1.293,1.293,0,0,1,.17.011Zm20.034,25.6c-1.148,1.148-3.5,1.1-6.442-.132a31.945,31.945,0,0,1-9.7-6.891A31.944,31.944,0,0,1,1.881,9.8C.649,6.854.6,4.506,1.749,3.358L3.286,1.821l5.328,9.254-.357.357A1.922,1.922,0,0,0,8.116,14a40.64,40.64,0,0,0,2.917,3.243,40.662,40.662,0,0,0,3.243,2.917,1.922,1.922,0,0,0,2.567-.141l.326-.326,9.283,5.3-1.535,1.535Z" transform="translate(-0.001 0)" fill="#1f1f1f"></path></svg>