<svg xmlns="http://www.w3.org/2000/svg" id="contact-send" width="28.275" height="28.275" viewBox="0 0 28.275 28.275"><g id="Group_13" data-name="Group 13" transform="translate(0 0)"><g id="Group_12" data-name="Group 12"><path id="Path_35" data-name="Path 35" d="M28.272.534a.575.575,0,0,0-.019-.1.638.638,0,0,0-.041-.1C28.2.32,28.2.3,28.19.284a.378.378,0,0,0-.026-.029.638.638,0,0,0-.069-.078.6.6,0,0,0-.079-.069C28,.1,28,.09,27.988.084s-.036-.013-.054-.022a.639.639,0,0,0-.1-.041.647.647,0,0,0-.09-.016.631.631,0,0,0-.108,0,.552.552,0,0,0-.1.017.566.566,0,0,0-.063.01L.418,9.25A.614.614,0,0,0,.4,10.405l12.639,4.856L18.5,27.9a.616.616,0,0,0,.564.371h.031a.615.615,0,0,0,.555-.427L28.254.8a.46.46,0,0,0,.008-.058.581.581,0,0,0,.014-.1A.612.612,0,0,0,28.272.534ZM2.42,9.865,25.364,2.044,13.344,14.063ZM18.973,25.907,14.227,14.92,26.316,2.83Z" transform="translate(-0.002 0)" fill="#1f1f1f"></path><path id="Path_36" data-name="Path 36" d="M9.658,240.1a.614.614,0,0,0-.869,0L.181,248.706a.615.615,0,1,0,.869.869l8.607-8.607A.614.614,0,0,0,9.658,240.1Z" transform="translate(-0.001 -221.48)" fill="#1f1f1f"></path><path id="Path_37" data-name="Path 37" d="M92.485,296.1l-4.3,4.3a.615.615,0,1,0,.869.869l4.3-4.3a.615.615,0,0,0-.869-.869Z" transform="translate(-81.238 -273.176)" fill="#1f1f1f"></path><path id="Path_38" data-name="Path 38" d="M.616,213.451a.613.613,0,0,0,.435-.18l4.3-4.3a.615.615,0,0,0-.869-.869l-4.3,4.3a.615.615,0,0,0,.435,1.049Z" transform="translate(-0.001 -191.939)" fill="#1f1f1f"></path></g></g></svg>