<svg xmlns="http://www.w3.org/2000/svg" id="contact-location" width="28.337" height="28.336" viewBox="0 0 28.337 28.336"><path id="Path_19" data-name="Path 19" d="M27.66,18.612a3.306,3.306,0,1,0-3.306-3.306A3.31,3.31,0,0,0,27.66,18.612Zm0-5.667A2.361,2.361,0,1,1,25.3,15.306,2.364,2.364,0,0,1,27.66,12.945Z" transform="translate(-12.852 -6.333)" fill="#1f1f1f"></path><path id="Path_20" data-name="Path 20" d="M21.057,25.86,28.3,15.4a10.32,10.32,0,0,0-.841-12.743,9.056,9.056,0,0,0-12.808,0A10.315,10.315,0,0,0,13.8,15.381ZM15.32,3.321a8.112,8.112,0,0,1,11.472,0,9.325,9.325,0,0,1,.743,11.523L21.057,24.2l-6.489-9.371A9.319,9.319,0,0,1,15.32,3.321Z" transform="translate(-6.332 0)" fill="#1f1f1f"></path><path id="Path_21" data-name="Path 21" d="M.472,57.431l-.334.334a.472.472,0,1,0,.668.668L1.14,58.1a.472.472,0,0,0-.668-.668Z" transform="translate(0.001 -30.235)" fill="#1f1f1f"></path><path id="Path_22" data-name="Path 22" d="M8.088,52a.472.472,0,1,0,0,.945h.86a.472.472,0,1,0,0-.945Z" transform="translate(-4.019 -27.442)" fill="#1f1f1f"></path><path id="Path_23" data-name="Path 23" d="M4.695,53.57a.472.472,0,0,0-.668,0l-.608.608a.472.472,0,1,0,.668.668l.608-.608A.472.472,0,0,0,4.695,53.57Z" transform="translate(-1.731 -28.198)" fill="#1f1f1f"></path><path id="Path_24" data-name="Path 24" d="M19.011,52a.472.472,0,1,0,0,.945h.86a.472.472,0,1,0,0-.945Z" transform="translate(-9.783 -27.442)" fill="#1f1f1f"></path><path id="Path_25" data-name="Path 25" d="M13.549,52a.472.472,0,1,0,0,.945h.86a.472.472,0,1,0,0-.945Z" transform="translate(-6.9 -27.442)" fill="#1f1f1f"></path><path id="Path_26" data-name="Path 26" d="M24.472,52a.472.472,0,1,0,0,.945h.472a.472.472,0,1,0,0-.945Z" transform="translate(-12.665 -27.442)" fill="#1f1f1f"></path><path id="Path_27" data-name="Path 27" d="M.472,50.192a.471.471,0,0,0,.334-.138l1.831-1.831a.851.851,0,0,1,.165-.128l.091-.049a.431.431,0,0,1,.05-.027l.177-.054a1,1,0,0,1,.187-.019h7.084a.472.472,0,1,0,0-.945H3.305a1.949,1.949,0,0,0-.374.037,1.322,1.322,0,0,0-.132.037l-.062.018a1.276,1.276,0,0,0-.154.05,1.363,1.363,0,0,0-.162.082l-.045.025a1.107,1.107,0,0,0-.121.069,1.887,1.887,0,0,0-.289.237L.137,49.385a.472.472,0,0,0,.334.806Z" transform="translate(0.001 -24.803)" fill="#1f1f1f"></path><path id="Path_28" data-name="Path 28" d="M57.765,47.278a.471.471,0,0,0,.334-.138l.334-.334a.472.472,0,0,0-.668-.668l-.334.334a.472.472,0,0,0,.334.806Z" transform="translate(-30.234 -24.276)" fill="#1f1f1f"></path><path id="Path_29" data-name="Path 29" d="M53.614,49.865l-.713.713a.472.472,0,1,0,.668.668l.713-.713a.472.472,0,0,0-.668-.668Z" transform="translate(-27.844 -26.242)" fill="#1f1f1f"></path><path id="Path_30" data-name="Path 30" d="M47.147,52a.472.472,0,1,0,0,.945h1.008a.472.472,0,1,0,0-.945Z" transform="translate(-24.631 -27.442)" fill="#1f1f1f"></path><path id="Path_31" data-name="Path 31" d="M40.742,52a.472.472,0,1,0,0,.945h1.008a.472.472,0,1,0,0-.945Z" transform="translate(-21.251 -27.442)" fill="#1f1f1f"></path><path id="Path_32" data-name="Path 32" d="M35.472,52a.472.472,0,1,0,0,.945h.472a.472.472,0,1,0,0-.945Z" transform="translate(-18.47 -27.442)" fill="#1f1f1f"></path><path id="Path_33" data-name="Path 33" d="M30.7,52.38l-1.831,1.831a.864.864,0,0,1-.164.128l-.089.048a.538.538,0,0,1-.056.03.367.367,0,0,1-.046.014l-.131.04a.914.914,0,0,1-.183.019H6.892l-.716.577a.472.472,0,1,0,.592.736l.458-.368H28.2a1.852,1.852,0,0,0,.368-.037,1.143,1.143,0,0,0,.139-.038l.059-.017a1.292,1.292,0,0,0,.158-.052,1.438,1.438,0,0,0,.159-.081l.047-.026a1.036,1.036,0,0,0,.117-.066,1.872,1.872,0,0,0,.29-.238l1.831-1.831a.472.472,0,1,0-.668-.668Z" transform="translate(-3.166 -27.57)" fill="#1f1f1f"></path><path id="Path_34" data-name="Path 34" d="M39,45.889a.472.472,0,0,0,.472.472h5.749l1.555-1.555a.472.472,0,0,0-.668-.668L44.83,45.417H39.472A.472.472,0,0,0,39,45.889Z" transform="translate(-20.581 -23.22)" fill="#1f1f1f"></path></svg>