<?xml version="1.0" encoding="UTF-8"?>
<svg viewBox="0 0 67.093 60" xmlns="http://www.w3.org/2000/svg">
<defs>
<style>.cls-1 {
        fill: #df9a2b;
        fill-rule: evenodd;
      }</style>
</defs>
<path class="cls-1" transform="translate(-526.06 -1489.3)" d="M593.153,1548.17l-3.933-21.69a0.985,0.985,0,1,0-1.939.35l1.663,9.17-12.819-14.89,8.622-1.93,1.276,0.71,0.555,3.06a0.985,0.985,0,0,0,1.939-.35l-0.638-3.52a0.97,0.97,0,0,0-.49-0.68l-2.012-1.12h0l-6.356-3.54h0l-4.9-2.74h0c-0.038-.02-0.077-0.03-0.117-0.05a0.054,0.054,0,0,0-.038-0.01l-0.083-.03c-0.016,0-.032-0.01-0.049-0.01s-0.05-.01-0.076-0.01a0.1,0.1,0,0,1-.052-0.01h-0.127a0.187,0.187,0,0,1-.073.01c-0.018,0-.036.01-0.053,0.01s-0.048.01-.071,0.02-0.036.01-.053,0.01l-0.068.03c-0.017.01-.034,0.01-0.051,0.02a0.025,0.025,0,0,1-.023.01l-2.251,1.18a19.2,19.2,0,0,0,2.521-9.05,13.781,13.781,0,0,0-27.562,0,19.245,19.245,0,0,0,2.568,9.14l-2.425-1.27a0.025,0.025,0,0,1-.023-0.01c-0.016-.01-0.033-0.01-0.05-0.02l-0.069-.03c-0.017,0-.035-0.01-0.052-0.01s-0.047-.01-0.071-0.02-0.036-.01-0.054-0.01a0.18,0.18,0,0,1-.072-0.01h-0.126a0.1,0.1,0,0,1-.054.01c-0.025,0-.049.01-0.074,0.01s-0.034.01-.051,0.01l-0.08.03a0.064,0.064,0,0,0-.041.01c-0.04.02-.078,0.03-0.116,0.05h0v0.01l-13.273,7.39a0.967,0.967,0,0,0-.49.68L527.6,1539.7a0.985,0.985,0,1,0,1.939.35l1.122-6.18,12.75-6.75-1.025,13.25-14.048,6.31,0.494-2.73a0.985,0.985,0,0,0-1.938-.35l-0.829,4.57a0.986,0.986,0,0,0,.97,1.16,0.957,0.957,0,0,0,.4-0.09l15.885-7.13,15.878,7.13H559.2c0.009,0.01.018,0.01,0.028,0.02s0.029,0.01.044,0.01,0.029,0.01.043,0.02a0.035,0.035,0,0,1,.029.01h0.037c0.02,0.01.041,0.01,0.061,0.02h0.05a0.334,0.334,0,0,0,.1.01h0.019a0.475,0.475,0,0,0,.119-0.01h0.037a0.311,0.311,0,0,1,.092-0.02,0.029,0.029,0,0,1,.026-0.01h0.01a0.513,0.513,0,0,0,.113-0.05l15.885-7.13,15.884,7.13a0.1,0.1,0,0,0,.047.02,0.1,0.1,0,0,0,.047.02c0.02,0.01.041,0.01,0.062,0.02s0.026,0.01.039,0.01,0.051,0.01.076,0.01a0.032,0.032,0,0,1,.028.01h0.105a0.7,0.7,0,0,0,.144-0.01,0.043,0.043,0,0,0,.033-0.01,0.7,0.7,0,0,0,.14-0.03h0.008a0.377,0.377,0,0,1,.091-0.04c0.008-.01.016-0.01,0.024-0.02a0.251,0.251,0,0,0,.073-0.04c0.024-.01.047-0.03,0.07-0.04,0.007-.01.016-0.01,0.024-0.02s0.032-.03.048-0.04,0.027-.03.039-0.04c0.03-.03.058-0.06,0.083-0.09,0-.01.01-0.01,0.015-0.02a1.358,1.358,0,0,0,.078-0.12,0.3,0.3,0,0,1,.017-0.04,1.064,1.064,0,0,0,.042-0.1c0-.02.01-0.03,0.015-0.05a0.737,0.737,0,0,0,.022-0.09q0.006-.03.009-0.06a0.673,0.673,0,0,0,.007-0.1c0-.02,0-0.03,0-0.05A0.951,0.951,0,0,0,593.153,1548.17Zm-17.317-33.95-1.01.23-0.065-.83Zm-2.15,11.04-4.114-3.21a1,1,0,0,0-1-.13l-7.976,3.48v-1.08a46.256,46.256,0,0,0,3.573-3.28l8.888-3.9Zm-0.916-11.83,0.126,1.62-5.553,2.45q0.828-1.035,1.543-2.04Zm-26.326,0,4.083,2.13c0.6,0.85,1.268,1.71,1.99,2.57,0.631,0.75,1.26,1.45,1.865,2.1l-8.372-1.2Zm-2.857,11.37-12.484,6.6,0.609-3.35,0.015-.09,12.11-6.38Zm0.43-5.55-11.843,6.25,1.016-5.61,11.263-6.27-0.283,3.66Zm0.338,21.16,0.932-12.04,11.638,17.69Zm14.267-3.79-6.069-9.57,6.069,0.72v8.85Zm0-10.83-7.9-.95a0.99,0.99,0,0,0-.949,1.51l8.845,13.94v4.76l-13.086-19.89,0.322-4.16,10.869,1.55c0.82,0.76,1.485,1.33,1.894,1.67v1.57h0Zm1.048-3.27c-2.488-2.1-11.811-10.56-11.811-19.4a11.811,11.811,0,0,1,23.622,0C571.481,1511.96,562.158,1520.42,559.67,1522.52Zm0.922,24.3v-4.37l2.945,3.05Zm4.856-2.18-4.856-5.03v-12.06l8.229-3.58,5.071,3.96,0.967,12.48Zm9.531-28.2,3.416-.8,2.423,1.35,1.34,0.75-6.958,1.55Zm1.853,23.93-0.769-9.93,12.656,15.27Zm-1.033-13.34-0.268-3.46-0.011-.15,14.118,16.41,0.9,4.99Zm-16.129-30a0.985,0.985,0,1,0,0,1.97,4.132,4.132,0,1,1-2.938,1.24,0.988,0.988,0,0,0-1.4-1.39A6.09,6.09,0,1,0,559.67,1497.03Z"/>
</svg>
