<?xml version="1.0" encoding="UTF-8"?>
<svg viewBox="0 0 48.12 60" xmlns="http://www.w3.org/2000/svg">
<defs>
<style>.cls-1 {
        fill: #df9a2b;
        fill-rule: evenodd;
      }</style>
</defs>
<path class="cls-1" transform="translate(-1336.4 -1489.5)" d="m1383.7 1528.3h-1.06v-16.6c0-0.25-0.01-0.51-0.03-0.77a0.645 0.645 0 0 0 0.03-0.2 0.983 0.983 0 0 0-0.07-0.34 12.5 12.5 0 0 0-12.4-11.21h-1.06v-1.16h8.79a0.873 0.873 0 0 0 0.87-0.88v-5.82a0.873 0.873 0 0 0-0.87-0.88h-8.79v-0.09a0.875 0.875 0 1 0-1.75 0v8.83h-16.51a12.509 12.509 0 0 0-12.47 12.52v16.6h-1.06a0.873 0.873 0 0 0-0.87 0.88v3.88a0.873 0.873 0 0 0 0.87 0.88h16.52v3a0.873 0.873 0 0 0 0.87 0.88h2.99v10.77a0.875 0.875 0 0 0 0.88 0.88h3.86a0.875 0.875 0 0 0 0.88-0.88v-10.77h2.99a0.873 0.873 0 0 0 0.87-0.88v-3h16.52a0.873 0.873 0 0 0 0.87-0.88v-3.88a0.873 0.873 0 0 0-0.87-0.88zm-14.59-36.1h7.91v4.06h-7.91v-4.06zm-0.87 19.41a0.873 0.873 0 0 0 0.87-0.88v-1.83a2.015 2.015 0 1 1-1.75 0v1.83a0.881 0.881 0 0 0 0.88 0.88zm-0.88-10.68v6.12a3.775 3.775 0 1 0 1.75 0v-6.12h1.06a10.749 10.749 0 0 1 10.56 8.92h-2.83a0.88 0.88 0 0 0 0 1.76h2.99v16.69h-17.57v-16.6a12.564 12.564 0 0 0-6.11-10.77h10.15zm-29.16 31.25v-2.12h4.92a0.88 0.88 0 1 0 0-1.76h-2.99v-16.6a10.72 10.72 0 1 1 21.44 0v16.6h-14.96a0.88 0.88 0 0 0 0 1.76h16.89v2.12h-25.3zm23.37 15.53h-2.12v-9.89h2.12v9.89zm3.86-11.65h-9.84v-2.12h9.84v2.12zm17.39-3.88h-17.57v-2.12h17.57v2.12zm-23.28-21.36h-17.39a0.88 0.88 0 0 0 0 1.76h0.1v3.01a0.879 0.879 0 0 0 0.87 0.88h15.46a0.879 0.879 0 0 0 0.87-0.88v-3.01h0.09a0.88 0.88 0 1 0 0-1.76zm-1.84 3.89h-13.7v-2.13h13.7v2.13zm-4.92-7.77h-3.86a0.88 0.88 0 0 0 0 1.76h3.86a0.88 0.88 0 0 0 0-1.76z"/>
</svg>
