<?xml version="1.0" encoding="UTF-8"?>
<svg viewBox="0 0 60 60" xmlns="http://www.w3.org/2000/svg">
<defs>
<style>.cls-1 {
        fill: #df9a2b;
        fill-rule: evenodd;
      }</style>
</defs>
<path class="cls-1" transform="translate(-930.5 -1489.5)" d="m981.7 1515.9h-18.643a0.875 0.875 0 1 0 0 1.75h18.643a0.875 0.875 0 1 0 0-1.75zm0 4.67h-15.045a0.88 0.88 0 1 0 0 1.76h15.045a0.88 0.88 0 1 0 0-1.76zm0 4.68h-12.7a0.875 0.875 0 1 0 0 1.75h12.7a0.875 0.875 0 1 0 0-1.75zm-6.912 4.67h-5.606a0.88 0.88 0 1 0 0 1.76h5.606a0.88 0.88 0 1 0 2e-3 -1.76zm-13.378-26.99h-11.78a0.88 0.88 0 1 0 0 1.76h11.782a0.88 0.88 0 1 0 0-1.76zm-19.776 21.94a0.877 0.877 0 0 0 0.087 1.24l5 4.33a2.2 2.2 0 0 0-0.117 0.71 2.284 2.284 0 0 0 4.567 0 2.135 2.135 0 0 0-0.016-0.26l2.5-1.39a0.883 0.883 0 0 0 0.339-1.2 0.9 0.9 0 0 0-1.2-0.34l-2.5 1.4a2.234 2.234 0 0 0-1.4-0.49 2.271 2.271 0 0 0-1.007 0.24l-5-4.33a0.879 0.879 0 0 0-1.244 0.09zm7.77 6.28a0.52 0.52 0 1 1-1.039 0 0.52 0.52 0 1 1 1.041 0zm-1.253-10.66a0.881 0.881 0 1 0 0.191-1.18 0.892 0.892 0 0 0-0.189 1.18zm1.467 21.32a0.876 0.876 0 1 0-0.135 1.13 0.88 0.88 0 0 0 0.137-1.13zm-7.059-19.82a0.882 0.882 0 1 0 0.16-1.16 0.893 0.893 0 0 0-0.158 1.16zm11.746 17.95a0.881 0.881 0 0 0-0.71 0.82 0.872 0.872 0 0 0 0.527 0.84 0.884 0.884 0 0 0 1.162-1.15 0.9 0.9 0 0 0-0.979-0.51zm-14.291-14.7a0.883 0.883 0 1 0-0.326 1.07 0.892 0.892 0 0 0 0.328-1.07zm17.691 11.65a0.884 0.884 0 0 0 1.653 0.23 0.881 0.881 0 1 0-1.653-0.23zm-19.141-5.91a0.882 0.882 0 1 0-0.526 0.98 0.889 0.889 0 0 0 0.528-0.98zm20.69-0.17a0.9 0.9 0 0 0 0.228 1 0.91 0.91 0 0 0 1.021 0.1 0.879 0.879 0 1 0-1.249-1.1zm-15.229 9.5a0.891 0.891 0 0 0-1.6 0.32 0.883 0.883 0 0 0 1.435 0.84 0.885 0.885 0 0 0 0.163-1.16zm11.075-19.43a0.879 0.879 0 1 0-0.795 1.48 0.911 0.911 0 0 0 0.895-0.36 0.879 0.879 0 0 0-0.1-1.12zm-15.086 15.5a0.917 0.917 0 0 0-0.859-0.54 0.879 0.879 0 1 0 0.861 0.54zm19.37-11.14a0.881 0.881 0 1 0-1.36 1.03 0.9 0.9 0 0 0 1 0.06 0.882 0.882 0 0 0 0.362-1.09zm3.859 5.91a14.359 14.359 0 0 0-28.718 0 14.129 14.129 0 0 0 3.007 8.76 0.885 0.885 0 0 0 1.238 0.15 0.873 0.873 0 0 0 0.156-1.23 12.376 12.376 0 0 1-2.636-7.68 12.567 12.567 0 1 1 5.292 10.23 0.879 0.879 0 1 0-1.023 1.43 14.369 14.369 0 0 0 22.684-11.66zm27.257-18.45a14.177 14.177 0 0 0-4.2-10.11l-8.967-8.93a14.293 14.293 0 0 0-10.149-4.19h-20.784a5.567 5.567 0 0 0-5.572 5.55v19.66a18.31 18.31 0 0 0 8 34.79h36.1a5.567 5.567 0 0 0 5.571-5.55v-31.22zm-58.24 18.45a16.625 16.625 0 1 1 16.625 16.56 16.614 16.614 0 0 1-16.623-16.56zm56.476 12.77a3.8 3.8 0 0 1-3.807 3.79h-28.19a18.331 18.331 0 0 0-14.146-33.78v-18.91a3.8 3.8 0 0 1 3.808-3.79h18.8a6.671 6.671 0 0 1 6.681 6.65v4.59a5.552 5.552 0 0 0 3.28 5.06 0.885 0.885 0 0 0 1.167-0.44 0.876 0.876 0 0 0-0.441-1.16 3.8 3.8 0 0 1-2.241-3.46v-4.59a8.374 8.374 0 0 0-2.565-6.03 12.651 12.651 0 0 1 5 3.05l8.967 8.94a12.384 12.384 0 0 1 3.081 5 8.421 8.421 0 0 0-6.077-2.57h-2.63a0.875 0.875 0 1 0 0 1.75h2.63a6.68 6.68 0 0 1 6.682 6.66v29.24z"/>
</svg>
