<?xml version="1.0" encoding="UTF-8"?>
<svg viewBox="0 0 56.875 50" xmlns="http://www.w3.org/2000/svg">
<defs>
<style>.cls-1 {
        fill: #df9a2b;
        fill-rule: evenodd;
      }</style>
</defs>
<path class="cls-1" transform="translate(-531.56 -1320)" d="m581.32 1340.1-1.781-7.13a8.333 8.333 0 0 0-5.071-5.75 5 5 0 0 0-4.473-7.23h-20a5 5 0 0 0-4.473 7.23 8.437 8.437 0 0 0-5.183 5.75l-1.782 7.13a8.344 8.344 0 0 0-7 8.22v10a5 5 0 0 0 5 5h1.666v1.67a5.01 5.01 0 0 0 5 5h1.772a5.01 5.01 0 0 0 5-5v-1.67h20v1.67a5.01 5.01 0 0 0 5 5h1.666a5.01 5.01 0 0 0 5-5v-1.67h1.777a5 5 0 0 0 5-5v-10a8.4 8.4 0 0 0-7.117-8.22zm-16.325-16.77h5a1.665 1.665 0 1 1 0 3.33h-5v-3.33zm-6.666 0h3.333v3.33h-3.333v-3.33zm-8.333 0h5v3.33h-5a1.665 1.665 0 1 1-1e-3 -3.33zm-6.423 10.45a5.126 5.126 0 0 1 4.962-3.79h22.92a5 5 0 0 1 4.851 3.79l1.553 6.21h-35.839zm3.09 31.21a1.662 1.662 0 0 1-1.666 1.66h-1.778a1.663 1.663 0 0 1-1.667-1.66v-1.67h5.111v1.67zm31.664 0a1.663 1.663 0 0 1-1.667 1.66h-1.665a1.663 1.663 0 0 1-1.667-1.66v-1.67h5v1.67zm6.777-6.67a1.671 1.671 0 0 1-1.667 1.67h-46.884a1.671 1.671 0 0 1-1.667-1.67v-10a5.01 5.01 0 0 1 5-5h40.109a5.125 5.125 0 0 1 5.111 5v10zm-8.444-11.66h-3.333a5 5 0 1 0 0 10h3.333a5 5 0 0 0 0-10zm0 6.66h-3.333a1.665 1.665 0 1 1 0-3.33h3.333a1.665 1.665 0 1 1 0 3.33zm-30-6.66h-3.444a5 5 0 0 0 0 10h3.444a5 5 0 0 0 3e-3 -10zm0 6.66h-3.444a1.665 1.665 0 1 1 0-3.33h3.444a1.665 1.665 0 1 1 3e-3 3.33zm16.665-6.66h-6.666a1.665 1.665 0 1 0 0 3.33h6.666a1.665 1.665 0 1 0 3e-3 -3.33zm0 6.66h-6.666a1.67 1.67 0 0 0 0 3.34h6.666a1.67 1.67 0 0 0 3e-3 -3.34z"/>
</svg>
