<?xml version="1.0" encoding="UTF-8"?>
<svg viewBox="0 0 77.562 50" xmlns="http://www.w3.org/2000/svg">
<defs>
<style>.cls-1 {
        fill: #df9a2b;
        fill-rule: evenodd;
      }</style>
</defs>
<path class="cls-1" transform="translate(-920.22 -1690)" d="m995.48 1710.4h0.016a2.274 2.274 0 0 0 2.29-2.27v-8.91a2.276 2.276 0 0 0-2.273-2.28 4.693 4.693 0 0 1-4.557-4.71 2.274 2.274 0 0 0-2.273-2.27h-59.362a2.274 2.274 0 0 0-2.273 2.27 4.693 4.693 0 0 1-4.557 4.71 2.276 2.276 0 0 0-2.273 2.28v8.91a2.268 2.268 0 0 0 2.263 2.27 4.56 4.56 0 0 1 0 9.12 2.268 2.268 0 0 0-2.263 2.27v9.06a2.277 2.277 0 0 0 2.263 2.28 4.562 4.562 0 0 1 4.539 4.55 2.275 2.275 0 0 0 2.272 2.28h59.363a2.275 2.275 0 0 0 2.272-2.28 4.557 4.557 0 0 1 4.555-4.55h0.014a2.321 2.321 0 0 0 1.618-0.66 2.287 2.287 0 0 0 0.672-1.62v-9.06a2.283 2.283 0 0 0-2.3-2.27 4.56 4.56 0 0 1 0-9.12zm-18.419-15.89v40.9h-35.8v-40.9h35.8zm-52.3 34.37v-5.11a9.106 9.106 0 0 0 0-17.62v-4.95a9.067 9.067 0 0 0 4.188-2.48 9.263 9.263 0 0 0 2.361-4.21h5.4v40.9h-5.438a9.142 9.142 0 0 0-6.509-6.53zm68.478-5.1v5.08a9.152 9.152 0 0 0-6.572 6.55h-5.065v-40.9h5.086a9.263 9.263 0 0 0 2.361 4.21 9.067 9.067 0 0 0 4.188 2.48v4.94a9.1 9.1 0 0 0 4e-3 17.64zm-45.667-8.31 3.559 2.55-1.355 4.11a3.724 3.724 0 0 0 1.341 4.18 3.8 3.8 0 0 0 4.448 0.03l3.594-2.57 3.593 2.57a3.776 3.776 0 0 0 4.449-0.03 3.725 3.725 0 0 0 1.34-4.18l-1.354-4.11 3.558-2.55a3.745 3.745 0 0 0-2.205-6.79h-4.434l-1.363-4.14a3.78 3.78 0 0 0-7.169 0l-1.363 4.14h-4.434a3.745 3.745 0 0 0-2.2 6.79zm7.193-2.25a3.766 3.766 0 0 0 3.584-2.58l0.81-2.46 0.809 2.46a3.766 3.766 0 0 0 3.584 2.58h2.526l-2.014 1.44a3.733 3.733 0 0 0-1.381 4.22l0.788 2.38-2.108-1.51a3.8 3.8 0 0 0-4.409 0l-2.108 1.51 0.787-2.38a3.737 3.737 0 0 0-1.379-4.22l-2.015-1.44h2.526z"/>
</svg>
