<?xml version="1.0" encoding="UTF-8"?>
<svg viewBox="0 0 57.56 50.03" xmlns="http://www.w3.org/2000/svg">
<defs>
<style>.cls-1 {
        fill: #df9a2b;
        fill-rule: evenodd;
      }</style>
</defs>
<path class="cls-1" transform="translate(-1330 -1689.4)" d="m1360.8 1708.7h11.23a1.694 1.694 0 0 0 1.69-1.69v-8.98a1.692 1.692 0 0 0-1.69-1.68h-11.23a1.686 1.686 0 0 0-1.69 1.68v8.98a1.688 1.688 0 0 0 1.69 1.69zm1.68-8.98h7.87v1.12h-7.87v-1.12zm0 4.49h7.87v1.12h-7.87v-1.12zm23.45-12.54h-34.14a1.692 1.692 0 0 0-1.26 0.57c-1.18 1.32-2.22 2.48-3.14 3.51-5.15-5.39-7.99-6.16-8.99-6.24a6.178 6.178 0 1 0 1.89 11.54c0.27 0.52 0.55 1.09 0.83 1.7-0.85 0.95-1.64 1.83-2.51 2.81-2.06 2.54-5.12 4.83-7.11 10.12-2.51 6.64-1.83 13.96 3.03 19.05a14.7 14.7 0 0 0 15.37 3.97 15.65 15.65 0 0 0 10.64-12.98l1.38-10.17a8.21 8.21 0 0 0 16.35-1.35v-0.83h0.56a1.686 1.686 0 0 0 1.69-1.68v-7.89h5.41a1.677 1.677 0 0 0 1.68-1.68v-8.76a1.686 1.686 0 0 0-1.68-1.69zm-46.41 5.75a2.807 2.807 0 1 1-1.61-4.57c2.25 0.42 5.65 3.75 7.22 5.42-0.57 0.64-1.09 1.22-1.57 1.76-0.46-0.9-0.9-1.7-1.33-2.39a1.681 1.681 0 0 0-2.71-0.22zm17.67 27.85a12.3 12.3 0 0 1-8.33 10.23 11.324 11.324 0 0 1-11.89-3.09c-3.67-3.85-4.54-9.66-2.32-15.54a18.539 18.539 0 0 1 3.96-6.26 15.627 15.627 0 0 0 9.69 7.89 27.9 27.9 0 0 0 9.68 1.02zm12.85-5.9a5.028 5.028 0 0 1-4.86-5.17v-0.83h1.63a6.623 6.623 0 0 0 2.2 3.68 1.684 1.684 0 1 0 2.09-2.64 2.73 2.73 0 0 1-0.75-1.04h4.55v0.83a5.028 5.028 0 0 1-4.86 5.17zm14.2-18.94h-5.41a1.694 1.694 0 0 0-1.69 1.69v7.89h-16.4a1.682 1.682 0 0 0-1.67 1.45l-0.63 4.66a25.218 25.218 0 0 1-9-0.79c-3.89-1.18-7.1-3.74-8.34-7.51l0.03-0.02c5.04-5.64 3.35-3.75 11.42-12.76h31.69v5.39z"/>
</svg>
