<?xml version="1.0" encoding="UTF-8"?>
<svg viewBox="0 0 56.812 50" xmlns="http://www.w3.org/2000/svg">
<defs>
<style>.cls-1 {
        fill: #df9a2b;
        fill-rule: evenodd;
      }</style>
</defs>
<path class="cls-1" transform="translate(-530.59 -1689)" d="m585.75 1695.7h-3.091l-2-5.57a1.656 1.656 0 0 0-2.09-1.01l-14.468 4.79a1.664 1.664 0 0 0-1.659-1.54h-6.882a1.664 1.664 0 0 0-1.659 1.54l-14.468-4.79a1.656 1.656 0 0 0-2.09 1.01l-2 5.57h-3.091a1.662 1.662 0 0 0-1.665 1.67v33.32a1.662 1.662 0 0 0 1.665 1.67h3.091l2 5.57a1.656 1.656 0 0 0 2.09 1.01l14.468-4.79a1.664 1.664 0 0 0 1.659 1.54h6.882a1.664 1.664 0 0 0 1.659-1.54l14.468 4.79a1.654 1.654 0 0 0 2.089-1.01l2-5.57h3.091a1.663 1.663 0 0 0 1.665-1.67v-33.32a1.663 1.663 0 0 0-1.664-1.67zm-45.825-2.91 8.78 2.91h-9.826zm0 42.48-1.046-2.91h9.826zm13.968-14.57a8.345 8.345 0 0 1 0-13.34v13.34zm-3.158 1.66h-7.117a5.042 5.042 0 0 0-3.045-3.05v-10.56a5.042 5.042 0 0 0 3.045-3.05h7.117a11.658 11.658 0 0 0 0 16.66zm3.158-20h-11.655a1.669 1.669 0 0 0-1.665 1.67 1.67 1.67 0 0 1-1.665 1.67 1.661 1.661 0 0 0-1.665 1.66v13.34a1.661 1.661 0 0 0 1.665 1.66 1.67 1.67 0 0 1 1.665 1.67 1.669 1.669 0 0 0 1.665 1.67h11.655v3.33h-19.98v-30h19.98v3.33zm6.882 30h-3.552v-36.66h3.552v36.66zm17.3-39.57 1.046 2.91h-9.826zm-13.968 14.57a8.345 8.345 0 0 1 0 13.34v-13.34zm3.158-1.66h7.117a5.042 5.042 0 0 0 3.045 3.05v10.56a5.042 5.042 0 0 0-3.045 3.05h-7.117a11.658 11.658 0 0 0-2e-3 -16.66zm10.81 29.57-8.78-2.91h9.826zm6.012-6.24h-19.98v-3.33h11.655a1.669 1.669 0 0 0 1.665-1.67 1.67 1.67 0 0 1 1.665-1.67 1.661 1.661 0 0 0 1.665-1.66v-13.34a1.661 1.661 0 0 0-1.665-1.66 1.67 1.67 0 0 1-1.665-1.67 1.669 1.669 0 0 0-1.665-1.67h-11.657v-3.33h19.98v30z"/>
</svg>
