<?xml version="1.0" encoding="UTF-8"?>
<svg viewBox="0 0 56.875 50" xmlns="http://www.w3.org/2000/svg">
<defs>
<style>.cls-1 {
        fill: #df9a2b;
        fill-rule: evenodd;
      }</style>
</defs>
<path class="cls-1" transform="translate(-931.56 -1320)" d="M987.953,1335.2l-5.818-5.82a1.677,1.677,0,0,0-1.178-.49h-8.18v-7.22a1.67,1.67,0,0,0-1.667-1.67H948.89a1.67,1.67,0,0,0-1.667,1.67v7.22h-8.18a1.677,1.677,0,0,0-1.178.49l-5.818,5.82a1.651,1.651,0,0,0-.489,1.18v31.95a1.67,1.67,0,0,0,1.667,1.67h53.55a1.67,1.67,0,0,0,1.667-1.67v-31.95A1.651,1.651,0,0,0,987.953,1335.2Zm-37.4-11.86h18.888v5.55H950.556v-5.55Zm34.553,43.32H934.891v-14.44h6.778V1355a1.67,1.67,0,0,0,1.666,1.67h8.888a1.67,1.67,0,0,0,1.667-1.67v-2.78h12.22V1355a1.67,1.67,0,0,0,1.667,1.67h8.888a1.67,1.67,0,0,0,1.666-1.67v-2.78h6.778v14.44ZM945,1353.33v-5.55h5.555v5.55H945Zm24.443,0v-5.55H975v5.55h-5.555Zm15.665-4.44h-6.778v-2.78a1.67,1.67,0,0,0-1.666-1.67h-8.888a1.67,1.67,0,0,0-1.667,1.67v2.78H953.89v-2.78a1.67,1.67,0,0,0-1.667-1.67h-8.888a1.67,1.67,0,0,0-1.666,1.67v2.78h-6.778v-11.82l4.842-4.85h40.534l4.842,4.85v11.82Z"/>
</svg>
