<svg xmlns="http://www.w3.org/2000/svg" width="30" height="30" viewBox="0 0 30 30">
  <defs>
    <style>
      .cls-1 {
        fill: #34bf49;
        fill-rule: evenodd;
      }
    </style>
  </defs>
  <path id="support" class="cls-1" d="M537.743,1215.27a2.757,2.757,0,0,1,.909.29,2.8,2.8,0,0,1,.761.59,2.522,2.522,0,0,1,.674,1.76v7.03a2.572,2.572,0,0,1-.205,1.05,2.525,2.525,0,0,1-.556.82,2.983,2.983,0,0,1-.85.59,2.325,2.325,0,0,1-1.025.23h-2.637v-1.81h-1.758v-8.79h1.758v-1.76h1.054a12.857,12.857,0,0,0-1.669-3.6,13.282,13.282,0,0,0-2.491-2.79,10.824,10.824,0,0,0-3.105-1.81,9.832,9.832,0,0,0-7.031,0,10.816,10.816,0,0,0-3.106,1.81,13.25,13.25,0,0,0-2.49,2.79,12.831,12.831,0,0,0-1.67,3.6h1.055v1.76h1.757v8.79h-1.757v1.81h-1.875a5.033,5.033,0,0,0,.556,1.35,4.435,4.435,0,0,0,.967,1.14,4.258,4.258,0,0,0,1.289.77,4.437,4.437,0,0,0,1.524.26h4.8a2.269,2.269,0,0,1,.352-0.73,2.467,2.467,0,0,1,.557-0.56,2.256,2.256,0,0,1,.732-0.35,2.9,2.9,0,0,1,.82-0.12h5.274a2.553,2.553,0,0,1,1.054.21,2.6,2.6,0,0,1,.821.55,3.3,3.3,0,0,1,.586.82,2.427,2.427,0,0,1,0,2.08,2.844,2.844,0,0,1-.586.85,2.625,2.625,0,0,1-.821.56,2.551,2.551,0,0,1-1.054.2h-5.274a2.887,2.887,0,0,1-.82-0.11,2.129,2.129,0,0,1-.732-0.38,3.1,3.1,0,0,1-.557-0.59,2.424,2.424,0,0,1-.352-0.67h-4.8a5.785,5.785,0,0,1-2.227-.44,6.963,6.963,0,0,1-1.875-1.17,6.255,6.255,0,0,1-1.348-1.73,5.883,5.883,0,0,1-.644-2.17,2.265,2.265,0,0,1-.674-0.38,2.453,2.453,0,0,1-.527-0.59,2.794,2.794,0,0,1-.323-0.7,2.669,2.669,0,0,1-.117-0.79v-7.03a2.6,2.6,0,0,1,.176-0.97,2.552,2.552,0,0,1,.5-0.79,2.794,2.794,0,0,1,.762-0.59,2.752,2.752,0,0,1,.908-0.29,16.153,16.153,0,0,1,1.875-4.31,13.95,13.95,0,0,1,2.9-3.34,13.5,13.5,0,0,1,3.692-2.16,11.37,11.37,0,0,1,8.379,0,13.49,13.49,0,0,1,3.691,2.16,13.95,13.95,0,0,1,2.9,3.34,16.153,16.153,0,0,1,1.875,4.31h0Zm-12.656,15.88a1.079,1.079,0,0,0-.351.06,0.838,0.838,0,0,0-.293.17,0.735,0.735,0,0,0-.176.3,1.054,1.054,0,0,0-.059.35,0.848,0.848,0,0,0,.059.32,0.96,0.96,0,0,0,.176.29,0.615,0.615,0,0,0,.293.21,1.079,1.079,0,0,0,.351.06h5.274a1.079,1.079,0,0,0,.351-0.06,0.624,0.624,0,0,0,.293-0.21,1,1,0,0,0,.176-0.29,0.868,0.868,0,0,0,.059-0.32,1.08,1.08,0,0,0-.059-0.35,0.758,0.758,0,0,0-.176-0.3,0.857,0.857,0,0,0-.293-0.17,1.079,1.079,0,0,0-.351-0.06h-5.274Zm-11.484-5.33v-8.79h-0.879a0.839,0.839,0,0,0-.322.06,1.094,1.094,0,0,0-.293.17,0.624,0.624,0,0,0-.205.3,1.029,1.029,0,0,0-.059.35v7.03a1.072,1.072,0,0,0,.059.35,0.555,0.555,0,0,0,.205.29,1.143,1.143,0,0,0,.293.18,0.839,0.839,0,0,0,.322.06H513.6Zm24.726-.88v-7.03a1.08,1.08,0,0,0-.058-0.35,0.645,0.645,0,0,0-.2-0.3,1.126,1.126,0,0,0-.293-0.17,0.843,0.843,0,0,0-.322-0.06h-0.879v8.79h0.879a0.843,0.843,0,0,0,.322-0.06,1.178,1.178,0,0,0,.293-0.18,0.572,0.572,0,0,0,.2-0.29,1.126,1.126,0,0,0,.058-0.35h0Z" transform="translate(-510.094 -1204.66)"/>
</svg>
