<?xml version="1.0" encoding="UTF-8"?>
<svg viewBox="0 0 68.25 60.06" xmlns="http://www.w3.org/2000/svg">
<defs>
<style>.cls-1 {
        fill: #38214a;
        fill-rule: evenodd;
      }</style>
</defs>
<path class="cls-1" transform="translate(-525 -1385)" d="M585.873,1385h-53.51a7.363,7.363,0,0,0-7.363,7.36v45.33a7.369,7.369,0,0,0,7.363,7.36h53.51a7.37,7.37,0,0,0,7.363-7.36v-45.33A7.364,7.364,0,0,0,585.873,1385Zm5.6,52.69a5.6,5.6,0,0,1-5.6,5.6h-53.51a5.6,5.6,0,0,1-5.6-5.6v-35.06h64.714v35.06Zm0-36.81H526.761v-8.52a5.613,5.613,0,0,1,5.6-5.61h53.51a5.613,5.613,0,0,1,5.6,5.61v8.52Zm-47.342-10.33a3.33,3.33,0,1,0,3.337,3.33,3.327,3.327,0,0,0-3.337-3.33h0Zm0,4.9a1.57,1.57,0,1,1,1.583-1.57,1.565,1.565,0,0,1-1.583,1.57h0Zm-11.033-4.94a3.335,3.335,0,1,0,3.336,3.33,3.342,3.342,0,0,0-3.336-3.33h0Zm0,4.91a1.575,1.575,0,1,1,1.576-1.58,1.574,1.574,0,0,1-1.576,1.58h0Zm22.074-4.83a3.33,3.33,0,1,0,3.336,3.33,3.33,3.33,0,0,0-3.336-3.33h0Zm0,4.9a1.573,1.573,0,1,1,.007,0h-0.007Zm31.217,16.56a3.9,3.9,0,0,0-5.513,0l-15.2,15.17a0.66,0.66,0,0,0-.1.12,0.419,0.419,0,0,1-.028.05,0.59,0.59,0,0,0-.054.13,0.159,0.159,0,0,1-.014.04l-1.9,6.31a0.775,0.775,0,0,0,.512.96,0.836,0.836,0,0,0,.444,0l6.325-1.9a0.055,0.055,0,0,1,.034-0.02,0.378,0.378,0,0,0,.137-0.06,0.065,0.065,0,0,0,.034-0.02,0.471,0.471,0,0,0,.136-0.11l15.189-15.16a3.864,3.864,0,0,0,.069-5.48,0.058,0.058,0,0,0-.068-0.03h0Zm-20.934,20.89,1.126-3.74,2.627,2.62Zm19.9-16.5c-0.014.01-.03,0.03-0.047,0.04l-0.185.18-14.466,14.44-3.35-3.34,14.657-14.63a2.369,2.369,0,0,1,3.391,3.31h0Zm-31.92,5.4H533.871a0.765,0.765,0,0,0,0,1.53h19.568a0.765,0.765,0,0,0,0-1.53h0Zm-19.57,7.27h19.563a0.76,0.76,0,1,0,0-1.52H533.864a0.767,0.767,0,0,0-.616.89,0.778,0.778,0,0,0,.616.63h0Zm19.57,4.21h-19.57a0.774,0.774,0,0,0-.762.77,0.761,0.761,0,0,0,.762.76h19.57a0.765,0.765,0,1,0,0-1.53h0Zm0-22.96H533.871a0.765,0.765,0,1,0,0,1.53h19.563a0.765,0.765,0,1,0,0-1.53h0Zm-19.57,7.27h19.563a0.765,0.765,0,0,0,0-1.53H533.864a0.765,0.765,0,0,0,0,1.53h0Z"/>
</svg>
