<?xml version="1.0" encoding="UTF-8"?>
<svg viewBox="0 0 68.688 60" xmlns="http://www.w3.org/2000/svg">
<defs>
<style>.cls-1 {
        fill: #38214a;
        fill-rule: evenodd;
      }</style>
</defs>
<path class="cls-1" transform="translate(-925.66 -1385)" d="m991.18 1419.6a31.782 31.782 0 0 0-8.087-20.97 31.443 31.443 0 0 0-11.792-8.23l-2.292-0.9h9.5v-1.24h-14.737v-3.2h-7.551v3.2h-14.74v1.24h9.5l-2.293 0.9a31.443 31.443 0 0 0-11.792 8.23 31.788 31.788 0 0 0-8.087 20.97v0.46h-3.163v7.65h7.55v-7.65h-3.165v-0.47a30.546 30.546 0 0 1 7.77-20.13 29.885 29.885 0 0 1 17.891-9.65l0.526-0.08v2.97h7.549v-2.97l0.527 0.08a29.885 29.885 0 0 1 17.891 9.65 30.54 30.54 0 0 1 7.769 20.13v0.47h-3.158v7.65h7.549v-7.65h-3.162zm-59.208 1.7v5.17h-5.1v-5.17h5.1zm30.575-29.83h-5.1v-5.17h5.1v5.17zm30.576 35h-5.1v-5.17h5.1v5.17zm-8.878-33.76a3.825 3.825 0 1 0-3.773-3.88v0.05a3.806 3.806 0 0 0 3.773 3.83zm0-6.41a2.585 2.585 0 1 1-2.551 2.62v-0.04a2.564 2.564 0 0 1 2.551-2.58zm-48.5 6.41a3.825 3.825 0 1 0-3.774-3.88v0.05a3.806 3.806 0 0 0 3.775 3.83zm0-6.41a2.585 2.585 0 1 1-2.551 2.62v-0.04a2.564 2.564 0 0 1 2.551-2.58zm14.168 58.76h20.164v-1.24h-20.163v1.24zm2.09-4.74v1.51h1.223v-1.83l-5.177-9.44 11.947-20.18 11.946 20.18-5.177 9.44v1.83h1.223v-1.51l5.366-9.79-13.358-22.55-13.359 22.55zm7.38 1.51h1.224v-10.67h1.035v-1.23h-3.294v1.23h1.035v10.67z"/>
</svg>
