<svg xmlns="http://www.w3.org/2000/svg" xmlns:xlink="http://www.w3.org/1999/xlink" width="208" height="208" viewBox="0 0 208 208">
  <defs>
    <filter id="Ellipse_1" x="0" y="0" width="208" height="208" filterUnits="userSpaceOnUse">
      <feOffset dy="10" input="SourceAlpha"/>
      <feGaussianBlur stdDeviation="18" result="blur"/>
      <feFlood flood-opacity="0.051"/>
      <feComposite operator="in" in2="blur"/>
      <feComposite in="SourceGraphic"/>
    </filter>
  </defs>
  <g id="home-service-icon-01" transform="translate(-467 -1338)">
    <g transform="matrix(1, 0, 0, 1, 467, 1338)" filter="url(#Ellipse_1)">
      <circle id="Ellipse_1-2" data-name="Ellipse 1" cx="50" cy="50" r="50" transform="translate(54 44)" fill="#fff"/>
    </g>
    <g id="Group_7" data-name="Group 7" transform="translate(398.36 1169.023)">
      <path id="Path_17" data-name="Path 17" d="M155.728,278.737H144.621v-45.6h35.536v30.144a15.119,15.119,0,0,1,4.87-.815c.374,0,.742.032,1.111.058V232.594a6.617,6.617,0,0,0-6.617-6.617H145.257a6.617,6.617,0,0,0-6.617,6.617V285.37a6.616,6.616,0,0,0,6.617,6.617h1.577a10.839,10.839,0,0,1,8.894-13.251Z" transform="translate(0 0)" fill="#347aff"/>
      <path id="Path_18" data-name="Path 18" d="M196.063,259.955c-.286,0-.568.019-.846.044A15.22,15.22,0,0,0,181.5,241.077c-.369-.027-.737-.058-1.111-.058a15.119,15.119,0,0,0-4.87.815,15.313,15.313,0,0,0-5.671,3.418,12.831,12.831,0,0,0-17.893,11.79c0,.032,0,.063,0,.1-.3.024-.577.107-.871.155a10.962,10.962,0,0,0,1.795,21.776h43.179a9.558,9.558,0,0,0,0-19.115Z" transform="translate(4.639 21.442)" fill="#d3e7fe" stroke="#347aff" stroke-linecap="round" stroke-linejoin="round" stroke-width="1.1"/>
      <path id="Path_19" data-name="Path 19" d="M170.086,251.9a11.307,11.307,0,0,0-13.469-8.644" transform="translate(25.626 24.252)" fill="none" stroke="#347aff" stroke-linecap="round" stroke-linejoin="round" stroke-width="1.1"/>
      <line id="Line_9" data-name="Line 9" x1="9.349" y2="9.349" transform="translate(170.588 245.109)" fill="none" stroke="#347aff" stroke-linecap="round" stroke-linejoin="round" stroke-width="1.1"/>
      <line id="Line_10" data-name="Line 10" x1="8.17" y2="8.171" transform="translate(144.67 256.665)" fill="none" stroke="#347aff" stroke-linecap="round" stroke-linejoin="round" stroke-width="1.1"/>
      <line id="Line_11" data-name="Line 11" x1="5.286" y2="5.286" transform="translate(174.958 236.854)" fill="none" stroke="#347aff" stroke-linecap="round" stroke-linejoin="round" stroke-width="1.1"/>
    </g>
  </g>
</svg>
