<svg xmlns="http://www.w3.org/2000/svg" xmlns:xlink="http://www.w3.org/1999/xlink" width="208" height="208" viewBox="0 0 208 208">
  <defs>
    <filter id="Ellipse_3" x="0" y="0" width="208" height="208" filterUnits="userSpaceOnUse">
      <feOffset dy="10" input="SourceAlpha"/>
      <feGaussianBlur stdDeviation="18" result="blur"/>
      <feFlood flood-opacity="0.051"/>
      <feComposite operator="in" in2="blur"/>
      <feComposite in="SourceGraphic"/>
    </filter>
  </defs>
  <g id="service-icon-06" transform="translate(-1248 -1338)">
    <g transform="matrix(1, 0, 0, 1, 1248, 1338)" filter="url(#Ellipse_3)">
      <circle id="Ellipse_3-2" data-name="Ellipse 3" cx="50" cy="50" r="50" transform="translate(54 44)" fill="#fff"/>
    </g>
    <g id="Group_169" data-name="Group 169" transform="translate(1024.157 1223.351)">
      <path id="Path_2803" data-name="Path 2803" d="M322.578,220.7V214.09h4.286a19.835,19.835,0,0,1,3.437-8.305l-3.027-3.027,4.671-4.673,3.029,3.027a19.9,19.9,0,0,1,8.3-3.437v-4.283h6.608v4.283a19.915,19.915,0,0,1,4.815,1.467,19.265,19.265,0,0,0,.365-3.526,19.948,19.948,0,0,0-33.728-14.442,16.747,16.747,0,0,0-23.358,15.392c0,.043.005.084.005.127a14.341,14.341,0,0,0,1.206,28.632h29.047a19.866,19.866,0,0,1-1.373-4.625Z" transform="translate(0 0)" fill="#d3e7fe" stroke="#347aff" stroke-linecap="round" stroke-linejoin="round" stroke-width="2"/>
      <path id="Path_2804" data-name="Path 2804" d="M310.019,180.657a12.692,12.692,0,0,0-17.7,11.664c0,.033.005.066.005.1" transform="translate(11.457 6.096)" fill="none" stroke="#347aff" stroke-linecap="round" stroke-linejoin="round" stroke-width="2"/>
      <path id="Path_2805" data-name="Path 2805" d="M314.688,185.7a12.458,12.458,0,0,0-1.241-.223c.3.19.61.362.9.567Z" transform="translate(43.846 15.066)" fill="none" stroke="#30567d" stroke-linecap="round" stroke-linejoin="round" stroke-width="1.1"/>
      <path id="Path_2806" data-name="Path 2806" d="M345.074,203.353h-1.611a19.9,19.9,0,0,0-3.437-8.305l1.629-1.629,1.4-1.4-4.673-4.673L335.7,190.03l-.345.344c-.286-.205-.6-.377-.9-.567a19.672,19.672,0,0,0-2.594-1.4,19.915,19.915,0,0,0-4.815-1.467v-4.283H320.44v4.283a19.9,19.9,0,0,0-8.3,3.437l-3.029-3.027-4.671,4.673,3.027,3.027a19.835,19.835,0,0,0-3.437,8.305h-4.286v6.608h4.286a20.352,20.352,0,0,0,3.437,8.305l-3.027,3.027,4.671,4.671,3.029-3.027a19.838,19.838,0,0,0,8.3,3.437v4.286h6.608v-4.286a19.862,19.862,0,0,0,8.305-3.437l3.027,3.027,4.673-4.671-3.027-3.027a19.928,19.928,0,0,0,3.437-8.305h4.283v-6.608Z" transform="translate(22.837 10.738)" fill="none" stroke="#347aff" stroke-linecap="round" stroke-linejoin="round" stroke-width="2"/>
      <path id="Path_2807" data-name="Path 2807" d="M316.032,187.686a11.257,11.257,0,1,0,11.256,11.256A11.258,11.258,0,0,0,316.032,187.686Zm-.058,15.906a4.521,4.521,0,1,1,4.521-4.521A4.521,4.521,0,0,1,315.973,203.592Z" transform="translate(30.55 18.451)" fill="#d3e7fe" stroke="#347aff" stroke-linecap="round" stroke-linejoin="round" stroke-width="1.1"/>
      <path id="Path_2808" data-name="Path 2808" d="M311.931,190.4a4.521,4.521,0,1,0,4.521,4.521A4.521,4.521,0,0,0,311.931,190.4Z" transform="translate(34.592 22.605)" fill="none" stroke="#347aff" stroke-linecap="round" stroke-linejoin="round" stroke-width="1.1"/>
    </g>
  </g>
</svg>
