<svg xmlns="http://www.w3.org/2000/svg" width="222.388" height="57.008" viewBox="0 0 222.388 57.008"><path d="M64.667,32c-.127-6.729-.834-13.535-4.6-19.83C57.441,7.778,51.377,1.316,43.741.719c-9.634-.753-11.484,12.6-12.292,16.688-2.077,10.493-1.408,21.24-1.408,31.806,0,13.685-24.036,2.49-28.479-4.483-3.869-6.072,10.422-3.246,13.888-2.422,11.377,2.706,21.11,8.262,32.8,10.373,4.236.765,7.937,1.044,9.946-2.029.71-1.085.222-2.572,2.252-1.309C71.42,56.172,73.114,44.687,76.068,39.3c2-3.648,7.952,11.113,8.539,10.111,1.834-3.126,2.436-16.348,10.838-13.743,2,.62,5.361,2.348,7.413.982,2.689-1.79,2.573-4.356,4.222-6.479,2.2-2.838,5.277,10.125,7.038,8.115,3.023-3.45,2.807-10.177,8.492-4.156,1.567,1.659,6.542,6.875,8.727,2.749,4.563-8.618,3.758-18.614,6.146-27.585.332-1.247,1.17-5.166,3.894-2.421,4.111,4.142,6.021,9.9,8.211,14.594,4.067,8.72,7.617,17.553,11.823,26.243,1.506,3.111,2.414,5.573,3.1,1.112.491-3.208.982-8.55,6.615-9.359,4.024-.578,8.07,1.166,12.1,1.276,4.16.114,7.249-1.037,10.651-2.552,10.6-4.724,17.044-3.067,27.025,2.062" transform="translate(0.138 0.311)" fill="none" stroke="#39375b" stroke-linecap="round" stroke-linejoin="round" stroke-width="2"/></svg>