<svg xmlns="http://www.w3.org/2000/svg" width="264" height="264" viewBox="0 0 264 264">
  <defs>
    <style>
      .cls-1 {
        opacity: 0.4;
      }

      .cls-2 {
        fill: #3598fe;
      }
    </style>
  </defs>
  <g id="dots" class="cls-1">
    <rect class="cls-2" width="4" height="4"/>
    <rect id="Rectangle_3_copy" data-name="Rectangle 3 copy" class="cls-2" x="37" width="4" height="4"/>
    <rect id="Rectangle_3_copy_2" data-name="Rectangle 3 copy 2" class="cls-2" x="74" width="4" height="4"/>
    <rect id="Rectangle_3_copy_3" data-name="Rectangle 3 copy 3" class="cls-2" x="111" width="4" height="4"/>
    <rect id="Rectangle_3_copy_4" data-name="Rectangle 3 copy 4" class="cls-2" x="149" width="4" height="4"/>
    <rect id="Rectangle_3_copy_5" data-name="Rectangle 3 copy 5" class="cls-2" x="186" width="4" height="4"/>
    <rect id="Rectangle_3_copy_6" data-name="Rectangle 3 copy 6" class="cls-2" x="223" width="4" height="4"/>
    <rect id="Rectangle_3_copy_7" data-name="Rectangle 3 copy 7" class="cls-2" x="260" width="4" height="4"/>
    <rect id="Rectangle_3_copy_8" data-name="Rectangle 3 copy 8" class="cls-2" y="37" width="4" height="4"/>
    <rect id="Rectangle_3_copy_8-2" data-name="Rectangle 3 copy 8" class="cls-2" x="37" y="37" width="4" height="4"/>
    <rect id="Rectangle_3_copy_8-3" data-name="Rectangle 3 copy 8" class="cls-2" x="74" y="37" width="4" height="4"/>
    <rect id="Rectangle_3_copy_8-4" data-name="Rectangle 3 copy 8" class="cls-2" x="111" y="37" width="4" height="4"/>
    <rect id="Rectangle_3_copy_8-5" data-name="Rectangle 3 copy 8" class="cls-2" x="149" y="37" width="4" height="4"/>
    <rect id="Rectangle_3_copy_8-6" data-name="Rectangle 3 copy 8" class="cls-2" x="186" y="37" width="4" height="4"/>
    <rect id="Rectangle_3_copy_8-7" data-name="Rectangle 3 copy 8" class="cls-2" x="223" y="37" width="4" height="4"/>
    <rect id="Rectangle_3_copy_8-8" data-name="Rectangle 3 copy 8" class="cls-2" x="260" y="37" width="4" height="4"/>
    <rect id="Rectangle_3_copy_9" data-name="Rectangle 3 copy 9" class="cls-2" y="74" width="4" height="4"/>
    <rect id="Rectangle_3_copy_9-2" data-name="Rectangle 3 copy 9" class="cls-2" x="37" y="74" width="4" height="4"/>
    <rect id="Rectangle_3_copy_9-3" data-name="Rectangle 3 copy 9" class="cls-2" x="74" y="74" width="4" height="4"/>
    <rect id="Rectangle_3_copy_9-4" data-name="Rectangle 3 copy 9" class="cls-2" x="111" y="74" width="4" height="4"/>
    <rect id="Rectangle_3_copy_9-5" data-name="Rectangle 3 copy 9" class="cls-2" x="149" y="74" width="4" height="4"/>
    <rect id="Rectangle_3_copy_9-6" data-name="Rectangle 3 copy 9" class="cls-2" x="186" y="74" width="4" height="4"/>
    <rect id="Rectangle_3_copy_9-7" data-name="Rectangle 3 copy 9" class="cls-2" x="223" y="74" width="4" height="4"/>
    <rect id="Rectangle_3_copy_9-8" data-name="Rectangle 3 copy 9" class="cls-2" x="260" y="74" width="4" height="4"/>
    <rect id="Rectangle_3_copy_10" data-name="Rectangle 3 copy 10" class="cls-2" y="111" width="4" height="4"/>
    <rect id="Rectangle_3_copy_10-2" data-name="Rectangle 3 copy 10" class="cls-2" x="37" y="111" width="4" height="4"/>
    <rect id="Rectangle_3_copy_10-3" data-name="Rectangle 3 copy 10" class="cls-2" x="74" y="111" width="4" height="4"/>
    <rect id="Rectangle_3_copy_10-4" data-name="Rectangle 3 copy 10" class="cls-2" x="111" y="111" width="4" height="4"/>
    <rect id="Rectangle_3_copy_10-5" data-name="Rectangle 3 copy 10" class="cls-2" x="149" y="111" width="4" height="4"/>
    <rect id="Rectangle_3_copy_10-6" data-name="Rectangle 3 copy 10" class="cls-2" x="186" y="111" width="4" height="4"/>
    <rect id="Rectangle_3_copy_10-7" data-name="Rectangle 3 copy 10" class="cls-2" x="223" y="111" width="4" height="4"/>
    <rect id="Rectangle_3_copy_10-8" data-name="Rectangle 3 copy 10" class="cls-2" x="260" y="111" width="4" height="4"/>
    <rect id="Rectangle_3_copy_11" data-name="Rectangle 3 copy 11" class="cls-2" y="149" width="4" height="4"/>
    <rect id="Rectangle_3_copy_11-2" data-name="Rectangle 3 copy 11" class="cls-2" x="37" y="149" width="4" height="4"/>
    <rect id="Rectangle_3_copy_11-3" data-name="Rectangle 3 copy 11" class="cls-2" x="74" y="149" width="4" height="4"/>
    <rect id="Rectangle_3_copy_11-4" data-name="Rectangle 3 copy 11" class="cls-2" x="111" y="149" width="4" height="4"/>
    <rect id="Rectangle_3_copy_11-5" data-name="Rectangle 3 copy 11" class="cls-2" x="149" y="149" width="4" height="4"/>
    <rect id="Rectangle_3_copy_11-6" data-name="Rectangle 3 copy 11" class="cls-2" x="186" y="149" width="4" height="4"/>
    <rect id="Rectangle_3_copy_11-7" data-name="Rectangle 3 copy 11" class="cls-2" x="223" y="149" width="4" height="4"/>
    <rect id="Rectangle_3_copy_11-8" data-name="Rectangle 3 copy 11" class="cls-2" x="260" y="149" width="4" height="4"/>
    <rect id="Rectangle_3_copy_12" data-name="Rectangle 3 copy 12" class="cls-2" y="186" width="4" height="4"/>
    <rect id="Rectangle_3_copy_12-2" data-name="Rectangle 3 copy 12" class="cls-2" x="37" y="186" width="4" height="4"/>
    <rect id="Rectangle_3_copy_12-3" data-name="Rectangle 3 copy 12" class="cls-2" x="74" y="186" width="4" height="4"/>
    <rect id="Rectangle_3_copy_12-4" data-name="Rectangle 3 copy 12" class="cls-2" x="111" y="186" width="4" height="4"/>
    <rect id="Rectangle_3_copy_12-5" data-name="Rectangle 3 copy 12" class="cls-2" x="149" y="186" width="4" height="4"/>
    <rect id="Rectangle_3_copy_12-6" data-name="Rectangle 3 copy 12" class="cls-2" x="186" y="186" width="4" height="4"/>
    <rect id="Rectangle_3_copy_12-7" data-name="Rectangle 3 copy 12" class="cls-2" x="223" y="186" width="4" height="4"/>
    <rect id="Rectangle_3_copy_12-8" data-name="Rectangle 3 copy 12" class="cls-2" x="260" y="186" width="4" height="4"/>
    <rect id="Rectangle_3_copy_13" data-name="Rectangle 3 copy 13" class="cls-2" y="223" width="4" height="4"/>
    <rect id="Rectangle_3_copy_13-2" data-name="Rectangle 3 copy 13" class="cls-2" x="37" y="223" width="4" height="4"/>
    <rect id="Rectangle_3_copy_13-3" data-name="Rectangle 3 copy 13" class="cls-2" x="74" y="223" width="4" height="4"/>
    <rect id="Rectangle_3_copy_13-4" data-name="Rectangle 3 copy 13" class="cls-2" x="111" y="223" width="4" height="4"/>
    <rect id="Rectangle_3_copy_13-5" data-name="Rectangle 3 copy 13" class="cls-2" x="149" y="223" width="4" height="4"/>
    <rect id="Rectangle_3_copy_13-6" data-name="Rectangle 3 copy 13" class="cls-2" x="186" y="223" width="4" height="4"/>
    <rect id="Rectangle_3_copy_13-7" data-name="Rectangle 3 copy 13" class="cls-2" x="223" y="223" width="4" height="4"/>
    <rect id="Rectangle_3_copy_13-8" data-name="Rectangle 3 copy 13" class="cls-2" x="260" y="223" width="4" height="4"/>
    <rect id="Rectangle_3_copy_14" data-name="Rectangle 3 copy 14" class="cls-2" y="260" width="4" height="4"/>
    <rect id="Rectangle_3_copy_14-2" data-name="Rectangle 3 copy 14" class="cls-2" x="37" y="260" width="4" height="4"/>
    <rect id="Rectangle_3_copy_14-3" data-name="Rectangle 3 copy 14" class="cls-2" x="74" y="260" width="4" height="4"/>
    <rect id="Rectangle_3_copy_14-4" data-name="Rectangle 3 copy 14" class="cls-2" x="111" y="260" width="4" height="4"/>
    <rect id="Rectangle_3_copy_14-5" data-name="Rectangle 3 copy 14" class="cls-2" x="149" y="260" width="4" height="4"/>
    <rect id="Rectangle_3_copy_14-6" data-name="Rectangle 3 copy 14" class="cls-2" x="186" y="260" width="4" height="4"/>
    <rect id="Rectangle_3_copy_14-7" data-name="Rectangle 3 copy 14" class="cls-2" x="223" y="260" width="4" height="4"/>
    <rect id="Rectangle_3_copy_14-8" data-name="Rectangle 3 copy 14" class="cls-2" x="260" y="260" width="4" height="4"/>
  </g>
</svg>
