<svg xmlns="http://www.w3.org/2000/svg" width="910.225" height="801.723" viewBox="0 0 910.225 801.723"><path d="M916.056,347.306C872.769,177.089,723.2,54.217,547.631,49.289c-92.816-2.605-190.485,28.178-261.594,135.9-127.117,192.563,7.812,325.629,101.88,388.86A588.6,588.6,0,0,1,509.58,683.4c63.54,75.4,185.777,169.1,331.355,22.289C946.45,599.281,944.89,460.687,916.056,347.306Z" transform="translate(-144.887 -49.139)" fill="#1c145c"/><ellipse cx="455" cy="23" rx="455" ry="23" transform="translate(0 707.723)" fill="#1c145c"/><ellipse cx="178.043" cy="9" rx="178.043" ry="9" transform="translate(554.138 759.723)" fill="#1c145c"/><ellipse cx="178.043" cy="9" rx="178.043" ry="9" transform="translate(218.012 783.723)" fill="#1c145c"/><path d="M826.266,399.3s30.246-.441,23.8,8.654-31.444,8.46-31.444,8.46Z" transform="translate(-144.887 -49.139)" fill="#ffb9b9"/><path d="M733.228,287.149l30.61,41.558L790.3,360.324s27.42,28.6,30.478,32.559,12.042,2.825,10.13,8.853-4.766,16.071-7.751,17.115-17.013-.752-18.042-2.737-66.577-39.033-89.968-65.694l-22.262-15.11-.334-25.565Z" transform="translate(-144.887 -49.139)" fill="#35e1ff"/><path d="M733.228,287.149l30.61,41.558L790.3,360.324s27.42,28.6,30.478,32.559,12.042,2.825,10.13,8.853-4.766,16.071-7.751,17.115-17.013-.752-18.042-2.737-66.577-39.033-89.968-65.694l-22.262-15.11-.334-25.565Z" transform="translate(-144.887 -49.139)" fill="#f59d52"/><path d="M733.228,287.149l30.61,41.558L790.3,360.324s27.42,28.6,30.478,32.559,12.042,2.825,10.13,8.853-4.766,16.071-7.751,17.115-17.013-.752-18.042-2.737-66.577-39.033-89.968-65.694l-22.262-15.11-.334-25.565Z" transform="translate(-144.887 -49.139)" fill="#0d003e" opacity="0.1"/><path d="M745.887,267.861l6.364,15h5.636l-8-38c0-24.391-11.772-45-36.163-45h0A30.837,30.837,0,0,0,682.887,230.7v37.268a14.9,14.9,0,0,0,14.9,14.9h43.729Z" transform="translate(-144.887 -49.139)" fill="#0d003e"/><path d="M642.387,651.361s-9,12-9,15-5,4-8,7-6,2-4,5-25,21-25,21l-26,34,7,6,20-21-3,37,28,26s12,2,13,0-10-22-10-22,1-18,7-25a102.027,102.027,0,0,0,10-14s-3-4,4-5,2-7,2-7,2-1,8-1,33-29,33-29Z" transform="translate(-144.887 -49.139)" fill="#0d003e"/><path d="M754.387,682.361s-4,14,3,22,0,6,0,6,1,6-3,9-4,9-4,9-5,10-4,16,1,36,1,36h10v-26l20,26h50s-1-5-6-6-20,0-23-21c0,0-1-12-3-14s-4-9-2-14,0-7,3-9,4-8,2-11-8-8-1-11,7-18,7-18Z" transform="translate(-144.887 -49.139)" fill="#0d003e"/><path d="M688.387,442.361s-11,9,3,46,20,85,20,85-14,12-14,18-62,44-58,61,77,49,84,47,41-98,41-98-13-106-14-107-31-50-31-50l-18-37Z" transform="translate(-144.887 -49.139)" fill="#0d003e"/><path d="M688.387,442.361s-11,9,3,46,20,85,20,85-14,12-14,18-62,44-58,61,77,49,84,47,41-98,41-98-13-106-14-107-31-50-31-50l-18-37Z" transform="translate(-144.887 -49.139)" fill="#0d003e" opacity="0.1"/><path d="M687.387,419.361s-8,29,11,59,41,92,41,92,21,65,12,112c0,0-3,6,5,6s92-2,85-23-38-119-38-119l-40-99-2-30-15-23h-31Z" transform="translate(-144.887 -49.139)" fill="#0d003e"/><path d="M547.5,449.361s-30.249,0-23.673,9,31.565,8,31.565,8Z" transform="translate(-144.887 -49.139)" fill="#ffb9b9"/><path d="M705.887,242.861s2,14-5,16,28,17,28,17,7-24,10-27S705.887,242.861,705.887,242.861Z" transform="translate(-144.887 -49.139)" fill="#ffb9b9"/><path d="M705.887,242.861s2,14-5,16,28,17,28,17,7-24,10-27S705.887,242.861,705.887,242.861Z" transform="translate(-144.887 -49.139)" fill="#0d003e" opacity="0.1"/><path d="M733.887,265.861s-31-9-32-12-8,4-11,9-9,11-12,11-25,13-30,36c-2.289,10.529-5.626,16.657-8.571,20.207a19.292,19.292,0,0,0-3.883,10,.973.973,0,0,1-.546.792c-2,1,42,43,42,43s17-4,20,0-2,11-5,15-10,24-6,27,25-27,37-21,24,1,24,1,5,16,13,16,10-13,7-17-15-12-9-23,8-31,8-31,16-19-13-42c0,0-10-28-13-30s-8-3-8-5S733.887,265.861,733.887,265.861Z" transform="translate(-144.887 -49.139)" fill="#f59d52"/><path d="M638.887,335.861l-30,42-26,32s-27,29-30,33-12,3-10,9,5,16,8,17,17-1,18-3,66-40,89-67l22.039-15.433-.039-25.567Z" transform="translate(-144.887 -49.139)" fill="#f59d52"/><path d="M699.479,384.939l57.966,1.85a2.517,2.517,0,0,1,2.442,2.516v.925a2.517,2.517,0,0,1-2.63,2.514l-57.966-2.775a2.517,2.517,0,0,1-2.4-2.514h0a2.517,2.517,0,0,1,2.592-2.516Z" transform="translate(-144.887 -49.139)" fill="#0d003e"/><ellipse cx="1" cy="5.5" rx="1" ry="5.5" transform="translate(613 335.723)" fill="#0d003e"/><circle cx="28" cy="28" r="28" transform="translate(553 153.723)" fill="#ffb9b9"/><path d="M737.59,201.2c-5.425-1.375-18.289-1.337-20.171-1.337a34.531,34.531,0,0,0-34.531,34.532l-13,48.469h25.3l4.7-18,6.667,18h12.738l1.095-10.817,4.311,10.817h14.189c-10.626-24.044-16.279-45.961-2.318-59.488,9.427,1.284,17.379-1.241,18.674-6.352C756.736,211.132,748.833,204.048,737.59,201.2Z" transform="translate(-144.887 -49.139)" fill="#0d003e"/><path d="M736.683,277.722" transform="translate(-144.887 -49.139)" fill="#0d003e"/><path d="M177.787,372.461a14.012,14.012,0,0,1-12.2-21c17.8-30,71.9-100.1,190.1-100.1,51.2,0,96.1,13.6,133.4,40.4,30.7,22,47.9,46.9,56.1,58.9a13.9,13.9,0,0,1-3.7,19.4,14.224,14.224,0,0,1-19.6-3.7c-14.9-21.6-60.1-87.2-166.2-87.2-103.6,0-150.4,60.4-165.7,86.3a13.8,13.8,0,0,1-12.2,7Z" transform="translate(-144.887 -49.139)" fill="#35e1ff"/><path d="M415.187,646.861a13.931,13.931,0,0,1-3.5-.4c-85.7-21.5-117.7-108.1-119-111.7l-.2-.8c-.7-2.5-17.9-61.9,8.5-96.7,12.1-15.9,30.5-24,54.8-24,22.6,0,38.9,7.1,50.1,21.8,9.2,12,12.9,26.8,16.5,41.1,7.5,29.7,12.9,45.3,44.1,46.9,13.7.7,22.7-7.4,27.8-14.3,13.8-18.8,16.2-49.5,5.8-76.5-13.4-35-60.8-100.9-144.4-100.9-35.7,0-68.5,11.6-94.8,33.4-21.8,18.1-39.1,43.6-47.4,69.8-15.4,48.8,4.8,125.5,5,126.2a13.871,13.871,0,0,1-10,17,14.2,14.2,0,0,1-17.3-9.9c-.9-3.5-22.5-85.3-4.7-141.7,19.4-61.1,79.2-122.7,169.2-122.7,41.6,0,80.9,14.3,113.7,41.3,25.4,21,46.2,49.2,57,77.4,13.8,36,10.1,76.4-9.4,102.8-13,17.6-31.5,26.8-52,25.8-53.4-2.7-63-40.4-70-67.9-7.2-28.2-11.8-41.8-39.3-41.8-15.1,0-25.7,4.2-32.3,12.9-9,11.9-9.7,30.5-8.7,44q.015.211.031.422a113.928,113.928,0,0,0,15.21,48.7c13.882,23.936,42.041,60.645,88.759,72.376a13.891,13.891,0,0,1,10.2,16.9,14.2,14.2,0,0,1-13.7,10.5Z" transform="translate(-144.887 -49.139)" fill="#35e1ff"/><path d="M305.187,640.461a14.238,14.238,0,0,1-10.3-4.4c-34.3-36.4-53.7-77.1-61-128v-.3c-4.1-33.7,1.9-81.4,31.3-114.2,21.7-24.2,52.2-36.5,90.5-36.5,45.3,0,80.9,21.3,103.1,61.5a172.868,172.868,0,0,1,19.4,59.5,14.125,14.125,0,1,1-28.1,2.9,144.753,144.753,0,0,0-16.5-49.7c-17.2-30.7-43.4-46.3-78-46.3-29.9,0-53.3,9.1-69.4,27.1-23.2,25.9-27.7,65.8-24.5,92.2,6.4,45,23.5,80.8,53.7,112.8a13.831,13.831,0,0,1-.7,19.7,14.185,14.185,0,0,1-9.5,3.7Z" transform="translate(-144.887 -49.139)" fill="#35e1ff"/><circle cx="18" cy="18" r="18" transform="translate(193 424.723)" fill="#35e1ff"/></svg>