<svg xmlns="http://www.w3.org/2000/svg" xmlns:xlink="http://www.w3.org/1999/xlink" width="983.703" height="745.662" viewBox="0 0 983.703 745.662"><defs><linearGradient id="a" x1="0.5" y1="1" x2="0.5" gradientUnits="objectBoundingBox"><stop offset="0" stop-color="gray" stop-opacity="0.251"/><stop offset="0.54" stop-color="gray" stop-opacity="0.122"/><stop offset="1" stop-color="gray" stop-opacity="0.102"/></linearGradient><linearGradient id="c" x1="0.5" y1="1" x2="0.5" gradientUnits="objectBoundingBox"><stop offset="0" stop-opacity="0.122"/><stop offset="0.55" stop-opacity="0.09"/><stop offset="1" stop-opacity="0.02"/></linearGradient><linearGradient id="f" x1="0.499" y1="0.984" x2="0.499" y2="0.01" gradientUnits="objectBoundingBox"><stop offset="0.01" stop-color="gray" stop-opacity="0.251"/><stop offset="0.54" stop-color="gray" stop-opacity="0.122"/><stop offset="1" stop-color="gray" stop-opacity="0.102"/></linearGradient></defs><g transform="translate(0.021)"><path d="M634.66,582.68s20.89,141,144.11,188H279.61c123.22-47,144.11-188,144.11-188Z" transform="translate(-108.19 -77.15)" fill="#e0e0e0"/><rect width="503.87" height="29.78" transform="translate(168.91 693.5)" fill="url(#a)"/><rect width="499.16" height="22.97" transform="translate(171.42 693.5)" fill="#f5f5f5"/><path d="M941.17,77.15h-822a11.12,11.12,0,0,0-11,11.22V610.24a20.72,20.72,0,0,0,20.53,20.91H931.65a20.72,20.72,0,0,0,20.53-20.91V88.37a11.12,11.12,0,0,0-11.01-11.22Z" transform="translate(-108.19 -77.15)" fill="url(#a)"/><path d="M941.15,545.09H117.22V100A10.75,10.75,0,0,1,128,89.27H930.39A10.75,10.75,0,0,1,941.15,100Z" transform="translate(-108.19 -77.15)" fill="#f5f5f5"/><path d="M921.1,620.28H137.27a20,20,0,0,1-20-20V545.09H941.15v55.14a20,20,0,0,1-20.05,20.05Z" transform="translate(-108.19 -77.15)" fill="#fff"/><rect width="745.6" height="348.29" transform="translate(50.76 68.72)" fill="#5787ff"/><rect width="746.6" height="30.68" transform="translate(49.76 49.04)" fill="#e0e0e0"/><circle cx="9" cy="9" r="9" transform="translate(57 55.72)" fill="#ff5252"/><circle cx="9" cy="9" r="9" transform="translate(78 55.72)" fill="#ff0"/><circle cx="9" cy="9" r="9" transform="translate(99 55.72)" fill="#69f0ae"/><path d="M414,107.83,279,352.05H549Z" fill="url(#c)"/><path d="M414,126.64l-118.71,216H532.71Z" fill="#fff"/><circle cx="14.5" cy="14.5" r="14.5" transform="translate(399.5 305.64)" fill="url(#a)"/><circle cx="12" cy="12" r="12" transform="translate(402 308.14)" fill="#5787ff"/><rect width="8" height="86" transform="translate(410 210.64)" fill="url(#a)"/><rect width="5" height="84" transform="translate(411.5 211.14)" fill="#5787ff"/><rect width="250.13" height="448.93" rx="10" transform="translate(732.923 296.732) rotate(-0.08)" fill="url(#f)"/><rect width="238.61" height="427.15" rx="10" transform="translate(738.69 301.364) rotate(-0.08)" fill="#fff"/><rect width="184.73" height="347.61" transform="translate(765.672 331.526) rotate(-0.08)" fill="#5787ff"/><circle cx="14.73" cy="14.73" r="14.73" transform="translate(843.813 689.337) rotate(-0.08)" fill="#dbdbdb"/><circle cx="2.95" cy="2.95" r="2.95" transform="translate(826.54 313.59)" fill="#dbdbdb"/><rect width="45.66" height="4.42" rx="1.5" transform="translate(843.286 312.998) rotate(-0.08)" fill="#dbdbdb"/><path d="M858.27,400.85,792.79,519.31H923.75Z" fill="url(#c)"/><path d="M858.27,409.97,800.69,514.74H915.85Z" fill="#fff"/><circle cx="7.03" cy="7.03" r="7.03" transform="translate(851.24 496.8)" fill="url(#a)"/><circle cx="5.82" cy="5.82" r="5.82" transform="translate(852.45 498.01)" fill="#5787ff"/><rect width="3.88" height="41.71" transform="translate(856.33 450.72)" fill="url(#a)"/><rect width="2.43" height="40.74" transform="translate(857.06 450.96)" fill="#5787ff"/></g></svg>