<?xml version="1.0" encoding="utf-8"?>
<!-- Generator: Adobe Illustrator 24.0.1, SVG Export Plug-In . SVG Version: 6.00 Build 0)  -->
<svg version="1.1" id="Layer_1" xmlns="http://www.w3.org/2000/svg" xmlns:xlink="http://www.w3.org/1999/xlink" x="0px" y="0px"
	 width="94px" height="63px" viewBox="0 0 94 63" style="enable-background:new 0 0 94 63;" xml:space="preserve">
<style type="text/css">
	.st0{fill:#010101;}
</style>
<g>
	<path class="st0" d="M24,14.8c-2,0-3.6,1.6-3.6,3.6V26c0,2,1.6,3.6,3.6,3.6c2,0,3.6-1.6,3.6-3.6v-7.5C27.6,16.4,26,14.8,24,14.8z
		 M24,17.7c0.4,0,0.8,0.3,0.8,0.8v2.3h-1.5v-2.3C23.2,18,23.5,17.7,24,17.7z M24,26.7c-0.4,0-0.8-0.3-0.8-0.8v-2.4h1.5V26
		C24.7,26.4,24.4,26.7,24,26.7z"/>
	<path class="st0" d="M78.8,15.6h-3.6c-0.8-3.7-4.1-6.4-8-6.4h-4.4v-5c0-0.8-0.6-1.4-1.4-1.4h-0.8V1.4C60.6,0.6,60,0,59.2,0
		s-1.4,0.6-1.4,1.4v1.3H57c-0.8,0-1.4,0.6-1.4,1.4v5h-1v-5c0-0.8-0.6-1.4-1.4-1.4h-0.8V1.4c0-0.8-0.6-1.4-1.4-1.4
		c-0.8,0-1.4,0.6-1.4,1.4v1.3h-0.8c-0.8,0-1.4,0.6-1.4,1.4v5H25.4V7c0-0.8-0.6-1.4-1.4-1.4S22.5,6.3,22.5,7v2.2h-0.7
		c-4.5,0-8.1,3.7-8.1,8.1v16.4c0,0.8,0.6,1.4,1.4,1.4h3.4V38c0,0.8,0.6,1.4,1.4,1.4h2.6v3.9h-4.2c-2.5,0-4.6,2.1-4.6,4.6v13.6
		c0,0.8,0.6,1.4,1.4,1.4H74c0.8,0,1.4-0.6,1.4-1.4V32.3h3.4c0.8,0,1.4-0.6,1.4-1.4V17.1C80.3,16.3,79.6,15.6,78.8,15.6z M58.4,5.6
		h1.5v3.6h-1.5V5.6z M50.1,5.6h1.5v3.6h-1.5V5.6z M21.4,35.2h5.1v1.4h-5.1V35.2z M25.4,39.5H28c0.8,0,1.4-0.6,1.4-1.4v-2.8h3.4
		c0.8,0,1.4-0.6,1.4-1.4v-3c0-1.1,0.9-1.9,1.9-1.9h11.4c1.1,0,1.9,0.9,1.9,1.9v12.6H25.4L25.4,39.5L25.4,39.5z M18.3,46.2h32.6
		c0.8,0,1.4-0.6,1.4-1.4v-14c0-2.6-2.2-4.8-4.8-4.8H36.1c-2.6,0-4.8,2.2-4.8,4.8v1.5H16.6V17.4c0-2.9,2.4-5.3,5.3-5.3h45.4
		c2.9,0,5.3,2.4,5.3,5.3v38.1H16.6V48C16.6,47,17.4,46.2,18.3,46.2L18.3,46.2z M16.6,60.1v-1.8h55.9v1.8H16.6z M77.4,29.4h-2V18.5h2
		V29.4z"/>
	<path class="st0" d="M44.5,14.8c-2.5,0-4.6,2.1-4.6,4.6s2.1,4.6,4.6,4.6c2.5,0,4.6-2.1,4.6-4.6S47,14.8,44.5,14.8L44.5,14.8z
		 M44.5,21.2c-1,0-1.7-0.8-1.7-1.7c0-1,0.8-1.7,1.7-1.7c1,0,1.7,0.8,1.7,1.7C46.2,20.4,45.5,21.2,44.5,21.2L44.5,21.2z"/>
	<path class="st0" d="M60,19.4c0-2.5-2.1-4.6-4.6-4.6c-2.5,0-4.6,2.1-4.6,4.6s2.1,4.6,4.6,4.6C58,24,60,22,60,19.4z M53.7,19.4
		c0-1,0.8-1.7,1.7-1.7c1,0,1.7,0.8,1.7,1.7c0,1-0.8,1.7-1.7,1.7C54.4,21.2,53.7,20.4,53.7,19.4z"/>
	<path class="st0" d="M54.6,42.5v2.3c0,0.8,0.6,1.4,1.4,1.4h12.5c0.8,0,1.4-0.6,1.4-1.4v-2.3c0-2.3-1.8-4.1-4.1-4.1h-7.2
		C56.4,38.4,54.6,40.2,54.6,42.5L54.6,42.5z M67.1,42.5v0.9h-9.6v-0.9c0-0.7,0.5-1.2,1.2-1.2h7.2C66.5,41.3,67.1,41.8,67.1,42.5z"/>
</g>
</svg>
