<?xml version="1.0" encoding="utf-8"?>
<!-- Generator: Adobe Illustrator 24.0.1, SVG Export Plug-In . SVG Version: 6.00 Build 0)  -->
<svg version="1.1" id="Layer_1" xmlns="http://www.w3.org/2000/svg" xmlns:xlink="http://www.w3.org/1999/xlink" x="0px" y="0px"
	 width="94px" height="63px" viewBox="0 0 94 63" style="enable-background:new 0 0 94 63;" xml:space="preserve">
<style type="text/css">
	.st0{fill:#010101;}
</style>
<g>
	<path class="st0" d="M92.4,29.5c-0.2-0.2-4.7-6-12.6-11.7C69.4,10.1,58,6,47,6c-11,0-22.4,4.1-32.8,11.7
		C6.4,23.5,1.8,29.2,1.6,29.5l-1.6,2l1.6,2c0.2,0.2,4.7,6,12.6,11.7C24.6,52.9,36,57,47,57c11,0,22.4-4.1,32.8-11.7
		c7.8-5.7,12.4-11.5,12.6-11.7l1.6-2L92.4,29.5z M47,49.3c-9.8,0-17.8-8-17.8-17.8c0-1.5,0.2-3,0.6-4.5l-4.1-0.7
		c-0.4,1.7-0.6,3.4-0.6,5.1c0,6.4,2.7,12.1,7,16.1c-5.6-2.1-10.3-4.9-13.9-7.6c-4.4-3.2-7.7-6.5-9.6-8.5c1.9-2,5.2-5.3,9.6-8.5
		c3.6-2.6,8.3-5.5,13.9-7.6l2.7,3.1c3.2-3,7.5-4.8,12.2-4.8c9.8,0,17.8,8,17.8,17.8S56.8,49.3,47,49.3z M75.8,40
		c-3.6,2.6-8.3,5.5-13.9,7.6c4.3-4,7-9.7,7-16.1s-2.7-12.1-7-16.1c5.6,2.1,10.3,4.9,13.9,7.6c4.4,3.2,7.7,6.5,9.6,8.5
		C83.5,33.5,80.2,36.8,75.8,40z"/>
	<path class="st0" d="M47,19.6c-3.2,0-6.1,1.3-8.2,3.3l5.9,6.6l-9-1.5c-0.3,1.1-0.5,2.3-0.5,3.5c0,6.6,5.3,11.9,11.9,11.9
		c6.6,0,11.9-5.3,11.9-11.9C58.9,24.9,53.6,19.6,47,19.6z"/>
</g>
</svg>
