<?xml version="1.0" encoding="utf-8"?>
<!-- Generator: Adobe Illustrator 24.0.1, SVG Export Plug-In . SVG Version: 6.00 Build 0)  -->
<svg version="1.1" id="Layer_1" xmlns="http://www.w3.org/2000/svg" xmlns:xlink="http://www.w3.org/1999/xlink" x="0px" y="0px"
	 width="94px" height="63px" viewBox="0 0 94 63" style="enable-background:new 0 0 94 63;" xml:space="preserve">
<style type="text/css">
	.st0{fill:#010101;}
</style>
<g>
	<path class="st0" d="M52.9,22.3c4.5-3.9,4.6-10.5,4.6-10.8c0-0.3-0.1-0.5-0.3-0.7c-0.2-0.2-0.4-0.4-0.6-0.6l0.7-2.7
		c0.3-1.1-0.4-2.2-1.5-2.5l-5.6-1.6V2.1C50.1,0.9,49.2,0,48,0H46c-1.2,0-2.1,0.9-2.1,2.1v1.3L38.2,5c-1.1,0.3-1.7,1.4-1.5,2.5
		l0.7,2.7c-0.2,0.2-0.4,0.4-0.6,0.6c-0.2,0.2-0.3,0.5-0.3,0.7c0,0.3,0.1,6.9,4.6,10.8c-3.2,2.7-11.9,12-11.9,31.3
		c0,0.5,0.3,0.9,0.8,1c5.3,1.2,10.6,1.9,16,2.1v2.2c-1.9,0.2-3.7,0.8-5.3,1.9l-0.5,0.4c-0.5,0.3-0.6,1-0.3,1.5
		c0.3,0.5,1,0.6,1.5,0.3l0.5-0.4c1.2-0.8,2.7-1.3,4.1-1.5v1c0,0.6,0.5,1,1,1s1-0.5,1-1v-1c1.5,0.2,2.9,0.7,4.1,1.5l0.5,0.4
		c0.3,0.2,0.7,0.2,1,0.1c0.3-0.2,0.6-0.5,0.6-0.9c0-0.4-0.2-0.7-0.5-0.9l-0.5-0.4c-1.6-1.1-3.4-1.7-5.3-1.9v-2.2
		c5.4-0.2,10.8-0.9,16-2.1c0.5-0.1,0.8-0.5,0.8-1C64.8,34.3,56.1,25,52.9,22.3z M44.4,5.4c0.9-0.3,1.5-1.1,1.5-2V2.1H48v1.3
		c0,0.9,0.6,1.8,1.5,2L55.2,7l-0.5,2.1c-2.5-0.9-5.3-0.7-7.7,0.4c-2.4-1.2-5.1-1.4-7.7-0.5L38.8,7L44.4,5.4z M47,54.6
		c-5.3-0.1-10.6-0.7-15.7-1.9c0.3-21.3,12-29.5,12.1-29.6c0.3-0.2,0.5-0.5,0.5-0.9c0-0.4-0.2-0.7-0.5-0.9c-4-2.6-4.6-7.9-4.8-9.4
		c2.7-2.2,6.9-1,7.6-0.3c0.4,0.4,1.1,0.4,1.5,0c0.7-0.7,5-1.9,7.6,0.3c-0.1,1.6-0.7,6.8-4.8,9.4c-0.3,0.2-0.5,0.5-0.5,0.9
		c0,0.4,0.2,0.7,0.5,0.9c0.1,0.1,11.8,8.2,12.1,29.6C57.6,53.9,52.3,54.5,47,54.6z"/>
	<path class="st0" d="M50.6,28.6c-0.5,0.3-0.6,1-0.2,1.5c2.7,3.6,6.5,8.6,7.1,19.4c0,0.6,0.5,1,1,1h0.1c0.3,0,0.5-0.1,0.7-0.4
		c0.2-0.2,0.3-0.5,0.3-0.8c-0.7-11.4-4.7-16.7-7.6-20.5C51.7,28.3,51,28.2,50.6,28.6z"/>
	<path class="st0" d="M42,28.8L42,28.8c-2.9,3.8-6.9,9.1-7.6,20.5c0,0.3,0.1,0.6,0.3,0.8c0.2,0.2,0.4,0.3,0.7,0.4h0.1
		c0.6,0,1-0.4,1-1c0.6-10.8,4.4-15.7,7.1-19.4c0.3-0.5,0.3-1.1-0.2-1.5C43,28.2,42.3,28.3,42,28.8z"/>
</g>
</svg>
