<svg xmlns="http://www.w3.org/2000/svg" width="39" height="40" viewBox="0 0 39 40">
  <defs>
    <style>
      .cls-1 {
        fill: #fff;
        fill-rule: evenodd;
      }
    </style>
  </defs>
  <path id="service-icon-03" class="cls-1" d="M1036.97,3619.45a1.275,1.275,0,1,1-1.27-1.29A1.274,1.274,0,0,1,1036.97,3619.45Zm-4.79,0a1.275,1.275,0,1,1-2.55,0A1.275,1.275,0,1,1,1032.18,3619.45Zm-4.78,0a1.275,1.275,0,1,1-1.28-1.29A1.276,1.276,0,0,1,1027.4,3619.45Zm10.95-5.51h-29.41a2.657,2.657,0,0,0-2.65,2.66v17a1.36,1.36,0,1,1-2.72,0v-25.2a0.824,0.824,0,0,1,.82-0.82h10.83a1.306,1.306,0,0,1,1.27.98l0.43,1.57a2.8,2.8,0,0,0,2.99,2.03h15.48a0.8,0.8,0,0,0,0-1.59h-15.48a1.236,1.236,0,0,1-1.47-.87l-0.43-1.56a2.9,2.9,0,0,0-2.79-2.14h-10.83a2.4,2.4,0,0,0-2.39,2.4v25.2a2.938,2.938,0,0,0,2.93,2.95h33.42a2.657,2.657,0,0,0,2.65-2.66V3616.6A2.657,2.657,0,0,0,1038.35,3613.94Zm1.08,19.95a1.088,1.088,0,0,1-1.08,1.08h-30.82a2.98,2.98,0,0,0,.33-1.37v-17a1.082,1.082,0,0,1,1.08-1.08h29.41a1.088,1.088,0,0,1,1.08,1.08v17.29ZM1022.57,3646a3.48,3.48,0,1,1,3.46-3.48A3.472,3.472,0,0,1,1022.57,3646Zm0-5.38a1.9,1.9,0,1,0,1.89,1.9A1.889,1.889,0,0,0,1022.57,3640.62Zm-3.46,1.9a3.418,3.418,0,0,1,.1-0.79h-16.42a0.79,0.79,0,1,0,0,1.58h16.42A3.418,3.418,0,0,1,1019.11,3642.52Zm21.1-.79h-14.27a3.512,3.512,0,0,1,0,1.58h14.27A0.79,0.79,0,0,0,1040.21,3641.73Zm-17.64-2.69a3.417,3.417,0,0,1,.79.09v-2.58h-1.58v2.58A3.48,3.48,0,0,1,1022.57,3639.04Z" transform="translate(-1002 -3606)"/>
</svg>
