<svg xmlns="http://www.w3.org/2000/svg" width="36.626" height="39.53" viewBox="0 0 36.626 39.53">
  <defs>
    <style>
      .cls-1 {
        fill: #fff;
        fill-rule: evenodd;
      }
    </style>
  </defs>
  <path id="service-icon-02" class="cls-1" d="M742.367,3634.87a8.635,8.635,0,1,1,8.684-8.63A8.666,8.666,0,0,1,742.367,3634.87Zm0-15.64a7.005,7.005,0,1,0,7.047,7.01A7.033,7.033,0,0,0,742.367,3619.23Zm-0.942,11.07a0.805,0.805,0,0,1-.579-0.23l-2.8-2.79a0.809,0.809,0,0,1,0-1.15,0.818,0.818,0,0,1,1.158,0l2.22,2.21,4.552-4.53a0.818,0.818,0,0,1,1.158,0,0.809,0.809,0,0,1,0,1.15L742,3630.07A0.807,0.807,0,0,1,741.425,3630.3Zm0.952,15.7a4.018,4.018,0,0,1-2.321-.73c-4.549-3.19-15.215-12.59-16-30.97a2.417,2.417,0,0,1,.682-1.79,2.769,2.769,0,0,1,2.308-.8,25.26,25.26,0,0,0,2.982.19c3.442,0,8.08-.79,10.626-4.53a2.072,2.072,0,0,1,3.417,0c2.545,3.74,7.183,4.53,10.625,4.53a25.233,25.233,0,0,0,2.982-.19,2.746,2.746,0,0,1,2.3.8,2.459,2.459,0,0,1,.693,1.82c-0.791,18.39-11.47,27.78-16.025,30.96A3.98,3.98,0,0,1,742.377,3646Zm-15.666-32.68a1.1,1.1,0,0,0-.785.32,0.778,0.778,0,0,0-.229.59c0.749,17.66,10.951,26.66,15.3,29.71a2.411,2.411,0,0,0,2.708.02c4.356-3.05,14.569-12.04,15.33-29.7a0.833,0.833,0,0,0-.239-0.62,1.11,1.11,0,0,0-.916-0.31,26.467,26.467,0,0,1-3.181.2c-3.838,0-9.033-.91-11.981-5.24a0.423,0.423,0,0,0-.706,0c-2.948,4.33-8.142,5.24-11.981,5.24a26.464,26.464,0,0,1-3.18-.2A0.679,0.679,0,0,0,726.711,3613.32Zm3.292,3.12a0.937,0.937,0,1,1-.936-0.93A0.937,0.937,0,0,1,730,3616.44Zm13.3-3.72a0.937,0.937,0,1,1-.937-0.93A0.929,0.929,0,0,1,743.3,3612.72Zm0,28.48a0.937,0.937,0,1,1-.937-0.93A0.929,0.929,0,0,1,743.3,3641.2Zm11.427-24.76a0.937,0.937,0,1,0,.936-0.93A0.937,0.937,0,0,0,754.731,3616.44Z" transform="translate(-724.062 -3606.47)"/>
</svg>
