<svg xmlns="http://www.w3.org/2000/svg" width="47.62" height="40" viewBox="0 0 47.62 40">
  <defs>
    <style>
      .cls-1 {
        fill: #fff;
        fill-rule: evenodd;
      }
    </style>
  </defs>
  <path id="service-icon-04" class="cls-1" d="M1343.42,3630.72a1.3,1.3,0,1,1-1.29-1.29A1.3,1.3,0,0,1,1343.42,3630.72Zm-4.87,0a1.3,1.3,0,1,1-1.3-1.29A1.3,1.3,0,0,1,1338.55,3630.72Zm-4.87,0a1.3,1.3,0,1,1-1.3-1.29A1.3,1.3,0,0,1,1333.68,3630.72Zm16.35-16.35c-0.1,0-.2.01-0.3,0.01a13.842,13.842,0,0,0-.55-1.39,12.38,12.38,0,0,0-23.56,4.37,11.276,11.276,0,0,0-2.62-.29,9.57,9.57,0,1,0,0,19.14h27.03A10.92,10.92,0,1,0,1350.03,3614.37Zm0,20.24H1323a7.97,7.97,0,1,1,0-15.94,9.319,9.319,0,0,1,5.31,1.59l0.36,0.21a0.8,0.8,0,0,0,1.09-.28,0.788,0.788,0,0,0-.28-1.09c-0.11-.07-0.23-0.14-0.35-0.21a16.042,16.042,0,0,0-1.93-1.02,10.688,10.688,0,0,1,10.77-10.35,10.849,10.849,0,0,1,9.76,6.15,8.414,8.414,0,0,1,.37.87,10.663,10.663,0,0,0-2.98.99,0.788,0.788,0,0,0-.36,1.07,0.806,0.806,0,0,0,1.08.35A9.335,9.335,0,1,1,1350.03,3634.61Zm-12.78,11.33a3.785,3.785,0,1,1,3.8-3.78A3.8,3.8,0,0,1,1337.25,3645.94Zm0-5.98a2.2,2.2,0,1,0,2.2,2.2A2.206,2.206,0,0,0,1337.25,3639.96Zm-2.16,2.56v-0.08a0.672,0.672,0,0,0-.04-0.24A3.106,3.106,0,0,0,1335.09,3642.52Zm-1.64-.36a4.382,4.382,0,0,1,.04-0.52h-13.92a0.8,0.8,0,0,0-.8.8,0.794,0.794,0,0,0,.8.79h14.04A3.8,3.8,0,0,1,1333.45,3642.16Zm21.37-.52h-13.8a4.405,4.405,0,0,1,.03.52,3.79,3.79,0,0,1-.15,1.07h13.92a0.794,0.794,0,0,0,.8-0.79A0.8,0.8,0,0,0,1354.82,3641.64Zm-17.57-3.27a3.5,3.5,0,0,1,.8.09v-2.25h-1.6v2.25A3.568,3.568,0,0,1,1337.25,3638.37Z" transform="translate(-1313.38 -3605.94)"/>
</svg>
