<svg xmlns="http://www.w3.org/2000/svg" width="49" height="40" viewBox="0 0 49 40">
  <defs>
    <style>
      .cls-1 {
        fill: #fff;
        fill-rule: evenodd;
      }
    </style>
  </defs>
  <path id="service-icon-01" class="cls-1" d="M467.667,3614.78h-0.294a13.4,13.4,0,0,0-.56-1.44,12.757,12.757,0,0,0-24.266,4.55,11.59,11.59,0,0,0-2.668-.3,10.011,10.011,0,0,0,0,20.02h4.366c4.07,0,5.849.77,5.961,5.42l-1.692-1.71a0.851,0.851,0,0,0-1.2,0,0.874,0.874,0,0,0,0,1.22l3.147,3.18a0.844,0.844,0,0,0,1.2,0l3.147-3.18a0.874,0.874,0,0,0,0-1.22,0.851,0.851,0,0,0-1.2,0l-1.705,1.73c-0.145-5.94-3.046-7.16-7.657-7.16h-4.366a8.29,8.29,0,0,1,0-16.58,9.508,9.508,0,0,1,5.445,1.65c0.127,0.08.25,0.16,0.371,0.23a0.843,0.843,0,0,0,1.161-.31,0.858,0.858,0,0,0-.3-1.17l-0.356-.22a15.083,15.083,0,0,0-1.976-1.05,11.26,11.26,0,0,1,.61-3.3,11.03,11.03,0,0,1,20.448-1.06c0.134,0.28.256,0.58,0.366,0.88a11.109,11.109,0,0,0-3.042,1.02,0.863,0.863,0,0,0-.377,1.15,0.844,0.844,0,0,0,1.139.39,9.429,9.429,0,0,1,4.3-1.03,9.7,9.7,0,0,1,0,19.4H462.63c-1.792,0-4.155-.56-4.306-5.28l1.69,1.71a0.845,0.845,0,0,0,1.2,0,0.861,0.861,0,0,0,0-1.21l-3.146-3.18a0.851,0.851,0,0,0-1.2,0l-3.147,3.18a0.861,0.861,0,0,0,0,1.21,0.845,0.845,0,0,0,1.2,0l1.706-1.72c0.164,5.77,3.332,7.01,6,7.01h5.037A11.416,11.416,0,0,0,467.667,3614.78Z" transform="translate(-429.969 -3605.97)"/>
</svg>
