<svg xmlns="http://www.w3.org/2000/svg" width="26.5" height="26.57" viewBox="0 0 26.5 26.57">
  <defs>
    <style>
      .cls-1 {
        fill: #fff;
        fill-rule: evenodd;
      }
    </style>
  </defs>
  <path id="why-choose-icon-01" class="cls-1" d="M1121.51,2047.91l1.76-.06v12.07a10.532,10.532,0,0,1-1.96,6.33,19.837,19.837,0,0,1-4.34,4.42,23.479,23.479,0,0,1-4.45,2.64,17.6,17.6,0,0,1-2.26.91l-0.29.17-0.3-.17a17.658,17.658,0,0,1-2.22-.94,26.038,26.038,0,0,1-4.43-2.66,19.535,19.535,0,0,1-4.3-4.43,10.371,10.371,0,0,1-1.94-6.21v-12.13l1.76,0.06a5.251,5.251,0,0,0,.41,1.99,5.083,5.083,0,0,0,1.14,1.7,6.036,6.036,0,0,0,1.7,1.14,4.442,4.442,0,0,0,2.08.39,4.31,4.31,0,0,0,2.03-.39,5.847,5.847,0,0,0,1.69-1.14,4.962,4.962,0,0,0,1.15-1.7,5.251,5.251,0,0,0,.41-1.99l1.76-.06a4.941,4.941,0,0,0,.41,2.05,5.643,5.643,0,0,0,1.14,1.7,4.635,4.635,0,0,0,1.7,1.14,6.043,6.043,0,0,0,2.02.44,6.228,6.228,0,0,0,2.08-.44,4.719,4.719,0,0,0,1.7-1.14,5.643,5.643,0,0,0,1.14-1.7,5.1,5.1,0,0,0,.41-2.05v0.06Zm-22.97,12.07a8.43,8.43,0,0,0,1.26,4.51,16.189,16.189,0,0,0,2.96,3.58,21.241,21.241,0,0,0,3.49,2.55,28.234,28.234,0,0,0,2.9,1.49v-19.57c-0.32.31-.68,0.63-1.09,0.97a5.023,5.023,0,0,1-1.29.76c-0.44.17-.91,0.33-1.4,0.47a4.453,4.453,0,0,1-1.5.14,4.676,4.676,0,0,1-1.55-.14c-0.49-.14-0.96-0.3-1.4-0.47a4.985,4.985,0,0,1-1.26-.73,13.506,13.506,0,0,1-1.12-1v7.44Zm22.97-.06v-7.44a5.787,5.787,0,0,1-1.11,1.06,9.649,9.649,0,0,1-1.26.73,6.315,6.315,0,0,1-1.41.47,14.219,14.219,0,0,1-1.55.2,14.631,14.631,0,0,1-1.5-.2,5.584,5.584,0,0,1-1.4-.5c-0.45-.24-0.88-0.49-1.29-0.76a4.886,4.886,0,0,1-1.08-1v19.63c0.74-.35,1.71-0.85,2.93-1.49a17.568,17.568,0,0,0,3.51-2.52,16.434,16.434,0,0,0,2.93-3.58,8.789,8.789,0,0,0,1.23-4.66v0.06Z" transform="translate(-1096.78 -2047.84)"/>
</svg>
