<svg xmlns="http://www.w3.org/2000/svg" width="30" height="24.72" viewBox="0 0 30 24.72">
  <defs>
    <style>
      .cls-1 {
        fill: #fff;
        fill-rule: evenodd;
      }
    </style>
  </defs>
  <path id="why-choose-icon-02" class="cls-1" d="M411.436,2738.37a35.009,35.009,0,0,1,4.864.47,39.755,39.755,0,0,1,4.57.99,14.94,14.94,0,0,1,3.369,1.35,2.094,2.094,0,0,1,1.318,1.58v12.42a2.715,2.715,0,0,1-.761,1.88,2.71,2.71,0,0,1-.85.56,2.8,2.8,0,0,1-1.025.2h-3.282l-3.339-6.91c-0.274.04-.606,0.08-1,0.14s-0.831.11-1.319,0.15-1.035.08-1.64,0.12-1.222.06-1.846,0.06q-1,0-1.846-.06t-1.553-.12c-0.468-.04-0.889-0.09-1.259-0.15s-0.694-.1-0.967-0.14l-3.516,6.91h-3.164a2.791,2.791,0,0,1-1.025-.2,2.7,2.7,0,0,1-.85-0.56,2.722,2.722,0,0,1-.762-1.88v-12.42a2.1,2.1,0,0,1,1.319-1.58,14.92,14.92,0,0,1,3.369-1.35,39.662,39.662,0,0,1,4.57-.99,34.98,34.98,0,0,1,4.864-.47v-5.28h1.757v5.28Zm12.364,16.81V2743a6.833,6.833,0,0,0-1.407-.77,18.737,18.737,0,0,0-2.695-.9,36.766,36.766,0,0,0-3.75-.79,30.175,30.175,0,0,0-4.512-.41v0.05h-1.757v-0.05a30.163,30.163,0,0,0-4.512.41,36.708,36.708,0,0,0-3.75.79,18.7,18.7,0,0,0-2.695.9,6.833,6.833,0,0,0-1.407.77v12.18a1.16,1.16,0,0,0,.059.36,0.646,0.646,0,0,0,.2.29,0.88,0.88,0,0,0,.293.17,0.839,0.839,0,0,0,.322.06h2.11l3.632-7.2,0.645,0.17c0.038,0,.2.03,0.5,0.09s0.693,0.13,1.2.2,1.123,0.15,1.846.21,1.513,0.09,2.373.09,1.66-.03,2.4-0.09,1.386-.13,1.934-0.21,1.132-.17,1.758-0.29l0.7-.12,3.457,7.15h2.168a0.843,0.843,0,0,0,.322-0.06,0.9,0.9,0,0,0,.293-0.17,0.662,0.662,0,0,0,.2-0.29,1.16,1.16,0,0,0,.059-0.36h0Zm-19.4-11.48v-1.76h-1.816v1.76h-1.758v1.82h1.758v1.75h1.816v-1.75h1.758v-1.82h-1.758Zm13.184,3.57a2.4,2.4,0,0,1-1-.2,2.723,2.723,0,0,1-.85-0.59,2.606,2.606,0,0,1-.586-0.85,2.572,2.572,0,0,1-.2-1.05,2.5,2.5,0,0,1,.2-1,2.835,2.835,0,0,1,.586-0.85,2.691,2.691,0,0,1,.85-0.58,2.4,2.4,0,0,1,1-.21,2.553,2.553,0,0,1,1.054.21,2.7,2.7,0,0,1,.85.58,2.872,2.872,0,0,1,.586.85,2.52,2.52,0,0,1,.2,1,2.588,2.588,0,0,1-.2,1.05,2.637,2.637,0,0,1-.586.85,2.735,2.735,0,0,1-.85.59,2.551,2.551,0,0,1-1.054.2h0Zm0-3.57a0.605,0.605,0,0,0-.323.09,1.3,1.3,0,0,0-.263.2,1.335,1.335,0,0,0-.2.27,0.578,0.578,0,0,0-.088.32,0.747,0.747,0,0,0,.088.38,1.271,1.271,0,0,0,.2.26,1.348,1.348,0,0,0,.263.21,0.605,0.605,0,0,0,.323.09,0.724,0.724,0,0,0,.381-0.09,1.379,1.379,0,0,0,.263-0.21,1.306,1.306,0,0,0,.2-0.26,0.747,0.747,0,0,0,.088-0.38,0.578,0.578,0,0,0-.088-0.32,1.372,1.372,0,0,0-.2-0.27,1.332,1.332,0,0,0-.263-0.2,0.724,0.724,0,0,0-.381-0.09h0Z" transform="translate(-395.562 -2733.09)"/>
</svg>
