<svg xmlns="http://www.w3.org/2000/svg" xmlns:xlink="http://www.w3.org/1999/xlink" width="64" height="64" viewBox="0 0 64 64"><defs><clipPath id="b"><rect width="64" height="64"/></clipPath></defs><g id="a" clip-path="url(#b)"><g transform="translate(0 0)"><g transform="translate(0 0)"><path d="M32.025,0A32,32,0,1,0,64,32,32,32,0,0,0,32.025,0Zm-.05,58.675A26.675,26.675,0,1,1,58.65,32,26.675,26.675,0,0,1,31.975,58.675Z" transform="translate(0 0)" fill="#fff"/></g></g><g transform="translate(18.799 13.325)"><path d="M172.21,123.715a5.847,5.847,0,0,0,2.9-6.043c-.5-3.74-4.953-5.152-8.471-5.449V106.6H163.17v5.573h-2.328V106.6h-3.468v5.573H150.39v3.591h2.6c1.164,0,1.734.347,1.734,1.288v15.43c0,1.288-.644,1.684-1.338,1.684h-2.65v3.666h6.737v5.7h3.492v-5.7h2.328v5.7h3.393v-5.7h.743c7.133,0,9.511-3.492,9.511-8.248A6.167,6.167,0,0,0,172.21,123.715Zm-11.368-7.727h2.477c1.734,0,5.152.3,5.152,3.121a3.493,3.493,0,0,1-3.047,3.69h-4.582S160.842,115.988,160.842,115.988Zm3.839,17.833V133.8h-3.839v-7.43H165.3c1.04,0,4.954.347,4.954,3.121S168.4,133.821,164.681,133.821Z" transform="translate(-150.39 -106.601)" fill="#fff"/></g></g></svg>