<svg xmlns="http://www.w3.org/2000/svg" width="79.875" height="79.82"><path d="M79.715 18.92a4 4 0 00-4.9-2.82 3.968 3.968 0 00-2.42 1.86l-.66 1.16a1.323 1.323 0 00-1.81.48l-3.38 5.76-1.16-.67a1.281 1.281 0 00-1.01-.13 1.3 1.3 0 00-.813.62 1.329 1.329 0 00.493 1.81l1.16.67-11.313 19.59-2.794 7.47-1.33 2.49a3.991 3.991 0 00.213 4.31l-2.994 3.67-.838-2.1a2.663 2.663 0 00-4.751-.38l-.478.81-.453-5.32a2.661 2.661 0 00-5.176-.62l-3.273 9.82a1.324 1.324 0 00.838 1.67 1.188 1.188 0 00.413.11 1.327 1.327 0 001.264-.91l3.26-9.81.465 5.4A2.661 2.661 0 0043.205 65l.492-.81.825 2.09a2.661 2.661 0 004.551.68l3.1-3.93a4.144 4.144 0 001.051.14 4 4 0 003.473-1.97l1.33-2.23 5.07-6.16 11.428-19.83 1.16.66a1.319 1.319 0 01.62.82 1.281 1.281 0 01-.13 1.01l-5.32 9.22a1.331 1.331 0 00-.19 1.03 1.31 1.31 0 00.61.84 1.352 1.352 0 001.02.14 1.379 1.379 0 00.81-.63l5.32-9.22a3.985 3.985 0 00-1.46-5.45l-1.16-.67 3.32-5.76a1.331 1.331 0 00-.47-1.81l.66-1.16a3.954 3.954 0 00.4-3.08zm-5.02.37a1.37 1.37 0 01.82-.63 1.424 1.424 0 011.01.14 1.3 1.3 0 01.62.81 1.37 1.37 0 01-.13 1.01l-.67 1.16-2.31-1.33zM56.563 56.43l-.665-.38-1.969-1.15 1.889-5.05 4.191 2.42zm-3.991 3.85a1.327 1.327 0 01-.4-1.74l.665-1.16 2.315 1.33-.665 1.14a1.316 1.316 0 01-.864.64 1.352 1.352 0 01-1.048-.21zm8.954-10.19l-4.6-2.66 10.642-18.44 4.61 2.66zm11.979-20.74l-4.61-2.66 2.66-4.61 4.61 2.66zM21.011 59.61l-4.709 4.7-2.821-2.82a1.332 1.332 0 00-1.877 1.89l2.821 2.82a2.687 2.687 0 003.766 0l4.7-4.71a1.332 1.332 0 00-1.88-1.88zM5.338 63.19a11.31 11.31 0 1022.619 0 1.331 1.331 0 00-2.661 0 8.65 8.65 0 11-3.46-6.92 1.328 1.328 0 101.6-2.12 11.308 11.308 0 00-18.098 9.04zm42.577-52.55a1.33 1.33 0 100-2.66H13.321a1.333 1.333 0 00-1.331 1.33v5.32a1.327 1.327 0 001.331 1.33h34.594a1.33 1.33 0 100-2.66H14.651v-2.66h33.264zm-30.6 7.98a1.33 1.33 0 100 2.66h26.61a1.33 1.33 0 100-2.66h-26.61zm34.594 9.32H22.635a1.33 1.33 0 100 2.66h29.272a1.33 1.33 0 100-2.66zm-13.306 9.31a1.327 1.327 0 00-1.33-1.33H10.66a1.33 1.33 0 100 2.66h26.615a1.333 1.333 0 001.326-1.33zm13.306-1.33h-9.314a1.33 1.33 0 100 2.66h9.314a1.33 1.33 0 10-.002-2.66zm-27.942 9.31a1.33 1.33 0 100-2.66H10.66a1.33 1.33 0 100 2.66h13.305zm5.322 0h9.314a1.33 1.33 0 100-2.66h-9.314a1.33 1.33 0 00-.002 2.66zm30.6 15.97a1.327 1.327 0 00-1.331 1.33v13.3a1.327 1.327 0 01-1.33 1.33H4.007a1.326 1.326 0 01-1.33-1.33V3.99a1.326 1.326 0 011.33-1.33h53.222a1.327 1.327 0 011.33 1.33v24.98a1.331 1.331 0 102.661 0V3.99A3.993 3.993 0 0057.229 0H4.007A3.994 3.994 0 00.015 3.99v71.84a3.987 3.987 0 003.992 3.99h53.222a3.987 3.987 0 003.991-3.99v-13.3a1.327 1.327 0 00-1.33-1.33z" fill="#db5241" fill-rule="evenodd"></path></svg>