<svg id="home-icon-recommend-places-06" xmlns="http://www.w3.org/2000/svg" width="87" height="87" viewBox="0 0 87 87">
  <defs>
    <style>
      .cls-1 {
        fill: #fcc400;
        stroke: #fafafa;
        stroke-linejoin: round;
        stroke-width: 3px;
      }

      .cls-2 {
        fill-rule: evenodd;
      }
    </style>
  </defs>
  <circle id="bg" class="cls-1" cx="43.5" cy="43.5" r="40"/>
  <path id="Forma_1" data-name="Forma 1" class="cls-2" d="M1372.32,2304.19h-0.69v-2.02a3.364,3.364,0,0,0-2.05-3.08v-10.38a0.652,0.652,0,0,0-.41-0.61,2.63,2.63,0,0,0,.41-1.41,2.73,2.73,0,0,0-5.46,0,2.574,2.574,0,0,0,.38,1.35h-24a2.574,2.574,0,0,0,.38-1.35,2.73,2.73,0,0,0-5.46,0,2.63,2.63,0,0,0,.41,1.41,0.652,0.652,0,0,0-.41.61v10.38a3.364,3.364,0,0,0-2.05,3.08v2.02h-0.69a0.681,0.681,0,0,0-.68.68v9.42a0.679,0.679,0,0,0,.68.67h0.69v3.37a0.672,0.672,0,0,0,.68.67h2.73a0.681,0.681,0,0,0,.69-0.67v-3.37h30.06v3.37a0.681,0.681,0,0,0,.69.67h2.73a0.672,0.672,0,0,0,.68-0.67v-3.37h0.69a0.679,0.679,0,0,0,.68-0.67v-9.42A0.681,0.681,0,0,0,1372.32,2304.19Zm-5.47-18.84a1.345,1.345,0,1,1-1.37,1.34A1.36,1.36,0,0,1,1366.85,2285.35Zm-28.7,0a1.345,1.345,0,1,1-1.37,1.34A1.36,1.36,0,0,1,1338.15,2285.35Zm-1.37,4.03h31.44v9.43h-2.75a3.364,3.364,0,0,0,.7-2.02v-1.35a3.393,3.393,0,0,0-3.42-3.36h-5.47a3.385,3.385,0,0,0-3.41,3.36v1.35a3.3,3.3,0,0,0,.7,2.02h-4.14a3.3,3.3,0,0,0,.7-2.02v-1.35a3.385,3.385,0,0,0-3.41-3.36h-5.47a3.393,3.393,0,0,0-3.42,3.36v1.35a3.364,3.364,0,0,0,.7,2.02h-2.75v-9.43Zm28.02,6.06v1.35a2.04,2.04,0,0,1-2.05,2.02h-5.47a2.04,2.04,0,0,1-2.05-2.02v-1.35a2.04,2.04,0,0,1,2.05-2.02h5.47A2.04,2.04,0,0,1,1364.8,2295.44Zm-15.03,0v1.35a2.04,2.04,0,0,1-2.05,2.02h-5.47a2.04,2.04,0,0,1-2.05-2.02v-1.35a2.04,2.04,0,0,1,2.05-2.02h5.47A2.04,2.04,0,0,1,1349.77,2295.44Zm-15.04,6.73a2.04,2.04,0,0,1,2.05-2.02h31.44a2.04,2.04,0,0,1,2.05,2.02v2.02h-35.54v-2.02Zm1.37,15.48h-1.37v-2.69h1.37v2.69Zm34.17,0h-1.37v-2.69h1.37v2.69Zm1.36-4.03h-38.26v-8.08h38.26v8.08Zm-33.48-2.7h-2.73a0.675,0.675,0,1,0,0,1.35h2.73A0.675,0.675,0,1,0,1338.15,2310.92Zm31.43,0h-28.7a0.675,0.675,0,1,0,0,1.35h28.7A0.675,0.675,0,1,0,1369.58,2310.92Z" transform="translate(-1308.5 -2257.5)"/>
</svg>
