<svg xmlns="http://www.w3.org/2000/svg" width="50" height="50"><path d="M28.125 50H4.686a3.126 3.126 0 01-3.125-3.12 3.794 3.794 0 011.48-3 2.336 2.336 0 00.864-1.81L5.468 7.89a2.322 2.322 0 00-.865-1.77 3.8 3.8 0 01-1.479-3A3.126 3.126 0 016.249 0c.158.01 9.489.78 16.407.78S38.126.01 38.211 0h.006a3.138 3.138 0 013.19 3.12 3.794 3.794 0 01-1.48 3 2.336 2.336 0 00-.864 1.81v11.6H37.5V7.93a3.907 3.907 0 011.424-3.01 2.28 2.28 0 00.92-1.8 1.564 1.564 0 00-1.563-1.56c-.015.01-8.639.78-15.626.78S6.277 1.57 6.183 1.56a1.551 1.551 0 00-1.5 1.56 2.282 2.282 0 00.919 1.8 3.9 3.9 0 011.425 3.01L5.464 42.11a3.888 3.888 0 01-1.424 2.97 2.279 2.279 0 00-.919 1.8 1.563 1.563 0 001.562 1.56h23.439V50zM2.52 11.29A2.363 2.363 0 01-.002 8.77 2.524 2.524 0 012.52 6.25h3.729a.781.781 0 01.718 1.09c-.173.4-1.767 3.95-4.447 3.95zm0-3.48a.96.96 0 00-.959.96.823.823 0 00.959.96c.95 0 1.839-1.02 2.418-1.92H2.52zm39.491 3.48c-2.675 0-4.274-3.55-4.447-3.95a.781.781 0 01.718-1.09h3.729a2.524 2.524 0 012.522 2.52 2.363 2.363 0 01-2.522 2.52zm-2.422-3.48c.58.91 1.464 1.92 2.422 1.92a.823.823 0 00.959-.96.96.96 0 00-.959-.96h-2.422zm-31 0H6.245a.78.78 0 110-1.56h2.344a.78.78 0 11.004 1.56zm29.689 0h-2.344a.78.78 0 110-1.56h2.344a.78.78 0 11.004 1.56zm-18.751 0h-5.469a.78.78 0 110-1.56h5.469a.78.78 0 11.004 1.56zm10.938 0H25a.78.78 0 110-1.56h5.469a.78.78 0 110 1.56zm-5.6 26.83c-.1 0-.2-.01-.3-.02l-2.69-.24-2.691.24a3.124 3.124 0 01-2.635-5.17l1.561-1.78.712-1.25a3.517 3.517 0 016.105 0l.712 1.25 1.561 1.78a3.13 3.13 0 01-2.333 5.19zm-2.992-1.83a.177.177 0 01.071.01l2.761.25a1.566 1.566 0 001.317-2.59l-1.612-1.84a.639.639 0 01-.09-.13l-.751-1.31a1.948 1.948 0 00-3.392 0l-.751 1.31a.681.681 0 01-.09.13l-1.612 1.84a1.566 1.566 0 001.317 2.59l2.761-.25a.175.175 0 01.073-.01zm4.7-11.26a1.94 1.94 0 01-2.064 1.83 2.063 2.063 0 01-1.36-2.48 1.942 1.942 0 012.064-1.84 2.074 2.074 0 011.357 2.49zm3.774 4.42a1.645 1.645 0 01-2.048 1.28 1.935 1.935 0 01-.827-2.44 1.652 1.652 0 012.048-1.28 1.935 1.935 0 01.824 2.44zm-14.063-1.16a1.652 1.652 0 00-2.048-1.28 1.936 1.936 0 00-.828 2.44 1.646 1.646 0 002.049 1.28 1.936 1.936 0 00.824-2.44zm4.323-3.91a1.943 1.943 0 00-2.065-1.84 2.076 2.076 0 00-1.36 2.49 1.941 1.941 0 002.065 1.83A2.064 2.064 0 0020.6 20.9zM47.661 50H34.376a2.345 2.345 0 01-2.344-2.34V32.29a3.913 3.913 0 01.781-2.34l1.719-2.29a.778.778 0 01.625-.32H37.5v1.57h-1.953l-1.485 1.98a2.344 2.344 0 00-.469 1.4v15.37a.781.781 0 00.782.78h13.282a.781.781 0 00.781-.78V32.29a2.343 2.343 0 00-.468-1.4l-1.485-1.98h-5.079v-1.57h5.469a.778.778 0 01.625.32l1.719 2.29a3.914 3.914 0 01.782 2.34v15.37A2.345 2.345 0 0147.658 50zm-.782-21.09a.781.781 0 01-.781-.78v-3.91h-10.16v3.91a.781.781 0 01-1.562 0v-3.91a1.563 1.563 0 011.562-1.56H46.1a1.564 1.564 0 011.563 1.56v3.91a.781.781 0 01-.787.78z" fill="#ccc" fill-rule="evenodd"></path></svg>