<svg xmlns="http://www.w3.org/2000/svg" width="49.969" height="50.03"><path d="M39.118 50.02h-4.693a.785.785 0 010-1.57h3.911a2.356 2.356 0 00-2.346-2.36h-1.565a.782.782 0 01-.782-.78V34.64a.818.818 0 01.1-.39l1.756-3.18a10.259 10.259 0 001.275-4.95v-1.24a.782.782 0 111.564 0v1.24a11.835 11.835 0 01-1.471 5.71l-1.657 3.01v9.68h.782a3.923 3.923 0 013.911 3.93v.79a.782.782 0 01-.785.78zm-30.5-6.28a.79.79 0 01-.782-.79v-2.36c0-10.27 4.705-14.06 8.486-17.1.406-.33.8-.65 1.179-.96a19.658 19.658 0 007.371-13.47c.758-5.33 4.79-9.05 9.806-9.05a37.214 37.214 0 014.924.48 2.851 2.851 0 012.371 2.17 6.238 6.238 0 00.927 2.49c.535.6 3.015 1.38 6.171 1.96a1.108 1.108 0 01.857 1.39l-1.352 4.86a3.935 3.935 0 01-3.767 2.88h-5.687a.79.79 0 010-1.58h5.687a2.346 2.346 0 002.26-1.72l1.216-4.38c-2.207-.43-5.537-1.24-6.545-2.35-.178-.2-.721-.8-1.288-3.18a1.305 1.305 0 00-1.074-.99 36.374 36.374 0 00-4.7-.46c-4.217 0-7.612 3.17-8.257 7.7a21.093 21.093 0 01-7.914 14.45c-.387.32-.791.65-1.207.98-3.7 2.99-7.9 6.37-7.9 15.88v2.36a.79.79 0 01-.786.79zm25.811-21.22a5.5 5.5 0 01-5.475-5.5V9.16a.783.783 0 011.565 0v7.86a3.923 3.923 0 003.91 3.93 3.759 3.759 0 003.911-3.93c0-1.38-.686-2.15-1.637-3.22a10.207 10.207 0 01-3.056-7.78.783.783 0 011.565 0 8.686 8.686 0 002.657 6.74 6.056 6.056 0 012.036 4.26 5.317 5.317 0 01-5.48 5.5zm-3.91 27.5h-17.99a10.406 10.406 0 01-8.426-4.47c-2.189-3.41-1.962-8.1.674-13.93a8.521 8.521 0 00-.8-9.12 12.376 12.376 0 00-3.558-3.22.783.783 0 01.127-1.43c.313-.11 7.713-2.52 10.333 2.75a.781.781 0 01-.35 1.05.773.773 0 01-1.049-.35c-1.37-2.75-4.755-2.68-6.8-2.34 2.422 1.94 6.593 6.51 3.515 13.31-2.4 5.31-2.665 9.49-.783 12.43a8.91 8.91 0 007.111 3.75H29.73a2.356 2.356 0 00-2.346-2.36h-4.693a.772.772 0 01-.67-.38.78.78 0 01-.021-.77l2.784-5.28a4.7 4.7 0 00-.127-4.64 4.647 4.647 0 00-4.02-2.28H18a.79.79 0 010-1.58h2.639a6.29 6.29 0 015.53 9.23l-2.177 4.13h3.394a3.923 3.923 0 013.911 3.93v.79a.782.782 0 01-.782.78z" fill="#ccc" fill-rule="evenodd"></path></svg>