<svg xmlns="http://www.w3.org/2000/svg" width="51.124" height="50"><path d="M33.072 50.01q-.6 0-1.207-.06c-1.422-.23-5.232-.8-6.314-.8-1.462 0-6.215.78-6.263.79-4.228.43-8.19-1.52-9.913-4.84a7.566 7.566 0 011.187-8.58l7.98-9.66a9.064 9.064 0 0114.031.01l7.981 9.66a7.6 7.6 0 011.2 8.61 9.559 9.559 0 01-8.682 4.87zm-7.521-2.48c1.43 0 6.313.79 6.52.82 3.521.35 6.848-1.23 8.261-3.96a5.956 5.956 0 00-1-6.82l-8-9.68a7.472 7.472 0 00-11.549-.02c0 .01-.007.01-.01.02l-7.992 9.67a5.924 5.924 0 00-.989 6.79 8.255 8.255 0 008.286 3.99c.15-.02 4.884-.81 6.473-.81zm8.444-28.17a5.025 5.025 0 01-.669-.04c-3.919-.48-6.657-5.19-6.1-10.5a10.833 10.833 0 013.663-7.38A5.911 5.911 0 0135.364.05c3.918.48 6.656 5.19 6.1 10.5a10.834 10.834 0 01-3.664 7.38 6 6 0 01-3.805 1.43zm.7-17.74a4.5 4.5 0 00-2.819 1.08 9.363 9.363 0 00-3.069 6.29c-.462 4.44 1.65 8.36 4.708 8.73a4.334 4.334 0 003.286-1.05 9.368 9.368 0 003.07-6.29c.462-4.44-1.651-8.35-4.709-8.73a3.649 3.649 0 00-.463-.03zM17.104 19.36a6 6 0 01-3.805-1.43 10.834 10.834 0 01-3.664-7.38C9.083 5.24 11.821.53 15.735.05a5.919 5.919 0 014.475 1.39 10.837 10.837 0 013.663 7.38c.553 5.31-2.185 10.02-6.1 10.5a5.015 5.015 0 01-.665.04zm-.7-17.74a3.688 3.688 0 00-.468.03c-3.057.38-5.169 4.29-4.707 8.73a9.36 9.36 0 003.07 6.29 4.323 4.323 0 003.285 1.05c3.057-.37 5.169-4.29 4.707-8.73a9.359 9.359 0 00-3.069-6.29 4.5 4.5 0 00-2.818-1.08zm27.033 31.46a5.472 5.472 0 01-1.6-.25c-3.478-1.12-5.19-5.71-3.818-10.24a9.5 9.5 0 014.407-5.72 5.6 5.6 0 014.406-.48c3.478 1.11 5.19 5.7 3.818 10.23a9.5 9.5 0 01-4.406 5.72 5.973 5.973 0 01-2.807.74zm1.8-15.33a4.35 4.35 0 00-2.066.55 8 8 0 00-3.622 4.76c-1.117 3.69.128 7.38 2.773 8.23a4.064 4.064 0 003.181-.38 8 8 0 003.621-4.76c1.117-3.69-.127-7.38-2.773-8.23a3.814 3.814 0 00-1.118-.17zM7.662 33.08a5.97 5.97 0 01-2.805-.74A9.5 9.5 0 01.45 26.62c-1.371-4.53.342-9.12 3.818-10.23a5.6 5.6 0 014.407.48 9.5 9.5 0 014.407 5.72c1.371 4.53-.341 9.12-3.818 10.24a5.472 5.472 0 01-1.602.25zm-1.8-15.33a3.824 3.824 0 00-1.114.17c-2.645.85-3.889 4.54-2.772 8.23a8 8 0 003.621 4.76 4.063 4.063 0 003.181.38c2.645-.85 3.889-4.54 2.772-8.23a8 8 0 00-3.621-4.76 4.351 4.351 0 00-2.06-.55z" fill="#ccc" fill-rule="evenodd"></path></svg>