<svg xmlns="http://www.w3.org/2000/svg" width="50" height="50"><path d="M30.832 28.91H24.14a6.209 6.209 0 01-4.419-1.83l-.7-.71a6.207 6.207 0 01-1.831-4.42V13.2a6.207 6.207 0 011.831-4.42l.245-.24a7.743 7.743 0 015.524-2.29h6.045a7.387 7.387 0 015.268 2.18l1.953 1.95a.783.783 0 01-1.105 1.11L35 9.54a5.82 5.82 0 00-4.163-1.73h-6.045a6.209 6.209 0 00-4.419 1.83l-.245.25a4.638 4.638 0 00-1.373 3.31v8.75a4.661 4.661 0 001.373 3.32l.7.7a4.637 4.637 0 003.315 1.37h6.692a5.852 5.852 0 004.163-1.72l1.953-1.95a.78.78 0 011.105 1.1l-1.953 1.95a7.4 7.4 0 01-5.271 2.19zm1.2-10.16h-9.376a.78.78 0 110-1.56h9.376a.78.78 0 110 1.56zm-4.631 6.22a4.707 4.707 0 01-4.2-2.6l-.466-.93a.783.783 0 111.4-.7l.466.94a3.156 3.156 0 002.8 1.73h.079c12.945-.33 20.959-3.08 20.959-5.44V7.03c0-2.59-9.626-5.47-23.439-5.47S1.561 4.44 1.561 7.03v10.94c0 1.97 5.772 4.54 16.47 5.4a.783.783 0 01-.126 1.56c-8.656-.7-17.907-2.9-17.907-6.96V7.03c0-4.62 12.578-7.03 25-7.03s25 2.41 25 7.03v10.94c0 4.44-11.292 6.71-22.483 7H27.4zm-3.964-9.35a.725.725 0 01-.349-.08.78.78 0 01-.349-1.05l.492-.98a4.688 4.688 0 014.133-2.59c8.007-.11 13.368-.83 16.872-2.27a.783.783 0 01.593 1.45c-3.692 1.51-9.235 2.27-17.444 2.38a3.125 3.125 0 00-2.757 1.73l-.492.98a.768.768 0 01-.699.43zm-5.468-3.35h-.052a50.782 50.782 0 01-12.708-2.16.78.78 0 11.517-1.47 49.479 49.479 0 0012.295 2.07.784.784 0 01.727.84.775.775 0 01-.779.72zm14.063 8.04a.781.781 0 01-.782-.78v-3.12a.782.782 0 111.563 0v3.12a.781.781 0 01-.781.78zm6.25-.78a.781.781 0 01-.781-.78v-3.13a.781.781 0 011.562 0v3.13a.781.781 0 01-.781.78zm5.469-1.56a.781.781 0 01-.781-.78v-3.13a.782.782 0 011.563 0v3.13a.781.781 0 01-.782.78zM26.563 35.94H25v-4.69h1.563v4.69zM25.781 50a7.81 7.81 0 117.813-7.81A7.818 7.818 0 0125.781 50zm0-14.06a6.25 6.25 0 106.251 6.25 6.255 6.255 0 00-6.251-6.25zm1.563 3.12a1.563 1.563 0 11-1.563-1.56 1.565 1.565 0 011.563 1.56z" fill="#ccc" fill-rule="evenodd"></path></svg>