<svg xmlns="http://www.w3.org/2000/svg" width="49.906" height="50"><path d="M33.536 32.81a.78.78 0 01-.78-.78v-.78a3.914 3.914 0 00-3.9-3.91h-.45a5.44 5.44 0 01-5.433-4.92l-.148-1.48a3.1 3.1 0 012.493-3.37l.489-.1a1.568 1.568 0 001.173-1.04l.311-.93a7.784 7.784 0 017.4-5.34h1.181a.78.78 0 010 1.56h-1.181a6.238 6.238 0 00-5.92 4.27l-.311.94A3.124 3.124 0 0126.112 19l-.488.1a1.557 1.557 0 00-1.246 1.69l.147 1.47a3.889 3.889 0 003.881 3.52h.445a5.469 5.469 0 015.461 5.47v.78a.781.781 0 01-.776.78zm-3.121-15.62a1.561 1.561 0 113.121 0m15.6 8.59a.781.781 0 01-.781-.78c0-11.21-8.642-16.17-11.7-17.58v5.08a.78.78 0 11-1.56 0V6.25a.8.8 0 01.329-.64.784.784 0 01.711-.1c.137.05 13.782 5.04 13.782 19.49a.781.781 0 01-.779.78zM12.471 8.59a1.56 1.56 0 013.12 0m-.78 11.72H6.766a5.451 5.451 0 01-5.3-4.14L.012 10.34a.778.778 0 01.551-.94l7.041-1.92A2.363 2.363 0 009.18 6.04l1.158-3.09a3.9 3.9 0 013.1-2.5A47.7 47.7 0 0120.267 0a15.235 15.235 0 019.913 4.13.782.782 0 01-1.1 1.11 13.862 13.862 0 00-8.81-3.68 46.326 46.326 0 00-6.606.44 2.336 2.336 0 00-1.866 1.49l-1.158 3.1a3.924 3.924 0 01-2.626 2.4l-6.3 1.72 1.268 5.08a3.9 3.9 0 003.784 2.96h8.047a.78.78 0 110 1.56zM2.33 14.06h-.78a.78.78 0 110-1.56h.78a2.343 2.343 0 002.34-2.34v-.79a.78.78 0 111.56 0v.79a3.9 3.9 0 01-3.898 3.9zm17.942 13.28a5.853 5.853 0 01-4.954-2.86c-1.145-1.95-1.013-4.4.372-6.89 3.711-6.69 3.8-9.75 3.8-9.79a.787.787 0 01.78-.77h.006a.783.783 0 01.774.78c0 .14-.045 3.41-4 10.54-1.416 2.55-.994 4.31-.39 5.34a4.33 4.33 0 003.609 2.09.78.78 0 11.005 1.56zM17.932 50H8.571a.78.78 0 01-.78-.78v-7.03H.77a.78.78 0 01-.78-.78v-9.38a.78.78 0 01.78-.78h7.021v-7.03a.78.78 0 01.78-.78h3.12V25h-2.34v7.03a.781.781 0 01-.78.78H1.55v7.82h7.021a.781.781 0 01.78.78v7.03h7.8v-7.03a.78.78 0 01.78-.78h14.825A15.632 15.632 0 0048.356 25v-.78h1.561V25a17.2 17.2 0 01-17.162 17.19H18.714v7.03a.78.78 0 01-.78.78zm7.8-12.5h-1.56v-4.69h-6.241a.78.78 0 01-.78-.78v-2.34h1.56v1.56h6.241a.781.781 0 01.78.78v5.47z" fill="#ccc" fill-rule="evenodd"></path></svg>