<svg xmlns="http://www.w3.org/2000/svg" id="Capa_1" x="0" y="0" viewBox="0 0 50.4 50" xml:space="preserve"><style>.st1{fill:none;stroke:#464646;stroke-width:2;stroke-linecap:round;stroke-linejoin:round;stroke-miterlimit:10}.st2{fill:#464646}.st3{fill:none;stroke:#464646;stroke-width:2;stroke-linecap:square;stroke-linejoin:round;stroke-miterlimit:10}.st4{fill:#ccc}.st5{fill:#707070}</style><path id="background_1_" fill="#f5f5f5" d="M-770-125h650v546h-650z"></path><g id="pets_1_"><g id="cat_5_"><path class="st1" d="M-211 323h-1.5c-3.9 0-7.3 2.5-8.5 6.2l-.4 1.2c-.3 1-1.2 1.8-2.3 2l-.6.1c-1.5.3-2.6 1.7-2.4 3.2l.2 1.9c.3 3.1 2.9 5.4 6 5.4h.6c3.3 0 6 2.7 6 6v2"></path><path class="st2" d="M-218 331c0-1.1.9-2 2-2s2 .9 2 2"></path><path class="st1" d="M-211 325v-8s17 6 17 24"></path></g><path class="st2" d="M-241 317c0-1.1.9-2 2-2s2 .9 2 2"></path><path class="st1" d="M-220 312s-4-5-11-5c-3.8 0-6.7.3-8.6.6-1.5.2-2.7 1.2-3.2 2.6l-1.5 4c-.5 1.2-1.5 2.1-2.7 2.5l-9 2.5 1.9 7.5c.7 2.7 3.1 4.5 5.8 4.5h10.3"></path><path class="st1" d="M-250 318v1c0 2.2-1.8 4-4 4h-1M-231 316c-.3 3.1-1.2 6.3-2.8 9-1.6 2.5-3.9 4.7-4.5 7.6-.3 1.5-.2 3.2.4 4.6.3.9.8 1.8 1.5 2.4 1.4 1.4 3.5 1.9 5.4 2.4M-235 341v6.1c0 2.6.8 5.1 2.2 7.2l1.8 2.7"></path></g><g id="insurance_1_"><path id="_x3C_Trazado_x3E__1_" class="st1" d="M-337 302s-14 7-29 7v22c0 9.9 5.3 19.1 13.8 24.2l15.2 8.9 15.2-8.9c8.6-5 13.8-14.2 13.8-24.2v-22c-15 0-29-7-29-7z"></path><g id="dog_7_"><path class="st1" d="M-348 350c1 1 2 3 2 6v2M-337 364v-9c2-2 3-3 3-7v-4M-361 346c6-6.1 9.8-11.3 11-20 1-7 6.3-12 13-12 2.2 0 4.9.4 6.9.7 1.2.2 2.2 1.1 2.5 2.3.3 1.4.9 3.3 1.6 4.1 1.3 1.4 6.6 2.6 8.9 3.1.6.1.9.7.8 1.2l-1.7 6c-.6 2.2-2.6 3.7-4.8 3.7h-8.2"></path><path class="st1" d="M-344 326s.1 6.9.1 11.5c0 3.6 2.9 6.5 6.5 6.5s6.5-2.9 6.5-6.5c0-4.7-6.5-7.5-6.5-15.7"></path><path class="st2" d="M-333 323c0-1.1.9-2 2-2s2 .9 2 2"></path><path class="st1" d="M-321 324v1c0 1.7 1.3 3 3 3"></path></g></g><g id="paw_print-foot_print_1_"><path class="st2" d="M-433.6 364c-.5 0-1 0-1.5-.1-1.8-.3-6.5-1-7.9-1-1.8 0-7.8 1-7.8 1-5.3.5-10.2-1.9-12.4-6-1.8-3.5-1.3-7.4 1.5-10.6l10-12c2.1-2.6 5.3-4.1 8.8-4.1 3.5 0 6.7 1.5 8.8 4.1l10 12c2.7 3.2 3.3 7.2 1.5 10.7-2.1 3.7-6.3 6-11 6zm-9.4-3.1c1.8 0 7.9 1 8.2 1 4.4.4 8.6-1.5 10.3-4.9 1.4-2.8 1-5.8-1.3-8.5l-10-12c-1.7-2.2-4.4-3.4-7.2-3.4s-5.5 1.2-7.2 3.4l-10 12c-2.2 2.6-2.7 5.7-1.2 8.4 1.8 3.4 6 5.4 10.4 5 .1 0 6-1 8-1zM-432.4 326c-.3 0-.6 0-.8-.1-4.9-.6-8.3-6.4-7.6-13 .4-3.8 2.1-7.2 4.6-9.2 1.7-1.4 3.6-2 5.6-1.7 4.9.6 8.3 6.4 7.6 13-.4 3.8-2.1 7.2-4.6 9.2-1.5 1.2-3.2 1.8-4.8 1.8zm.8-22c-1.2 0-2.4.5-3.5 1.3-2.1 1.6-3.5 4.6-3.8 7.8-.6 5.5 2.1 10.4 5.9 10.8 1.4.2 2.8-.3 4.1-1.3 2.1-1.6 3.5-4.6 3.8-7.8.6-5.5-2.1-10.4-5.9-10.8h-.6zM-453.6 326c-1.7 0-3.3-.6-4.8-1.8-2.5-2-4.2-5.3-4.6-9.2-.7-6.6 2.7-12.4 7.6-13 1.9-.2 3.9.4 5.6 1.7 2.5 2 4.2 5.3 4.6 9.2.7 6.6-2.7 12.4-7.6 13-.2.1-.5.1-.8.1zm-.8-22h-.6c-3.8.5-6.5 5.3-5.9 10.8.3 3.2 1.8 6.2 3.8 7.8 1.3 1 2.7 1.5 4.1 1.3 3.8-.5 6.5-5.3 5.9-10.8-.3-3.2-1.8-6.2-3.8-7.8-1.1-.8-2.3-1.3-3.5-1.3zM-420.6 343c-.7 0-1.3-.1-2-.3-4.4-1.4-6.5-7.1-4.8-12.7 1-3.2 3-5.8 5.5-7.1 1.8-1 3.7-1.2 5.5-.6 4.4 1.4 6.5 7.1 4.8 12.7-1 3.2-3 5.8-5.5 7.1-1.2.6-2.4.9-3.5.9zm2.2-19c-.8 0-1.7.2-2.6.7-2 1.1-3.7 3.3-4.5 5.9-1.4 4.6.2 9.1 3.5 10.2 1.3.4 2.6.2 4-.5 2-1.1 3.7-3.3 4.5-5.9 1.4-4.6-.2-9.1-3.5-10.2-.4-.1-.9-.2-1.4-.2zM-465.4 343c-1.2 0-2.4-.3-3.5-.9-2.5-1.3-4.5-3.9-5.5-7.1-1.7-5.6.4-11.3 4.8-12.7 1.8-.6 3.7-.4 5.5.6 2.5 1.3 4.5 3.9 5.5 7.1 1.7 5.6-.4 11.3-4.8 12.7-.6.2-1.3.3-2 .3zm-2.2-19c-.5 0-.9.1-1.4.2-3.3 1-4.9 5.6-3.5 10.2.8 2.6 2.5 4.8 4.5 5.9 1.3.7 2.7.9 4 .5 3.3-1 4.9-5.6 3.5-10.2-.8-2.6-2.5-4.8-4.5-5.9-.9-.5-1.8-.7-2.6-.7z"></path></g><g id="pets_friendly_2_"><path class="st1" d="M-550 357s31-19 31-43.5c0-9.1-7.4-16.5-16.5-16.5-6.3 0-11.7 3.5-14.5 8.6-2.8-5.1-8.2-8.6-14.5-8.6-9.1 0-16.5 7.4-16.5 16.5 0 24.5 31 43.5 31 43.5z"></path><g id="dog_6_"><path class="st1" d="M-552 355v-2c2-2 3-3 3-7v-4M-570.7 338c3-4 4.9-8.2 5.7-14 1-7 6.3-12 13-12 2.2 0 4.9.4 6.9.7 1.2.2 2.2 1.1 2.5 2.3.3 1.4.9 3.3 1.6 4.1 1.3 1.4 6.6 2.6 8.9 3.1.6.1.9.7.8 1.2l-1.7 6c-.6 2.2-2.6 3.7-4.8 3.7h-8.2"></path><path class="st1" d="M-559 324s.1 6.9.1 11.5c0 3.6 2.9 6.5 6.5 6.5s6.5-2.9 6.5-6.5c0-4.7-6.5-7.5-6.5-15.7"></path><path class="st2" d="M-548 321c0-1.1.9-2 2-2s2 .9 2 2"></path><path class="st1" d="M-536 322v1c0 1.7 1.3 3 3 3"></path></g></g><g id="tortoise_2_"><path class="st1" d="M-653 328h-11c0-7.7 6.3-14 14-14 2.3 0 4.4.6 6.3 1.5 4.7 2.5 6.7 7.5 6.7 13.5 0 9.4-7.6 17-17 17h-6"></path><path class="st1" d="M-662 328c0 2.8 2.2 5 5 5h2.5c3.6 0 6.5 2.9 6.5 6.5M-652 322c0-1.7 1.3-3 3-3s3 1.3 3 3"></path><g><path class="st1" d="M-666 339s-3.5 5.2-4 14.9c-.1 1.1.9 2.1 2 2.1h6c1.1 0 2-.9 2-1.9.1-2.5.3-6.7 1-8.1M-691 338s-5.2 6.1-5.9 15.9c-.1 1.2.8 2.1 2 2.1h6c1.1 0 2-.8 2-1.9.1-3 .5-8.6 2-10.1M-685 346c3 1 9 1 9 1M-639 346c.6 1.9 1.3 5.4 1.6 7.7.2 1.2-.7 2.3-2 2.3h-4.9c-1 0-1.8-.7-2-1.7-.4-2.3-1.1-6.2-1.7-8.3M-697 339l-2-2 4-5c0-15.7 12.8-28 28.5-28 5.3 0 10.3 1.5 14.6 4M-695 332s3 13 32 6"></path></g></g><g id="aquarium-fish_bowl_2_"><path class="st1" d="M-225 237v5s5-1 8-6c0 0 4 0 7-5-3-5-7-5-7-5-3-5-8-7-8-7v6"></path><path class="st1" d="M-224 236s-4 0-7-3l-9 9 1.6-8.6c.3-1.6.3-3.2 0-4.8l-1.6-9.6 9 10c3-3 7-3 7-3"></path><circle class="st2" cx="-206" cy="224" r="2"></circle><circle class="st2" cx="-210" cy="218" r="2"></circle><g><path class="st1" d="M-208 205h3M-239 205h3M-206 205l2.6-1.7c.3-.2.4-.5.4-.8V200c0-.6-.4-1-1-1h-36c-.6 0-1 .4-1 1v2.5c0 .3.2.6.4.8l2.6 1.7M-239.2 205.2c-8.3 5.6-13.8 15-13.8 25.8 0 12.2 7 22.7 17.3 27.8.3.1.6.2.9.2h25.7c.3 0 .6-.1.9-.2 10.2-5.1 17.3-15.6 17.3-27.8 0-10.8-5.5-20.2-13.8-25.8"></path><path class="st1" d="M-203 247c-9 0-9 2-16 4-5.4 1.5-9.2 1.3-11.9 1.1-.8-.1-1.7-.3-2.4-.6-1.1-.5-2.6-1.3-3.7-2.5M-221 205h7"></path></g></g><g id="food_and_vitamins_1_"><path class="st2" d="M-334 265h-30c-2.2 0-4-1.8-4-4 0-1.5.6-2.8 1.9-3.8.7-.6 1.1-1.4 1.1-2.3l2-43.8c0-.8-.4-1.7-1.1-2.3-1.3-1-1.9-2.3-1.9-3.8 0-2.2 1.8-4 4-4 .2 0 12.1 1 21 1 8.8 0 19.8-1 19.9-1 2.3 0 4.1 1.8 4.1 4 0 1.5-.6 2.8-1.9 3.8-.7.6-1.1 1.4-1.1 2.3V226h-2v-14.9c0-1.5.7-2.9 1.8-3.9.8-.7 1.2-1.4 1.2-2.3 0-1.1-.9-2-2-2 0 0-11.1 1-20 1s-21-1-21.1-1c-1 0-1.9.9-1.9 2 0 .9.4 1.6 1.2 2.3 1.2 1 1.8 2.4 1.8 3.9l-2 43.8c0 1.4-.7 2.8-1.8 3.8-.8.7-1.2 1.4-1.2 2.3 0 1.1.9 2 2 2h30v2z"></path><path class="st2" d="M-366.8 215.5c-2 0-3.2-1.3-3.2-3.2 0-1.8 1.4-3.2 3.2-3.2h4.8c.3 0 .6.2.8.4.2.3.2.6.1.9-.2.5-2.2 5.1-5.7 5.1zm0-4.5c-.7 0-1.2.6-1.2 1.2 0 1.1.6 1.2 1.2 1.2 1.2 0 2.4-1.3 3.1-2.5h-3.1zM-316.2 215.5c-3.4 0-5.5-4.5-5.7-5.1-.1-.3-.1-.7.1-.9.2-.3.5-.4.8-.4h4.8c1.8 0 3.2 1.4 3.2 3.2 0 1.9-1.3 3.2-3.2 3.2zm-3.1-4.5c.7 1.2 1.9 2.5 3.1 2.5.6 0 1.2-.1 1.2-1.2 0-.7-.6-1.2-1.2-1.2h-3.1z"></path><path class="st2" d="M-359 211h-3c-.6 0-1-.4-1-1s.4-1 1-1h3c.6 0 1 .4 1 1s-.4 1-1 1zM-321 211h-3c-.6 0-1-.4-1-1s.4-1 1-1h3c.6 0 1 .4 1 1s-.4 1-1 1zM-345 211h-7c-.6 0-1-.4-1-1s.4-1 1-1h7c.6 0 1 .4 1 1s-.4 1-1 1zM-331 211h-7c-.6 0-1-.4-1-1s.4-1 1-1h7c.6 0 1 .4 1 1s-.4 1-1 1zM-338.2 245.3h-.4l-3.4-.3-3.4.3c-1.7.2-3.2-.7-3.9-2.2-.8-1.5-.5-3.2.6-4.4l2-2.3.9-1.6c.8-1.4 2.3-2.3 3.9-2.3s3.1.8 3.9 2.3l.9 1.6 2 2.3c1.1 1.3 1.3 3 .6 4.4-.8 1.4-2.2 2.2-3.7 2.2zm-3.8-2.3s.1 0 0 0l3.6.3c1 .1 1.7-.5 2-1.1.3-.6.4-1.5-.3-2.2l-2.1-2.4s-.1-.1-.1-.2l-1-1.7c-.5-.8-1.3-1.3-2.2-1.3s-1.7.5-2.2 1.3l-1 1.7c0 .1-.1.1-.1.2l-2.1 2.4c-.7.8-.6 1.6-.3 2.2s1 1.2 2 1.1l3.8-.3c-.1 0 0 0 0 0zM-336 228.6c-.2 1.5-1.4 2.6-2.6 2.3-1.2-.2-2-1.7-1.7-3.2.2-1.5 1.4-2.6 2.6-2.3 1.2.2 2 1.7 1.7 3.2zM-331.2 234.2c-.4 1.3-1.6 2.1-2.6 1.6-1-.4-1.5-1.8-1.1-3.1.4-1.3 1.6-2.1 2.6-1.6 1.1.4 1.6 1.8 1.1 3.1zM-349.2 232.8c-.4-1.3-1.6-2.1-2.6-1.6-1 .4-1.5 1.8-1.1 3.1.4 1.3 1.6 2.1 2.6 1.6s1.6-1.8 1.1-3.1zM-343.6 227.7c-.2-1.5-1.4-2.6-2.6-2.3-1.2.2-2 1.7-1.7 3.2s1.4 2.6 2.6 2.3c1.1-.2 1.9-1.6 1.7-3.2z"></path><g><path class="st2" d="M-309 265h-17c-1.7 0-3-1.3-3-3v-19.7c0-1.1.4-2.1 1-3l2.2-2.9c.2-.3.5-.4.8-.4h3v2h-2.5l-1.9 2.5c-.4.5-.6 1.2-.6 1.8V262c0 .6.4 1 1 1h17c.6 0 1-.4 1-1v-19.7c0-.6-.2-1.3-.6-1.8l-1.9-2.5h-6.5v-2h7c.3 0 .6.1.8.4l2.2 2.9c.6.9 1 1.9 1 3V262c0 1.7-1.3 3-3 3z"></path><path class="st2" d="M-310 238c-.6 0-1-.4-1-1v-5h-13v5c0 .6-.4 1-1 1s-1-.4-1-1v-5c0-1.1.9-2 2-2h13c1.1 0 2 .9 2 2v5c0 .6-.4 1-1 1z"></path></g></g><g id="rabbit_2_"><path class="st1" d="M-458.9 230.5c-.4-.4-.6-1-.6-1.6 0-1.3 1.1-2.4 2.4-2.4.7 0 1.3.3 1.8.8"></path><path class="st1" d="M-463 220c1-9-8-20-8-20s14 4.7 15 17.6c0 .2.3.3.4.1 1.1-3.8 5.7-15.7 22.7-17.7 0 0 1 16-16 22 0 0 3 2 4 6 .7 2.6 1 6 7 9 10 5 12 15 7 22M-463 246c0 1.8.5 2.8 1.4 4.4l1.6 2.6v4c-1.8.6-3 2.3-3 4.2v.8h9v-7.7c0-2.2-.6-4.3-1.8-6.1l-.2-.2M-454 262h9v-.8c0-1.9-1.2-3.6-3-4.2 0 0 .5-1.1 0-3"></path><path class="st1" d="M-439 262v-2c0-2.2 1.8-4 4-4s4 1.8 4 4v2h-8zM-468 239h1c1.1 0 2 .9 2 2M-467 259h-3v-1.3c0-1.6 1-3.1 2.5-3.7l2.5-1"></path><path class="st1" d="M-461 220.2c-4.6.9-8 5-8 9.8v7c0 2.8 2.2 5 5 5h2.6c4 0 7.8-2 10-5.3M-426.3 241.2c2.7-.7 5.4.9 6.1 3.6s-.9 5.4-3.6 6.1"></path></g><g id="tropical_fish_2_"><path class="st1" d="M-558 226c0-11.6 6.7-19.7 17.7-20.9 1.7-.2 3.3-.5 4.9-1l.4-.1s9-3 9-13.3M-567 231h5.3c2.3 0 4.6 1 6.1 2.8l3.6 4.2s-12 0-15-7zM-578 222c0-1.7 1.3-3 3-3s3 1.3 3 3M-552 224s3-7 12-7c0 0-6 9 0 19 0 0-9 0-12-6"></path><path class="st1" d="M-526 188v2c0 5.5-6 10-18 10h-13c-13.2 0-27.1 10.4-28.2 23.3-.1.9-.9 1.7-1.8 1.7-.6 0-1 .5-1 1 .7 13.3 14.3 24 27.7 24h22.2c-8 0-13.6-4.9-17.4-12"></path><g><circle class="st1" cx="-575" cy="192" r="4"></circle><circle class="st1" cx="-585" cy="202" r="3"></circle></g></g><g id="frog_1_"><path class="st1" d="M-683 209c-4.4 0-8-3.6-8-8s3.6-8 8-8c3.8 0 6.9 2.6 7.8 6.1 2.4-.7 5-1.1 7.7-1.1 2.4 0 4.7.3 6.8.8.9-3.4 4-5.8 7.7-5.8 4.4 0 8 3.6 8 8s-3.6 8-8 8M-653 218l-.7.7c-1.3 1.3-3.5 1.6-5 .5l-3.7-2.5c-3.4-2.2-7.7-2.2-11.1 0l-3.7 2.5c-1.6 1.1-3.7.8-5-.5l-.7-.7"></path><path class="st1" d="M-648 207.3c1.3 2 2 4.3 2 6.7 0 8.8-9.8 16-22 16s-22-7.2-22-16c0-2.4.7-4.6 2-6.7M-656 201h11"></path><path class="st2" d="M-650.5 201.5c0 1.1-.9 2-2 2s-2-.9-2-2"></path><path class="st1" d="M-691 201h11"></path><path class="st2" d="M-681.5 201.5c0 1.1-.9 2-2 2s-2-.9-2-2"></path><path class="st1" d="M-689 220l-1.1 3.7c-1.2 4-1 8.4.7 12.3l6.4 15-4 4h8M-672 255l-4-4-3.5-10.5c-.3-1-.5-2.1-.5-3.2V235"></path><g><path class="st1" d="M-647 220l1.1 3.7c1.2 4 1 8.4-.7 12.3l-6.4 15 4 4h-8M-664 255l4-4 3.5-10.5c.3-1 .5-2.1.5-3.2V235"></path></g><path class="st1" d="M-691.4 228c-5 0-8.4 5.1-6.4 9.8l4.8 11.2-6 5h6M-644.6 228c5 0 8.4 5.1 6.4 9.8L-643 249l6 5h-6"></path></g><g id="pet_grooming_1_"><path class="st2" d="M-225 131h-14.9c-4.1 0-7.6-2.7-8.7-6.7l-1.9-7.2c-.4-1.6.5-3.2 2.1-3.7l9.3-2.7c1.5-.4 2.7-1.5 3.3-3l2-5c.7-1.7 2.3-2.9 4.1-3.1l1.8-.2c2.6-.3 5.3-.6 6.9-.6 6.4 0 11.6 2 15.4 5.9 7 7.3 6.6 18.6 6.6 19.1 0 .6-.5 1-1 1-.6 0-1-.5-1-1 0-.1.4-11-6.1-17.7-3.4-3.5-8.1-5.3-13.9-5.3-1.6 0-4.3.3-6.7.6l-1.8.2c-1.1.1-2.1.8-2.5 1.9l-2 5c-.8 2-2.5 3.5-4.6 4.1l-9.3 2.7c-.5.1-.8.7-.7 1.2l1.9 7.2c.8 3.1 3.6 5.2 6.8 5.2h14.9c.6 0 1 .4 1 1s-.4 1.1-1 1.1z"></path><path class="st2" d="M-248 121c-.6 0-1-.4-1-1s.4-1 1-1c2.2 0 4-1.8 4-4v-2c0-.6.4-1 1-1s1 .4 1 1v2c0 3.3-2.7 6-6 6zM-225 114c-.6 0-1-.4-1-1 0-1.1-.9-2-2-2s-2 .9-2 2c0 .6-.4 1-1 1s-1-.4-1-1c0-2.2 1.8-4 4-4s4 1.8 4 4c0 .6-.4 1-1 1zM-217 143c-3.2 0-5.7-1-7.2-2.9-2.7-3.3-1.8-8.1-1.7-8.3.1-.2 1.1-4.2 4.1-9.3 2.9-4.8 3.9-11.6 3.9-11.6.1-.5.6-.9 1.1-.8.5.1.9.6.8 1.1 0 .3-1.1 7.3-4.1 12.4-2.9 4.8-3.9 8.7-3.9 8.7s-.8 4 1.3 6.6c1.2 1.4 3.1 2.2 5.7 2.2.6 0 1 .4 1 1s-.4.9-1 .9z"></path><g><path class="st2" d="M-203 150c-.1 0-.3 0-.4-.1-.5-.2-.7-.8-.5-1.3l13-28c.2-.5.8-.7 1.3-.5.5.2.7.8.5 1.3l-13 28c-.2.4-.5.6-.9.6z"></path><path class="st2" d="M-197 150c-.4 0-.7-.2-.9-.6l-13-28c-.2-.5 0-1.1.5-1.3.5-.2 1.1 0 1.3.5l13 28c.2.5 0 1.1-.5 1.3-.1.1-.3.1-.4.1zM-217 163c-.6 0-1-.4-1-1s.4-1 1-1c2.2 0 4-1.8 4-4v-3c0-.6.4-1 1-1s1 .4 1 1v3c0 3.3-2.7 6-6 6z"></path><path class="st2" d="M-207 162c-3.3 0-6-3.6-6-8s2.7-8 6-8 6 3.6 6 8-2.7 8-6 8zm0-14c-2.2 0-4 2.7-4 6s1.8 6 4 6 4-2.7 4-6-1.8-6-4-6zM-193 162c-3.3 0-6-3.6-6-8s2.7-8 6-8 6 3.6 6 8-2.7 8-6 8zm0-14c-2.2 0-4 2.7-4 6s1.8 6 4 6 4-2.7 4-6-1.8-6-4-6z"></path></g></g><g id="pet_carrier_box-pets_supplies_1_"><path class="st3" d="M-360 135h-10v-8h10M-334 135h-10M-318 127h10v8h-10M-344 127h10"></path><path class="st1" d="M-349 136h-5c-.6 0-1-.4-1-1v-8c0-.6.4-1 1-1h5c.6 0 1 .4 1 1v8c0 .6-.4 1-1 1zM-324 136h-5c-.6 0-1-.4-1-1v-8c0-.6.4-1 1-1h5c.6 0 1 .4 1 1v8c0 .6-.4 1-1 1z"></path><path class="st1" d="M-368.5 135l1.6 16.4c.2 2 1.9 3.6 4 3.6h46.8c2.1 0 3.8-1.6 4-3.6l1.6-16.4M-368.5 127l1.6-16.4c.2-2 1.9-3.6 4-3.6h46.8c2.1 0 3.8 1.6 4 3.6l1.6 16.4"></path><g><path class="st1" d="M-351.5 107l1.4-7.7c.3-1.9 2-3.3 3.9-3.3h13.3c1.9 0 3.6 1.4 3.9 3.3l1.4 7.7"></path><path class="st3" d="M-345.5 103c0-1.1.9-2 2-2h8c1.1 0 2 .9 2 2"></path></g><g><path class="st3" d="M-357 156v2M-320 156v2"></path></g><g><path class="st1" d="M-339 113v8M-330 113v8M-321 113v8M-348 113v8M-357 113v8"></path></g></g><g id="toys_1_"><g id="bone_1_"><path class="st1" d="M-469 140h24M-469 150h38M-467 139c0-3.9-3.1-7-7-7s-7 3.1-7 7c0 2.2 1 4.2 2.7 5.5-1.6 1.3-2.7 3.3-2.7 5.5 0 3.9 3.1 7 7 7s7-3.1 7-7M-433 150c0 3.9 3.1 7 7 7s7-3.1 7-7c0-2.2-1-4.2-2.7-5.5 1.6-1.3 2.7-3.3 2.7-5.5 0-1.1-.2-2.1-.7-3"></path></g><g id="mouse_1_"><path class="st1" d="M-432 133h3c1.9 0 3.5 1.6 3.5 3.5s-1.6 3.5-3.5 3.5h-5.8c-1.9 0-3.5 1.6-3.5 3.5M-446 122c0-2.8-2.2-5-5-5s-5 2.2-5 5l-4.1 1.7c-1.8.8-2.9 2.5-2.9 4.4 0 2.7 2.2 4.8 4.8 4.8h13.2"></path><path class="st1" d="M-434 124c-2.2 0-4 1.8-4 4v.5c0 2.5 2 4.5 4.5 4.5h1.5c3.9 0 7-3.1 7-7 0-5.5-4.5-10-10-10h-1c-2.6 0-5.2.6-7.6 1.8l-2.4 1.2M-435 116v-8M-435 107c0 1.7-2.3 3-4 3-1.7 0-3-1.3-3-3s1.3-3 3-3 4 1.3 4 3zM-428 107c0 1.7-1.3 3-3 3s-4-1.3-4-3 2.3-3 4-3c1.7 0 3 1.3 3 3z"></path></g><path id="ball_1_" class="st1" d="M-467 123c-7.7 0-14-6.3-14-14s6.3-14 14-14 14 6.3 14 14c0 1-.1 2-.3 3"></path></g><g id="dog_3_"><path class="st2" d="M-539 155h-6c-.6 0-1-.4-1-1s.4-1 1-1h5c0-1.7-1.3-3-3-3h-2c-.6 0-1-.4-1-1v-13.6c0-.2 0-.3.1-.5l2.2-4.1c1.1-1.9 1.6-4.1 1.6-6.3V123c0-.6.4-1 1-1s1 .4 1 1v1.6c0 2.5-.7 5.1-1.9 7.3l-2.1 3.8V148h1c2.8 0 5 2.2 5 5v1c.1.6-.3 1-.9 1zM-578 147c-.6 0-1-.4-1-1v-3c0-13.1 6-17.9 10.8-21.8l1.5-1.2c5.6-4.7 8.4-9.7 9.4-17.1 1-6.8 6.1-11.5 12.5-11.5 1.9 0 4.3.3 6.3.6 1.5.2 2.7 1.3 3 2.8.6 2.3 1 3 1.2 3.2.7.8 3.9 1.8 7.9 2.5.4.1.7.3.9.6.2.3.3.7.2 1.1l-1.7 6.2c-.6 2.2-2.6 3.7-4.8 3.7h-7.3c-.6 0-1-.4-1-1s.4-1 1-1h7.3c1.3 0 2.5-.9 2.9-2.2l1.6-5.6c-2.8-.5-7.1-1.6-8.4-3-.2-.3-.9-1-1.6-4-.2-.7-.7-1.2-1.4-1.3-2-.3-4.2-.6-6-.6-5.4 0-9.7 4-10.6 9.8-1.1 8-4.1 13.3-10.1 18.4-.5.4-1 .8-1.5 1.3-4.7 3.8-10.1 8.1-10.1 20.2v3c0 .5-.4.9-1 .9z"></path><path class="st2" d="M-545 120c-3.9 0-7-3.1-7-7v-10c0-.6.4-1 1-1s1 .4 1 1v10c0 2.8 2.2 5 5 5 3.4 0 5-2.6 5-5 0-1.8-.9-2.7-2.1-4.1-1.7-1.9-3.9-4.4-3.9-9.9 0-.6.4-1 1-1s1 .4 1 1c0 4.8 1.7 6.7 3.4 8.6 1.3 1.4 2.6 2.9 2.6 5.4 0 3.5-2.4 7-7 7zM-550 155h-23c-2.6 0-7.9-1.2-10.8-5.7-2.8-4.3-2.5-10.3.9-17.7 1.9-4.2 1.6-8.1-1-11.6-2-2.7-4.5-4.1-4.5-4.1-.3-.2-.6-.6-.5-1 0-.4.3-.7.7-.9.4-.1 9.9-3.2 13.2 3.5.2.5 0 1.1-.4 1.3-.5.2-1.1 0-1.3-.4-1.8-3.5-6.1-3.4-8.7-3 3.1 2.5 8.4 8.3 4.5 16.9-3.1 6.8-3.4 12.1-1 15.8 2.4 3.8 7 4.8 9.1 4.8h22c0-1.7-1.3-3-3-3h-6c-.4 0-.7-.2-.9-.5-.2-.3-.2-.7 0-1l3.6-6.7c1-1.9.9-4.1-.2-5.9-1.1-1.8-3-2.9-5.1-2.9h-3.4c-.6 0-1-.4-1-1s.4-1 1-1h3.4c2.8 0 5.4 1.4 6.9 3.9 1.5 2.4 1.5 5.4.2 7.9l-2.8 5.3h4.3c2.8 0 5 2.2 5 5v1c-.2.6-.6 1-1.2 1z"></path></g><g id="cat_4_"><path class="st1" d="M-681 130h2.1c6.8 0 11.1 7.2 8 13.2l-2 3.8h6c2.2 0 4 1.8 4 4v1h-23c-5 0-16.1-4.8-10-23 3.6-10.7-1-16.3-3.9-18.7-1.1-.9-1.2-2.4-.4-3.6.8-1.1 2.3-1.4 3.5-.6 3.1 2.1 8.6 7.4 7.9 18.8"></path><path class="st1" d="M-658 152h6v-1c0-2.2-1.8-4-4-4h-2v-13.6l2.5-3c2.2-2.7 3.5-6.1 3.5-9.6v-6.1c0-2.6 2.1-4.7 4.7-4.7 2.5 0 4.6-1.8 4.9-4.3l.1-.9c.1-1-.5-2-1.5-2.2l-.6-.1c-1-.3-1.9-1.1-2.2-2.1l-.1-.3c-.9-3-3.6-5.1-6.7-5.1h-.7v-5c-12 5-13 19-13 19s-25 2-25 32v1M-654 93v4"></path></g><g id="house_dog_2_"><path class="st4" d="M2.4 23.2h6.3v1.6H2.4zM41.7 23.2H48v1.6h-6.3z"></path><path class="st4" d="M17.3 50H3.1c-.4 0-.8-.4-.8-.8V24.8H.8c-.4 0-.8-.3-.8-.8v-5.5c0-.2.1-.5.3-.6L23.8.5c.8-.6 2-.6 2.8 0l23.5 17.4c.2.1.3.4.3.6V24c0 .4-.4.8-.8.8H48V39h-1.6V24c0-.4.4-.8.8-.8h1.6v-4.3L25.7 1.7c-.3-.2-.7-.2-.9 0L1.6 18.9v4.3h1.6c.4 0 .8.4.8.8v24.4h12.6V36.6c0-4.8 3.9-8.7 8.7-8.7s8.7 3.9 8.7 8.7V39h-1.6v-2.4c0-3.9-3.2-7.1-7.1-7.1s-7.1 3.2-7.1 7.1v12.6c-.1.4-.4.8-.9.8z"></path><path class="st4" d="M2.4 40.6h6.3v1.6H2.4zM2.4 31.9h6.3v1.6H2.4zM41.7 31.9H48v1.6h-6.3z"></path><g><path class="st4" d="M33.5 24.8c-2.2 0-4-1.7-4.3-3.8 0-.4.3-.8.7-.9.4 0 .8.3.9.7.2 1.4 1.3 2.4 2.7 2.4 1.5 0 2.8-1.2 2.8-2.8 0-.5-.2-1.1-.5-1.5-.2-.3-.2-.6 0-.9.3-.5.5-1 .5-1.5 0-1.5-1.2-2.8-2.8-2.8-1.4 0-2.6 1.1-2.7 2.4 0 .4-.4.7-.9.7-.4 0-.7-.4-.7-.9.2-2.2 2.1-3.8 4.3-3.8 2.4 0 4.3 1.9 4.3 4.3 0 .7-.2 1.4-.5 2 .3.6.5 1.3.5 2 0 2.5-2 4.4-4.3 4.4zM16.9 24.8c-2.4 0-4.3-1.9-4.3-4.3 0-.7.2-1.4.5-2-.3-.6-.5-1.3-.5-2 0-2.4 1.9-4.3 4.3-4.3 2.2 0 4 1.7 4.3 3.8 0 .4-.3.8-.7.9-.4.1-.8-.3-.9-.7-.2-1.4-1.3-2.4-2.7-2.4-1.5 0-2.8 1.2-2.8 2.8 0 .5.2 1.1.5 1.5.2.3.2.6 0 .9-.3.5-.5 1-.5 1.5 0 1.5 1.2 2.8 2.8 2.8 1.4 0 2.6-1.1 2.7-2.4 0-.4.4-.7.9-.7.4 0 .7.4.7.9-.2 2.1-2.1 3.7-4.3 3.7z"></path><path class="st4" d="M30.7 21.7h-11c-.4 0-.8-.4-.8-.8s.4-.8.8-.8h11c.4 0 .8.4.8.8s-.4.8-.8.8zM30.7 16.9h-11c-.4 0-.8-.4-.8-.8s.4-.8.8-.8h11c.4 0 .8.4.8.8 0 .5-.4.8-.8.8z"></path></g><path class="st4" d="M49.6 50H30.7c-.3 0-.5-.1-.6-.3-.1-.2-.2-.5-.1-.7l2.4-6.3c.1-.3.4-.5.7-.5h14.2c.3 0 .6.2.7.5l2.4 6.3c.1.2.1.5-.1.7-.2.2-.4.3-.7.3zm-17.8-1.6h16.6l-1.8-4.7h-13l-1.8 4.7z"></path></g><g id="food_1_"><path class="st2" d="M-348 62c-18 0-30.8-6.4-31.9-15.8-.1-.8 0-1.7.2-2.5l5-20c.4-1.6 1.4-3.1 2.7-4 .5-.3 1.1-.2 1.4.2.3.5.2 1.1-.2 1.4-.9.7-1.6 1.7-1.9 2.8l-5 20c-.2.6-.2 1.2-.1 1.8 1 8.3 13.3 14.1 29.9 14.1s28.9-5.8 29.9-14.1c.1-.6 0-1.2-.1-1.8l-5-20c-.3-1.2-1-2.2-1.9-2.8-.5-.3-.6-.9-.2-1.4.3-.5.9-.6 1.4-.2 1.3.9 2.3 2.3 2.7 4l5 20c.2.8.3 1.7.2 2.5C-317.2 55.6-330 62-348 62z"></path><path class="st2" d="M-348 31c-8.2 0-13.6-1.2-18.5-4.1-.5-.3-.6-.9-.3-1.4.3-.5.9-.6 1.4-.3 4.6 2.7 9.6 3.9 17.5 3.9 8.5 0 14-1.2 18.5-3.9.5-.3 1.1-.1 1.4.3s.1 1.1-.3 1.4c-5 2.9-10.8 4.1-19.7 4.1zM-364 20c-2.8 0-5-2.2-5-5s2.2-5 5-5c.5 0 .9.1 1.4.2.7-1.9 2.5-3.2 4.6-3.2.3 0 .7 0 1 .1V7c0-2.8 2.2-5 5-5 1.8 0 3.5 1 4.4 2.6.3.5.1 1.1-.4 1.4-.5.3-1.1.1-1.4-.4-.5-1-1.5-1.6-2.6-1.6-1.7 0-3 1.3-3 3 0 .5.1 1 .4 1.4.2.4.1.9-.2 1.2-.4.3-.9.3-1.3 0-.5-.4-1.2-.7-1.9-.7-1.5 0-2.8 1.2-3 2.7 0 .3-.2.6-.5.8-.3.2-.7.1-1 0-.5-.3-1-.4-1.5-.4-1.7 0-3 1.3-3 3s1.3 3 3 3c.6 0 1 .4 1 1s-.4 1-1 1zM-333 14c-.6 0-1-.4-1-1 0-1.7-1.3-3-3-3-.9 0-1.7.4-2.3 1.1-.3.3-.7.4-1 .3-.4-.1-.7-.4-.7-.8-.2-1.5-1.5-2.6-3-2.6-1.1 0-2.1.6-2.6 1.6-.3.5-.9.7-1.4.4-.5-.3-.7-.9-.4-1.4.9-1.6 2.6-2.6 4.4-2.6 1.9 0 3.6 1.1 4.4 2.7.8-.5 1.7-.7 2.6-.7 2.8 0 5 2.2 5 5 0 .6-.4 1-1 1z"></path><path class="st2" d="M-332 22c-.9 0-1.7-.2-2.5-.7-.5-.3-.6-.9-.4-1.4.3-.5.9-.6 1.4-.4.5.3 1 .4 1.5.4 1.7 0 3-1.3 3-3s-1.3-3-3-3c-.5 0-1 .1-1.5.4-.5.3-1.1.1-1.4-.4-.3-.5-.1-1.1.4-1.4.8-.5 1.6-.7 2.5-.7 2.8 0 5 2.2 5 5s-2.2 5.2-5 5.2zM-342 23c-.6 0-1-.4-1-1 0-1.7-1.3-3-3-3-.9 0-1.7.4-2.3 1.1-.3.3-.7.4-1 .3-.4-.1-.7-.4-.7-.8-.2-1.5-1.5-2.6-3-2.6-1.1 0-2.1.6-2.6 1.6-.3.5-.9.7-1.4.4-.5-.3-.7-.9-.4-1.4.9-1.6 2.6-2.6 4.4-2.6 1.9 0 3.6 1.1 4.4 2.7.8-.5 1.7-.7 2.6-.7 2.8 0 5 2.2 5 5 0 .6-.4 1-1 1z"></path><g><path class="st2" d="M-344.1 55.3h-.4l-3.5-.3-3.4.3c-1.7.1-3.2-.7-3.9-2.2-.8-1.5-.5-3.2.6-4.5l2-2.3.9-1.6c.8-1.4 2.3-2.3 3.9-2.3s3.1.8 3.9 2.3l.9 1.6 2 2.3c1.1 1.3 1.3 3 .6 4.5-.8 1.4-2.1 2.2-3.6 2.2zM-348 53c.1 0 .1 0 0 0l3.6.3c1 .1 1.7-.5 2-1.1.3-.6.4-1.5-.3-2.2l-2.1-2.4c0-.1-.1-.1-.1-.2l-1-1.7c-.5-.8-1.3-1.3-2.2-1.3s-1.7.5-2.2 1.3l-1 1.7c0 .1-.1.1-.1.2l-2.1 2.4c-.7.8-.6 1.6-.3 2.2.3.6 1 1.2 2 1.1l3.8-.3zM-342 38.6c-.2 1.5-1.4 2.6-2.6 2.3-1.2-.2-2-1.7-1.7-3.2.2-1.5 1.4-2.6 2.6-2.3 1.2.2 2 1.7 1.7 3.2zM-337.1 44.2c-.4 1.3-1.6 2.1-2.6 1.6-1-.4-1.5-1.8-1.1-3.1.4-1.3 1.6-2.1 2.6-1.6 1 .4 1.5 1.8 1.1 3.1zM-355.1 42.8c-.4-1.3-1.6-2.1-2.6-1.6-1 .4-1.5 1.8-1.1 3.1.4 1.3 1.6 2.1 2.6 1.6 1-.4 1.5-1.8 1.1-3.1zM-349.6 37.7c-.2-1.5-1.4-2.6-2.6-2.3-1.2.2-2 1.7-1.7 3.2.2 1.5 1.4 2.6 2.6 2.3 1.2-.2 2-1.6 1.7-3.2z"></path></g></g><g id="pets_collar_1_"><path class="st2" d="M-437.5 28h-8.6c-2.1 0-4.1-.8-5.7-2.3l-.9-.9c-1.5-1.5-2.3-3.5-2.3-5.7V7.9c0-2.1.8-4.1 2.3-5.7l.3-.3C-450.5 0-448-1-445.3-1h7.7c2.5 0 4.9 1 6.7 2.8l2.5 2.5c.4.4.4 1 0 1.4s-1 .4-1.4 0l-2.5-2.5c-1.4-1.4-3.3-2.2-5.3-2.2h-7.7c-2.1 0-4.1.8-5.7 2.3l-.3.3c-1.1 1.1-1.8 2.6-1.8 4.2V19c0 1.6.6 3.1 1.8 4.2l.9.9c1.1 1.1 2.6 1.8 4.2 1.8h8.6c2 0 3.9-.8 5.3-2.2l2.5-2.5c.4-.4 1-.4 1.4 0s.4 1 0 1.4l-2.5 2.5c-1.7 1.9-4.1 2.9-6.6 2.9z"></path><path class="st2" d="M-436 15h-12c-.6 0-1-.4-1-1s.4-1 1-1h12c.6 0 1 .4 1 1s-.4 1-1 1z"></path><g><path class="st2" d="M-441.9 23c-2.3 0-4.4-1.3-5.4-3.3l-.6-1.2c-.2-.5 0-1.1.4-1.3.5-.2 1.1 0 1.3.4l.6 1.2c.7 1.4 2.1 2.2 3.6 2.2h.1c16.6-.4 26.8-3.9 26.8-7V0c0-3.3-12.3-7-30-7s-30 3.7-30 7v14c0 2.5 7.4 5.8 21.1 6.9.6 0 1 .5.9 1.1 0 .6-.5 1-1.1.9-11-.9-22.8-3.7-22.8-8.9V0c0-5.9 16.1-9 32-9 15.9 0 32 3.1 32 9v14c0 5.7-14.5 8.6-28.8 9h-.1z"></path><path class="st2" d="M-447 11c-.2 0-.3 0-.4-.1-.5-.2-.7-.8-.4-1.3l.6-1.3c1-2 3-3.3 5.3-3.3 10.2-.1 17.1-1.1 21.6-2.9.5-.2 1.1 0 1.3.5.2.5 0 1.1-.5 1.3-4.7 1.9-11.8 2.9-22.3 3.1-1.5 0-2.9.9-3.5 2.2l-.6 1.3c-.4.3-.7.5-1.1.5zM-454 6.7c-6.8-.5-12.5-1.4-16.3-2.8-.5-.2-.8-.8-.6-1.3s.8-.8 1.3-.6c3.7 1.3 9.1 2.2 15.7 2.7.6 0 1 .5.9 1.1 0 .5-.5.9-1 .9zM-436 17c-.6 0-1-.4-1-1v-4c0-.6.4-1 1-1s1 .4 1 1v4c0 .6-.4 1-1 1zM-428 16c-.6 0-1-.4-1-1v-4c0-.6.4-1 1-1s1 .4 1 1v4c0 .6-.4 1-1 1zM-421 14c-.6 0-1-.4-1-1V9c0-.6.4-1 1-1s1 .4 1 1v4c0 .6-.4 1-1 1z"></path></g><g><path class="st2" d="M-445 31h2v6h-2z"></path><path class="st2" d="M-444 55c-5.5 0-10-4.5-10-10s4.5-10 10-10 10 4.5 10 10-4.5 10-10 10zm0-18c-4.4 0-8 3.6-8 8s3.6 8 8 8 8-3.6 8-8-3.6-8-8-8z"></path><circle class="st2" cx="-444" cy="41" r="2"></circle></g></g><g id="parakeet-budgie_1_"><path class="st1" d="M-580 38.7c-9.3-5.2-16-14.8-16-25.7M-564 9s4 0 6-1c0 0 0 5.4 2 8.4-5.8-1.7-10-7.1-10-13.4 0-7.7 6.3-14 14-14 4.3 0 8.4 1.7 11 4.7 4.4 5.2 7 11.9 7 19.3 0 14.5-10.3 26.6-24 29.4M-596 13l16 11"></path><path class="st1" d="M-554 0c0-1.7 1.3-3 3-3s3 1.3 3 3M-549.3 18c.9 1.8 1.3 3.9 1.3 6 0 20-28 27-28 27V24c0-4.5 2.1-8.4 5.3-11M-557 42h23M-596 42h20"></path></g><g id="vet_1_"><g id="cat_3_"><path class="st2" d="M-665 36c-.6 0-1-.4-1-1v-1c0-2.8-2.2-5-5-5h-.6c-3.6 0-6.6-2.7-7-6.3l-.2-1.9c-.2-2.1 1.2-3.9 3.2-4.3l.6-.1c.7-.1 1.3-.6 1.5-1.3l.4-1.2c1.4-4.1 5.2-6.8 9.5-6.8h1.5c.6 0 1 .4 1 1s-.4 1-1 1h-1.5c-3.4 0-6.5 2.2-7.6 5.5l-.4 1.2c-.5 1.4-1.6 2.4-3 2.7l-.6.1c-1 .2-1.7 1.1-1.6 2.2l.2 1.9c.3 2.6 2.4 4.5 5 4.5h.6c3.9 0 7 3.1 7 7v1c0 .4-.4.8-1 .8z"></path><path class="st2" d="M-669 16c0-1.1.9-2 2-2s2 .9 2 2M-645 27c-.6 0-1-.4-1-1 0-14.3-11.1-20.7-15-22.5V10c0 .6-.4 1-1 1s-1-.4-1-1V2c0-.3.2-.6.4-.8.3-.2.6-.2.9-.1.2 0 17.7 6.4 17.7 24.9 0 .6-.4 1-1 1z"></path></g><g id="dog_1_"><path class="st2" d="M-692 5c0-1.1.9-2 2-2s2 .9 2 2"></path><path class="st2" d="M-689 20h-10.3c-3.2 0-6-2.2-6.8-5.3l-1.9-7.5c-.1-.5.2-1.1.7-1.2l9-2.5c.9-.3 1.7-.9 2-1.8l1.5-4c.6-1.7 2.2-2.9 4-3.2 1.8-.3 4.8-.6 8.8-.6 7.3 0 12.5 5.1 12.7 5.3.4.4.4 1 0 1.4s-1 .4-1.4 0c0 0-4.8-4.7-11.3-4.7-3.8 0-6.7.3-8.5.6-1.1.2-2 .9-2.4 1.9l-1.5 4c-.6 1.5-1.8 2.6-3.4 3.1l-8.1 2.2 1.6 6.5c.6 2.2 2.6 3.8 4.9 3.8h10.3c.6 0 1 .4 1 1s-.3 1-.9 1z"></path><path class="st2" d="M-705 12h-1c-.6 0-1-.4-1-1s.4-1 1-1h1c1.7 0 3-1.3 3-3V6c0-.6.4-1 1-1s1 .4 1 1v1c0 2.8-2.2 5-5 5zM-682 29c-2.5 0-5-1.4-6.4-3.7-1.5-2.5-1.3-5.6.5-8.8C-683.1 8-683 4-683 4c0-.5.5-1 1-1s1 .4 1 1c0 .2-.1 4.4-5.1 13.5-1.8 3.3-1.3 5.5-.5 6.8.9 1.6 2.8 2.7 4.6 2.7.6 0 1 .4 1 1s-.4 1-1 1z"></path></g><path class="st2" d="M-685 58h-12c-.6 0-1-.4-1-1v-9h-9c-.6 0-1-.4-1-1V35c0-.6.4-1 1-1h9v-9c0-.6.4-1 1-1h4v2h-3v9c0 .6-.4 1-1 1h-9v10h9c.6 0 1 .4 1 1v9h10v-9c0-.6.4-1 1-1h19c11 0 20-9 20-20v-1h2v1c0 12.1-9.9 22-22 22h-18v9c0 .6-.4 1-1 1z"></path><path class="st2" d="M-675 42h-2v-6h-8c-.6 0-1-.4-1-1v-3h2v2h8c.6 0 1 .4 1 1v7z"></path></g><g id="text"><path d="M-530.1-54.6c.2-.1.4-.2.7-.2.3-.1.5-.1.8-.1.4 0 .8.1 1.2.2.4.1.7.4 1 .6.3.3.5.6.6 1 .2.4.2.8.2 1.2 0 .5-.1.9-.2 1.3-.2.4-.4.7-.7 1-.3.3-.6.5-1 .6-.4.2-.8.2-1.3.2s-.9-.1-1.3-.2-.7-.4-1-.6c-.3-.3-.5-.6-.7-1-.2-.4-.2-.8-.2-1.3s.1-1 .3-1.4c.2-.4.4-.9.6-1.3l2.7-4.4h1.2l-2.9 4.4zm-1 2.7c0 .3.1.6.2.9.1.3.3.5.5.7.2.2.4.4.7.5.3.1.6.2.9.2.3 0 .6-.1.9-.2.3-.1.5-.3.7-.5.2-.2.3-.4.5-.7.1-.3.2-.6.2-.9 0-.3-.1-.6-.2-.9-.1-.3-.2-.5-.4-.7-.2-.2-.4-.4-.7-.5-.3-.1-.6-.2-.9-.2-.3 0-.6.1-.9.2-.3.1-.5.3-.7.5-.2.2-.3.4-.4.7-.3.3-.4.6-.4.9zM-518.7-52.3h1.5v.9h-1.5v2.4h-1v-2.4h-4.5v-1l4.2-6.5h1.3v6.6zm-1-5.5l-3.5 5.5h3.5v-5.5zM-512.1-54.9l2.7-4h1.2l-3.3 4.7 3.6 5.2h-1.3l-3-4.5-3 4.5h-1.3l3.6-5.2-3.3-4.7h1.3l2.8 4zM-504.8-54.6c.2-.1.4-.2.7-.2.3-.1.5-.1.8-.1.4 0 .8.1 1.2.2.4.1.7.4 1 .6.3.3.5.6.6 1 .2.4.2.8.2 1.2 0 .5-.1.9-.2 1.3-.2.4-.4.7-.7 1-.3.3-.6.5-1 .6-.4.2-.8.2-1.3.2s-.9-.1-1.3-.2c-.4-.2-.7-.4-1-.6-.3-.3-.5-.6-.7-1-.2-.4-.2-.8-.2-1.3s.1-1 .3-1.4c.2-.4.4-.9.6-1.3l2.7-4.4h1.2l-2.9 4.4zm-1 2.7c0 .3.1.6.2.9.1.3.3.5.5.7.2.2.4.4.7.5.3.1.6.2.9.2.3 0 .6-.1.9-.2.3-.1.5-.3.7-.5.2-.2.3-.4.5-.7.1-.3.2-.6.2-.9 0-.3-.1-.6-.2-.9-.1-.3-.2-.5-.4-.7-.2-.2-.4-.4-.7-.5-.3-.1-.6-.2-.9-.2-.3 0-.6.1-.9.2-.3.1-.5.3-.7.5-.2.2-.3.4-.4.7-.3.3-.4.6-.4.9zM-493.4-52.3h1.5v.9h-1.5v2.4h-1v-2.4h-4.5v-1l4.2-6.5h1.3v6.6zm-1-5.5l-3.5 5.5h3.5v-5.5zM-478.5-49.9h5.3v.9h-6.3v-9.9h6.1v.9h-5.1v3.4h4.8v.9h-4.8v3.8zM-471.3-58.9h3.3c.6 0 1.2.1 1.9.3.6.2 1.2.5 1.7.9s.9.9 1.2 1.6c.3.6.5 1.3.5 2.2 0 .8-.2 1.6-.5 2.2-.3.6-.7 1.1-1.2 1.5-.5.4-1.1.7-1.7.9-.6.2-1.2.3-1.9.3h-3.3v-9.9zm1.1 9h2c.7 0 1.4-.1 2-.4.6-.2 1-.5 1.4-.9.4-.4.6-.8.8-1.3.2-.5.3-1 .3-1.5s-.1-1-.3-1.5c-.2-.5-.5-.9-.8-1.3-.4-.4-.8-.7-1.4-.9-.6-.2-1.2-.4-2-.4h-2v8.2zM-459.7-49h-1v-9.9h1v9.9zM-453.8-49h-1v-9h-3.3v-.9h7.6v.9h-3.3v9zM-449.9-49h-1.1l4.3-9.9h1l4.3 9.9h-1.1l-1.1-2.6h-5.1l-1.2 2.6zm1.4-3.5h4.4l-2.2-5.3-2.2 5.3zM-440.1-58.9h3c.4 0 .8 0 1.1.1.4.1.7.2 1 .4.3.2.5.5.7.8.2.3.3.7.3 1.2s-.2 1-.5 1.4c-.3.4-.7.6-1.3.8.6.1 1.2.3 1.6.7.4.4.6 1 .6 1.7 0 .4-.1.8-.3 1.1-.2.3-.4.6-.7.9-.3.2-.7.4-1.2.6-.5.1-1 .2-1.5.2h-2.9v-9.9zm1 4.3h2c.2 0 .5 0 .7-.1.2-.1.5-.2.7-.3.2-.1.4-.3.5-.5.1-.2.2-.5.2-.8 0-.3-.1-.6-.2-.8s-.3-.4-.5-.5c-.2-.1-.5-.2-.8-.3-.3-.1-.6-.1-.9-.1h-1.8v3.4zm0 4.7h1.9c.4 0 .7 0 1-.1l.9-.3.6-.6c.1-.2.2-.5.2-.9 0-.7-.2-1.1-.7-1.5-.4-.3-1.1-.5-1.9-.5h-2.1v3.9zM-430.2-49.9h4.6v.9h-5.6v-9.9h1v9zM-423-49.9h5.3v.9h-6.3v-9.9h6.1v.9h-5.1v3.4h4.8v.9h-4.8v3.8zM-403.9-57.3c-.2-.3-.5-.5-.8-.7-.3-.2-.7-.3-1.2-.3-.2 0-.5 0-.7.1-.3.1-.5.2-.7.3-.2.2-.4.3-.5.6-.1.2-.2.5-.2.8 0 .3.1.6.2.8.1.2.3.4.5.5.2.1.4.3.7.4.3.1.5.2.8.3.3.1.7.2 1 .4.3.1.7.3.9.5.3.2.5.5.7.8.2.3.3.7.3 1.2s-.1.9-.3 1.3c-.2.4-.4.7-.7.9-.3.2-.6.4-1 .5-.4.1-.8.2-1.2.2-.3 0-.6 0-.9-.1l-.9-.3c-.3-.1-.5-.3-.8-.5l-.6-.6.9-.6c.2.4.5.7.9.9.4.2.8.4 1.4.4.3 0 .5 0 .8-.1.3-.1.5-.2.7-.4.2-.2.4-.4.5-.6.1-.2.2-.5.2-.8 0-.3-.1-.6-.2-.9-.1-.2-.3-.4-.5-.6-.2-.2-.5-.3-.8-.4l-.9-.3c-.3-.1-.6-.2-1-.4-.3-.1-.6-.3-.9-.5-.3-.2-.5-.5-.6-.8-.2-.3-.2-.7-.2-1.1 0-.5.1-.9.3-1.2.2-.3.4-.6.7-.9.3-.2.6-.4 1-.5.4-.1.7-.2 1.1-.2.7 0 1.2.1 1.7.4.5.2.8.5 1.1.8l-.8.7zM-397.9-49h-1v-9h-3.3v-.9h7.6v.9h-3.3v9zM-392.1-49h-1v-9.9h2.9c.5 0 .9 0 1.4.1.4.1.8.2 1.1.5.3.2.5.5.7.8.2.3.3.7.3 1.2 0 .4-.1.7-.2 1-.1.3-.3.6-.5.8-.2.2-.5.4-.8.5-.3.1-.6.2-1 .3l2.9 4.7h-1.2l-2.7-4.6h-1.7v4.6zm0-5.5h1.8c.8 0 1.4-.1 1.9-.4.4-.3.7-.7.7-1.3 0-.3-.1-.6-.2-.8-.1-.2-.3-.4-.5-.5-.2-.1-.5-.2-.8-.3-.3-.1-.6-.1-1-.1h-1.8v3.4zM-374.9-54c0 .8-.1 1.5-.4 2.1-.3.6-.6 1.2-1.1 1.6-.5.5-1 .8-1.6 1.1-.6.3-1.3.4-2.1.4s-1.4-.1-2.1-.4c-.6-.3-1.2-.6-1.6-1.1-.5-.5-.8-1-1.1-1.6-.3-.6-.4-1.3-.4-2.1s.1-1.5.4-2.1c.3-.6.6-1.2 1.1-1.6.5-.5 1-.8 1.6-1.1.6-.3 1.3-.4 2.1-.4s1.4.1 2.1.4c.6.3 1.2.6 1.6 1.1.5.5.8 1 1.1 1.6.2.7.4 1.4.4 2.1zm-1.1.1c0-.6-.1-1.1-.3-1.6-.2-.5-.5-1-.8-1.4-.4-.4-.8-.7-1.3-.9-.5-.2-1.1-.3-1.7-.3s-1.2.1-1.7.3c-.5.2-.9.5-1.3.9s-.6.9-.8 1.4c-.2.5-.3 1.1-.3 1.6 0 .6.1 1.1.3 1.6.2.5.5 1 .8 1.4.4.4.8.7 1.3.9.5.2 1.1.3 1.7.3s1.2-.1 1.7-.3c.5-.2.9-.5 1.3-.9s.6-.8.8-1.4c.2-.5.3-1.1.3-1.6zM-371.8-54.5l4.7-4.5h1.4l-5 4.5 5.3 5.4h-1.5l-5-5.3v5.3h-1V-59h1v4.5zM-363-49.9h5.3v.9h-6.3v-9.9h6.1v.9h-5.1v3.4h4.8v.9h-4.8v3.8z"></path><g><path class="st2" d="M-582.3-82.7c0 1.2-.2 2.1-.6 2.9-.4.8-1 1.4-1.7 1.9s-1.6.8-2.5 1.1c-1 .2-1.9.3-3 .3h-2.4v7.5h-4.8v-19.8h7.3c1.1 0 2.1.1 3 .3.9.2 1.8.6 2.5 1 .7.5 1.2 1.1 1.7 1.9.3.8.5 1.7.5 2.9zm-4.8 0c0-.5-.1-.8-.3-1.1-.2-.3-.4-.5-.8-.7-.3-.2-.7-.3-1.1-.3-.4-.1-.8-.1-1.2-.1h-2.1v4.7h2c.4 0 .9 0 1.3-.1s.8-.2 1.1-.4c.3-.2.6-.4.8-.7.2-.4.3-.8.3-1.3zM-579.5-69v-19.8h4.8V-69h-4.8zM-558.6-69l-4.3-7-4.2 7h-5.7l6.9-10.5-6.4-9.4h5.8l3.7 6.2 3.6-6.2h5.6l-6.3 9.4 7.2 10.5h-5.9zM-550.9-69v-19.8h13.3v4h-8.7v3.8h8.2v3.8h-8.2v4.1h9.2v4.1h-13.8zM-533.9-69v-19.8h4.8v15.7h7.7v4.2h-12.5zM-497.8-82.7c0 1.2-.2 2.1-.6 2.9-.4.8-1 1.4-1.7 1.9s-1.6.8-2.5 1.1c-1 .2-1.9.3-3 .3h-2.4v7.5h-4.8v-19.8h7.3c1.1 0 2.1.1 3 .3.9.2 1.8.6 2.5 1 .7.5 1.2 1.1 1.7 1.9.3.8.5 1.7.5 2.9zm-4.8 0c0-.5-.1-.8-.3-1.1-.2-.3-.4-.5-.8-.7-.3-.2-.7-.3-1.1-.3-.4-.1-.8-.1-1.2-.1h-2.1v4.7h2c.4 0 .9 0 1.3-.1s.8-.2 1.1-.4c.3-.2.6-.4.8-.7.2-.4.3-.8.3-1.3zM-494.9-69v-19.8h13.3v4h-8.7v3.8h8.2v3.8h-8.2v4.1h9.2v4.1h-13.8zM-467.3-69l-4.3-7.9h-1.6v7.9h-4.7v-19.8h7.6c1 0 1.9.1 2.8.3.9.2 1.7.5 2.4 1s1.3 1.1 1.7 1.8c.4.8.6 1.7.6 2.9 0 1.3-.4 2.5-1.1 3.4-.7.9-1.7 1.6-3 2l5.2 8.5h-5.6zm-.2-13.7c0-.5-.1-.8-.3-1.1-.2-.3-.5-.5-.8-.7-.3-.2-.7-.3-1-.3-.4-.1-.8-.1-1.1-.1h-2.6v4.6h2.3c.4 0 .8 0 1.2-.1.4-.1.8-.2 1.1-.4.3-.2.6-.4.8-.7.3-.3.4-.7.4-1.2zM-454.6-84.7v4.1h7.7v3.9h-7.7v7.7h-4.7v-19.8h13v4.1h-8.3zM-443.2-69v-19.8h13.3v4h-8.7v3.8h8.2v3.8h-8.2v4.1h9.2v4.1h-13.8zM-412-69.4c-1.3.6-2.8.9-4.5.9-1.5 0-2.9-.3-4.2-.8-1.3-.5-2.4-1.2-3.4-2.1-1-.9-1.7-2-2.2-3.3-.5-1.3-.8-2.7-.8-4.3 0-1.6.3-3 .8-4.3.6-1.3 1.3-2.4 2.3-3.3 1-.9 2.1-1.6 3.4-2.1 1.3-.5 2.7-.7 4.2-.7 1.4 0 2.8.2 4.1.7 1.4.5 2.4 1.2 3.3 2.2l-3.2 3.2c-.4-.6-1-1.1-1.8-1.4-.7-.3-1.5-.4-2.2-.4-.8 0-1.6.2-2.3.5-.7.3-1.3.7-1.8 1.3-.5.5-.9 1.2-1.2 1.9-.3.7-.4 1.5-.4 2.4 0 .9.1 1.7.4 2.5.3.7.7 1.4 1.2 1.9s1.1.9 1.8 1.2c.7.3 1.4.4 2.3.4 1 0 1.8-.2 2.5-.6.7-.4 1.3-.9 1.7-1.5l3.3 3.1c-.9 1.3-2 2.1-3.3 2.6zM-398.4-84.7V-69h-4.8v-15.7h-5.6v-4.1h16v4.1h-5.6z"></path><path class="st5" d="M-374-69h-2v-19.8h2V-69zM-352.1-72.2c-.3.5-.7 1-1.2 1.4-.5.4-1 .8-1.7 1.2-.6.3-1.3.6-2.1.8-.8.2-1.6.3-2.5.3-1.5 0-2.9-.3-4.1-.8-1.3-.5-2.4-1.2-3.3-2.2-.9-.9-1.6-2-2.1-3.3-.5-1.3-.8-2.7-.8-4.2s.3-2.9.8-4.2c.5-1.3 1.2-2.4 2.2-3.3.9-.9 2-1.6 3.3-2.2 1.3-.5 2.6-.8 4.1-.8.7 0 1.4.1 2.1.2.7.2 1.4.4 2 .6.6.3 1.2.6 1.7 1s.9.8 1.3 1.3l-1.7 1.2c-.2-.3-.5-.6-.8-1-.3-.3-.8-.6-1.2-.8l-1.5-.6c-.6-.1-1.1-.2-1.8-.2-1.3 0-2.4.2-3.5.7-1 .5-1.9 1.1-2.6 1.9-.7.8-1.3 1.7-1.6 2.7-.4 1-.6 2.1-.6 3.3 0 1.2.2 2.3.6 3.3.4 1 .9 2 1.6 2.7.7.8 1.6 1.4 2.6 1.9s2.2.7 3.4.7c1.1 0 2.2-.2 3.2-.7s1.9-1.2 2.6-2.2l1.6 1.3zM-329.3-78.9c0 1.5-.3 2.9-.8 4.2-.5 1.3-1.2 2.4-2.2 3.3-.9.9-2 1.6-3.3 2.2-1.3.5-2.6.8-4.1.8-1.5 0-2.8-.3-4.1-.8-1.3-.5-2.4-1.2-3.3-2.2-.9-.9-1.6-2-2.2-3.3-.5-1.3-.8-2.7-.8-4.2s.3-2.9.8-4.2c.5-1.3 1.2-2.4 2.2-3.3.9-.9 2-1.6 3.3-2.2 1.3-.5 2.6-.8 4.1-.8 1.5 0 2.8.3 4.1.8 1.3.5 2.4 1.2 3.3 2.2.9.9 1.6 2 2.2 3.3.5 1.3.8 2.7.8 4.2zm-2.2 0c0-1.2-.2-2.3-.6-3.3-.4-1-.9-2-1.6-2.8-.7-.8-1.6-1.4-2.6-1.9s-2.2-.7-3.4-.7c-1.3 0-2.4.2-3.4.7s-1.9 1.1-2.6 1.9c-.7.8-1.3 1.7-1.6 2.8-.4 1-.6 2.1-.6 3.3 0 1.2.2 2.3.6 3.3.4 1 .9 2 1.6 2.7.7.8 1.6 1.4 2.6 1.9s2.2.7 3.4.7c1.3 0 2.4-.2 3.4-.7 1-.5 1.9-1.1 2.6-1.9.7-.8 1.2-1.7 1.6-2.7.5-1 .6-2.1.6-3.3zM-311.1-71.9l.1-16.9h2V-69h-2.5L-323-86.1h-.1V-69h-2v-19.8h2.5l11.5 16.9zM-294.1-85.6c-.4-.6-1-1.1-1.7-1.4-.7-.4-1.5-.5-2.4-.5-.5 0-1 .1-1.5.2s-1 .4-1.4.7c-.4.3-.7.7-1 1.2-.3.5-.4 1-.4 1.7 0 .6.1 1.2.4 1.6.2.4.6.8 1 1.1.4.3.9.5 1.4.7.5.2 1 .4 1.6.6.7.2 1.4.5 2.1.7.7.3 1.3.6 1.9 1 .6.4 1 1 1.4 1.6.4.6.5 1.5.5 2.5s-.2 1.8-.6 2.6c-.4.7-.9 1.3-1.5 1.8s-1.3.8-2.1 1c-.8.2-1.6.3-2.3.3-.6 0-1.2-.1-1.8-.2-.6-.1-1.2-.3-1.7-.5s-1-.6-1.5-.9c-.5-.4-.9-.8-1.2-1.3l1.7-1.3c.4.7 1 1.3 1.8 1.8s1.7.7 2.7.7c.5 0 1-.1 1.5-.2.5-.2 1-.4 1.4-.7.4-.3.8-.7 1-1.2.3-.5.4-1 .4-1.7s-.1-1.3-.4-1.7c-.3-.5-.6-.8-1.1-1.1-.4-.3-1-.6-1.5-.8l-1.8-.6c-.7-.2-1.3-.4-1.9-.7-.6-.3-1.2-.6-1.7-1s-.9-.9-1.2-1.6c-.3-.6-.5-1.4-.5-2.3 0-1 .2-1.8.6-2.5.4-.7.9-1.3 1.5-1.7.6-.4 1.3-.8 2-1 .7-.2 1.5-.3 2.2-.3 1.3 0 2.5.2 3.4.7 1 .5 1.7 1 2.2 1.7l-1.5 1z"></path></g></g></svg>