<svg xmlns="http://www.w3.org/2000/svg" width="42" height="32" viewBox="0 0 42 32"><path d="M32.178-29.106q2.346,0,2.346,1.535a1.289,1.289,0,0,1-.469,1,2.587,2.587,0,0,1-1.408.531,20.632,20.632,0,0,0-5.279,2.125,11.829,11.829,0,0,0-4.047,3.838,10.89,10.89,0,0,0-1.584,6.081,5.236,5.236,0,0,0,1.349,3.306A4.947,4.947,0,0,0,26.429-8.8a6.591,6.591,0,0,1,3.813,1.83,5.06,5.06,0,0,1,1.466,3.72A5.488,5.488,0,0,1,29.6,1.123a7.434,7.434,0,0,1-4.927,1.771A9.586,9.586,0,0,1,17.161-.412,12.165,12.165,0,0,1,14.228-8.8a19.225,19.225,0,0,1,1.76-8.325A22.359,22.359,0,0,1,20.5-23.556a20.5,20.5,0,0,1,5.866-4.133A14.074,14.074,0,0,1,32.178-29.106Zm-21.7,0q2.346,0,2.346,1.535a1.289,1.289,0,0,1-.469,1,2.587,2.587,0,0,1-1.408.531A20.632,20.632,0,0,0,5.664-23.91a11.829,11.829,0,0,0-4.047,3.838A10.89,10.89,0,0,0,.032-13.992a5.236,5.236,0,0,0,1.349,3.306A4.947,4.947,0,0,0,4.725-8.8a6.591,6.591,0,0,1,3.813,1.83A5.06,5.06,0,0,1,10-3.246,5.488,5.488,0,0,1,7.893,1.123,7.434,7.434,0,0,1,2.965,2.894,9.586,9.586,0,0,1-4.543-.412,12.165,12.165,0,0,1-7.476-8.8a19.225,19.225,0,0,1,1.76-8.325A22.359,22.359,0,0,1-1.2-23.556a20.5,20.5,0,0,1,5.866-4.133A14.074,14.074,0,0,1,10.474-29.106Z" transform="translate(7.476 29.106)" fill="#ffe5de"/></svg>