<?xml version="1.0" encoding="utf-8"?>
<!-- Generator: Adobe Illustrator 24.2.1, SVG Export Plug-In . SVG Version: 6.00 Build 0)  -->
<svg version="1.0" id="Layer_1" xmlns="http://www.w3.org/2000/svg" xmlns:xlink="http://www.w3.org/1999/xlink" x="0px" y="0px"
	 viewBox="0 0 63.879 34.857" style="enable-background:new 0 0 63.879 34.857;" xml:space="preserve">
<g>
	<path d="M10.406,10.037c-0.938-1.359-2.268-2.039-3.99-2.039c-2.027,0-3.604,0.768-4.729,2.303S0,14.162,0,17.279v1.406
		c0.023,2.871,0.589,5.095,1.696,6.671s2.675,2.364,4.702,2.364c1.523,0,2.76-0.621,3.709-1.863v1.635
		c-0.012,1.184-0.261,2.042-0.747,2.575s-1.286,0.8-2.399,0.8c-0.668,0-1.377-0.155-2.127-0.466s-1.359-0.712-1.828-1.204
		l-1.67,3.445c0.562,0.645,1.418,1.175,2.566,1.591s2.244,0.624,3.287,0.624c2.543,0,4.494-0.642,5.854-1.925
		s2.039-3.138,2.039-5.563V8.35H10.6L10.406,10.037z M10.107,22.465c-0.492,0.738-1.248,1.107-2.268,1.107
		c-0.996,0-1.723-0.401-2.18-1.204s-0.686-2.083-0.686-3.841v-1.248c0-1.793,0.237-3.094,0.712-3.902s1.204-1.213,2.188-1.213
		c0.973,0,1.717,0.404,2.232,1.213V22.465z"/>
	<path d="M21.41,0.791c-0.82,0-1.477,0.246-1.969,0.738s-0.738,1.125-0.738,1.898c0,0.762,0.243,1.395,0.729,1.898
		s1.146,0.756,1.978,0.756s1.491-0.252,1.978-0.756s0.729-1.137,0.729-1.898c0-0.773-0.246-1.406-0.738-1.898
		S22.23,0.791,21.41,0.791z"/>
	<rect x="18.932" y="8.35" width="4.992" height="19.02"/>
	<path d="M30.577,1.749c-1.096,1.166-1.649,2.798-1.661,4.896V8.35h-2.303v3.727h2.303v15.293h4.992V12.076h2.971V8.35h-2.971V6.803
		c0-1.758,0.738-2.637,2.215-2.637c0.469,0,0.873,0.053,1.213,0.158l0.035-3.973C36.457,0.117,35.707,0,35.121,0
		C33.188,0,31.673,0.583,30.577,1.749z"/>
	<path d="M45.659,23.08c-0.205-0.282-0.308-0.798-0.308-1.549v-9.454H47.9V8.35h-2.549V3.674h-4.975V8.35H38.18v3.727h2.197v10.119
		c0.035,3.684,1.658,5.526,4.869,5.526c0.984,0,1.898-0.158,2.742-0.475l0.035-3.867c-0.305,0.082-0.697,0.123-1.178,0.123
		C46.26,23.502,45.864,23.361,45.659,23.08z"/>
	<path d="M62.622,18.501c-0.838-0.92-2.271-1.755-4.298-2.505c-1.395-0.598-2.279-1.058-2.654-1.38s-0.562-0.694-0.562-1.116
		c0-0.586,0.17-1.043,0.51-1.371s0.773-0.492,1.301-0.492c1.289,0,1.934,0.773,1.934,2.32h4.975c0-1.816-0.627-3.264-1.881-4.342
		s-2.924-1.617-5.01-1.617c-1.98,0-3.571,0.542-4.772,1.626s-1.802,2.458-1.802,4.122c0,1.324,0.384,2.432,1.151,3.322
		s2.177,1.752,4.228,2.584c1.395,0.609,2.294,1.093,2.698,1.45s0.606,0.747,0.606,1.169c0,1.207-0.668,1.811-2.004,1.811
		c-0.867,0-1.491-0.217-1.872-0.65s-0.583-1.084-0.606-1.951h-4.729c0,1.125,0.302,2.174,0.905,3.146s1.438,1.731,2.505,2.276
		s2.297,0.817,3.691,0.817c2.074,0,3.75-0.516,5.027-1.547s1.916-2.396,1.916-4.096C63.879,20.613,63.46,19.421,62.622,18.501z"/>
</g>
</svg>
