<?xml version="1.0" encoding="UTF-8"?>
<svg viewBox="0 0 35 35" xmlns="http://www.w3.org/2000/svg">
<defs>
<style>.cls-1 {
        fill: #f45f0b;
        fill-rule: evenodd;
      }</style>
</defs>
<path class="cls-1" transform="translate(-1075.4 -1877.3)" d="M1091.58,1888.84c-0.54-.09-1.23-0.24-2.05-0.44s-1.66-.46-2.53-0.75a23.436,23.436,0,0,1-2.56-1.06,12.01,12.01,0,0,1-2.29-1.44c-0.23-.23-0.44-0.47-0.65-0.72a4.175,4.175,0,0,1-.51-0.78,3.75,3.75,0,0,1-.31-0.89,4.181,4.181,0,0,1-.1-0.89,3.932,3.932,0,0,1,.1-0.92,4.279,4.279,0,0,1,.31-0.89,3.637,3.637,0,0,1,.51-0.82,5.577,5.577,0,0,1,2.36-1.64,6.07,6.07,0,0,1,3.83,0,4.617,4.617,0,0,1,1.71.99,6.311,6.311,0,0,1,1.12,1.13,13.269,13.269,0,0,1,.96,1.36,14.66,14.66,0,0,1,.79,1.44c0.22,0.48.43,0.95,0.61,1.4,0.18-.45.39-0.92,0.62-1.4a14.533,14.533,0,0,1,.78-1.44,11.71,11.71,0,0,1,2.16-2.56,4.318,4.318,0,0,1,1.64-.92,6.257,6.257,0,0,1,3.89,0,4.318,4.318,0,0,1,1.64.92,3.863,3.863,0,0,1,.69.72,6.285,6.285,0,0,1,.48.78,3.731,3.731,0,0,1,.3.89,4.488,4.488,0,0,1,.11.96,4.234,4.234,0,0,1-.11.89,3.731,3.731,0,0,1-.3.89,6.285,6.285,0,0,1-.48.78,3.863,3.863,0,0,1-.69.72,9.876,9.876,0,0,1-2.22,1.44,26.748,26.748,0,0,1-2.59,1.09,21.925,21.925,0,0,1-2.53.75c-0.8.18-1.47,0.32-2.02,0.41v0.41l-1.3-.2h-0.07l-1.37.2Zm6.16-8.75a8.566,8.566,0,0,0-1.34,1.54,12.589,12.589,0,0,0-1.02,1.78,15.111,15.111,0,0,0-.75,1.81c-0.21.59-.38,1.12-0.52,1.57,0.55-.14,1.18-0.28,1.88-0.44a20.107,20.107,0,0,0,2.22-.65,21.27,21.27,0,0,0,2.23-.93,9.557,9.557,0,0,0,1.88-1.19,3.871,3.871,0,0,0,.34-0.41c0.09-.14.18-0.28,0.27-0.41a1.077,1.077,0,0,0,.17-0.45,3.592,3.592,0,0,0,.04-0.44,4.058,4.058,0,0,0-.04-0.51,1.077,1.077,0,0,0-.17-0.45c-0.09-.13-0.18-0.27-0.27-0.41a3.871,3.871,0,0,0-.34-0.41c-0.19-.13-0.36-0.25-0.52-0.34a3.374,3.374,0,0,0-.54-0.24,3.458,3.458,0,0,0-.62-0.14c-0.2-.02-0.4-0.03-0.58-0.03-0.23,0-.44.01-0.65,0.03a3.356,3.356,0,0,0-.61.14,3.132,3.132,0,0,0-.55.24,5.636,5.636,0,0,0-.51.34h0Zm-14.22,0c-0.14.14-.27,0.28-0.38,0.41a2.878,2.878,0,0,0-.27.41,2.2,2.2,0,0,0-.17.45,1.7,1.7,0,0,0-.07.51,1.437,1.437,0,0,0,.07.44,2.2,2.2,0,0,0,.17.45,2.878,2.878,0,0,0,.27.41c0.11,0.13.24,0.27,0.38,0.41a9,9,0,0,0,1.88,1.19,22.3,22.3,0,0,0,2.18.93,18.512,18.512,0,0,0,2.23.65c0.72,0.16,1.34.28,1.84,0.37-0.14-.45-0.31-0.96-0.51-1.54-0.21-.56-0.46-1.16-0.75-1.77a13.714,13.714,0,0,0-1.03-1.78,8.925,8.925,0,0,0-1.33-1.54c-0.14-.09-0.3-0.19-0.48-0.31a3.49,3.49,0,0,0-.55-0.27,2.591,2.591,0,0,0-.58-0.14c-0.2-.02-0.42-0.03-0.65-0.03s-0.44.01-.65,0.03a2.731,2.731,0,0,0-.58.14,3.4,3.4,0,0,0-.54.27c-0.19.12-.35,0.22-0.48,0.31h0Zm26.93,9.57v8.21h-2.05v14.42h-30.9v-14.42h-2.05v-8.21h35Zm-20.64,2.05,2.32,13.06,2.67-2.46,3.41,1.43-2.18-12.03h-6.22Zm-12.31,0v4.1h10.94l-0.68-4.1H1077.5Zm28.85,18.53v-12.37h-7.11l1.64,9.22-5.67-2.39-4.45,4.17-1.98-11h-9.23v12.37h26.8Zm2.05-14.43v-4.1h-10.32l0.75,4.1h9.57Z"/>
</svg>
