<?xml version="1.0" encoding="UTF-8"?>
<svg viewBox="0 0 93.375 80.1" xmlns="http://www.w3.org/2000/svg">
<defs>
<style>.cls-1 {
        fill: #f45f0b;
        fill-rule: evenodd;
      }</style>
</defs>
<path class="cls-1" transform="translate(-512.88 -2667.8)" d="m554.58 2703a3.87 3.87 0 1 0 3.872 3.87 3.872 3.872 0 0 0-3.872-3.87zm0 5.01a1.14 1.14 0 1 1 1.137-1.14 1.14 1.14 0 0 1-1.137 1.14zm-0.6-12.93a3.091 3.091 0 0 0 2.465 2.2 61.041 61.041 0 0 0 27.522-1.96 2.718 2.718 0 0 0 1.347-4.26c-1.421-1.83-3.978-4.42-6.127-5.32a8.366 8.366 0 0 0-4.4-0.53 54.438 54.438 0 0 0-7.19 1.03 0.725 0.725 0 0 0-0.147 0.04c-4.339 0.95-9.18 2.63-12.562 5.65a3.048 3.048 0 0 0-0.905 3.15zm25.087-6.3a19.9 19.9 0 0 1 4.07 3.94c-0.937 0.29-2.09 0.61-3.176 0.88a2.908 2.908 0 0 0-0.474-0.9 25.539 25.539 0 0 0-4.806-4.74c1.701-0.14 2.97-0.19 4.389 0.82zm-22.361 5.19c2.991-2.67 7.384-4.18 11.369-5.04 0.323-0.03 0.631-0.05 0.913-0.07a5.825 5.825 0 0 1 3.729 1.05 22.512 22.512 0 0 1 4.48 4.3 58 58 0 0 1-20.3 0.37 0.356 0.356 0 0 1-0.188-0.61zm-41.374 2.44 21.266 5.24c10.466 6.53 10.22 6.1 10.306 6.57a7.6 7.6 0 0 0 6.014 6.09c0.273 1.33 0.512 2.7 0.707 4.08a1.367 1.367 0 1 0 2.708-0.38c-0.174-1.24-0.381-2.47-0.617-3.67a7.723 7.723 0 0 0 2.2-0.75 73.035 73.035 0 0 1 1.409 15.73l-2.292-0.32c0.02-1.5-8e-3 -3.01-0.084-4.51a1.367 1.367 0 0 0-2.731 0.13c0.072 1.45 0.1 2.91 0.079 4.36a2.53 2.53 0 0 0-1.552 2l-0.5 3.55a2.553 2.553 0 0 0 1.435 2.66c-0.277 2.01-0.647 4.01-1.1 5.95a3.872 3.872 0 1 0 7.539 1.77c0.5-2.14 0.916-4.33 1.227-6.53 0.019 0 0.943 0.13 0.885 0.12a2.545 2.545 0 0 0 2.878-2.17 37.682 37.682 0 0 0 0.519-3.99c4.628-4.63 10.81-7.21 14.634-8.47a5.39 5.39 0 0 0 3.894 1.66c9.5-0.01 9.194 0.05 9.991-0.05a7.438 7.438 0 0 0 6.229-5.2c7e-3 -0.02 5.058-16.24 5.134-16.49a16.7 16.7 0 0 0-0.249-10.55c-3.847-10.2-3.887-12.48-7.432-15.96a16.064 16.064 0 0 0-3.617-2.67 51.049 51.049 0 0 0-40.972-4.41 1.363 1.363 0 1 0 0.82 2.6 48.471 48.471 0 0 1 39.218 4.42 13.134 13.134 0 0 1 5.477 6.15l-9.358-2.3c-15.014-7.86-32.516-7.38-46.707-1.02a2.15 2.15 0 0 0-1.213-1.51 63.317 63.317 0 0 1 6.76-3.53 1.36 1.36 0 0 0 0.7-1.8 1.377 1.377 0 0 0-1.806-0.7 66.683 66.683 0 0 0-9.642 5.32c-1.918-0.2-2.874-0.78-3.947-0.06l-19.221 12.83a3.223 3.223 0 0 0 1.014 5.81zm43.886 11.12a4.878 4.878 0 0 1-9.624 0.2 3.268 3.268 0 0 0-1.48-2.2l-8.461-5.21 8.647-5.37c-0.142 5.97 6.471 7.56 12.541 7.63-2.38 5.19-1.292 2.61-1.62 4.95zm2.78-0.92 0.191-0.41c3.007-0.16 6.931-0.82 11.054 2.66 2.811 2.38 3.4 4.57 4.319 7.74-0.783 0.26-1.743 0.61-2.375 0.86-1.272-7.18-6.494-10.07-13.348-9.04a7.843 7.843 0 0 0 0.162-1.81zm7.19 5.59c1.845 1.21 2.984 3.34 3.4 6.34a43.273 43.273 0 0 0-10.564 6.59 74.716 74.716 0 0 0-1.726-13.49c0.033-0.04 0.064-0.08 0.1-0.12 1.303-0.37 5.681-1.36 8.793 0.68zm-11.734 32.09a1.139 1.139 0 0 1-2.075 0.33c-0.487-0.78 0.155-0.91 1-6.93 0.232 0.03-0.836-0.12 2.26 0.31-0.299 2.12-0.695 4.23-1.182 6.29zm4.969-8.52c-2.667-0.37-4.793-0.67-7.44-1.04l0.446-3.19c1.806 0.25 7.344 1.03 7.441 1.04zm1.621-5.71a10.537 10.537 0 0 0-1.99-0.35c0-0.14 0.016-0.87 0.016-0.89a41.849 41.849 0 0 1 16.223-9.58c0.155 0.56 0.459 1.66 0.61 2.21a40.66 40.66 0 0 0-14.856 8.61zm24.535-46.38 11.324 2.79c2.279 6.72 3.435 8.38 3.589 11.78l-5.308 1.57a1.366 1.366 0 1 0 0.775 2.62l4.364-1.29c-0.336 2.05-0.817 2.73-4.345 14.41l-1.215 3.91a4.725 4.725 0 0 1-2.68 2.96c-1.528 0.64-2.251 0.26-10.929 0.37a2.688 2.688 0 0 1-2.581-1.96c-1.906-6.68-2.092-8.89-4.506-11.94l15.76-4.65a1.366 1.366 0 1 0-0.775-2.62l-17.15 5.05a15.616 15.616 0 0 0-1.3-0.96 15.383 15.383 0 0 0-10.121-2.33 2.406 2.406 0 0 0-0.048-2.8 2.159 2.159 0 0 0-1.345-0.73c-0.7-0.08-14.119 0.72-10.462-7.24a2.209 2.209 0 0 0-0.754-2.67l4.23-1.98a3.827 3.827 0 0 0 0.024-6.92l-2.931-1.4a49.953 49.953 0 0 1 36.387 4.03zm-40.305-2.87 5.672 2.71a1.087 1.087 0 0 1-6e-3 1.97l-1.1 0.52c-0.99-2.03-4.484-3.6-6.6-4.47 0.626-0.23 1.304-0.48 2.037-0.73zm-6.031 3.03 0.09-0.6c0.083-0.04 0.178-0.08 0.278-0.13 1.819 0.61 6.856 2.51 7.746 4.06l-1.913 0.9a2.471 2.471 0 0 0-1.669 0.24c-5.223 1.95-8.587 1.81-8.509 0.67a5.483 5.483 0 0 1 1.643-2.47c1.337-1.31 2.155-1.47 2.337-2.67zm-26.409 9.03 19.015-12.69c0.554 0.09 4.53 0.72 5.059 0.81-0.455 3-0.3 1.96-0.332 2.19-1.8 1.4-4.127 3.68-4.045 5.97a3.259 3.259 0 0 0 1.357 2.51c2.574 1.92 7.9 0.32 10.923-0.82l0.772 0.71-11.794 7.33-11.869-2.92c-9.067-2.36-9.191-2-9.3-2.6a0.475 0.475 0 0 1 0.217-0.49z"/>
</svg>
