<?xml version="1.0" encoding="UTF-8"?>
<svg viewBox="0 0 79.62 79.62" xmlns="http://www.w3.org/2000/svg">
<defs>
<style>.cls-1 {
        fill: #f45f0b;
        fill-rule: evenodd;
      }</style>
</defs>
<path class="cls-1" transform="translate(-1320.2 -2668.2)" d="m1387 2708a26.97 26.97 0 1 0-26.97 26.97 27 27 0 0 0 26.97-26.97zm-26.97 24.4a24.4 24.4 0 1 1 24.4-24.4 24.42 24.42 0 0 1-24.4 24.4zm-6.42-24.4a6.42 6.42 0 1 0 6.42-6.42 6.427 6.427 0 0 0-6.42 6.42zm10.27 0a3.85 3.85 0 1 1-3.85-3.85 3.858 3.858 0 0 1 3.85 3.85zm-3.85-19.26a19.26 19.26 0 1 0 19.26 19.26 19.282 19.282 0 0 0-19.26-19.26zm14.24 10.58-5.08 1.65a11.513 11.513 0 0 0-5.31-3.86v-5.34a16.724 16.724 0 0 1 10.39 7.55zm-12.96-7.95v7.69l0.97 0.24a8.986 8.986 0 0 1 5.33 3.88l0.53 0.83 7.32-2.37a16.524 16.524 0 0 1 0.78 2.44l-7.31 2.38 0.07 1.15c0.01 0.13 0.02 0.26 0.02 0.39a9.026 9.026 0 0 1-2.05 5.72l-0.64 0.77 4.51 6.21a17.163 17.163 0 0 1-2.08 1.5l-4.51-6.21-0.93 0.37a9.005 9.005 0 0 1-6.58 0l-0.93-0.37-4.51 6.21a16.414 16.414 0 0 1-2.08-1.5l4.51-6.21-0.64-0.77a9.026 9.026 0 0 1-2.05-5.72c0-0.13 0.01-0.26 0.02-0.38l0.07-1.16-7.31-2.38a16.524 16.524 0 0 1 0.78-2.44l7.32 2.37 0.53-0.83a8.971 8.971 0 0 1 5.33-3.87l0.97-0.25v-7.69c0.42-0.03 0.85-0.07 1.28-0.07s0.86 0.04 1.28 0.07zm-5.13 0.4v5.34a11.513 11.513 0 0 0-5.31 3.86l-5.08-1.65a16.724 16.724 0 0 1 10.39-7.55zm-12.85 16.23c0-0.46 0.04-0.9 0.07-1.35l5.08 1.65a11.452 11.452 0 0 0 2.03 6.25l-3.13 4.31a16.564 16.564 0 0 1-4.05-10.86zm10.27 15.4 3.14-4.32a11.515 11.515 0 0 0 6.58 0l3.14 4.32a16.552 16.552 0 0 1-12.86 0zm19.08-4.54-3.13-4.31a11.518 11.518 0 0 0 2.04-6.25l5.07-1.65c0.03 0.45 0.07 0.89 0.07 1.35a16.564 16.564 0 0 1-4.05 10.86zm-12.65-50.67a39.81 39.81 0 1 0 39.81 39.81 39.857 39.857 0 0 0-39.81-39.81zm37.24 39.81c0 0.73-0.02 1.46-0.07 2.18l-5.06-0.72v-2.91l5.06-0.73c0.05 0.72 0.07 1.45 0.07 2.18zm-33.56 29.54h-7.36l-1.06 7.39a36.938 36.938 0 0 1-18.01-7.48l4.47-5.96-5.21-5.21-5.96 4.48a37.012 37.012 0 0 1-7.48-18.02l7.39-1.06v-7.36l-7.39-1.06a36.938 36.938 0 0 1 7.48-18.01l5.96 4.47 5.21-5.21-4.47-5.96a36.938 36.938 0 0 1 18.01-7.48l1.06 7.39h7.36l1.06-7.39a36.938 36.938 0 0 1 18.01 7.48l-4.47 5.96 5.21 5.21 5.96-4.47a36.938 36.938 0 0 1 7.48 18.01l-7.39 1.06v7.36l7.39 1.06a37.012 37.012 0 0 1-7.48 18.02l-5.96-4.48-5.21 5.21 4.47 5.96a36.938 36.938 0 0 1-18.01 7.48zm-40.92-29.54c0-0.73 0.02-1.46 0.07-2.18l5.06 0.73v2.91l-5.06 0.72c-0.05-0.72-0.07-1.45-0.07-2.18zm65.05-24.73-4.08 3.06-2.06-2.06 3.07-4.08a35.7 35.7 0 0 1 3.07 3.08zm-25.63-12.44-0.72 5.06h-2.92l-0.72-5.06c0.72-0.05 1.45-0.07 2.18-0.07s1.46 0.02 2.18 0.07zm-26.91 9.36 3.06 4.08-2.06 2.06-4.08-3.06a34.434 34.434 0 0 1 3.08-3.08zm-3.08 52.55 4.08-3.07 2.06 2.06-3.07 4.08a37.056 37.056 0 0 1-3.07-3.07zm25.63 12.43 0.72-5.06h2.92l0.72 5.06c-0.72 0.05-1.45 0.07-2.18 0.07s-1.46-0.02-2.18-0.07zm26.91-9.36-3.06-4.08 2.06-2.06 4.08 3.06a34.434 34.434 0 0 1-3.08 3.08z"/>
</svg>
