<?xml version="1.0" encoding="UTF-8"?>
<svg viewBox="0 0 80 80.13" xmlns="http://www.w3.org/2000/svg">
<defs>
<style>.cls-1 {
        fill: #f45f0b;
        fill-rule: evenodd;
      }</style>
</defs>
<path class="cls-1" transform="translate(-920.5 -2667.8)" d="m931.39 2729.5a5.337 5.337 0 1 0 7.543 0 5.452 5.452 0 0 0-7.543 0zm5.657 5.66a2.725 2.725 0 0 1-3.771 0 2.67 2.67 0 1 1 3.771 0zm41.508-45.34a6.672 6.672 0 1 0 0 9.44 6.657 6.657 0 0 0 0-9.44zm-1.886 7.55a4 4 0 1 1 0-5.67 3.987 3.987 0 0 1 0 5.67zm9.173 41.25a5.344 5.344 0 0 0 3.772-9.12 5.452 5.452 0 0 0-7.543 0 5.344 5.344 0 0 0 3.771 9.12zm-1.886-7.23a2.667 2.667 0 1 1 3.772 3.77 2.727 2.727 0 0 1-3.772 0 2.666 2.666 0 0 1 0-3.77zm-41.507-41.57a6.672 6.672 0 1 0 9.432 0 6.68 6.68 0 0 0-9.432 0zm7.546 7.55a4 4 0 1 1 0-5.67 3.987 3.987 0 0 1 0 5.67zm35.847 21.21a14.249 14.249 0 0 0-5.044 0.92c-4.134-3.37-9.654-7.92-14.71-12.11l0.666-0.79 3.184 3.18a3.986 3.986 0 0 0 5.657 0l24.517-24.55a1.34 1.34 0 0 0 0-1.89l-15.09-15.11a1.316 1.316 0 0 0-1.885 0l-22.635 22.66-22.637-22.66a1.317 1.317 0 0 0-1.886 0l-15.088 15.11a1.338 1.338 0 0 0 0 1.89l24.515 24.56a4.008 4.008 0 0 0 5.66 0l3.186-3.19 0.667 0.8c-5.2 4.33-10.634 8.8-14.7 12.11a14.337 14.337 0 0 0-5.059-0.93 14.7 14.7 0 1 0 14.671 14.69 14.385 14.385 0 0 0-0.92-5.06c3.175-3.91 7.423-9.08 11.586-14.11 4.015 4.86 8.347 10.13 11.593 14.12a14.439 14.439 0 0 0-0.919 5.05 14.67 14.67 0 1 0 14.671-14.69zm-43.74 13.89a1.356 1.356 0 0 0-0.267 0.8 7.83 7.83 0 0 1-0.855 3.17 6.188 6.188 0 0 1-1.224 1.68 6.673 6.673 0 1 1-9.422-9.44 6.152 6.152 0 0 1 1.713-1.24 7.626 7.626 0 0 1 3.134-0.84 1.4 1.4 0 0 0 0.791-0.27c3.129-2.38 17.812-14.45 27.725-22.79l1.165 1.16c-8.337 9.93-20.391 24.63-22.76 27.77zm19.7-30.83-1.294 1.09-1.3-1.09 1.295-1.29zm11.909 6.26a1.371 1.371 0 0 1-1.884 0l-11.325-11.34a1.338 1.338 0 0 1 0-1.89l14.146-14.16 13.2 13.22zm2.831-29.28 2.829-2.84 13.2 13.23-2.831 2.83zm7.545-7.56 13.2 13.22-2.828 2.84-13.2-13.22zm-39.612 7.56-13.2 13.22-2.828-2.84 13.2-13.22zm-7.547-7.56 2.831 2.84-13.2 13.22-2.827-2.84zm12.261 36.84a1.372 1.372 0 0 1-1.885 0l-14.137-14.18 13.2-13.22 12.262 12.28a4 4 0 0 0 0 5.66zm6.964-3.2 1.167-1.17 1.112 0.93-1.457 1.22c-0.277-0.32-0.55-0.65-0.822-0.98zm-8.982 28.57a12 12 0 1 1-9.447-11.74c-1.3 1.05-2.351 1.89-3.035 2.42a10.477 10.477 0 0 0-3.833 1.09 8.862 8.862 0 0 0-2.4 1.74 9.344 9.344 0 1 0 13.194 13.22 8.809 8.809 0 0 0 1.721-2.37 10.62 10.62 0 0 0 1.116-3.88c0.534-0.68 1.366-1.73 2.413-3.04a12.035 12.035 0 0 1 0.265 2.56zm17.205-23.84c8.685 7.2 18.194 15.02 20.672 16.9a1.4 1.4 0 0 0 0.791 0.27 7.646 7.646 0 0 1 3.171 0.85 6.2 6.2 0 0 1 1.678 1.23 6.672 6.672 0 1 1-9.426 9.43 6.11 6.11 0 0 1-1.239-1.71 7.758 7.758 0 0 1-0.843-3.14 1.3 1.3 0 0 0-0.267-0.79c-1.867-2.47-9.6-11.9-16.671-20.46zm21.472 35.87a12.015 12.015 0 0 1-11.727-14.58c1.046 1.3 1.885 2.35 2.413 3.04a10.478 10.478 0 0 0 1.1 3.83 8.809 8.809 0 0 0 1.734 2.41 9.345 9.345 0 1 0 13.2-13.22 8.889 8.889 0 0 0-2.37-1.72 10.481 10.481 0 0 0-3.867-1.12c-0.679-0.53-1.734-1.37-3.027-2.41a11.516 11.516 0 0 1 2.549-0.28 12.025 12.025 0 0 1-0.011 24.05z"/>
</svg>
