<?xml version="1.0" encoding="UTF-8"?>
<svg viewBox="0 0 64 63" xmlns="http://www.w3.org/2000/svg">
<defs>
<style>.cls-1 {
        fill: #ff9025;
        fill-rule: evenodd;
      }</style>
</defs>
<path class="cls-1" transform="translate(-1297 -7570.9)" d="m1301 7570.9a4.006 4.006 0 0 0-4 3.97v23.85a4.008 4.008 0 0 0 4 3.98h2v8.36l8.42-8.36h29.58a4 4 0 0 0 4-3.98v-23.85a4 4 0 0 0-4-3.97h-40zm0 1.99h40a1.976 1.976 0 0 1 2 1.98v23.85a1.978 1.978 0 0 1-2 1.99h-30.41l-5.59 5.55v-5.55h-4a1.985 1.985 0 0 1-2-1.99v-23.85a1.983 1.983 0 0 1 2-1.98zm2 2.98a1 1 0 1 0 1 0.99 0.994 0.994 0 0 0-1-0.99zm4 0a1 1 0 1 0 1 0.99 0.994 0.994 0 0 0-1-0.99zm4 0a1 1 0 1 0 1 0.99 0.994 0.994 0 0 0-1-0.99zm4 0a1 1 0 1 0 1 0.99 0.994 0.994 0 0 0-1-0.99zm4 0a1 1 0 1 0 1 0.99 0.994 0.994 0 0 0-1-0.99zm4 0a1 1 0 1 0 1 0.99 0.994 0.994 0 0 0-1-0.99zm4 0a1 1 0 1 0 1 0.99 0.994 0.994 0 0 0-1-0.99zm4 0a1 1 0 1 0 1 0.99 0.994 0.994 0 0 0-1-0.99zm4 0a1 1 0 1 0 1 0.99 0.994 0.994 0 0 0-1-0.99zm4 0a1 1 0 1 0 1 0.99 0.994 0.994 0 0 0-1-0.99zm-36 3.97a1 1 0 1 0 0 1.99 1 1 0 1 0 0-1.99zm8 2.98a1 1 0 0 0-0.87 0.5 0.948 0.948 0 0 0 0 1 0.974 0.974 0 0 0 0.87 0.49h24a0.99 0.99 0 0 0 0.88-1.49 1.02 1.02 0 0 0-0.88-0.5h-24zm-8 1a1 1 0 1 0 1 0.99 0.994 0.994 0 0 0-1-0.99zm0 3.97a1 1 0 1 0 1 1 1 1 0 0 0-1-1zm8 0a1 1 0 0 0-0.87 0.5 0.948 0.948 0 0 0 0 1 0.994 0.994 0 0 0 0.87 0.49h24a1.011 1.011 0 0 0 0.88-0.49 0.993 0.993 0 0 0 0-1 1.02 1.02 0 0 0-0.88-0.5h-24zm-8 3.98a0.99 0.99 0 1 0 1 0.99 0.994 0.994 0 0 0-1-0.99zm8 0.99a0.994 0.994 0 0 0-0.87 0.49 0.966 0.966 0 0 0 0 1.01 0.994 0.994 0 0 0 0.87 0.49h13a1 1 0 1 0 0-1.99h-13zm36 0.99v1.99h10a1.978 1.978 0 0 1 2 1.99v23.85a1.978 1.978 0 0 1-2 1.99h-4v5.55l-5.58-5.55h-30.42a1.985 1.985 0 0 1-2-1.99v-16.89h-2v16.89a4.006 4.006 0 0 0 4 3.97h29.59l8.41 8.36v-8.36h2a4 4 0 0 0 4-3.97v-23.85a4.008 4.008 0 0 0-4-3.98h-10zm-44 1.99a1 1 0 1 0 1 1 1 1 0 0 0-1-1zm48 2.98a1 1 0 1 0 0 1.99 1 1 0 1 0 0-1.99zm4 0a1 1 0 1 0 0 1.99 1 1 0 1 0 0-1.99zm-36 7.95a1 1 0 1 0 1 1 1 1 0 0 0-1-1zm8 0a1 1 0 0 0-0.87 0.5 0.948 0.948 0 0 0 0 1 0.994 0.994 0 0 0 0.87 0.49h24a1.011 1.011 0 0 0 0.88-0.49 0.993 0.993 0 0 0 0-1 1.02 1.02 0 0 0-0.88-0.5h-24zm-8 3.98a0.99 0.99 0 1 0 1 0.99 0.994 0.994 0 0 0-1-0.99zm8 0.99a0.994 0.994 0 0 0-0.87 0.49 0.966 0.966 0 0 0 0 1.01 0.994 0.994 0 0 0 0.87 0.49h24a1 1 0 1 0 0-1.99h-24zm-8 2.98a1 1 0 1 0 1 1 1 1 0 0 0-1-1zm8 1.99a0.974 0.974 0 0 0-0.87 0.49 0.948 0.948 0 0 0 0 1 1 1 0 0 0 0.87 0.5h13a1.02 1.02 0 0 0 0.88-0.5 0.99 0.99 0 0 0-0.88-1.49h-13zm-8 1.99a0.99 0.99 0 1 0 1 0.99 0.994 0.994 0 0 0-1-0.99z"/>
</svg>
