<?xml version="1.0" encoding="UTF-8"?>
<!DOCTYPE svg  PUBLIC '-//W3C//DTD SVG 1.1//EN'  'http://www.w3.org/Graphics/SVG/1.1/DTD/svg11.dtd'>
<svg enable-background="new 0 0 42 52.006" version="1.1" viewBox="0 0 42 52.006" xml:space="preserve" xmlns="http://www.w3.org/2000/svg" xmlns:xlink="http://www.w3.org/1999/xlink">

	<defs>
		<rect id="b" x=".81" y="1.003" width="40.38" height="50"/>
	</defs>
	<clipPath id="a">
		<use overflow="visible" xlink:href="#b"/>
	</clipPath>
	<path d="m32.537 39.466h-19.228c-0.53 0-0.961-0.43-0.961-0.962v-1.923c0-0.531 0.431-0.961 0.961-0.961h19.229c0.531 0 0.962 0.43 0.962 0.961v1.923c-1e-3 0.532-0.432 0.962-0.963 0.962" clip-path="url(#a)" fill="#FFC799"/>
	<path d="m38.306 8.7h-1.923v-0.961c0-1.593-1.291-2.884-2.884-2.884h-11.634c-0.528-2.602-3.066-4.284-5.667-3.754-1.891 0.384-3.37 1.862-3.754 3.754h-8.75c-1.593 0-2.884 1.291-2.884 2.884v34.611c0 1.594 1.291 2.885 2.884 2.885h0.961v2.884c0 1.594 1.291 2.885 2.884 2.885h30.766c1.594 0 2.885-1.291 2.885-2.885v-36.535c0-1.593-1.291-2.884-2.884-2.884m-34.612 34.612c-0.531 0-0.961-0.43-0.961-0.962v-34.611c0-0.531 0.431-0.961 0.961-0.961h8.653v1.922h-4.807c-1.593 0-2.884 1.291-2.884 2.884v31.727h-0.962zm35.574 4.806c0 0.532-0.431 0.962-0.962 0.962h-30.766c-0.531 0-0.961-0.43-0.961-0.962v-36.534c0-0.531 0.431-0.961 0.961-0.961h4.807v2.884c0 2.655 2.152 4.807 4.807 4.807s4.808-2.152 4.808-4.807v-0.961c0-1.593-1.292-2.884-2.885-2.884s-2.884 1.291-2.884 2.884v1.923h1.923v-1.923c0-0.531 0.431-0.961 0.961-0.961s0.961 0.431 0.961 0.961v0.961c0 1.593-1.291 2.884-2.884 2.884s-2.884-1.291-2.884-2.884v-7.691c0-1.594 1.291-2.884 2.884-2.884s2.884 1.291 2.884 2.884v0.961h13.46c0.531 0 0.961 0.431 0.961 0.961v0.962h-10.574v1.923h14.421c0.531 0 0.962 0.431 0.962 0.961v36.534z" clip-path="url(#a)" fill="#FF9025"/>
	<rect x="23.885" y="12.546" width="9.614" height="1.923" clip-path="url(#a)" fill="#FF9025"/>
	<rect x="23.885" y="16.392" width="9.614" height="1.923" clip-path="url(#a)" fill="#FF9025"/>
	<rect x="12.347" y="24.083" width="21.152" height="1.923" clip-path="url(#a)" fill="#FF9025"/>
	<rect x="12.347" y="27.929" width="21.152" height="1.923" clip-path="url(#a)" fill="#FF9025"/>
	<rect x="12.347" y="31.774" width="21.152" height="1.923" clip-path="url(#a)" fill="#FF9025"/>

</svg>
