<?xml version="1.0" encoding="UTF-8"?>
<!DOCTYPE svg  PUBLIC '-//W3C//DTD SVG 1.1//EN'  'http://www.w3.org/Graphics/SVG/1.1/DTD/svg11.dtd'>
<svg enable-background="new 0 0 52.098 50.099" version="1.1" viewBox="0 0 52.098 50.099" xml:space="preserve" xmlns="http://www.w3.org/2000/svg" xmlns:xlink="http://www.w3.org/1999/xlink">

	<rect x="4.043" y="44.061" width="1.996" height="3.992" fill="#FFC799"/>
	<rect x="18.016" y="34.082" width="1.996" height="13.972" fill="#FFC799"/>
	<rect x="31.988" y="42.065" width="1.996" height="5.988" fill="#FFC799"/>
	<rect x="45.961" y="26.097" width="1.996" height="21.956" fill="#FFC799"/>
	
		<defs>
			<rect id="b" x=".052" y=".049" width="51.993" height="50"/>
		</defs>
		<clipPath id="a">
			<use overflow="visible" xlink:href="#b"/>
		</clipPath>
		<path d="m19.014 9.63c-0.828 0-1.497 0.669-1.497 1.497 0 0.827 0.669 1.497 1.497 1.497 0.827 0 1.497-0.669 1.497-1.497s-0.67-1.497-1.497-1.497" clip-path="url(#a)" fill="#FF9025"/>
		<path d="m46.959 3.642c-0.827 0-1.497 0.669-1.497 1.497 0 0.827 0.67 1.497 1.497 1.497 0.826 0 1.497-0.67 1.497-1.497 0-0.828-0.671-1.497-1.497-1.497" clip-path="url(#a)" fill="#FF9025"/>
		<path d="m8.036 36.078h-5.989c-1.102 0-1.996 0.895-1.996 1.996v11.976h9.98v-11.976c1e-3 -1.102-0.893-1.996-1.995-1.996m0 3.992h-5.989v-1.996h5.988v1.996zm-5.989 1.995h5.988v5.988h-5.988v-5.988z" clip-path="url(#a)" fill="#FF9025"/>
		<path d="m22.008 26.097h-5.988c-1.102 0-1.996 0.895-1.996 1.996v21.956h9.98v-21.956c0-1.101-0.894-1.996-1.996-1.996m0 3.992h-5.988v-1.996h5.988v1.996zm-5.988 1.996h5.988v15.968h-5.988v-15.968z" clip-path="url(#a)" fill="#FF9025"/>
		<path d="m35.98 34.082h-5.988c-1.102 0-1.996 0.895-1.996 1.996v13.972h9.98v-13.972c1e-3 -1.102-0.894-1.996-1.996-1.996m0 3.992h-5.988v-1.996h5.988v1.996zm-5.988 1.996h5.988v7.983h-5.988v-7.983z" clip-path="url(#a)" fill="#FF9025"/>
		<path d="m49.952 18.113h-5.987c-1.102 0-1.996 0.895-1.996 1.996v29.94h9.979v-29.94c0-1.102-0.894-1.996-1.996-1.996m0 3.992h-5.987v-1.996h5.987v1.996zm-5.987 1.996h5.987v23.952h-5.987v-23.952z" clip-path="url(#a)" fill="#FF9025"/>
		<path d="m45.011 9.729c2.559 1.099 5.525-0.084 6.625-2.645 1.099-2.561-0.085-5.525-2.646-6.625-2.559-1.099-5.524 0.084-6.624 2.645-0.8 1.864-0.406 4.026 1 5.487l-7.723 10.304c-1.8-1.162-4.146-1.018-5.789 0.355l-6.648-5.438c1.512-2.311 0.867-5.409-1.443-6.922-2.31-1.514-5.409-0.869-6.923 1.442-1.009 1.541-1.089 3.511-0.21 5.128l-6.567 5.7c-0.863-0.674-1.926-1.043-3.022-1.047-2.756 0-4.99 2.234-4.99 4.99 0 2.755 2.234 4.99 4.99 4.99s4.99-2.235 4.99-4.99c-5e-3 -0.855-0.233-1.695-0.662-2.435l6.534-5.671c1.694 1.392 4.104 1.496 5.912 0.255l6.773 5.542c-0.384 0.708-0.587 1.502-0.593 2.309-5e-3 2.755 2.225 4.994 4.98 5 2.756 5e-3 4.995-2.226 5-4.981 2e-3 -1.014-0.306-2.003-0.879-2.839l7.915-10.554zm1.948-7.584c1.653 0 2.993 1.34 2.993 2.994s-1.34 2.994-2.993 2.994c-1.654 0-2.994-1.34-2.994-2.994s1.34-2.994 2.994-2.994m-41.917 23.952c-1.654 0-2.994-1.34-2.994-2.994s1.34-2.994 2.994-2.994 2.994 1.34 2.994 2.994-1.34 2.994-2.994 2.994m13.972-11.976c-1.654 0-2.994-1.34-2.994-2.994s1.34-2.994 2.994-2.994 2.994 1.34 2.994 2.994-1.34 2.994-2.994 2.994m13.972 11.976c-1.654 0-2.994-1.34-2.994-2.994s1.34-2.994 2.994-2.994 2.994 1.34 2.994 2.994-1.339 2.994-2.994 2.994" clip-path="url(#a)" fill="#FF9025"/>
	

</svg>
