<?xml version="1.0" encoding="UTF-8"?>
<!DOCTYPE svg  PUBLIC '-//W3C//DTD SVG 1.1//EN'  'http://www.w3.org/Graphics/SVG/1.1/DTD/svg11.dtd'>
<svg enable-background="new 0 0 52 52.234" version="1.1" viewBox="0 0 52 52.234" xml:space="preserve" xmlns="http://www.w3.org/2000/svg" xmlns:xlink="http://www.w3.org/1999/xlink">
<rect x="3" y="40.007" width="3" height="2" fill="#FFC799"/>

	<defs>
		<rect id="b" x="1.112" y="1.118" width="49.776" height="50"/>
	</defs>
	<clipPath id="a">
		<use overflow="visible" xlink:href="#b"/>
	</clipPath>
	<path d="m4.462 48.984c-0.794 0-1.436-0.644-1.436-1.436 0-0.793 0.642-1.437 1.436-1.437h7.658c1.851 0 3.35-1.499 3.35-3.351 0-1.85-1.5-3.35-3.35-3.35h-3.35v1.914h3.35c0.793 0 1.436 0.644 1.436 1.436 0 0.793-0.643 1.437-1.436 1.437h-7.658c-1.851 0-3.351 1.5-3.351 3.351s1.5 3.35 3.351 3.35h13.88v-1.914h-13.88z" clip-path="url(#a)" fill="#FFC799"/>
	<path d="m48.017 4.952h-3.829c-1.586 0-2.872 1.286-2.872 2.872v1.915h-11.487v-1.916c0-0.528-0.429-0.957-0.957-0.957v-1.436c-0.142-2.507-2.278-4.43-4.787-4.307-2.507-0.123-4.644 1.8-4.786 4.307v1.436c-0.528 0-0.957 0.429-0.957 0.957v1.915h-13.401c-2.115 0-3.829 1.714-3.829 3.829s1.714 3.829 3.829 3.829h13.401v0.035c-5.532 4.467-6.396 12.573-1.928 18.105 0.573 0.709 1.219 1.355 1.928 1.928v4.82 0.012c6e-3 0.063 0.019 0.125 0.037 0.184 8e-3 0.065 0.023 0.13 0.043 0.192v0.011l3.159 6.975c0.018 0.038 0.038 0.076 0.061 0.111 0.841 1.345 2.612 1.754 3.958 0.913 0.369-0.231 0.681-0.544 0.914-0.913 0.021-0.036 0.042-0.073 0.06-0.111l3.159-6.975v-0.011c0.021-0.063 0.036-0.127 0.043-0.192 0.023-0.059 0.042-0.12 0.055-0.184v-2.424c0.249-0.03 0.495-0.082 0.734-0.16 5.439-1.838 9.028-7.028 8.828-12.767-0.014-0.375-0.046-0.748-0.096-1.12h2.136c0.342 1.24 1.47 2.098 2.756 2.101h3.829c1.586 0 2.871-1.285 2.871-2.872v-17.231c-1e-3 -1.586-1.286-2.871-2.872-2.871m-29.675 29.89c-3.829-4.187-3.829-10.604 0-14.79v14.79zm0-19.361h-13.401c-1.057 0-1.915-0.857-1.915-1.915 0-1.057 0.858-1.914 1.915-1.914h13.401v3.829zm11.487 7.915c2.236 1.836 2.561 5.137 0.726 7.372-0.218 0.265-0.461 0.508-0.726 0.726v-8.098zm-8.615-17.966c0.145-1.447 1.422-2.512 2.872-2.393 1.45-0.119 2.727 0.946 2.872 2.393v1.436h-5.743v-1.436zm-0.957 3.35h7.657v2.872h-7.657v-2.872zm5.392 38.289h-3.129l-1.737-3.828h6.605l-1.739 3.828zm2.265-5.743h-7.657v-9.572h3.829v-1.914h-3.829v-1.915h3.829v-1.914h-3.829v-1.915h3.829v-1.915h-3.829v-8.615h7.657v18.939c0 0.012 7e-3 0.022 7e-3 0.034-1.441 0.582-2.389 1.977-2.399 3.531-6e-3 1.234 0.588 2.395 1.594 3.11 0.249 0.175 0.517 0.32 0.799 0.434v1.712zm9.311-16.25c0.145 0.638 0.229 1.287 0.255 1.939 0.171 4.889-2.886 9.311-7.52 10.877-1.007 0.333-2.093-0.214-2.425-1.222-0.063-0.191-0.097-0.394-0.098-0.597 0.011-0.831 0.55-1.563 1.341-1.818 3.754-1.262 5.775-5.327 4.514-9.082-0.588-1.75-1.828-3.205-3.463-4.064v-9.457h11.486v12.258h-4.352l0.262 1.166zm11.749-0.023c0 0.529-0.428 0.958-0.957 0.958h-0.957v-5.744h-1.915v5.744h-0.957c-0.529 0-0.957-0.429-0.957-0.958v-17.23c0-0.528 0.428-0.957 0.957-0.957h3.829c0.529 0 0.957 0.429 0.957 0.957v17.23z" clip-path="url(#a)" fill="#FF9025"/>
	<rect x="20.257" y="8.781" width="7.657" height="2.872" clip-path="url(#a)" fill="#FFC799"/>

</svg>
