<?xml version="1.0" encoding="UTF-8"?>
<!DOCTYPE svg  PUBLIC '-//W3C//DTD SVG 1.1//EN'  'http://www.w3.org/Graphics/SVG/1.1/DTD/svg11.dtd'>
<svg enable-background="new 0 0 51.963 51.963" version="1.1" viewBox="0 0 51.963 51.963" xml:space="preserve" xmlns="http://www.w3.org/2000/svg" xmlns:xlink="http://www.w3.org/1999/xlink">

	<defs>
		<rect id="b" x=".981" y=".981" width="50" height="50"/>
	</defs>
	<clipPath id="a">
		<use overflow="visible" xlink:href="#b"/>
	</clipPath>
	<path d="m23.076 46.206c-9.565 0-17.32-7.754-17.32-17.32 0-9.565 7.755-17.319 17.32-17.319s17.32 7.754 17.32 17.319c-0.011 9.562-7.758 17.308-17.32 17.32m0-32.715c-8.502 0-15.396 6.894-15.396 15.395 0 8.503 6.894 15.396 15.396 15.396 8.503 0 15.396-6.893 15.396-15.396-0.011-8.498-6.898-15.386-15.396-15.395" clip-path="url(#a)" fill="#FFC799"/>
	<path d="m41.905 21.536c4.047 10.387-1.092 22.09-11.479 26.138s-22.088-1.091-26.137-11.48c-4.048-10.387 1.091-22.089 11.479-26.137 4.715-1.836 9.947-1.836 14.661 1e-3l0.7-1.792c-11.377-4.436-24.196 1.191-28.631 12.568-4.435 11.376 1.191 24.195 12.569 28.63 11.376 4.437 24.194-1.19 28.631-12.568 2.014-5.164 2.014-10.896 0-16.061l-1.793 0.701z" clip-path="url(#a)" fill="#FF9025"/>
	<path d="m50.897 9.257c-0.208-0.684-0.774-1.198-1.476-1.338l-4.483-0.897-0.896-4.479c-0.21-1.052-1.232-1.734-2.284-1.524-0.376 0.075-0.722 0.26-0.993 0.531l-6.255 6.255c-0.688 0.688-0.986 1.676-0.795 2.631l1.074 5.445-0.904 0.978-2.681 2.61c-5.068-4.097-12.5-3.309-16.597 1.76-4.097 5.07-3.308 12.5 1.761 16.597 5.069 4.098 12.5 3.309 16.596-1.759 3.644-4.51 3.476-10.995-0.399-15.307l3.588-3.589 5.373 1.075c0.956 0.192 1.944-0.107 2.633-0.798l6.255-6.254c0.505-0.507 0.692-1.252 0.483-1.937m-8.742-6.336 0.92 4.603-1.48 1.481-1.024 1.022-0.923-4.619 2.507-2.487zm-6.551 7.137c-0.065-0.325 0.037-0.662 0.27-0.897l2.136-2.117 0.925 4.619-2.502 2.502-0.829-4.107zm-1.944 18.829c0.011 5.855-4.729 10.607-10.583 10.616-5.855 0.011-10.608-4.729-10.618-10.584-0.01-5.854 4.729-10.607 10.584-10.617 2.484-3e-3 4.891 0.865 6.801 2.456l-4.826 4.824c-0.587-0.353-1.258-0.542-1.942-0.544-2.126 0-3.849 1.723-3.849 3.849s1.723 3.849 3.849 3.849c2.125 0 3.848-1.723 3.848-3.849-3e-3 -0.686-0.192-1.356-0.545-1.944l4.825-4.825c1.59 1.898 2.458 4.294 2.456 6.769m-8.659 0c0 1.063-0.862 1.925-1.924 1.925-1.063 0-1.925-0.862-1.925-1.925s0.861-1.924 1.925-1.924c1.062-1e-3 1.924 0.86 1.924 1.924m17.801-12.798c-0.234 0.234-0.569 0.335-0.894 0.271l-4.116-0.824 2.502-2.502 4.634 0.927-2.126 2.128zm3.765-3.767-4.631-0.929 2.44-2.441 0.063-0.064 4.615 0.946-2.487 2.488z" clip-path="url(#a)" fill="#FF9025"/>

</svg>
