<?xml version="1.0" encoding="utf-8"?>
<!-- Generator: Adobe Illustrator 22.1.0, SVG Export Plug-In . SVG Version: 6.00 Build 0)  -->
<svg version="1.1" id="Layer_1" xmlns="http://www.w3.org/2000/svg" xmlns:xlink="http://www.w3.org/1999/xlink" x="0px" y="0px"
	 width="150px" height="150px" viewBox="0 0 150 150" style="enable-background:new 0 0 150 150;" xml:space="preserve">
<style type="text/css">
	.st0{fill:#343433;}
</style>
<g>
	<path class="st0" d="M102.4,67.7h-7.3v-4.9c3.3-1.2,5.8-4.4,5.8-8.1c0-4.8-3.9-8.7-8.7-8.7c-1,0-2,0.1-2.9,0.6c0-0.1,0-0.3,0-0.6
		c0-8.9-7.1-16-16-16c-7.8,0-14.5,5.8-15.7,13.4c-1.9-1.2-3.9-1.7-6.1-1.7c-6.4,0-11.6,5.2-11.6,11.6c0,5.7,3.9,9.1,7.3,10v48
		c0,5.2,3.5,8.7,8.7,8.7h30.5c5.2,0,8.7-3.5,8.7-8.7V104h7.3c5.1,0,10.2-5.1,10.2-10.2v-16C112.5,72.8,107.4,67.7,102.4,67.7z
		 M42.9,53.2c0-4.8,3.9-8.7,8.7-8.7s8.7,3.9,8.7,8.7h2.9c0-2.9-1.2-5.7-2.9-7.7c0.3-7,6-12.6,13.1-12.6c7.3,0,13.1,5.8,13.1,13.1
		c0,2.9-0.9,5.5-2.6,7.8l2.3,1.7c1.3-1.7,2.2-3.6,2.6-5.5c1-0.7,2.2-1.2,3.5-1.2c3.2,0,5.8,2.6,5.8,5.8c0,3.2-2.6,5.8-5.8,5.8H77.7
		v16c0,1.6-1.3,2.9-2.9,2.9c-1.6,0-2.9-1.3-2.9-2.9v-16H48.7C46.6,60.5,42.9,58,42.9,53.2z M109.6,93.9c0,3.5-3.8,7.3-7.3,7.3H92.2
		v10.2c0,3.6-2.2,5.8-5.8,5.8H55.9c-3.6,0-5.8-2.2-5.8-5.8V63.4H53v45c0,3.5,2.3,5.8,5.8,5.8v-2.9c-1.9,0-2.9-1-2.9-2.9v-45H69v13.1
		c0,3.2,2.6,5.8,5.8,5.8s5.8-2.6,5.8-5.8V63.4h5.8v45c0,1.9-1,2.9-2.9,2.9v2.9c3.5,0,5.8-2.3,5.8-5.8v-45h2.9v7.3h10.2
		c3.5,0,7.3,3.8,7.3,7.3V93.9z"/>
	<path class="st0" d="M100.9,73.5h-8.7v24.7h8.7c1.9,0,3.3-0.6,4.4-1.6c1-1,1.5-2.5,1.5-4.2V79.4C106.7,75.7,104.5,73.5,100.9,73.5z
		 M103.8,92.4c0,1-0.1,1.7-0.6,2.2c-0.4,0.4-1.3,0.7-2.3,0.7h-5.8V76.5h5.8c2,0,2.9,0.9,2.9,2.9V92.4z"/>
	<rect x="61.7" y="111.3" class="st0" width="13.1" height="2.9"/>
	<rect x="77.7" y="111.3" class="st0" width="2.9" height="2.9"/>
	<path class="st0" d="M73.3,38.7v-2.9c-5.7,0-10.2,4.5-10.2,10.2h2.9C66.1,41.9,69.3,38.7,73.3,38.7z"/>
	<path class="st0" d="M51.6,46c-4.1,0-7.3,3.2-7.3,7.3h2.9c0-2.5,1.9-4.4,4.4-4.4V46z"/>
</g>
</svg>
