<?xml version="1.0" encoding="utf-8"?>
<!-- Generator: Adobe Illustrator 22.1.0, SVG Export Plug-In . SVG Version: 6.00 Build 0)  -->
<svg version="1.1" id="Layer_1" xmlns="http://www.w3.org/2000/svg" xmlns:xlink="http://www.w3.org/1999/xlink" x="0px" y="0px"
	 width="150px" height="150px" viewBox="0 0 150 150" style="enable-background:new 0 0 150 150;" xml:space="preserve">
<style type="text/css">
	.st0{fill:#333333;}
</style>
<g>
	<path class="st0" d="M82.3,62.1V32.9c0-1.6-1.3-2.9-2.9-2.9h-8.7c-1.6,0-2.9,1.3-2.9,2.9v29.2c-5.7,0.7-8.7,5.4-8.7,10v43.5
		c0,2.5,1.9,4.4,4.4,4.4h23.2c2.5,0,4.4-1.9,4.4-4.4V72.1C91,67.5,87.9,62.7,82.3,62.1z M79.4,32.9v5.8h-8.7v-5.8H79.4z M69.2,64.8
		h1.5V41.6h8.7v23.2h1.5c4.9,0,7.3,3.8,7.3,7.3v4.4H66.3v-4.4c0-1.3,0.7-2.9,2.9-2.9v-2.9c-3.8,0-5.8,2.9-5.8,5.8v4.4h-1.5v-4.4
		C61.9,68.6,64.3,64.8,69.2,64.8z M66.3,86.6v-7.3h21.8v26.1H61.9V79.4h1.5v7.3H66.3z M86.6,117.1H63.4c-0.9,0-1.5-0.6-1.5-1.5v-7.3
		h26.1v7.3C88.1,116.5,87.5,117.1,86.6,117.1z"/>
	<rect x="73.5" y="99.7" class="st0" width="2.9" height="2.9"/>
	<rect x="79.4" y="99.7" class="st0" width="2.9" height="2.9"/>
	<rect x="67.7" y="99.7" class="st0" width="2.9" height="2.9"/>
</g>
</svg>
