<?xml version="1.0" encoding="utf-8"?>
<!-- Generator: Adobe Illustrator 22.1.0, SVG Export Plug-In . SVG Version: 6.00 Build 0)  -->
<svg version="1.1" id="Layer_1" xmlns="http://www.w3.org/2000/svg" xmlns:xlink="http://www.w3.org/1999/xlink" x="0px" y="0px"
	 width="150px" height="150px" viewBox="0 0 150 150" style="enable-background:new 0 0 150 150;" xml:space="preserve">
<style type="text/css">
	.st0{fill:#333333;}
</style>
<g>
	
		<rect x="67.8" y="47.4" transform="matrix(1.459458e-03 -1 1 1.459458e-03 14.4364 123.7955)" class="st0" width="2.9" height="14.5"/>
	<path class="st0" d="M87.5,73.8c-0.4-0.3-0.7-1-0.9-1.7c-0.1-1.3,0.3-2.6,1-3.3c3.2-3.2,4.8-5.2,4.8-8.3v-8.7c0-4.5-3-6.7-6.1-7.3
		c0.1-0.4,0.3-0.9,0.3-1.5v-1.5c0-2.2-2.2-4.4-4.4-4.4h-2.9v-4.4h1.5V30H69.2v2.9h1.5v4.4h-2.9c-2.2,0-4.4,2-4.4,4.4v1.5
		c0,0.6,0.1,1,0.3,1.5c-3,0.6-6.1,3-6.1,7.3v8.7c0,3.3,1.9,5.4,4.8,8.3c0.7,0.7,1.2,1.9,1,3.2c-0.1,1-0.4,1.6-0.9,1.9
		c-4.5,3-6.2,6-6.4,11.3c0,0.4,0,23.1,0,27.6c0,4.8,2.5,7.3,7.3,7.3h23.2c4.8,0,7.3-2.5,7.3-7.3V85.2C93.9,80.2,92,76.9,87.5,73.8z
		 M73.5,32.9h2.9v4.4h-2.9V32.9z M66.3,41.6c0-0.6,0.9-1.5,1.5-1.5h14.5c0.6,0,1.5,0.9,1.5,1.5v1.5c0,0.6-0.9,1.5-1.5,1.5H67.7
		c-0.6,0-1.5-0.9-1.5-1.5V41.6z M64.3,76.2c1.2-0.7,1.9-2.2,2-3.9c0.1-2-0.4-4.2-1.9-5.5c-2.9-2.9-3.9-4.1-3.9-6.2v-8.7
		c0-2.9,2.2-4.4,4.4-4.4h2.9h14.5h2.9c2,0,4.4,1.2,4.4,4.4v8.7c0,1.7-1,3.2-3.9,6.2c-1.3,1.3-2,3.5-1.9,5.7c0.1,1.7,0.9,3,2,3.9
		c3.8,2.5,5.2,4.8,5.2,8.9H59C59.2,80.8,60.5,78.8,64.3,76.2z M59,88.1H91v18.9H59C59,100.3,59,92.3,59,88.1z M86.6,117.1H63.4
		c-3.2,0-4.4-1.2-4.4-4.4c0-0.9,0-1.9,0-2.9H91v2.9C91,115.9,89.8,117.1,86.6,117.1z"/>
	<rect x="79.4" y="53.2" class="st0" width="2.9" height="2.9"/>
	
		<rect x="85.2" y="53.2" transform="matrix(7.286421e-03 -1 1 7.286421e-03 31.3285 140.8856)" class="st0" width="2.9" height="2.9"/>
	<polygon class="st0" points="74.1,95.3 77.5,92 75.4,90 67.2,98.2 75.3,98.2 69.8,102.9 71.5,105.2 83.4,95.3 	"/>
</g>
</svg>
