<?xml version="1.0" encoding="utf-8"?>
<!-- Generator: Adobe Illustrator 22.1.0, SVG Export Plug-In . SVG Version: 6.00 Build 0)  -->
<svg version="1.1" id="Layer_1" xmlns="http://www.w3.org/2000/svg" xmlns:xlink="http://www.w3.org/1999/xlink" x="0px" y="0px"
	 width="150px" height="150px" viewBox="0 0 150 150" style="enable-background:new 0 0 150 150;" xml:space="preserve">
<style type="text/css">
	.st0{fill:#333333;}
</style>
<g>
	<path class="st0" d="M90.1,95.6c-1.2-2-2-3.5-2-6.1c0-3.2,0.6-5.2,1.3-7.4c0.7-2.5,1.6-5.2,1.6-10c0-9.3-3.5-13.6-6-16.8
		c-2.3-3-2.8-10.2-2.8-13.8c1.5-0.4,2.9-1.7,2.9-4.1c0-1.6-1.3-5.5-1.6-6.2L83.4,30H66.6l-0.3,1c-0.3,0.7-1.5,4.6-1.5,6.2
		c0,2.5,1.5,3.6,2.9,4.1c0,3.6-0.4,10.7-2.9,13.8c-2.3,3.3-5.8,7.7-5.8,17c0,4.8,0.9,7.5,1.6,10c0.7,2.2,1.3,4.2,1.3,7.4
		c0,2.6-0.9,4.1-2,6.1c-1.6,3-3.8,6.8-3.8,15.7c0,5.1,3.6,8.7,8.7,8.7h20.3c5.1,0,8.7-3.6,8.7-8.7C93.9,102.4,91.7,98.7,90.1,95.6z
		 M67.2,57c3.9-4.9,3.5-16.4,3.5-16.8v-1.3l-1.5-0.1c-0.7,0-1.5-0.3-1.5-1.5c0-0.7,0.6-2.8,1-4.4h12.5c0.6,1.6,1,3.6,1,4.4
		c0,1.2-0.9,1.5-1.5,1.5h-1.5v1.5c0,0.4-0.4,12,3.5,16.8c1.5,1.9,3.3,4.2,4.4,7.8H63C64,61.2,65.7,59,67.2,57z M62.2,67.7h25.5
		c0.1,1.3,0.3,2.8,0.3,4.4c0,3.2-0.4,5.4-0.9,7.3H62.8c-0.4-1.9-0.9-4.1-0.9-7.3C61.9,70.5,62.1,69,62.2,67.7z M85.2,117.1H64.8
		c-3.5,0-5.8-2.3-5.8-5.8c0-8.1,1.9-11.3,3.5-14.2c1.2-2.2,2.3-4.2,2.3-7.5c0-3.2-0.6-5.2-1.2-7.3h22.5c-0.6,2-1.2,4.1-1.2,7.3
		c0,3.3,1.2,5.4,2.3,7.5c1.6,2.9,3.5,6.1,3.5,14.2C91,114.8,88.6,117.1,85.2,117.1z"/>
	<rect x="72.1" y="38.7" class="st0" width="5.8" height="2.9"/>
	<path class="st0" d="M65.7,96.2c-1.7,3.5-3.8,7.7-3.8,16.5h2.9c0-8.1,1.9-11.9,3.5-15.2c0.3-0.6,0.6-1,0.7-1.6l-2.6-1.2
		C66.3,95.2,66,95.8,65.7,96.2z"/>
	<path class="st0" d="M67.9,88.6c0,0,1.2,2.3,0,4.5l2.6,1.3c1.7-3.5,0-7,0-7.1L67.9,88.6z"/>
	<rect x="73.5" y="72.1" class="st0" width="2.9" height="2.9"/>
	<rect x="79.4" y="72.1" class="st0" width="2.9" height="2.9"/>
	<rect x="67.7" y="72.1" class="st0" width="2.9" height="2.9"/>
</g>
</svg>
