<?xml version="1.0" encoding="utf-8"?>
<!-- Generator: Adobe Illustrator 22.1.0, SVG Export Plug-In . SVG Version: 6.00 Build 0)  -->
<svg version="1.1" id="Layer_1" xmlns="http://www.w3.org/2000/svg" xmlns:xlink="http://www.w3.org/1999/xlink" x="0px" y="0px"
	 width="150px" height="150px" viewBox="0 0 150 150" style="enable-background:new 0 0 150 150;" xml:space="preserve">
<style type="text/css">
	.st0{fill:#333333;}
</style>
<g>
	<path class="st0" d="M86.6,92.4c0-3.8,0.9-7.1,2.8-11c0.9-1.9,1.7-3.5,2.6-5.1c3.8-7.1,6.2-11.8,6.2-21.8c0-4.4-2.8-22.6-2.9-23.5
		l-0.1-1H54.8l-0.1,1.2c-0.1,0.9-2.9,19.2-2.9,23.5c0,9.9,2.5,14.7,6.2,21.8c0.9,1.6,1.7,3.2,2.6,5.1c1.9,3.8,2.8,7.1,2.8,10.9
		c0,9.7-5.7,22.5-5.7,22.6c-0.6,1.3-0.6,2.6,0.1,3.6c0.4,0.9,1.5,1.3,2.6,1.3h29c1.2,0,2.2-0.4,2.6-1.3c0.6-1,0.7-2.3,0.1-3.6
		C92.3,114.9,86.6,102.1,86.6,92.4z M57.4,32.9h29.2h6c0.1,0.6,0.1,1.3,0.3,2.2c-1.6-1.3-3.8-2.2-6.2-2.2c-4.1,0-7.5,2.5-9.1,5.8
		c-1-0.9-2.5-1.5-3.9-1.5c-1.6,0-2.9,0.6-3.9,1.6c-1.6-2.6-4.4-4.5-7.7-4.5c-1.9,0-3.6,0.6-5.1,1.6C57.1,34.6,57.3,33.6,57.4,32.9z
		 M56,43.1h0.1c0-3.2,2.6-5.8,5.8-5.8s5.8,2.6,5.8,5.8h2.9c0-1.6,1.3-2.9,2.9-2.9c1.6,0,2.9,1.3,2.9,2.9h2.9c0-4.1,3.2-7.3,7.3-7.3
		c4.1,0,7.3,3.2,7.3,7.3H94c0.1,1,0.3,1.9,0.4,2.9H55.5C55.7,45,55.8,44.1,56,43.1z M66.3,92.4c0-4.4-0.9-8-3-12.2
		c-0.9-1.9-1.9-3.6-2.6-5.1c-3.8-7.1-6-11.3-6-20.5c0-1.2,0.1-3.2,0.4-5.8h39.6c0.3,2.6,0.4,4.6,0.4,5.8c0,9.1-2.2,13.4-6,20.3
		c-0.9,1.6-1.7,3.2-2.6,5.1c-2,4.4-2.9,8-2.9,12.3c0,6.5,2.3,14.1,3.9,18.9H62.4C64,106.5,66.3,99,66.3,92.4z M89.8,117.1
		c0,0-0.1,0-0.3,0h-29c-0.1,0-0.3,0-0.3,0s-0.1-0.3,0.1-0.9c0-0.1,0.4-0.9,0.9-2h27.6c0.4,1.2,0.7,1.9,0.9,2
		C89.8,116.7,89.8,117,89.8,117.1z"/>
	<rect x="60.5" y="57.6" class="st0" width="2.9" height="2.9"/>
	<rect x="66.3" y="69.2" class="st0" width="2.9" height="2.9"/>
	<rect x="69.2" y="75" class="st0" width="2.9" height="2.9"/>
	<rect x="66.3" y="105.5" class="st0" width="2.9" height="2.9"/>
	<rect x="69.2" y="98.2" class="st0" width="2.9" height="2.9"/>
</g>
</svg>
