<svg xmlns="http://www.w3.org/2000/svg" width="660.994" height="345.098" viewBox="0 0 660.994 345.098"><path d="M2090.327,362.756s27.415,74.569,50.605,87.182,124.8,68.545,124.8,68.545,16.928,13.857,35.763-4.574,21.262-18.211,34.437-13.153,62.473,28.093,68.781,49.348-49.194,13.22-24.84,34.125,68.793,47.784,98.6,35.5,1.24-75.286,40.243-95.845,61.265-43.791,0-51.354-52.415-13.57-48.7-51.885,28.433-38.1,26.084-105.263,123.819-12.879,131.641,7.639-14,126.181,9.421,135.543S2745.327,478.3,2745.327,478.3" transform="translate(-2087.118 -280.277)" fill="none" stroke="#e36cf8" stroke-linecap="round" stroke-width="5"/></svg>