<svg xmlns="http://www.w3.org/2000/svg" width="170.765" height="200" viewBox="0 0 170.765 200"><path d="M60.66,190.913c-.124-2.1.012-5.442.071-7.54.085-3.022-.1-6.416-.213-9.4-.143-3.827-1.066-8.791-1.134-12.644a54.87,54.87,0,0,1,.262-6.324.152.152,0,0,1,.01.02c-.005.015,0,.033.016.063a.158.158,0,0,0-.016-.063c.012-.032.063-.042.036-.1.008-.006.017,0,.026.01s.024.023.03-.005c-.023-.044-.064-.034-.1,0,.01-.112.019-.223.031-.335l.027.165a.588.588,0,0,0-.025-.2q.024-.253.049-.507h0a.354.354,0,0,1,0,.334c.035.08.036.041.042.005s.014-.057.044-.034c.005-.1-.027-.161-.022-.316a.06.06,0,0,0-.03-.005c-.013,0-.021,0-.031-.024l.016-.167c.025-.014.051-.017.055-.031.006.024.005.051.012.074.035-.077-.011-.13,0-.222.1.018-.005.155.051.215l.077-.036c.025-.139-.076-.074-.034-.212l.033.034-.012-.1c-.036-.017-.093-.021-.094.062-.089-.094-.005-.079-.013-.214-.042-.056-.016.019-.039.032l.02-.213c.008,0,.014,0,.021,0,.007.024.007.108-.023.086.023.082.055.074.085.064s.048-.014.062.035c.041-.088-.027-.111-.037-.174a.1.1,0,0,0,0-.041.082.082,0,0,0,0,.041c-.005.016-.02.005-.036-.007s-.027-.019-.036-.012a.411.411,0,0,1-.027-.06l.007-.073c.039-.022.131,0,.126-.106-.047,0-.075-.069-.1-.128l.015-.158.031.058c.05-.048.1-.14.135-.162-.019-.1-.063,0-.069-.107.03.049.063,0,.065-.046-.032.079-.089-.037-.1-.1.006-.088.072-.134.086-.115l.037.088c-.019-.052.034,0,.022-.072-.033-.034-.084-.1-.126-.138-.01-.063.039-.083.033-.107l.03.106c0-.061.022-.058.045-.055s.047.007.041-.06l-.047-.052a.023.023,0,0,1,.04-.006c-.02-.035-.012-.09-.02-.12l.033.006c-.017-.059-.083-.153-.013-.186-.083.014-.007.06-.05.132-.063.028-.047-.108-.054-.132.084.041.02-.126.027-.186.032-.023.049-.047.069-.061l-.054-.047c.11.023-.013-.131.027-.186.03.049.072.063.093.021-.079.028-.091-.108-.133-.14l0-.03c.021-.021.046.007.073.035s.046.047.069.042c-.057-.087.052-.121-.024-.194-.033.078-.05-.036-.084-.069.008-.06.018-.045.03-.03s.023.025.04,0c-.006-.046-.05-.113-.08-.086.005-.064.009-.129.015-.193.019.033,0,.128.032.1a.137.137,0,0,0-.031-.119l.01-.137c.017.024.035.036.057.022l-.024-.081c.024.025.067.066.093.047-.06-.042,0-.168-.014-.186s-.022,0-.018.015.008.032-.011.019c-.006-.058-.05-.11-.058-.173v-.025a.138.138,0,0,1,.008-.05c.018.045.04.04.06.034s.029-.007.04.008c.026-.046-.059-.041-.024-.108l.03.021a2.195,2.195,0,0,0-.047-.958v-.014c.053-.028.065-.119.112-.25-.023.058-.054-.018-.058-.058l.064-.047c.041-.073-.007-.207-.035-.3a.064.064,0,0,1,.046-.006c.045-.061-.028-.092-.039-.127l.047-.034-.041-.027c-.019-.086,0-.185.066-.149-.011-.035-.021-.069-.044-.038a.864.864,0,0,0,.048-.42c-.021.059-.042.046-.085.035l-.01-.008,0-.091c.023-.007.047-.029.058.033.107-.15.051-.437.086-.662-.008-.051-.02-.041-.037-.07.084-.119.019-.328.063-.474-.031.025-.113-.057-.108-.145-.03-.065,0-.061.039-.057s.069.008.088-.025a.347.347,0,0,1-.019-.169l.009.007a.253.253,0,0,1-.007-.207l0,.011c.008-.05.051-.095.05-.152-.055-.044-.014-.163-.06-.213,0,0,.005,0,.008,0a.014.014,0,0,0,.014,0l-.047-.022.033-.1a.4.4,0,0,1,.049.079c.038-.1-.041-.055-.064-.124-.029-.092.017-.071.04-.1.021.041-.015.054-.008.078s.023.013.027-.008.007-.03.018-.026c0-.017-.054-.045-.04-.1s0-.173.051-.141c-.025-.053-.017-.1-.037-.143-.012.037-.029.109-.063.106,0-.041-.014-.119.009-.123l.011.035c-.011-.035.01-.139-.041-.1l.071-.054c-.038-.043-.03-.121-.036-.189.053.016.108.089.127-.027l-.047-.122c0-.057.01-.066.041-.047.039-.174-.135-.24-.08-.371.059.084.068.034.089-.025a.055.055,0,0,1-.031-.047c-.03.008.041.053,0,.089-.04,0-.023-.069-.033-.1.141-.083.056-.421.132-.61-.076-.011-.017-.1-.042-.154.079.039-.006-.124.045-.165l-.08.006c.052-.113-.1-.249-.008-.3.028-.064.055.044.066.078.09-.071-.053-.289.043-.338-.03-.019-.083-.007-.1-.1.036-.058.086-.184.1-.166-.011-.063-.036-.086,0-.14.02.012.021.041.029.063a.559.559,0,0,0-.027-.282c.064-.035.041-.221.078-.325-.07-.088.035-.176-.054-.216.01,0,.02-.007.026-.011-.025-.052-.085-.107-.087-.162l.061.036c.072.036.029-.123.054-.15-.041.017.008-.066-.037-.085l-.017-.07c-.013-.108-.03-.023-.034-.152,0-.074.072,0,.063.021a.249.249,0,0,0,.007-.186v-.008a.235.235,0,0,0,.009-.064s0-.008,0-.016a.084.084,0,0,1,.014-.051l.047.033a.354.354,0,0,0-.067-.186,1.64,1.64,0,0,0,0-.583c.01.026.025.032.009.005-.007-.064-.046-.143-.014-.14-.018-.064.036-.043.043-.131,0,0,0,0-.009-.007a.059.059,0,0,0-.027-.006c.067-.13-.035-.351.015-.515a.313.313,0,0,0,.045.063,1.732,1.732,0,0,0-.087-.426c.021.019.042.021.053.058a.481.481,0,0,0-.048-.27c-.025.058.026.012.023.055-.047.057-.086-.08-.072-.141l.01,0c0-.1-.023-.109-.02-.2.017-.029.018-.008.022.013s.007.032.021.026c.078,0,.058-.2.067-.222-.016-.028-.027-.065-.048-.067-.018-.082.047-.021.045-.075l-.136-.247c.007,0,.018,0,.03-.006s.046-.017.061.028a1.045,1.045,0,0,0-.14-.386,1.547,1.547,0,0,0-.016-.259c.041-.013,0,.045.028.065l.05-.066c0,.059.025.055.049.051s.04-.008.052.022a1.429,1.429,0,0,1,.025-.406c-.091.063-.04-.18-.118-.2-.008-.1.02-.093.046-.091s.03,0,.038-.016a3.14,3.14,0,0,1-.008-.443.023.023,0,0,1,.016.01,1.781,1.781,0,0,0-.061-.483c.015.01.031,0,.042.04.031-.13-.1-.053-.05-.2l.039.047c-.036-.109.039-.183-.019-.312.021,0,.028.029.039.048a1,1,0,0,0-.054-.323c.025-.007.047.013.063.058.033-.094-.068-.129-.04-.215,0-.022.03-.056.038-.054a1.157,1.157,0,0,1-.039-.248c.025-.007.035-.041.063-.092a10.285,10.285,0,0,0-.04-1.561c.041-.036.053,0,.062.041s.015.069.041.05c-.068-.014-.019-.091-.041-.252l.01,0c-.014-.069.03-.1.009-.173l-.018,0c-.045-.087.088-.148,0-.208l.049-.047c-.078-.092.025-.113-.039-.22l.014.014c.035-.115-.083-.278-.021-.31-.01-.108-.025-.235-.086-.268.024-.018.06.005.08.025a9.134,9.134,0,0,0-.09-1.21c.013-.015.024.009.036.023-.069-.235.078-.433-.058-.624h0c0-.041.005-.087.008-.128.005-.005.011-.006.015-.013a.08.08,0,0,1-.011-.032c.149-1.569.551-2.572.985-2.362.335.162.747-.1.576,6.428,0,.138,0,.272-.006.408,0-.006-.006-.015-.011-.014,0,.08,0,.119.009.124l-.006.409-.058.095c-.022.319.077.119.039.44l-.034-.053.014.217a.054.054,0,0,0,.029,0l-.006.4c-.015.01-.029.005-.039-.06a.492.492,0,0,0,.035.311c0,.161,0,.323-.008.483a.445.445,0,0,0-.013.139s.008,0,.011,0c0,.221-.008.44-.01.66a1.885,1.885,0,0,1-.071.227c.011.1.026.092.04.087s.019-.008.025.025v.065c-.028-.047-.054.059-.057.149.014-.09.035-.084.055-.044,0,.157-.006.316-.008.474-.013.025-.024.037-.029.026l-.038-.166c.019.1-.034.03-.021.167.023.036.054.095.085.152l0,.213-.015-.1c.007.266-.1.023-.083.3l.048.086c-.007.039-.024.059-.039.038a1.92,1.92,0,0,1,.022.246l-.033.008c.018.118.086.282.018.4.082-.08.005-.135.047-.314.011-.019.019-.013.025-.007l-.005.283a.509.509,0,0,0,0,.152c0,.1,0,.2-.005.3-.018.047-.031.091-.047.122l.044.057v.019c-.07.027-.012.19-.006.324v.048a.287.287,0,0,1,0,.04c-.031-.089-.075-.091-.093.011.05-.07.073.035.095.128l0,.195c-.032-.042-.069-.152-.1-.114.058.155-.05.291.029.406.026-.16.044-.018.069.063l0,.137c-.014-.008-.03-.094-.052.014a.323.323,0,0,0,.048.157l0,.187s-.005,0-.009.009a.717.717,0,0,0,.007.146c0,.12,0,.24-.005.36-.01,0-.02,0-.032.025l.025.162c-.023-.041-.068-.1-.094-.049.061.058.005.364.019.4s.022-.01.018-.045-.008-.065.011-.047a1.188,1.188,0,0,0,.043.221l0,.257c-.015-.034-.031-.019-.047-.005s-.029.028-.041,0c-.025.117.061.057.026.224l-.03-.03a9.763,9.763,0,0,0,.068,2.048v.029a2.623,2.623,0,0,0-.106.609c.021-.14.054.008.059.091l-.064.141a1.949,1.949,0,0,0,.042.632.062.062,0,0,1-.046.038c-.044.159.03.185.041.254l-.045.1.041.036c.019.176,0,.4-.064.359.012.071.023.14.044.059a4.379,4.379,0,0,0-.038.937c.018-.127.036-.126.071-.125h.013A.083.083,0,0,1,62,147.9v.031a.19.19,0,0,0,0,.134c-.009,0-.019.011-.027.024s-.036.054-.047-.049a9.506,9.506,0,0,0-.072,1.482c.01.106.022.078.04.132a9.113,9.113,0,0,0-.052,1.063c.032-.072.114.058.112.252.055.224-.086.067-.125.25a1.44,1.44,0,0,1,.023.356l-.009-.008a1.107,1.107,0,0,1,.012.445l0-.023c-.008.112-.049.235-.047.356.056.065.017.348.065.428,0,.005-.005,0-.008,0s-.008,0-.015.016l.047.019-.03.231a.769.769,0,0,1-.051-.141c-.036.246.043.094.067.233.031.182-.015.163-.036.244-.023-.077.013-.127,0-.172-.022-.065-.023-.015-.026.035,0,.034-.006.067-.017.067,0,.036.055.065.041.191s0,.376-.047.334c.025.1.019.213.04.289.012-.089.028-.253.061-.266a.868.868,0,0,1-.007.272l-.012-.069c.012.069-.008.307.041.19l-.069.16a1.293,1.293,0,0,1,.041.387c-.053,0-.11-.129-.127.134l.05.237c0,.121-.009.149-.04.124-.036.4.139.445.086.759-.06-.147-.068-.035-.086.108.01.008.03.025.032.085.029-.037-.042-.093,0-.2.039-.029.024.136.035.2a7.873,7.873,0,0,0-.119,1.4c.076-.019.019.211.046.311-.079-.041.01.263-.04.382l.078-.058c-.049.277.11.478.014.64-.025.156-.056-.063-.067-.13-.088.207.059.6-.036.759.03.024.082-.036.108.161a3.045,3.045,0,0,1-.095.417.691.691,0,0,1,.008.3c-.019-.015-.021-.075-.03-.121a2.3,2.3,0,0,0,.034.6,4.475,4.475,0,0,0-.071.749c.071.15-.031.4.058.436-.009,0-.02.026-.025.038a1.184,1.184,0,0,1,.091.3l-.061-.045c-.073-.035-.027.286-.051.356.041-.063-.006.148.038.163l.019.143c.014.227.031.029.037.307,0,.158-.072.047-.064-.008a1.189,1.189,0,0,0,0,.406v.019a1.114,1.114,0,0,0-.008.142.1.1,0,0,0,0,.037.443.443,0,0,1-.014.119l-.048-.042a1.018,1.018,0,0,0,.072.364,7.646,7.646,0,0,0,.01,1.265c-.01-.052-.026-.058-.01-.008.008.132.049.282.018.293.019.129-.035.115-.041.311-.007,0,.023.019.036.006-.063.322.044.74,0,1.126a.455.455,0,0,0-.045-.111l0-.036c-.013,0-.008.013,0,.036a6.682,6.682,0,0,0,.1.873c-.022-.031-.042-.024-.054-.1a1.84,1.84,0,0,0,.054.558c.013-.078,0-.074-.007-.071s-.019.006-.017-.037c.044-.149.086.125.075.263l-.01,0c0,.211.025.222.025.433-.017.069-.019.026-.023-.017s-.008-.068-.021-.046c-.079.047-.053.479-.063.522.017.052.03.124.05.117.019.165-.046.073-.043.188l.108.35c0,.048,0,.095,0,.143-.02.029-.042.052-.058-.03a1.935,1.935,0,0,0,.055.409c0,.231,0,.461,0,.693l0,.156c-.024.014-.053.071-.071,0a7.068,7.068,0,0,1-.015.892c.08-.17.051.266.1.343l0,.214c-.021.041-.055.007-.067.082.031.334.01.652.019.956,0,0-.011,0-.016-.013a7.349,7.349,0,0,0,.072,1.01c-.016-.012-.032.014-.044-.059-.018.188.026.163.05.2,0,.063,0,.126,0,.19l-.035-.07c.038.215-.035.418.025.663-.021.009-.028-.046-.04-.08.014.166.012.347.032.507,0,.053,0,.108-.005.161a.234.234,0,0,1-.03-.087.477.477,0,0,0,.027.25c0,.109-.009.217-.014.325,0,0,0,.007,0,.007s0,.016,0,.023c-.02.483-.048.962-.09,1.431-.116,1.33-.216,2.476-.22,2.613-.119,3.891.062,7.832-.2,11.636-.073,1.053-.094,6.036-.273,7.118C60.607,198.17,60.785,193,60.66,190.913Zm1.133-17.923.063-.024-.063-.014Zm-.173-4.952c.005-.021.054.02.035-.108,0,.08-.009.073-.019.066a.015.015,0,0,0-.008,0C61.624,167.992,61.62,168,61.62,168.038Zm.126-9.481.017-.107-.03-.022Zm-1.89-4.478c.014.019.019.042.036.045,0-.04,0-.062-.011-.062S59.867,154.067,59.857,154.079Zm-.066-.068c.027.019.03-.006.03-.032a.171.171,0,0,1,0-.031A.081.081,0,0,0,59.791,154.011Zm.2-1.093c.043.041-.009-.091.017-.109C59.972,152.819,59.992,152.89,59.992,152.918Zm0-.592a.058.058,0,0,1,0,.044h.04c0-.022-.012-.053-.026-.053A.014.014,0,0,0,60,152.326Zm.567-9.623.03.019-.011-.063Zm.183-4.008c.014.005.008,0,0-.017Zm.023-.312c0-.037.008-.031.019-.025s.017.01.017-.015c0,0-.007,0-.014,0h-.009C60.77,138.342,60.759,138.348,60.769,138.384Zm1.307-1.19c0,.059.022.14.038.076a.289.289,0,0,1,0-.1Zm.015-.963c.036-.044.015-.185.014-.246,0-.007-.008-.01-.011-.01C62.073,135.974,62.115,136.182,62.091,136.231Zm-1.407-.187v-.018l-.063-.005Zm1.045,30.191a.032.032,0,0,1-.006.028Zm0-4.14h0Zm-1.1-21.054h0Zm.041-1.669c0,.01,0,.022.007.037A.111.111,0,0,1,60.673,139.372Zm.011-.241-.007.012C60.676,139.135,60.679,139.132,60.684,139.131Zm-.119-1.966.008.015A.021.021,0,0,1,60.565,137.165Zm17.221-5.352a6.205,6.205,0,0,1-1.644-.589c-.7-.345-1.4-.666-2.026-.9l-.058-.03c-.147-.148-.533-.358-1.075-.745.2.148-.085.032-.241-.051l-.224-.229a6.718,6.718,0,0,0-1.236-.647c-.044-.045-.042-.071-.038-.095a1.2,1.2,0,0,0-.509-.243l-.15-.174-.1.007c-.343-.189-.743-.477-.616-.508-.129-.067-.256-.131-.167-.041-.279-.262-1.116-.785-1.659-1.175.232.207.184.209.149.262a.189.189,0,0,1-.083-.014l-.056-.041a.63.63,0,0,0-.236-.175c.03-.028-.178-.236.11-.055a9.672,9.672,0,0,0-1.179-.984l-.7-.518c-.224-.187-.447-.376-.656-.564a.724.724,0,0,0-.263-.14,6.471,6.471,0,0,0-.839-.782,6.822,6.822,0,0,1-.894-.808c.082.146-.215.045-.528-.254-.423-.279-.014-.2-.268-.522a4.491,4.491,0,0,1-.6-.515l.025,0a2.581,2.581,0,0,1-.715-.68l.039.033c-.162-.19-.3-.435-.486-.627-.165-.044-.548-.544-.728-.621-.014-.03.026,0,0-.058l-.088.019-.313-.407a1.977,1.977,0,0,1,.276.174c-.195-.26-.227-.249-.272-.239-.03.007-.066.014-.163-.066-.306-.274-.215-.3-.3-.455.137.108.163.231.238.3.2.146-.126-.2-.09-.221-.049-.067-.162-.052-.324-.284-.149-.2-.538-.642-.411-.624-.177-.146-.324-.345-.461-.455.111.166.323.464.3.522a2.44,2.44,0,0,1-.377-.474l.113.106c-.113-.106-.424-.536-.327-.285L57.8,116.6a2.9,2.9,0,0,1-.57-.652.146.146,0,0,1,.076-.009c.086.005.163.009-.076-.358l-.376-.379c-.162-.216-.182-.279-.107-.267-.463-.77-.8-.66-1.081-1.308.261.224.139,0,0-.284-.025-.005-.074-.019-.147-.13,0,.095.171.136.228.373-.025.088-.2-.237-.292-.356-.094-.63-1.068-1.819-1.4-2.8-.1.1-.248-.4-.392-.575.167.019-.289-.514-.331-.787l-.066.174c-.221-.577-.631-.886-.628-1.284-.1-.339.146.087.227.217-.041-.486-.632-1.176-.616-1.575a.083.083,0,0,0-.052,0c-.051.014-.111.029-.274-.258a4.723,4.723,0,0,1-.17-.934,1.914,1.914,0,0,1-.237-.627c.046.019.094.146.142.235a6.53,6.53,0,0,0-.5-1.231,2.6,2.6,0,0,0-.157-.706c-.075-.31-.164-.654-.207-.928-.215-.287-.182-.875-.363-.907.018,0,.023-.064.024-.1a2.973,2.973,0,0,1-.34-.608l.137.07c.143.045-.108-.6-.1-.783-.045.123-.051-.336-.136-.347l-.1-.306a5.964,5.964,0,0,1-.2-.66c-.071-.345.113-.124.121-.006a3.14,3.14,0,0,0-.169-.889l-.008-.041a2.659,2.659,0,0,0-.047-.313.184.184,0,0,0-.014-.08.847.847,0,0,1-.015-.264l.1.081a2.633,2.633,0,0,0-.232-.783,14.618,14.618,0,0,0-.146-1.5c-.08-.522-.158-1.01-.185-1.3.026.113.058.126.02.015-.03-.293-.124-.625-.065-.65-.051-.286.052-.262.042-.7.014-.006-.045-.041-.07-.009a5.463,5.463,0,0,0-.038-1.165,6.324,6.324,0,0,1,0-1.345,1.152,1.152,0,0,0,.082.248,17.843,17.843,0,0,0-.136-1.951c.041.07.08.056.1.219a8,8,0,0,0-.028-1.249c-.041.17-.023.163,0,.157s.036-.011.025.086c-.116.325-.141-.29-.086-.6l.02-.005c.047-.47,0-.5.047-.969.045-.153.04-.057.038.04,0,.076,0,.152.031.108.16-.086.206-1.053.233-1.145-.022-.119-.025-.283-.065-.27.024-.371.114-.15.152-.4l-.076-.8.055-.314c.049-.058.1-.1.1.084a5.011,5.011,0,0,0,.046-.919l.131-.765.177-.754.079-.34c.051-.02.138-.132.133.035a17.528,17.528,0,0,1,.5-1.926c-.119.164-.114.012-.07-.2a2.342,2.342,0,0,0,.1-.585l.139-.459c.067-.073.107.017.178-.136a21.262,21.262,0,0,1,.632-2.038s.022,0,.019.036a19.574,19.574,0,0,0,.7-2.15c.018.038.066,0,.028.156.186-.375.088-.356.077-.455l.162-.392,0,.169c.124-.47.458-.819.586-1.362.046,0,.005.115-.008.194.137-.343.314-.709.434-1.047l.163-.322a.569.569,0,0,1-.032.2,1.275,1.275,0,0,0,.2-.529l.086-.163.124-.212.214-.337c.009-.006.015-.01.016-.007.007-.016.017-.036.023-.051.607-.914,1.219-1.742,1.857-2.549,1.8-2.272,3.424-4.152,3.607-4.386,1.3-1.659,2.618-3.317,4.047-4.92a27.728,27.728,0,0,1,2.307-2.335l.328-.277.207-.166.231-.17a5.945,5.945,0,0,1,.965-.59,3.217,3.217,0,0,1,1.039-.318,1.7,1.7,0,0,1,1.045.18,4.239,4.239,0,0,1,.815.69l.735.867L72.556,55.7c.353.4.635.849.951,1.272l.919,1.292.452.647.407.676.805,1.352A28.515,28.515,0,0,1,77.538,63.7l.55,1.095c.239.461.464,1.04.748,1.664.267.632.6,1.309.877,2.042s.546,1.508.825,2.277c.3.762.491,1.562.714,2.316.107.377.211.747.312,1.1s.2.7.262,1.042c.275,1.346.487,2.435.574,3.011-.166-.468-.351-1.046-.549-1.707-.1-.33-.2-.681-.308-1.047l-.161-.565c-.066-.189-.135-.381-.2-.577l-.856-2.492c-.328-.856-.7-1.728-1.056-2.612L79,68.591c-.093-.218-.2-.43-.3-.645q-.31-.641-.614-1.273l-.6-1.244-.654-1.154c-.433-.744-.812-1.464-1.215-2.079s-.787-1.153-1.11-1.605c-.621-.93-1.445-1.917-2.266-3.006-.212-.268-.406-.555-.637-.819l-.693-.8-1.286-1.523a.8.8,0,0,0-.887-.156,3.589,3.589,0,0,0-.845.442c-.132.089-.262.184-.386.281s-.269.216-.4.326c-.263.224-.516.458-.763.691-.981.944-1.841,1.9-2.571,2.755a70.813,70.813,0,0,0-5.885,8.175c-.454.725-.9,1.454-1.322,2.186a12.319,12.319,0,0,0-.589,1.1q-.248.579-.5,1.155a48.631,48.631,0,0,0-1.709,4.563,35.593,35.593,0,0,0-1.29,13.1,59.1,59.1,0,0,0,2.537,12.585,60.213,60.213,0,0,0,2.346,6.337l.613,1.413q.34.681.676,1.344c.228.442.431.9.673,1.328l.737,1.284a.222.222,0,0,1-.04-.027c-.009-.029-.031-.058-.093-.088a.366.366,0,0,0,.093.088c.022.067-.037.134.069.208-.006.017-.028.012-.05.008s-.058-.014-.035.041c.084.052.129-.007.131-.1l.341.6-.225-.252a1.36,1.36,0,0,0,.262.316c.175.3.378.582.568.876l-.007,0a.865.865,0,0,1-.415-.544c-.154-.1-.1-.027-.061.043.026.048.044.1-.02.091.119.167.241.234.431.49.06-.007.041-.067.118-.015l.189.286c-.014.047-.045.082-.031.108-.038-.031-.073-.076-.11-.108.052.162.179.2.277.364-.152.076-.189-.257-.34-.3l-.054.14c.146.255.194.042.315.311l-.086-.019.146.154c.069-.009.146-.063.043-.2.233.06.107.124.287.337.124.044,0-.049.009-.093.082.122.163.244.243.367-.008.008-.019.014-.021.029-.04-.032-.146-.168-.08-.164-.132-.108-.163-.063-.189-.019s-.041.079-.123.014c.058.186.175.152.269.244-.014-.03.015-.029.048-.027s.063,0,.068-.019a1.052,1.052,0,0,1,.11.069l.091.119c-.019.077-.169.138-.011.3.063-.047.189.027.3.086l.2.261-.118-.056c0,.128.068.328.059.4.077.063.1.049.115.036s.034-.03.115.053c-.1-.043-.075.07-.016.143-.069-.157.159-.041.258.046.113.145.1.287.055.273l-.167-.1c.1.062-.034.045.074.137.086.016.235.059.342.075.1.086.068.172.107.2l-.18-.131c.175.189-.14.085.058.274l.127.03c.013.033,0,.059-.034.054.071.035.132.127.187.163l-.047.029c.108.068.323.131.293.259.072-.115-.083-.1-.138-.25.03-.113.213.107.255.133-.156.034.164.207.246.3,0,.07.014.126.013.169l.13.008c-.157.091.209.178.246.3-.107-.038-.174-.008-.134.076.027-.081.123-.039.213,0a.42.42,0,0,0,.141.051l.041.047c.008.054-.057.043-.125.032s-.125-.019-.144.017c.191.063.122.237.315.259-.082-.153.106-.005.191.006.075.094.047.086.014.078s-.067-.015-.037.052c.074.06.221.108.213.033l.269.3c-.07-.025-.19-.189-.191-.117a.358.358,0,0,0,.21.138l.2.2c-.055-.014-.093-.01-.092.036l.152.085c-.065-.008-.174-.014-.172.042.13-.01.265.231.308.242.108-.009-.108-.075-.025-.082.1.074.224.094.329.17l.039.038a.394.394,0,0,1,.069.078c-.086-.041-.1-.01-.113.019s-.018.047-.055.038c.046.095.127-.012.2.124l-.063.006a5.467,5.467,0,0,0,1.571,1.256l.022.019c0,.1.138.232.312.455-.076-.1.08-.039.148.007l.019.14a1.412,1.412,0,0,0,.533.349c.005.027-.013.044-.03.06.061.134.179.088.246.12l.014.1.081-.013c.159.091.306.239.188.271.065.033.13.064.106.006a2.236,2.236,0,0,0,.674.568c-.082-.1-.042-.1.013-.142l.021,0,.155.113c-.008.035.01.089-.1.03.171.306.715.586,1.077.9.1.052.089.025.154.041.144.24.548.426.784.633-.019-.066.188-.071.344.033.249.069-.05.11.052.241a1.1,1.1,0,0,1,.321.166l-.02,0a.792.792,0,0,1,.38.222l-.023-.008c.082.065.135.166.238.227.119-.015.3.168.428.168,0,.012-.019,0-.01.03l.07-.031.155.147a.827.827,0,0,1-.174-.03c.1.1.123.08.159.064a.124.124,0,0,1,.108,0c.187.069.116.1.158.16-.089-.02-.089-.078-.135-.095-.13-.025.066.069.032.091.03.02.116-.01.209.061s.323.177.229.2c.115.025.2.086.291.1-.063-.052-.183-.145-.157-.18.077.035.23.1.223.135l-.071-.023c.071.023.25.155.209.054l.056.139a1.089,1.089,0,0,1,.373.151c-.063.045-.234.036-.029.175l.257.07c.1.055.117.08.061.1.3.224.532.091.741.287-.191-.018-.1.042-.005.128a.131.131,0,0,1,.108.012c0-.042-.124-.008-.165-.095.02-.048.142.044.213.068.031.123.24.258.417.34s.411.158.581.244c.008-.059.07-.047.138-.036a.266.266,0,0,0,.131,0c-.03.067.058.047.15.026a.391.391,0,0,1,.157-.015l-.051-.1a.225.225,0,0,0,.2-.1,1.737,1.737,0,0,0,.117-.169.07.07,0,0,1,.082-.026c.075-.046.034.057-.008.129l-.026.047a.085.085,0,0,0,.052-.013c.168-.07.174-.478.284-.481a.32.32,0,0,1-.063-.248c.066-.072.18-.272.186-.237a.545.545,0,0,1,.068-.28c.017.031,0,.09,0,.14a2.1,2.1,0,0,0,.124-.592c.091-.053.169-.444.268-.651-.03-.2.136-.354.056-.463.009.009.026-.006.035-.014a1.517,1.517,0,0,1-.007-.362l.047.095c.036.056.064-.043.091-.142a.593.593,0,0,1,.051-.153c-.054.024.046-.135.007-.186l.019-.152c.047-.227-.02-.053.047-.322.039-.152.08.016.058.06a1,1,0,0,0,.109-.383l.006-.018a.9.9,0,0,0,.044-.128c.005,0,.008-.015.01-.034a.326.326,0,0,1,.045-.1l.033.08a1.238,1.238,0,0,0,.03-.4,6.9,6.9,0,0,0,.322-1.2c0,.053.008.069.007.009.027-.133.032-.309.062-.292.017-.138.06-.081.117-.262,0,0,0-.008-.007-.018s-.015-.018-.023-.017c.14-.253.158-.737.3-1.063a.715.715,0,0,0,.009.143l-.007.036c.01.013.01-.006.007-.036a8.205,8.205,0,0,0,.148-.906.266.266,0,0,1,.02.135,2.357,2.357,0,0,0,.1-.572c-.059.115.018.032-.012.12-.076.1-.034-.188.014-.308l.01.005c.059-.2.041-.229.1-.428.032-.054.02-.01.011.035s-.011.068.006.059c.073.019.174-.409.192-.441,0-.062.013-.141-.005-.15.017-.1.032-.1.047-.095s.025,0,.038-.048l.021-.544c0,.012.016,0,.03,0s.052-.026.041.071a4.572,4.572,0,0,0,.1-.83c.037-.086.11-.424.14-.535.045-.018-.029.089-.014.14l.081-.123c-.033.122-.012.119.012.115s.04,0,.035.058a7.307,7.307,0,0,1,.258-.828c-.113.106.074-.381.017-.434.051-.2.072-.186.092-.175s.024.013.041-.025c.073-.34.175-.621.254-.914,0,0,.008,0,.007.025a10.146,10.146,0,0,0,.236-1.009c.007.025.022.013.01.09.1-.261-.047-.13.079-.42v.107c.038-.232.138-.367.169-.644.015.008,0,.063,0,.106a5.647,5.647,0,0,0,.15-.676c.023-.01.026.036.013.132.079-.188.027-.279.1-.451.017-.045.055-.11.059-.1.012-.127.095-.405.118-.516.022-.008.048-.08.1-.178.309-1.049.621-2.128.892-3.223.044-.065.029.014.012.094s-.031.144,0,.108c-.032-.036.042-.191.124-.525l.008-.007c.032-.146.072-.194.1-.355l-.008-.007c.026-.184.135-.29.124-.428l.052-.089c.013-.2.079-.229.108-.459l0,.03c.085-.235.12-.582.171-.643a3.015,3.015,0,0,0,.115-.56c.021-.034.025.018.023.063.229-.829.469-1.735.644-2.509.014-.03,0,.021,0,.051.106-.494.267-.889.326-1.3v0l.074-.264a.121.121,0,0,0,.012-.024l.014-.069c.939-3.226,1.488-5.3,1.417-4.859a17.561,17.561,0,0,1-.3,1.754c-.157.818-.394,2.049-.754,3.937s-.918,4.422-1.733,7.824c-.068.289-.134.567-.2.853,0-.013,0-.032,0-.031a1.329,1.329,0,0,0-.052.258c-.068.286-.135.572-.2.855L85,112.7c-.173.66,0,.263-.19.927l0-.119-.1.452c.005.01.012.015.02.013l-.2.832c-.017.019-.025,0,0-.135a2.7,2.7,0,0,0-.126.654c-.08.335-.163.673-.245,1.006a2.353,2.353,0,0,0-.079.286s0,.008.007.01l-.335,1.369c-.071.194-.139.379-.175.456-.04.206-.024.2-.009.19s.02-.011.009.059l-.034.136c0-.1-.077.109-.124.295.058-.181.073-.165.07-.078l-.244.984c-.023.047-.04.074-.039.048l.049-.361c-.033.22-.046.055-.1.346l0,.337-.111.443.036-.212c-.129.553-.1.021-.23.6l0,.191c-.025.08-.05.117-.054.069-.012.141-.075.389-.095.517l-.036.007a2.746,2.746,0,0,1-.169.83c.12-.145.069-.279.194-.642.019-.036.024-.021.028-.008l-.137.589a2.317,2.317,0,0,0-.075.317l-.143.612-.1.241.018.13-.009.04c-.086.037-.1.393-.158.675l-.022.1c-.008.029-.015.058-.025.082.008-.193-.036-.211-.1,0,.087-.13.062.095.041.294l-.095.4c-.014-.1,0-.334-.057-.267-.011.339-.194.592-.164.853.1-.324.057-.025.046.15l-.068.284c-.01-.019.014-.2-.063.015a1.182,1.182,0,0,0-.022.343c-.03.129-.061.259-.092.388,0,0-.005,0-.014.016a2.976,2.976,0,0,0-.063.3l-.176.746c-.01-.011-.023-.005-.047.041l-.049.345c-.008-.093-.028-.236-.086-.129a1.236,1.236,0,0,1-.069.439c-.091.33-.175.645-.193.709.005.106.036-.026.067-.159s.056-.251.058-.174c-.034.159-.065.3-.1.439a2.029,2.029,0,0,1-.111.41,4.383,4.383,0,0,1-.242.417l-.3.367c.069-.109.02-.083-.028-.058s-.089.049-.03-.04a1.365,1.365,0,0,0-.136.152c-.058.055-.075.091-.126.145-.062.031-.147.113-.352.227l.069-.091a2.566,2.566,0,0,1-1.251.3A3.189,3.189,0,0,1,77.785,131.812Zm.891-1.787-.014.052c0,.008.091-.07.091-.07Zm2.8-8.438c.019-.077.025-.063.032-.047s.011.027.024-.025c0,0-.008,0-.014,0a.023.023,0,0,0-.013-.006C81.5,121.5,81.486,121.52,81.478,121.587Zm1.866-2.127c-.029.124-.051.3,0,.168a1.391,1.391,0,0,1,.051-.2Zm-20.411-1.438c.04.043.122.088.107.03-.041-.029-.039-.042-.058-.072Zm20.908-.562a2.839,2.839,0,0,0,.134-.509c0-.016,0-.023,0-.023C83.952,116.928,83.886,117.364,83.842,117.46Zm-21.484-.145c.03-.057-.091-.143-.13-.187h-.014C62.143,117.127,62.365,117.262,62.358,117.315Zm20.4-.573.01-.036-.049-.026Zm-20.833-.133a.281.281,0,0,0-.051-.065A.224.224,0,0,0,61.924,116.609Zm-.821-1.316a.169.169,0,0,0-.035-.137h-.01C60.985,115.155,61.083,115.249,61.1,115.293Zm-.314-.217c.067.1.108.123.106.036a.36.36,0,0,0-.093-.039A.029.029,0,0,0,60.789,115.076Zm-7.663-6.3.041.111.073.024-.077-.123-.07-.126ZM49.106,89.9c.025.006.017-.029,0-.079Zm.069-1.53c0-.18.021-.163.04-.146s.032.03.033-.089C49.238,88.18,49.147,88.084,49.175,88.371Zm1.477-11.106.108.065.025-.082Zm19.055,50.3.022.022Zm10.174-.52,0,0Zm-10.258-2.424,0,.007Zm11.22-1.018c0,.022-.007.05-.013.083A.444.444,0,0,1,80.842,123.607Zm.143-.5-.013.022C80.975,123.118,80.98,123.112,80.986,123.111Zm1.006-4.091v.033A.075.075,0,0,1,81.991,119.02ZM50.428,101.247h0Zm39.961-9.2c.058-.119-.008-.185.841-.691.212-.126.48-.281.822-.47s.759-.41,1.242-.714l1.743-1.039,2.283-1.5c.15-.094.281-.2.422-.3l-.012.016a.672.672,0,0,0,.123-.1l.418-.312.115-.05c.331-.235.1-.121.436-.353l-.044.055.216-.171c0-.008,0-.013-.006-.014l.409-.3c.016,0,.014.008-.05.063a1.579,1.579,0,0,0,.306-.252l.475-.394a1.445,1.445,0,0,0,.14-.108V85.4l.645-.538c.1-.069.2-.135.246-.159.157-.145.016-.047.088-.119l.064-.053c-.036.05.075-.026.164-.1-.092.068-.094.056-.061.015.154-.13.311-.255.461-.389.027-.016.044-.025.035-.012s-.042.052-.089.1l-.045.046c.074-.071.037,0,.156-.121l.111-.167.2-.185-.087.093c.12-.116.135-.113.15-.11s.03.007.157-.119l.064-.093c.039-.032.063-.042.05-.019.054-.065.167-.166.22-.222l.019.006a1.778,1.778,0,0,1,.362-.352c-.1.037-.127.115-.309.256-.021.011-.018,0-.015-.005l.265-.246a1.468,1.468,0,0,0,.142-.131l.276-.256.13-.088.037-.068.017-.016c.052,0,.185-.16.3-.289l.042-.044.037-.035c-.066.094-.052.113.046.026-.081.045,0-.061.076-.155l.172-.179c-.025.052-.107.166-.06.146.113-.166.275-.25.347-.387-.151.137-.033,0,.027-.085l.121-.125c0,.012-.071.1.033.007a.85.85,0,0,0,.119-.164l.166-.173s0,0,.011,0c.058-.058.1-.1.126-.136l.319-.33c0,.008.008.008.033-.011l.132-.158c-.026.047-.063.122,0,.08.031-.072.306-.349.326-.384s-.018,0-.045.036-.05.067-.043.042c.066-.081.111-.153.164-.23.071-.082.143-.166.215-.247-.022.037,0,.029.016.02s.035-.015.018.016c.107-.1.02-.077.173-.226l-.01.039a17.583,17.583,0,0,0,1.642-2.035l.024-.03a6.545,6.545,0,0,0,.531-.575c-.12.134-.019-.029.045-.117l.141-.119a5.517,5.517,0,0,0,.483-.661c.029-.025.041-.024.053-.021a.811.811,0,0,0,.183-.277l.1-.085.008-.052c.132-.188.319-.411.32-.344.051-.076.1-.151.026-.078a11.622,11.622,0,0,0,.8-.934c-.125.133-.122.107-.144.092a.157.157,0,0,1,.015-.047l.026-.032a.534.534,0,0,0,.113-.133s.019-.005.034-.014c.032-.019.064-.039-.02.069.39-.336.853-.96,1.354-1.422a.613.613,0,0,0,.1-.144c.312-.263.7-.667,1.058-.952-.086.047.008-.11.2-.284.114-.128.133-.117.165-.106s.058.017.151-.041a3.683,3.683,0,0,1,.373-.306l-.005.013a2.955,2.955,0,0,1,.474-.372l-.022.02c.122-.091.284-.148.419-.24.054-.08.392-.263.466-.351.008,0,.008,0,.008,0s0,.005.024,0l.006-.043c0-.006.282-.135.282-.135a1.49,1.49,0,0,1-.149.121c.3-.136.1-.086.253-.191a.705.705,0,0,1,.3-.135,1.636,1.636,0,0,1-.207.108c-.069.054-.012.025.048-.005.041-.02.084-.041.087-.033a.962.962,0,0,1,.214-.151c.132-.074.454-.229.418-.173.116-.074.254-.132.342-.19a1.51,1.51,0,0,1-.345.112,2.133,2.133,0,0,1,.335-.151l-.081.047c.08-.047.37-.165.23-.138l.208-.043a2.544,2.544,0,0,1,.472-.224c.01.039-.131.139.2.021l.284-.151c.149-.063.19-.064.166-.032.52-.147.532-.289.94-.386-.173.108-.03.058.156.022.008-.011.025-.032.1-.055-.053-.007-.109.063-.251.073-.043-.019.169-.069.255-.1a3.673,3.673,0,0,0,.82-.17c.334-.081.7-.178,1-.224-.038-.055.268-.075.391-.124-.025.042.1.007.233-.029a1.091,1.091,0,0,1,.266-.048l-.087-.045c.363-.044.6-.215.824-.182.2-.019-.073.061-.159.087a1.762,1.762,0,0,0,.485-.08,1.373,1.373,0,0,1,.5-.075c.026-.031-.057-.06.191-.127.2-.006.588-.036.55-.018a1.372,1.372,0,0,1,.385-.07.547.547,0,0,1-.152.052,4.666,4.666,0,0,0,.759-.158,8.925,8.925,0,0,0,.967-.095c.183-.1.514-.057.547-.145,0,.009.034.013.053.016a2.013,2.013,0,0,1,.372-.147l-.05.067c-.022.044.119.02.254,0a1.228,1.228,0,0,1,.2-.028c-.085-.024.188-.025.2-.07l.178-.049c.284-.063.033-.036.384-.1.2-.036.069.058,0,.063a1.942,1.942,0,0,0,.511-.091l.024,0c.045,0,.111-.014.179-.025a.117.117,0,0,0,.046-.008.712.712,0,0,1,.151-.014l-.046.056a1.468,1.468,0,0,0,.443-.157,8.372,8.372,0,0,0,.844-.152c.29-.078.559-.16.713-.212-.06.026-.066.044-.007.013.159-.048.335-.136.354-.107a.357.357,0,0,1,.165-.029.893.893,0,0,0,.225-.025c0,.005.009-.008.008-.02a.02.02,0,0,0-.011-.018,3.1,3.1,0,0,0,.641-.148,6.3,6.3,0,0,1,.725-.227.683.683,0,0,0-.119.089l-.042.015c0,.015.018,0,.042-.015a10.237,10.237,0,0,0,1.02-.425c-.03.034-.014.052-.1.092a2.666,2.666,0,0,0,.653-.263c-.179.028,0,.031-.122.064-.195.006.124-.127.289-.182l.008.009c.247-.093.251-.126.5-.218.157-.025-.125.061-.057.073.082.062.583-.156.637-.164.055-.04.135-.085.118-.1.1-.052.124-.041.145-.03s.033.017.093-.006l.37-.266.168-.062c.041.006.078.018-.011.075a2.641,2.641,0,0,0,.445-.264l.794-.351.179-.08c.026.018.107.019.03.075.2-.121.716-.3,1.024-.454-.229.014.273-.2.333-.3l.238-.124a.053.053,0,0,1,.041.015c.014.012.029.025.084.006.356-.225.73-.367,1.055-.569,0,0,.01.008-.005.025a10,10,0,0,0,1.052-.71c-.005.024.031.024-.039.081.212-.1.16-.129.188-.177l.206-.118-.055.077c.21-.172.476-.224.691-.46.022.015-.03.059-.059.094.164-.127.353-.252.508-.382l.17-.108a.314.314,0,0,1-.073.091.643.643,0,0,0,.245-.2l.347-.212c.007,0,.011,0,.01,0l.022-.022c.527-.3,1-.662,1.509-.972.715-.434,1.352-.894,1.837-1.241s.807-.605.876-.657c1.907-1.592,3.706-3.385,5.661-5.032.5-.4.994-.808,1.505-1.194.527-.368,1.033-.757,1.583-1.1a17.58,17.58,0,0,1,3.436-1.7c.33-.118.966-.356,1.774-.593a15.43,15.43,0,0,1,2.811-.524,10.977,10.977,0,0,1,2.868.1,10.243,10.243,0,0,1,1.1.257c.306.1.551.194.717.263-.616-.063-1.473-.218-2.48-.24a14.434,14.434,0,0,0-3.263.306,16.854,16.854,0,0,0-3.172,1.017,16.016,16.016,0,0,0-2.31,1.236c-1.123.74-2.524,1.776-3.888,2.873-1.35,1.113-2.675,2.271-3.691,3.166-1.47,1.288-2.972,2.719-4.6,4a40.731,40.731,0,0,1-4.992,3.473,51.477,51.477,0,0,1-7.433,3.685l-1.027.386-1.047.316c-.7.21-1.394.408-2.086.551-1.382.3-2.715.5-3.946.641a47.185,47.185,0,0,0-7.853,1.271c.005-.005.015-.01.023-.016a.111.111,0,0,1-.038,0,.1.1,0,0,0-.09.021c-.021-.008.051-.053-.008-.041-.047.036-.023.058.026.065l-.4.12.185-.088a1.183,1.183,0,0,0-.227.1c-.2.059-.391.141-.59.211v0a.725.725,0,0,1,.378-.162c.075-.059.041-.047,0-.033s-.075.023-.058-.01c-.113.047-.174.1-.351.171-.008.029.028.022-.015.055l-.193.07c-.023-.008-.035-.025-.052-.019l.08-.044c-.1.014-.145.071-.252.107-.012-.073.176-.072.229-.139l-.066-.032c-.167.055-.064.084-.229.13l.026-.04-.109.067c-.008.032.006.071.1.025-.074.108-.085.047-.23.129-.03.036-.011.026.012.015s.028-.012.036-.008l-.239.107s0-.009-.012-.01c.025-.018.116-.066.1-.035.153-.114-.046-.069.06-.148-.109.024-.113.08-.179.123a.194.194,0,0,0-.044.024.233.233,0,0,0,.044-.024c.036-.011-.019.051,0,.057-.023.022-.041.037-.057.051l-.082.036c-.037-.011-.041-.083-.16-.017.014.031-.052.084-.1.136l-.171.092.049-.056c-.068,0-.184.029-.219.024-.1.075.024.036-.088.11.041-.05-.023-.036-.072-.009.1-.032-.006.077-.069.124-.1.053-.168.044-.153.023l.085-.084c-.03.028-.034.025-.042.021s-.015-.008-.049.019-.073.112-.1.163c-.063.045-.1.036-.121.055l.1-.091c-.062.041-.069.025-.075.01s-.009-.032-.075.022l-.034.065c-.019.007-.031,0-.023-.016a1.393,1.393,0,0,1-.112.1l-.008-.024c-.052.054-.12.16-.183.146.049.035.064-.041.152-.07.055.014-.089.106-.11.126.008-.076-.135.082-.2.123-.036,0-.068.008-.091.008l-.025.063c-.022-.076-.126.1-.2.124.036-.052.031-.085-.019-.065.062.022-.072.125-.082.175l-.03.024c-.053.012.045-.12.014-.137-.061.1-.137.072-.175.172.089-.048-.012.055-.029.1-.063.046-.05.026-.041.007s.013-.03-.022-.014c-.04.04-.086.119-.046.111l-.189.15c.021-.036.121-.1.086-.1a.286.286,0,0,0-.1.114l-.135.107c.014-.027.019-.047-.005-.045l-.067.078c.014-.031.033-.086,0-.085-.014.065-.16.14-.171.161s.008.012.023,0,.026-.03.023-.009c-.052.052-.084.112-.135.172l-.023.022a.334.334,0,0,1-.049.04c.055-.082-.03-.039-.008-.086-.053.03-.01.066-.087.109l.005-.034a4.825,4.825,0,0,0-.835.883l-.013.014c-.049,0-.134.085-.267.187.06-.045.01.041-.023.08l-.071.017a1.141,1.141,0,0,0-.242.3c-.014,0-.02-.005-.026-.014-.075.039-.067.1-.091.137l-.051.013,0,.043c-.065.091-.153.179-.156.117-.025.038-.047.077-.011.056a2.179,2.179,0,0,0-.371.392c.059-.049.058-.028.069,0v.011l-.078.087c-.016,0-.045.01,0-.055a4.131,4.131,0,0,0-.584.62c-.037.053-.023.049-.039.086a4.653,4.653,0,0,0-.415.45c.036-.011.008.1-.064.189-.041.079-.051.058-.067.037s-.027-.03-.06-.006a.906.906,0,0,1-.128.179v-.01a.674.674,0,0,1-.164.213l.008-.013a1.743,1.743,0,0,0-.146.134c-.009.065-.126.17-.144.239,0,0,0,0,0,0s0-.005-.008,0l0,.04-.094.086a.638.638,0,0,1,.04-.1c-.1.088-.025.07-.07.148-.061.1-.065.066-.1.09.024-.051.052-.05.067-.076.018-.044,0-.024-.019,0s-.028.029-.03.021c-.014.016-.01.066-.061.115s-.142.174-.139.123c-.032.063-.076.109-.1.158.036-.034.1-.1.116-.083-.03.041-.091.124-.1.119l.024-.039c-.024.039-.119.135-.062.114l-.078.028a.857.857,0,0,1-.137.2c-.012-.036.022-.13-.081-.02l-.078.141c-.045.058-.058.063-.057.031-.16.163-.141.29-.276.4.046-.1,0-.059-.061-.008a.1.1,0,0,1-.026.058c.02,0,.027-.069.077-.086.019.013-.049.076-.074.113-.134.028-.384.389-.579.545.024.04-.08.106-.113.167,0-.069-.1.124-.159.144l.038.025c-.119.091-.167.283-.25.293-.068.052.013-.063.037-.1-.1.036-.224.3-.306.313,0,.03.03.037-.042.14-.066.043-.193.147-.184.124a.445.445,0,0,1-.118.138.249.249,0,0,1,.042-.073,2.1,2.1,0,0,0-.24.275c-.057.008-.217.188-.325.271-.052.109-.175.151-.173.223,0-.009-.013,0-.02,0a1.178,1.178,0,0,1-.112.185l.009-.058c0-.037-.043.008-.086.052a.438.438,0,0,1-.071.066c.033,0-.063.059-.061.093l-.058.073c-.092.1-.008.031-.123.153-.066.068-.03-.026-.007-.043a.719.719,0,0,0-.17.168l-.008.008a.613.613,0,0,0-.061.055s-.008.007-.015.015a.279.279,0,0,1-.052.041l.01-.049a.923.923,0,0,0-.141.2c-.165.138-.44.432-.547.542.031-.035.035-.056.012-.021-.057.058-.119.144-.127.128-.053.063-.054.025-.141.1,0,0,0,.005,0,.012s0,.012.005.013c-.149.089-.321.322-.5.446a.4.4,0,0,0,.043-.073,5.475,5.475,0,0,0-.373.409.174.174,0,0,1,.036-.073,1.428,1.428,0,0,0-.24.257c.065-.042,0-.021.045-.058.071-.031-.046.1-.108.151l0,0c-.093.084-.095.1-.188.188-.058.032.048-.052.024-.052-.029-.031-.217.157-.235.168-.022.031-.052.068-.047.077-.039.043-.047.039-.053.034s-.011-.007-.033.014l-.2.258c.007-.02-.071.013-.009-.054a2.8,2.8,0,0,0-.338.375c-.048.03-.2.174-.252.219-.027-.006.045-.035.054-.065l-.081.035c.1-.09-.017-.036.037-.1a4.37,4.37,0,0,1-.412.324c.092-.015-.166.164-.157.21-.093.08-.1.068-.106.055s-.008-.014-.029,0c-.152.145-.3.251-.439.369,0,0,0-.005.005-.014-.126.122-.338.273-.472.411.007-.014-.007-.014.027-.047-.145.087-.022.081-.19.173l.037-.052c-.1.1-.2.125-.317.247-.005-.01.021-.033.037-.052a3.379,3.379,0,0,0-.319.271c-.014,0,0-.028.041-.07-.108.059-.113.127-.212.182a.186.186,0,0,1-.067.027c-.051.058-.192.159-.245.206-.014-.006-.052.018-.114.045l-.81.59c-.28.187-.56.38-.835.582-.048.007-.014-.024.024-.053l.015-.012c-.041.031-.12.074-.23.154H96.77c-.071.056-.112.057-.189.119l0,.008c-.081.08-.183.069-.225.148l-.063.013c-.079.1-.129.07-.227.174l.012-.015c-.135.069-.278.231-.329.229a1.273,1.273,0,0,0-.268.224c-.025,0-.009-.027.008-.048-.441.273-.933.553-1.328.83-.019,0,.005-.016.017-.03a6.254,6.254,0,0,0-.682.433h0l-.145.081a.04.04,0,0,0-.017,0c-.008.008-.022.017-.034.026a10.825,10.825,0,0,1-2.818,1.093C90.39,92.148,90.355,92.116,90.389,92.048Zm6.649-3.38c0,.01-.005.02-.018.031.022-.018.037-.032.023-.032Zm3.91-2.85.014.03,0-.045Zm-.506-.536c-.047.069.182-.162.244-.2A1.642,1.642,0,0,0,100.441,85.282Zm1.25-1.059a.923.923,0,0,1-.1.079l.034,0c.045-.038.1-.092.088-.092A.084.084,0,0,0,101.692,84.223Zm1.483-.407c0,.008.009.016.047-.026-.036.033-.034.024-.031.014s0-.016-.019.006h0S103.174,83.812,103.175,83.816Zm.335-.275.015-.015s0,0,0,0S103.517,83.53,103.51,83.541Zm3.659-3.622.046-.036,0-.03Zm8.716-8.681a.126.126,0,0,1,.047-.027l-.014-.024C115.89,71.205,115.852,71.245,115.885,71.238Zm.571-.355a.222.222,0,0,1-.065.036c.024.014.091-.044.124-.058.005-.01.005-.014,0-.014A.24.24,0,0,0,116.457,70.883Zm1.337-.493c.014-.029-.017-.016-.047,0a.248.248,0,0,1-.036.013A.126.126,0,0,0,117.794,70.391Zm.058-.076c.018-.019.042-.034.041-.047C117.822,70.293,117.8,70.311,117.851,70.315Zm1.151-.3a.131.131,0,0,0,.067-.036A.282.282,0,0,0,119,70.017Zm3.828-2.684-.025.03.163-.046Zm11.994-2.363c-.005.011-.012.023.054,0-.009,0-.011-.007-.015-.014s-.027-.027-.124.018a.315.315,0,0,1,.078-.02C134.83,64.956,134.827,64.963,134.825,64.97Zm5.705-2.5.043-.022-.059-.051ZM49.056,92.084q0,.032-.008.063A.084.084,0,0,1,49.056,92.084Zm53.078-7.173a.049.049,0,0,1-.012.016Zm1.828-1.744.013-.008c-.005.006-.009.008-.012.008Zm.255-.229-.022.023ZM84.194,77.917s.008,0,.007-.012l-.021-.047c.02-.008-.011-.072,0-.1-.014.028-.058,0-.086-.008.028.087-.029.047-.02.124-.029.017-.022-.063-.034-.08a.063.063,0,0,1-.057.021.078.078,0,0,0-.031,0,.043.043,0,0,1,0-.015c-.024.025-.067.008-.09.078a.14.14,0,0,1,0-.043c-.014-.014-.014.008-.014.029s0,.048-.02.023l.006-.039c-.008.017-.018.01-.027,0s-.024-.015-.035.018a.082.082,0,0,1,.005-.04c-.02.016-.044.007-.06.058a.124.124,0,0,1,.006-.065c-.012-.016-.017,0-.022.019s-.009.035-.019.022a.083.083,0,0,1-.015-.036c-.009.032-.037.029-.047.042a.2.2,0,0,0-.024-.062.442.442,0,0,0-.316.055c-.015-.079.025-.05.015-.1,0,.041-.008.039-.019.036a.035.035,0,0,0-.03.007l0-.01c-.007.006-.011,0-.016-.005s-.011-.014-.019,0v.018c-.008.019-.014,0-.02-.011s-.015-.038-.021.011l-.01-.049c-.009.04-.015.032-.021.025s-.012-.014-.023.017l0-.013c-.01-.016-.023,0-.034.017s-.025.039-.028.006A.1.1,0,0,0,83,77.9a.306.306,0,0,1,.008-.08c-.083.022-.169-.008-.25.065a.083.083,0,0,1,.006-.036c-.024.027-.041.014-.058,0s-.044-.034-.073.042h0l-.025-.011v-.015a.041.041,0,0,1-.008.011.866.866,0,0,1-.3-1.023.84.84,0,0,1,.215-.458.459.459,0,0,1,.29-.1,1.032,1.032,0,0,1,.231.02,2.376,2.376,0,0,1,.319.018l.062,0s0,.007,0,.011.019,0,.019-.01l.062,0,.019.058c.024.008.027-.008.03-.024s.005-.037.033-.018l-.005.034.032-.015,0-.029.062,0a.046.046,0,0,1-.005.039c.033.035.032-.015.043-.04l.075-.008c.007.008.014.014.024.008v-.011l.1-.01a.59.59,0,0,1,.047.061c.023-.024,0-.049.006-.067h.01c0,.029.019.052.033.051a.054.054,0,0,1-.017-.052l.075-.008a.057.057,0,0,1,.01.027l-.018.043c.006-.011.009,0,.013.007s.008.016.018.008l.005-.087.034,0-.012.019c.019-.008.025.014.03.036s.013.047.034.035l0-.049a.051.051,0,0,1,.014.036c.006-.021.026-.017.033-.028l.008.032c.015-.021.024-.092.058-.03-.019-.045-.024-.038-.031-.031s-.014.01-.029,0a.054.054,0,0,1-.007-.025l.045,0c.008.008.016,0,.025,0l.047,0,.032.042,0-.045h0c.023.066.032,0,.051-.014l.008,0,.008,0a.1.1,0,0,0,.027.09.11.11,0,0,1-.007-.1l.031-.008a.3.3,0,0,0,.011.106c0-.031.017-.026.03-.02s.027.013.025-.029c-.032-.017-.015-.041-.011-.07l.022-.005c0,.013-.007.033.017.048a.074.074,0,0,0,.01-.056l.03-.007,0,.008a.024.024,0,0,0,.02-.014l.057-.014a.073.073,0,0,0,.014.028l.017-.031a.182.182,0,0,0,.023.091c-.008-.04.019-.037.037-.035s.019,0,.019,0c-.005-.027-.009-.021-.014-.015s-.007.011-.009-.008.014-.033.019-.052l.041-.01c0,.032.03.058.03.083.013.008.01-.006.008-.019s0-.03.017-.018l.007.03a.275.275,0,0,0,.29-.192l0,0c.036.041.07.035.136.051-.03-.008-.022-.05-.011-.06l.048.047c.046.022.064-.045.08-.086a.172.172,0,0,1,.025.039c.044.027.014-.041.02-.057l.036.033-.013-.038c.018-.031.059-.034.085.029.005-.015.01-.03-.013-.044a.16.16,0,0,0,.164-.034c-.032-.008-.04-.027-.06-.065a.083.083,0,0,1-.008-.025l0,0c.008,0,.021.016.022-.008.012.025.047.041.032.067.107.056.163-.055.252-.075.012-.017,0-.025,0-.047a.1.1,0,0,0,.112-.022.115.115,0,0,1,.074-.031c-.028-.02-.053-.1-.024-.117,0-.065.056.065.106.082a.055.055,0,0,1,.04-.052l0,.009c0-.036.022-.065.059-.052l0,.005a.08.08,0,0,1,.033,0c.018,0,.036.008.047,0-.02-.049.041-.047.024-.1.006,0,.005.009.016.016l-.025-.041h.049a.2.2,0,0,1,.01.055c.056,0-.012-.044-.007-.079s.031-.005.056,0c0,.016-.008.014-.016.013s-.011,0-.011,0c0,.023.01.02.019.018a.017.017,0,0,1,.021.007c.007,0-.023-.052,0-.054s.049-.045.075,0c0-.032.019-.038.015-.064a.078.078,0,0,1-.072-.019c.008-.014.025-.041.041-.025l0,.017c0-.017.047-.027,0-.054l.064.037c-.014-.037.013-.052.029-.074.032.042.05.1.1.085l0-.064c.014-.015.026-.008.042.018.079-.017-.026-.157.05-.15.019.062.038.056.071.056-.005-.009-.017-.026-.009-.034-.012-.01-.008,0-.008.01s0,.02-.02.009c-.03-.027,0-.033.006-.05.129.08.163-.067.265-.074-.052-.053.015-.039.009-.071.027.036.032.017.041,0s.014-.027.036-.017l-.06-.051c.029,0,.03-.025.03-.051s-.008-.068.041-.039c.039,0,.031.048.03.066.042.018.052-.009.06-.036s.017-.057.063-.031c-.019-.025-.063-.055-.055-.1.044.007.116,0,.121.017.007-.025-.005-.047.033-.044.013.016.006.025.006.037.045-.01.047-.055.053-.1.059.03.092-.036.146-.048-.035-.07.073-.036.007-.1a.058.058,0,0,0,.026.014c-.008-.032-.042-.084-.03-.1l.04.047c.03.032.043.016.055,0s.015-.019.025-.017c-.038-.019.023-.016-.009-.047l0-.033c.016-.041-.019-.025.008-.067.018-.022.06.041.047.043.041.005.044-.026.052-.054l0,0a.041.041,0,0,0,.024-.015l0,0a.026.026,0,0,1,.025-.008l.031.036c.014-.011.007-.084-.01-.1a.268.268,0,0,0,.145-.182c0,.014.013.025.007.007.009-.024-.007-.071.019-.053,0-.017.01-.014.025-.013a.05.05,0,0,0,.042-.008s0-.005-.013-.012l-.015-.011c.086-.01.048-.137.128-.165a.146.146,0,0,0,.023.044l0,.007c.01.008.008,0,0-.007a.365.365,0,0,0,.021-.187c.013.017.031.028.033.047a.1.1,0,0,0,.018-.115c-.035.007.02.018.007.03-.052-.005-.056-.07-.03-.083l.008.005c.024-.03,0-.047.027-.078.038,0,0,.024.03.034.068.04.1-.039.108-.041-.008-.017-.01-.035-.029-.046,0-.02.015-.013.03-.006s.022.011.027,0l-.052-.116.015-.022c.019.007.04.016.044.038a.131.131,0,0,0-.005-.1l.069-.109.014-.025c.02.01.052.019.059.039,0-.043.066-.095.1-.13-.085-.018-.014-.069-.052-.11l.02-.035c.021.005.047.029.064.024.008-.07.059-.107.083-.159a.027.027,0,0,1,.012.01c.009-.054.071-.119.037-.2.012.011.028.014.031.032.033-.02-.007-.04-.024-.058l.019-.03.023.029c-.013-.054.069-.051.04-.121.02.009.021.021.028.033a.532.532,0,0,0,.02-.1l.019-.025a.062.062,0,0,1,.019.03c.027-.013.012-.034,0-.055l.042-.046.007,0,0-.008a1.317,1.317,0,0,1,.213-.19c.224-.168.414-.319.431-.34a18.338,18.338,0,0,1,1.173-1.971,6.434,6.434,0,0,0,.374-.6l.031-.046c.005-.008.005-.005.01-.008a.73.73,0,0,0,.115.008.256.256,0,0,0,.081-.009c.01.005.036.015.04.007l-.019-.018L91.778,69l0,0c-.006,0,.005,0,.022-.013h0l.023-.012.019-.01c.006-.039.034-.079.093-.033.124.117.037.351-.019.5a6.787,6.787,0,0,0-.314.876,3.842,3.842,0,0,1-.715,1.332,3.438,3.438,0,0,0-.412.852c-.119.3-.212.62-.324.906a7.31,7.31,0,0,0-.255,1.417,3.1,3.1,0,0,1-.479,1.416,2.421,2.421,0,0,1-1.25.778l0-.011c.006,0,.008,0,0-.022a.033.033,0,0,0,0,.022c-.014-.005-.047-.043-.041-.014-.015-.014-.019-.043-.034-.045a.178.178,0,0,0,.059.075l-.078.022.012-.044a.042.042,0,0,0-.02.047l-.119.031,0,0c-.024-.061.027-.075.061-.042-.008-.035-.014-.035-.022-.035s-.019,0-.036-.03c-.02.009-.012.044-.042.061.016.028.029.033.031.053l-.039.01a.4.4,0,0,0-.037-.04c0-.008,0-.012.005-.019-.035-.018-.016.026-.041.028C87.785,77,87.8,77,87.812,77s.022,0,.012-.024l-.052-.057c-.019,0-.014.014-.007.029s.016.035-.009.027l-.014-.031-.011.024c.018.032.051.078.067.068.022.052.012.045,0,.037s-.02-.008-.027,0c.008.025.012.024.016.023s.006,0,.013.005l-.05.012-.012-.016c0-.009.014-.02.028.007,0-.056-.069-.092-.069-.13-.04-.023,0,.036-.008.053,0,0-.006,0-.008,0s.007,0,.008,0,.025.045.04.061a.222.222,0,0,1,.005.03l-.017,0c-.027-.028-.077-.108-.092-.087a.249.249,0,0,1,.038.1l-.036.009-.008-.034c-.037-.034-.084-.064-.107-.089-.006.03.036.052.02.071-.007-.03-.036-.051-.046-.049a.1.1,0,0,1,.039.094c-.02.005-.066-.044-.07-.058l-.006-.051c0,.024,0,.014-.011.005s-.012-.014-.014-.005l.046.119c0,.008-.014,0-.024-.006s-.014-.011-.014-.008l0-.038c-.01.008-.024-.011-.036-.03s-.026-.04-.034-.026l.016.044a.069.069,0,0,1-.023-.031c0,.02-.01.018-.011.029l-.019-.029c0,.022.019.088-.026.034.028.039.029.031.031.024s.005-.01.02,0c.041.048.007.051.006.059-.038-.073-.034,0-.049,0l-.05-.051.021.05c-.034-.056-.033-.036-.034-.016s0,.027-.014.017a.156.156,0,0,0-.047-.08c.047.062.03.088.047.127h-.007c-.028-.027-.034-.086-.063-.128.007.027,0,.021-.015.016s-.023-.013-.008.026c.032.019.021.046.033.078-.029,0-.012-.032-.044-.054a.112.112,0,0,0,.028.078l-.044.009c-.005-.021.025-.015,0-.04-.015,0-.013.018-.005.041l-.031.007a.122.122,0,0,0-.025-.05l0,.029a.337.337,0,0,0-.041-.085c.015.036,0,.034-.016.031s-.013,0-.011,0c.01.025.011.019.013.014s0-.009.009.008c-.008.011.006.054,0,.069h-.005a.015.015,0,0,1-.014,0c0-.035-.037-.063-.044-.091-.011-.008-.006,0,0,.017s.009.028-.006.016l-.013-.028a.134.134,0,0,0-.149.149l0,0c-.031-.041-.053-.042-.1-.068a.051.051,0,0,1,.019.056l-.041-.052c-.034-.027-.034.03-.037.065a.205.205,0,0,1-.024-.039c-.032-.033,0,.035,0,.048l-.029-.036.014.037c-.008.025-.036.018-.061-.044a.046.046,0,0,0,.014.042.072.072,0,0,0-.1,0c.021.014.029.033.047.073l0,.009-.019.006c-.012-.02-.027-.039-.02-.055-.052-.052-.081-.039-.112-.026a.092.092,0,0,1-.055.011c-.006.012,0,.022,0,.041-.036-.037-.054-.027-.073-.017a.042.042,0,0,1-.046,0c.019.026.039.106.02.11,0,.058-.04-.076-.071-.108,0,.027-.014.036-.024.034l0-.009c0,.031-.012.05-.036.025v0c-.013,0-.039-.037-.049-.031.014.053-.026.026-.014.074,0-.005,0-.009-.011-.02l.015.044-.032-.02a.3.3,0,0,1-.005-.051c-.036-.026.008.042,0,.069s-.019-.008-.035-.026,0-.009.009,0,.007.008.008,0c0-.038-.015-.013-.025-.038,0,0,0,.011,0,.023s0,.027-.005.023h-.011c-.012,0-.026,0-.036-.034,0,.027-.012.025-.011.047a.09.09,0,0,1,.045.047c-.005.008-.017.024-.027,0l0-.013c0,.013-.03,0,0,.045l-.04-.059c.008.039-.01.039-.02.05-.018-.05-.026-.108-.056-.114l0,.055c-.009.007-.016,0-.025-.034-.024-.01-.023.022-.021.054s.005.072-.019.052c-.007-.062-.019-.064-.038-.079,0,.009.008.03,0,.033s.006,0,.005-.005,0-.019.014,0c.015.037,0,.028-.008.04-.041-.074-.07-.069-.1-.065a.072.072,0,0,1-.069-.017c.015.044.007.042,0,.041s-.012,0-.012.009c-.012-.041-.018-.033-.025-.025s-.013.014-.024-.005l.029.073c-.018-.018-.022,0-.025.024s-.007.052-.03,0c-.022-.022-.01-.055-.008-.067-.022-.04-.032-.024-.041-.008s-.019.033-.04-.011c.007.03.028.078.016.107-.025-.032-.064-.069-.066-.083-.008.015,0,.04-.025.014a.046.046,0,0,1,0-.031c-.027-.018-.035.016-.047.045-.027-.057-.056-.025-.087-.052,0,.034-.008.03-.017.028s-.019-.007-.009.034a.169.169,0,0,0-.009-.021c0,.029,0,.088-.006.094l-.011-.061c-.009-.045-.019-.041-.03-.037s-.012,0-.016,0c.008.02,0,.02,0,.019s-.01,0-.005.022l-.008.022c-.018.019.005.03-.019.042-.008,0-.013-.015-.016-.032s0-.035,0-.03c-.019-.03-.028-.01-.038.005h0a.015.015,0,0,0-.015-.005h0a.02.02,0,0,1-.014-.011l-.007-.048c-.01,0-.022.057-.017.078-.044-.035-.094.005-.112.034,0-.011,0-.025,0-.009s-.017.051-.025.02c-.008.019-.018-.033-.036-.037,0-.006,0,.007,0,.019a.162.162,0,0,0,0,.016c-.023-.032-.039-.017-.056,0s-.03.027-.052.008a.315.315,0,0,0,0-.047.183.183,0,0,0-.064.1.168.168,0,0,1,0-.054.041.041,0,0,0-.039.035h0c.022.041,0,.086-.012.075l0-.01c-.021,0-.017.028-.038.029-.016-.027.008-.014,0-.043-.013-.057-.036-.057-.049-.056s-.008,0-.009,0a.121.121,0,0,0,0,.05c-.008.011-.011,0-.014-.019s-.005-.024-.009-.022l-.023.143c0-.021-.023-.064-.013-.091-.031.013-.038.1-.052.153-.011-.012-.039.022-.049.025C84.188,77.915,84.191,77.916,84.194,77.917Zm-.138-.134.009.063-.005-.064Zm.409-.058c.009.012.007,0,0-.009a.082.082,0,0,1,0-.011A.114.114,0,0,0,84.465,77.726Zm.108-.106,0,0c0-.006,0-.008,0-.008A.037.037,0,0,0,84.573,77.62Zm-.08-.046s.008.052.016.033c-.007,0-.008-.008-.009-.017s0-.016-.006-.016Zm.9-.045.015.014-.008-.029Zm2.087-.444c0-.008,0,0,.009,0l-.023-.033S87.466,77.075,87.481,77.085Zm.107-.073c-.01-.023-.012-.014-.015,0s-.005.014-.013.007C87.582,77.043,87.583,77.016,87.588,77.012Zm.31.014c-.014-.025-.02-.023-.026-.02a.008.008,0,0,1-.007,0C87.877,77.019,87.889,77.028,87.9,77.026Zm-.028-.061a.141.141,0,0,0-.014-.036C87.84,76.932,87.845,76.944,87.869,76.965Zm-4.042-.583c0,.025.008.016.018.008s.017-.013.023,0c0-.013-.01-.017-.016-.017S83.833,76.379,83.828,76.381Zm.193-.01a.026.026,0,0,0,.005-.039c-.007.008-.009,0-.016,0Zm3.291-1.426.018.025.008-.025Zm1.25-1.22c.007.006.013.013.019,0s-.041-.036-.04-.005c0-.005.006-.007.009-.007S88.557,73.722,88.561,73.726Zm.4-.848,0-.007-.054-.03Zm2.888-3.872h0ZM91.834,69l-.016-.009Zm.016-.044h0l.006,0h0Zm.008,0c.01-.005.013-.007,0,0Zm-7.55,8.9a.015.015,0,0,1,0,.008Zm.369-.187,0,0h0S84.679,77.663,84.678,77.66Zm.056-.01a.014.014,0,0,1-.005.01Zm.326-.067,0,.007Zm3.24-3.651h-.008S88.3,73.93,88.3,73.932Zm3.484-4.951h0Zm-.008-.006h0s.008,0,.008.007A.01.01,0,0,1,91.777,68.975Zm-.014-.005h0a.01.01,0,0,1,.012.005Zm0,0h0Zm0,0,.063-.025-.063.025Zm25.7-.106h0Zm-71.3-7.081c-.1-.119-.207-.233-.313-.351.008,0,.017.008.019,0-.059-.069-.093-.1-.1-.1-.1-.118-.211-.235-.314-.352l-.03-.12c-.232-.285-.15-.048-.372-.348l.067.023-.178-.174a.033.033,0,0,0-.024.017l-.306-.345c0-.019.017-.023.075.025a.642.642,0,0,0-.267-.24l-.37-.417a.556.556,0,0,0-.1-.129s-.008,0-.01,0l-.492-.578a2.477,2.477,0,0,1-.121-.244c-.082-.077-.09-.063-.1-.051s-.008.019-.037,0l-.05-.058c.057.022,0-.087-.07-.166.057.086.037.1-.007.074l-.354-.416c-.009-.03-.012-.049,0-.042l.161.123c-.1-.081,0-.051-.117-.163l-.179-.075-.159-.187.088.076c-.207-.226.057-.086-.165-.313l-.1-.043c-.024-.039-.027-.067,0-.058a2.4,2.4,0,0,1-.2-.2l.02-.027c-.1-.09-.279-.188-.315-.332,0,.124.1.12.2.3,0,.024-.005.022-.014.022l-.212-.248a.648.648,0,0,0-.114-.135l-.22-.258-.057-.136-.076-.021-.014-.017c.032-.069-.135-.172-.243-.285l-.036-.041a.349.349,0,0,1-.026-.039c.091.057.125.03.062-.07.015.093-.081.018-.169-.048l-.145-.171c.057.016.167.086.165.03-.162-.1-.184-.284-.33-.334.1.155-.019.044-.1-.008l-.1-.119a.06.06,0,0,1,.022.008c.025.012.052.024.006-.054a.418.418,0,0,0-.157-.1l-.141-.164s0,0,0-.014a.936.936,0,0,0-.114-.122l-.269-.316c.01,0,.015-.013,0-.041l-.141-.124c.049.019.13.046.108-.02-.089-.01-.279-.312-.313-.331-.037,0-.01.023.019.049s.058.052.03.05a1.656,1.656,0,0,0-.2-.163l-.191-.225c.036.019.037,0,.038-.026s0-.044.031-.027c-.069-.118-.09-.009-.19-.177l.046.005a13,13,0,0,0-1.6-1.731l-.022-.025a3.862,3.862,0,0,0-.372-.6c.087.136-.047.027-.113-.043l-.054-.166a2.6,2.6,0,0,0-.5-.532.063.063,0,0,1,.007-.063c-.084-.168-.16-.144-.219-.2l-.04-.118-.058,0c-.146-.143-.3-.35-.218-.359-.06-.055-.119-.108-.077-.024a5.766,5.766,0,0,0-.664-.851c.089.136.059.134.029.163a.091.091,0,0,1-.046-.014l-.024-.027a.242.242,0,0,0-.1-.119c.024-.014-.051-.151.075-.025a12.572,12.572,0,0,0-1.041-1.355c-.085-.088-.074-.054-.128-.091A11.887,11.887,0,0,0,33,46.068c.029.085-.13.023-.272-.15-.207-.164.017-.113-.089-.3a2.01,2.01,0,0,1-.281-.3h.014a1.455,1.455,0,0,1-.338-.385l.019.018c-.077-.1-.137-.239-.228-.343-.09-.023-.268-.3-.366-.338-.006-.016.014,0,0-.032l-.051.014-.146-.224a1.039,1.039,0,0,1,.142.091c-.091-.142-.11-.135-.135-.129s-.039.009-.087-.034c-.159-.141-.109-.154-.152-.239.074.053.083.12.123.155.108.073-.063-.1-.041-.118-.026-.034-.09-.021-.174-.142-.077-.1-.281-.33-.211-.326-.094-.073-.172-.175-.244-.23.055.088.166.241.15.274-.067-.069-.2-.21-.195-.245l.059.053c-.059-.053-.215-.28-.17-.145l-.062-.186a1.708,1.708,0,0,1-.309-.323c.044-.03.178.047,0-.2l-.209-.182c-.089-.106-.1-.14-.059-.138-.263-.386-.428-.312-.613-.626.153.094.078-.011-.008-.152-.014,0-.042,0-.086-.056,0,.051.1.057.14.177-.011.049-.116-.108-.174-.163a10.322,10.322,0,0,0-.915-1.333c-.046.065-.167-.178-.259-.251.091-.012-.2-.23-.244-.368l-.019.1c-.16-.279-.43-.362-.472-.567-.092-.157.089.021.147.075-.081-.24-.477-.5-.518-.7a.04.04,0,0,0-.027.01c-.024.015-.054.03-.173-.087a3.63,3.63,0,0,1-.226-.435.932.932,0,0,1-.222-.266c.026,0,.071.055.11.091a3.063,3.063,0,0,0-.455-.515,5.878,5.878,0,0,0-.483-.717c-.163-.091-.265-.379-.36-.355.009-.005,0-.035-.007-.051a1.472,1.472,0,0,1-.287-.216l.08,0c.082-.013-.185-.273-.217-.352.007.047-.026,0-.064-.052s-.063-.076-.083-.069l-.118-.117c-.173-.2-.047-.007-.248-.256-.112-.143.025-.087.056-.033a1.554,1.554,0,0,0-.282-.373l-.013-.018c-.021-.036-.056-.084-.093-.135a.1.1,0,0,0-.025-.034.6.6,0,0,1-.072-.117l.068.009a1.326,1.326,0,0,0-.31-.289,10.036,10.036,0,0,0-.894-1.151c.044.041.061.037.014,0-.1-.116-.236-.229-.218-.257-.1-.107-.053-.127-.185-.31,0-.006-.031,0-.033.018-.175-.334-.552-.651-.784-1.032a.523.523,0,0,0,.113.074,8.975,8.975,0,0,0-.687-.739c.038.014.05-.005.11.054a2.385,2.385,0,0,0-.433-.477c.044.079.048.069.054.059s.01-.017.04.025c.069.163-.156-.062-.243-.2l.006-.01c-.147-.192-.176-.187-.323-.379-.036-.074-.006-.037.027,0s.054.058.051.03c.03-.089-.294-.47-.315-.515-.049-.036-.11-.1-.122-.076-.131-.14-.014-.095-.1-.2l-.331-.256-.1-.131c0-.038,0-.073.067-.008a2.6,2.6,0,0,0-.33-.339l-.488-.632-.11-.142c.008-.026-.007-.1.058-.041a8.006,8.006,0,0,1-.609-.829c.051.207-.222-.216-.316-.257l-.147-.2c-.011-.05.039-.039,0-.116-.251-.293-.45-.6-.663-.878,0,0,.006-.01.022,0a9.517,9.517,0,0,0-.745-.9.021.021,0,0,0,.013,0c.01-.005.02-.01.063.033-.113-.185-.132-.135-.178-.157l-.127-.178.074.045c-.177-.177-.256-.41-.47-.6.011-.021.053.025.086.052-.124-.147-.246-.317-.37-.453l-.106-.152a.275.275,0,0,1,.085.063.647.647,0,0,0-.192-.218l-.21-.309c0-.007,0-.011,0-.009l-.02-.02c-.312-.461-.614-.922-.9-1.383-.809-1.3-1.505-2.427-1.6-2.556-1.247-1.86-2.537-3.707-3.82-5.543S5.392,8.872,4.307,6.965C3.7,5.916.539,1.133,0,0,1.541,1.508,4.681,6.548,6.112,8.475c1.476,1.908,3.564,5.133,4.894,7.146.946,1.458,2.061,2.926,3.185,4.379l3.317,4.234c.339.434.7.875,1.075,1.325s.789.89,1.2,1.342c.828.905,1.7,1.828,2.567,2.752,1.744,1.844,3.447,3.718,4.871,5.4a72.117,72.117,0,0,1,4.325,5.822c-.008,0-.016-.008-.024-.012s-.02-.031-.057-.045a.2.2,0,0,0,.057.045c.014.036-.018.077.046.113,0,.01-.016.008-.029.007s-.034-.005-.019.025c.05.025.074-.01.073-.062l.216.32-.139-.131a.735.735,0,0,0,.163.165l.326.485,0,0a.46.46,0,0,1-.235-.3c-.089-.052-.055-.013-.034.027s.024.053-.013.052c.068.092.136.127.244.269.036-.007.024-.04.069-.013l.11.157c-.009.026-.028.047-.019.061l-.064-.058c.03.09.1.108.162.2-.091.047-.11-.14-.2-.157l-.032.081c.083.139.113.018.182.165l-.05-.008.085.083c.041-.008.088-.041.029-.114.137.027.062.066.166.181.075.021,0-.027.008-.052l.141.2c-.006.005-.013.008-.014.017-.023-.017-.085-.091-.045-.091-.078-.057-.1-.03-.113-.005s-.025.047-.073.011c.032.1.1.081.157.13-.016-.031.064,0,.07-.029a.694.694,0,0,1,.065.035l.048.069c-.014.046-.1.081-.019.174.038-.028.108.014.173.047l.1.148-.066-.03c0,.074.024.187.014.229.042.035.055.027.066.019s.022-.017.066.03c-.059-.025-.047.041-.017.082-.033-.09.1-.025.151.024.06.082.042.164.018.156l-.1-.054c.056.035-.022.026.038.079.05.008.135.033.2.041.053.048.03.1.052.113l-.1-.074c.093.107-.088.049.018.156l.075.017c.006.02,0,.034-.026.03.042.018.074.071.1.093l-.03.016c.056.041.176.081.147.155.052-.065-.04-.057-.058-.147.027-.065.115.066.137.082-.094.017.079.123.117.18-.008.041,0,.074-.008.1l.075.007c-.1.05.108.107.118.181-.06-.025-.1-.008-.087.041.039-.075.148.037.2.037l.019.028c0,.031-.039.024-.079.016s-.073-.013-.086.008c.107.04.047.14.161.156-.033-.091.063,0,.114.006.036.057.019.051,0,.046s-.039-.009-.028.029c.038.037.121.068.125.024l.13.179c-.039-.015-.093-.112-.1-.071a.178.178,0,0,0,.111.085l.093.128c-.03-.01-.053-.01-.059.017l.078.056c-.036-.007-.1-.015-.106.019.077,0,.124.146.147.155.064,0-.053-.049,0-.05.046.048.119.065.17.115l.018.022a.207.207,0,0,1,.03.05c-.046-.028-.059-.01-.07.007s-.017.026-.038.019c.014.058.077,0,.1.081h-.038a2.924,2.924,0,0,0,.741.813l.01.012c-.019.058.038.148.1.292-.026-.066.055-.019.087.014l-.015.084c.021.091.159.178.248.242,0,.017-.017.025-.031.034.012.084.091.063.124.087l-.01.059.051,0c.077.064.136.162.058.173.034.025.068.048.062.007a1.143,1.143,0,0,0,.272.4c-.026-.065,0-.066.04-.085H36.6l.063.083c-.013.02-.014.055-.069.008.029.2.282.416.422.637.043.041.046.024.08.039.024.159.226.3.3.458.008-.043.129-.024.19.058.126.069-.059.062-.036.154a.435.435,0,0,1,.139.136h-.012a.334.334,0,0,1,.159.177l-.012-.008c.03.05.031.117.074.166.075,0,.13.135.2.148,0,.008-.014,0-.015.019l.052-.012.047.108a.458.458,0,0,1-.094-.036c.027.069.047.062.073.056a.076.076,0,0,1,.067.012c.091.062.04.073.047.115-.048-.022-.03-.058-.053-.073-.069-.03.019.049-.008.06.011.016.075,0,.1.061s.129.152.065.156c.059.03.091.079.138.1-.02-.041-.06-.113-.033-.133.033.032.1.095.086.113l-.035-.023c.035.023.1.127.1.06l-.012.092c.061.014.114.085.169.139-.052.021-.149-.005-.075.108l.128.075c.044.047.041.063,0,.067.1.179.284.121.341.269-.108-.034-.076.014-.047.08a.068.068,0,0,1,.059.02c.016-.026-.071-.019-.065-.08.03-.027.07.045.1.069-.045.163.275.4.361.615.067-.041.09.077.149.1-.09.016.1.1.091.171l.055-.056c.047.132.268.146.232.251.027.075-.075,0-.109-.024-.014.121.258.215.222.32.037,0,.068-.047.158.02.015.075.074.215.051.208.056.047.091.051.108.118-.024,0-.046-.02-.069-.036a.72.72,0,0,0,.234.226c-.021.071.135.218.187.333.119.03.108.174.2.151-.009,0-.01.019-.011.026.059.028.144.036.188.083l-.074.008c-.08.016.071.125.072.164.01-.023.022,0,.04.02s.03.036.052.03l.065.05c.091.086.04,0,.141.109.056.062-.053.049-.064.024.013.066.076.114.135.165l.007.008a.267.267,0,0,0,.041.06s0,.009.011.016a.1.1,0,0,1,.028.052l-.061,0c.03.04.174.128.191.116a2.15,2.15,0,0,0,.438.5c-.027-.015-.043-.011-.011,0,.053.049.143.093.116.111.062.044.007.062.067.143-.006,0,.028,0,.037-.014.048.157.291.281.379.456a.285.285,0,0,0-.082-.025l-.014-.014c-.014.005,0,.008.014.014a2.409,2.409,0,0,0,.388.311H43.2a.084.084,0,0,1-.061-.016.626.626,0,0,0,.241.2c-.015-.038-.022-.031-.031-.025s-.015.009-.028-.008c-.008-.079.125.014.16.075l-.008.006c.071.085.1.078.17.163.008.034-.008.019-.025,0s-.031-.025-.037-.01c-.058.052.113.217.119.237.033.014.069.038.087.025.074.058-.019.05.022.095l.29.124c-.011,0-.015.014-.021.027s-.021.041-.065.015a1.36,1.36,0,0,0,.4.241,2.122,2.122,0,0,0,.208.213c-.013.022-.021,0-.035-.014s-.02-.025-.036-.024l.014.09c-.048-.051-.061-.03-.076-.01a.036.036,0,0,1-.054.016,1.874,1.874,0,0,1,.288.367c.011-.065.062-.016.116.032s.088.076.119.06c.124.123-.006.092.019.148.142.122.229.259.345.375a.022.022,0,0,1-.019,0,2.234,2.234,0,0,0,.42.368c-.02,0-.025.019-.063,0,.036.062.064.059.091.057s.06-.005.1.078l-.065-.014c.111.068.112.18.254.251-.017.013-.042-.006-.065-.014a1.3,1.3,0,0,0,.291.237c-.014.023-.046.021-.093-.007.049.1.151.065.2.157.014.021.022.067.014.071a1.5,1.5,0,0,1,.221.183c-.014.022.005.058.025.12a13.415,13.415,0,0,0,1.239,1.3c0,.058-.043.031-.08.005s-.063-.046-.066-.013c.06-.035.085.065.225.186l0,.011c.065.05.052.1.128.152l.014-.011c.1.044.048.185.16.178v.073c.129.026.069.113.2.16l-.02,0c.063.121.275.179.256.249.092.085.2.18.27.168,0,.031-.048.036-.078.032a11.73,11.73,0,0,0,1,.965c0,.02-.025.008-.044,0,.233.152.278.422.526.489h0l.093.114a.039.039,0,0,0,0,.02.157.157,0,0,1,.034.019c1.106,1.431,1.591,2.557,1.11,2.677a.836.836,0,0,1-.224.051C50.992,66.906,50.149,66.34,46.168,61.781Zm-2.31-2.67c.08.025-.154-.158-.177-.223C43.687,58.951,43.81,59.058,43.857,59.111Zm1.015-1,.014.015.051-.037Zm-2-.111a.377.377,0,0,1,.073.086l.014-.045a.256.256,0,0,0-.091-.071C42.863,57.971,42.863,57.98,42.875,58Zm.168-1.8c0-.012.058-.015,0-.058C43.094,56.205,43,56.158,43.043,56.2ZM39.891,52.28l.056.046-.019-.049Zm-6.72-8.82c.02.025.067.05.061.017-.022-.017-.02-.025-.03-.041Zm-.3-.4c.02-.032-.047-.081-.068-.107h-.008C32.751,42.952,32.874,43.027,32.868,43.059Zm-.224-.4a.12.12,0,0,0-.03-.036A.134.134,0,0,0,32.644,42.659Zm-.473-.718a.1.1,0,0,0-.02-.077h0C32.1,41.864,32.159,41.916,32.171,41.941Zm-.18-.114c.036.059.06.068.06.019a.233.233,0,0,0-.053-.02Zm-4.56-2.7.041,0-.1-.108ZM21.26,31.1c.013-.006,0-.017-.026-.031Zm-.468-.64c-.058-.073-.045-.073-.031-.072s.022,0-.016-.047C20.754,30.366,20.687,30.357,20.792,30.463Zm-3.67-4.491.06-.025-.026-.036Zm110.386,40.56v0Zm5.192-1.045-.036,0A.046.046,0,0,1,132.7,65.486ZM96.55,59.713a8.927,8.927,0,0,1-2.075-.323,12.521,12.521,0,0,1-2.214-.856A26.805,26.805,0,0,1,88.5,56.19c-1.438-1.035-2.978-2.106-4.546-3.131s-3.148-2.022-4.579-3.022c-1.845-1.273-4.115-2.534-6.337-3.88s-4.435-2.723-6.236-4.1a69.584,69.584,0,0,1-5.579-4.921.133.133,0,0,1,.027.008c-.022-.034,0-.084-.069-.106,0-.026.08,0,.043-.043-.055-.013-.075.029-.063.081l-.284-.275.168.1a.713.713,0,0,0-.2-.129l-.42-.428,0,0c.118.014.3.2.295.259.167.056-.059-.076.034-.093-.086-.08-.163-.1-.3-.224-.035.014-.018.047-.068.027l-.137-.14c0-.03.019-.056.009-.069.025.012.05.035.075.047-.045-.087-.124-.09-.2-.172.085-.069.135.122.228.124l.019-.091c-.108-.127-.119,0-.213-.134l.052,0-.1-.069c-.041.017-.082.059-.009.124-.144,0-.074-.056-.2-.153-.078-.008.008.029,0,.056l-.175-.179a.037.037,0,0,0,.011-.02c.025.013.1.076.06.084.087.042.1.013.114-.017s.019-.054.075-.026c-.05-.1-.117-.063-.181-.1a.115.115,0,0,0-.036-.031.12.12,0,0,0,.036.031c.021.03-.064.017-.067.044a.4.4,0,0,1-.072-.024l-.06-.061c.008-.049.093-.1-.008-.183-.035.036-.113.007-.185-.014l-.13-.133.073.019c-.009-.078-.054-.19-.052-.234-.049-.029-.061-.018-.07-.008s-.02.023-.072-.017c.064.014.042-.052.005-.088.047.086-.094.044-.158,0-.075-.073-.069-.161-.042-.157l.1.036c-.06-.025.019-.031-.048-.073l-.093,0a1.1,1.1,0,0,0-.118,0c-.063-.04-.047-.095-.072-.108l.115.056c-.113-.091.081-.068-.044-.157l-.079,0c-.009-.02,0-.036.02-.037-.045-.011-.086-.059-.119-.075l.027-.023c-.064-.03-.193-.05-.176-.13-.043.077.05.051.084.14-.017.073-.128-.045-.153-.057.093-.036-.1-.113-.149-.163a.932.932,0,0,0-.008-.1l-.078.008c.095-.07-.126-.088-.147-.163.063.013.1-.011.08-.059-.018.052-.076.035-.13.017a.218.218,0,0,0-.083-.017l-.025-.025c-.008-.06.141-.005.165-.056-.116-.02-.072-.133-.19-.129.032.058-.009.043-.056.028a.206.206,0,0,0-.062-.013c-.045-.052-.029-.049-.008-.047s.042,0,.025-.035c-.045-.03-.134-.046-.131,0l-.161-.158c.042.008.113.1.116.054a.177.177,0,0,0-.127-.065l-.116-.113c.033,0,.057,0,.058-.029l-.089-.043c.039,0,.1,0,.106-.037-.079.015-.15-.128-.175-.131-.066.013.062.04.01.049-.054-.04-.13-.043-.191-.085l-.022-.02a.212.212,0,0,1-.039-.046c.05.019.061,0,.07-.019s.013-.03.036-.026c-.011-.026-.029-.025-.047-.025A.055.055,0,0,1,57,32.8l.038-.008a2.9,2.9,0,0,0-.885-.692l-.012-.012c.009-.063-.063-.142-.148-.278.037.063-.053.029-.091,0l0-.088c-.037-.087-.19-.152-.292-.2,0-.017.013-.028.026-.039-.025-.082-.1-.049-.141-.067v-.062l-.052.011c-.089-.052-.164-.141-.086-.165-.039-.019-.077-.036-.065.005a1.17,1.17,0,0,0-.34-.358c.036.063.011.069-.026.093l-.014,0-.077-.075c.01-.023.007-.058.068-.019-.059-.2-.346-.38-.519-.583-.05-.034-.05-.016-.087-.026-.048-.157-.273-.271-.372-.419,0,.045-.125.042-.2-.03-.137-.052.051-.072.014-.161a.463.463,0,0,1-.161-.118l.012,0a.337.337,0,0,1-.186-.157l.013.007c-.038-.045-.049-.113-.1-.155-.075.006-.152-.119-.227-.122,0-.008.013,0,.013-.019l-.05.018-.063-.1a.42.42,0,0,1,.1.025c-.039-.067-.058-.057-.084-.047a.074.074,0,0,1-.067,0c-.1-.05-.051-.069-.063-.11.051.017.038.054.063.067.075.02-.026-.047,0-.061-.012-.015-.075.006-.113-.048s-.152-.135-.09-.147c-.063-.024-.1-.068-.15-.084.025.039.075.108.051.13-.038-.028-.113-.082-.1-.1l.038.019c-.038-.019-.113-.116-.113-.047v-.1c-.063-.006-.126-.072-.189-.121.048-.027.149-.011.061-.116l-.139-.059c-.05-.044-.051-.061-.013-.068-.128-.167-.3-.089-.378-.231.113.022.075-.023.036-.086a.065.065,0,0,1-.062-.014c-.012.029.075.012.076.073-.025.03-.075-.037-.113-.056.021-.171-.33-.371-.446-.575-.06.047-.1-.067-.163-.09.086-.025-.113-.091-.115-.16l-.047.063c-.066-.127-.287-.119-.266-.227-.038-.071.075-.007.111.012,0-.121-.288-.186-.266-.3-.036.008-.06.056-.16,0-.026-.074-.1-.206-.08-.2-.063-.04-.1-.041-.125-.1.024-.005.049.017.075.029a.769.769,0,0,0-.265-.2c.011-.072-.165-.2-.233-.309-.122-.018-.132-.162-.224-.129.007,0,.007-.02.006-.028-.061-.021-.147-.022-.2-.063l.071-.015c.078-.024-.09-.118-.1-.155-.007.023-.022,0-.042-.016s-.036-.032-.056-.024l-.073-.043c-.1-.075-.04.006-.152-.094-.063-.058.045-.053.058-.03-.021-.065-.09-.108-.155-.153l-.007-.008a.318.318,0,0,0-.048-.056s-.005-.008-.014-.014a.138.138,0,0,1-.034-.051l.059-.008a.479.479,0,0,0-.2-.1,2.336,2.336,0,0,0-.5-.466c.028.013.042.007.009,0-.058-.046-.152-.082-.128-.1-.066-.039-.015-.059-.085-.135.006-.005-.028,0-.034.015-.069-.152-.323-.256-.431-.423a.327.327,0,0,0,.081.019,2.549,2.549,0,0,0-.42-.279l.023,0a.085.085,0,0,1,.062.011.706.706,0,0,0-.262-.182c.019.035.025.028.033.022s.013-.01.029.007c.019.076-.123-.006-.165-.064l.007-.005c-.081-.08-.108-.071-.189-.15-.014-.033,0-.019.024-.006s.034.022.037.008c.05-.052-.139-.2-.147-.223-.034-.011-.073-.033-.087-.02-.081-.053.01-.049-.036-.091l-.3-.106c.01,0,.012-.014.016-.028s.015-.041.062-.016a1.476,1.476,0,0,0-.418-.214,2.36,2.36,0,0,0-.23-.2c.007-.023.018-.007.033.01a.049.049,0,0,0,.039.022l-.025-.086c.053.047.063.026.075.006s.019-.03.052-.016a2.116,2.116,0,0,1-.332-.339c0,.061-.058.017-.118-.027s-.1-.07-.124-.052c-.136-.114-.007-.088-.038-.141a4.412,4.412,0,0,1-.385-.349.02.02,0,0,1,.019,0,2.593,2.593,0,0,0-.451-.346c.019,0,.022-.018.06,0-.044-.059-.07-.057-.1-.054s-.056.006-.1-.073l.065.014c-.116-.064-.133-.172-.278-.237.014-.013.041.005.064.013a1.519,1.519,0,0,0-.31-.223c.009-.022.04-.019.089.006-.061-.1-.152-.061-.208-.147-.018-.02-.031-.064-.024-.068a1.712,1.712,0,0,1-.235-.172c.01-.022-.014-.056-.041-.114-.429-.417-.854-.859-1.337-1.248-.005-.055.035-.029.073,0s.064.045.063.014c-.051.031-.087-.063-.235-.18l0-.009c-.067-.049-.063-.1-.14-.147l-.012.01c-.1-.045-.072-.175-.174-.173l-.01-.068c-.124-.028-.081-.107-.208-.155l.02,0c-.077-.115-.28-.177-.272-.241-.1-.082-.211-.176-.273-.168,0-.028.039-.031.067-.026-.351-.312-.709-.681-1.064-.937-.005-.019.02-.006.039,0-.235-.152-.317-.4-.554-.478h0l-.1-.11c0-.005,0-.01,0-.018a.143.143,0,0,1-.034-.019c-1.227-1.374-1.86-2.4-1.456-2.459.157-.023.235-.141.962.406a60.509,60.509,0,0,1,4.829,4.408l.344.33c-.007,0-.017-.008-.019-.005.065.066.1.1.11.092l.351.323.047.113c.262.262.149.042.406.318l-.067-.02.2.159a.029.029,0,0,0,.019-.016l.344.316c0,.019-.014.023-.076-.021a.718.718,0,0,0,.29.218c.138.129.278.257.415.384a.676.676,0,0,0,.112.118s.008,0,.011-.005q.282.263.564.522a2.43,2.43,0,0,1,.152.224c.091.068.1.055.1.042s0-.019.038,0l.056.052c-.058-.018.017.082.093.154-.069-.08-.051-.09,0-.072l.406.377c.013.027.018.046.005.041l-.17-.105c.1.066,0,.046.133.145l.185.062.182.169-.1-.068c.233.2-.043.086.206.29l.1.035c.03.036.037.062.008.055a2.745,2.745,0,0,1,.226.178l-.015.029c.114.08.3.162.355.3-.017-.12-.113-.109-.242-.279-.008-.022,0-.022.011-.022l.241.224a.792.792,0,0,0,.13.122l.252.234.075.128.078.014.017.015c-.022.07.156.158.276.258l.041.038a.407.407,0,0,1,.032.036c-.1-.048-.127-.019-.052.075-.028-.091.078-.025.173.033l.166.154c-.058-.01-.175-.07-.165-.016.171.08.219.263.369.3-.12-.144.012-.044.1,0l.12.107a.12.12,0,0,1-.024-.007c-.026-.009-.057-.019,0,.053a.451.451,0,0,0,.171.087l.163.145s0,0,0,.013a.921.921,0,0,0,.133.108l.313.279c-.011,0-.014.014,0,.041l.158.106c-.052-.014-.135-.03-.1.03.091,0,.323.275.36.29.075,0-.121-.091-.063-.092a1.716,1.716,0,0,0,.224.138l.224.2c-.039-.014-.037.008-.035.03s.006.044-.026.031c.086.108.089,0,.213.152h-.045a13.343,13.343,0,0,0,1.846,1.52l.026.022a3.423,3.423,0,0,0,.464.546c-.108-.123.043-.034.119.026l.08.156a2.647,2.647,0,0,0,.583.455.064.064,0,0,1,0,.063c.11.156.182.119.25.163l.058.112.058,0c.169.119.355.3.274.324.067.044.134.087.086.017a5,5,0,0,0,.8.735c-.112-.122-.082-.124-.054-.159a.09.09,0,0,1,.047.006l.028.023a.253.253,0,0,0,.119.1c-.021.019.076.141-.072.04a12.459,12.459,0,0,0,1.278,1.166c.1.073.084.041.145.068a11.735,11.735,0,0,0,.915.839c-.042-.08.129-.049.3.1.238.124,0,.118.138.288a1.876,1.876,0,0,1,.334.249l-.014,0a1.422,1.422,0,0,1,.406.323l-.023-.014c.095.091.178.216.287.3.095,0,.322.248.427.268.008.015-.016,0,0,.033l.05-.024.185.2a.938.938,0,0,1-.16-.065c.117.129.134.116.159.1s.037-.016.093.017c.185.113.136.135.194.214-.085-.04-.1-.107-.151-.134-.121-.052.081.091.061.112.032.03.1,0,.2.11.095.09.339.279.268.29.107.055.2.144.285.184-.072-.076-.208-.213-.2-.249.078.058.235.174.238.208l-.069-.042c.069.042.269.237.2.109l.1.177a1.806,1.806,0,0,1,.377.252c-.038.041-.191,0,.036.2l.251.131c.111.086.129.117.086.125.343.324.5.21.749.482-.176-.058-.079.031.037.151.014,0,.043-.008.1.035-.014-.051-.113-.032-.177-.144,0-.054.14.08.211.12.144.308.828.731,1.193,1.123.034-.079.2.138.312.188-.091.036.247.185.32.314l0-.109c.218.244.51.257.591.456.124.136-.094,0-.164-.039.129.227.582.386.665.587.042-.008.024-.1.218.025a3.684,3.684,0,0,1,.316.389.84.84,0,0,1,.279.213c-.028.006-.084-.036-.131-.063a2.93,2.93,0,0,0,.565.407,5.269,5.269,0,0,0,.635.608c.187.046.351.312.443.26-.006.007.01.035.019.05a1.4,1.4,0,0,1,.34.135l-.083.021c-.081.038.245.225.295.3-.017-.044.026-.006.074.033s.082.063.1.05l.146.086c.219.149.048-.005.311.186.146.111-.007.1-.051.051a1.492,1.492,0,0,0,.374.292l.017.014a1.65,1.65,0,0,0,.126.108.1.1,0,0,0,.034.026.55.55,0,0,1,.1.1l-.073.012a1.258,1.258,0,0,0,.385.2,9.231,9.231,0,0,0,1.178.892c-.054-.028-.071-.019-.014,0,.128.086.3.159.284.194.131.075.084.113.259.257,0,.009.033-.005.03-.027.256.285.714.49,1.039.8a.592.592,0,0,0-.133-.04l-.035-.022c-.011.01.007.016.035.022a8.065,8.065,0,0,0,.871.538.111.111,0,0,0-.03,0,.127.127,0,0,1-.095-.021,2.293,2.293,0,0,0,.552.349c-.064-.068-.066-.056-.069-.044s-.007.019-.046-.013c-.108-.145.173.014.3.119l0,.011c.2.147.226.131.423.277.054.061.015.036-.027.01s-.072-.041-.06-.014c-.008.1.416.378.449.416.059.02.136.06.143.036.168.1.038.091.147.168l.4.146.132.1c.014.037.022.074-.065.031a2.276,2.276,0,0,0,.42.231l.654.477.148.107c0,.03.032.1-.049.062a8.227,8.227,0,0,1,.829.632c-.107-.191.283.138.39.145l.2.145c.024.047-.03.055.033.117.335.2.618.443.909.645,0,0,0,.013-.021.006a8.749,8.749,0,0,0,1,.635c-.023.005-.01.036-.085,0,.125.11.157.1.19.1a.1.1,0,0,1,.032,0l.177.132-.088-.017a6.7,6.7,0,0,0,.647.426c-.005.025-.062-.005-.1-.019.165.1.339.223.5.312l.151.112a.268.268,0,0,1-.1-.03.584.584,0,0,0,.257.144l.3.23c0,.007,0,.01,0,.008l.028.014c.448.342.887.688,1.308,1.041,1.2,1,2.227,1.859,2.355,1.954a35.069,35.069,0,0,0,5.654,3.627,13.367,13.367,0,0,0,3.03,1.063,13.149,13.149,0,0,0,3.167.257,11.126,11.126,0,0,0,3.849-.963,12.808,12.808,0,0,0,2.113-1.195c.29-.213.554-.407.769-.581s.386-.317.513-.409a6.761,6.761,0,0,1-1.523,1.593,10.568,10.568,0,0,1-2.6,1.456,12.188,12.188,0,0,1-2.962.737,14.636,14.636,0,0,1-1.717.1C96.99,59.732,96.757,59.725,96.55,59.713ZM79.244,48.181l.036.026.018-.074Zm-4.725-3.258c-.016-.019.055-.033-.076-.108C74.586,44.921,74.411,44.844,74.519,44.923Zm-8.763-7.008.126.084-.085-.092Zm-4.441-.734a.187.187,0,0,0-.067-.032C61.257,37.165,61.274,37.176,61.315,37.182Zm-.788-.914c.026,0,.051.017.065.005-.025-.027-.044-.041-.056-.041S60.522,36.243,60.527,36.267Zm-.1,0c.054-.01-.017-.053-.033-.076A.092.092,0,0,0,60.422,36.269Zm-.838-1c.065,0-.089-.061-.087-.1C59.482,35.212,59.558,35.25,59.583,35.272Zm-.525-.455c.025.013.025.021.037.037l.028-.032a.1.1,0,0,0-.054-.024C59.059,34.8,59.054,34.8,59.059,34.816Zm-8.113-7.86.037-.008-.063-.041Zm-3.354-3.289c.013-.005,0-.008-.016-.012ZM47.34,23.4c-.062-.055.035-.015-.012-.056C47.333,23.357,47.275,23.365,47.34,23.4Zm-.2-1.834c.052.046.135.1.09.035a.441.441,0,0,1-.083-.079Zm-1.918.047.059-.024-.015-.014Zm1.095-.811c-.016-.058-.152-.153-.2-.2l-.011,0C46.062,20.6,46.288,20.748,46.318,20.8ZM44.1,57.056a.029.029,0,0,1,.018.007Zm65.37-1.718a9.1,9.1,0,0,1-2.868-2.927,12.037,12.037,0,0,1-1.588-3.784c-.047-.207-.095-.417-.143-.632-.031-.218-.063-.438-.1-.662a13.276,13.276,0,0,1-.127-1.392,14.646,14.646,0,0,1,.2-2.932c.076-.448.173-.894.289-1.333-.1-.057-.194-.114-.3-.172l-.806-.489c-.151-.089-.311-.185-.472-.3a1.525,1.525,0,0,0-.2-.125l-.177-.1c-.237-.138-.469-.265-.712-.423l-.185-.128a2.243,2.243,0,0,1-.242-.213c-.145-.168-.279-.348-.423-.529a1.6,1.6,0,0,1-.131-.265l-.1-.2c-.06-.134-.121-.264-.18-.393a2.936,2.936,0,0,1-.241-.8,4.782,4.782,0,0,1-.113-.992c.009-.321.035-.627.07-.92a5.165,5.165,0,0,1,.235-.836,3.206,3.206,0,0,1,.342-.759.037.037,0,0,1,.008.016c-.008.005-.009.016.008.038a.054.054,0,0,0-.008-.038c.019-.014.082,0,.06-.041.026,0,.044.047.066.025a.114.114,0,0,0-.113-.038l.1-.164,0,.1a.16.16,0,0,0,.009-.117l.152-.244.005,0a.108.108,0,0,1-.068.173c.025.055.033.039.047.024s.027-.025.059,0c.024-.049,0-.1.034-.174-.034-.024-.054-.015-.065-.045l.05-.08c.03.006.062.017.069.012,0,.015,0,.029,0,.045.054-.023.011-.074.045-.113.112.06-.035.076.018.135l.1.02c.054-.058-.074-.076,0-.125l.031.036.006-.058c-.038-.029-.1-.059-.119-.018-.082-.093.006-.046.031-.115-.022-.031-.026-.023-.033-.014a.019.019,0,0,1-.02.008l.079-.09a.1.1,0,0,0,.025.009c0,.015-.02.055-.048.028.01.1.135.06.141.127.069-.019,0-.067,0-.1-.018.009-.05-.044-.077-.049a.207.207,0,0,1-.016-.044l.027-.031c.05.013.149.076.169.022a.2.2,0,0,1-.084-.12l.058-.066.019.046a.946.946,0,0,0,.1,0,.453.453,0,0,1,.095,0c0-.058-.07-.037-.05-.091a.055.055,0,0,0,.085.02c-.056.015-.089-.073-.084-.109a.1.1,0,0,1,.124,0l.019.065c0-.019.005-.015.016-.01s.025.008.026-.01l-.1-.145c.006-.036.064-.013.063-.028l.005.069c.014-.03.039-.013.063,0s.05.034.06,0l-.037-.053a.053.053,0,0,1,.045.023c-.013-.029.011-.048.01-.067l.034.025c0-.038-.049-.126.034-.095-.092-.049-.023.024-.088.027-.074-.03-.02-.081-.021-.1.077.075.053-.044.076-.068.041.014.065.014.091.021l-.045-.058c.064.051.06.017.059-.018s0-.046.025-.042a.109.109,0,0,0,.091.075c-.091-.045-.059-.108-.093-.152l.012-.011c.053.013.066.1.124.135-.031-.076.092-.009.037-.095-.059.008-.04-.051-.063-.09.03-.019.033,0,.042.014a.039.039,0,0,0,.04.024.093.093,0,0,0-.055-.095l.077-.067c.009.028-.041.052,0,.067.026-.018.021-.043.007-.072l.055-.047a.09.09,0,0,0,.049.052l0-.051a.214.214,0,0,0,.078.091c-.047-.064.052-.068.045-.086s-.022-.018-.024-.008,0,.019-.017,0c.014-.027-.014-.082,0-.113l.01-.009a.035.035,0,0,1,.025-.014c.005.056.069.06.084.1.02,0,.008-.015,0-.031s-.016-.033.013-.031l.022.032a.518.518,0,0,0,.268-.41l.006-.005c.058.035.1.015.192.011-.041,0-.042-.052-.03-.069l.076.041c.063.011.069-.077.079-.134a.2.2,0,0,1,.042.04c.061.019.009-.057.012-.078l.053.03-.025-.045c.016-.046.068-.062.112.01,0-.02.008-.042-.024-.052.061.02.151-.035.194-.095-.04,0-.052-.025-.083-.068l-.005-.013.036-.026c.02.019.048.033.036.065.141.049.2-.1.31-.136.013-.024,0-.033,0-.059.113.044.155-.078.249-.078-.035-.025-.058-.13-.015-.152.016-.089.063.084.124.1a.082.082,0,0,1,.058-.069l0,.012c.008-.047.04-.086.083-.067l0,.007a.093.093,0,0,1,.044.008c.02.007.041.014.054.006-.014-.068.066-.052.06-.113.006.005,0,.012.015.022l-.018-.053.064.011a.27.27,0,0,1-.008.071c.07.018,0-.058.02-.1s.041,0,.069.018c0,.019-.015.014-.025.01s-.013-.006-.015,0c0,.028.006.028.018.027a.021.021,0,0,1,.024.014c.008,0-.01-.069.023-.066s.078-.039.09.023c.011-.038.037-.041.045-.074-.023,0-.064-.006-.081-.043.016-.014.048-.042.061-.018l-.01.02c.01-.02.069-.02.025-.066l.06.063c0-.052.041-.055.07-.074.019.061.011.134.074.135l.035-.074c.025-.011.036,0,.041.037.046.007.06-.036.072-.077s.022-.094.067-.073c-.014.08.012.08.047.093,0-.013,0-.037.01-.042-.008-.016-.01,0-.014.008s-.012.025-.029,0c-.017-.044.024-.036.035-.055.052.081.116.067.183.053a.2.2,0,0,1,.151.01c-.013-.054.007-.053.026-.053s.026,0,.033-.012c0,.051.019.038.039.026s.036-.019.051.005l-.025-.089c.03.02.051-.007.07-.033s.043-.067.07-.009c.036.025-.008.067-.021.084.026.046.057.024.086,0s.059-.045.083.012c0-.036-.014-.094.028-.126.036.039.1.086.1.1.027-.018.035-.046.066-.014,0,.023-.016.026-.025.036.048.024.086-.015.129-.047.025.069.109.034.162.069.016-.041.036-.036.054-.03s.035.011.042-.036a.075.075,0,0,0,.007.026c.023-.03.045-.1.071-.1l-.014.068c-.008.05.018.049.041.049s.026,0,.032.009c-.005-.023,0-.021.012-.02s.022,0,.025-.021l.033-.019c.051-.014.009-.034.071-.039.016,0,.018.018.014.036s-.017.04-.022.036c.025.037.056.019.087.006h0a.048.048,0,0,0,.03.009s0,0,.008,0a.026.026,0,0,1,.024.016l-.015.052c.019,0,.085-.052.087-.075a.363.363,0,0,0,.268.025l0,0c-.008.008-.008.018,0,.005.029-.005.069-.042.064-.009.032-.015.019.039.058.052,0,.005,0-.008.007-.022a.093.093,0,0,0,0-.016c.027.039.07.031.115.024a.128.128,0,0,1,.122.019c-.008,0-.025.025-.035.039h-.008c0,.014,0,.009.008,0a.489.489,0,0,0,.208-.05c-.013.019-.017.04-.036.047a.133.133,0,0,0,.132-.024c-.013-.017-.014-.006-.017,0s0,.016-.012.013c-.019-.05.052-.075.078-.055l0,.009a.091.091,0,0,0,.048,0,.094.094,0,0,1,.051,0c.017.033-.027.005-.027.036-.015.075.082.073.088.083.016-.013.035-.02.041-.039.04,0,0,.047.024.052l.142-.089c-.011.017.006.067-.032.079.074.016.146-.046.207-.069.016.018.1.018.121.025,0,.019-.008.015-.016.011s-.014-.008-.021,0l.017.052c-.048-.013-.022.061-.059.076.047-.008.124.045.173.077,0-.047.025-.043.053-.039s.051.006.065-.021c.069.019,0,.062.021.086a.816.816,0,0,1,.192.072.034.034,0,0,1-.008.011c.064.008.141.063.226.042-.01.009-.012.021-.031.023.021.021.034.009.047,0s.028-.027.052.009l-.032.016a.078.078,0,0,1,.057.028.085.085,0,0,0,.077.028c-.008.014-.021.012-.032.016.049.013.092.045.149.035-.005.018-.02.027-.044.029.014.021.033.016.052.012s.036-.008.049.01.014.031.01.035c.034-.007.088.025.114.029-.006.017.005.03.017.058a5.531,5.531,0,0,0,.612.377c0,.03-.019.022-.036.015s-.029-.011-.03.006c.026-.027.039.017.1.052l0,.006c.03.014.025.041.06.053l.006-.007c.045.006.025.079.075.06l0,.033c.058-.005.032.042.091.047H111.5c.03.047.124.047.118.08.043.025.09.059.119.05,0,.014-.02.019-.032.019.141.119.28.262.424.359,0,.008-.009,0-.017,0,.1.055.111.168.206.2l.036.047v.008l.013.009a3.575,3.575,0,0,1,.315.479.257.257,0,0,0,.072-.016c.025-.034.01-.029-.008-.025s-.025.005-.03,0l.2-.044a.027.027,0,0,0,.008.018c-.021.014-.1.038-.085.005-.132.083.033.1-.058.158.089.012.1-.055.152-.083-.03,0,.019-.056,0-.071a.391.391,0,0,1,.05-.041l.069-.015c.028.03.024.119.124.091-.007-.044.051-.082.1-.121l.151-.019-.048.041c.053.036.148.067.174.094.09-.037-.01-.059.089-.086-.041.036.01.058.052.052-.078-.015.021-.091.08-.113.085-.01.135.044.119.06l-.072.05c.019-.011.021,0,.024.005s.011.016.041.005l.115-.143a.087.087,0,0,1,.069.008c.014.008.025.015.035.012l-.1.041c.056-.008.057.014.057.036s0,.048.061.035l.044-.051a.022.022,0,0,1,.01.036c.031-.022.082-.018.11-.03l0,.033c.053-.022.137-.1.174-.033-.012-.047-.029-.039-.056-.031a.094.094,0,0,1-.072,0c-.031-.058.1-.058.121-.066-.033.086.12.006.178.006.023.031.047.044.062.063l.041-.058c-.01.063.032.044.08.025s.074-.028.1-.01c-.046.031-.056.075-.016.095-.03-.078.1-.093.128-.137l.029,0c.038.037-.081.092-.07.145a.082.082,0,0,1,.091-.008.069.069,0,0,0,.092-.019c-.075-.032.032-.051.063-.086.1.014-.031.035.032.07.042-.008.108-.052.082-.084l.182.012c-.032.021-.121,0-.1.036a.134.134,0,0,0,.113-.034l.13.009c-.023.017-.036.036-.023.057l.077-.021c-.025.021-.065.066-.05.093.026-.037.08-.025.121-.013.025.008.047.015.054.011.019-.027,0-.024-.015-.021s-.029.006-.014-.012c.054,0,.106-.046.165-.049l.024,0a.12.12,0,0,1,.046.013c-.074.026-.011.075-.048.1.019.014.03,0,.042-.011a.04.04,0,0,1,.062-.006l-.023.03a2.758,2.758,0,0,0,.436.066,1.379,1.379,0,0,0,.461-.008l.013,0c.015.061.1.088.207.157-.049-.032.029-.053.066-.052l.028.077c.058.051.189.036.281.026a.071.071,0,0,1-.008.05c.044.062.091-.008.126-.011l.017.057.036-.036c.083,0,.166.043.113.1.035,0,.069-.006.048-.037.04.067.226.12.357.159-.043-.041-.025-.058,0-.1l.01-.008.079.033c0,.026.008.058-.049.051.091.159.36.19.539.3.048.008.046-.008.079-.017.064.128.265.146.367.247,0-.043.1-.094.176-.053.124-.007-.037.091,0,.162a.262.262,0,0,1,.152.047l-.01.007a.172.172,0,0,1,.171.082l-.01,0c.034.032.046.095.091.12.034-.018.069,0,.1.018a.133.133,0,0,0,.1.022c0,.009-.011.007-.01.025l.044-.036.058.079a.357.357,0,0,1-.09.011c.036.053.053.033.078.014a.072.072,0,0,1,.058-.019c.091.015.046.05.057.087-.046,0-.034-.04-.057-.043-.068.005.023.037,0,.059,0,0,.015,0,.03,0a.068.068,0,0,1,.074.011c.034.03.135.084.077.118.054.005.086.039.13.041-.02-.031-.062-.086-.039-.117.033.018.1.052.086.075l-.033-.008c.033.008.1.086.1.016l-.006.1c.057-.011.11.038.165.069-.049.04-.14.053-.068.132l.123.023c.042.028.041.045.005.063.1.13.274.008.323.14-.1,0-.073.039-.048.094a.051.051,0,0,1,.056,0c.016-.031-.067,0-.058-.058.028-.036.063.023.1.034-.05.175.243.306.31.483.07-.056.08.049.132.065-.088.036.081.078.063.146l.063-.066c.025.117.242.088.189.2.015.063-.074.012-.1,0-.034.116.223.153.167.259.039-.009.076-.057.156-.008,0,.07.021.2,0,.193.045.036.079.037.079.1-.025.006-.041-.014-.059-.025.025.086.1.131.173.185-.04.067.077.188.1.286.112.02.062.148.164.123-.01,0-.017.017-.021.025.048.024.128.031.156.074l-.075.008c-.085.016.026.112.015.148.017-.021.022,0,.031.018s.018.03.041.026l.049.045c.059.077.038,0,.1.1.032.056-.071.041-.072.019-.012.058.034.1.075.147l0,.007a.163.163,0,0,0,.019.054s0,.007.005.013a.062.062,0,0,1,.008.047h-.061c.018.034.123.119.142.113a1.185,1.185,0,0,0,.2.474c-.019-.015-.035-.014-.011,0,.03.048.1.1.064.108.041.046-.02.051,0,.124-.008,0,.027,0,.04,0-.024.133.13.284.126.44a.216.216,0,0,0-.062-.038l-.006-.014c-.014,0-.008.006.006.014a1.527,1.527,0,0,0,.2.334c-.026-.011-.047-.008-.069-.035a.48.48,0,0,0,.112.218c.008-.031,0-.03-.012-.029s-.019,0-.02-.014c.036-.062.1.048.1.1l-.011,0c.015.085.042.09.057.175-.012.027-.017.01-.024-.007s-.013-.028-.025-.019c-.077.017-.019.19-.026.207.021.022.038.051.058.049.032.068-.041.027-.03.074l.173.194c-.008,0-.017,0-.028.01s-.041.021-.062-.015a.952.952,0,0,0,.168.324,1.351,1.351,0,0,0,.036.229c-.036.017,0-.039-.03-.054l-.041.063c-.008-.052-.029-.047-.051-.041s-.036.01-.05-.014a1.225,1.225,0,0,1,.014.358c.08-.061.036.157.107.168.007.084-.018.083-.041.082s-.026,0-.032.017a2.815,2.815,0,0,1,.011.391.021.021,0,0,1-.014-.008,3.718,3.718,0,0,0,.036.428c-.013-.009-.025,0-.033-.036-.033.113.078.05.027.177l-.027-.043c.02.1-.042.158-.007.275-.016,0-.019-.026-.027-.043a1.06,1.06,0,0,0,.019.288c-.019,0-.033-.015-.043-.056-.03.08.035.118,0,.191-.005.019-.028.046-.034.043a1.22,1.22,0,0,1,0,.22c-.019,0-.03.031-.057.074-.066.445-.185.889-.261,1.348-.031.023-.029-.01-.025-.043s.008-.061-.011-.047c.035.019-.011.079-.038.218l-.007,0c-.009.061-.04.077-.047.145l.009,0c0,.08-.081.111-.052.175l-.036.032c.016.089-.039.091-.034.19l0-.014c-.051.091-.044.241-.082.259a.556.556,0,0,0-.041.234c-.016.011-.025-.014-.027-.033-.1.339-.264.686-.363,1-.009.01-.005-.012-.005-.024-.054.2-.185.332-.214.5v0l-.053.1s-.005,0-.008.008l-.009.027c-.663,1.213-1.281,1.853-1.292,1.626-.007-.086-.076-.108.269-.669a7.014,7.014,0,0,0,.636-1.458,12.837,12.837,0,0,0,.643-3.049l.026-.332.008.013a.2.2,0,0,0-.006-.1l0-.331.041-.071c.014-.255-.052-.1-.033-.356l.029.045-.025-.173a.032.032,0,0,0-.023,0l-.021-.316c.011-.008.022,0,.035.049a.392.392,0,0,0-.048-.246c-.008-.126-.035-.251-.05-.374a.279.279,0,0,0-.006-.106l-.01,0a3.728,3.728,0,0,0-.085-.5,1.025,1.025,0,0,1,.024-.175c-.026-.072-.04-.066-.052-.061s-.016.008-.027-.015l-.011-.049c.034.032.041-.05.029-.116,0,.069-.02.066-.044.04a2.341,2.341,0,0,0-.095-.341c.007-.019.014-.032.022-.025l.08.116c-.047-.074.024-.03-.022-.128l-.117-.091-.045-.152.037.067c-.065-.186.092-.039.016-.231l-.067-.049c0-.028.006-.047.027-.036a1.177,1.177,0,0,1-.094-.161l.031-.015c-.052-.076-.167-.165-.129-.266-.06.083.031.095.041.229a.017.017,0,0,1-.024.013l-.075-.192a.267.267,0,0,0-.04-.1,1.113,1.113,0,0,0-.086-.2.768.768,0,0,1,.006-.1l-.064-.019-.006-.012c.061-.047-.053-.127-.1-.211l-.014-.031a.114.114,0,0,1-.008-.028c.06.042.1.025.089-.051-.027.069-.085.011-.136-.037a.823.823,0,0,0-.068-.123c.048.009.127.058.147.018-.12-.066-.068-.207-.19-.236.038.112-.036.035-.092,0l-.051-.085a.047.047,0,0,1,.018,0c.019.008.041.015.027-.042a.187.187,0,0,0-.108-.069l-.068-.116a.019.019,0,0,0,.006-.012.269.269,0,0,0-.071-.08l-.155-.21c.011,0,.019-.013.019-.035l-.095-.077c.041.008.108.015.108-.036-.081.008-.163-.211-.19-.221-.066.008.066.069.014.075a.36.36,0,0,0-.141-.09l-.122-.135c.029.005.036-.014.041-.033s.011-.038.036-.032c-.016-.037-.034-.036-.053-.036s-.049,0-.077-.06l.039-.009a2.8,2.8,0,0,0-1.172-.908l-.017-.014c-.016-.095-.144-.176-.313-.34.075.075-.038.051-.092.022l-.052-.119c-.09-.119-.3-.144-.439-.179a.07.07,0,0,1,0-.059.119.119,0,0,0-.14-.049.116.116,0,0,1-.05.006l-.046-.082-.041.031c-.131-.032-.28-.108-.225-.168-.054-.008-.107-.016-.06.03a1.64,1.64,0,0,0-.652-.284c.095.054.076.072.064.118a.062.062,0,0,1-.032.019l-.023-.006a.1.1,0,0,0-.095-.033c.01-.027-.076-.091.04-.073a3.238,3.238,0,0,0-1.084-.348c-.082,0-.063.015-.106.028a2.95,2.95,0,0,0-.809-.146c.053.036-.047.114-.195.1-.17.043-.051-.089-.195-.138a.957.957,0,0,1-.275.029l.006-.009a.679.679,0,0,1-.344.021l.019,0a1.014,1.014,0,0,0-.282-.024c-.042.058-.266.048-.319.1-.012,0,.005-.01-.019-.019l-.006.045-.184-.008a.4.4,0,0,1,.1-.058c-.2-.01-.066.044-.166.086-.13.058-.126.013-.192.007a.143.143,0,0,1,.086-.019.131.131,0,0,0,.046-.005c.041-.029.009-.024-.027-.019s-.058.007-.059,0c-.03,0-.037.06-.136.069s-.284.064-.267.013a1.436,1.436,0,0,0-.206.093c.068-.016.2-.031.215,0-.063.014-.18.063-.2.049l.047-.026c-.047.027-.227.066-.127.08l-.139-.02a.82.82,0,0,1-.272.124c-.016-.041.057-.122-.141-.064l-.15.113c-.085.041-.11.04-.1.01-.3.1-.268.23-.5.319.073-.1-.006-.061-.109-.018,0,.01,0,.031-.043.055.036.006.044-.065.133-.075.035.016-.082.069-.124.1-.247-.01-.645.378-.97.564.049.034-.127.113-.179.178-.018-.07-.151.152-.248.192l.075.008c-.189.131-.227.324-.373.367-.107.076.008-.061.043-.107-.173.073-.323.367-.455.433,0,.029.063.015-.03.149a3.387,3.387,0,0,1-.278.222.732.732,0,0,1-.16.193c0-.017.03-.057.05-.089a1.579,1.579,0,0,0-.288.408,4.531,4.531,0,0,0-.409.486c-.04.124-.2.273-.172.327,0,0-.022.011-.031.02a1.156,1.156,0,0,1-.087.245l-.013-.052c-.023-.049-.141.194-.186.239.048-.03-.072.1-.054.129l-.048.111a2.543,2.543,0,0,1-.106.239c-.063.117-.058.013-.032-.025a1.414,1.414,0,0,0-.167.3l-.008.014a1.085,1.085,0,0,0-.063.1.074.074,0,0,0-.014.026.733.733,0,0,1-.056.085l-.009-.045a1.067,1.067,0,0,0-.094.3,5.172,5.172,0,0,0-.43.977c.01-.042,0-.051,0-.008-.037.106-.063.231-.083.234-.03.1-.056.084-.119.235-.006,0,.007.022.019.011-.125.245-.172.6-.3.9a.443.443,0,0,0,0-.095,5.662,5.662,0,0,0-.135.723.133.133,0,0,1-.009-.085,1.77,1.77,0,0,0-.08.462c.018-.063.012-.061.006-.059s-.011,0,0-.032c.051-.117.023.111,0,.225l-.005,0c-.031.174-.018.185-.049.359-.019.056-.014.02-.01-.015s.005-.056-.005-.04a1.691,1.691,0,0,0-.108.427c.005.045.006.106.018.1,0,.141-.03.059-.038.155l.029.3-.012.119c-.014.024-.027.044-.028-.026a1.517,1.517,0,0,0,0,.342l0,.577v.13c-.012.011-.028.06-.036,0,0,.153.014.516.032.745.028-.146.046.219.078.279l.018.178c-.008.035-.027.009-.027.073.054.279.1.536.152.785,0,0-.005.005-.01-.008a3.914,3.914,0,0,0,.239.811.01.01,0,0,0-.008,0c-.005,0-.011,0-.027-.039.036.152.05.126.07.154l.042.152-.03-.051a2.765,2.765,0,0,0,.185.522c-.006.01-.026-.031-.042-.055l.169.388.048.126a.26.26,0,0,1-.041-.063.638.638,0,0,0,.089.19,2.186,2.186,0,0,0,.1.253s0,.007,0,0l.012.018c.185.357.324.739.529,1.076l.4.693c.146.2.28.388.4.548a3.36,3.36,0,0,0,.458.556l.433.434c.155.13.323.246.485.369a5.224,5.224,0,0,0,1.045.624,4.876,4.876,0,0,0,2.36.427,8.781,8.781,0,0,0,4.477-1.833,15.939,15.939,0,0,0,2.268-2.062,27.855,27.855,0,0,0,1.952-2.41,15.824,15.824,0,0,1-2.344,3.091,14.969,14.969,0,0,1-3.158,2.542,7.038,7.038,0,0,1-3.132,1.026c-.107.007-.214.011-.321.011A5.518,5.518,0,0,1,109.467,55.338ZM105.5,47.684l.03-.025-.033-.008Zm.193-4.131c.008-.016.025.025.041-.082-.015.065-.02.058-.024.051s0,0,0,0S105.7,43.525,105.7,43.553Zm.193-.612.008-.029h0S105.89,42.924,105.89,42.941Zm16.735-1.187c.045.046-.032-.146-.015-.188C122.582,41.6,122.617,41.707,122.625,41.754Zm1.255-.093.056,0-.056-.018ZM122.4,40.8a.163.163,0,0,1,.022.07l.034-.021c-.012-.031-.036-.068-.048-.068S122.4,40.787,122.4,40.8Zm-17.013-.982a.8.8,0,0,0-.018-.221l0-.01.018.052.007.025,0,0a.64.64,0,0,0-.036-.119l0-.032.021.062c-.022-.085.027-.005-.006-.117a.385.385,0,0,1,.023.062.658.658,0,0,0-.012-.1l.006-.014a.334.334,0,0,1,.019.047c.014,0,0-.033-.014-.061,0-.009.011-.017.015-.026l.005.007,0-.009a1.57,1.57,0,0,1,.1-.145c.04-.053.079-.112.117-.172l.027-.044.047-.087.086-.168c.1-.209.176-.35.19-.378a8.273,8.273,0,0,1,1.54-2.409,6.238,6.238,0,0,1,2.043-1.427,4.971,4.971,0,0,1,.419-.3c.207-.129.408-.262.619-.377l.647-.306a.111.111,0,0,1-.014.018c-.014,0-.03.013-.047.042a.2.2,0,0,0,.047-.042.074.074,0,0,1,.03,0,.059.059,0,0,0,.07-.024c.018.01-.03.061.014.047.03-.04.008-.066-.035-.074.1-.045.207-.075.311-.113l-.139.086a.657.657,0,0,0,.172-.1l.472-.157,0,0a.384.384,0,0,1-.3.126c-.057.055-.031.047,0,.038s.063-.014.051.022c.091-.034.135-.085.277-.139.006-.033-.025-.032.01-.063a.5.5,0,0,1,.05-.015l-.371-.277a5.76,5.76,0,0,0-1.392-.712l-.157-.052.009,0c-.03-.011-.046-.014-.051-.009a1.01,1.01,0,0,0-.157-.044l-.019-.044c-.058-.019-.076-.012-.093,0s-.034.017-.091-.008l.031-.018-.088-.008a.045.045,0,0,0-.01.019l-.152-.036c0-.011.007-.02.035-.023-.06-.04-.09,0-.132.008l-.184-.026a.078.078,0,0,0-.049-.017l-.005.008a1.728,1.728,0,0,0-.246-.028.338.338,0,0,1-.068-.062c-.068.013-.025.042-.058.054l-.025,0c.025-.024-.008-.049-.041-.052.03.014.023.032,0,.049l-.173-.014c-.005-.013-.008-.023,0-.028l.073-.033c-.026.011-.025,0-.028-.009s-.007-.017-.032-.013l-.074.08-.077,0,.039-.017c-.047,0-.047-.017-.045-.039s.005-.047-.048-.036l-.039.047a.023.023,0,0,1-.008-.036c-.027.02-.069.012-.092.021l0-.032c-.046.019-.113.082-.145.02.009.044.024.038.044.033a.065.065,0,0,1,.062.01.032.032,0,0,1,0,.025.789.789,0,0,0-.1,0c-.009-.008-.03,0-.052,0l-.1.006a.52.52,0,0,1-.039-.045l-.023.047h-.006c-.005-.073-.065-.006-.112,0h-.015a.024.024,0,0,1-.014-.005c.031-.036.035-.081,0-.1.023.053-.015.078-.047.108l-.064.008c.014-.036.052-.082.039-.119a.054.054,0,0,1-.071.02c-.024-.007-.047-.014-.066.034.054.019.007.047-.019.08l-.045.005c0-.015.03-.037-.007-.057a.1.1,0,0,0-.05.062l-.061.005,0-.009a.059.059,0,0,0-.046.017l-.114.024a.049.049,0,0,0-.011-.033l-.048.041c.01-.03.023-.084,0-.109-.007.047-.055.045-.089.043-.019,0-.033,0-.036,0,0,.031.008.024.018.016s.019-.013.017.01c-.025.011-.041.04-.061.063-.026,0-.051.016-.077.023.012-.041-.031-.066-.02-.1-.02-.008-.021.009-.024.027s-.008.037-.037.026v-.037a.673.673,0,0,0-.55.327l-.008,0c-.05-.041-.106-.019-.213-.018.049,0,.03.059.013.076l-.076-.047c-.068-.007-.1.1-.115.159a.148.148,0,0,1-.041-.039c-.069-.014-.021.063-.028.086l-.058-.027.024.046c-.027.058-.1.108-.142.03-.009.03-.018.059.021.058-.076,0-.209.116-.279.211.055-.018.068.006.1.044a.109.109,0,0,1,.014.033l-.008.008c-.013,0-.036-.005-.036.033-.022-.026-.083-.019-.057-.074-.185.012-.312.2-.439.335-.015.039,0,.041.008.071-.146.024-.174.2-.292.264a.1.1,0,0,1,.058.154c0,.06-.034.033-.082.006a.151.151,0,0,0-.106-.027.212.212,0,0,1-.041.127l-.009-.009a.129.129,0,0,1-.065.148v-.009c-.029.03-.1.042-.114.081.049.056-.047.119-.007.174a.02.02,0,0,1-.012,0,.027.027,0,0,0-.017,0l.048.034-.077.053c-.009-.027-.03-.044-.03-.072-.088.055.03.053.03.108s-.023.052-.051.052a.107.107,0,0,0-.036,0c-.011-.036.039-.032.039-.051s-.024-.018-.037-.005-.02.019-.033.013c-.008.011.049.05.014.083s-.043.129-.1.088c.017.047-.005.082.01.118.024-.025.063-.071.1-.059,0,.03-.013.091-.041.086l-.005-.028c.005.028-.05.1.025.083l-.1.02c.035.041.007.095,0,.145-.063-.022-.113-.089-.168-.007l.025.1c-.014.041-.032.047-.065.027-.1.124.114.2.025.292-.061-.07-.078-.034-.113.012.011.006.035.017.032.039.037,0-.044-.044.018-.069.048,0,.018.055.025.083-.189.055-.135.324-.262.475.089,0,.006.08.04.121-.094-.025.006.1-.058.138l.1-.013c-.066.1.119.182,0,.237-.036.056-.065-.025-.077-.052-.111.074.053.224-.067.284.036.008.1-.013.124.059-.055.055-.1.171-.115.161.02.048.051.06.019.114-.024,0-.028-.028-.038-.045a.32.32,0,0,0,.056.226c-.068.05-.028.2-.06.3.086.045-.024.162.08.158a.066.066,0,0,0-.03.02c.036.032.114.052.127.1l-.074,0c-.084,0,0,.115-.024.149.022-.019.021,0,.025.022s.008.033.031.03l.033.051c.035.083.036,0,.067.108.015.06-.075.038-.07.015-.026.06,0,.108.03.157l0,.008a.174.174,0,0,0,0,.058s0,.008,0,.014a.045.045,0,0,1-.008.036l-.054.006c0,.027.078.084.1.065-.02.083.073.143.145.182-.021-.008-.036,0-.01.006.04.034.11.051.086.076.048.026,0,.059.047.127-.006.006.024-.011.03-.026.042.152.247.209.322.368a.175.175,0,0,0-.068,0l-.012-.009c-.01.009,0,.01.012.009a1.255,1.255,0,0,0,.334.213c-.025.007-.039.025-.069.009a.389.389,0,0,0,.1.086.075.075,0,0,0,.059-.011c0-.019-.008-.009-.014,0s-.012.014-.015.009c.016-.048.075-.058.08-.039l-.007.009c.019.024.035,0,.051.024,0,.019-.007.019-.012.019s-.011,0-.017.015c-.041.079.024.1.023.118a.084.084,0,0,0,.035-.041c.025,0-.011.058,0,.067l.072-.091.013.014c0,.027-.006.057-.019.068.019.01.036-.007.052-.033a.736.736,0,0,0,.062.056l.014.01a.41.41,0,0,1,0,.107c.019-.022.063.065.1.116-.036-.152.015-.061.006-.147l.018.012c.012.041.02.1.032.128.01-.013.025,0,.042.012l.025.024a.081.081,0,0,0,.005-.028Zm-.106-.051,0,0-.022-.113Zm18.165-.1c0-.008.059,0,.025-.043.01.03,0,.029-.013.026h-.008C123.443,39.653,123.44,39.657,123.446,39.672ZM104.6,39.35c0-.01.047-.033-.006-.061C104.639,39.335,104.56,39.314,104.6,39.35Zm5.054-2.617.072-.051,0-.03Zm12.1-.523.048.033-.011-.044ZM103.7,36.15l.023-.038-.036-.011Zm-1.78-2.5c.013.016.015.031.034.041.019-.025.01-.041-.028-.041Zm-.063-.067c.028.024.036.011.042,0a.034.034,0,0,1,.008-.014h-.014A.04.04,0,0,0,101.858,33.58Zm10.26-.186c.055-.017.069-.035.03-.047C112.136,33.365,112.117,33.379,112.119,33.394Zm.072-.129c-.011.03.014.022.039.014a.157.157,0,0,1,.027-.007.062.062,0,0,0-.036-.012A.09.09,0,0,0,112.191,33.265Zm-10.021,0a.023.023,0,0,0,.01-.019A.023.023,0,0,0,102.17,33.264Zm.161-.113c.021.025.022.005.025-.015s.007-.029.021-.025a.048.048,0,0,0-.017,0C102.335,33.107,102.337,33.14,102.331,33.152Zm10.914-.015c-.018.027.011.014.043,0s.052-.019.061-.009a.027.027,0,0,0-.027-.014A.371.371,0,0,0,113.245,33.136Zm-.314.016a.069.069,0,0,0,.036-.012A.131.131,0,0,0,112.931,33.152Zm.831-.083c.025-.006.063-.033.036-.044a.05.05,0,0,1-.041.005Zm-11.273-.189c0,.014-.006.013-.014.019l.043.025a.034.034,0,0,0-.028-.044Zm6.809-.962c.019-.018,0-.016-.032-.015s-.052,0-.058-.008c.005.024.041.024.068.023Zm-.45-.015,0-.036c-.023,0-.057.017-.037.033l.014,0A.08.08,0,0,1,108.846,31.9Zm.833-1.13.008,0,.019-.049Zm-1.062-.2c.032,0-.011.035.013.039,0-.005.015-.041,0-.041Zm-2.025-.139.026-.02-.025-.016Zm-64.059,25c.006.005.007.01,0,.014Zm-.2-.229a.145.145,0,0,1,.035.028Zm-1.2-1.441h0Zm31.79-10.217c.015.009.022.018.023.026ZM106.2,42.114a.044.044,0,0,1-.011.02Zm17.7-1.487a.02.02,0,0,1,.011.012Zm-54.8-.034,0,0ZM107.77,39v0Zm15.585-.041c0,.005,0,.009,0,.012Zm-.1-.218a.079.079,0,0,1,.022.028Zm-19.1-.06a.01.01,0,0,1,0,.013ZM103.7,37.5h0Zm18.94-.075h0Zm-97.807-1.6h0ZM21.9,32.03l.015.03A.043.043,0,0,1,21.9,32.03Zm87.309-1.525-.009.006A.012.012,0,0,1,109.213,30.505Zm-.93-.071s0,0,0,.006Zm-.107-.014-.021.008A.029.029,0,0,1,108.176,30.42Zm-.783-.061v.007A.022.022,0,0,1,107.393,30.359ZM55.666,29.3l0,.006Zm-6.125-3.687h0Zm-1.416-1.35.038.025A.157.157,0,0,1,48.125,24.258Zm-.2-.2.006.013C47.924,24.067,47.923,24.062,47.926,24.058Zm-1.759-1.489.017.006h0A.032.032,0,0,1,46.167,22.569Z" fill="#ffc6de"/></svg>