<svg xmlns="http://www.w3.org/2000/svg" width="118.272" height="200" viewBox="0 0 118.272 200"><path d="M57.344,197.409l-.06-.191,0-.019a.908.908,0,0,0-.067-.333,2.138,2.138,0,0,1-.07-.251l-.026-.054c-.046-.284-.127-.6-.2-.908-.026-.1-.051-.2-.075-.305l-.086-.075.028-.068a1.117,1.117,0,0,0-.034-.222.45.45,0,0,1-.044-.172.8.8,0,0,0-.038-.179l.049-.019-.059,0a.208.208,0,0,0-.018-.086.325.325,0,0,1-.029-.123l-.049-.055.017-.055a.209.209,0,0,0-.017-.037.387.387,0,0,1-.05-.159l0-.028c0-.015-.009-.028-.014-.044a.5.5,0,0,1-.02-.052l-.018-.056c-.007-.031-.012-.059-.019-.084l-.051-.056-.007-.029c-.126-.6-.294-1.193-.43-1.692l-.022-.041,0-.009-.031-.008-.012-.069c0-.021-.011-.05-.019-.085-.015-.065-.027-.119-.033-.163a.28.28,0,0,1-.029-.061.368.368,0,0,1-.027-.119l-.035-.011,0-.075a1.067,1.067,0,0,0-.025-.159l-.036.018-.012-.161a.471.471,0,0,0-.023-.117l-.07.214-.039-.561a2.088,2.088,0,0,0-.069-.344l-.008-.033,0,0-.033-.132c-.013-.056-.029-.111-.046-.168-.026-.089-.051-.18-.068-.265a.115.115,0,0,1-.032-.028l-.257.129.2-.292-.008-.036.015-.014a.593.593,0,0,0-.011-.06.349.349,0,0,1-.012-.149l0-.007-.043-.13-.041-.064-.076-.029-.012-.052c-.006-.021-.013-.054-.022-.091a1.6,1.6,0,0,0-.043-.179l-.007-.028-.068.2-.017-.6,0-.032,0-.007,0-.224a.206.206,0,0,1-.046-.107l-.012-.077.012-.007-.008-.031-.014-.052-.056-.007-.022-.08-.011-.041-.042.215-.073-.75c-.01-.1-.027-.2-.046-.3l-.033-.077a1.757,1.757,0,0,1-.085-.3,1.532,1.532,0,0,0-.054-.211l-.022-.007-.009-.057-.1-.167.054.007a.511.511,0,0,1-.018-.087l0-.018h0a.333.333,0,0,1-.009-.056,3.662,3.662,0,0,0-.167-.61l-.036-.086.029-.019,0-.028-.008-.01a.315.315,0,0,1-.049-.111.385.385,0,0,0-.017-.05l-.017-.061-.007-.039a.148.148,0,0,1-.073-.1.322.322,0,0,1-.02-.13.485.485,0,0,0-.009-.051l0-.022-.027.065-.076-.306-.5.5.483-.776-.011-.03a.459.459,0,0,1-.033-.154c-.017-.042-.034-.095-.051-.145a.7.7,0,0,1-.036-.129l-.041-.027-.013-.09c0-.038-.011-.076-.018-.113l-.027-.046a.311.311,0,0,1-.047-.149l0-.012c-.014-.021-.029-.046-.047-.079s-.032-.059-.046-.08l-.017-.043a.289.289,0,0,1,0-.143.733.733,0,0,1-.038-.153l-.036-.009-.019-.037a.293.293,0,0,1-.069-.208c0-.025,0-.051-.007-.074l-.038.065-.012-.186-.046-.085.041,0-.006-.085a.339.339,0,0,0-.012-.047.286.286,0,0,1-.021-.131,2.629,2.629,0,0,1-.09-.27c-.017-.055-.038-.13-.061-.19l-.054-.1-.038-.025-.007-.053v0l-.025-.046a.442.442,0,0,1-.044-.241.506.506,0,0,0-.007-.131.234.234,0,0,1-.065-.131l-.05.046-.054-.233a.829.829,0,0,1-.028-.138l-.017-.013.017-.021v0a.174.174,0,0,1,0-.036l.014,0a.116.116,0,0,1-.051-.03l-.007,0,0-.012a.46.46,0,0,1-.059-.175l-.019-.089.028-.012c0-.015-.009-.03-.014-.044l-.012-.037a.318.318,0,0,1-.016-.044.212.212,0,0,1-.066-.158c0-.011,0-.021,0-.03l-.043-.086-.019-.027,0-.008-.012-.025.027-.036v0a.374.374,0,0,0-.014-.07.478.478,0,0,1-.019-.143.359.359,0,0,0-.025-.046l-.015-.025-.013-.019a.536.536,0,0,1-.075-.244.749.749,0,0,1-.035-.123c-.04,0-.111-.027-.119-.154a.36.36,0,0,1,.007-.221c-.019-.054-.035-.112-.051-.168a.742.742,0,0,0-.094-.245l-.027-.033,0-.044c0-.022.006-.036.011-.037-.035-.089-.064-.189-.093-.288a2.443,2.443,0,0,0-.1-.3l-.083-.014-.052-.164-.008-.051.018-.038.023-.033-.007-.046a1,1,0,0,0-.094-.23l.017-.017a.331.331,0,0,1-.119-.241l-.019-.017,0-.054a.158.158,0,0,1,.006-.06l-.049-.031-.007-.094a.911.911,0,0,0-.036-.226l-.08-.049-.011-.046a.322.322,0,0,1,0-.12l-.013-.023c-.023-.044-.052-.1-.056-.105l-.05-.036-.021-.075a2.859,2.859,0,0,0-.158-.741l-.189-.288a.216.216,0,0,1-.029-.062l-.06.183-.036-.454-.289-.8-.046-.1.025-.045c0-.01,0-.024,0-.036a.217.217,0,0,1-.039-.1l-.2.116.139-.294-.025-.012-.016-.039a.515.515,0,0,1-.015-.05l-.066.066-.016-.261a.232.232,0,0,1,.007-.209l.008-.008,0-.013,0-.011-.062-.08.014-.041a.111.111,0,0,1-.034-.025l-.046,0a.085.085,0,0,0,.014.042h0a.265.265,0,0,1-.055-.072l-.006.032-.064-.257a.416.416,0,0,1-.047-.1l0-.025-.009.071-.223-.564-.007-.045,0-.027a.624.624,0,0,1,.017-.106l-.09-.024-.036-.087-.061.1-.018-.3-.139-.346.043.013a.226.226,0,0,1,0-.032l-.01-.021a.432.432,0,0,1-.031-.093l-.011-.021-.017,0-.043-.012,0,.021-.44-1.055v0l-.217-.5.012.007-.265-.637c-.731-1.757-1.488-3.575-2.239-5.871a41.537,41.537,0,0,1-1.545-7.063c-.141-.966-.254-1.947-.362-2.894-.175-1.527-.34-2.969-.611-4.273-.242-1.134-.459-2.3-.687-3.542-.105-.565-.211-1.135-.319-1.7a31.086,31.086,0,0,0-1.338-5.172l-1.621-4.009a13.376,13.376,0,0,1-1.082-4.189,15.847,15.847,0,0,0-.566-3.042c-.169-.687-.343-1.4-.487-2.121-.367-1.906-.529-4.063,1.046-5.611l.057-.057.07.039c1.107.6,1.873,3.293,2.488,5.459a13.648,13.648,0,0,0,.7,2.127,19.446,19.446,0,0,1,1.749,6.323l.079.527a56.548,56.548,0,0,0,1.134,6.09c.016.057.141.348.3.715.226.523.536,1.242.856,2.039a12.2,12.2,0,0,1,.491,1.551l.014.045v0l.09.359v0h0l.076.382,0,.019a1.745,1.745,0,0,0,0,.343v.007l.151-.014-.061.163a.529.529,0,0,0,.014.371l.017.06.054-.072.074.453.122-.08-.118.316a1.8,1.8,0,0,0-.026.771c.009.084.017.166.022.243l.031,0,.01.108c.012.126.034.25.057.378a3.7,3.7,0,0,1,.075.655h.012a.2.2,0,0,1,.1.026l.046.027.019.148.624-.047-.6.231,0,.015-.033.036a.589.589,0,0,0-.019.19c0,.105,0,.253-.091.306a5.028,5.028,0,0,1,.168.716l.053.011.092,0,.165,1.072-.006.022a1.328,1.328,0,0,0-.042.278.356.356,0,0,1,.058.022l.05.024.047.241-.135.417a.2.2,0,0,1,.109.22l0,.1-.054,0-.007.027,0,.022c0,.022.01.05.017.088a2.59,2.59,0,0,0,.061.259l.028-.028h.046a.15.15,0,0,1,.124.086l.016.038a1.2,1.2,0,0,1,.021.272,1.036,1.036,0,0,0,0,.131h0l.027.08a.627.627,0,0,1-.021.45.156.156,0,0,1-.07.055c0,.026,0,.053.007.085l.179-.241-.056.418a3.234,3.234,0,0,0-.012.628l.078.195a2.346,2.346,0,0,1,.124.661,1.656,1.656,0,0,0,.111.566.134.134,0,0,1,.033.056l.139.219-.127-.046v0a.281.281,0,0,1,.054.137.373.373,0,0,1,.037.223,1.474,1.474,0,0,0,0,.148H48.3a5.964,5.964,0,0,0,.263,1.385l.054.141-.075,0c0,.035-.007.081-.009.127l.054.069a.432.432,0,0,1,.068.167l.011.042a.969.969,0,0,0,.046.156l.011.076a1.763,1.763,0,0,0,.022.2c.046,0,.134.007.166.173s.028.212.01.259a.8.8,0,0,0,.008.114l.01.236-.017.008.008.036a.228.228,0,0,1,.009.119c.008.032.016.069.024.112,0,.019.008.044.014.069l.137-.134.034.206a.561.561,0,0,1-.017.239l.55-.306-.26.256.315-.1-.6.379-.032.032a.634.634,0,0,0,.026.1.683.683,0,0,1,.039.312,3.454,3.454,0,0,1,.1.352,1.488,1.488,0,0,0,.134.385l.032.029.007.114c.006.095.01.187.022.279l0,0,.071.139a.584.584,0,0,1,.069.282c0,.016,0,.034,0,.054a1.92,1.92,0,0,1,.116.232c.033.071.068.147.1.2l.012.043a.336.336,0,0,1-.053.255,1.247,1.247,0,0,1,.071.357c0,.036.007.074.013.111h.006a.147.147,0,0,1,.129.1.531.531,0,0,1,.095.385.82.82,0,0,0,.048.35l.1.236-.048-.018-.012.2a.669.669,0,0,0,.028.139.38.38,0,0,1,.015.245,6.226,6.226,0,0,1,.175.649,3.732,3.732,0,0,0,.192.665l0-.024.04.1.022.029.023.027,0,.037a.323.323,0,0,0,0,.044l.056.141a.863.863,0,0,1,.052.434.985.985,0,0,0,.024.368c.062.038.08.137.1.23l0,.25.012.044.007,0,.12-.041.041.233a1.488,1.488,0,0,1,.041.325l.082.124v0l-.075.05h.06a.879.879,0,0,0,.017.094.913.913,0,0,1,.088.346l.025.153-.053-.01c.011.041.022.09.036.145s.02.08.027.107a.5.5,0,0,1,.024.125.188.188,0,0,0,.019.028.408.408,0,0,1,.085.268.274.274,0,0,1,0,.07l.114.328-.031.026,0,.015a.958.958,0,0,0,.027.2.858.858,0,0,1,.028.27,1.662,1.662,0,0,0,.065.187l.026.069.026.06a1.7,1.7,0,0,1,.107.477l0,.021a2.339,2.339,0,0,1,.073.406c.012.025.011.017.009.017.139.021.155.138.157.236a.654.654,0,0,1,0,.386c.037.135.068.279.1.419a3.571,3.571,0,0,0,.18.648l.009.044a.325.325,0,0,1,0,.063.177.177,0,0,0,0,.062c.057.2.107.422.157.637a8.5,8.5,0,0,0,.219.835l.021.012.084-.041.006.17a.221.221,0,0,0,.02.1l.023.09a.223.223,0,0,1-.019.086l-.027.045.021.134a5.723,5.723,0,0,0,.182.644l-.038.016.007,0h.014v.014a.911.911,0,0,1,.143.453l.006.029-.011.026.031.057.013.039a.476.476,0,0,1,0,.091.275.275,0,0,0,.017.134.193.193,0,0,1,.05.061l.019.09a3.539,3.539,0,0,0,.12.617l.078.144.01.031a.614.614,0,0,1,.019.208c.017.052.032.1.046.146a2.549,2.549,0,0,0,.134.378l.022.075a16.189,16.189,0,0,0,.379,1.81l0-.259.245.977.012-.312.17,1.038.157.629c0,.027.011.06.017.093l.32,1.242.007.046.056.185c.011.048.019.1.028.148a1,1,0,0,0,.036.162l.02.017.018.069,0,.06.051.119.085.329a1.4,1.4,0,0,0,.042.164l.088.34-.015.053,0,.025c0,.026.013.06.022.1s.022.088.028.129a.257.257,0,0,1,.033.07l.006.035,0,.078a1.02,1.02,0,0,0,.027.1.188.188,0,0,1,.066.1l.009,0,.065.254v-.011l.05.186v0l.14.525.032.109,0,0,.022.085a.163.163,0,0,1-.008.1v0c.019.041.057.135.1.236l.21.78,0,.011c.013.046.025.083.041.132l.143.526c0,.031.008.056.011.08a.75.75,0,0,0,.02.122l.034.034.129.466.075.187-.033-.009a.9.9,0,0,1,.065.279.375.375,0,0,0,.01.08l0-.093L57.1,192.7c.274.957.512,1.781.717,2.489.563,1.947.872,3.02,1.008,3.652.165.75.111.893.008,1.028a.213.213,0,0,0-.022.03.2.2,0,0,1-.173.1C58.19,200,57.59,198.214,57.344,197.409Zm-4.762-17.192-.017.022Zm-3.307-30.66a.382.382,0,0,0-.044-.012.227.227,0,0,1-.183-.159c-.119-.41.973-1.564,1.91-2.46l.16-.147.05-.026a.677.677,0,0,0,.292-.2,1.521,1.521,0,0,1,.211-.186l.014-.04.034-.021a8.393,8.393,0,0,0,.8-.586c.092-.072.183-.145.275-.216v0l.013-.17.117.027a.75.75,0,0,0,.193-.111.158.158,0,0,1,.023-.033l-.637.034.965-.269a.1.1,0,0,0,.061-.042.262.262,0,0,1,.108-.086v-.1l.1.013a.212.212,0,0,0,.017-.027.282.282,0,0,1,.153-.144l.027,0a.184.184,0,0,0,.022-.026.465.465,0,0,1,.036-.041l0-.017.064-.042c.025-.017.048-.034.067-.05a.182.182,0,0,1,0-.047l.007-.049.041-.027a16.183,16.183,0,0,0,1.483-1.184l.013-.027.007-.014-.025-.061.085-.048a.585.585,0,0,0,.071-.049,1.457,1.457,0,0,1,.147-.1.179.179,0,0,1,.034-.057.248.248,0,0,1,.1-.085l-.026-.066.113-.034a.6.6,0,0,0,.161-.089l-.059-.059.166-.057a.27.27,0,0,0,.109-.073l.072-.109,0,0-.158-.038.368-.122a1.141,1.141,0,0,0,.309-.2l.047-.038-.008-.008.1-.076c.048-.038.095-.08.142-.121a2.475,2.475,0,0,1,.218-.181.13.13,0,0,1,0-.041.156.156,0,0,1,.019-.061l-.42-.415.554.289.027-.021.036.028c.017-.009.036-.022.051-.032a.259.259,0,0,1,.168-.063l.086-.091.027-.092-.057-.147.061-.048c.019-.015.051-.037.087-.062l.084-.057-.27.062.5-.265-.151-.04.684-.158,0,0a.165.165,0,0,1,.091-.1l.07-.038.025.024.022-.019c.008-.007.022-.019.036-.033l-.033-.075.021-.053.029-.043a.619.619,0,0,1,.127-.087l.04-.023.022-.027a.288.288,0,0,1,.058-.056l-.14-.016.446-.161a1.514,1.514,0,0,0,.277-.138l.046-.069a.528.528,0,0,1,.09-.1l-.143.069.324-.257-.368.118.621-.361.035-.078.023.045.137-.08,0,0a.26.26,0,0,1,.065-.036,1.932,1.932,0,0,0,.505-.425l.071-.106.059.055.013,0a.167.167,0,0,1,.041-.089v0l.044-.041.031-.029.073-.066.013-.008,0-.01a.139.139,0,0,1,.054-.159.291.291,0,0,1,.125-.073l.363-.668-.1.372a.378.378,0,0,1,.192-.049.39.39,0,0,0,.065-.006l.011.049.033-.074a.034.034,0,0,0-.017.007.255.255,0,0,0,.02-.022.289.289,0,0,1,.153-.107,1.009,1.009,0,0,1,.106-.118c.032-.033.087-.09.095-.094l-.018-.085.119-.056c.033-.015.065-.03.094-.046l.014-.046a.217.217,0,0,1,.138-.145c.008-.026.02-.054.034-.087s.03-.074.038-.1l.013-.048.045-.021a.266.266,0,0,1,.176-.026.464.464,0,0,1,.11-.083.13.13,0,0,1-.011-.095c-.016-.144.136-.192.2-.211.044-.014.094-.03.1-.052l.018-.043-.09-.04.119-.025.029-.068.039.054.133-.029a.139.139,0,0,0,.025-.022.2.2,0,0,1,.143-.081,1.445,1.445,0,0,1,.207-.216c.1-.09.21-.191.2-.258h0l0-.1.062-.024.015-.03a.3.3,0,0,1,.27-.162.355.355,0,0,0,.107-.023.179.179,0,0,1,.083-.15l.075-.029h0l-.125-.09.168-.119a.5.5,0,0,1,.114-.072l0-.027.087-.009-.087.008.087-.009c-.029-.1.093-.181.158-.222l.075-.049.048.049.034-.034.023-.021a.146.146,0,0,1,.029-.036c-.007-.08.041-.139.141-.175l.017,0,.054-.1-.012-.051.036.006.017-.031.082.045.015,0a.2.2,0,0,0,.051-.032.335.335,0,0,1,.143-.072l.012-.03.012-.032.007-.027a.336.336,0,0,1,.216-.216.463.463,0,0,1,.107-.088.156.156,0,0,1-.056-.156.158.158,0,0,1,.109-.1.32.32,0,0,1,.27-.043,1.235,1.235,0,0,1,.129-.118c.081-.067.158-.131.171-.2l.026-.093h.092l.03,0a2.184,2.184,0,0,1,.219-.211,1.209,1.209,0,0,0,.24-.249.216.216,0,0,1-.041-.067l-.038-.073.143-.134.064-.04.063.022.049.03.012.011.032-.017v0a.592.592,0,0,0,.162-.2h0l.035,0a.214.214,0,0,1,0-.034.279.279,0,0,1,.165-.223l-.006-.04.088-.03.043-.008-.012-.075.125-.046a.643.643,0,0,0,.2-.1l-.027-.155.06-.04a.285.285,0,0,1,.131-.043l0-.006a.366.366,0,0,0,.058-.142l-.006-.075.046-.046.046-.027a1.83,1.83,0,0,0,.8-.567l.02-.076-.08.019.071-.192a.244.244,0,0,1,.062-.088l.044-.041a.369.369,0,0,1,.129-.044l-.226-.041.264-.095.553-.589,0,.044.061.015a.122.122,0,0,0,.029,0,.142.142,0,0,1-.026-.08l0-.046.1-.118.07.027.02,0a.2.2,0,0,1,.109-.1l-.312-.278.414.126,0-.014.036-.042a.3.3,0,0,1,.093-.067l-.129-.077.23-.077a.284.284,0,0,1,.168-.079.15.15,0,0,1,.1.036l.007,0,.006,0a.261.261,0,0,1,0-.036l.028-.1.048.009a.257.257,0,0,1,0-.026l0-.022-.029-.079a.1.1,0,0,0-.057.055.214.214,0,0,1,.106-.177l.039-.021.042.012.015,0a.261.261,0,0,1,.012-.078l-.022,0,.028-.022a.274.274,0,0,1,.057-.093l.028-.022a.4.4,0,0,1,.124-.039l.036-.027a.212.212,0,0,1,.129-.045v-.013l0-.043-.234.015.3-.347.054-.034.042,0a.774.774,0,0,1,.108-.007.316.316,0,0,1-.033-.067l-.02-.06.124-.142-.115-.048.224-.078.224-.259.017.044a.159.159,0,0,1,.093-.03l0-.007a.342.342,0,0,1,.08-.076l.011-.017c-.007-.015-.012-.029-.018-.046l-.022-.061.278-.32,0,0,.838-.967a47.777,47.777,0,0,1,5.4-5.486,41.155,41.155,0,0,1,6.624-4.313c.556-.309,1.116-.613,1.674-.916a46.555,46.555,0,0,0,5.138-3.055,20.4,20.4,0,0,0,4.159-3.8,7.72,7.72,0,0,0,1.335-2.5,3.972,3.972,0,0,0-.215-2.646,4.539,4.539,0,0,0-3.171-2.536c-.217-.053-.488-.089-.75-.124-.148-.021-.3-.04-.438-.063-.438-.066-.831-.13-1.2-.2-.275-.051-.75-.194-1.352-.377a31.384,31.384,0,0,0-4.1-1.028,14.932,14.932,0,0,1-3.739-1,7.532,7.532,0,0,1-.916.824.388.388,0,0,1,.015.089.148.148,0,0,0,0,.035l.019.072-1.4,1.081-.03.017a3.651,3.651,0,0,0-.536.232.31.31,0,0,1,0,.138l-.008.042-.264.194-.762.172c-.013.01-.016.017-.013.023.012.128-.046.207-.218.29l-.109.053-.023-.064-.071.017-.056.014c-.032.029-.085.066-.177.13a3.5,3.5,0,0,0-.444.348h.013l.076,0,.029.062c.036.073-.017.138-.054.186l-.025.023a2.3,2.3,0,0,1-.4.216,1.984,1.984,0,0,0-.287.149L78.5,101l-.058.049a1.2,1.2,0,0,1-.594.267.163.163,0,0,1-.156-.081v0c-.109.051-.229.117-.346.184l.359.091-.407.109a6.608,6.608,0,0,0-1.047.4l-.265.236a3.751,3.751,0,0,1-1.02.591,2.956,2.956,0,0,0-.863.5.153.153,0,0,1-.073.075l-.163.173.009-.114-.113.042a.44.44,0,0,1-.2.164c-.05.083-.194.126-.344.173-.072.022-.148.045-.221.073l.007.026a10.845,10.845,0,0,0-2.175,1.1l-.127.093-.025-.09a2.122,2.122,0,0,0-.39.068l.046.03-.07.094a.707.707,0,0,1-.224.168l-.066.034a1.563,1.563,0,0,0-.218.129l-.141.061a2.322,2.322,0,0,0-.4.162.161.161,0,0,1,.051.085c.014.065,0,.158-.182.241a.981.981,0,0,1-.348.115l-.056-.007a.784.784,0,0,0-.2.056l-.345.088-.026-.035a.974.974,0,0,0-.107.049.331.331,0,0,1-.148.052l-.033,0c-.05.027-.11.055-.186.089a1.763,1.763,0,0,0-.247.124l.26.206-.173.07a.983.983,0,0,1-.471.034c-.033,0-.066-.008-.1-.01l.483.646-.337-.275.163.358L66.656,107a.633.633,0,0,0-.2.089.9.9,0,0,1-.5.156,5.345,5.345,0,0,1-.551.3,1.857,1.857,0,0,0-.626.4l-.023.045-.208.046a3.794,3.794,0,0,0-.6.161l.055.046-.1.084a.742.742,0,0,1-.429.195c-.032.006-.065.012-.1.02a2.617,2.617,0,0,1-.338.29c-.111.088-.231.182-.313.257l-.022.02-.03.007c-.257.054-.381-.01-.438-.086a1.452,1.452,0,0,1-.594.235c-.106.026-.215.051-.313.085a.133.133,0,0,1,.089.086c.028.09-.048.16-.1.2-.13.222-.364.242-.591.262a1.082,1.082,0,0,0-.59.17l-.195.143.022-.26a1.906,1.906,0,0,1-.25.081c-.045.013-.1.03-.146.046l.124.139-.241,0a.764.764,0,0,0-.235.083c-.155.071-.307.122-.4.056a6.751,6.751,0,0,1-1.047.464,2.743,2.743,0,0,0-1.244.691l-.028.043-.052.007a.408.408,0,0,0-.077.018l-.222.145a1.052,1.052,0,0,1-.723.148,1.1,1.1,0,0,0-.657.078.164.164,0,0,1,0,.03c-.022.1-.126.148-.3.2l-.486.022c-.132.06-.163.087-.178.092a.5.5,0,0,0,.036.041.429.429,0,0,1,.09.125l.046.115-.119.032-.179.051a1.65,1.65,0,0,1-.552.1l-.186.223,0,0-.083-.072h0l-.071-.061a.091.091,0,0,0,.012.041.087.087,0,0,0,.062.042,1.029,1.029,0,0,0-.166.042c-.055.09-.218.142-.558.223l-.128.031-.007-.131a.147.147,0,0,1,.007-.057,2,2,0,0,1-.435.184l-.119.041a.487.487,0,0,1-.212.053.251.251,0,0,0-.051.06c-.068.1-.139.172-.426.19h-.03a.366.366,0,0,1-.092-.012l-.506.261-.036-.053-.064-.027a.141.141,0,0,0-.05-.006,1.419,1.419,0,0,0-.3.055.963.963,0,0,1-.466.044,1.639,1.639,0,0,0-.3.156l-.1.061-.1.07a1.622,1.622,0,0,1-.8.233l-.038.014a2.413,2.413,0,0,1-.693.129c-.062.047-.06.093-.056.163a.258.258,0,0,1-.053.2.352.352,0,0,1-.286.073.679.679,0,0,1-.663-.105,6.367,6.367,0,0,1-.73.209,3.352,3.352,0,0,0-1.069.384l-.036.024-.042-.007a.371.371,0,0,1-.111-.035.085.085,0,0,0-.048-.01l-.066,0c-.351.109-.729.195-1.1.275a7.355,7.355,0,0,0-1.446.42.189.189,0,0,1-.045.171l-.007.009.048.137-.178-.025a.2.2,0,0,0-.177.046L41,116.47l-.023,0a.272.272,0,0,1-.133-.076l-.026-.024-.013-.063c0-.014-.007-.028-.009-.042l-.026,0,.025-.016,0-.025a6.646,6.646,0,0,0-1.4.377h0l-.054-.095h0l-.011-.019a.121.121,0,0,1-.008.037.084.084,0,0,0,.022.014.107.107,0,0,0-.026,0l0,.012c-.109.233-.737.261-.764.262l-.046,0-.051-.049-.124.105-.041,0a.421.421,0,0,1-.162-.044.257.257,0,0,0-.241,0,.23.23,0,0,1-.084.134l-.031.027-.107,0c-.09,0-.185,0-.284,0a2.429,2.429,0,0,0-.812.1l-.27.208-.033,0-.07,0a.521.521,0,0,1-.3-.059l-.244.073a2.112,2.112,0,0,0-.656.251l-.024.022-.114.013a10.58,10.58,0,0,0-1.961.071c-.6.052-1.218.123-1.792.207l.033.032-.172.057a.555.555,0,0,1-.233.035l.247.1-.961.1-.015,0-.11-.019a1.053,1.053,0,0,0-.309-.035h-.046l-.043-.044a2.441,2.441,0,0,1-.245.033l.388.2-.552-.044-.2-.018.023.045-.892.051a1.081,1.081,0,0,0-.187-.006l0,.018-.5.027-.033-.027a.334.334,0,0,0-.121-.046l.052.079-.479.027-.017-.006-.108-.027c-.133-.029-.239-.052-.243-.155-.038,0-.078.012-.118.021s-.071.014-.11.02l.237.166-.7.038-.042,0-.109-.024-.094.03a.552.552,0,0,1-.1.018l-.1,0a1.988,1.988,0,0,1-.294-.031,1.481,1.481,0,0,0-.2-.022.173.173,0,0,1-.038,0l-.021.066h-.154l-.1-.071-.09.033-.09.033-.626.008a1.426,1.426,0,0,0-.261,0l-.584.006-.052,0-.076-.1v0l-.054-.01c-.044-.006-.1-.009-.168-.012s-.151-.007-.22-.017a.276.276,0,0,1-.132.051l-.036.007-.182-.1a.771.771,0,0,0-.167,0,.207.207,0,0,1-.185.138l0,.038-.447,0-.172-.1a.228.228,0,0,1-.108.075l-.022.009-.72-.039h0l-.586-.036a.173.173,0,0,1-.125-.083l-.007-.028-.054-.012c-.09.027-.241.053-.416.083l-.032,0-1.4-.085v-.021a1.62,1.62,0,0,0-.182.008c-.2-.017-.414-.042-.621-.068l-.345-.042a1.334,1.334,0,0,1-.134-.053.706.706,0,0,0-.206-.066l-.075.071-.967-.119.012-.032-.185-.008a.882.882,0,0,1-.484-.1.7.7,0,0,0-.348-.077l-.193.062-.023,0c-.164-.018-.329-.041-.492-.069l0,0-.074-.014c-.066-.012-.133-.024-.2-.038l-3.236-.609c-.487-.1-.939-.226-1.377-.346l-.519-.14-.546-.149A22.848,22.848,0,0,1,4.8,115.75c-.7-.254-1.354-.5-2.053-.773l-.751-.3c-.265-.118-.473-.219-.654-.319a2.618,2.618,0,0,1-1.269-1.248.764.764,0,0,1-.061-.417c0-.022,0-.042,0-.072.01-.179.121-.193.154-.193.075,0,.144.051.263.194a2,2,0,0,0,.729.566,7.59,7.59,0,0,0,2,.482c.43.068.917.146,1.423.25l.031.011.012,0,.013,0,.265.053.039.017a1.429,1.429,0,0,0,.559.175,3.167,3.167,0,0,1,.432.1l.055-.011.027.007c.44.134.955.236,1.454.334.206.041.41.08.611.122l.007-.026.139-.076.054.085a1.262,1.262,0,0,0,.38.132.52.52,0,0,1,.284.056.953.953,0,0,0,.3.078h0v.041l.035-.046a.244.244,0,0,0,.151.041.367.367,0,0,1,.2.049l.134-.046.055.067a.336.336,0,0,0,.065-.011.444.444,0,0,1,.271.016l.033.028a.212.212,0,0,0,.044,0l.046,0a.8.8,0,0,1,.109,0l.012-.014.068.014a1.715,1.715,0,0,0,.173.028.2.2,0,0,1,.061-.058l.038-.024.043.008a23.177,23.177,0,0,0,2.894.381.449.449,0,0,1,.054-.017l.051-.017.028-.066.091.022c.032.007.082.013.137.021a1.688,1.688,0,0,1,.28.047.305.305,0,0,1,.1-.033.339.339,0,0,1,.225.033l.04-.1.1.051a1.128,1.128,0,0,0,.358.082l0-.1.158.069a.484.484,0,0,0,.231.038l.2-.047a.619.619,0,0,1,.092-.015l-.078-.116.358.166a1.817,1.817,0,0,0,.571.109l.155.013,0-.021.13.014a1.84,1.84,0,0,0,.244.012l.218,0a2.608,2.608,0,0,1,.289.013.15.15,0,0,1,.038-.072.2.2,0,0,1,.109-.055l-.041-.572.221.571.044,0,.012.061a.919.919,0,0,0,.129.025c.1.013.2.027.241.1h.012l.223-.025.195-.134-.022-.053.046-.128.079,0c.035,0,.092.007.157.014.121.013.294.017.294.017l.036-.011.036.014c.06.024.121.053.186.085s.13.064.2.091l-.527-.28.537.118-.085-.125.348.185a.138.138,0,0,1,.054.027l.374.2a.155.155,0,0,1,.124-.057.322.322,0,0,1,.069.008l.076.017.006.047.027.013.015.007h.034c.075,0,.129-.009.168-.014a.111.111,0,0,1-.012-.033.13.13,0,0,1,.074-.143l.05-.017a.781.781,0,0,1,.221.011c.026,0,.051.008.083.012l.061-.017a.5.5,0,0,1,.3.022l-.109-.108.438.144a2.341,2.341,0,0,0,.487.1l.131-.046a1.4,1.4,0,0,1,.533-.032,1.079,1.079,0,0,0,.379-.011l-.278-.075h.341l-.236-.1.384.056.031-.019,0,.022.293.042h.022a.322.322,0,0,1,.106.018,2.614,2.614,0,0,0,.336.02,1.871,1.871,0,0,0,.679-.1l.126-.056.018.1a.567.567,0,0,0,.086.03l.022-.025a.222.222,0,0,1,.129-.071l.063-.012a.376.376,0,0,0,.08-.017l.068-.017.05,0a.815.815,0,0,0,.09.007.094.094,0,0,1,0-.03.153.153,0,0,1,.159-.154c.138-.009.174,0,.218.027l.591-.315-.178.16h.168a.5.5,0,0,1,.262.105.739.739,0,0,0,.1.056l-.007.016.066-.039.015.029c.012,0,.032-.007.051-.012a.407.407,0,0,1,.271.006,1.6,1.6,0,0,1,.245-.063.717.717,0,0,0,.24-.072L28.4,115l.091.017a1.935,1.935,0,0,0,.242.035l.075-.064a.287.287,0,0,1,.272-.064h0a1.51,1.51,0,0,1,.129-.105c.049-.037.1-.077.138-.111l.037-.036.052.006a.319.319,0,0,1,.236.129.641.641,0,0,1,.274-.022h.025a.108.108,0,0,1-.012-.035.142.142,0,0,1,.047-.134c.057-.133.212-.141.367-.1.085.025.172.046.219.012l.118-.085-.008-.014.018.007.031-.022,0,.036.254.1a.29.29,0,0,0,.062-.013.42.42,0,0,1,.111-.019.187.187,0,0,1,.121.042,1.948,1.948,0,0,1,.454-.121c.234-.042.456-.083.5-.225l.03-.094.093.017.07-.054a.4.4,0,0,1,.43,0,.486.486,0,0,0,.218.061.183.183,0,0,1,.01-.036.212.212,0,0,1,.18-.108l.022,0,.223.061c-.007-.013-.017-.027-.024-.038a.549.549,0,0,1-.06-.1l-.059-.139.15-.012.079-.01a.708.708,0,0,1,.231-.006l.032-.079.1.041-.1-.041.022.008-.022-.009.124.051a.128.128,0,0,1,.019-.045h0c.056-.08.2-.087.3-.092l.09,0,.022.088a.152.152,0,0,1,0,.039.871.871,0,0,1,.129-.041l.056-.015a.2.2,0,0,1,.08-.026.175.175,0,0,1,.183-.136.563.563,0,0,1,.088.009.264.264,0,0,1,.043.014l.187-.124,0-.016.009.007.028-.018.05.083.041.034a.325.325,0,0,0,.122,0,.447.447,0,0,1,.247.025.624.624,0,0,0,.065-.051c.014-.012.027-.026.042-.037l.026-.031a.452.452,0,0,1,.412-.12.657.657,0,0,1,.275-.046c-.006-.025-.014-.052-.018-.066a.223.223,0,0,1,0-.207.17.17,0,0,1,.187-.049.425.425,0,0,1,.379.155,1.65,1.65,0,0,1,.284-.079.631.631,0,0,0,.4-.177l.051-.074.083.036a.284.284,0,0,1,.071.046l-.007.012a2.756,2.756,0,0,1,.479-.147,1.506,1.506,0,0,0,.548-.2.239.239,0,0,1-.025-.152l0-.085.246-.07.085,0,.046.05.032.059a.51.51,0,0,1,.036.1.966.966,0,0,0,.478-.226h0l.05.031a.186.186,0,0,1,.02-.065.389.389,0,0,1,.351-.163l.023-.056.1.014a.243.243,0,0,1,.109.05.219.219,0,0,1,.007-.051l.025-.091.156.019a1.931,1.931,0,0,0,.233.021.3.3,0,0,0,.159-.034l.056-.227.112-.012a.341.341,0,0,1,.169.041l.032-.025c.119-.092.182-.143.189-.2l.033-.075.09-.032.029,0a1.89,1.89,0,0,0,.318.026,2.955,2.955,0,0,0,1.241-.312l-.023-.025.056-.073a.213.213,0,0,1,.071-.064l-.129-.028.132-.142a.3.3,0,0,1,.121-.075l.073-.025a.544.544,0,0,1,.219.03.28.28,0,0,0,.122.02l.059-.009.03.032.016-.007-.321-.231.224.019,0,0,.5-.214.3-.129.211-.114-.029.1.03-.017.064-.035.056.045a.3.3,0,0,0,.076.029.228.228,0,0,1,.174.119l.018-.015c-.074-.055-.18-.143-.134-.274l.016-.044.163-.072.054.054a.308.308,0,0,0,.084.032.214.214,0,0,1,.182-.075.829.829,0,0,1,.1.007l-.208-.446.386.339.006-.031.008-.057.052-.024a.546.546,0,0,1,.189-.034l.055,0-.129-.158.238.019.034-.009a.542.542,0,0,1,.157-.031.194.194,0,0,1,.143.056.175.175,0,0,1,.048.086H46.9a.442.442,0,0,0,.046-.01l.038-.009a.185.185,0,0,1,.029-.062l.062-.083.1.07,0-.022-.027,0,.008-.218a.265.265,0,0,0-.057.013.254.254,0,0,1,.207-.16l.044,0,.034.028c.025.019.052.04.081.06a.387.387,0,0,1,.208-.265l.07-.012a.564.564,0,0,1,.157.024l.079-.02a.209.209,0,0,1,.216.043c.01-.023.022-.048.034-.075s.039-.082.056-.121l-.266-.1.535-.266.08.025a.736.736,0,0,1,.243.108c0-.019-.007-.045-.013-.078a.579.579,0,0,1-.017-.139l0-.065.211-.1h.007v0l.078-.04-.088-.087.232.015.381-.191,0,.07a.189.189,0,0,1,.216-.019l.032-.021a.435.435,0,0,1,.147-.061l.059-.044V107.7c0-.026,0-.053,0-.08v-.064l.8-.426H50.9l1.212-.641a107.534,107.534,0,0,1,10.57-5.125c1.811-.758,3.8-1.428,5.9-2.139,1.674-.565,3.4-1.149,5.111-1.8a34.331,34.331,0,0,0,10.266-5.6,37.155,37.155,0,0,0,4.5-4.449A23.818,23.818,0,0,0,90,85.424c.133-.182.266-.365.4-.547a5.432,5.432,0,0,0,.726-1.382,1.722,1.722,0,0,0-.09-1.447,2.3,2.3,0,0,0-1.917-.924c-.256-.021-.532-.031-.845-.031-.331,0-.659.011-.984.022l-.43.012-.089,0c-2.541.091-6.02.216-9.237.216-2,0-3.677-.05-4.968-.148-.548-.034-1.254-.051-2.158-.051-1,0-2.136.02-3.337.041-1.074.019-2.185.038-3.3.045-.715.007-1.427.011-2.123.011a61.768,61.768,0,0,1-6.34-.222l-.79-.1.785-.123c1.2-.186,4.936-.437,8.234-.659,2.282-.154,4.439-.3,5.264-.391.894-.105,1.81-.2,2.722-.287.722-.063,1.459-.1,2.17-.13l.577-.027c1.6-.07,3.312-.119,5.537-.159l5.567-.084,1.455-.028c.188,0,.377,0,.567-.008.492-.009.993-.018,1.477,0a6.911,6.911,0,0,1,1.929.3,4.2,4.2,0,0,1,1.611.847.875.875,0,0,1,.163.161l.022.022a6.019,6.019,0,0,1,.474.577,1.266,1.266,0,0,1,.189.3c.036.066.077.143.128.234s.1.221.151.351l.079.2c.011.068.027.139.042.213a2.852,2.852,0,0,1,.075.477A5.063,5.063,0,0,1,93.6,84.5a6.235,6.235,0,0,1-.668,1.679c-.072.142-.145.285-.217.433-.318.636-.639,1.257-.955,1.851-.248.4-.514.816-.794,1.24l-.4.605-.065.051-.062.038.081-.006-.369.468a5.942,5.942,0,0,0-.429.427l-.1.1,0,.008.06.095-.1.057a1.662,1.662,0,0,0-.485.505c-.044.061-.088.122-.135.182l.125-.031-.528.578-.071.007a.39.39,0,0,1-.07-.009c-.013,0-.011-.016-.046,0l.246.054-.273.139a4.434,4.434,0,0,0-.945.785c-.173.168-.337.331-.493.459l.018.033-.066.057c-.166.147-.327.3-.489.463a9.941,9.941,0,0,1-.784.712c.169.01.35.023.544.039.657.052,1.145.093,1.529.124.714.06,1.074.089,1.5.112a29.058,29.058,0,0,1,3.609.3c.556.076,1.145.17,1.8.284l1.354.25.615.163a7.054,7.054,0,0,1,3.978,3.117,7.338,7.338,0,0,1,.976,4.959l-.058.5-.087.447a5.286,5.286,0,0,1-.127.527,13.167,13.167,0,0,1-.935,2.517,9.944,9.944,0,0,1-1.132,1.8l-.34.425-.008,0h0l-.124.149c-.051.061-.1.122-.158.177l-.021.017a2.811,2.811,0,0,0-.329.246l-.044.036.069.108-.129.047a.872.872,0,0,0-.36.282c-.023.027-.047.052-.071.078l.088,0-.409.374.1.045-.283.082a2.618,2.618,0,0,0-.746.449c-.092.069-.181.137-.265.193l.017.031-.08.056c-.115.081-.226.173-.338.265a4.031,4.031,0,0,1-.611.442.228.228,0,0,1,.032.13l0,.05-.139.1.283.521-.429-.413-.012.009-.05-.012a.651.651,0,0,0-.187.081c-.132.072-.25.119-.331.069l-.006.006a5.387,5.387,0,0,1-.608.53.442.442,0,0,1,.013.046.111.111,0,0,0,.007.027l.033.08-.906.685-.043.02a1.322,1.322,0,0,0-.294.1.311.311,0,0,1,.012.08l0,.054-.2.164-.473.064c.015.095-.033.166-.15.221l-.093.045-.03-.055-.035.007-.024,0c-.018.017-.042.036-.075.061a1.851,1.851,0,0,0-.24.215l.051,0,.032.052a.158.158,0,0,1-.015.159l-.028.035a1.209,1.209,0,0,1-.252.154,1.061,1.061,0,0,0-.133.073l0,.006-.054.059a.675.675,0,0,1-.4.2.163.163,0,0,1-.134-.057,1.328,1.328,0,0,0-.124.075l.3.077-.371.115a3.173,3.173,0,0,0-.62.28l-.146.175a2.155,2.155,0,0,1-.58.446,1.578,1.578,0,0,0-.492.385.138.138,0,0,1-.041.07l-.119.206-.023-.128-.021.01a.262.262,0,0,1-.1.124c-.03.067-.1.1-.2.143-.046.021-.1.043-.142.07l.008.019a5.231,5.231,0,0,0-1.217.92l-.1.119-.046-.082a1.177,1.177,0,0,0-.144.046l-.034.091a.439.439,0,0,1-.127.158l-.037.031a.76.76,0,0,0-.109.1l-.1.069a1.481,1.481,0,0,0-.189.114.144.144,0,0,1,.039.06c.013.041.02.124-.1.211a.5.5,0,0,1-.26.125.465.465,0,0,0-.108.058l-.229.108-.02-.017a.391.391,0,0,0-.031.025.212.212,0,0,1-.119.066c-.027.022-.058.046-.094.073s-.065.049-.094.074l.223.114-.15.1a.544.544,0,0,1-.286.084l.67.557-.407-.212.3.345-.777-.6-.043-.024a.568.568,0,0,0-.083.073.582.582,0,0,1-.3.182,3.174,3.174,0,0,1-.284.27c-.123.108-.29.255-.3.325l-.009.056-.125.061a2.62,2.62,0,0,0-.309.165l.025.012-.064.1a.471.471,0,0,1-.251.211l-.046.021a1.824,1.824,0,0,1-.15.236c-.051.074-.105.152-.142.212l-.017.028-.029.014a.34.34,0,0,1-.3.032,1.032,1.032,0,0,1-.318.233l-.1.058.025.053a.158.158,0,0,1-.025.162c-.041.182-.2.24-.343.291a.618.618,0,0,0-.316.194l-.137.187-.048-.191c-.033.023-.068.046-.1.066l-.031.018.133.083-.239.067a.487.487,0,0,0-.113.085c-.08.07-.164.138-.251.12a4.528,4.528,0,0,1-.538.477c-.275.219-.558.445-.6.642l-.013.053-.05.022-.034.021-.1.126a.65.65,0,0,1-.435.244.717.717,0,0,0-.352.156v0c.01.094-.07.16-.154.221l-.294.115a.431.431,0,0,0-.046.05.287.287,0,0,1,.081.06l.086.094-.106.071c-.032.02-.064.043-.1.066a1.087,1.087,0,0,1-.307.176l-.055.154v0l-.1-.038h0l-.041-.015-.009.007,0,.05a.144.144,0,0,0,.063.006.757.757,0,0,0-.069.047c-.025.077-.124.148-.3.263l-.106.067-.041-.093c-.041.04-.094.085-.158.137-.033.027-.065.054-.083.07a.356.356,0,0,1-.114.081.223.223,0,0,0-.007.027c-.022.1-.066.162-.233.237a.247.247,0,0,1-.073.023l-.255.284-.056-.038-.029,0a.7.7,0,0,0-.174.1.64.64,0,0,1-.275.139,1.169,1.169,0,0,0-.129.148c-.016.021-.032.042-.049.062l-.041.06a1.085,1.085,0,0,1-.431.334l-.012.012a1.555,1.555,0,0,1-.375.249c-.007.017,0,.03.013.059a.194.194,0,0,1,.02.168.264.264,0,0,1-.166.132.536.536,0,0,1-.428.114c-.111.1-.237.2-.36.289a2.092,2.092,0,0,0-.524.48l-.023.035-.041.011a.241.241,0,0,1-.085.009.367.367,0,0,0-.038.017c-.173.155-.367.3-.556.448a5.079,5.079,0,0,0-.7.6.168.168,0,0,1,.011.1l.1.1-.174.054a.1.1,0,0,0-.07.058l-.074.065-.066.011a.278.278,0,0,1-.073-.011l-.045-.026-.017-.021-.138.08a3.013,3.013,0,0,0-.518.48h0l-.056-.036v0c.008.177-.31.37-.375.407l-.04.023-.026-.007-.032.076-.036.017a.288.288,0,0,1-.117.027.124.124,0,0,0-.1.041.2.2,0,0,1-.017.1l-.016.035-.1.049a1.959,1.959,0,0,0-.547.346l-.091.207-.027.017a.587.587,0,0,1-.225.093l-.1.1a1.428,1.428,0,0,0-.277.328l-.012.03-.074.055a9.936,9.936,0,0,0-1.871,1.307l.012,0-.115.138.182-.036-.615.484-.09.041a.921.921,0,0,0-.169.085l-.012.008.3-.036-.55.3.013.008-.5.391a.7.7,0,0,0-.066.041l.006.01-.285.227h0l-.266.211-.032.017a.647.647,0,0,0-.062.025c-.032.013-.056.023-.076.03h.08l-.443.35-.033.018-.056.024-.032.041a.468.468,0,0,1-.054.053l-.053.041c-.044.032-.1.059-.145.087a.815.815,0,0,0-.125.075l0,.051-.09.069h-.066l-.02.033-.033.052-.32.26a.507.507,0,0,0-.12.091l-.337.268-.05-.01a.121.121,0,0,1-.031-.01l-.016.009a.725.725,0,0,0-.084.057c-.036.025-.071.051-.107.073a.252.252,0,0,1-.049.076l-.025.027-.134.024c-.026.018-.042.032-.053.041a.173.173,0,0,1-.058.159l.013.021-.207.163-.12.034a.223.223,0,0,1-.023.066l-.252.211h0l-.423.328a.159.159,0,0,1-.08.023l-.051-.007c-.033.05-.089.12-.152.2l-.755.6-.006-.008c-.019.017-.036.035-.052.053l-.491.381a.748.748,0,0,1-.089.036.428.428,0,0,0-.094.044l0,.067-.541.42-.007-.017-.046.041c-.158.148-.215.169-.281.182-.022.006-.052.012-.163.105l-.046.1-.484.391-.452.35c-2.634,2.079-4.513,3.47-5.584,4.138-.575.356-.78.4-.916.4A.479.479,0,0,1,49.276,149.558ZM26.981,115.287l0,.006.056-.006.022,0-.133-.2-.188.17.092.016.01.021h.008a.378.378,0,0,1,.054-.007ZM41.4,111.811h0ZM6.069,101.951a.154.154,0,0,1-.141-.1c-.025-.069-.091-.251,1-1.324l.084-.083.039-.023a.38.38,0,0,0,.13-.1,1.331,1.331,0,0,1,.1-.095l.036-.04c.129-.089.265-.2.4-.317.043-.037.085-.073.129-.108l0-.008-.007-.095.1.01a.546.546,0,0,0,.076-.053.289.289,0,0,1,.092-.076.3.3,0,0,0,.066-.047l.07.056-.021-.1a.2.2,0,0,1,.051-.047l.019-.064h.047a.213.213,0,0,1,.089-.08l.012,0v0l.006-.007,0-.013.051-.038.018-.013.01-.049.032-.024c.255-.192.486-.4.738-.629l-.013-.04.072-.047a.264.264,0,0,0,.032-.025c.026-.02.048-.036.069-.051.018-.032.017-.026.017-.026a.168.168,0,0,1,.033-.035l-.012-.036.092-.039.02-.01-.035-.032.145-.068-.173-.015.377-.172a.661.661,0,0,0,.124-.086l0,0,.1-.079c.025-.019.049-.041.073-.061s.064-.056.1-.083l-.125-.114-.117.037.1-.056-.221-.2.337.135.406-.236-.156-.022.563-.183a.161.161,0,0,1,.058-.055l.036-.022v0l.027-.056.012-.02-.187,0,.493-.219a1.176,1.176,0,0,0,.129-.071l.022-.028a.637.637,0,0,1,.152-.13.627.627,0,0,0,.059-.042l-.011-.027.061-.036.086-.151.027.059.013-.007v0l.038-.025a1.3,1.3,0,0,0,.252-.208l.07-.091.023.02.023-.022.051-.05-.007-.044.061-.049a.407.407,0,0,1,.048-.034l-.032-.007.183-.142a.34.34,0,0,1,.141-.05l.017.049.006,0,.024-.069a.191.191,0,0,0-.037.007.249.249,0,0,1,.085-.062c.015-.018.035-.036.052-.054s.037-.036.045-.046l.007-.043.064-.034.034-.019.006-.01a.179.179,0,0,1,.079-.085l.017-.032c.008-.016.017-.032.023-.045l.015-.035.033-.017a.2.2,0,0,1,.09-.027l.019-.017,0-.013.02-.03a.16.16,0,0,1,.091-.111l-.1-.033.206-.065.049-.085.038.057.02-.006a.178.178,0,0,1,.077-.051,1.244,1.244,0,0,1,.107-.1l.066-.058.028-.047,0-.058.052-.024,0-.007a.23.23,0,0,1,.162-.1l.027-.007a.149.149,0,0,1,.039-.055l-.042-.037.139-.093a.355.355,0,0,1,.087-.051.236.236,0,0,1,.108-.112l.075-.047.014.014,0,0a.16.16,0,0,1,.1-.1l.017-.022,0-.064.048,0,.011-.016.041.018h.017a.245.245,0,0,1,.071-.038l0,0,.007-.013,0-.009a.259.259,0,0,1,.133-.123l.009-.008,0,0,.015-.061a.126.126,0,0,1,.083-.089.221.221,0,0,1,.137-.038c.021-.018.041-.033.06-.048s.075-.058.082-.078L15.615,93l.075-.012a1.479,1.479,0,0,1,.114-.1.948.948,0,0,0,.1-.09l-.026-.065.153-.121.068.016a.512.512,0,0,0,.066-.066l.013,0a.2.2,0,0,1,.1-.135v-.022l.069-.027.007,0,.007-.033.07-.028.077-.032v-.07l.05-.033a.264.264,0,0,1,.065-.027c.01-.015.022-.029.022-.015v-.063l.044-.038.036-.022a1.115,1.115,0,0,0,.329-.207l.1-.171-.193-.016.359-.148.116-.106.023-.031.009,0,.2-.182.064-.075.027.008-.2-.181.27.052-.035-.017.225-.09a.2.2,0,0,1,.119-.051l.016,0,.022-.045-.019-.007,0-.009-.085.011.2-.139-.036.006.345-.334.031-.006.022,0,0-.033.012-.01-.119-.039.268-.1.018-.018,0,0,.461-.42V89.66l.148-.118.114-.1v-.011l.067-.049.007-.007.2-.177a33.137,33.137,0,0,1,2.966-2.439c.634-.451,1.339-.858,2.084-1.287.442-.255.9-.519,1.34-.794A8.343,8.343,0,0,0,29.03,82.1a8.761,8.761,0,0,0,1.219-5.645,22.818,22.818,0,0,0-.434-2.35,21.745,21.745,0,0,1-.508-2.373c-.048-.343-.153-.8-.274-1.339-.109-.485-.234-1.035-.333-1.579l-.019-.1c-.046-.245-.094-.5-.129-.749-.025-.3-.041-.564-.046-.8a3.877,3.877,0,0,1,.128-1.271l.083-.245.118.231a8.556,8.556,0,0,1,.409,1.553c.046.217.093.444.143.664.073.275.143.549.208.809.156.61.29,1.138.381,1.361a22.622,22.622,0,0,1,1.352,7.549l0,.032a12.62,12.62,0,0,1,.027,1.8l-.017.193a4.082,4.082,0,0,1-.13.829l-.032.129,0,0-.105.364a1.533,1.533,0,0,0-.075.176l0,.007.052.038-.073.09a.483.483,0,0,0-.04.058l.041-.027-.165.377.114-.016-.223.227a1.371,1.371,0,0,0-.187.3c-.039.076-.08.153-.124.221l.006.006-.05.075c-.041.064-.08.13-.121.2a3.756,3.756,0,0,1-.223.343.139.139,0,0,1,.012.052v.036l-.042.066.245.292-.357-.157a.621.621,0,0,0-.068.066c-.061.064-.106.11-.164.119-.08.119-.173.255-.254.352l.029.056-.113.138a3.088,3.088,0,0,1-.25.283l-.081.085-.027.021a1.143,1.143,0,0,0-.124.081.144.144,0,0,1,0,.019l0,.041-.1.1L28.489,85a.2.2,0,0,1-.086.128l-.1.079-.015-.027-.013.012c-.017.016-.053.048-.085.081l.017.07-.034.055-.019.024a1.023,1.023,0,0,1-.132.1c-.017.011-.033.022-.054.037l-.036.041a.644.644,0,0,1-.076.069l.151,0-.454.2a2.508,2.508,0,0,0-.309.171l-.084.09a1.887,1.887,0,0,1-.329.255,1.572,1.572,0,0,0-.243.184l-.006.029-.036.02-.189.218,0-.08a.443.443,0,0,1-.073.041c-.023.012-.049.023-.073.037l0,.007a4.758,4.758,0,0,0-.664.458l-.117.1-.023-.057,0,0-.021.031a.261.261,0,0,1-.076.074l-.028.023a.46.46,0,0,0-.06.046l-.059.038L25.1,87.6a.155.155,0,0,1-.087.137c-.088.056-.115.07-.143.066l-.052.027-.15.068,0,0a.139.139,0,0,1-.055.026l-.008.006.1.044-.177.108a.294.294,0,0,1-.054.027l.456.393-.34-.158.19.265-.552-.425-.017.013a.441.441,0,0,1-.161.09c-.046.041-.1.082-.155.123a1.036,1.036,0,0,0-.159.133l-.016.04-.077.036c-.044.021-.084.04-.124.061l-.054.063a.356.356,0,0,1-.149.108l-.017.007c-.02.027-.05.059-.088.1s-.065.069-.087.1l-.036.028a.261.261,0,0,1-.151.033.8.8,0,0,1-.162.1l-.023.012a.135.135,0,0,1-.038.1.346.346,0,0,1-.2.151.375.375,0,0,0-.153.085l-.033.034.006,0-.151.146,0-.083-.052.021a.547.547,0,0,0-.051.036.259.259,0,0,1-.136.068,3.168,3.168,0,0,1-.289.216c-.069.049-.143.1-.2.149h0l-.126.124,0,.01-.018.037-.037.017-.01,0-.056.055a.467.467,0,0,1-.242.13.416.416,0,0,0-.153.065.264.264,0,0,1-.127.12l-.095.038.053.066-.158.1a.822.822,0,0,1-.156.087l-.033.057-.056-.033-.007.018,0,.017.01.019-.027.016a.556.556,0,0,1-.174.129l-.123.071-.007-.028-.022.015-.042.03a.335.335,0,0,1-.057.039.361.361,0,0,1-.182.14l-.163.15-.036-.023-.066.042a.485.485,0,0,1-.141.075c-.021.019-.042.041-.065.065l-.027.03-.024.027a.754.754,0,0,1-.235.173l0,0a1.1,1.1,0,0,1-.174.119c.015.075-.023.134-.116.176a.371.371,0,0,1-.217.078c-.057.047-.119.09-.178.133a1.5,1.5,0,0,0-.277.23l-.019.024-.03.01a.227.227,0,0,1-.048.011c-.094.077-.2.152-.3.224a3.737,3.737,0,0,0-.356.279v.009l.06.084-.16.06-.025.023-.044.024a.125.125,0,0,1-.044.007l-.052-.008-.043.025a2.175,2.175,0,0,0-.271.226h0l-.017-.014c-.017.046-.066.114-.222.206l-.074.056a.234.234,0,0,1-.069.022l-.018,0a.192.192,0,0,1-.02.047l-.016.025-.057.029a1.441,1.441,0,0,0-.269.164l-.051.082-.033.034a.409.409,0,0,1-.116.056l-.046.042a1.022,1.022,0,0,0-.147.146l-.012.022-.052.037a4.4,4.4,0,0,0-.8.547l.143-.046-.443.353.207-.048-.585.349-.29.23h0l-.609.483-.014.007-.083.073c-.023.017-.051.033-.075.049l-.04.025v.018l-.3.236a.375.375,0,0,0-.07.056l-.175.139-.043,0a.3.3,0,0,0-.034.024l-.047.033a.2.2,0,0,1-.03.039l-.02.022-.067.019-.006,0a.167.167,0,0,1-.051.087l.006.007-.533.422a.149.149,0,0,1-.065.022c-.019.022-.043.051-.069.08l-.354.287-.047.032L10.8,98.3l-.255.2a.411.411,0,0,1-.046.024l-.025.014,0,.027-.348.294h0l-.678.572c-2.963,2.527-3.151,2.527-3.3,2.527A.414.414,0,0,1,6.069,101.951ZM10.357,97.4l.075.031.02-.016.019.012a.228.228,0,0,1,.085-.041l.032-.03,0-.012,0-.018ZM25,87.683l-.044-.039h0l-.048.029A.068.068,0,0,0,25,87.683ZM50.522,77.142a13.337,13.337,0,0,1-.492-2.078v-.007L50,74.87l0-.015a1.187,1.187,0,0,0-.02-.345c-.012-.08-.025-.168-.031-.261l-.038-1.305-.064-.1.041-.057a.943.943,0,0,0,.031-.23.45.45,0,0,1,.007-.177.785.785,0,0,0,.015-.182l.053,0-.056-.021a.2.2,0,0,0,.007-.089.326.326,0,0,1,.008-.125l-.032-.066.033-.048a.232.232,0,0,0-.006-.039.364.364,0,0,1,0-.168l.01-.027c0-.016,0-.029,0-.042a.524.524,0,0,1,0-.062l-.006-.007.009-.055c0-.03.009-.058.012-.083l-.029-.07,0-.031c.045-.269.084-.557.123-.889l.163-.852,0-.031v-.012l-.03-.025.025-.072c0-.017.012-.046.019-.077a1.2,1.2,0,0,1,.048-.171.2.2,0,0,1,0-.065h0a.319.319,0,0,1,.038-.114l-.03-.03.044-.075a.738.738,0,0,0,.066-.148l-.048-.007.08-.141a.468.468,0,0,0,.048-.129l0-.034-.089.058.334-.719-.007,0,.056-.124c.024-.052.045-.106.066-.16.032-.08.066-.163.108-.249a.125.125,0,0,1-.012-.061l-.345-.1.4-.066.013-.028h.026l.028-.05a.278.278,0,0,1,.1-.131c.019-.044.039-.085.056-.121l.008-.067-.054-.09.033-.056c.012-.018.03-.047.052-.08s.085-.13.095-.153l.023-.039c.027-.028.056-.056.085-.085l-.213.066.469-.426a1.046,1.046,0,0,1,.09-.074.184.184,0,0,1,.057-.1l.054-.056.018.008.018-.022.027-.039-.023-.047L52,65.325l.015-.032a.753.753,0,0,1,.086-.1l.034-.038-.117.041.382-.355c.077-.071.153-.141.23-.211l.042-.066a1.266,1.266,0,0,1,.221-.237,1.192,1.192,0,0,0,.148-.148l-.013-.029.053-.042.076-.156.022.042a.408.408,0,0,1,.08-.073l.01-.007,0,0a1.859,1.859,0,0,1,.181-.149,2.613,2.613,0,0,0,.352-.3l.068-.085.04.032.016-.007,0-.006a.184.184,0,0,1,.049-.07l.035-.034a.3.3,0,0,0,.036-.032L54.1,63.2l.024-.016a.14.14,0,0,1,.064-.128c.068-.054.094-.068.122-.072l.054-.032.088-.036-.093-.025.231-.131a.4.4,0,0,1,.17-.045l.056-.007.011.046.025-.063a.137.137,0,0,0,.027-.02.357.357,0,0,1,.147-.075c.035-.029.079-.061.122-.091a.569.569,0,0,1,.109-.07l.009-.056.051-.024a1.174,1.174,0,0,1,.143-.051l.019,0,.033-.034a.268.268,0,0,1,.158-.076h0a.693.693,0,0,1,.066-.061c.025-.022.051-.046.069-.064l.022-.024.032-.007a.277.277,0,0,1,.151,0,.554.554,0,0,1,.139-.051.117.117,0,0,1,.032-.069.265.265,0,0,1,.224-.114.355.355,0,0,0,.121-.03l-.093-.074.174.016.063-.046.012.052.113.01a.214.214,0,0,0,.041-.011.27.27,0,0,1,.143-.013,2.02,2.02,0,0,1,.275-.086c.055-.014.14-.037.2-.06l-.028-.008.131-.064.02-.032.051,0,.061-.03a.384.384,0,0,1,.282,0,.37.37,0,0,0,.113.026.2.2,0,0,1,.138-.049h.015l.026,0-.041-.082.225,0a.729.729,0,0,1,.14,0l.016-.017.027.025h0l-.027-.027.028.027a.207.207,0,0,1,.032.012.109.109,0,0,1,.044-.045.347.347,0,0,1,.165-.027H59l.006.041a.63.63,0,0,1,.09,0l.032,0h.012a.191.191,0,0,1,.187-.017l.026.008.09-.018.034-.022.016.012.029-.006.029.051.006,0a.421.421,0,0,0,.067.01.386.386,0,0,1,.145.032.24.24,0,0,0,.043-.012l.029-.008.022-.009a.445.445,0,0,1,.271,0l.029,0a.69.69,0,0,1,.1.008.136.136,0,0,1,.031-.053l.045-.039h.047a.2.2,0,0,1,.08.02.33.33,0,0,1,.2.113c.056,0,.114.011.173.019a.673.673,0,0,0,.257,0l.051-.02.046.029c.022.014.035.027.031.028a2.259,2.259,0,0,1,.333.033,1.652,1.652,0,0,0,.276.027.116.116,0,0,1,.014-.023l.036-.066.178.023.057.017.042.075.041.024a1.2,1.2,0,0,0,.24.007l.01.026a.31.31,0,0,1,.277-.014l.021-.017.061.027a.16.16,0,0,1,.042.029l.046-.036.095.04a.708.708,0,0,0,.208.07l.08-.066.054.012a.329.329,0,0,1,.11.053l.018,0,.118-.012.053-.038.055.006.035.011a2.411,2.411,0,0,0,.787.195l-.028-.015.3-.059.044,0c.016,0,.029,0,.046,0l.028,0-.119-.132.359.156.819.079-.075.052.011.007.077-.057.07.006.049-.006.029.049a.067.067,0,0,0,.024.016l.036,0a.242.242,0,0,1,.074.012l-.015-.265.2.277.016-.015.047,0a.324.324,0,0,1,.059.01l-.031-.1.232.1c.066.011.158.027.19.108l0,.008.009,0h.008l.1-.027.028.032a.123.123,0,0,1,.038-.022l.019-.047a.128.128,0,0,0-.052,0,.237.237,0,0,1,.127-.022l-.017-.012.2.041a.305.305,0,0,1,.068-.007l.05,0a.576.576,0,0,1,.1.047l.012,0-.118-.081.564.033.047.013.024.016a.771.771,0,0,1,.081.057.162.162,0,0,1,.021-.032l.036-.041.1.006-.058-.1.266.113.354.021-.026.033a.161.161,0,0,1,.036.022h.021a.4.4,0,0,1,.1.012h.017l.011-.013.035-.044,1.36.051c.519.012,1.038.036,1.563.061.567.026,1.152.054,1.752.066.62.018,1.256.059,1.93.1.578.037,1.174.075,1.806.1.512.031,1.067.08,1.65.145.3.036.593.058.9.082.271.022.545.041.82.072.57.054,1.174.12,1.789.195l1.825.124c.223.013.447.031.671.048.382.031.779.062,1.16.067l1.812-.008a20.743,20.743,0,0,0,3.395-.278c1.582-.258,3.305-.569,4.971-.869,1.841-.333,3.744-.676,5.511-.959.4-.075.853-.121,1.327-.171.221-.023.447-.047.686-.075l.433-.022a16.951,16.951,0,0,1,1.865-.028,14.984,14.984,0,0,1,2.156.206l.316.061a9.671,9.671,0,0,1,1.8.522c.11.047.231.091.361.136a5.784,5.784,0,0,1,.616.247l1.177.543a14.117,14.117,0,0,1,2.47,1.676,11.463,11.463,0,0,1,1.931,2.189,9.95,9.95,0,0,1,.6,1.072,7.245,7.245,0,0,1,.314.9l.124.485-.315-.388c-.087-.107-.2-.26-.338-.446a16.825,16.825,0,0,0-2.179-2.509,11.971,11.971,0,0,0-3.145-2.07,19.756,19.756,0,0,0-7.113-1.262,23.449,23.449,0,0,0-5.232.6c-.223.058-1.4.373-2.787.859-.447.149-.925.293-1.548.464l-.314.086h0l-.456.114a3.319,3.319,0,0,0-.335.047l-.04.006-.008.07-.1-.007a.919.919,0,0,0-.309.041l.074.023-.55.127.065.06-.307-.018a3.531,3.531,0,0,0-.694.073c-.119.02-.235.041-.34.052l0,.017-.08.012c-.126.019-.254.044-.382.07a5.973,5.973,0,0,1-.682.107.171.171,0,0,1-.05.08l-.024.021-.151.026-.047.318-.114-.293-.026-.012s-.1,0-.192.007c-.055,0-.107.009-.148.009a.207.207,0,0,1-.136-.039l-.418.1c-.145.024-.266.039-.361.046l-.015.022-.023.066-1.067.117-.014,0a1.678,1.678,0,0,0-.308-.024.273.273,0,0,1-.038.047l-.027.025-.22.027-.412-.088c-.04.054-.1.075-.216.075h-.135l.009-.043-.012,0c-.022,0-.051.007-.1.013s-.176.02-.271.036c.012.091-.078.124-.138.143a1.169,1.169,0,0,1-.289,0,1.16,1.16,0,0,0-.139-.007L86,65.64a1.044,1.044,0,0,1-.122.007.732.732,0,0,1-.261-.036l.114.08-.485-.086a4.879,4.879,0,0,0-.634-.062l-.213.037a2.526,2.526,0,0,1-.417.03c-.085,0-.171,0-.255,0s-.16,0-.237,0a1.575,1.575,0,0,0-.367.033.148.148,0,0,1-.066.017l-.292.075.063-.073a.315.315,0,0,1-.091,0,.5.5,0,0,1-.216-.011c-.047-.008-.1-.017-.148-.021l0,.011a9.512,9.512,0,0,0-1.024-.059,4.034,4.034,0,0,0-.41.017l-.163.017.019-.063c-.032-.008-.072-.017-.112-.025l-.09.031a.578.578,0,0,1-.171.02H80.4l0,0h-.057a1.308,1.308,0,0,0-.139.006l-.075-.006c-.07-.008-.138-.017-.207-.019l-.012.023a.2.2,0,0,1-.193.073c-.177-.009-.211-.016-.252-.039a.67.67,0,0,0-.118-.02l-.231-.049,0-.015-.042,0a.288.288,0,0,1-.114-.022c-.034,0-.075,0-.118-.008l-.055,0,.088.14-.225-.024a.644.644,0,0,1-.226-.073l.128.513-.182-.292-.011.268-.181-.574a.919.919,0,0,0-.112,0,.758.758,0,0,1-.309-.047c-.113.006-.243,0-.372,0-.081,0-.16-.007-.232-.007a.554.554,0,0,0-.191.018l-.034.016-.109-.023c-.09-.019-.178-.038-.267-.051l-.164.024a.619.619,0,0,1-.286-.016l-.056-.012a2.033,2.033,0,0,1-.256.027c-.082.007-.17.013-.232.02l-.021,0-.02,0a.342.342,0,0,1-.222-.124,1.333,1.333,0,0,1-.365-.046l-.116-.024a.147.147,0,0,1-.143.084.615.615,0,0,1-.394-.036.977.977,0,0,0-.318-.068l-.307.017.039-.04-.177-.07a.691.691,0,0,0-.142-.02A.386.386,0,0,1,73.133,65a5.029,5.029,0,0,1-.733-.067,3.658,3.658,0,0,0-.642-.054l.018.011h-.1a.346.346,0,0,0-.037.01l-.034.011-.035-.011a.307.307,0,0,0-.043-.01h-.154a.855.855,0,0,1-.423-.109.983.983,0,0,0-.352-.112.157.157,0,0,1-.1.029.821.821,0,0,1-.151-.021l-.246-.09-.037,0V64.6l-.01.124-.226-.046a1.38,1.38,0,0,1-.319-.082l-.149.036-.02-.087-.021.054a.6.6,0,0,0-.092-.02.16.16,0,0,1-.053.007,1.593,1.593,0,0,1-.3-.056l-.148-.036.032-.051c-.048-.006-.1-.015-.157-.023l-.1-.017a.392.392,0,0,1-.124-.027.121.121,0,0,0-.032.007.44.44,0,0,1-.284-.026.262.262,0,0,1-.063-.029l-.35-.021-.012-.043-.012-.008a.835.835,0,0,0-.186-.052.784.784,0,0,1-.262-.085,1.194,1.194,0,0,0-.168-.011h-.183a1.5,1.5,0,0,1-.464-.09l-.022,0a2.083,2.083,0,0,1-.4-.095c-.015,0-.02.006-.022.011a.161.161,0,0,1-.147.092.322.322,0,0,1-.134-.036.591.591,0,0,1-.352-.176c-.139-.019-.283-.05-.423-.08a3.2,3.2,0,0,0-.654-.094h-.031l-.023-.012a.263.263,0,0,1-.061-.04.205.205,0,0,0-.046-.017c-.211-.032-.43-.076-.647-.12a6.576,6.576,0,0,0-.843-.138.125.125,0,0,1-.032.023v.107l-.154-.073a.172.172,0,0,0-.081-.018l-.025,0-.079-.021a.2.2,0,0,1-.07-.065l-.023-.048-.126-.038a4.326,4.326,0,0,0-.635-.088h0v-.046h0v-.031h0v.03a.242.242,0,0,1-.147.036,1.463,1.463,0,0,1-.332-.05l-.036-.01L60.784,63l-.071.015-.027-.008a.338.338,0,0,1-.085-.045.15.15,0,0,0-.1-.032.189.189,0,0,1-.075.032l-.028.006-.029-.009a1.8,1.8,0,0,0-.541-.111h-.05l-.172.051-.022,0a.465.465,0,0,1-.192-.055l-.086,0a1.146,1.146,0,0,0-.363.032l-.026.017-.074,0-.056,0a5.022,5.022,0,0,0-.916-.015l-.273.055c-.148.03-.29.058-.426.09h.12l-.79.307.225.022-.562.124.017.045-.15-.012-.445.255-.051.023,0,.007-.18.1.008,0-.219.114c-.019.011-.038.021-.056.032h0l-.485.376-.025.014-.028.014-.135.116c-.032.02-.065.041-.1.06a.946.946,0,0,0-.11.072l0,.031-.066.067-.049.013-.043.074-.236.241a.65.65,0,0,0-.106.106l-.207.2-.045.027-.037,0h-.007c-.016.016-.035.039-.056.064s-.048.058-.073.085a.217.217,0,0,1-.03.069l-.1.077c-.018.022-.03.037-.037.048a.175.175,0,0,1-.033.127l.01.01-.136.173-.085.061a.185.185,0,0,1-.014.055l-.022.036a1.042,1.042,0,0,0-.073.094l-.113.185c-.022.037-.044.074-.066.11l-.033.061,0,0-.069.112a.146.146,0,0,1-.084.058v0c-.017.049-.051.133-.1.235a3.007,3.007,0,0,0-.252.479l-.068.148-.012.006a.746.746,0,0,0-.035.094l-.222.471-.022.033a.388.388,0,0,0-.058.108l.016.046-.2.589-.007,0,0,.009a.65.65,0,0,1-.1.257c-.012.016-.026.033-.056.163l0,.025.019-.033-.016.075,0,.041-.13.552c-.012.053-.024.1-.037.157a2.539,2.539,0,0,0-.057.265,17.608,17.608,0,0,0-.209,4.024c.015.479.051.871.085,1.233l.022.255c.018.221.034.406.056.564.09.783.054.868,0,.992a.144.144,0,0,1-.137.114C50.773,77.781,50.7,77.684,50.522,77.142ZM58.711,61.3h0Zm-6.388-5.13a.047.047,0,0,1,0-.013l-.01.012-.023,0h0c.032-.084.009-.081-.015-.079s-.039,0-.034-.035a.109.109,0,0,1-.019.036c0-.108-.072-.129-.105-.2a.365.365,0,0,1-.044.072c.032-.056.025-.08.017-.1-.023.027-.018,0-.015-.019s0-.037-.012-.029l-.007.012c.012-.032,0-.027-.006-.024s-.017.007,0-.03l-.036.036c.024-.043.008-.031-.007-.019s-.027.02-.02,0l.01-.016c0-.013-.007-.01-.014-.007s-.012.006-.012,0l-.007.007c-.007-.033-.046,0-.007-.057-.038.04.006.034-.051.092a.287.287,0,0,0-.176-.186.2.2,0,0,0-.049.037c0-.015-.02-.025-.008-.055a.082.082,0,0,1-.029.022c-.014,0-.007-.01,0-.026s.012-.032,0-.026a.147.147,0,0,1-.032.054c.018-.048,0-.054-.007-.076a.072.072,0,0,1-.017.033c.019-.055-.034-.011-.026-.047l-.017.032c-.026.009-.013-.009,0-.028s.022-.033.006-.029-.012.022-.021.034c.022-.064-.018-.066-.022-.1l-.008.012c-.013-.02-.045-.019-.048-.055-.017.007-.05.068-.061.043.043-.053-.016-.046.044-.1-.024,0-.066,0-.063-.028-.009.026-.06.058-.05.073l-.036.025c-.016.022.017,0-.009.025,0-.007-.008-.043-.022-.04.014-.042.05-.109.034-.131,0,.023-.039.044-.049.059l.048-.111s-.01,0-.017.012-.017.018-.017.007a.086.086,0,0,0,.019-.036s0,0-.01,0-.025-.012-.054.021c-.02.017,0,.017-.02.029-.012-.009,0-.026-.012-.035l-.006.007c-.015,0-.009-.038.023-.058.008,0-.027.027-.006.019.017-.032.007-.048,0-.059a.19.19,0,0,1-.023.039.167.167,0,0,0,0-.1.187.187,0,0,0-.017.033c-.022,0-.026-.012-.03-.029s-.007-.038-.036-.025l.01-.011.009-.012c-.006,0-.014,0-.022.007s-.019.012-.017,0c-.017.019,0-.012-.007-.023s0,0,0,0c0-.027-.021-.075-.064-.068.011-.012.023-.056.017-.058l-.023.03a.014.014,0,0,1-.014,0h0a.013.013,0,0,0-.013,0h0c0-.014,0-.031-.024-.018,0,0,0,.008-.009.017s-.02.022-.024.017.007-.017,0-.036l0-.017c.024-.026-.018-.007.015-.032-.01.007-.013,0-.017,0s-.011-.012-.032.012l-.03.036c0-.008.022-.045.031-.064a.06.06,0,0,0-.014.01c.039-.046-.024-.007,0-.051a.055.055,0,0,1-.03-.006.042.042,0,0,0-.049,0c0-.023.008-.048-.016-.047a.031.031,0,0,1-.009.022c-.022.008-.012-.006-.012-.02-.006.009-.046.017-.072.027,0-.023.032-.046.046-.063-.03.02-.03,0-.03-.011s0-.029-.027-.013c0,.01-.007.037-.028.041-.032.022-.023,0-.017-.017s.008-.03-.008-.026l.044-.035c-.014.007-.017,0-.017-.007s0-.018-.022,0c.008-.018-.032,0,.007-.038a.056.056,0,0,1-.048-.02c-.017-.017-.032-.034-.082,0,0-.009-.014-.012.007-.029s.012,0,.009,0-.007.011,0,.006.007-.014.012-.02c-.017,0-.026,0-.05.034-.041.006.045-.076.007-.083-.014.015-.022.02-.027.012l.013-.036c-.022-.008-.043.024-.07.048,0-.011-.015-.018,0-.04l-.044.022c.032-.016.01-.022.012-.031l0,.009c-.012.009-.015,0-.016-.012a.049.049,0,0,1,.043-.01c.007-.015,0-.018.007-.036-.024.025-.032,0-.041,0s.015-.029.011-.03a.011.011,0,0,1-.012,0s-.007,0-.014.011,0,0,0,0,.01,0,.006.007-.037.027-.03,0,.052-.044.022-.041a.2.2,0,0,1-.018.029h-.027l.022-.021a.035.035,0,0,0-.012.009c.02-.026-.014-.026.011-.053,0,0-.012,0-.022,0a.072.072,0,0,1-.018,0v0c-.022,0-.025-.012-.016-.032l0,0c-.006,0-.013-.013-.006-.03-.029,0-.091.071-.075.036-.011-.011.023-.051.043-.06-.037,0-.019-.058-.074-.046.007-.011.014-.013.014-.023-.036-.021-.032-.08-.1-.066,0,.013-.016.018-.027.025l-.01-.012,0,0c.022-.017.031-.025.047-.024a.057.057,0,0,0-.06-.046.023.023,0,0,0,.019-.02c-.032.027-.049.019-.047,0L50,54.02l-.027.01c0-.008.038-.036.01-.032a.106.106,0,0,1-.024.014c.006-.023.021-.058-.007-.056l-.038.014a.027.027,0,0,1,.025-.027c-.035,0-.049-.014-.078,0l0,0a.122.122,0,0,0-.055-.154l-.014.012c-.023,0,.021-.024,0-.023s-.039.015-.048.035a.01.01,0,0,1-.008,0l0,0c0-.011.017-.031.014-.041s.008,0,.007,0,0,.007.012,0-.036-.008-.008-.032a.149.149,0,0,0-.045.034l.006-.019a.053.053,0,0,0-.027.019l-.017-.017c.01-.01.016-.02.008-.027s0,.016-.009.026l-.022-.026a.058.058,0,0,0,.036-.036c-.022,0-.022.027-.038.014.016-.014.017-.037.038-.034.034-.032-.025-.007,0-.036-.027.012-.045.046-.067.051l0,0c.019-.017.017-.041.059-.058a.069.069,0,0,0-.047.029c-.01,0-.007-.008,0-.017s.011-.026-.022-.006l.024-.021-.04.009c-.007-.008.014-.051-.026-.023,0-.006-.017-.022.017-.034s-.008.027.035.007c-.037.012-.01-.02-.007-.032l-.017.009c0-.007-.005-.013,0-.023a.029.029,0,0,1-.02.008l.021-.02c0-.012-.013-.006-.026,0s-.024.013-.027,0l-.008.024s0,0-.007,0-.017,0-.016-.007l.055-.053c0-.007-.006-.006-.011,0s-.007,0-.007,0l-.011.021c-.006.007-.042.017-.053,0s.022-.045.045-.041c0-.006-.025,0-.037.01,0-.019.025-.014.029-.035-.019,0-.052,0-.08.008l-.012.017-.02-.021a.123.123,0,0,1,.045-.046c0-.018-.05.008-.072.014l-.008-.01.01-.016c.012,0,.029-.023.035-.02,0-.013.036-.032.007-.036-.008.023-.056.016-.068.05.014-.01.02,0,.018.008l-.011,0-.026-.03a.007.007,0,0,1,.007,0s0,.007.014,0c0-.023-.046,0-.008-.037.007.013.036,0,.053-.012v-.019l-.015.012c-.032-.012.025-.025,0-.041l-.042.013c-.024.022.04.019-.011.045-.014-.011.007-.031-.017-.034v.015l-.031.007-.019-.023c0-.01.013-.008.028-.018-.012-.023,0-.041-.01-.056-.015.011-.022.007-.027,0s-.009-.008-.021.011a.03.03,0,0,1,.026.052h0l-.06-.07a.042.042,0,0,0,0-.037l0,.032a.49.49,0,0,1-.036-.048.077.077,0,0,0,.049-.02c-.008-.006-.017.011-.029.013.007-.011,0-.01-.012-.01h-.012a.016.016,0,0,0,0-.013c-.008.009-.008.012,0,.013l0,.006a2.392,2.392,0,0,1-.468-1.018,2.35,2.35,0,0,1,.085-1.147,5.844,5.844,0,0,1,.168-.564,2.889,2.889,0,0,0,.164-.5c.1-.487.359-.984.469-1.456a3.749,3.749,0,0,1,.141-.6,1.289,1.289,0,0,1,.276-.546c.263-.236.469-1.086,1.115-1.028.1.26-.37.892-.382,1.067-.131.593-.572,1.03-.706,1.6a1.593,1.593,0,0,0,.019.4.9.9,0,0,1,0,.207l0,0h0l-.006.046c-.017.007-.034.011-.028.031a.046.046,0,0,1,.023-.008l0,.022a.381.381,0,0,0-.042.066c.008,0,.016-.01.028-.007-.05.027-.012.063-.046.088l.025-.006a.088.088,0,0,0,0,.026c-.017,0-.043,0-.036.023a.021.021,0,0,1,.02,0h.009c-.051.032-.046.1-.067.135a.017.017,0,0,1,.011,0,.453.453,0,0,1-.032.133c0,.011.027.008.039.015l-.007.03c-.033.008-.023.071-.069.044,0,.039.011.1-.009.127.012-.01.03,0,.043,0l0,.022-.017.1a.111.111,0,0,0-.041.056.028.028,0,0,1,.035,0,.054.054,0,0,0,0,.02l-.063.05c0,.017.037,0,.027.027-.013,0-.02.009-.029.017s-.007.068.038.074c.007,0,.01,0,.012-.007s0-.013.014,0c0,.031-.015.032-.014.063h.007c.007.019-.016.06-.041.04,0-.007,0-.007.009-.007s.011,0,0-.009a.091.091,0,0,0-.028.082c.007-.012.018-.012.032-.016a.316.316,0,0,0-.051.13c-.006,0-.008.006,0,0v0a.149.149,0,0,0,.026-.018c.027.053-.03.12.007.162-.008,0-.024,0-.02,0,0,.028.034.022.024.043.018,0,0,.023-.007.044s0,.006.006,0a.215.215,0,0,0,.018.183c-.011,0-.032.045-.027.059l.025-.011c.007,0,.009.009.012.015v.006a.052.052,0,0,0,.01.019v0c0,.021-.007.043.014.058-.006-.007.031-.031.034-.008,0,.041-.009.015-.01.049l-.007.022c-.024.007.01.033-.015.028.015.008,0,.059.038.045l.032-.014c0,.018-.027.037-.039.055a.028.028,0,0,0,.017,0c-.05.017.014.04-.019.071.026.032.025.09.061.1-.007.032-.017.062,0,.09,0-.007,0-.017.012-.021.02.015.008.023.006.044.006-.007.039.03.063.046-.007.031-.036.031-.051.039.052.008,0,.086.054.1,0-.012.007-.046.028-.03.058.007-.015.061.026.091l-.044.006c.032.007,0,.066.041.046-.009.018.032.041-.007.051.06.051.049.163.134.172,0,.012.015.032-.007.035s.007-.027-.011-.027c0,.009-.007.015-.012.018.018.016.028.03.051,0,.043.032-.045.074,0,.122.014-.01.022-.008.027.008l-.012.043c.023.033.045,0,.072-.008.006.019.021.041.006.058l.046,0c-.034,0-.007.023-.008.034l0-.011c.013,0,.018.022.022.033-.018.006-.038-.011-.05-.02-.006.014,0,.027,0,.046.024-.017.036.021.047.032s-.012.031-.008.035.01,0,.014,0,.01.011.017,0-.021-.006-.016-.021H50.4c.012,0,.023,0,.022.022s-.054.023-.018.046c0-.012.012-.019.017-.03l.032.022-.023.014c.01,0,.01,0,.014,0-.019.022.021.049,0,.07.007.016.036.022.049.033v0a.047.047,0,0,1,.025.06l0,0a.055.055,0,0,1,.014.051.082.082,0,0,0,.048-.009c.023-.01.041-.02.035.006.015.023-.018.062-.04.062.043.033.048.1.115.111,0,.012-.013.012-.008.028.06.049.078.137.166.148-.006-.023.022-.019.036-.028,0,.016.007.014.013.015l0,0-.01.013c-.023.014-.032.023-.056.014.02.04.066.09.1.093-.019,0-.019.01-.019.022.032-.028.061-.008.065.019l-.018.018.033,0c0,.012-.036.041,0,.042a.079.079,0,0,1,.028-.012c0,.029,0,.076.041.08l.048-.011c.006.011,0,.038-.022.032.054.016.082.031.119.019l0,0a.3.3,0,0,0,.173.227l.014-.017c.036,0-.017.034.008.034.007-.017.038-.021.047-.041l.028.022c0,.014,0,.03,0,.039s-.009,0-.011,0,0-.011-.015,0,.063.008.036.041c.021-.007.037-.034.046-.048l0,.026a.055.055,0,0,0,.02-.013l.044.027a.023.023,0,0,0,.014.015l.006,0,.023.013a.038.038,0,0,0-.008.037c.025,0,.023-.017.03-.025l.017.01c0,.019,0,.041-.032.041-.029.05.046,0,.032.048.024-.015.032-.044.045-.064l.023.014a.065.065,0,0,1-.038.061.073.073,0,0,0,.053-.049h.007l.006,0c.012.013,0,.059.041.022l0,0-.018.027.041-.017.037.019c0,.008.01.013.018.01l.036.019a.048.048,0,0,1-.015.013c-.018,0-.022,0-.026-.006s0-.016-.037.009c.052-.03.032.021.036.041l.019-.019c0,.011.02.015.017.031a.039.039,0,0,1,.026-.019l-.016.033c.012.014.027,0,.041-.014s.028-.026.043-.016l0-.016.029.012-.029.061c0,.008.012,0,.018,0s.014-.01.014,0v-.035a.045.045,0,0,1,.021-.016l.063.024a.044.044,0,0,1-.036.031.05.05,0,0,0,.051-.026l.009,0c0,.014-.033.026-.023.047a.449.449,0,0,1,.07-.031l.09.03-.006.007c.007.006.015,0,.025,0l.066.022c0,.02-.025.055.018.042a.035.035,0,0,1,.015-.031l.055.016-.017.021.02.021.012-.027c.035-.008.027.007.02.022s-.009.026.017.025l.048-.04.06.011c-.006.007,0,.012.011.013l0-.009.059.011c.484.059.7.074.726.222s-.088.348-.183.534c-.24.488-.625.865-.923.865Zm-.916-.731.036-.041,0,0Zm-.172-.367s-.007,0-.012.007-.009.012-.012.008C51.208,55.1,51.231,55.069,51.235,55.068Zm-.071-.008v0s0-.008,0-.008Zm-.531-.4.014,0v-.014Zm1.612-.2c0,.008.01.017.02,0-.007,0-.013-.027-.039-.006l.007,0C52.238,54.453,52.242,54.457,52.246,54.462Zm-.151-.055.025-.022c-.006,0-.011,0-.012-.006C52.09,54.385,52.087,54.4,52.095,54.407Zm-2.582-.941s.007,0,0,.007.017-.012.015-.017Zm-.039-.085s0,.02.017.012c-.007,0-.007,0-.007-.009s0-.008,0-.008S49.478,53.377,49.474,53.381Zm-.054-.028a.007.007,0,0,0,0-.006Zm-.124-.1s.012,0,.021,0,0,0,0,0,0,0-.005,0A.022.022,0,0,0,49.3,53.256Zm.028-.026c.017,0,.023-.008.015-.016S49.33,53.224,49.325,53.231Zm.717-1.023.014-.009-.014-.011Zm-.288-1.36c.006-.014-.006-.013-.014-.013h-.006c0,.007,0,.006.008,0h.006S49.753,50.84,49.753,50.847Zm.119-.721.04,0-.037-.007Zm1.37,5.208,0,.007A.014.014,0,0,1,51.242,55.335Zm-.164-.29h0l0,0S51.078,55.045,51.078,55.045Zm-.028-.034a.047.047,0,0,1,0,.008A.01.01,0,0,1,51.05,55.01Zm-.2-.175,0,0ZM49.8,51.086s0,0,0,0Zm-10.752-.793-.03,0L39,50.256l-.041,0a.281.281,0,0,1-.143-.041c-.03,0-.061.007-.093.009l-.055.029-.056.111-.128-.01.32.2-.639-.214.073.124-.532-.327h-.065a.219.219,0,0,1-.067-.012l-.082-.027,0-.032-.012,0-.018,0-.01.034-.1.014-.022-.007a.612.612,0,0,1-.116-.046l-.034-.017-.022,0,.1.167-.429-.307c-.073-.051-.142-.1-.21-.141l-.07-.015a.7.7,0,0,1-.131-.045l.193.2-.264-.168.186.24-.552-.448-.1-.014.033-.036-.085-.068a.233.233,0,0,1-.051-.043,3.539,3.539,0,0,0-.457-.284l-.1-.048.022-.046a.165.165,0,0,1-.062-.02l0,0-.046-.031-.027-.017-.057-.039-.056,0a.15.15,0,0,1-.094-.036c-.056-.044-.082-.069-.089-.1a.255.255,0,0,0-.03-.031l-.052-.059,0,.091-.17-.157a.329.329,0,0,1-.083-.145.247.247,0,0,0-.017-.043l.062-.032-.095-.015c0,.012,0,.02,0,.017a.3.3,0,0,1-.107-.105c-.034-.021-.069-.046-.1-.071s-.079-.058-.07-.064l-.066.017-.044-.052c-.024-.027-.046-.058-.066-.087l-.015-.022-.033-.012a.233.233,0,0,1-.122-.109l-.069-.032a.677.677,0,0,0-.075-.033l-.035-.014-.02-.032a.246.246,0,0,1-.043-.133.521.521,0,0,1-.068-.08h-.03a.131.131,0,0,1-.043-.007c-.106-.008-.15-.1-.181-.168a.344.344,0,0,0-.044-.08l-.048.11-.036-.177-.056-.042.041-.025-.017-.089a.134.134,0,0,0-.018-.025A.244.244,0,0,1,33,46.9a1.188,1.188,0,0,1-.169-.244c-.021-.035-.048-.083-.074-.12v0l-.065-.061-.072-.023L32.61,46.4l-.021-.019a.3.3,0,0,1-.084-.253.316.316,0,0,0,0-.08.182.182,0,0,1-.085-.106l-.007-.019-.066.058-.068-.2a.571.571,0,0,1-.034-.1l-.007,0,0-.009,0,.008,0-.012a.235.235,0,0,1,0-.054c-.075-.021-.1-.115-.12-.187l-.024-.087.035-.017-.009-.02-.01-.023a.185.185,0,0,1-.017-.031A.171.171,0,0,1,32,45.1v-.012l-.044-.05-.053,0,.013-.039-.026-.029.047-.053c0-.009-.008-.024-.012-.034a.312.312,0,0,1-.031-.12l-.017-.014-.018-.017-.015-.012a.326.326,0,0,1-.116-.211.537.537,0,0,1-.036-.075.118.118,0,0,1-.035,0,.129.129,0,0,1-.129-.13.279.279,0,0,1,0-.2c-.021-.037-.04-.078-.057-.118a.417.417,0,0,0-.1-.164l-.057-.034,0-.067c0-.014,0-.025,0-.032a2.352,2.352,0,0,1-.119-.215,1.42,1.42,0,0,0-.13-.226c-.012,0-.022,0-.027,0l-.077.012-.08-.148-.022-.06.023-.05.024-.034-.007-.023a.666.666,0,0,0-.114-.163h0l.013-.021a.258.258,0,0,1-.163-.191l-.027-.006-.012-.072a.116.116,0,0,1,0-.034l-.051-.012-.012-.069c0-.024-.008-.053-.012-.081a.623.623,0,0,0-.027-.142l-.1-.03-.017-.058a.266.266,0,0,1-.009-.111l-.007-.009c-.026-.033-.057-.075-.061-.08l-.063-.023-.024-.051-.009-.037a2.58,2.58,0,0,0-.186-.709l0,.032-.176-.21a.243.243,0,0,1-.041-.076l-.008-.022-.072.153-.01-.351-.112-.294h0l-.15-.393-.056-.109.038-.049,0-.012a.171.171,0,0,1-.032-.078l-.27.136.194-.294-.021-.046a.2.2,0,0,1-.012-.034l-.079.068V39.22a.211.211,0,0,1,.012-.192l.013-.015-.07-.07.015-.028a.155.155,0,0,1-.034-.029h-.041a.091.091,0,0,0,.026.065.192.192,0,0,1-.069-.076v.006l-.007-.026a.129.129,0,0,1-.008-.033l-.031-.112a.307.307,0,0,1-.051-.081l-.007-.027a.344.344,0,0,1,0-.073l-.021.1-.2-.45-.011-.049,0-.032a.563.563,0,0,1,.013-.065l-.08-.012-.039-.088-.073.095-.007-.27-.134-.294.047.007a.183.183,0,0,1,0-.031l0-.007a.321.321,0,0,1-.031-.081l0,0-.014,0-.058-.009-.014-.032v.007l-.221-.487h0v0l-.169-.373-.2-.434,0,0a47.268,47.268,0,0,1-2.186-5.586,50.037,50.037,0,0,1-1.5-6.878c-.332-1.929-.644-3.751-1.073-5.348-.181-.643-.357-1.312-.536-1.992a38.911,38.911,0,0,0-2.228-6.791A22.416,22.416,0,0,0,16.1,3.472a9.829,9.829,0,0,0-3.782-2.282A10.353,10.353,0,0,0,9.9.692,10.006,10.006,0,0,0,8.841.646H8.523c-.211,0-.385,0-.545-.015L7.554.6,7.942.422A5.283,5.283,0,0,1,9.4.046a8.1,8.1,0,0,1,2.273.08,11.474,11.474,0,0,1,3.364,1.215l.131.067a10.285,10.285,0,0,1,2.48,1.766A9.721,9.721,0,0,1,18.681,4.32l.471.6c.1.138.195.283.288.426.044.069.089.139.134.207A32.575,32.575,0,0,1,22.212,10.9c.014.031.056.118.121.25.191.393.59,1.211,1.008,2.112.211.444.39.892.552,1.311l.1.255,0,0,.14.4a2.484,2.484,0,0,0,.062.283l0,.019.073,0,0,.114a.649.649,0,0,0,.051.245l.018-.069.153.461.066-.076-.007.306a2.446,2.446,0,0,0,.125.626c.022.076.043.151.061.22l.017,0,.022.083c.03.1.064.209.1.314a5.053,5.053,0,0,1,.158.551.16.16,0,0,1,.075.031l.029.022.035.118.383-.012-.341.178-.009.021a.7.7,0,0,0,.022.153c.022.116.038.195,0,.254v0a6.275,6.275,0,0,1,.217.6l.017.006.072.008.268.867,0,.033a1.426,1.426,0,0,0,.017.24.419.419,0,0,1,.043.02l.035.022.065.192-.028.349a.218.218,0,0,1,.105.179l.018.123h-.042v0c.007.017.014.041.025.075s.041.124.065.2h.038a.147.147,0,0,1,.118.077l.013.027a1.535,1.535,0,0,1,.054.226,1.013,1.013,0,0,0,.021.109h0l.032.069a.785.785,0,0,1,.061.306l.05-.106.021.44a3.409,3.409,0,0,0,.074.529l.079.163a2.385,2.385,0,0,1,.172.553,1.782,1.782,0,0,0,.15.477.135.135,0,0,1,.035.056l.143.232-.079-.03a.273.273,0,0,1,.017.048.416.416,0,0,1,.052.191c0,.04.011.083.019.124l.012,0a5.937,5.937,0,0,0,.35,1.164l.07.143-.072.006c0,.025,0,.052.006.081l.048.056a.4.4,0,0,1,.069.141l.015.036a.8.8,0,0,0,.051.132l.016.068c.01.053.019.106.033.155h0c.049,0,.114.026.15.149.041.147.043.182.032.223a.77.77,0,0,0,.017.094l.031.211-.012.007.007.017a.215.215,0,0,1,.018.1c.01.026.019.056.029.091l.011.036.1-.118.053.2a.491.491,0,0,1,.009.185l.511-.323-.245.275.306-.1-.575.407a.709.709,0,0,0,.027.073.6.6,0,0,1,.059.269c.041.089.079.193.114.294a1.273,1.273,0,0,0,.139.318l.033.028.013.108c.011.075.02.149.035.223l.071.117a.5.5,0,0,1,.08.245l0,.041a1.713,1.713,0,0,1,.113.187c.035.061.072.126.1.172l.016.046a.3.3,0,0,1-.031.227,1.057,1.057,0,0,1,.08.3c0,.027.01.055.016.082H29.1a.146.146,0,0,1,.122.085.456.456,0,0,1,.113.338.642.642,0,0,0,.06.289l.12.223-.057-.015,0,.165a.59.59,0,0,0,.031.109.334.334,0,0,1,.027.218,4.563,4.563,0,0,1,.187.539,2.853,2.853,0,0,0,.211.567l0-.018.036.072a.259.259,0,0,0,.021.022l.031.028,0,.041a.2.2,0,0,0,.007.032l.057.114a.661.661,0,0,1,.067.387.7.7,0,0,0,.028.3c.066.034.09.129.109.209l.013.224,0,.013.017-.007.116-.043.052.212a1.193,1.193,0,0,1,.049.275l.081.093-.076.067.068-.006a.562.562,0,0,0,.015.066.685.685,0,0,1,.1.3l.031.139-.056,0c.012.035.024.074.038.117s.019.064.027.082a.361.361,0,0,1,.027.108l.013.012a.326.326,0,0,1,.1.246.232.232,0,0,1,0,.059l.129.285-.041.032,0,.008a.636.636,0,0,0,.027.151.663.663,0,0,1,.032.251.993.993,0,0,0,.063.151c.009.019.02.039.028.059l.027.051a1.2,1.2,0,0,1,.114.431l0,.013a1.525,1.525,0,0,1,.07.355l.007,0c.163.007.173.148.174.222a.472.472,0,0,1-.022.341c.032.1.059.206.085.307a2.245,2.245,0,0,0,.187.542l.017.028,0,.033a.188.188,0,0,1-.011.061s0,.012,0,.029l.232.678a2.023,2.023,0,0,0,.182.421.132.132,0,0,1,.042.012l.1-.058.022.166a.092.092,0,0,0,.028.057l.038.087a.182.182,0,0,1-.02.095l-.024.035.031.091a2.853,2.853,0,0,0,.255.469l-.032.027c.085.033.164.158.232.372l.012.036-.007.02.05.05.007.029a.316.316,0,0,1,.008.1.139.139,0,0,0,.021.094.177.177,0,0,1,.068.045l.02.02.024.09a2.247,2.247,0,0,0,.183.521l.111.115.024.037a.493.493,0,0,1,.04.2c.048.085.085.159.114.221a.761.761,0,0,0,.1.179l.043.089a3.831,3.831,0,0,0,.542,1.372l-.034-.12.459.51-.041-.289.212.42.059-.1.036.269.351.309a.247.247,0,0,0,.029.031l0,0,.37.318v0l.409.317.04.044.008.012.012,0a.363.363,0,0,1,.055.026l.04.024c.032.022.062.049.093.075s.046.04.055.05l.031-.015.092.056.014.033.051.015.036.016a1.191,1.191,0,0,0,.209.114.408.408,0,0,0,.106.047l.257.121.013.048.008.014a.46.46,0,0,0,.076.039l.029.012a.111.111,0,0,1,.029,0l.071.007.066.066.016.006a.16.16,0,0,1,.129-.022l.006-.013.167.053.061.043.012,0,.024-.007.061.01-.01-.009.335.061.055.006,0,0,.158.045.006.012c.036-.01.082-.022.129-.033l.063,0,.119,0a1.559,1.559,0,0,0,.344-.018l.058-.012.011.01a.413.413,0,0,0,.047-.013c.05-.009.1-.014.152-.02a.944.944,0,0,0,.216-.037l.052-.007.046,0h.04l.017-.038.452-.122.025-.012a.462.462,0,0,1,.211-.071l.036,0a.3.3,0,0,0,.091-.03l.041-.048.027-.023h-.008l.43-.22a1.987,1.987,0,0,0,.265-.156A6.559,6.559,0,0,0,42.73,46.92L43,46.648l.634-.81.991-1.431a.571.571,0,0,0,.163-.31,1.138,1.138,0,0,0-.008-.115.483.483,0,0,1,0-.142A.2.2,0,0,1,44.8,43.7a.211.211,0,0,1,.168-.07l.037,0a.691.691,0,0,1,.43.294.815.815,0,0,1,.173.667,4.68,4.68,0,0,1-.236.781c-.126.289-.284.61-.468.952l0,.007h0l-.1.173-.029.016a.5.5,0,0,0-.184.2,1.6,1.6,0,0,1-.129.179l0,.036-.029.029a4.554,4.554,0,0,0-.382.431,4.354,4.354,0,0,1-.322.332l-.023.022v.035l.012.114-.116-.01a.448.448,0,0,0-.109.079l.651-.115-.939.386c-.019.007-.022.012-.035.032a.231.231,0,0,1-.082.082l-.028.085h-.066l0,0a.241.241,0,0,1-.132.12l-.019,0-.013.015a.272.272,0,0,1-.022.026l0,.016-.061.041a.485.485,0,0,0-.043.031l-.016.081-.04.026c-.487.312-.9.565-1.323.788l-.019.022,0,.06-.094.022c-.015,0-.039.012-.066.02a1.084,1.084,0,0,1-.134.04.186.186,0,0,1-.041.033.223.223,0,0,1-.092.038v.056h-.109a.445.445,0,0,0-.129.028l.022.062h-.172a.238.238,0,0,0-.086.017l-.061.034.095.07h-.364a1.116,1.116,0,0,0-.209.029c-.032.007-.063.013-.1.017l0,.009-.129.014c-.05.006-.1.014-.148.022a2.172,2.172,0,0,1-.221.029l-.01.012a.139.139,0,0,1-.038.035l.094.484Zm9.376-4.538A6.11,6.11,0,0,1,45.4,43.721a7.827,7.827,0,0,1-1.475-3.356,16.679,16.679,0,0,1-.238-4.5,17.537,17.537,0,0,1,.82-4.235,30.921,30.921,0,0,0-.547,3.405,17.643,17.643,0,0,0-.025,3.409,9.771,9.771,0,0,0,1.8,5.069,5.453,5.453,0,0,0,2.106,1.637,5.831,5.831,0,0,0,1.291.4c.223.043.443.1.667.128l.68.036a3.84,3.84,0,0,0,.8-.033l.748-.078.871-.182c.431-.081.852-.248,1.285-.361l.025,0c-.005,0,0,0,0,0a2.469,2.469,0,0,0,.284-.1.822.822,0,0,0,.224-.068.328.328,0,0,1-.083.012l.14-.054.448-.148c-.032,0-.08.019-.077,0a3,3,0,0,0,.571-.233l-.066.012.158-.079a.083.083,0,0,1,.021,0c.02,0,.041.008.159-.057-.063.023-.046,0-.061,0a4.383,4.383,0,0,0,.849-.4c-.015.006-.015,0-.015,0l.763-.457c.053-.047.017-.045.041-.077l.16-.117c.074-.019.389-.275.289-.143.2-.155.513-.414.64-.526-.057.037-.028-.012-.027-.031l.108-.1.474-.429a1.72,1.72,0,0,0,.284-.252c-.058.05-.052.024-.043,0l.09-.1.267-.2c.074-.077-.013-.041.1-.146,0,.013.056-.031.1-.061.022-.033.284-.343.274-.406,0-.021-.017,0-.038.027s-.051.059-.018,0c.121-.155.139-.153.26-.307l0-.007c.078-.1.246-.3.187-.167-.024.033-.027.028-.029.022s-.006-.012-.043.05a2.056,2.056,0,0,0,.323-.41c-.044.051-.051.039-.079.055a5.994,5.994,0,0,0,.5-.649.5.5,0,0,0-.076.075c.154-.33.414-.634.524-.919,0,.02.026.015.023.01.077-.167.041-.173.105-.275-.013-.018.072-.133.132-.241.032-.038.02-.037-.008,0a5.706,5.706,0,0,0,.49-1.081,1.205,1.205,0,0,0,.177-.3l-.046.025a.9.9,0,0,1,.03-.108.143.143,0,0,0,.011-.033c.017-.049.032-.1.039-.129l.006-.017a1.539,1.539,0,0,0,.124-.361c-.012.049-.094.131-.044-.008a2.561,2.561,0,0,1,.12-.265l.055-.124c.033,0,.056-.2.068-.138,0-.07.116-.35.058-.333l-.053.028a1.378,1.378,0,0,1,.139-.254c0-.014,0-.04-.008-.04.069-.013.07-.26.143-.384a5.084,5.084,0,0,0,.1-.7,1.759,1.759,0,0,0,.124-.542c-.012.041-.02.1-.036.107a.8.8,0,0,1,.041-.275,3.473,3.473,0,0,1-.022-.395c.031-.133.057-.132.08-.131a.039.039,0,0,0,.022,0c-.044-.158.088-.5.021-.7-.012.061-.041.258-.057.114-.072-.153.061-.328.027-.581l.063.055c-.039-.109.046-.386-.025-.349.014-.09-.051-.3.013-.278-.087-.409-.061-1.027-.253-1.224,0-.059-.045-.195,0-.178.056.08,0,.139.036.166-.009-.051.006-.069.013-.077-.041-.118-.067-.211-.1-.077-.094-.254.036-.318-.1-.647-.021.027-.04.007-.069-.093l-.017-.209c-.1-.207-.113-.088-.158-.07a.964.964,0,0,1-.1-.317l-.118-.1c.086.072-.016-.106-.028-.165l.012.059c-.027-.009-.074-.143-.109-.206.038,0,.121.113.157.181a1.553,1.553,0,0,0-.075-.239c-.029.053-.133-.151-.187-.231s-.026-.137-.043-.163c-.01.006-.028-.019-.045-.043s-.046-.071-.038-.012c.012.038.066.058.079.128-.055-.051-.089-.014-.138-.165-.039-.114.1-.045-.051-.2a.493.493,0,0,1,.025.124l-.143-.146.033-.039c-.016-.007-.02-.006-.022,0s0,0-.008,0c0-.083-.173-.26-.155-.339a1.121,1.121,0,0,0-.228-.215l.01.017a.737.737,0,0,1-.238-.3l0,.012a1.027,1.027,0,0,1-.179-.249.128.128,0,0,0-.137,0c-.042.021-.071.042-.123-.056-.121-.114-.13-.255-.06-.236a3.273,3.273,0,0,0-.722-.562c-.022-.046.006-.041-.056-.108a3.56,3.56,0,0,0-1.093-.639c.1.083-.016.057-.03.087a.116.116,0,0,0-.1-.055l-.023-.014a.082.082,0,0,1-.007-.041c.03-.044.03-.072.145-.034a1.849,1.849,0,0,0-.719-.329c.073,0,.027-.032-.019-.071-.009.09-.183.022-.306-.061l-.006-.057-.1.022c-.047-.034-.031-.127-.177-.124a.078.078,0,0,1-.051.041c-.129-.086-.309-.245-.474-.23l-.137.044c-.064-.025-.168-.1-.05-.092-.262-.018-.424-.065-.515-.007l-.023,0a3.1,3.1,0,0,0-1.621-.3l.022.038c-.07.022-.09,0-.106-.016a.053.053,0,0,0-.071-.02c.046.032-.048.073,0,.111h-.2a.373.373,0,0,0-.179-.048c-.016-.023.009-.021.035-.018s.06.006.038-.027a.353.353,0,0,0-.107.017c-.082.017-.185.035-.216-.009-.042.037.013.088.05.115l-.134-.022c-.019.016-.021.029-.016.041l-.289.028a.273.273,0,0,0-.119,0c-.006.006-.006.009-.006.012l-.147.031a.2.2,0,0,0-.136-.036c-.081.041-.008.05,0,.064l-.108.022c-.07-.021-.189-.025-.068-.076a.156.156,0,0,0-.169,0,.223.223,0,0,1-.168.016c-.018.046.081.075.124.109a.857.857,0,0,0-.152.035c-.08-.007-.17-.012-.133-.085-.074.044-.056.094.025.111a.126.126,0,0,1-.03.015l-.036.011c-.106.021-.257-.013-.25.071l-.015,0-.063-.038c-.018.022-.046.046-.076.076a1.262,1.262,0,0,0-.226.075.292.292,0,0,0-.115.044l-.215.081a.019.019,0,0,1-.007-.028c.119-.092.2-.024.221-.136-.056.106-.214.077-.315.09l.011.036a1.123,1.123,0,0,1-.2.043c.025.01.017.031-.01.049l-.089-.02c-.217.08.022.1-.181.186l.084-.019-.158.075-.163-.028c-.115.035-.026.061-.12.076l.154-.02c.012,0,.007.017,0,.036a2.7,2.7,0,0,0-.353.176c-.041,0-.056-.017,0-.066-.065.039-.126.105-.075.11l-.048.027c-.029.007-.031,0-.034-.012s-.011-.028-.088,0a1.111,1.111,0,0,1-.128.15,4.212,4.212,0,0,0-.475.3s-.007,0-.009-.007a.329.329,0,0,0-.092.075c-.114.079-.237.148-.347.236a.434.434,0,0,0-.238.143c.051-.03.065-.024.066-.008l-.277.216a.039.039,0,0,0-.021-.016l-.162.108.059-.009c-.2.2-.12.036-.32.236l-.028.088-.274.248c-.007,0-.038.017-.087.07l.015,0c-.085.09-.168.177-.255.268A14.317,14.317,0,0,0,45.8,29.325a7.847,7.847,0,0,0-.735,1.609c-.207.7-.278.661-.354.72-.2.159-.125-.828.388-2.276l.016-.028a.051.051,0,0,0,0-.012l.042-.119h0c.119-.151.131-.357.258-.551-.011.009-.025.029-.024.014.184-.313.349-.708.556-1.041-.018.012-.046.023-.048,0,.043-.013.108-.118.163-.207-.014-.046.116-.152.154-.26l-.013.008c.085-.071.046-.117.132-.171v-.053c.075-.023.04-.115.106-.173l.01,0c.051-.056.041-.094.085-.146l0-.007c.094-.125.109-.207.151-.193,0-.026-.025,0-.046.024s-.051.056-.055.013c.323-.4.6-.831.922-1.215.015-.054.032-.085.019-.1A1.362,1.362,0,0,1,47.7,25c-.006,0,0-.042.011-.061.039-.08.117-.055.163-.139-.042.022-.068.024-.08,0a1.167,1.167,0,0,0,.254-.2c-.02.007-.041.022-.056.01.124-.056.127-.153.223-.209l-.056.009c.035-.071.06-.067.085-.063s.048.007.081-.046c-.032.017-.036,0-.053,0a3.861,3.861,0,0,0,.38-.289.016.016,0,0,1-.017,0,2.818,2.818,0,0,1,.333-.281c.026-.048-.094-.042.027-.134.027.022.07-.006.112-.032s.1-.068.107,0a1.354,1.354,0,0,1,.307-.254c-.03,0-.04-.012-.048-.03s-.021-.048-.071-.013l.023-.08c-.016-.007-.028,0-.039.012s-.023.026-.031,0a1.5,1.5,0,0,0,.216-.141,1.1,1.1,0,0,0,.395-.1c-.044.009-.053-.013-.058-.036s-.005-.03-.014-.035h.288c.046-.025-.041-.056.039-.08.008.012.031.012.055.012h.028c.009-.019.195-.1.153-.177,0-.017-.021-.012-.037-.006s-.035.012-.021-.016c.082-.051.106-.032.187-.083l-.007-.01c.044-.046.182-.074.158,0-.016.011-.022,0-.027,0s-.012-.022-.032.01a.53.53,0,0,0,.264-.07c-.039,0-.051-.017-.08-.032a1.607,1.607,0,0,0,.425-.082.238.238,0,0,0-.077-.022c.126-.119.366-.1.458-.224,0,.016.031.044.026.036.08-.036.038-.09.105-.09-.017-.034.075-.016.136-.027.022.006.023,0,.013,0a.061.061,0,0,0-.019-.006,1.318,1.318,0,0,0,.543-.185.371.371,0,0,0,.2.033l-.046-.05c.006-.013.025-.022.044-.028s.015,0,.016,0a.146.146,0,0,0,.058-.025l.008,0c.068,0,.138,0,.177-.048-.019.015-.109-.058-.037-.072s.078-.007.09,0,.021.011.067.008l.072,0c.014.025.038.018.058.012s.037-.013.033.015c.019-.036.184-.015.133-.1l-.05-.067c.056-.009.122.052.177.074,0-.009.011-.027,0-.038.03.056.063.043.1.031a.118.118,0,0,1,.122.015c.1-.056.284-.049.309-.131a.439.439,0,0,0,.282,0c-.022-.007-.051,0-.065-.029.05-.046.076-.017.139-.008-.018-.016.1-.09.158-.143a.121.121,0,0,1,.09.076q.03-.091.067-.187l.012-.013a.012.012,0,0,0,0-.007l.023-.062c.091-.063.069-.187.156-.278-.008,0-.017.012-.019,0,.122-.149.226-.347.338-.518-.013,0-.036,0-.041-.012.033,0,.073-.05.111-.09-.019-.032.082-.064.1-.124l-.012,0c.062-.024.021-.066.083-.08l-.009-.035c.059,0,.014-.067.061-.088l.009.006c.032-.025.018-.051.046-.075l0-.006c.057-.059.056-.11.093-.09-.007-.018-.02-.007-.034,0s-.032.025-.042-.006a6.061,6.061,0,0,0,.532-.6c0-.034.011-.051,0-.067.026-.014.073-.065.112-.068a.053.053,0,0,1,0-.041c.017-.048.085,0,.1-.056a.048.048,0,0,1-.057-.017c.065-.007.1-.055.148-.085-.012,0-.027.007-.038-.007.078-.011.063-.085.124-.1l-.039-.007c.013-.046.032-.036.051-.027s.035.017.051-.012c-.021,0-.027-.008-.04-.014.1,0,.162-.088.228-.117a.029.029,0,0,1-.013-.008.869.869,0,0,1,.182-.139c.009-.031-.071-.056,0-.1.022.024.049.012.073,0s.057-.027.071.024c.041-.05.106-.13.158-.136-.043,0-.038-.091-.087-.064l0-.06c-.012-.01-.019,0-.024,0s-.011.015-.02-.006c.023-.015.109-.041.12-.066.074.006.172.049.245.008-.044,0-.042-.059-.059-.074l.179.05c.024-.013-.036-.055.008-.062.012.018.034.02.056.028,0-.013.108-.043.067-.117,0-.017-.016-.015-.026-.013s-.019,0-.015-.017c.043-.028.061-.006.105-.032l-.006-.01c.022-.029.1-.024.1.035-.007.006-.013,0-.017-.01s-.012-.021-.019,0a.15.15,0,0,0,.148-.017c-.022,0-.035-.023-.054-.039a.556.556,0,0,0,.237-.014.177.177,0,0,0-.05-.03c.051-.1.206-.024.239-.121,0,.016.025.045.022.036.038-.026.006-.079.044-.072-.01-.023.011-.019.035-.015a.155.155,0,0,0,.038,0c.015.008.013,0,0,0l-.01-.005a.407.407,0,0,0,.279-.112.16.16,0,0,0,.117.051l-.033-.051a.031.031,0,0,1,.021-.024s.007,0,.007,0a.056.056,0,0,0,.028-.02l0,0c.036,0,.076.013.09-.036-.008.014-.069-.061-.032-.071s.042,0,.05.007.013.012.037.012l.041.01c.011.025.023.02.034.015s.018-.01.02.017c.005-.034.1,0,.06-.086l-.036-.069c.029,0,.074.058.107.082a.08.08,0,0,0,0-.031c.022.051.038.039.057.027s.037-.022.067.016c.046-.054.146-.045.151-.125.056.021.109.05.152.009-.013-.007-.027-.007-.038-.031.022-.044.039-.017.074-.007-.011-.016.046-.088.072-.141.056.022.056.089.07.126.007-.066.044-.052.083-.039s.077.027.091-.031c-.019-.013-.08-.044-.049-.081.01-.07.041-.042.075-.015s.061.046.088.014l0,.1c.008-.031.032-.026.054-.021s.046.013.032-.041c.011.012.025.007.038,0s.041-.014.046.047c.1-.11.28.007.333-.173.018.016.059,0,.056.047-.012.031-.024.018-.033,0s-.013-.022-.017,0c.016,0,.021.028.024.042.034-.026.062-.035.02-.115.041-.036.066.01.094.055s.056.084.1.062c-.007-.041,0-.058.032-.053l.06.066c.066-.022.036-.1.035-.168.037.011.082,0,.1.057l.043-.088c-.032.064.031.043.048.061l-.017-.018c.007-.029.049-.009.071,0-.006.045-.049.061-.073.072.018.032.048.026.07.065,0-.055.033-.054.064-.053h.026c.017-.007.027.012.032.031s.008.032.013.032c0-.037.054,0,.03-.056,0,0-.011,0-.017,0s-.018.015-.027,0c.022-.027.023-.089.067-.041s-.017.138.051.1a.3.3,0,0,1-.029-.072l.064-.034,0,.065c.009-.016,0-.022.008-.031.014.069.093.026.1.1.031.007.07-.044.1-.046l0-.007c.039-.033.085,0,.109.046v-.014a.1.1,0,0,1,.084.055c.058-.041.053-.24.1-.152.052.009.061.129.034.166a.2.2,0,0,1,.12.014.158.158,0,0,0,.169-.01c0,.028-.007.043.015.065.129.007.238.143.374.046-.024-.029,0-.053.017-.081L62.8,17l0,.016c-.019.056-.025.085-.067.1a.232.232,0,0,0,.237.039c-.029.021-.019.042-.007.065.023-.093.084-.091.115-.048l-.012.057.046-.05c.01.022-.022.12.038.079a.217.217,0,0,1,.032-.055c.029.056.063.149.127.116l.067-.069c.017.015.034.072-.011.085.1-.025.152-.018.2-.074l.007,0a.579.579,0,0,0,.417.352l.014-.042c.03-.011.027.01.022.031s-.011.04.011.032c0-.043.07-.069.059-.13a.043.043,0,0,1,.029.007l.014.007c.023.029.012.1.035.123-.009.026-.013.016-.018.007s-.01-.021-.022.016.1-.006.075.075a.232.232,0,0,0,.055-.121l.019.052a.092.092,0,0,0,.035-.07l.075.033c-.006.034,0,.062.03.075.039-.03-.023-.039-.022-.072l.1.047a.1.1,0,0,0-.029.119c.063-.018.011-.085.076-.067-.013.049.026.106-.04.116-.017.056,0,.054.029.051s.044,0,.041.039c.051-.054.036-.153.089-.182l.017.007c-.022.057.031.116-.051.192a.125.125,0,0,0,.073-.109c.025-.011.033.014.04.039s.017.072.069,0l-.028.076c.024-.017.049-.024.089-.051.032.017.044.153.1.047,0,.017.078.055.007.109-.027.007-.036,0-.042-.016s-.009-.035-.059.016c.077-.061.057.048.066.09l.028-.038c.005.022.035.034.032.067a.056.056,0,0,1,.039-.037l-.022.069c.021.034.041.007.063-.019s.042-.051.066-.023l-.016-.075c0,.007.012,0,.026,0s.041-.01.051.011l-.062.187c.007.019.02.011.03,0s.02-.017.021,0v-.074c.006-.022.087-.072.132-.043.017.038.011.143-.055.143a.06.06,0,0,0,.084-.048c.039.051-.045.053-.024.114.043-.024.134-.039.2-.068l.007-.055.083.051a.219.219,0,0,1-.05.154c.04.052.124-.048.173-.077l.037.025a.3.3,0,0,1,0,.052c-.027.013-.045.08-.066.076a.027.027,0,0,0-.017-.017c.007.013.012.016.017.017.015.037-.045.111.034.109-.014-.073.13-.074.109-.18-.021.038-.057,0-.06-.015a.118.118,0,0,0,.023-.018l.112.072a.022.022,0,0,1-.025,0c-.01-.007-.017-.014-.029.026.049.066.126-.014.07.111-.032-.039-.09.016-.121.057l.024.06.022-.046c.094.027-.036.088.04.132l.1-.052c.037-.08-.124-.05-.024-.15.049.032.018.1.084.105,0-.017-.013-.03-.014-.047.008,0,.039-.018.07-.034l.079.068c0,.036-.027.033-.056.069.063.07.05.129.091.174.026-.04.047-.03.064-.019s.032.023.041-.041c-.062.025-.163-.066-.127-.162l0,0,.24.212a.18.18,0,0,0,.047.119L66.5,19l.157.144a.131.131,0,0,0-.109.075c.031.016.035-.037.063-.048-.007.035.019.03.044.025a.077.077,0,0,1,.033,0,.058.058,0,0,0,0,.045c.012-.031.006-.041,0-.045a.061.061,0,0,1,0-.019,3.6,3.6,0,0,1,.607.7,5.847,5.847,0,0,1,.517.816q.2.45.37.957a5.29,5.29,0,0,1,.2,1.093,3.223,3.223,0,0,1,0,.928c-.021.155-.043.314-.066.475l-.04.245a1.738,1.738,0,0,1-.054.322c-.1.24-.182.474-.282.7a2.5,2.5,0,0,1-.19.3l-.156.2c-.208.245-.416.455-.624.678l-.157.159a1.685,1.685,0,0,0-.177.2c-.136.172-.276.325-.406.467l-.7.78c-.1.1-.186.194-.271.288l.116.388c.062.26.1.526.148.793a14.079,14.079,0,0,1,.1,1.621,14.086,14.086,0,0,1-.588,3.467,16.772,16.772,0,0,1-2.967,5.682,16.337,16.337,0,0,1-2.277,2.345,14.96,14.96,0,0,1-1.247.928l-.62.411-.629.35a13.369,13.369,0,0,1-4.313,1.493,12.037,12.037,0,0,1-1.947.164A8.877,8.877,0,0,1,48.425,45.754Zm9.28-2.4.029-.022-.032-.021Zm3.277-3.226c.028-.041.021-.04.013-.038s-.019,0,.025-.058C60.942,40.125,60.989,40.11,60.981,40.129Zm.365-.615c.016-.015.026-.025.017-.028Zm2.338-7.819.011.1.014-.119Zm.721-5.127,0-.037a.079.079,0,0,0,.014.027l0-.005c-.013-.014-.021-.045-.029-.034A.356.356,0,0,1,64.4,26.567Zm.019-.022.011-.021c.012-.022.026-.036.041-.026a1.2,1.2,0,0,0-.007-.146l.015-.019c.018.1.043-.018.056.155.02-.066.041-.173.067-.155a.488.488,0,0,1-.033-.113l.012-.016c.017-.024.033-.052.049-.08.025.024.05.036.066.018-.017-.007-.029-.037-.041-.065l.008-.02.106.073c.012-.014-.046-.069-.018-.072a.085.085,0,0,0,.05.032c-.006-.014.057-.061-.012-.132-.012-.015-.018-.013-.024-.011s-.01,0-.018-.017c.011-.029.034-.01.046-.041l-.009-.007c0-.023.065-.031.1.015,0,.007-.012,0-.019,0s-.021-.014-.014,0a.086.086,0,0,0,.067-.007.452.452,0,0,0,.075-.122.057.057,0,0,1-.056.014.067.067,0,0,0-.022,0,1.364,1.364,0,0,0,.288-.333c-.023.007-.061.012-.072.024.029-.194.23-.32.226-.5.012.014.049.022.041.017.032-.086-.034-.106.009-.149-.033-.02.036-.06.067-.109.027-.012.007-.017-.012,0,.066-.065.145-.159.1-.241.027.013.088-.07.082-.1l-.06.013a.051.051,0,0,1-.019-.037c0-.008,0-.013,0-.017a.176.176,0,0,0-.014-.061v-.008c.011-.061.029-.123-.018-.179.012.024-.077.076-.08.007,0-.121.026-.036.036-.136l.02-.065c.056-.009-.012-.1.043-.074-.032-.029.017-.175-.074-.15l-.076.027c0-.051.076-.1.1-.142a.069.069,0,0,0-.036-.013c.109-.028-.045-.118.032-.194-.066-.1-.071-.269-.161-.3a.357.357,0,0,0-.011-.259c-.007.022,0,.048-.027.06-.051-.046-.022-.07-.017-.128-.014.017-.1-.095-.173-.136,0-.084.077-.08.113-.1-.147-.026-.019-.237-.162-.282,0,.032-.009.129-.066.08-.144-.019.026-.168-.076-.253l.107-.017c-.08-.021-.014-.185-.106-.129.023-.055-.09-.109,0-.142-.185-.12-.213-.423-.432-.422,0-.032-.051-.079,0-.1.071.007,0,.075.04.068-.01-.022.012-.042.022-.051-.051-.037-.082-.07-.124.023-.124-.069.085-.221-.066-.318-.03.031-.051.032-.078-.008l0-.114c-.085-.07-.117.017-.176.061-.028-.049-.076-.1-.051-.153l-.114.01c.083-.007,0-.064,0-.1l0,.032c-.031.013-.058-.048-.072-.079.039-.026.1.012.129.03,0-.044-.03-.072-.027-.128-.046.059-.1-.034-.132-.064s0-.084-.013-.092c-.012.01-.026,0-.039,0s-.034-.02-.036.018c0,.019.057,0,.057.041a.116.116,0,0,0-.039.007c-.031.009-.057.018-.072-.037s.109-.095,0-.126c.01.031-.007.054-.009.086l-.1-.032.041-.051c-.021,0-.018.014-.028.017.025-.069-.1-.108-.063-.182-.033-.036-.109-.028-.148-.051l0,.009a.14.14,0,0,1-.116-.136l-.007.012a.236.236,0,0,1-.085-.121c-.1,0-.168.192-.194.082A.116.116,0,0,1,63,19.71c-.148-.033-.231-.209-.395-.188,0-.034.015-.042-.013-.078-.177-.1-.372-.265-.575-.218.046.05-.022.063-.037.1-.012-.041-.035-.027-.049-.023l-.011-.006a.088.088,0,0,1,0-.039c.027-.054.033-.082.1-.081a.576.576,0,0,0-.363-.134c.041-.012.022-.041,0-.069-.021.1-.113.064-.16.012l.01-.056-.052.047c-.015-.023.011-.121-.058-.083a.146.146,0,0,1-.032.055c-.041-.06-.1-.163-.173-.133l-.066.073c-.025-.012-.062-.068-.012-.085-.114.032-.18.028-.221.087l-.009,0a.746.746,0,0,0-.69-.172l.012.039c-.029.021-.04,0-.048-.017s-.015-.036-.034-.021c.023.032-.014.074.012.112H60.1a.276.276,0,0,0-.052,0,.2.2,0,0,0-.085-.048c-.01-.024,0-.02.014-.016s.027.008.015-.024c-.006-.007-.024,0-.046.009s-.082.026-.1-.02c-.014.034.017.087.036.116l-.064-.028a.053.053,0,0,0,0,.039l-.129.011a.066.066,0,0,0-.054,0,.017.017,0,0,0,0,.011l-.067.014a.108.108,0,0,0-.073-.05c-.033.032,0,.047.011.061l-.05.011c-.037-.027-.1-.041-.045-.08-.037-.046-.06-.029-.084-.013a.058.058,0,0,1-.08,0c0,.041.053.078.079.114l-.07.012c-.043-.024-.091-.037-.085-.1-.032.031-.013.08.032.107a.035.035,0,0,1-.013.009l-.017,0a.23.23,0,0,1-.051-.007c-.042-.009-.081-.018-.067.038l-.007,0L59,18.955c-.006.017-.017.036-.026.061l-.111.026c-.027,0-.05,0-.058.012a.8.8,0,0,0-.1.033.028.028,0,0,1-.009-.027c.047-.062.1.011.1-.079-.013.075-.1.029-.159.024l.013.034a.136.136,0,0,0-.039,0,.136.136,0,0,1-.066,0,.027.027,0,0,1,0,.042l-.057-.037c-.117.013.032.09-.075.109l.047.006-.082.024-.1-.063c-.061.009,0,.048-.056.043l.087.013c.007,0,.007.015,0,.03l-.177.07c-.026-.012-.04-.028-.013-.054-.033.014-.061.052-.027.069l-.026.01c-.039,0,0-.046-.08-.038a.337.337,0,0,1-.052.086,2.071,2.071,0,0,0-.254.109l-.007-.007a.089.089,0,0,0-.046.033l-.188.088a.284.284,0,0,1-.038,0,.093.093,0,0,0-.1.036c.031-.007.04,0,.044.012l-.15.087a.053.053,0,0,0-.017-.017l-.092.036.04.008c-.054.046-.074.042-.1.039s-.044-.007-.1.033l-.006.052a1.242,1.242,0,0,0-.154.1c-.007,0-.023,0-.051.027l.012,0-.151.106a6.406,6.406,0,0,0-1.256,1.2l-.054.073.028,0c.046.008.085.016.066-.038a.113.113,0,0,0,.067.006c.041,0,.08-.009.085.055a.7.7,0,0,1,.284-.019c.143.008.283.017.346-.083.033.017.109,0,.1.053-.023.027-.044.014-.06,0s-.025-.024-.032-.006c.027,0,.037.032.042.045.064-.02.116-.025.041-.109.077-.032.122.022.176.077a.225.225,0,0,0,.18.086c-.012-.042,0-.056.056-.042l.109.085c.119,0,.062-.085.06-.155.066.022.147.03.18.086l.072-.074c-.049.053.059.047.09.069l-.032-.022c.012-.027.088,0,.127.016-.007.041-.085.048-.125.055.034.035.085.036.13.077-.016-.073.1-.029.154-.022s.066.077.083.079c0-.016.018-.015.035-.013s.04,0,.015-.031c-.009-.007-.018,0-.029,0a.04.04,0,0,1-.05-.015c.038-.017.033-.081.114-.017.06.049-.017.133.1.116-.03-.024-.035-.054-.058-.083l.108-.01,0,.063c.015-.012,0-.02.012-.027.03.073.163.059.185.139a.191.191,0,0,0,.1,0,.235.235,0,0,1,.07-.009L58.08,21.7a.193.193,0,0,1,.2.081l0-.015a.3.3,0,0,1,.152.09c.088-.02.047-.226.136-.117.086.03.124.157.085.185.158.01.323.162.478.12.017.034,0,.044.043.077.224.068.449.269.649.226-.047-.042-.014-.056,0-.078l.085.041v.015c-.017.051-.017.08-.083.075.129.08.312.193.4.177-.041.007-.018.037.006.068.012-.09.109-.053.171.015l0,.057.06-.027c.022.031,0,.124.084.112a.084.084,0,0,1,.036-.043c.061.084.145.2.231.213l.085-.034c.029.03.069.109,0,.094.139.039.222.086.283.056l.012.008a1.527,1.527,0,0,0,.335.387,2.994,2.994,0,0,0,.378.312l.008-.041c.079.018.007.089.062.1-.006-.05.081-.034.048-.116a.149.149,0,0,1,.045.029l.02.018c.041.051.044.126.083.173-.006.025-.014.011-.023,0s-.02-.032-.027,0,.144.066.127.147c.036-.007.041-.074.041-.11l.04.08c.027-.006.033-.03.032-.062l.1.1a.144.144,0,0,0,.056.119c.042-.008-.04-.068-.046-.109l.146.142c-.044,0-.034.09-.008.13.032.011.036-.007.036-.023s0-.046.046,0c-.006.052.058.156-.023.118a.108.108,0,0,0,0,.042l.045.045a.1.1,0,0,1,.063.064l.012.013c.038-.04,0-.162.059-.159l.023.022c-.014.056.067.173-.016.207v0c.044.016.07-.024.062-.085.075.014.065.232.144.137l-.017.077a.2.2,0,0,1,.037,0,.348.348,0,0,0,.061,0c.043.048.09.235.137.143.008.025.107.132.034.148-.081-.032-.042-.123-.124-.08.066-.014.078.066.092.129l.021.024,0,0,.013-.013a.559.559,0,0,0,.039.068l.027.028a.025.025,0,0,1,.028,0l0,.028.067.071c.018-.017.038-.032.072.02l-.037-.109c.008.023.065.01.094.07l-.022.132.036.038,0-.018c0-.026.084-.024.138.054a.311.311,0,0,1,.017.123l0,0,.076.077.043.039c.036.031.072.061.109.09v-.037l.055.079.017.013c.084.063.114.08.158.121V26.1l0-.009a.232.232,0,0,1,.026.023c0,.034-.008.076,0,.069s0-.037,0-.055l.011.013a.822.822,0,0,0,.02.112.421.421,0,0,1,0-.074c0,.13.027.029.031.126l0-.072s0,.024.009.036a.612.612,0,0,0,0,.136l0,0v-.03l0-.06v.01a.631.631,0,0,0,.016.122Zm.073-.063,0,0-.017-.124Zm.6-.667c.027-.05-.05,0-.013-.066C65.035,25.794,65.095,25.8,65.1,25.815Zm-1.4-.192a.07.07,0,0,1-.007-.017.016.016,0,0,0-.012,0Zm1.509-.174c.016,0,.025-.008.009-.014Zm-15.294-.673c.044-.029.158-.079.167-.128C50.051,24.693,49.835,24.772,49.908,24.775Zm.875-.532.007.044a.191.191,0,0,1,.074-.034c.021-.019.012-.026-.008-.026A.23.23,0,0,0,50.783,24.243Zm-1.729-.576.012-.012-.056-.032Zm1.969-1.118c.048-.02-.046-.027.017-.052C50.974,22.5,51.027,22.54,51.022,22.549Zm.284-.2-.016,0C51.307,22.356,51.316,22.358,51.306,22.346Zm13.684-.258.037.033,0-.056ZM57.713,19.4c.025-.01.09-.017.087-.054C57.795,19.379,57.665,19.38,57.713,19.4Zm.461-.2.013.039c.013-.008.015-.016.036-.016.012-.017-.008-.026-.03-.026A.07.07,0,0,0,58.175,19.2Zm7.925-.265c.017-.016.015-.032.022-.054C66.076,18.9,66.068,18.917,66.1,18.939Zm.022-.134c.011.012.023.025.046-.011-.017-.014-.038-.009-.06,0A.04.04,0,0,1,66.121,18.8Zm-.625-.323c.01.02.017.04.032.007-.012-.012-.022-.061-.063-.029l.008,0C65.483,18.458,65.489,18.47,65.5,18.482Zm-8.562-.172.007-.006-.046-.04Zm8.323,0,.039-.041c-.011,0-.018,0-.022-.015A.038.038,0,0,0,65.256,18.306ZM58,17.8c.025-.011-.032-.03,0-.045h0C57.972,17.752,58.006,17.79,58,17.8Zm.132-.142-.009,0C58.138,17.665,58.145,17.669,58.136,17.655Zm1.948-.712.034.014-.012-.039Zm1.718,21.7-.008.022A.053.053,0,0,1,61.8,38.646Zm1.41-3.615h0Zm2.142-10.07c0,.005,0,.01,0,.015A.011.011,0,0,1,65.354,24.962Zm.105-1.405h0ZM49.9,22.886h-.018A.02.02,0,0,1,49.9,22.886Zm1.781-.792-.008.011A.008.008,0,0,1,51.678,22.094Zm.254-.08-.041,0A.089.089,0,0,1,51.933,22.015Zm5.133-.674,0,0Zm.285-3.47a.013.013,0,0,1,.012,0Zm.968-.374,0,.01C58.314,17.5,58.315,17.5,58.319,17.5Zm.109-.049a.033.033,0,0,1,.023,0h-.023Zm.815-.315,0,0Z" transform="translate(0)" fill="#ffc6de"/></svg>