<svg xmlns="http://www.w3.org/2000/svg" width="161.487" height="200" viewBox="0 0 161.487 200"><path d="M19.087,181.751c8.411-5.413,17.6-10.477,23.772-18.591,2.346-3.084,4.127-6.381,6.261-9.6,2.357-3.556,4.853-7.017,7.129-10.626,3.207-5.087,6.006-10.548,7.138-16.455s.453-12.34-2.855-17.364c-2.995-4.546-7.8-7.548-11.943-11.106-.016-.029.076.007,0-.05.006.01-.025.015-.026.032A26.082,26.082,0,0,1,43.2,92.015a18.11,18.11,0,0,1-2.376-12.339,17.227,17.227,0,0,1,.987-3.571,1.476,1.476,0,0,1,.52-.759,1.056,1.056,0,0,1,1.388.544,3.026,3.026,0,0,1,.154,1.648c-.467,4.841-1.125,10.069,1.321,14.273,2.135,3.673,6.165,5.717,9.51,8.337a29,29,0,0,1,9.061,12.23c1.754,4.5,2.7,10.567,1.747,15.369a.159.159,0,0,0-.046-.071,1.219,1.219,0,0,0-.078.376v.54c-.03.274-.049.337-.072.279-.137.907-.008,1.023-.169,1.724-.007-.343-.044-.089-.132.225a.379.379,0,0,1-.01.2c.044-.076.009-.215.092-.439.052-.054-.033.3-.06.458-.55,3.327-2.909,5.8-4.574,8.618-2.139,3.621-4.32,7.22-6.634,10.732a96.125,96.125,0,0,1-16.194,19.4C25.534,180.492,9.536,186.957,0,200,4.167,192.133,11.6,186.569,19.087,181.751Zm32.265-28.518a.016.016,0,0,1,.02-.009c.016,0,.038.005.14-.169-.1.147-.1.129-.1.111s0-.012,0-.012S51.392,153.171,51.351,153.233Zm12.264-27.146c.012.042.016.092.032.1.009-.085,0-.132-.008-.132S63.625,126.063,63.615,126.087Zm-.066-.146c.027.043.031-.012.031-.067,0-.025,0-.051,0-.067A.247.247,0,0,0,63.549,125.941Zm-7.438-22.092.054,0-.116-.074Zm-10.8,58.373.033.065-.084,0Zm18.007-26.478,0,.062-.123.213ZM63.7,123.6c0-.061-.031-.212,0-.236-.021.035.026.252.008.252C63.715,123.613,63.711,123.609,63.7,123.6Zm-.072-1.277c.013-.055.039.035.045.095h-.042A.252.252,0,0,0,63.632,122.321ZM48.567,97.991l.021.018a.184.184,0,0,0,.043.041C48.58,98.021,48.566,98,48.567,97.991ZM47.9,95.049l.008-.071a.894.894,0,0,0,.135.144c.024.035.026.049.016.049A.527.527,0,0,1,47.9,95.049ZM44.848,94.5l.024.031-.1.014Zm1.525-1.3a2.291,2.291,0,0,1,.275.4C46.6,93.5,46.255,93.136,46.373,93.2ZM71.21,91.879A5.7,5.7,0,0,1,66.814,84a15.55,15.55,0,0,1,1.586-3.39,5.033,5.033,0,0,1,2.549-2.3.838.838,0,0,1,.8.149.781.781,0,0,1,.26.531c.234,1.749-2.525,3.354-3.323,4.967a4.841,4.841,0,0,0,.07,4.819c1.255,1.8,3.793,2.049,5.985,1.954,8.27-.36,16.281-3.188,23.583-7.089a106.987,106.987,0,0,0,9.439-5.751V77.9l.1-.081q1.486-1,2.949-2.041c15.467-10.925,30.134-23.593,42.06-38.35q4.561-5.645,8.62-11.674c-1.99,5.409-5.58,9.327-8.7,14.027a64.044,64.044,0,0,1-4.325,5.388c-1.674,1.85-3.426,3.628-4.746,5.021-.992.969-1.986,1.99-2.978,3.041l-1.489,1.6-1.532,1.57-3.028,3.149L131.669,62.5c-8.743,8.478-16.662,17.746-28.427,22.052q-.275.137-.551.272c.019-.031.045-.057.037-.082-.1.042-.121.075-.056.091a73.416,73.416,0,0,1-26.62,7.226c-.711.054-1.428.1-2.142.1A11.876,11.876,0,0,1,71.21,91.879Zm3.495-.055c.015,0-.044.053.072.033-.065,0-.058-.007-.048-.016s.02-.017-.011-.017ZM70.44,91.6l.057-.046-.031-.009Zm29.245-5.468a.137.137,0,0,1,.076-.033l-.028-.056C99.688,86.068,99.631,86.132,99.685,86.134Zm.981-.494c.02-.056-.03-.017-.086.022-.041.028-.085.056-.106.048C100.519,85.751,100.62,85.664,100.666,85.64Zm21.1-17.818c.112-.093.114-.07.116-.047s0,.042.077-.02c-.011,0-.019,0-.028-.013a.048.048,0,0,0-.033-.014C121.872,67.728,121.833,67.748,121.765,67.822ZM82.594,91.29l.111-.033-.027.038Zm-9.906-.732-.033-.041a.676.676,0,0,0,.167.01c.1.018,0,.031-.1.031Zm-1.937-.33a1.272,1.272,0,0,1,.364.112C71.041,90.293,70.646,90.243,70.751,90.228ZM102.5,85a.305.305,0,0,0,.05-.022c.044-.023.092-.045.08.015a.183.183,0,0,1-.076.019A.144.144,0,0,1,102.5,85Zm-.019-.008L102.5,85h-.009A.009.009,0,0,1,102.477,84.989Zm.195-.158.019-.009-.007.012Zm5.091-7,.176-.081-.083.069-.1.066Zm-38.006-7.1c-2.3-.741-5.032-2.568-6.086-4.976a5.137,5.137,0,0,1-.445-2.04c.006-.471.074-.689.244-.608.129.06.254.026.569.729.064.18.21.384.336.656A9.888,9.888,0,0,0,71.154,69.8l0,.011a.4.4,0,0,0,.061,0,12.347,12.347,0,0,0,1.481.261,25.548,25.548,0,0,0,9.557-1.207,157.01,157.01,0,0,0,18.11-6.326c2.93-1.2,5.838-2.456,8.736-3.729,1.43-.628,2.867-1.425,4.345-1.923,1-.337,2.07-.505,3.062-.9,1.991-.791,3.947-1.7,5.9-2.571,1.966-.85,3.869-1.812,5.864-2.49,1.1-.387,6.061-2.734,7.289-2.941-1.443,1.641-6.755,3.774-8.74,4.964a55.341,55.341,0,0,1-7.645,3.293c-3.118,1.194-6.4,3.037-9.419,4.361-3.836,1.77-8.457,5.044-12.5,6.433a56.642,56.642,0,0,1-6.735,1.984.086.086,0,0,1,.019-.019c-.039,0-.07-.056-.122,0-.022-.018.038-.071-.017-.066-.037.042-.009.085.04.107l-.362.088c.039-.022.242-.124.069-.052a65.575,65.575,0,0,1-10.894,2.068,36.269,36.269,0,0,1-4.353.306A16.733,16.733,0,0,1,69.758,70.736Zm2.453.454c-.078-.007.018-.031-.04-.037C72.18,71.158,72.139,71.2,72.211,71.19ZM87.57,69.6c.023-.016.03-.01.049-.013L87.6,69.54C87.575,69.55,87.538,69.586,87.57,69.6Zm-17.353-.013c-.034-.042-.175-.059-.234-.075C69.909,69.529,70.171,69.547,70.217,69.583ZM88.2,69.394c.015-.035-.017-.017-.053,0s-.056.028-.068.019C88.1,69.451,88.166,69.4,88.2,69.394Zm1.228-.161c.01-.04-.02-.031-.049-.023a.151.151,0,0,1-.031.007A.087.087,0,0,0,89.424,69.233Zm.045-.1c.013-.022.036-.038.033-.057C89.436,69.091,89.422,69.112,89.469,69.134Zm1.074-.122c.017,0,.035-.009.057-.042A.156.156,0,0,0,90.544,69.013Zm12.5-7.434c0,.015,0,.029.051,0-.009,0-.012-.009-.018-.017s-.031-.035-.109.017a.2.2,0,0,1,.065-.022C103.045,61.561,103.044,61.57,103.043,61.578Zm-26.1,9.852.067-.015L77,71.446Zm-7.3-.712.02.005-.042.046Zm1.513-.914-.01-.027a.332.332,0,0,0,.1.017c.042.018.017.026-.023.026Zm-23.2-1.438A11.1,11.1,0,0,1,44.329,65.1c-1.183-1.533-2.342-3.215-3.465-4.924l-3.231-5.023c-2.382-3.7-5.571-6.787-7.918-10.513a37.987,37.987,0,0,1-4.988-12.21,104.284,104.284,0,0,0-2.669-13.854l.046,0-.045-.07-.01.035q-.233-.806-.493-1.6a38.444,38.444,0,0,0-2.6-6.164l.033-.01-.012-.019-.029.015a27.167,27.167,0,0,0-5.427-7.186l-.049-.047A4.406,4.406,0,0,1,12.1,1.79,1.355,1.355,0,0,1,12.951.011a1.849,1.849,0,0,1,1.28.471c4.057,2.9,6.322,7.279,8.251,11.75a124.557,124.557,0,0,1,4.84,14.4A102.241,102.241,0,0,0,32.39,41.05,42.671,42.671,0,0,0,36.2,47.722a17.936,17.936,0,0,1,1.946,2.909c.252.562.358,1.891,1.081,2.084l.138.234c-.01.064-.089.06-.06.153a11.859,11.859,0,0,1,.627,1.04.029.029,0,0,1-.035,0,6.255,6.255,0,0,0,.752,1.05c-.035,0-.045.043-.111-.025.067.172.117.171.165.171a.147.147,0,0,1,.045,0l.116.212-.1-.045c.193.2.213.514.463.729-.031.03-.076-.025-.117-.054.125.176.236.381.367.539l.091.183a.241.241,0,0,1-.106-.07.416.416,0,0,0,.2.252,3.994,3.994,0,0,1,.163.376c.009.005.019.02.029.028.26.546.509,1.085.734,1.627.638,1.532,1.268,2.8,1.361,2.939a18.3,18.3,0,0,0,2.115,2.812,8.562,8.562,0,0,0,2.515,1.977,2.555,2.555,0,0,0,2.39.026,4.789,4.789,0,0,0,1.146-.869c.089-.089.2-.184.273-.268s.131-.157.2-.234a3.851,3.851,0,0,0,.337-.589,4.72,4.72,0,0,0,.329-1.511c.064-.743.082-1.728.129-2.685a34.717,34.717,0,0,1,.368-4.541,21.463,21.463,0,0,1,.576,5.664,12.307,12.307,0,0,1-.24,3.331,4.457,4.457,0,0,1-.629,1.363,10.488,10.488,0,0,1-.765.931,3.976,3.976,0,0,1-2.034,1.262,3.38,3.38,0,0,1-.8.094A4.4,4.4,0,0,1,47.953,68.367Zm-8.83-15.552.025.042.089-.086Zm-3.3-5.287c0-.028.1-.026-.005-.151C35.91,47.542,35.747,47.4,35.819,47.527ZM25.117,32.9c.032.013.054.038.085.03-.009-.045-.023-.069-.041-.069S25.134,32.878,25.117,32.9Zm-.149-.038c.085.009.03-.066.032-.1A.1.1,0,0,0,24.968,32.866Zm-.144-1.46c.1.02-.06-.1-.02-.143C24.742,31.3,24.811,31.371,24.824,31.406Zm-.264-.719c.024.024.014.034.015.056l.072-.026a.081.081,0,0,0-.061-.048A.027.027,0,0,0,24.56,30.687Zm-4.05-17.368c-.038-.082.071-.015.042-.076C20.548,13.257,20.45,13.257,20.511,13.319ZM93.205,65.261l.116-.02-.127.066Zm35.347-3.528.115.066-.053.045Zm-56.331-.2h.091c.111-.046-.313,0-.4-.06a.106.106,0,0,0,.025.017,10.013,10.013,0,0,1-2.119-.58l.327-.024-.96-.482-1.23-1.543.317.561a4.668,4.668,0,0,1-.972-2.513c-.009-.136.3-.459.391-.572a1.5,1.5,0,0,0-.508.338.1.1,0,0,0-.03-.1.237.237,0,0,1-.073-.035c.035.024-.009.086-.027.1a.312.312,0,0,1-.018-.074c-.01-.046-.022-.041-.022-.048a.06.06,0,0,0-.047,0,.262.262,0,0,1-.117.042,20.324,20.324,0,0,1-9.084.36c-2.709-.619-5.311-2.538-5.884-5.257-.5-2.365.593-4.758,1.8-6.853A25.832,25.832,0,0,1,61.014,36.2a15.284,15.284,0,0,1,1.549-.942l.011.045.045-.028-.035-.028a11.848,11.848,0,0,1,10.124-.826c.61.253,1,.46,1.094.49A14.009,14.009,0,0,1,77.24,37.07a7.572,7.572,0,0,1,2.393,3.556,7.4,7.4,0,0,1-.164,4.265,11.244,11.244,0,0,1-1.886,3.482c-.213.285-.625.831-1.16,1.482-.141.174-.22.224-.318.357l-.319.344c-.179.193-.349.319-.4.562a4.114,4.114,0,0,1,2.586,1.935,4.826,4.826,0,0,0-4.163-1.716c2.132-2.3,4.384-4.864,4.578-7.994.226-3.675-2.754-7.082-6.325-7.984a12.064,12.064,0,0,0-10.3,2.7,23.253,23.253,0,0,0-6.273,8.965c-.756,1.742-1.389,3.8-.5,5.476a4.537,4.537,0,0,0,2.869,2.11,11.492,11.492,0,0,0,3.64.24,52.889,52.889,0,0,0,8.983-1.248,3.413,3.413,0,0,0-.209,4.752,4.7,4.7,0,0,0,2.276,1.406l-.029.05.021,0,.014-.05a6.81,6.81,0,0,0,2.573.214,4.433,4.433,0,0,0,3.507-1.932,3.533,3.533,0,0,0,.394-2.083,10.574,10.574,0,0,0-.889-3.034c.242.575,1.023,1.086,1.324,1.717A5.49,5.49,0,0,1,80,57.095a3.968,3.968,0,0,1-2.061,3.456,8.241,8.241,0,0,1-4.275,1.082A10.8,10.8,0,0,1,72.222,61.536ZM70.155,61l.164.077-.012-.061a.973.973,0,0,0-.175-.055C70.116,60.961,70.119,60.971,70.155,61Zm-.181-2.428c0-.013.076-.021.013-.074C70.037,58.572,69.935,58.517,69.973,58.572Zm-11.517-3.7c.032,0,.085-.011.058-.035a.068.068,0,0,1-.049-.011Zm-.492-.119c0-.044-.086-.039-.118-.047C57.791,54.74,57.951,54.714,57.965,54.749Zm-1.357-.587c.056.036.081.031.062-.016C56.645,54.152,56.619,54.146,56.608,54.163Zm.758-14.493c.071-.082.074-.067.076-.051s0,.027.051-.027c-.007,0-.013,0-.019,0a.031.031,0,0,0-.017-.005C57.441,39.583,57.414,39.6,57.365,39.669ZM71.938,61.494c.094.015.189.029.284.042A.758.758,0,0,1,71.938,61.494Zm.605-1.731.013-.023-.007.024Zm35.422-.592.06.076-.038.018Zm-51.152-5s.006.009,0,.013Zm-.046-.065a.087.087,0,0,1,.046.065C56.794,54.156,56.72,54.137,56.768,54.109Zm13.553-.641-.034.031-.017.015ZM51.745,51.1a1.556,1.556,0,0,1,0-.169c-.005.008.036.2.036.2Zm0-.169h0ZM30.575,36.614l.064,0,.022.136Zm31.978-1.389.031.025-.022.011ZM22.042,18.574l.008-.028.009.03Zm.023-7.769.053-.06a.3.3,0,0,0,.058.12c0,.03,0,.042-.013.042S22.092,10.854,22.065,10.805Zm-3.111-.043.008.014-.087.026Zm2.364-1.433c.044.071.178.216.149.3C21.472,9.542,21.2,9.3,21.318,9.329Z" fill="#ffc6de"/></svg>