<svg xmlns="http://www.w3.org/2000/svg" width="252.091" height="48" viewBox="0 0 252.091 48"><path d="M12.313,15.521a62.308,62.308,0,0,0-.9,9.115,23.639,23.639,0,0,0,.325,4.506c.285,1.434.793,2.97,1.953,3.646,1.282.758,2.5.02,3.316-1.188a15.079,15.079,0,0,0,1.81-4.035,57.376,57.376,0,0,0,1.81-8.89c.2-1.516.346-3.011.509-4.547s.346-3.032.387-4.527a16.235,16.235,0,0,0-.346-4.363A4.916,4.916,0,0,0,18.965,2,4.884,4.884,0,0,0,15.1,1.653a9.674,9.674,0,0,0-3.56,2.233,28.786,28.786,0,0,0-5.167,7.231,42.624,42.624,0,0,0-3.092,8.439,63.215,63.215,0,0,0-1.729,8.91,35.974,35.974,0,0,0-.081,8.992c.407,2.909,1.4,5.92,3.662,7.743a8.179,8.179,0,0,0,8.177,1.045,9.063,9.063,0,0,0,3.336-2.827,32.126,32.126,0,0,0,2.319-3.892,54.306,54.306,0,0,0,3.682-8.337,22.687,22.687,0,0,0,1.221-8.931l.244.266a4.753,4.753,0,0,0-3.4,1.024,8.7,8.7,0,0,0-2.461,2.786,6.1,6.1,0,0,0-.834,3.544,4.871,4.871,0,0,0,1.627,3.134l-.061-.041c.061.02.081.02.183-.041a1.484,1.484,0,0,0,.346-.307,7.775,7.775,0,0,0,.631-.9c.386-.655.753-1.352,1.119-2.048a19.425,19.425,0,0,1,1.2-2.069,5.083,5.083,0,0,1,.814-.983,1.94,1.94,0,0,1,.671-.389,1.146,1.146,0,0,1,.9.143l-.305-.061a1.324,1.324,0,0,1,.9.123,1.155,1.155,0,0,1,.468.84,4.686,4.686,0,0,1-.1,1.352c-.163.84-.407,1.618-.59,2.4a13.416,13.416,0,0,0-.387,2.315,2.143,2.143,0,0,0,.57,1.844l-.671.061A19.934,19.934,0,0,0,27.1,29.9a19.183,19.183,0,0,1,1.241-2.847,6.452,6.452,0,0,1,.915-1.331,5.168,5.168,0,0,1,1.282-1.106.559.559,0,0,1,.773.184.584.584,0,0,1,.081.266v.041c.2,3.216-.061,6.37-.1,9.484a25.242,25.242,0,0,0,1.1,9.054l-1.3-.184.814-1.311.692-1.413c.427-.963.834-1.946,1.241-2.95s.814-2.028,1.282-3.032l.753-1.5.915-1.454a.782.782,0,0,1,1.444.41v.041c.041,2.581-.081,5.08.041,7.558a26.99,26.99,0,0,0,.366,3.646,9.141,9.141,0,0,0,1.119,3.2l-1.526.246c1.1-3.933,1.383-8.234,2.3-12.434A32.032,32.032,0,0,1,42.4,28.2a12.225,12.225,0,0,1,4.129-5.326,10.471,10.471,0,0,1,6.57-1.639,12.369,12.369,0,0,1,3.316.655A6.279,6.279,0,0,1,59.4,23.9a4.462,4.462,0,0,1,.773,3.728,5.6,5.6,0,0,1-2.055,3.011c-.875.737-1.77,1.311-2.583,1.9a7.2,7.2,0,0,0-2.014,1.987L52.773,33.4c2.38-.184,4.74-.389,7.12-.451,2.38-.123,4.74-.123,7.12-.123,4.74,0,9.479.164,14.2.389q7.079.4,14.158.983,7.079.614,14.117,1.413c4.7.553,9.4,1.127,14.077,1.782s9.357,1.331,14.016,2.151l6.977,1.209c2.319.43,4.658.84,6.977,1.311,4.638.9,9.256,1.884,13.873,2.888a.084.084,0,0,1-.041.164c-4.638-.922-9.276-1.844-13.914-2.642-2.319-.43-4.658-.778-6.977-1.188l-7-1.086c-4.658-.717-9.337-1.352-14.016-1.966S114.084,37.09,109.4,36.6c-4.7-.492-9.4-.9-14.1-1.27-4.7-.348-9.418-.635-14.117-.86-4.719-.184-9.418-.307-14.138-.266-2.36.041-4.7.061-7.059.184-2.36.061-4.679.307-7.018.512h-.041a.768.768,0,0,1-.814-.7.621.621,0,0,1,.1-.43,8.614,8.614,0,0,1,2.4-2.519c.854-.655,1.729-1.249,2.461-1.9a4.307,4.307,0,0,0,1.485-2.11,2.677,2.677,0,0,0-.468-2.294,4.768,4.768,0,0,0-2.217-1.434,11.124,11.124,0,0,0-2.868-.553,8.7,8.7,0,0,0-5.472,1.352,10.53,10.53,0,0,0-3.5,4.588A29.916,29.916,0,0,0,42.3,34.8c-.407,2.048-.732,4.138-1.078,6.227a51.9,51.9,0,0,1-1.322,6.35v.02a.848.848,0,0,1-1.058.574.82.82,0,0,1-.468-.348,10.335,10.335,0,0,1-1.383-3.871,31.894,31.894,0,0,1-.366-3.871c-.1-2.56.041-5.1.02-7.579l1.444.451-.834,1.29-.712,1.393c-.448.963-.854,1.946-1.261,2.95s-.834,2.007-1.3,3.032l-.773,1.5-.915,1.434a.721.721,0,0,1-1,.225.635.635,0,0,1-.285-.369v-.02A27.193,27.193,0,0,1,29.99,34.57c.1-3.175.387-6.309.264-9.4l.854.471c-1.505.86-2.3,2.827-3.011,4.629a21.1,21.1,0,0,1-2.644,5.572.456.456,0,0,1-.651.082h-.02a3.01,3.01,0,0,1-.875-2.642,13.92,13.92,0,0,1,.448-2.5c.2-.8.448-1.577.61-2.356a4.177,4.177,0,0,0,.122-1.065c-.02-.164-.061-.225-.081-.225a.506.506,0,0,0-.285-.02H24.7a.452.452,0,0,1-.285-.061c-.142-.1-.285-.061-.57.164a4.7,4.7,0,0,0-.692.819A21.1,21.1,0,0,0,22,30.023c-.366.7-.732,1.393-1.159,2.069a5.475,5.475,0,0,1-.732,1,1.762,1.762,0,0,1-.549.451.907.907,0,0,1-.915.02h-.02l-.081.02a5.445,5.445,0,0,1-1.831-3.626,6.8,6.8,0,0,1,.976-3.933,9.356,9.356,0,0,1,2.685-2.97,5.293,5.293,0,0,1,3.865-1.086.3.3,0,0,1,.244.266A24.551,24.551,0,0,1,23.2,31.4a54.6,54.6,0,0,1-3.641,8.46c-1.363,2.663-2.95,5.633-5.879,7.087A8.9,8.9,0,0,1,4.6,45.98C1.979,43.972.881,40.695.372,37.663a36.666,36.666,0,0,1-.122-9.32,60.149,60.149,0,0,1,1.668-9.136A43.616,43.616,0,0,1,5.071,10.42a28.9,28.9,0,0,1,5.492-7.6,10.647,10.647,0,0,1,4.15-2.54,6.458,6.458,0,0,1,4.963.512,6.258,6.258,0,0,1,2.848,4.1,17.149,17.149,0,0,1,.346,4.752c-.2,3.134-.59,6.125-1.037,9.2A59.762,59.762,0,0,1,19.8,27.872a15.749,15.749,0,0,1-2.034,4.261,4.526,4.526,0,0,1-1.912,1.618,2.472,2.472,0,0,1-1.343.164,3.955,3.955,0,0,1-.57-.123,3.642,3.642,0,0,1-.631-.287c-1.526-1-1.912-2.745-2.177-4.24a25.488,25.488,0,0,1-.183-4.65,62.773,62.773,0,0,1,1.221-9.136.078.078,0,0,1,.1-.061c.041.02-98.891,5.817-98.891,5.817l98.789-4.274" transform="translate(86.619 -0.006)" fill="#dbb28e"/></svg>