<svg xmlns="http://www.w3.org/2000/svg" width="99.94" height="100.03" viewBox="0 0 99.94 100.03">
  <defs>
    <style>
      .cls-1 {
        fill: #5a79ec;
        fill-rule: evenodd;
      }
    </style>
  </defs>
  <path id="about-icon02" class="cls-1" d="M1338.3,2346.53h-46.63v-6.67a1.67,1.67,0,0,0-3.34,0v6.67H1241.7a1.664,1.664,0,0,0-1.67,1.66v70a1.673,1.673,0,0,0,1.67,1.67h44.28l-15.48,15.49a1.666,1.666,0,1,0,2.36,2.35l15.47-15.48v14.31a1.67,1.67,0,0,0,3.34,0v-14.31l15.47,15.48a1.665,1.665,0,0,0,2.36-2.35l-15.48-15.49h44.28a1.673,1.673,0,0,0,1.67-1.67v-70A1.664,1.664,0,0,0,1338.3,2346.53Zm-1.66,70h-93.28v-66.67h93.28v66.67Zm-71.62-60a15,15,0,1,0,14.99,15A14.991,14.991,0,0,0,1265.02,2356.53Zm-9.33,21.97a11.606,11.606,0,0,1-2.2-5.31H1261Zm7.66-18.51v9.87h-9.86A11.667,11.667,0,0,1,1263.35,2359.99Zm1.67,23.2a11.6,11.6,0,0,1-6.97-2.33l8.14-8.15a1.7,1.7,0,0,0,.49-1.18v-11.54A11.668,11.668,0,0,1,1265.02,2383.19Zm34.97-23.33h23.32a1.665,1.665,0,1,0,0-3.33h-23.32A1.665,1.665,0,0,0,1299.99,2359.86Zm-8.32,6.67h31.64a1.67,1.67,0,0,0,0-3.34h-31.64A1.67,1.67,0,0,0,1291.67,2366.53Zm31.64,6.66a1.665,1.665,0,1,0,0-3.33h-31.64a1.665,1.665,0,1,0,0,3.33h31.64Zm-29.98,26.67h-6.66a1.673,1.673,0,0,0-1.67,1.67v10a1.664,1.664,0,0,0,1.67,1.66h6.66a1.664,1.664,0,0,0,1.67-1.66v-10A1.673,1.673,0,0,0,1293.33,2399.86Zm-1.66,10h-3.34v-6.67h3.34v6.67Zm13.32-13.33h-6.66a1.664,1.664,0,0,0-1.67,1.66v13.34a1.664,1.664,0,0,0,1.67,1.66h6.66a1.664,1.664,0,0,0,1.67-1.66v-13.34A1.664,1.664,0,0,0,1304.99,2396.53Zm-1.67,13.33h-3.33v-10h3.33v10Zm13.33-20h-6.66a1.673,1.673,0,0,0-1.67,1.67v20a1.664,1.664,0,0,0,1.67,1.66h6.66a1.664,1.664,0,0,0,1.67-1.66v-20A1.673,1.673,0,0,0,1316.65,2389.86Zm-1.67,20h-3.33v-16.67h3.33v16.67Zm5-25v26.67a1.664,1.664,0,0,0,1.67,1.66h6.66a1.656,1.656,0,0,0,1.66-1.66v-26.67a1.664,1.664,0,0,0-1.66-1.67h-6.66A1.673,1.673,0,0,0,1319.98,2384.86Zm3.33,1.67h3.33v23.33h-3.33v-23.33Zm-66.62,13.33a1.665,1.665,0,0,0,0-3.33h-3.33a1.665,1.665,0,1,0,0,3.33h3.33Zm14.99-3.33h-10a1.665,1.665,0,0,0,0,3.33h10A1.665,1.665,0,0,0,1271.68,2396.53Zm-21.65,6.66a1.664,1.664,0,0,0,1.66,1.67h11.66a1.665,1.665,0,1,0,0-3.33h-11.66A1.656,1.656,0,0,0,1250.03,2403.19Zm21.65-1.66h-3.33a1.665,1.665,0,1,0,0,3.33h3.33A1.665,1.665,0,0,0,1271.68,2401.53Zm-16.66,5h-3.33a1.665,1.665,0,0,0,0,3.33h3.33A1.665,1.665,0,1,0,1255.02,2406.53Zm16.66,0h-11.66a1.665,1.665,0,1,0,0,3.33h11.66A1.665,1.665,0,0,0,1271.68,2406.53Z" transform="translate(-1240.03 -2338.19)"/>
</svg>
