<svg xmlns="http://www.w3.org/2000/svg" width="100" height="100" viewBox="0 0 100 100">
  <defs>
    <style>
      .cls-1 {
        fill: #5a79ec;
        fill-rule: evenodd;
      }
    </style>
  </defs>
  <path id="about-icon02" class="cls-1" d="M911.826,2346.84h-15v-6.67a1.661,1.661,0,0,0-1.666-1.66H831.838a1.661,1.661,0,0,0-1.666,1.66v6.67h-15a1.67,1.67,0,0,0-1.666,1.67v19.99a15.017,15.017,0,0,0,15,15h1.744a33.157,33.157,0,0,0,28.251,31.24v10.42H841.837a11.685,11.685,0,0,0-11.665,11.67,1.661,1.661,0,0,0,1.666,1.66h63.324a1.661,1.661,0,0,0,1.666-1.66,11.684,11.684,0,0,0-11.665-11.67H868.5v-10.42a33.159,33.159,0,0,0,28.251-31.24h1.744a15.016,15.016,0,0,0,15-15v-19.99A1.67,1.67,0,0,0,911.826,2346.84Zm-81.654,33.33h-1.666a11.683,11.683,0,0,1-11.665-11.67v-18.33h13.331v30Zm54.991,48.32a8.353,8.353,0,0,1,8.166,6.67H833.671a8.37,8.37,0,0,1,8.166-6.67h43.326Zm-23.329-3.33v-10.04h0.088c0.532,0.03,1.056.04,1.578,0.04s1.047-.01,1.578-0.04h0.088v10.04h-3.332Zm31.661-43.33a29.9,29.9,0,0,1-26.839,29.83,30.246,30.246,0,0,1-3.156.17c-0.513,0-1.027-.02-1.55-0.04s-1.055-.08-1.606-0.14a29.9,29.9,0,0,1-26.839-29.82v-39.99H893.5v39.99Zm16.664-13.33a11.683,11.683,0,0,1-11.665,11.67h-1.666v-30h13.331v18.33Zm-24.793-4.31a1.677,1.677,0,0,0-1.351-.69H869.554l-4.469-13.75a1.668,1.668,0,0,0-3.166,0l-4.473,13.75H842.985a1.67,1.67,0,0,0-.978,3.02l11.7,8.5-4.47,13.75a1.665,1.665,0,0,0,2.565,1.86l11.7-8.49,11.7,8.49a1.66,1.66,0,0,0,2.327-.36,1.685,1.685,0,0,0,.237-1.5l-4.469-13.75,11.7-8.5A1.669,1.669,0,0,0,885.366,2364.19Zm-15.015,8.85a1.66,1.66,0,0,0-.605,1.86L873,2384.92l-8.529-6.19a1.65,1.65,0,0,0-1.96,0l-8.528,6.19,3.257-10.02a1.658,1.658,0,0,0-.605-1.86l-8.525-6.2h10.543a1.674,1.674,0,0,0,1.585-1.15l3.258-10.03,3.258,10.03a1.674,1.674,0,0,0,1.585,1.15h10.543Z" transform="translate(-813.5 -2338.5)"/>
</svg>
