<svg xmlns="http://www.w3.org/2000/svg" width="118" height="100" viewBox="0 0 118 100">
  <defs>
    <style>
      .cls-1 {
        fill: #5a79ec;
        fill-rule: evenodd;
      }
    </style>
  </defs>
  <path id="about-icon01" class="cls-1" d="M486.3,2358.61H458.767v-1.96a17.7,17.7,0,0,0-17.7-17.65H403.7a17.7,17.7,0,0,0-17.7,17.65v23.53a17.689,17.689,0,0,0,17.7,17.64h1.967v15.69a1.959,1.959,0,0,0,1.213,1.81,1.982,1.982,0,0,0,2.144-.43l17.124-17.07h5.085v1.96a17.7,17.7,0,0,0,17.7,17.65h10.986l21.057,20.99a1.982,1.982,0,0,0,2.144.43,1.959,1.959,0,0,0,1.213-1.81v-19.61H486.3a17.7,17.7,0,0,0,17.7-17.65v-23.53A17.689,17.689,0,0,0,486.3,2358.61Zm-60.967,35.29a1.965,1.965,0,0,0-1.39.58l-14.343,14.3v-12.92a1.965,1.965,0,0,0-1.967-1.96H403.7a13.763,13.763,0,0,1-13.767-13.72v-23.53a13.765,13.765,0,0,1,13.767-13.73h37.367a13.764,13.764,0,0,1,13.766,13.73v1.96h-5.9a17.689,17.689,0,0,0-17.7,17.64v17.65h-5.9Zm74.734,5.88a13.765,13.765,0,0,1-13.767,13.73h-3.933a1.965,1.965,0,0,0-1.967,1.96v16.83l-18.276-18.22a2,2,0,0,0-1.391-.57h-11.8a13.764,13.764,0,0,1-13.766-13.73v-23.53a13.762,13.762,0,0,1,13.766-13.72H486.3a13.763,13.763,0,0,1,13.767,13.72v23.53Zm-9.834-25.49H445a1.965,1.965,0,1,0,0,3.93h45.233A1.965,1.965,0,1,0,490.233,2374.29Zm0,11.77H445a1.96,1.96,0,1,0,0,3.92h45.233A1.96,1.96,0,1,0,490.233,2386.06Zm0,11.76H445a1.96,1.96,0,1,0,0,3.92h45.233A1.96,1.96,0,1,0,490.233,2397.82ZM397.8,2358.61h41.3a1.96,1.96,0,1,0,0-3.92H397.8A1.96,1.96,0,1,0,397.8,2358.61Zm29.5,7.84H397.8a1.96,1.96,0,1,0,0,3.92h29.5A1.96,1.96,0,1,0,427.3,2366.45Zm-1.967,11.77H397.8a1.96,1.96,0,1,0,0,3.92h27.533A1.96,1.96,0,1,0,425.333,2378.22Z" transform="translate(-386 -2339)"/>
</svg>
