<svg xmlns="http://www.w3.org/2000/svg" width="220" height="220" viewBox="0 0 220 220">
  <defs>
    <style>
      .cls-1 {
        fill: #5a79ec;
        fill-rule: evenodd;
      }
    </style>
  </defs>
  <path id="service-icon02" class="cls-1" d="M1292,1696.19v-36.38l-29.83-5.88a82.7,82.7,0,0,0-6.48-15.6l16.64-24.96-25.7-25.7-24.96,16.64a83.369,83.369,0,0,0-15.6-6.48l-5.88-29.83h-36.38l-5.88,29.83a83.369,83.369,0,0,0-15.6,6.48l-24.96-16.64-25.7,25.7,16.64,24.96a82.7,82.7,0,0,0-6.48,15.6l-29.83,5.88v36.38l29.83,5.88a82.7,82.7,0,0,0,6.48,15.6l-16.64,24.96,25.7,25.7,24.96-16.64a83.369,83.369,0,0,0,15.6,6.48l5.88,29.83h36.38l5.88-29.83a83.369,83.369,0,0,0,15.6-6.48l24.96,16.64,25.7-25.7-16.64-24.96a83.369,83.369,0,0,0,6.48-15.6Zm-36.26,44.79-10.76,10.76-22.89-15.26c-9.92,6.01-13.57,7.91-27.11,11.26l-5.39,27.37h-15.18l-5.39-27.37c-11.3-2.79-15.2-4.04-27.11-11.26l-22.89,15.26-10.76-10.76,15.26-22.89c-6.07-10.01-7.95-13.7-11.26-27.11l-27.37-5.39v-15.18l27.37-5.39c2.82-11.4,4.11-15.32,11.26-27.11l-15.26-22.89,10.76-10.76,22.89,15.26c10.01-6.07,13.7-7.95,27.11-11.26l5.39-27.37h15.18l5.39,27.37c11.4,2.82,15.32,4.11,27.11,11.26l22.89-15.26,10.76,10.76-15.26,22.89c6.07,10.01,7.95,13.7,11.26,27.11l27.37,5.39v15.18l-27.37,5.39c-2.82,11.4-4.11,15.32-11.26,27.11ZM1182,1632.88a45.12,45.12,0,1,0,45.12,45.12A45.17,45.17,0,0,0,1182,1632.88Zm0,77.35a32.23,32.23,0,1,1,32.23-32.23A32.269,32.269,0,0,1,1182,1710.23Zm0-51.57a19.34,19.34,0,1,0,19.34,19.34A19.367,19.367,0,0,0,1182,1658.66Zm0,25.78a6.44,6.44,0,1,1,6.44-6.44A6.457,6.457,0,0,1,1182,1684.44Z" transform="translate(-1072 -1568)"/>
</svg>
