<svg xmlns="http://www.w3.org/2000/svg" width="220" height="220" viewBox="0 0 220 220">
  <defs>
    <style>
      .cls-1 {
        fill: #5a79ec;
        fill-rule: evenodd;
      }
    </style>
  </defs>
  <path id="service-icon03" class="cls-1" d="M827.664,2025.71l-19.336,38.67V2215H847V2064.38Zm6.445,176.4H821.218v-13.32h12.891v13.32Zm0-26.21H821.218v-9.89h12.891v9.89Zm0-22.78H821.218v-67.88h12.891v67.88Zm0-80.78H821.218v-4.92l6.446-12.89,6.445,12.89v4.92Zm-78.2-51.56v-12.89H730.125V1995H691.453v12.89H665.672v12.89H627V2215H794.578V2020.78H755.906Zm-77.344,0h25.782v-12.89h12.89v12.89h25.781v12.89H678.562v-12.89Zm103.125,181.33H639.89V2033.67h25.782v12.89h90.234v-12.89h25.781v168.44Zm-88.346-140.77-21.224,21.22-8.334-8.33-9.114,9.12,17.448,17.45,30.338-30.34Zm0,45.55-21.224,21.22-8.334-8.33-9.114,9.11,17.448,17.45L702.455,2116Zm0,45.11-21.224,21.23-8.334-8.33-9.114,9.11,17.448,17.45,30.338-30.34Zm23.893,11.01H768.8v12.89H717.234v-12.89Zm0-90.67H768.8v12.9H717.234v-12.9Zm0,45.55H768.8v12.89H717.234v-12.89Z" transform="translate(-627 -1995)"/>
</svg>
