<svg xmlns="http://www.w3.org/2000/svg" width="220" height="220" viewBox="0 0 220 220">
  <defs>
    <style>
      .cls-1 {
        fill: #5a79ec;
        fill-rule: evenodd;
      }
    </style>
  </defs>
  <path id="service-icon04" class="cls-1" d="M1207.75,2553.85l-22.79,22.79a6.446,6.446,0,0,1-9.12,0l-36.47-36.48a6.434,6.434,0,0,1,0-9.11l22.79-22.8-54.57-54.58-21.97,22.06a45.3,45.3,0,0,0-.47,64.29l90.84,90.84a45.321,45.321,0,0,0,64.28-.46l22.06-21.97Zm-100.14-81.93,36.32,36.33-9.12,9.12-36.31-36.31Zm77.49,149.83-90.83-90.85a32.515,32.515,0,0,1-4.35-40.19l36.55,36.55a19.367,19.367,0,0,0,3.78,22.03l36.47,36.47a19.338,19.338,0,0,0,22.02,3.78l36.55,36.56A32.507,32.507,0,0,1,1185.1,2621.75Zm49.84-4.24-36.3-36.31,9.11-9.12,36.33,36.33Zm57.06-96.79a96.549,96.549,0,0,0-160.83-72.21l8.57,9.64a83.645,83.645,0,0,1,126.47,107v-12.19h-12.89v38.68H1292v-12.9h-19.52A96.344,96.344,0,0,0,1292,2520.72Zm-39.11-6.02v-12.9h-12.9v12.9h-9.56l15.49-36.15-11.85-5.08-23.2,54.12h-16.01l15.48-20.64c9.54-12.71.4-30.94-15.48-30.94a19.363,19.363,0,0,0-19.34,19.35h12.89a6.448,6.448,0,1,1,11.61,3.86l-30.95,40.84h45.13v-12.47h25.79v12.9h12.9v-12.9h12.89V2514.7h-12.89Z" transform="translate(-1072 -2424)"/>
</svg>
