<?xml version="1.0" encoding="UTF-8"?>
<svg width="62px" height="60px" viewBox="0 0 62 60" version="1.1" xmlns="http://www.w3.org/2000/svg" xmlns:xlink="http://www.w3.org/1999/xlink">
    <!-- Generator: Sketch 53.1 (72631) - https://sketchapp.com -->
    <title>Combined Shape</title>
    <desc>Created with Sketch.</desc>
    <g id="Page-1" stroke="none" stroke-width="1" fill="none" fill-rule="evenodd">
        <g id="LUXURY-HOTEL-HOMEPAGE" transform="translate(-166.000000, -7015.000000)" fill="#58595A">
            <g id="Group-39" transform="translate(166.000000, 6814.000000)">
                <g id="Group-38-Copy-5" transform="translate(0.000000, 201.000000)">
                    <path d="M47.6694714,23.3064959 C48.3855079,23.0736976 49.1522731,23.005864 49.9112056,23.1177315 C51.2043912,23.3083485 52.368808,24.0050912 53.1480895,25.0545597 C53.3322411,25.2974595 53.3617256,25.6241185 53.2240445,25.8960671 C53.0863634,26.1680157 52.8056326,26.3376202 52.5008529,26.3329857 C52.2479033,26.3346978 52.0093655,26.2154288 51.8589654,26.0120419 C50.7646128,24.5400571 48.6853904,24.2314039 47.2106298,25.3220128 C46.9828969,25.5154033 46.6665732,25.5662449 46.3897096,25.4539564 C46.112846,25.3416679 45.9213014,25.0848483 45.8926151,24.787461 C45.8712139,24.5655984 45.9431,24.3485727 46.084922,24.1849104 C45.9711577,16.1458302 43.3071121,8.69958671 39.1870355,4.71207377 C37.7768948,3.35644882 36.2506944,2.4502467 34.6638012,2.03037873 C36.4740319,5.45624322 37.7130744,13.4818992 37.8347705,23.0074487 C38.5909628,22.7358281 39.409288,22.6507336 40.2187038,22.7700424 C41.5118893,22.9606594 42.6763062,23.6574021 43.4555877,24.7068706 C43.6342308,24.9517058 43.6607755,25.2759439 43.5243325,25.5465746 C43.3878896,25.8172053 43.111425,25.9886761 42.8083511,25.9906457 C42.5546515,25.9902415 42.3162994,25.8690792 42.1664635,25.6643528 C41.6409432,24.9570244 40.8559094,24.487488 39.9841318,24.3590789 C39.1443454,24.2353819 38.2903618,24.4380005 37.596695,24.9230165 C37.4462302,25.0669243 37.2454481,25.146904 37.0367123,25.1454937 L37.0313632,25.1454937 C36.5903129,25.1455036 36.2319441,24.7895239 36.2290038,24.3484834 C36.2290038,11.8905161 34.3514828,3.48713839 32.6237355,1.90916486 C32.5850927,1.86868825 32.5410051,1.8343851 32.4930334,1.80706088 C32.4011823,1.8039308 32.3130641,1.78575005 32.2311141,1.75487418 C32.203942,1.75049237 32.1771098,1.74472923 32.150713,1.73763619 C32.0878705,1.73196783 32.0268567,1.71901338 31.9686162,1.6995608 C31.8524353,1.72015531 31.7460099,1.77866898 31.6662532,1.86637235 C29.990833,3.3768281 28.1812702,11.2267654 27.9948077,22.9455102 C28.7443801,22.6805826 29.5540682,22.5984889 30.3550319,22.7165518 C31.6482175,22.9071687 32.8126344,23.6039115 33.5919158,24.65338 C33.85356,25.0100501 33.7796359,25.510826 33.4260949,25.7766832 C33.2883675,25.8785336 33.1213204,25.9329647 32.9500283,25.931806 C32.695796,25.9326485 32.456004,25.8137434 32.3027917,25.6108622 C31.2157789,24.14875 29.1570629,23.8344167 27.6842106,24.8990779 C27.6699994,24.9107033 27.6553849,24.9218538 27.6403913,24.9325051 C27.4138172,25.1162326 27.1047443,25.1627716 26.8335359,25.0527767 C26.5566723,24.9404881 26.3651278,24.6836686 26.3364414,24.3862813 C26.3245697,24.263209 26.3414041,24.1416252 26.3829586,24.0298131 C26.4582413,13.9608757 27.7685492,5.42257324 29.683454,1.91309832 C28.079531,2.32175351 26.5192276,3.20838678 25.092255,4.57299814 C21.0298125,8.41891458 18.3983606,15.5739971 18.1412952,23.3565118 C20.1059507,22.7045677 22.3486064,23.3428067 23.6533571,25.0920031 C23.8249044,25.3350946 23.8489198,25.6528129 23.715862,25.9189286 C23.5828041,26.1850443 23.3142202,26.356463 23.0168186,26.3650801 C22.7627008,26.3664289 22.5235972,26.2448846 22.3749311,26.0387872 C21.2769692,24.5679067 19.1963227,24.2617886 17.7212464,25.3541072 C17.3678597,25.5818595 16.8985936,25.4982111 16.6456674,25.1623813 C16.4707066,24.9300722 16.4403128,24.6315903 16.5429586,24.3780405 C16.5326203,24.3246483 16.5276645,24.2699577 16.5284054,24.2147568 C16.6407358,15.549275 19.4329466,7.77173771 23.9903481,3.41225151 C24.3513908,3.06655509 24.7210929,2.7464707 25.0982572,2.45245872 C21.4734346,3.46470343 18.1174676,5.35946404 15.35131,8.01185783 C11.1612932,12.0295518 8.65129224,17.4723004 8.30177254,23.243831 C10.2785455,22.5624365 12.5499288,23.1971849 13.8645722,24.9636256 C14.1262163,25.3202958 14.0522923,25.8210717 13.6987512,26.0869288 C13.5564521,26.1917739 13.3833381,26.2463425 13.2066374,26.2420516 C12.9536878,26.2437637 12.71515,26.1244948 12.5647499,25.9211079 C11.4703974,24.4491231 9.39117489,24.1404698 7.9164143,25.2310788 C7.6902149,25.4396011 7.36470136,25.5004247 7.07846678,25.3876527 C6.79223221,25.2748808 6.5956823,25.0083725 6.57250163,24.7015983 C6.56007978,24.537207 6.59861441,24.3767661 6.6779982,24.2394731 C6.67550051,24.2100511 6.67462873,24.180374 6.67543172,24.1505681 C6.95038453,10.5448823 18.1995156,-0.263669745 31.8053289,0.00489849276 C31.9186123,0.00489849444 32.0264124,0.0283753264 32.1241292,0.0707290662 C32.1562358,0.0786508665 32.1875608,0.0884972106 32.2179793,0.100135509 C32.2491882,0.10581513 32.2797073,0.113262295 32.3094411,0.122361757 C32.4287393,0.123375884 32.5469985,0.135055827 32.6629062,0.156910612 C32.9791452,0.159259982 33.2939367,0.177096432 33.6069531,0.210256061 C46.7009855,0.589424871 57.3082431,11.2009213 57.5503682,24.4287193 C57.556337,24.8727666 57.2027074,25.2383431 56.7587069,25.2471259 L56.7480088,25.2471259 C56.3098948,25.2501057 55.9515201,24.8988985 55.9456494,24.4608137 C55.7528381,14.1268854 48.797394,5.50129025 39.3728,2.73537523 C39.6869446,2.99078629 39.9960521,3.26463357 40.2996406,3.55667621 C44.6576611,7.75063006 47.3890434,15.0750026 47.6694714,23.3064959 Z M33.2228305,48.2320489 C32.78179,48.2291085 32.4258103,47.8707398 32.4258201,47.4296895 L32.4258201,27.7611855 C32.4258201,27.3180546 32.7850487,26.958826 33.2281796,26.958826 C33.6713104,26.958826 34.030539,27.3180546 34.030539,27.7611855 L34.030539,47.4296895 C34.0275986,47.8736842 33.666835,48.2320586 33.2228305,48.2320489 Z M29.6389584,48.3015867 C29.1958275,48.3015867 28.836599,47.9423582 28.836599,47.4992273 L28.836599,27.7611855 C28.836599,27.3180546 29.1958275,26.958826 29.6389584,26.958826 C30.0820893,26.958826 30.4413178,27.3180546 30.4413178,27.7611855 L30.4413178,47.4992273 C30.4413178,47.9423582 30.0820893,48.3015867 29.6389584,48.3015867 Z M4.65883504,59.9999871 C3.3670439,60.0015211 2.17659316,59.3005327 1.55132276,58.1701506 C0.926052356,57.0397685 0.964874105,55.6588085 1.65266174,54.5653393 L8.32294307,43.9367514 C8.55927954,43.5615673 9.05501494,43.449009 9.43019908,43.6853455 C9.80538322,43.921682 9.9179415,44.4174174 9.68160503,44.7926015 L3.01132369,55.4158403 C2.43968489,56.3272127 2.71509345,57.5294309 3.62646593,58.1010698 C4.53783842,58.6727086 5.74005662,58.3973 6.31169545,57.4859276 L12.998024,46.8252454 C13.2339708,46.4530745 13.7259103,46.3408359 14.0999309,46.5738394 L29.9706003,56.3840206 C30.5401099,56.7384052 31.2524607,56.7728085 31.8534704,56.4749547 L41.1287454,51.8908079 C41.31923,51.7977932 41.5393423,51.7862084 41.7385385,51.8587135 L57.5557173,57.2398707 C57.7589139,57.3095485 57.9720987,57.3456815 58.1869067,57.3468519 C58.8520242,57.3426588 59.4687136,56.9983146 59.8212322,56.4342849 C60.1737508,55.8702551 60.2130389,55.1650351 59.9253521,54.5653393 C59.7007871,54.0998424 59.2975981,53.7448818 58.807398,53.5811117 L41.9204066,47.8041239 C41.4294963,47.6398031 40.893744,47.6743678 40.4280181,47.900407 L31.4950832,52.3133838 C31.2451788,52.4366129 30.9490641,52.4203874 30.71412,52.2705913 L4.58929722,36.0201385 C3.91976124,35.6087527 3.06856105,35.6401688 2.43117218,36.0997905 C1.79378332,36.5594122 1.49516497,37.3571313 1.67405799,38.1223202 C1.79137788,38.6242614 2.10556938,39.0579614 2.54595523,39.3258593 C2.79056785,39.4768311 2.9360567,39.7468342 2.92761755,40.0341608 C2.91917841,40.3214875 2.75809336,40.5824861 2.50504159,40.7188409 C2.25198982,40.8551957 1.94541592,40.8461912 1.7008033,40.6952194 C0.892079996,40.2029635 0.314157113,39.4073563 0.096084455,38.4860564 C-0.355417913,36.5747648 0.827441407,34.6592031 2.73852149,34.2068062 C3.65294333,33.9931568 4.61477288,34.1508968 5.4130529,34.6454293 L31.1634413,50.6926178 L39.7219418,46.4775563 C40.56963,46.0641178 41.5463973,46.0025891 42.4392657,46.3063863 L59.3316061,52.072676 C60.2229252,52.3757145 60.9571795,53.0207129 61.3725696,53.8655401 C61.7879597,54.7103673 61.8503953,55.6856899 61.5461181,56.5765869 C61.0564598,58.0148338 59.7062216,58.9823612 58.1869067,58.9836652 C57.7955003,58.9840662 57.4067849,58.918979 57.0368582,58.7910989 L41.524576,53.5008758 L32.5488486,57.9298998 C31.4513083,58.4754039 30.149374,58.4126357 29.1094012,57.7640788 L13.9234118,48.3550773 L7.67035741,58.3417776 C7.0194369,59.3766459 5.88138935,60.0032795 4.65883504,59.9999871 Z" id="Combined-Shape"></path>
                </g>
            </g>
        </g>
    </g>
</svg>