<?xml version="1.0" encoding="UTF-8"?>
<svg width="68px" height="60px" viewBox="0 0 68 60" version="1.1" xmlns="http://www.w3.org/2000/svg" xmlns:xlink="http://www.w3.org/1999/xlink">
    <!-- Generator: Sketch 53.1 (72631) - https://sketchapp.com -->
    <title>Combined Shape</title>
    <desc>Created with Sketch.</desc>
    <g id="Page-1" stroke="none" stroke-width="1" fill="none" fill-rule="evenodd">
        <g id="LUXURY-HOTEL-HOMEPAGE" transform="translate(-1046.000000, -6814.000000)" fill="#58595A">
            <g id="Group-39" transform="translate(166.000000, 6814.000000)">
                <g id="Group-38-Copy-2" transform="translate(880.000000, 0.000000)">
                    <g id="Asset-3">
                        <path d="M40.9615385,32.0192308 C40.4835997,32.0192308 40.0961538,31.6317849 40.0961538,31.1538462 L40.0961538,5.89038462 C40.0833587,2.65667043 42.6894139,0.0222324801 45.9230769,0 C49.0384615,0 51.6346154,2.79807692 51.6346154,6.11538462 C51.6346154,6.59332334 51.2471695,6.98076923 50.7692308,6.98076923 C50.291292,6.98076923 49.9038462,6.59332334 49.9038462,6.11538462 C49.9038462,3.73846154 48.0807692,1.73076923 45.9230769,1.73076923 C43.6439524,1.74981258 41.8109273,3.61123665 41.8269231,5.89038462 L41.8269231,31.1538462 C41.8269231,31.6317849 41.4394772,32.0192308 40.9615385,32.0192308 Z M26.5384615,32.0192308 C26.0605228,32.0192308 25.6730769,31.6317849 25.6730769,31.1538462 L25.6730769,5.89038462 C25.6295776,4.34919582 26.2091304,2.85553075 27.280736,1.74701072 C28.3523415,0.638490692 29.8255297,0.00870227496 31.3673077,0 C34.5346154,0 37.2115385,2.79807692 37.2115385,6.11538462 C37.2115385,6.59332334 36.8240926,6.98076923 36.3461538,6.98076923 C35.8682151,6.98076923 35.4807692,6.59332334 35.4807692,6.11538462 C35.4807692,3.80769231 33.5596154,1.73076923 31.3673077,1.73076923 C30.2879833,1.7503259 29.2614152,2.20118585 28.516742,2.98271339 C27.7720687,3.76424093 27.3712839,4.81137431 27.4038462,5.89038462 L27.4038462,31.1538462 C27.4038462,31.3833604 27.312672,31.6034744 27.1503809,31.7657655 C26.9880898,31.9280566 26.7679758,32.0192308 26.5384615,32.0192308 Z M37.7884615,18.4615385 L29.1346154,18.4615385 C28.6566767,18.4615385 28.2692308,18.0740926 28.2692308,17.5961538 C28.2692308,17.1182151 28.6566767,16.7307692 29.1346154,16.7307692 L37.7884615,16.7307692 C38.2664003,16.7307692 38.6538462,17.1182151 38.6538462,17.5961538 C38.6538462,18.0740926 38.2664003,18.4615385 37.7884615,18.4615385 Z M37.7884615,23.6538462 L29.1346154,23.6538462 C28.6566767,23.6538462 28.2692308,23.2664003 28.2692308,22.7884615 C28.2692308,22.3105228 28.6566767,21.9230769 29.1346154,21.9230769 L37.7884615,21.9230769 C38.2664003,21.9230769 38.6538462,22.3105228 38.6538462,22.7884615 C38.6538462,23.2664003 38.2664003,23.6538462 37.7884615,23.6538462 Z M37.7884615,29.4230769 L29.1346154,29.4230769 C28.6566767,29.4230769 28.2692308,29.035631 28.2692308,28.5576923 C28.2692308,28.0797536 28.6566767,27.6923077 29.1346154,27.6923077 L37.7884615,27.6923077 C38.2664003,27.6923077 38.6538462,28.0797536 38.6538462,28.5576923 C38.6538462,29.035631 38.2664003,29.4230769 37.7884615,29.4230769 Z M62.3076923,55.9615385 L6.34615385,55.9615385 C5.108051,56.0239739 3.9195181,55.4686049 3.17307692,54.4788462 C2.49040324,53.4551456 2.35246494,52.1619741 2.80384615,51.0173077 L12.3,23.4403846 C13.2895755,20.8735707 15.7125462,19.1425532 18.4615385,19.0384615 L22.7884615,19.0384615 C23.2664003,19.0384615 23.6538462,19.4259074 23.6538462,19.9038462 C23.6538462,20.3817849 23.2664003,20.7692308 22.7884615,20.7692308 L18.4615385,20.7692308 C16.4501762,20.8771924 14.6827314,22.1386892 13.9269231,24.0057692 L4.44230769,51.5596154 C4.17279753,52.1823606 4.2244938,52.8974923 4.58076923,53.475 C5.00982958,54.0009933 5.66939975,54.2833583 6.34615385,54.2307692 L62.3076923,54.2307692 C62.9911338,54.3286499 63.6720752,54.037005 64.0727962,53.4747812 C64.4735172,52.9125575 64.5270412,52.1737252 64.2115385,51.5596154 L54.7153846,24.0057692 C53.9613351,22.142314 52.1994055,20.8815455 50.1923077,20.7692308 L44.7115385,20.7692308 C44.2335997,20.7692308 43.8461538,20.3817849 43.8461538,19.9038462 C43.8461538,19.4259074 44.2335997,19.0384615 44.7115385,19.0384615 L50.1923077,19.0384615 C52.9455576,19.1380223 55.3741655,20.869824 56.3653846,23.4403846 L65.8615385,50.9942308 C66.3605664,52.1418288 66.2203299,53.4671762 65.492184,54.4849256 C64.7640382,55.5026749 63.5549499,56.0633155 62.3076923,55.9615385 Z M57.6923077,44.4230769 C56.1230769,44.4230769 55.3384615,43.4423077 54.7096154,42.6576923 C54.0807692,41.8730769 53.7807692,41.5384615 53.0769231,41.5384615 C52.3730769,41.5384615 52.0326923,41.9192308 51.4442308,42.6576923 C50.8557692,43.3961538 50.0307692,44.4230769 48.4615385,44.4230769 C46.8923077,44.4230769 46.1076923,43.4423077 45.4788462,42.6576923 C44.85,41.8730769 44.55,41.5384615 43.8461538,41.5384615 C43.1423077,41.5384615 42.8019231,41.9192308 42.2192308,42.6576923 C41.6365385,43.3961538 40.8057692,44.4230769 39.2307692,44.4230769 C37.6557692,44.4230769 36.8826923,43.4423077 36.2480769,42.6576923 C35.6134615,41.8730769 35.325,41.5384615 34.6153846,41.5384615 C33.9057692,41.5384615 33.5711538,41.9192308 32.9826923,42.6576923 C32.3942308,43.3961538 31.5692308,44.4230769 30,44.4230769 C28.4307692,44.4230769 27.6461538,43.4423077 27.0173077,42.6576923 C26.3884615,41.8730769 26.0884615,41.5384615 25.3846154,41.5384615 C24.6807692,41.5384615 24.3403846,41.9192308 23.7519231,42.6576923 C23.1634615,43.3961538 22.3384615,44.4230769 20.7692308,44.4230769 C19.2,44.4230769 18.4153846,43.4423077 17.7865385,42.6576923 C17.1576923,41.8730769 16.8576923,41.5384615 16.1538462,41.5384615 C15.45,41.5384615 15.1096154,41.9192308 14.5211538,42.6576923 C13.9326923,43.3961538 13.1076923,44.4230769 11.5384615,44.4230769 C11.0605228,44.4230769 10.6730769,44.035631 10.6730769,43.5576923 C10.6730769,43.0797536 11.0605228,42.6923077 11.5384615,42.6923077 C12.2423077,42.6923077 12.5826923,42.3115385 13.1711538,41.5730769 C13.7596154,40.8346154 14.5846154,39.8076923 16.1538462,39.8076923 C17.7230769,39.8076923 18.5076923,40.7884615 19.1365385,41.5730769 C19.7653846,42.3576923 20.0653846,42.6923077 20.7692308,42.6923077 C21.4730769,42.6923077 21.8134615,42.3115385 22.4019231,41.5730769 C22.9903846,40.8346154 23.8153846,39.8076923 25.3846154,39.8076923 C26.9538462,39.8076923 27.7384615,40.7884615 28.3673077,41.5730769 C28.9961538,42.3576923 29.2961538,42.6923077 30,42.6923077 C30.7038462,42.6923077 31.0442308,42.3115385 31.6326923,41.5730769 C32.2211538,40.8346154 33.0519231,39.8076923 34.6153846,39.8076923 C36.1788462,39.8076923 36.9692308,40.7884615 37.5980769,41.5730769 C38.2269231,42.3576923 38.5269231,42.6923077 39.2307692,42.6923077 C39.9346154,42.6923077 40.2807692,42.3115385 40.8634615,41.5730769 C41.4461538,40.8346154 42.2769231,39.8076923 43.8461538,39.8076923 C45.4153846,39.8076923 46.2,40.7884615 46.8288462,41.5730769 C47.4576923,42.3576923 47.7576923,42.6923077 48.4615385,42.6923077 C49.1653846,42.6923077 49.5057692,42.3115385 50.0942308,41.5730769 C50.6826923,40.8346154 51.5076923,39.8076923 53.0769231,39.8076923 C54.6461538,39.8076923 55.4307692,40.7884615 56.0596154,41.5730769 C56.6884615,42.3576923 56.9884615,42.6923077 57.6923077,42.6923077 C58.1702464,42.6923077 58.5576923,43.0797536 58.5576923,43.5576923 C58.5576923,44.035631 58.1702464,44.4230769 57.6923077,44.4230769 Z M53.0769231,37.5 C51.5076923,37.5 50.7230769,36.5192308 50.0942308,35.7346154 C49.4653846,34.95 49.1653846,34.6153846 48.4615385,34.6153846 C47.7576923,34.6153846 47.4173077,34.9961538 46.8288462,35.7346154 C46.2403846,36.4730769 45.4211538,37.5 43.8461538,37.5 C42.2711538,37.5 41.4980769,36.5192308 40.8692308,35.7346154 C40.2403846,34.95 39.9403846,34.6153846 39.2307692,34.6153846 C38.5211538,34.6153846 38.1807692,34.9961538 37.5923077,35.7346154 C37.0038462,36.4730769 36.1846154,37.5 34.6153846,37.5 C33.0461538,37.5 32.2615385,36.5192308 31.6326923,35.7346154 C31.0038462,34.95 30.7038462,34.6153846 30,34.6153846 C29.2961538,34.6153846 28.9557692,34.9961538 28.3673077,35.7346154 C27.7788462,36.4730769 26.9538462,37.5 25.3846154,37.5 C23.8153846,37.5 23.0307692,36.5192308 22.4019231,35.7346154 C21.7730769,34.95 21.4730769,34.6153846 20.7692308,34.6153846 C20.0653846,34.6153846 19.725,34.9961538 19.1365385,35.7346154 C18.5480769,36.4730769 17.7230769,37.5 16.1538462,37.5 C15.6759074,37.5 15.2884615,37.1125541 15.2884615,36.6346154 C15.2884615,36.1566767 15.6759074,35.7692308 16.1538462,35.7692308 C16.8576923,35.7692308 17.1980769,35.3884615 17.7865385,34.65 C18.375,33.9115385 19.2,32.8846154 20.7692308,32.8846154 C22.3384615,32.8846154 23.1230769,33.8653846 23.7519231,34.65 C24.3807692,35.4346154 24.6807692,35.7692308 25.3846154,35.7692308 C26.0884615,35.7692308 26.4288462,35.3884615 27.0173077,34.65 C27.6057692,33.9115385 28.4307692,32.8846154 30,32.8846154 C31.5692308,32.8846154 32.3538462,33.8653846 32.9826923,34.65 C33.6115385,35.4346154 33.9115385,35.7692308 34.6153846,35.7692308 C35.3192308,35.7692308 35.6596154,35.3884615 36.2480769,34.65 C36.8365385,33.9115385 37.6615385,32.8846154 39.2307692,32.8846154 C40.8,32.8846154 41.5846154,33.8653846 42.2134615,34.65 C42.8423077,35.4346154 43.1423077,35.7692308 43.8461538,35.7692308 C44.55,35.7692308 44.8903846,35.3884615 45.4788462,34.65 C46.0673077,33.9115385 46.8923077,32.8846154 48.4615385,32.8846154 C50.0307692,32.8846154 50.8153846,33.8653846 51.4442308,34.65 C52.0730769,35.4346154 52.3730769,35.7692308 53.0769231,35.7692308 C53.5548618,35.7692308 53.9423077,36.1566767 53.9423077,36.6346154 C53.9423077,37.1125541 53.5548618,37.5 53.0769231,37.5 Z M62.3076923,51.9230769 C60.7384615,51.9230769 59.9538462,50.9423077 59.325,50.1576923 C58.6961538,49.3730769 58.3961538,49.0384615 57.6923077,49.0384615 C56.9884615,49.0384615 56.6480769,49.4192308 56.0596154,50.1576923 C55.4711538,50.8961538 54.6461538,51.9230769 53.0769231,51.9230769 C51.5076923,51.9230769 50.7230769,50.9423077 50.0942308,50.1576923 C49.4653846,49.3730769 49.1653846,49.0384615 48.4615385,49.0384615 C47.7576923,49.0384615 47.4173077,49.4192308 46.8288462,50.1576923 C46.2403846,50.8961538 45.4153846,51.9230769 43.8461538,51.9230769 C42.2769231,51.9230769 41.4923077,50.9423077 40.8634615,50.1576923 C40.2346154,49.3730769 39.9403846,49.0384615 39.2307692,49.0384615 C38.5211538,49.0384615 38.1865385,49.4192308 37.6038462,50.1576923 C37.0211538,50.8961538 36.1903846,51.9230769 34.6153846,51.9230769 C33.0403846,51.9230769 32.2615385,50.9423077 31.6269231,50.1576923 C30.9923077,49.3730769 30.7096154,49.0384615 30,49.0384615 C29.2903846,49.0384615 28.9557692,49.4192308 28.3673077,50.1576923 C27.7788462,50.8961538 26.9538462,51.9230769 25.3846154,51.9230769 C23.8153846,51.9230769 23.0307692,50.9423077 22.4019231,50.1576923 C21.7730769,49.3730769 21.4730769,49.0384615 20.7692308,49.0384615 C20.0653846,49.0384615 19.725,49.4192308 19.1365385,50.1576923 C18.5480769,50.8961538 17.7230769,51.9230769 16.1538462,51.9230769 C14.5846154,51.9230769 13.8,50.9423077 13.1711538,50.1576923 C12.5423077,49.3730769 12.2423077,49.0384615 11.5384615,49.0384615 C10.8346154,49.0384615 10.4942308,49.4192308 9.90576923,50.1576923 C9.31730769,50.8961538 8.49230769,51.9230769 6.92307692,51.9230769 C6.4451382,51.9230769 6.05769231,51.535631 6.05769231,51.0576923 C6.05769231,50.5797536 6.4451382,50.1923077 6.92307692,50.1923077 C7.62692308,50.1923077 7.96730769,49.8115385 8.55576923,49.0730769 C9.14423077,48.3346154 9.96923077,47.3076923 11.5384615,47.3076923 C13.1076923,47.3076923 13.8923077,48.2884615 14.5211538,49.0730769 C15.15,49.8576923 15.45,50.1923077 16.1538462,50.1923077 C16.8576923,50.1923077 17.1980769,49.8115385 17.7865385,49.0730769 C18.375,48.3346154 19.2,47.3076923 20.7692308,47.3076923 C22.3384615,47.3076923 23.1230769,48.2884615 23.7519231,49.0730769 C24.3807692,49.8576923 24.6807692,50.1923077 25.3846154,50.1923077 C26.0884615,50.1923077 26.4288462,49.8115385 27.0173077,49.0730769 C27.6057692,48.3346154 28.4365385,47.3076923 30,47.3076923 C31.5634615,47.3076923 32.3538462,48.2884615 32.9826923,49.0730769 C33.6115385,49.8576923 33.9115385,50.1923077 34.6153846,50.1923077 C35.3192308,50.1923077 35.6596154,49.8115385 36.2423077,49.0730769 C36.825,48.3346154 37.6615385,47.3076923 39.2307692,47.3076923 C40.8,47.3076923 41.5846154,48.2884615 42.2134615,49.0730769 C42.8423077,49.8576923 43.1423077,50.1923077 43.8461538,50.1923077 C44.55,50.1923077 44.8903846,49.8115385 45.4788462,49.0730769 C46.0673077,48.3346154 46.8923077,47.3076923 48.4615385,47.3076923 C50.0307692,47.3076923 50.8153846,48.2884615 51.4442308,49.0730769 C52.0730769,49.8576923 52.3730769,50.1923077 53.0769231,50.1923077 C53.7807692,50.1923077 54.1211538,49.8115385 54.7096154,49.0730769 C55.2980769,48.3346154 56.1230769,47.3076923 57.6923077,47.3076923 C59.2615385,47.3076923 60.0461538,48.2884615 60.675,49.0730769 C61.3038462,49.8576923 61.6038462,50.1923077 62.3076923,50.1923077 C62.785631,50.1923077 63.1730769,50.5797536 63.1730769,51.0576923 C63.1730769,51.535631 62.785631,51.9230769 62.3076923,51.9230769 Z M66.6346154,60 L0.865384615,60 C0.38744589,60 5.85306131e-17,59.6125541 0,59.1346154 C-5.85306131e-17,58.6566767 0.38744589,58.2692308 0.865384615,58.2692308 L66.6346154,58.2692308 C67.1125541,58.2692308 67.5,58.6566767 67.5,59.1346154 C67.5,59.6125541 67.1125541,60 66.6346154,60 Z" id="Combined-Shape"></path>
                    </g>
                </g>
            </g>
        </g>
    </g>
</svg>