<?xml version="1.0" encoding="UTF-8"?>
<svg width="60px" height="60px" viewBox="0 0 60 60" version="1.1" xmlns="http://www.w3.org/2000/svg" xmlns:xlink="http://www.w3.org/1999/xlink">
    <!-- Generator: Sketch 53.1 (72631) - https://sketchapp.com -->
    <title>Combined Shape</title>
    <desc>Created with Sketch.</desc>
    <g id="Page-1" stroke="none" stroke-width="1" fill="none" fill-rule="evenodd">
        <g id="LUXURY-HOTEL-HOMEPAGE" transform="translate(-166.000000, -6814.000000)" fill="#58595A">
            <g id="Group-39" transform="translate(166.000000, 6814.000000)">
                <g id="Group-38">
                    <path d="M38.9193952,49.6513276 L41.6438626,40.0672569 L38.6492227,40.0672569 C38.2093499,40.0672569 37.8527625,39.7106695 37.8527625,39.2707967 C37.8527625,38.8309239 38.2093499,38.4743365 38.6492227,38.4743365 L42.0966827,38.4743365 L42.6793112,36.424779 C42.7570876,36.1506646 42.9751942,35.9388657 43.2514724,35.8691648 C43.5277507,35.7994639 43.8202272,35.8824504 44.0187291,36.0868639 C44.2172309,36.2912774 44.2916008,36.5860628 44.2138244,36.8601772 L43.7549668,38.4743365 L47.7872758,38.4743365 C48.2271486,38.4743365 48.5837359,38.8309239 48.5837359,39.2707967 C48.5837359,39.7106695 48.2271486,40.0672569 47.7872758,40.0672569 L43.3021467,40.0672569 L40.5776793,49.6513276 L48.90232,49.6513276 C49.3421928,49.6513277 49.6987801,50.007915 49.6987801,50.4477878 C49.6987801,50.8876606 49.3421928,51.244248 48.90232,51.244248 L40.1248593,51.244248 L39.4350634,53.6707967 C39.326053,54.0098708 39.0051751,54.2353525 38.6492227,54.2230091 C38.5768829,54.2311191 38.5038633,54.2311191 38.4315235,54.2230091 C38.0154851,54.0928854 37.7796361,53.6542063 37.9005501,53.2353984 L38.4665752,51.244248 L16.9924385,51.244248 L15.7801961,53.7716816 C15.6458748,54.0480838 15.3653835,54.2233908 15.0580722,54.2230091 C14.940667,54.2239271 14.8245481,54.1985261 14.7182492,54.1486728 C14.3230722,53.9575723 14.1550335,53.4842239 14.3412581,53.0867259 L15.2249726,51.244248 L12.0846209,51.244248 C11.6447481,51.244248 11.2881607,50.8876606 11.2881607,50.4477878 C11.2881607,50.007915 11.6447481,49.6513276 12.0846209,49.6513276 L15.9889909,49.6513276 L20.5858345,40.0672569 L15.063382,40.0672569 C14.6235091,40.0672569 14.2669218,39.7106695 14.2669218,39.2707967 C14.2669218,38.8309239 14.6235091,38.4743365 15.063382,38.4743365 L21.3498528,38.4743365 L22.4067448,36.2707967 C22.5291003,36.0137551 22.7792916,35.8415149 23.0630738,35.8189571 C23.3468561,35.7963994 23.6211162,35.9269512 23.7825429,36.161435 C23.9439696,36.3959188 23.9680384,36.6987109 23.8456828,36.9557524 L23.1173187,38.4743365 L25.3695766,38.4743365 C25.8094495,38.4743365 26.1660368,38.8309239 26.1660368,39.2707967 C26.1660368,39.7106695 25.8094495,40.0672569 25.3695766,40.0672569 L22.3533004,40.0672569 L17.7564568,49.6513276 L38.9193952,49.6513276 Z M59.203205,59.2460179 L0.796125315,59.2460179 C0.52189016,59.2482773 0.266313968,59.1074085 0.121789032,58.8743365 C-0.0238935831,58.6401603 -0.0399129425,58.3478069 0.0793111557,58.0991153 L13.6403731,30.4884958 C13.7767382,30.2300108 14.0437167,30.0669705 14.3359483,30.063717 L20.6386032,30.063717 C21.078476,30.063717 21.4350634,30.4203044 21.4350634,30.8601772 C21.4350634,31.30005 21.078476,31.6566374 20.6386032,31.6566374 L14.8669218,31.6566374 L2.09170054,57.6743365 L58.0669218,57.6743365 L48.5731165,31.6566374 L43.1147094,31.6566374 C42.6748366,31.6566374 42.3182492,31.30005 42.3182492,30.8601772 C42.3182492,30.4203044 42.6748366,30.063717 43.1147094,30.063717 L49.1306386,30.063717 C49.4673434,30.0646633 49.7670771,30.2772404 49.8793112,30.5946905 L59.9678067,58.2053099 C60.0571027,58.4487964 60.021393,58.7205873 59.8722315,58.9327436 C59.7140647,59.1405315 59.4640857,59.2575851 59.203205,59.2460179 Z M31.8952404,47.5858409 C31.6026748,47.5837545 31.3351445,47.4203772 31.1996651,47.1610622 C30.4722315,45.764602 29.7394881,44.3787613 29.0173643,43.00354 C23.1076297,31.8159294 17.521789,21.2654869 17.521789,14.3628321 C17.521789,9.23148642 20.2593292,4.48992748 24.7032049,1.92425463 C29.1470806,-0.641418211 34.6221612,-0.641418211 39.0660369,1.92425463 C43.5099126,4.48992748 46.2474528,9.23148642 46.2474527,14.3628321 C46.2474527,21.7327436 40.5872758,32.6017701 32.5908156,47.1557524 C32.455878,47.4162939 32.1886199,47.5815451 31.8952404,47.5858409 Z M31.8952404,1.61946924 C24.8500309,1.61651915 19.1322779,7.31764385 19.1147094,14.3628321 C19.1147094,20.8300887 24.5943554,31.2318586 30.3978952,42.2389383 C30.8970103,43.184071 31.3961253,44.1292038 31.8952404,45.084956 C38.0173643,33.9345135 44.6386032,21.6106197 44.6386032,14.3628321 C44.621092,7.33213325 38.9259392,1.6369804 31.8952404,1.61946924 Z M31.9908156,20.7716816 C28.398521,20.7716816 25.4863908,17.8595515 25.4863908,14.2672569 C25.4863908,10.6749622 28.398521,7.76283207 31.9908156,7.76283207 C35.5831102,7.76283207 38.4952404,10.6749622 38.4952404,14.2672569 C38.4923124,17.858338 35.5818967,20.7687537 31.9908156,20.7716816 Z M31.9908156,9.35575243 C29.2782666,9.35575243 27.0793112,11.5547079 27.0793112,14.2672569 C27.0793112,16.9798058 29.2782666,19.1787613 31.9908156,19.1787613 C34.7033646,19.1787613 36.90232,16.9798058 36.90232,14.2672569 C36.8993936,11.555921 34.7021515,9.35867886 31.9908156,9.35575243 Z" id="Combined-Shape"></path>
                </g>
            </g>
        </g>
    </g>
</svg>