<?xml version="1.0" encoding="UTF-8"?>
<svg width="67px" height="60px" viewBox="0 0 67 60" version="1.1" xmlns="http://www.w3.org/2000/svg" xmlns:xlink="http://www.w3.org/1999/xlink">
    <!-- Generator: Sketch 53.1 (72631) - https://sketchapp.com -->
    <title>Combined Shape</title>
    <desc>Created with Sketch.</desc>
    <g id="Page-1" stroke="none" stroke-width="1" fill="none" fill-rule="evenodd">
        <g id="LUXURY-HOTEL-HOMEPAGE" transform="translate(-606.000000, -7015.000000)" fill="#58595A">
            <g id="Group-39" transform="translate(166.000000, 6814.000000)">
                <g id="Group-38-Copy-4" transform="translate(440.000000, 201.000000)">
                    <path d="M4.73606616,17.2151763 L4.73606616,23.0434327 C4.73536147,23.2666302 4.64342921,23.4798348 4.4816077,23.6335598 C4.31663692,23.7840291 4.09820556,23.8620403 3.87523859,23.8501202 L3.76695839,23.8501202 C3.01895874,23.774711 2.29098917,24.1210571 1.87762707,24.7490076 C1.46426497,25.3769581 1.43394704,26.1825487 1.79894163,26.8397922 C2.16393621,27.4970357 2.86381438,27.8971181 3.61536612,27.8781436 C3.74031072,27.8053417 3.87822085,27.7575329 4.02141686,27.7373793 C4.44249238,27.6803989 4.83557554,27.9598195 4.9201425,28.3762325 C5.88383625,32.9673128 9.60326104,36.1778207 13.966953,36.1778207 L16.0892449,36.1778207 C16.5377561,36.1778207 16.9013464,36.5414109 16.9013464,36.9899222 C16.9013464,37.4384334 16.5377561,37.8020237 16.0892449,37.8020237 L16.1054869,37.8020237 L13.983195,37.8020237 C9.11058614,37.8020237 4.90931448,34.4236815 3.53956998,29.4969325 C1.65396634,29.4512234 0.118029975,27.9680649 0.00644298564,26.0852111 C-0.105144004,24.2023572 1.24485781,22.5481642 3.1118632,22.2800573 L3.1118632,17.136748 C3.1118632,17.0392958 3.06855112,16.6603151 3.02523904,16.2975764 C2.55963419,12.3236932 2.25103563,7.49439637 3.9889328,5.41541657 C4.20353061,5.1510123 4.56180568,5.05112956 4.88224443,5.16637212 C5.20307373,5.28145847 5.4188327,5.58352102 5.42364542,5.9243335 C5.45248316,6.6659153 5.70542964,7.38133853 6.14912274,7.97624324 C6.27774332,7.43030105 6.31433952,6.86671956 6.25740294,6.3087282 C6.00294447,3.51509911 6.69052373,1.56605555 8.42300689,0.180069022 C8.65268735,-0.00613672279 8.96583336,-0.0517659413 9.23910014,0.0611542154 C9.51236692,0.174074372 9.70195867,0.427446467 9.73319728,0.72147001 C9.79908711,1.94260334 10.0472682,3.14701178 10.4695026,4.29471653 C10.6894722,4.84296709 11.0192685,5.34042511 11.4386104,5.7564992 C11.7358582,4.0162835 12.8211121,2.51131813 14.3784178,1.67974976 C14.6671727,1.51790014 15.0252637,1.54750778 15.2835151,1.75458494 C15.5417665,1.96166209 15.648487,2.30476043 15.5532579,2.62178748 C15.2663154,3.58006722 15.071411,4.78739143 15.7048502,5.32879242 L20.2977004,5.32879242 C20.4647262,5.24521556 20.6585022,5.22029571 20.846397,5.26430146 C20.908959,5.27895373 20.968712,5.30074222 21.0247451,5.32879242 L23.1653558,5.32879242 C26.8966278,5.41181536 30.3058803,7.41631536 32.1982738,10.6039554 C33.0839172,10.7489155 33.3787458,10.633285 33.4682166,10.558726 C33.5656688,10.4775158 33.717261,9.94152883 33.8038852,9.41636987 C33.8363692,9.23229354 33.8688533,9.03738918 33.9067514,8.83165681 C33.9766132,8.47413422 34.2760012,8.20687585 34.6391294,8.17787603 C35.0022576,8.14887621 35.3402675,8.36523126 35.4659862,8.70713458 C35.9309836,10.0444522 36.0973041,11.4674164 35.9532471,12.8759222 C35.8432243,13.7269684 35.5066616,14.5328489 34.9787253,15.2093604 C35.3495415,15.0212208 35.6936493,14.7845329 36.0019732,14.5055392 C36.2717752,14.2469706 36.6832026,14.2058997 36.9987945,14.4060311 C37.3143863,14.6061625 37.4526644,14.9958272 37.3338196,15.3501247 C36.7924186,17.4399325 35.8449669,18.7284669 34.4589804,19.2915239 C34.2980538,19.3484587 34.1355463,19.4001079 33.9717195,19.4464333 L33.9717195,21.559994 C33.9717195,21.7753767 33.8861591,21.9819379 33.7338605,22.1342365 C33.5815619,22.2865351 33.3750007,22.3720955 33.159618,22.3720955 C32.7111068,22.3720955 32.3475165,22.0085053 32.3475165,21.559994 L32.3475165,19.7277058 C32.0363597,19.7487012 31.7236137,19.7513687 31.4108928,19.7354727 L30.5067532,19.7354727 C27.7663112,19.7397947 25.137428,18.6504354 23.2032539,16.7090412 C22.3778671,15.8836544 21.5832396,14.9785731 21.0012621,13.8815367 C19.3087142,17.3587671 15.7359315,19.7484632 11.6118587,19.7354727 C9.08426176,19.7445853 6.646467,18.8450565 4.73606616,17.2151763 Z M4.48606851,14.6523928 C4.56504997,14.7052776 4.63532206,14.7724195 4.69275408,14.8520358 C4.89207608,15.1003773 5.1053721,15.337172 5.33160725,15.5612711 C7.00709505,17.2058123 9.26416743,18.1222615 11.6118587,18.1112697 C15.7480036,18.1369345 19.2341265,15.2950499 20.1824122,11.4467932 C20.111962,11.0100412 20.0739561,10.5473286 20.0739561,10.055223 C20.0739561,9.77287946 20.218042,9.52418894 20.4366948,9.37867032 L20.4366948,8.93452299 C20.3999332,8.25336545 20.2848375,7.57942282 20.0941525,6.92592533 L15.4720477,6.92592533 C15.3338756,6.92448337 15.1981676,6.8891621 15.076825,6.82305914 C14.2136994,6.34031436 13.6777628,5.42984287 13.6745965,4.4408948 C13.2244058,5.08964772 12.9947388,5.86596011 13.0195013,6.65522483 C13.0632687,6.87901974 13.011575,7.11092419 12.876902,7.29494303 C12.742229,7.47896186 12.5368176,7.59836898 12.310266,7.6243326 C10.3449804,7.84630701 9.33797456,5.69153108 9.00771995,4.98770979 C8.69274905,4.26030337 8.47784118,3.4935558 8.36886679,2.70841163 C7.87002067,3.77902925 7.69681465,4.97264464 7.87077788,6.1408939 C7.94657402,6.94758137 7.99530011,8.93452299 6.7879759,9.93070081 C6.50566296,10.164116 6.10203353,10.1796402 5.80262611,9.96859888 C5.25806344,9.54045552 4.80824571,9.00399257 4.4816077,8.39312201 C4.14365875,10.2864504 4.31402729,12.8657012 4.48606851,14.6523928 Z M21.7682199,6.92592533 C21.9256927,7.58390621 22.0184595,8.25664101 22.0446557,8.93452299 L22.0446557,9.41095586 C22.0396145,10.1031319 21.9670535,10.7790724 21.833256,11.4325589 C22.169675,13.0668348 23.1084976,14.3004653 24.356438,15.5612711 C25.9815456,17.2017737 28.1976111,18.1205826 30.5067532,18.1112697 L30.9886001,18.1112697 C31.9556892,18.1899896 32.9288196,18.077776 33.8526113,17.7810151 C34.2309524,17.6314893 34.5619916,17.3827423 34.810891,17.0609518 C34.0822694,17.2776865 33.3291587,17.4013859 32.5694909,17.4291045 L32.3583446,17.4291045 C31.998567,17.4543314 31.6652566,17.2392558 31.5399939,16.9010465 C31.4147312,16.5628373 31.5275315,16.1825355 31.8169436,15.9673218 C33.2570702,14.8845198 34.1828659,13.9641382 34.3452862,12.7189159 C34.3767275,12.4512031 34.3911937,12.1817687 34.3885983,11.9122284 C33.8800588,12.264999 33.1931821,12.3735251 32.2065822,12.2476488 C32.0886657,12.3158176 31.9519873,12.3552047 31.8061155,12.3561772 C31.4983401,12.3575758 31.2158616,12.1859962 31.0752242,11.9122284 C29.3752251,8.78834473 26.4137617,6.92592533 23.1653558,6.92592533 L21.7682199,6.92592533 Z M47.2631137,41.1709337 L47.2631137,40.4657165 C47.2185892,39.407147 47.7237144,38.4057999 48.5895462,37.811201 L48.5895462,37.2606227 C48.5746251,31.889062 44.2159097,27.5424542 38.8443284,27.5424749 L35.6717186,27.5424749 C30.3158809,27.5851865 25.9647412,31.8787587 25.8507047,37.2335526 L25.8507047,37.8649613 C26.6701093,38.4650215 27.1445499,39.4384235 27.101341,40.4657165 L27.101341,42.9731404 C31.0074226,43.3894833 34.6530805,41.2366012 36.435094,37.5908773 C36.4534613,37.5618347 36.4733926,37.5343298 36.4947139,37.5084103 C36.5468073,37.4321698 36.6128759,37.3635767 36.6922595,37.3066418 C37.0570486,37.0450102 37.564863,37.1286359 37.8264945,37.4934251 C39.5408811,39.9235721 42.3238609,41.3755616 45.2978282,41.3915122 C45.9596665,41.3906371 46.6187506,41.3165266 47.2631137,41.1709337 Z M47.2631137,42.8316293 C46.6162607,42.9565317 45.9582457,43.0201335 45.2978282,43.0211292 C42.2202946,43.0065042 39.3157959,41.6846518 37.2872074,39.4217252 C35.329016,42.6199196 31.8502296,44.6287117 28.0433787,44.6778162 C27.6393449,44.6761388 27.2359168,44.6518493 26.8349806,44.6051266 C26.617176,45.0968062 26.2761499,45.5220226 25.8507047,45.8412877 L25.8507047,48.7978777 C25.9249792,54.1515924 30.3178272,58.4354668 35.6717186,58.3752612 L38.8443284,58.3752612 C44.1771725,58.4143265 48.5359714,54.1305958 48.5895462,48.7978777 L48.5895462,45.8965225 C47.7789709,45.3253522 47.2536886,44.3788516 47.2631137,43.3134857 L47.2631137,42.8316293 Z M48.8873167,42.0500264 L48.8873167,43.2539316 C48.872672,43.6294393 49.0105409,43.9949038 49.2695558,44.2671753 C49.5285707,44.5394469 49.8867044,44.695371 50.2624752,44.6994722 L50.2137491,45.5115737 L50.2137491,45.3816375 L50.2137491,44.6994722 C50.552499,44.7440975 50.8928758,44.6561017 51.1657652,44.458162 C51.2349013,44.3470275 51.3297755,44.2549289 51.4414052,44.1891767 C51.6413496,43.9272273 51.7381782,43.5977968 51.7080159,43.2647596 L51.7459139,40.4494745 C51.7532052,40.0690997 51.6068088,39.7018544 51.3398394,39.4308092 C51.2954999,39.3857927 51.2484566,39.3440615 51.1990879,39.3057731 C51.0254164,39.2777162 50.8678287,39.1944083 50.7477887,39.0715478 C50.612855,39.0301226 50.4712535,39.0087704 50.3274433,39.0093479 C49.9469331,39.0079093 49.5814363,39.1576881 49.3113596,39.4257342 C49.0412829,39.6937802 48.8887499,40.0581362 48.8873167,40.4386465 L48.8873167,41.5158874 C48.9388063,41.6637834 48.9474254,41.8261388 48.9073357,41.9834697 C48.9015797,42.006059 48.8948924,42.0282587 48.8873167,42.0500264 Z M36.3430558,25.8912019 C36.4500458,25.871942 36.558495,25.8723107 36.6634269,25.8912019 L38.8443284,25.8912019 C45.1129297,25.8911842 50.1988239,30.964969 50.2137491,37.2335526 L50.2137491,37.2746199 C50.5534703,37.2623236 50.8947819,37.3065032 51.2230742,37.4071586 C52.690979,36.0477553 55.586901,35.039343 57.7771209,36.2103048 C59.7153365,37.2552087 59.9427249,39.4099846 60.1213872,41.3157161 C60.3704317,43.7899186 60.6303041,45.3329114 62.741768,45.8797264 C63.3806211,46.0475607 63.9328502,46.1829109 64.7287096,43.6762244 C64.8323365,43.3470986 65.1326298,43.1193922 65.4775096,43.1084243 C65.8223893,43.0974564 66.1365442,43.305622 66.2608744,43.6274983 C66.8959563,45.284533 66.7589957,47.1384626 65.8873077,48.6841835 C64.8928182,50.4274109 63.171111,51.6347904 61.1933612,51.9759015 C60.6973363,52.0523985 60.1953371,52.0832072 59.6936804,52.0679397 C56.694319,52.0679397 53.7924097,50.4437367 52.9315821,48.1698526 C52.624047,47.4300319 52.2324665,46.7290859 51.7651673,46.080599 C51.3374499,46.3156713 50.8484145,46.453603 50.3274433,46.4644395 C50.2893706,46.463715 50.2514688,46.462312 50.2137491,46.460242 L50.2137491,48.7978777 C50.1601391,55.0276145 45.0741735,60.0385015 38.8443284,59.9994642 L35.6717186,59.9994642 C29.4208424,60.0596117 24.3008442,55.0486012 24.2265017,48.7978777 L24.2265017,46.4551591 C24.1638481,46.4601141 24.1006667,46.4632258 24.0370114,46.4644395 C23.7201204,46.4578601 23.4151316,46.4042833 23.1286088,46.3104701 C22.2741074,50.5478458 17.6169646,55.9664587 16.1054869,56.6644341 C15.9933336,56.7154619 15.8713734,56.7413323 15.7481623,56.7402302 C15.526311,56.7406146 15.3143683,56.6483803 15.1634492,56.4857717 C14.9213976,56.2378173 14.8647364,55.8629817 15.0226849,55.554562 C15.2446593,55.1322693 15.4395637,54.7262185 15.612812,54.3147538 C14.3046423,55.1652252 12.8264255,55.7195565 11.2816041,55.9389567 C8.49338902,56.3341795 5.71058794,55.6899123 3.83192651,54.2064736 C3.54200038,53.9778981 3.44273881,53.5825238 3.59031802,53.2441094 C3.73789724,52.9056949 4.09517442,52.7094127 4.45995166,52.766347 C6.63447251,53.1887843 8.85874912,52.3281134 10.1825601,50.5520169 C10.6319229,49.9564758 10.8376553,48.927814 11.0542157,47.7908719 C11.4440244,45.7768602 11.9258713,43.2647596 14.2159975,41.8679451 C16.7423743,40.3205393 18.8815485,39.9798526 20.9780958,40.8302225 L20.9780958,40.4657165 C20.9307972,39.3411928 21.5037738,38.2812442 22.4705201,37.7048829 C23.0093531,37.3836379 23.6221718,37.2414444 24.2265017,37.2783025 L24.2265017,37.2335526 C24.3349208,30.9748074 29.4122497,25.9431121 35.6717186,25.8912019 L36.3430558,25.8912019 Z M25.4298208,43.8049974 C25.4166531,43.7178307 25.4173395,43.6270515 25.4338259,43.5354601 C25.4549819,43.4179268 25.5000564,43.3107194 25.563132,43.21795 L25.5258641,40.4494745 C25.5053655,39.6501202 24.852866,39.0120141 24.0532534,39.0093479 L24.0370114,39.0093479 C23.6565011,39.0079093 23.2910044,39.1576881 23.0209276,39.4257342 C22.7508509,39.6937802 22.5983179,40.0581362 22.5968847,40.4386465 L22.5968847,41.8870421 C22.638699,41.9882505 22.6603083,42.0985348 22.6582304,42.2119141 C22.6563405,42.315031 22.6349644,42.4148715 22.5968847,42.5070353 L22.5968847,43.2539316 C22.6374096,44.066502 23.3100646,44.7033775 24.1236355,44.6994722 L24.2210877,45.5115737 L24.2210877,44.6994722 C24.7644781,44.6293954 25.2144136,44.2809892 25.4298208,43.8049974 Z M52.939027,44.9528462 C53.5615197,45.7792182 54.0743121,46.6840046 54.4637469,47.6446936 C55.1892242,49.6045652 58.1939997,50.8930995 60.8955906,50.3516986 C62.4000449,50.10726 63.7133911,49.1958774 64.4688371,47.872082 C64.6465153,47.5487271 64.784662,47.205178 64.8803019,46.8488342 C64.2118207,47.5110912 63.2249996,47.7357504 62.3357172,47.4281332 C59.0169292,46.5618916 58.7354007,43.7249505 58.5080123,41.4727224 C58.3347639,39.7618952 58.1885857,38.2784565 57.0083315,37.6450174 C55.6936509,36.9482366 53.7688613,37.4965039 52.6437073,38.3337195 C53.1457835,38.9150748 53.4196422,39.6744078 53.3863589,40.4657165 L53.3863589,43.3459698 C53.3854679,43.9333556 53.2223287,44.4832828 52.939027,44.9528462 Z M21.6321883,45.2543655 C21.2164054,44.7183147 20.9716098,44.0437847 20.9780958,43.3134857 L20.9780958,42.622079 C19.6021273,41.8599612 17.8896845,41.5253825 15.060583,43.2485176 C13.3876539,44.2771795 13.0086733,46.220809 12.6459346,48.1211265 C12.3914761,49.4259029 12.1532597,50.6602971 11.4819225,51.5536087 C10.5302342,52.8514514 9.17119161,53.7930602 7.62173343,54.2281296 C8.7471278,54.4767909 9.90832858,54.5189831 11.0488017,54.3526519 C13.2058713,54.1176916 15.1761956,53.0202464 16.5115376,51.3099783 C16.7249961,50.9984961 17.1259635,50.8767654 17.4765611,51.0170045 C17.8271587,51.1572435 18.0335622,51.5219226 17.9733203,51.8946914 C17.9245942,52.235774 17.8650401,52.5552006 17.800072,52.8637991 C19.5336044,50.6891905 21.5197841,47.5574369 21.6321883,45.2543655 Z M26.3921057,23.725598 L25.3093037,23.725598 C24.8607924,23.725598 24.4972022,23.3620078 24.4972022,22.9134965 C24.4972022,22.4649852 24.8607924,22.101395 25.3093037,22.101395 L26.3921057,22.101395 C26.8406169,22.101395 27.2042072,22.4649852 27.2042072,22.9134965 C27.2042072,23.3620078 26.8406169,23.725598 26.3921057,23.725598 Z M13.939883,23.725598 L12.31568,23.725598 C11.8671687,23.725598 11.5035785,23.3620078 11.5035785,22.9134965 C11.5035785,22.4649852 11.8671687,22.101395 12.31568,22.101395 L13.939883,22.101395 C14.3883942,22.101395 14.7519844,22.4649852 14.7519844,22.9134965 C14.7519844,23.3620078 14.3883942,23.725598 13.939883,23.725598 Z M44.7997393,46.4644395 L43.1755363,46.4644395 C42.727025,46.4644395 42.3634348,46.1008492 42.3634348,45.652338 C42.3634348,45.2038267 42.727025,44.8402365 43.1755363,44.8402365 L44.7997393,44.8402365 C45.2482505,44.8402365 45.6118407,45.2038267 45.6118407,45.652338 C45.6118407,46.1008492 45.2482505,46.4644395 44.7997393,46.4644395 Z M31.8061155,46.4644395 L30.7233136,46.4644395 C30.2748023,46.4644395 29.9112121,46.1008492 29.9112121,45.652338 C29.9112121,45.2038267 30.2748023,44.8402365 30.7233136,44.8402365 L31.8061155,44.8402365 C32.2546268,44.8402365 32.618217,45.2038267 32.618217,45.652338 C32.618217,46.1008492 32.2546268,46.4644395 31.8061155,46.4644395 Z M37.3338196,55.8090205 C34.7621649,55.8090205 32.0010199,54.0548813 32.0010199,52.8259011 C32.0010199,51.3911884 34.9029292,51.0934179 37.3338196,51.0934179 C39.7647101,51.0934179 42.6666194,51.3911884 42.6666194,52.8259011 C42.6557913,54.0548813 39.9000603,55.8090205 37.3338196,55.8090205 Z M33.9933755,53.0587035 C35.9517094,54.5880755 38.6996879,54.5880755 40.6580217,53.0587035 C39.5663889,52.8198491 38.4512116,52.7054253 37.3338196,52.7176209 C36.2109947,52.7040065 35.0902777,52.8184395 33.9933755,53.0587035 Z M19.5217271,33.5682679 C16.9500724,33.5682679 14.1889274,31.8195427 14.1889274,30.5905625 C14.1889274,29.1558499 17.0908367,28.8580793 19.5217271,28.8580793 C21.9526176,28.8580793 24.8545269,29.1558499 24.8545269,30.5905625 C24.8815969,31.8411988 22.0987958,33.5682679 19.5217271,33.5682679 Z M16.2191811,30.8233649 C18.177515,32.3527369 20.9254934,32.3527369 22.8838273,30.8233649 C21.7882586,30.5881822 20.6690896,30.4809891 19.5487972,30.5039383 C18.4302929,30.4809195 17.3129085,30.5881158 16.2191811,30.8233649 Z M29.6946517,37.0169922 C29.2461404,37.0169922 28.8825502,36.653402 28.8825502,36.2048907 C28.8855349,33.0127277 31.4725497,30.4257129 34.6647128,30.4227282 C35.113224,30.4227282 35.4768142,30.7863184 35.4768142,31.2348297 C35.4768142,31.6833409 35.113224,32.0469312 34.6647128,32.0469312 C33.5619533,32.0469312 32.50436,32.4850006 31.7245913,33.2647693 C30.9448227,34.044538 30.5067532,35.1021313 30.5067532,36.2048907 C30.5067532,36.653402 30.143163,37.0169922 29.6946517,37.0169922 Z M11.6876548,15.1606344 C11.2391436,15.1890401 10.852526,14.8484772 10.8241203,14.399966 C10.7957146,13.9514547 11.1362774,13.5648371 11.5847887,13.5364314 C13.8592887,13.2387684 15.4630475,11.1553355 15.1688632,8.88038289 C15.1741083,8.4782376 15.4729062,8.14050485 15.8714143,8.08628606 C16.2699223,8.03206728 16.6480892,8.27769598 16.7605821,8.6638225 C16.9648086,10.1872347 16.5534967,11.7292252 15.617673,12.9485395 C14.6818493,14.1678538 13.2986828,14.9639459 11.774279,15.1606344 L11.6876548,15.1606344 Z" id="Combined-Shape"></path>
                </g>
            </g>
        </g>
    </g>
</svg>