<?xml version="1.0" encoding="UTF-8"?>
<svg width="60px" height="60px" viewBox="0 0 60 60" version="1.1" xmlns="http://www.w3.org/2000/svg" xmlns:xlink="http://www.w3.org/1999/xlink">
    <!-- Generator: Sketch 53.1 (72631) - https://sketchapp.com -->
    <title>Combined Shape</title>
    <desc>Created with Sketch.</desc>
    <g id="Page-1" stroke="none" stroke-width="1" fill="none" fill-rule="evenodd">
        <g id="LUXURY-HOTEL-HOMEPAGE" transform="translate(-606.000000, -6814.000000)" fill="#58595A" fill-rule="nonzero">
            <g id="Group-39" transform="translate(166.000000, 6814.000000)">
                <g id="Group-38-Copy" transform="translate(440.000000, 0.000000)">
                    <path d="M54.8971266,50.9914863 L57.6055339,50.9914863 C58.0463429,50.9914863 58.4036893,50.63414 58.4036893,50.193331 L58.4036893,36.2735012 C58.3437801,35.5013287 58.0119414,34.7754315 57.4671869,34.2249024 L51.8428521,29.2656971 C51.1912564,28.7575261 50.4009137,28.4588285 49.5760908,28.4090103 L10.4239092,28.4036893 C9.59850565,28.4550428 8.80810626,28.7556172 8.15714792,29.2656971 L2.52217098,34.2249024 C1.98131637,34.7770084 1.65332944,35.5027266 1.59631075,36.2735012 L1.59631075,50.193331 C1.59631075,50.63414 1.95365708,50.9914863 2.39446612,50.9914863 L5.23057822,50.9914863 L11.3497694,50.9914863 L20.044342,50.9914863 L20.044342,46.1174175 C20.044342,45.6766085 20.4016883,45.3192621 20.8424973,45.3192621 L40.3494147,45.3192621 C40.7902237,45.3192621 41.1475701,45.6766085 41.1475701,46.1174175 L41.1475701,50.9914863 L48.7779354,50.9914863 L54.8971266,50.9914863 Z M57.5025223,52.5877971 C57.7070774,52.9868608 57.8228277,53.4389727 57.8236963,53.918056 L57.8236963,57.0521462 C57.8207678,58.6672314 56.5122119,59.9757873 54.8971266,59.9787159 L48.7779354,59.9787159 C47.1616356,59.9787159 45.8513657,58.668446 45.8513657,57.0521462 L45.8513657,53.918056 C45.8513657,53.439044 45.9664484,52.9869109 46.1704734,52.5877971 L13.9565375,52.5877971 C14.1648206,52.9959727 14.2763391,53.4512654 14.2763391,53.918056 L14.2763391,57.0521462 C14.2763391,58.668446 12.9660692,59.9787159 11.3497694,59.9787159 L5.23057822,59.9787159 C3.615493,59.9757873 2.30693705,58.6672314 2.30400851,57.0521462 L2.30400851,53.918056 C2.30487721,53.4389727 2.4206275,52.9868608 2.62518254,52.5877971 L2.39446612,52.5877971 C1.073253,52.5848708 0.00292628566,51.5145441 0,50.193331 L0,36.2735012 C0.0525491514,35.0410866 0.578623876,33.8764791 1.46860589,33.0223484 L7.10358283,28.063143 C7.41190076,27.8132666 7.74384525,27.5980204 8.0933937,27.419682 L10.8549131,14.0581767 C11.7062788,9.99822632 15.7821923,6.69918411 19.9592054,6.69918411 C20.4000144,6.69918411 20.7573608,7.05653044 20.7573608,7.49733948 C20.7573608,7.93814852 20.4000144,8.29549486 19.9592054,8.29549486 C16.3653997,8.39024741 13.2784651,10.875916 12.4192976,14.3667967 L9.84923732,26.8073785 L50.1773679,26.8073785 L47.6073076,14.3667967 C46.7481401,10.875916 43.6612054,8.39024741 40.0673998,8.29549486 C39.6265907,8.29549486 39.2692444,7.93814852 39.2692444,7.49733948 C39.2692444,7.05653044 39.6265907,6.69918411 40.0673998,6.69918411 C44.2497339,6.69918411 48.3309684,9.99822632 49.1716921,14.0581767 L51.9363733,27.4349803 C52.275008,27.610286 52.5968638,27.8203698 52.8964172,28.063143 L58.5313941,33.0223484 C59.4213761,33.8764791 59.9474508,35.0410866 60,36.2735012 L60,50.193331 C59.9970737,51.5145441 58.926747,52.5848708 57.6055339,52.5877971 L57.5025223,52.5877971 Z M54.8971266,52.5877971 L48.7779354,52.5877971 C48.0432537,52.5877971 47.4476765,53.1833743 47.4476765,53.918056 L47.4476765,57.0521462 C47.4505929,57.7856165 48.0444651,58.3794887 48.7779354,58.3824051 L54.8971266,58.3824051 C55.630597,58.3794887 56.2244692,57.7856165 56.2273856,57.0521462 L56.2273856,53.918056 C56.2244692,53.1845857 55.630597,52.5907135 54.8971266,52.5877971 Z M5.23057822,52.5877971 C4.49589648,52.5877971 3.90031926,53.1833743 3.90031926,53.918056 L3.90031926,57.0521462 C3.90323568,57.7856165 4.4971079,58.3794887 5.23057822,58.3824051 L11.3497694,58.3824051 C12.0832397,58.3794887 12.677112,57.7856165 12.6800284,57.0521462 L12.6800284,53.918056 C12.6800284,53.1833743 12.0844512,52.5877971 11.3497694,52.5877971 L5.23057822,52.5877971 Z M13.967719,24.2905286 C13.912987,24.2979734 13.857499,24.2979734 13.8027669,24.2905286 C13.595564,24.2483223 13.4138066,24.1250924 13.2978981,23.9482319 C13.1819895,23.7713714 13.1415348,23.5555364 13.1855268,23.3487052 L14.9308265,14.8989003 C15.5483527,12.5969711 17.5789911,10.9552698 19.9592054,10.8336289 L40.0673998,10.8336289 C42.4476141,10.9552698 44.4782525,12.5969711 45.0957786,14.8989003 L46.8251153,23.3274211 C46.9147464,23.7594139 46.6372074,24.1822737 46.2052146,24.2719049 C45.7732218,24.361536 45.350362,24.0839971 45.2607308,23.6520043 L43.5313941,15.2075204 C43.0774047,13.6416564 41.6939002,12.525927 40.0673998,12.4139766 L19.9592054,12.4139766 C18.3333015,12.5274472 16.9505599,13.6425614 16.4952111,15.2075204 L14.7499113,23.6520043 C14.6721881,24.022553 14.3463263,24.2885626 13.967719,24.2905286 Z M10.3760199,43.361121 L5.45406172,43.361121 C5.01325268,43.361121 4.65590635,43.0037746 4.65590635,42.5629656 C4.65590635,42.1221565 5.01325268,41.7648102 5.45406172,41.7648102 L10.3760199,41.7648102 C11.1074288,41.7619194 11.7004565,41.1712638 11.7062788,40.4398723 L11.7062788,39.0138347 C11.7062788,38.279153 11.1107016,37.6835757 10.3760199,37.6835757 L3.63426747,37.6835757 C3.19345843,37.6835757 2.8361121,37.3262294 2.8361121,36.8854204 C2.8361121,36.4446113 3.19345843,36.087265 3.63426747,36.087265 L10.3760199,36.087265 C11.9911051,36.0901935 13.299661,37.3987495 13.3025896,39.0138347 L13.3025896,40.4398723 C13.2967373,42.0528791 11.9890347,43.3582041 10.3760199,43.361121 Z M54.4501596,43.361121 L49.5282015,43.361121 C47.9131163,43.3581924 46.6045603,42.0496365 46.6016318,40.4345513 L46.6016318,39.0138347 C46.6045603,37.3987495 47.9131163,36.0901935 49.5282015,36.087265 L56.2699539,36.087265 C56.7107629,36.087265 57.0681093,36.4446113 57.0681093,36.8854204 C57.0681093,37.3262294 56.7107629,37.6835757 56.2699539,37.6835757 L49.5282015,37.6835757 C48.7935198,37.6835757 48.1979425,38.279153 48.1979425,39.0138347 L48.1979425,40.4398723 C48.200859,41.1733426 48.7947312,41.7672148 49.5282015,41.7701313 L54.4501596,41.7701313 C54.8909687,41.7701313 55.248315,42.1274776 55.248315,42.5682866 C55.248315,43.0090957 54.8909687,43.366442 54.4501596,43.366442 L54.4501596,43.361121 Z M21.6406527,50.8158922 L39.5512593,50.8158922 L39.5512593,46.9155729 L21.6406527,46.9155729 L21.6406527,50.8158922 Z M21.9067045,43.6324938 C21.4658955,43.6324938 21.1085491,43.2751475 21.1085491,42.8343384 L21.1085491,39.3756651 C21.1085491,38.9348561 21.4658955,38.5775098 21.9067045,38.5775098 C22.3475135,38.5775098 22.7048599,38.9348561 22.7048599,39.3756651 L22.7048599,42.8290174 C22.7048696,43.2706954 22.3483729,43.6295688 21.9067045,43.6324938 Z M25.2749202,43.6324938 C24.8341111,43.6324938 24.4767648,43.2751475 24.4767648,42.8343384 L24.4767648,39.3756651 C24.4767648,38.9348561 24.8341111,38.5775098 25.2749202,38.5775098 C25.7157292,38.5775098 26.0730756,38.9348561 26.0730756,39.3756651 L26.0730756,42.8290174 C26.074493,43.0416218 25.991028,43.2460054 25.8411909,43.3968414 C25.6913538,43.5476774 25.4875293,43.6324985 25.2749202,43.6324938 Z M28.6431359,43.6324938 C28.2023268,43.6324938 27.8449805,43.2751475 27.8449805,42.8343384 L27.8449805,39.3756651 C27.8449805,38.9348561 28.2023268,38.5775098 28.6431359,38.5775098 C29.0839449,38.5775098 29.4412912,38.9348561 29.4412912,39.3756651 L29.4412912,42.8290174 C29.4427086,43.0416218 29.3592436,43.2460054 29.2094066,43.3968414 C29.0595695,43.5476774 28.855745,43.6324985 28.6431359,43.6324938 Z M32.0166726,43.6324938 C31.5758635,43.6324938 31.2185172,43.2751475 31.2185172,42.8343384 L31.2185172,39.3756651 C31.2185172,38.9348561 31.5758635,38.5775098 32.0166726,38.5775098 C32.4574816,38.5775098 32.814828,38.9348561 32.814828,39.3756651 L32.814828,42.8290174 C32.8148376,43.2706954 32.4583409,43.6295688 32.0166726,43.6324938 Z M35.3848883,43.6324938 C34.9440792,43.6324938 34.5867329,43.2751475 34.5867329,42.8343384 L34.5867329,39.3756651 C34.5867329,38.9348561 34.9440792,38.5775098 35.3848883,38.5775098 C35.8256973,38.5775098 36.1830436,38.9348561 36.1830436,39.3756651 L36.1830436,42.8290174 C36.184461,43.0416218 36.100996,43.2460054 35.951159,43.3968414 C35.8013219,43.5476774 35.5974974,43.6324985 35.3848883,43.6324938 Z M38.7531039,43.6324938 C38.3122949,43.6324938 37.9549486,43.2751475 37.9549486,42.8343384 L37.9549486,39.3756651 C37.9549486,38.9348561 38.3122949,38.5775098 38.7531039,38.5775098 C39.193913,38.5775098 39.5512593,38.9348561 39.5512593,39.3756651 L39.5512593,42.8290174 C39.5526767,43.0416218 39.4692117,43.2460054 39.3193746,43.3968414 C39.1695376,43.5476774 38.9657131,43.6324985 38.7531039,43.6324938 Z M40.7059241,5.62965591 C40.265115,5.62965591 39.9077687,5.27230957 39.9077687,4.83150053 L39.9077687,3.45867329 C39.9077687,2.43011886 39.0739606,1.59631075 38.0454062,1.59631075 L21.0180915,1.59631075 C19.9895371,1.59631075 19.155729,2.43011886 19.155729,3.45867329 L19.155729,4.83150053 C19.155729,5.27230957 18.7983826,5.62965591 18.3575736,5.62965591 C17.9167646,5.62965591 17.5594182,5.27230957 17.5594182,4.83150053 L17.5594182,3.45867329 C17.5623483,1.54971578 19.109134,0.00293010112 21.0180915,0 L38.0454062,0 C39.9543637,0.00293010112 41.5011494,1.54971578 41.5040795,3.45867329 L41.5040795,4.83150053 C41.5040795,5.27230957 41.1467331,5.62965591 40.7059241,5.62965591 Z M20.4593828,2.69776516 L24.5459383,2.69776516 L24.5459383,4.0546293 L23.173111,4.0546293 L23.173111,7.89109613 L21.8162469,7.89109613 L21.8162469,4.0546293 L20.4593828,4.0546293 L20.4593828,2.69776516 Z M24.7641007,7.89109613 L27.185172,2.7030862 L27.7970912,2.7030862 L30.2394466,7.89109613 L28.8772614,7.89109613 L28.5579993,7.21532458 L26.429585,7.21532458 L26.1209649,7.89109613 L24.7641007,7.89109613 Z M26.9670096,6.06598084 L28.0312167,6.06598084 L27.4991132,4.92727918 L26.9670096,6.06598084 Z M35.7680028,2.7030862 L34.0546293,5.18800993 L35.9542391,7.89109613 L34.2781128,7.89109613 L33.2139056,6.36927989 L32.1496985,7.89109613 L30.4682512,7.89109613 L32.373182,5.18800993 L30.6438453,2.7030862 L32.3040085,2.7030862 L33.2085846,3.99609791 L34.1078397,2.7030862 L35.7680028,2.7030862 Z M36.5235899,2.7030862 L37.8857751,2.7030862 L37.8857751,7.89109613 L36.5235899,7.89109613 L36.5235899,2.7030862 Z M44.4306492,37.6835757 L16.7612629,37.6835757 C16.3204538,37.6835757 15.9631075,37.3262294 15.9631075,36.8854204 C15.9631075,36.4446113 16.3204538,36.087265 16.7612629,36.087265 L44.4306492,36.087265 C44.8714582,36.087265 45.2288045,36.4446113 45.2288045,36.8854204 C45.2288045,37.3262294 44.8714582,37.6835757 44.4306492,37.6835757 Z M31.2610855,20.7520397 C30.93848,20.751756 30.6477661,20.5572951 30.5243487,20.2592304 C30.4009313,19.9611657 30.4690809,19.618113 30.6970557,19.3898546 L35.2199361,14.8669741 C35.36889,14.7161908 35.5720159,14.6313262 35.7839659,14.6313262 C35.995916,14.6313262 36.1990419,14.7161908 36.3479957,14.8669741 C36.6563271,15.179787 36.6563271,15.6822208 36.3479957,15.9950337 L31.8251153,20.5179142 C31.6746073,20.6661865 31.4723525,20.7501413 31.2610855,20.7520397 Z M30.452288,26.0730756 C30.2400797,26.0759279 30.0360665,25.9912432 29.8882582,25.83895 C29.737475,25.6899962 29.6526103,25.4868703 29.6526103,25.2749202 C29.6526103,25.0629701 29.737475,24.8598442 29.8882582,24.7108904 L39.9982263,14.6009223 C40.1972018,14.3873858 40.4968665,14.2994865 40.7796618,14.3717075 C41.0624572,14.4439284 41.2832798,14.664751 41.3555008,14.9475464 C41.4277217,15.2303417 41.3398225,15.5300065 41.1262859,15.7289819 L31.0163178,25.83895 C30.8677985,25.9901936 30.6642551,26.0746833 30.452288,26.0730756 Z" id="Combined-Shape"></path>
                </g>
            </g>
        </g>
    </g>
</svg>