<?xml version="1.0" encoding="UTF-8"?>
<svg width="47px" height="60px" viewBox="0 0 47 60" version="1.1" xmlns="http://www.w3.org/2000/svg" xmlns:xlink="http://www.w3.org/1999/xlink">
    <!-- Generator: Sketch 53.1 (72631) - https://sketchapp.com -->
    <title>Combined Shape</title>
    <desc>Created with Sketch.</desc>
    <g id="Page-1" stroke="none" stroke-width="1" fill="none" fill-rule="evenodd">
        <g id="LUXURY-HOTEL-HOMEPAGE" transform="translate(-1057.000000, -7015.000000)" fill="#58595A">
            <g id="Group-39" transform="translate(166.000000, 6814.000000)">
                <g id="Group-38-Copy-3" transform="translate(891.000000, 201.000000)">
                    <path d="M31.4932127,29.321267 L31.4932127,38.0090498 L29.8642534,38.0090498 L29.8642534,30.9502262 L25.1674208,30.9502262 L25.1674208,26.6497738 L31.4932127,26.6497738 L31.4932127,29.321267 Z M22.3927602,22.2624434 L22.3927602,34.5447964 C22.3927602,34.9946211 22.0281052,35.359276 21.5782805,35.359276 C21.1284559,35.359276 20.7638009,34.9946211 20.7638009,34.5447964 L20.7638009,22.2624434 L15.2687783,22.2624434 C13.3466063,22.2624434 11.9457014,23.8914027 11.9457014,26.1122172 L11.9457014,38.0090498 C11.9457014,38.4588745 11.5810464,38.8235294 11.1312217,38.8235294 C10.681397,38.8235294 10.3167421,38.4588745 10.3167421,38.0090498 L10.3167421,26.1122172 C10.3167421,22.9900452 12.4452489,20.6334842 15.2687783,20.6334842 L31.1565611,20.6334842 C34.1090021,20.7105177 36.443871,23.1594602 36.3800905,26.1122172 L36.3800905,38.0090498 C36.3800905,38.2250632 36.2942795,38.4322293 36.1415349,38.5849738 C35.9887904,38.7377184 35.7816243,38.8235294 35.5656109,38.8235294 C35.1157862,38.8235294 34.7511312,38.4588745 34.7511312,38.0090498 L34.7511312,26.1122172 C34.7951975,25.1223153 34.4389495,24.1563432 33.7627069,23.4320894 C33.0864642,22.7078356 32.1471568,22.2862716 31.1565611,22.2624434 L22.3927602,22.2624434 Z M31.4932127,44.5248869 L31.4932127,41.7556561 C31.5185285,40.6340276 32.3939401,39.7162574 33.5131222,39.638009 L38.0361991,39.638009 C39.1937936,39.6878454 40.1290229,40.5996939 40.2081448,41.7556561 L40.2081448,44.5248869 L45.3393665,44.5248869 C45.7891912,44.5248869 46.1538462,44.8895418 46.1538462,45.3393665 L46.1538462,59.1855204 C46.1538462,59.635345 45.7891912,60 45.3393665,60 C44.8895418,60 44.5248869,59.635345 44.5248869,59.1855204 L44.5248869,46.1538462 L27.1493213,46.1538462 L27.1493213,59.1855204 C27.1493212,59.635345 26.7846663,60 26.3348416,60 C25.885017,60 25.520362,59.635345 25.520362,59.1855204 L25.520362,45.3393665 C25.520362,44.8895418 25.8850169,44.5248869 26.3348416,44.5248869 L31.4932127,44.5248869 Z M33.1221719,44.5248869 L38.5520362,44.5248869 L38.5520362,41.7556561 C38.4728489,41.506478 38.2651637,41.3195614 38.0090498,41.2669683 L33.5131222,41.2669683 C33.2987112,41.3397641 33.1461264,41.5304951 33.1221719,41.7556561 L33.1221719,44.5248869 Z M5.97285068,44.5248869 L5.97285068,41.7556561 C5.99816648,40.6340276 6.8735781,39.7162574 7.99276018,39.638009 L12.5158371,39.638009 C13.662871,39.7011742 14.5828621,40.6095199 14.6606335,41.7556561 L14.6606335,44.5248869 L19.8190045,44.5248869 C20.2688292,44.5248869 20.6334842,44.8895418 20.6334842,45.3393665 L20.6334842,59.1855204 C20.6334842,59.635345 20.2688292,60 19.8190045,60 C19.3691798,60 19.0045249,59.635345 19.0045249,59.1855204 L19.0045249,46.1538462 L1.62895928,46.1538462 L1.62895928,59.1855204 C1.62895928,59.635345 1.26430432,60 0.814479638,60 C0.364654955,60 5.50876358e-17,59.635345 0,59.1855204 L0,45.3393665 C-5.50876358e-17,44.8895418 0.364654955,44.5248869 0.814479638,44.5248869 L5.97285068,44.5248869 Z M7.60180995,44.5248869 L13.0316742,44.5248869 L13.0316742,41.7556561 C12.9573034,41.5135851 12.7615718,41.3281552 12.5158371,41.2669683 L7.99276018,41.2669683 C7.77834917,41.3397641 7.62576441,41.5304951 7.60180995,41.7556561 L7.60180995,44.5248869 Z M29.2433575,5.50644192 C29.9865462,6.35405356 30.409525,7.4504733 30.4126697,8.60090498 L30.4126697,9.23076923 C30.4094632,9.72456584 30.1146574,9.92676312 29.7899019,10.0095578 C29.6140051,11.2046557 29.1934943,13.8622492 28.7837104,14.7963801 C28.3611827,15.7629095 27.7131436,16.6063145 26.9014404,17.2603138 C27.0332791,17.9289408 27.2612538,18.5749692 27.5782805,19.1782805 C27.7734672,19.5761671 27.6171506,20.0571412 27.2253394,20.2642534 C27.1020242,20.3314154 26.9639468,20.3668676 26.8235294,20.3674208 C26.518052,20.3672436 26.2387198,20.1950237 26.1013575,19.9221719 C25.8012742,19.3491194 25.5664135,18.7448873 25.4007623,18.1208364 C24.6793045,18.3894912 23.9143979,18.52738 23.1420814,18.5266968 C22.3206927,18.5280172 21.5079896,18.3740314 20.7463703,18.0744305 C20.5811419,18.7182407 20.3430305,19.3418484 20.0361991,19.9330317 C19.8895235,20.2087047 19.5989917,20.3771289 19.2868778,20.3674208 C19.1582903,20.3658369 19.031852,20.3342273 18.9176471,20.2751131 C18.5234598,20.0700063 18.3664182,19.5868015 18.5647059,19.1891403 C18.893544,18.5635654 19.1247907,17.8914321 19.2504684,17.196045 C18.4266414,16.5385638 17.7695341,15.6868687 17.3429864,14.7095023 C16.9048733,13.7353997 16.4427564,10.7969902 16.2897315,9.72659133 C15.9664588,9.61075223 15.7484902,9.30468954 15.7466063,8.95927602 L15.7466063,8.60633484 C15.7457326,7.23125181 16.3449387,5.93110294 17.3755656,5.03939483 L17.3755656,0.814479638 C17.3755656,0.364654955 17.7402206,8.26314538e-17 18.1900452,0 L28.5067873,0 C28.956612,2.75438179e-17 29.321267,0.364654955 29.321267,0.814479638 L29.321267,5.15837104 C29.321267,5.28289841 29.2933206,5.40089857 29.2433575,5.50644192 Z M27.3456872,5.97285068 L25.1141985,5.97285068 C25.5774358,7.30497724 27.0458107,8.29934417 28.7782805,8.42714932 C28.7140124,7.49753135 28.2406694,6.64432068 27.4859729,6.09773756 C27.4338947,6.0611875 27.386966,6.01918818 27.3456872,5.97285068 Z M22.9878587,5.97285068 L18.7926467,5.97285068 C18.7534285,6.02039543 18.708166,6.06421456 18.6570136,6.10316742 C17.9339715,6.62553927 17.4678701,7.4313418 17.3755656,8.31855204 C17.7019049,8.37558067 18.0325171,8.40464547 18.3638009,8.40542986 C20.375155,8.40542986 22.1899788,7.41876723 22.9878587,5.97285068 Z M28.1313091,9.99227747 C26.3308805,9.72681088 24.8158429,8.77223578 23.9918314,7.42689015 C22.7957207,9.02022287 20.7077485,10.0343891 18.3746606,10.0343891 C18.2485284,10.0349895 18.1225077,10.032185 17.996734,10.0259953 C18.226603,11.5319639 18.5759101,13.4572804 18.8361991,14.0361991 C19.272673,15.047572 20.0380373,15.8818191 21.0081448,16.4036199 C22.2917466,17.0153024 23.7742489,17.0484768 25.0821834,16.497773 C25.0870332,16.495304 25.0919164,16.4928787 25.0968326,16.4904977 C26.0669401,15.968697 26.8323044,15.1344499 27.2687783,14.1230769 C27.5359469,13.5242507 27.9008091,11.5108214 28.1313091,9.99227747 Z M31.840724,53.9565611 C31.5115204,53.9562715 31.2148607,53.7578334 31.0889191,53.4536726 C30.9629775,53.1495118 31.0325209,52.7994427 31.2651584,52.5665158 L35.2289593,48.6027149 C35.3809596,48.4488478 35.5882399,48.3622474 35.8045249,48.3622474 C36.0208099,48.3622474 36.2280902,48.4488478 36.3800905,48.6027149 C36.694728,48.9219257 36.694728,49.4346354 36.3800905,49.7538462 L32.4162896,53.7176471 C32.2627033,53.8689519 32.0563119,53.9546238 31.840724,53.9565611 Z M31.1294118,58.6425339 C30.9135897,58.6417525 30.7067793,58.5559066 30.5538462,58.4036199 C30.399979,58.2516196 30.3133786,58.0443393 30.3133786,57.8280543 C30.3133786,57.6117693 30.399979,57.404489 30.5538462,57.2524887 L39.4262443,48.3855204 C39.7471599,48.0864881 40.2472504,48.0953116 40.5574173,48.4054786 C40.8675843,48.7156456 40.8764078,49.215736 40.5773756,49.5366516 L31.7049774,58.4090498 C31.5511664,58.5593479 31.3444627,58.6431994 31.1294118,58.6425339 Z M4.96289593,53.9565611 C4.63369232,53.9562715 4.33703266,53.7578334 4.21109107,53.4536726 C4.08514947,53.1495118 4.15469288,52.7994427 4.38733032,52.5665158 L8.35113122,48.6027149 C8.50313152,48.4488478 8.71041184,48.3622474 8.92669683,48.3622474 C9.14298183,48.3622474 9.35026215,48.4488478 9.50226244,48.6027149 C9.81689998,48.9219257 9.81689998,49.4346354 9.50226244,49.7538462 L5.53846154,53.7176471 C5.38487524,53.8689519 5.17848388,53.9546238 4.96289593,53.9565611 Z M4.25158371,58.6425339 C4.03576161,58.6417525 3.82895123,58.5559066 3.6760181,58.4036199 C3.52215092,58.2516196 3.43555057,58.0443393 3.43555057,57.8280543 C3.43555057,57.6117693 3.52215092,57.404489 3.6760181,57.2524887 L12.5484163,48.3855204 C12.7514613,48.1676165 13.0572549,48.0779194 13.3458341,48.1516175 C13.6344133,48.2253156 13.8597523,48.4506545 13.9334504,48.7392338 C14.0071484,49.027813 13.9174514,49.3336066 13.6995475,49.5366516 L4.82714932,58.4090498 C4.67333833,58.5593479 4.46663467,58.6431994 4.25158371,58.6425339 Z M15.7466063,29.321267 L17.3755656,29.321267 L17.3755656,38.5520362 L15.7466063,38.5520362 L15.7466063,29.321267 Z M19.0045249,4.3438914 L27.6923077,4.3438914 L27.6923077,1.62895928 L19.0045249,1.62895928 L19.0045249,4.3438914 Z M26.7963801,29.321267 L29.8642534,29.321267 L29.8642534,28.278733 L26.7963801,28.278733 L26.7963801,29.321267 Z" id="Combined-Shape"></path>
                </g>
            </g>
        </g>
    </g>
</svg>