<?xml version="1.0" encoding="UTF-8"?>
<svg width="169px" height="60px" viewBox="0 0 169 60" version="1.1" xmlns="http://www.w3.org/2000/svg" xmlns:xlink="http://www.w3.org/1999/xlink">
    <!-- Generator: Sketch 53.1 (72631) - https://sketchapp.com -->
    <title>Bitmap Copy</title>
    <desc>Created with Sketch.</desc>
    <defs>
        <path d="M84.2121052,-2.84217094e-14 L85.4432244,3.86151926 L89.4272377,3.86151926 L86.2040822,6.24810585 L87.4352606,10.1096251 L84.2121052,7.72309875 L80.9888906,10.1096251 L82.220069,6.24810585 L78.9969136,3.86151926 L82.9809859,3.86151926 L84.2121052,-2.84217094e-14 Z M96.0802666,3.82747038 L96.9017596,6.404159 L99.5601852,6.404159 L97.4094597,7.99666446 L98.2309921,10.5733531 L96.0802666,8.98088781 L93.9295017,10.5733531 L94.7510341,7.99666446 L92.6003086,6.404159 L95.2587737,6.404159 L96.0802666,3.82747038 Z M106.520081,6.37911731 L107.341574,8.95580593 L110,8.95580593 L107.849275,10.5483114 L108.670807,13.125 L106.520081,11.5325347 L104.369317,13.125 L105.190849,10.5483114 L103.040123,8.95580593 L105.698588,8.95580593 L106.520081,6.37911731 Z M72.3533753,3.82747038 L73.1748683,6.404159 L75.8333333,6.404159 L73.6826078,7.99666446 L74.5041403,10.5733531 L72.3533753,8.98088781 L70.2026499,10.5733531 L71.0241823,7.99666446 L68.8734568,6.404159 L71.5318824,6.404159 L72.3533753,3.82747038 Z M62.2299186,6.37911731 L63.0514115,8.95580593 L65.7098765,8.95580593 L63.5591511,10.5483114 L64.3806835,13.125 L62.2299186,11.5325347 L60.0791931,13.125 L60.9007255,10.5483114 L58.75,8.95580593 L61.4084256,8.95580593 L62.2299186,6.37911731 Z M22.4761148,27.3391855 C22.4761148,26.585501 22.4067817,26.0328073 22.2681132,25.6810879 C22.1294448,25.3293684 21.8710212,25.0844246 21.4928346,24.9462491 C21.114648,24.8080736 20.5221645,24.7389869 19.7153664,24.7389869 C19.6649416,24.7389869 19.6397295,24.6636196 19.6397295,24.5128827 C19.6397295,24.3621458 19.6649416,24.2867784 19.7153664,24.2867784 L21.4171976,24.3244625 C22.3752704,24.3747081 23.1064202,24.3998306 23.610669,24.3998306 C24.2157675,24.3998306 24.9973415,24.3747081 25.9554142,24.3244625 L27.5059715,24.2867784 C27.5816088,24.2867784 27.6194269,24.3621458 27.6194269,24.5128827 C27.6194269,24.6636196 27.5816088,24.7389869 27.5059715,24.7389869 C26.7243859,24.7389869 26.1508115,24.8143542 25.7852311,24.9650911 C25.4196507,25.115828 25.1675301,25.3733331 25.0288616,25.7376139 C24.8901932,26.1018948 24.8208601,26.6608691 24.8208601,27.4145536 L24.8208601,39.3227097 C24.8208601,41.206921 24.6632847,42.7268287 24.3481292,43.8824783 C24.0329737,45.0381279 23.5035204,45.9865001 22.7597534,46.7276232 C22.0159864,47.4687463 20.9633828,48.1407716 19.601911,48.7437192 C19.5262737,48.7688421 19.4632435,48.7185972 19.4128187,48.5929831 C19.3623938,48.467369 19.3623938,48.3920017 19.4128187,48.3668789 C20.3961038,47.8392997 21.1524657,46.947453 21.6819269,45.6913121 C22.2113882,44.4351713 22.4761148,42.9027024 22.4761148,41.0938595 L22.4761148,27.3391855 Z M50.4239651,24.2867784 C50.47439,24.2867784 50.4996021,24.3621458 50.4996021,24.5128827 C50.4996021,24.6636196 50.47439,24.7389869 50.4239651,24.7389869 C49.5919546,24.7389869 48.9805621,24.8080736 48.5897693,24.9462491 C48.1989764,25.0844246 47.9279468,25.3293684 47.7766721,25.6810879 C47.6253975,26.0328073 47.5497613,26.585501 47.5497613,27.3391855 L47.5497613,38.8705012 C47.5497613,39.6241858 47.6190945,40.1831601 47.7577629,40.5474409 C47.8964313,40.9117218 48.1548549,41.1566656 48.5330415,41.2822797 C48.9112282,41.4078938 49.5037116,41.4706999 50.3105097,41.4706999 C50.386147,41.4706999 50.4239651,41.5460672 50.4239651,41.6968041 C50.4239651,41.847541 50.386147,41.9229083 50.3105097,41.9229083 L47.8523091,41.8852243 L45.999204,41.9229083 C45.6714422,41.9229083 45.4697458,41.8852247 45.3941084,41.8098562 C45.3184711,41.7344878 45.280653,41.5335082 45.280653,41.2069116 L45.280653,39.0212374 C44.1208808,40.176887 42.9548229,41.0247694 41.7824444,41.56491 C40.610066,42.1050505 39.3809779,42.3751168 38.0951435,42.3751168 C36.2798478,42.3751168 34.7860331,41.8977904 33.6136546,40.9431233 C32.4412762,39.9884563 31.8550957,38.6820893 31.8550957,37.0239834 L31.8550957,27.3391855 C31.8550957,26.585501 31.7983686,26.0328073 31.6849126,25.6810879 C31.5714566,25.3293684 31.3634571,25.0844246 31.0609078,24.9462491 C30.7583585,24.8080736 30.2667233,24.7389869 29.5859874,24.7389869 C29.5355626,24.7389869 29.5103505,24.6636196 29.5103505,24.5128827 C29.5103505,24.3621458 29.5355626,24.2867784 29.5859874,24.2867784 L31.0609078,24.3244625 C31.9181308,24.3747081 32.5862504,24.3998306 33.0652868,24.3998306 C33.6955978,24.3998306 34.4645657,24.3747081 35.3722135,24.3244625 L36.9605893,24.2867784 C37.0110142,24.2867784 37.0362263,24.3621458 37.0362263,24.5128827 C37.0362263,24.6636196 37.0110142,24.7389869 36.9605893,24.7389869 C36.1537912,24.7389869 35.5550048,24.8143542 35.1642119,24.9650911 C34.7734191,25.115828 34.5086925,25.3733331 34.3700241,25.7376139 C34.2313556,26.1018948 34.1620225,26.6608691 34.1620225,27.4145536 L34.1620225,35.7804101 C34.1620225,39.4985871 35.8134125,41.3576478 39.1162422,41.3576478 C40.2003771,41.3576478 41.2340717,41.1189846 42.2173568,40.641651 C43.200642,40.1643175 44.2217305,39.3729606 45.280653,38.2675566 L45.280653,27.4145536 C45.280653,26.6608691 45.2176229,26.1018948 45.0915607,25.7376139 C44.9654985,25.3733331 44.7133778,25.115828 44.3351912,24.9650911 C43.9570046,24.8143542 43.3645212,24.7389869 42.5577231,24.7389869 C42.5072982,24.7389869 42.4820861,24.6636196 42.4820861,24.5128827 C42.4820861,24.3621458 42.5072982,24.2867784 42.5577231,24.2867784 L44.1839174,24.3244625 C45.1419901,24.3747081 45.910958,24.3998306 46.4908441,24.3998306 C47.0203053,24.3998306 47.7640612,24.3747081 48.7221339,24.3244625 L50.4239651,24.2867784 Z M58.1767517,38.7197651 C58.1767517,39.5236952 58.2649939,40.107792 58.441481,40.4720729 C58.6179681,40.8363537 58.964634,41.0938587 59.481489,41.2445956 C59.998344,41.3953325 60.811433,41.4706999 61.9207804,41.4706999 C61.9964177,41.4706999 62.0342358,41.5460672 62.0342358,41.6968041 C62.0342358,41.847541 61.9964177,41.9229083 61.9207804,41.9229083 C61.0131325,41.9229083 60.3198008,41.9103471 59.8407645,41.8852243 L57.0421976,41.8475402 L54.8109078,41.8852243 C54.3822963,41.9103471 53.8024189,41.9229083 53.0712581,41.9229083 C53.0208332,41.9229083 52.9956212,41.847541 52.9956212,41.6968041 C52.9956212,41.5460672 53.0208332,41.4706999 53.0712581,41.4706999 C53.9032686,41.4706999 54.5146611,41.4078938 54.905454,41.2822797 C55.2962468,41.1566656 55.5609734,40.9117218 55.6996419,40.5474409 C55.8383103,40.1831601 55.9076434,39.6241858 55.9076434,38.8705012 L55.9076434,27.3391855 C55.9076434,26.585501 55.8383103,26.0328073 55.6996419,25.6810879 C55.5609734,25.3293684 55.2962468,25.0844246 54.905454,24.9462491 C54.5146611,24.8080736 53.9032686,24.7389869 53.0712581,24.7389869 C53.0208332,24.7389869 52.9956212,24.6636196 52.9956212,24.5128827 C52.9956212,24.3621458 53.0208332,24.2867784 53.0712581,24.2867784 L54.7730893,24.3244625 C55.731162,24.3747081 56.4749179,24.3998306 57.0043791,24.3998306 C57.4329906,24.3998306 57.8426866,24.3872693 58.2334794,24.3621465 C58.6242723,24.3370237 58.9583321,24.3119013 59.2356689,24.2867784 C60.0172546,24.21141 60.7484044,24.1737263 61.4291403,24.1737263 C65.5891929,24.1737263 67.669188,25.7690013 67.669188,28.9595992 C67.669188,30.1152488 67.3603403,31.0887434 66.7426355,31.8801121 C66.1249307,32.6714809 65.3370537,33.2618583 64.378981,33.6512619 C63.4209083,34.0406656 62.4502439,34.2353645 61.4669587,34.2353645 C60.7862228,34.2353645 60.2315575,34.1851196 59.802946,34.0846284 C59.7525211,34.0846284 59.727309,34.0218223 59.727309,33.8962082 C59.727309,33.6701028 59.7903392,33.5696131 59.9164014,33.5947359 C60.294588,33.6701043 60.697981,33.707788 61.1265925,33.707788 C62.2359399,33.707788 63.1687862,33.3497932 63.9251594,32.6337929 C64.6815326,31.9177926 65.0597135,30.8814919 65.0597135,29.5248598 C65.0597135,27.9421222 64.6563205,26.7425257 63.8495224,25.9260341 C63.0427243,25.1095425 61.9459996,24.7013029 60.5593154,24.7013029 C59.903792,24.7013029 59.4184598,24.7515477 59.1033043,24.852039 C58.7881488,24.9525303 58.5549372,25.1911935 58.4036626,25.5680357 C58.2523879,25.944878 58.1767517,26.5603778 58.1767517,27.4145536 L58.1767517,38.7197651 Z M75.9514332,38.8705012 C75.9514332,39.6493086 76.0207664,40.2145635 76.1594348,40.5662829 C76.2981032,40.9180024 76.5565269,41.1566656 76.9347135,41.2822797 C77.3129001,41.4078938 77.9305956,41.4706999 78.7878186,41.4706999 C78.8382435,41.4706999 78.8634555,41.5460672 78.8634555,41.6968041 C78.8634555,41.847541 78.8382435,41.9229083 78.7878186,41.9229083 C78.0818702,41.9229083 77.5272049,41.9103471 77.1238058,41.8852243 L74.7412421,41.8475402 L72.5099523,41.8852243 C72.0813409,41.9103471 71.5014634,41.9229083 70.7703027,41.9229083 C70.6946653,41.9229083 70.6568472,41.847541 70.6568472,41.6968041 C70.6568472,41.5460672 70.6946653,41.4706999 70.7703027,41.4706999 C71.6023132,41.4706999 72.2137057,41.4078938 72.6044985,41.2822797 C72.9952913,41.1566656 73.266321,40.9117218 73.4175957,40.5474409 C73.5688703,40.1831601 73.6445065,39.6241858 73.6445065,38.8705012 L73.6445065,27.3391855 C73.6445065,26.585501 73.5688703,26.0328073 73.4175957,25.6810879 C73.266321,25.3293684 72.9952913,25.0844246 72.6044985,24.9462491 C72.2137057,24.8080736 71.6023132,24.7389869 70.7703027,24.7389869 C70.6946653,24.7389869 70.6568472,24.6636196 70.6568472,24.5128827 C70.6568472,24.3621458 70.6946653,24.2867784 70.7703027,24.2867784 L72.5099523,24.3244625 C73.4176002,24.3747081 74.161356,24.3998306 74.7412421,24.3998306 C75.3967656,24.3998306 76.2035516,24.3747081 77.1616243,24.3244625 L78.7878186,24.2867784 C78.8382435,24.2867784 78.8634555,24.3621458 78.8634555,24.5128827 C78.8634555,24.6636196 78.8382435,24.7389869 78.7878186,24.7389869 C77.955808,24.7389869 77.3444155,24.8143542 76.9536227,24.9650911 C76.5628299,25.115828 76.2981032,25.3733331 76.1594348,25.7376139 C76.0207664,26.1018948 75.9514332,26.6608691 75.9514332,27.4145536 L75.9514332,38.8705012 Z M93.8017517,40.0763905 C93.9026014,40.0763905 93.9719346,40.1266353 94.0097533,40.2271266 C94.0475719,40.3276179 94.0286629,40.4029852 93.9530256,40.4532308 C92.9193155,41.1566697 92.0116813,41.6528379 91.2300956,41.9417503 C90.44851,42.2306627 89.629118,42.3751168 88.771895,42.3751168 C87.3347859,42.3751168 86.149819,41.9731577 85.2169587,41.1692276 C84.2840984,40.3652974 83.8176753,39.033808 83.8176753,37.1747195 L83.8176753,27.3015015 C83.8176753,26.6734311 83.7735541,26.2275077 83.6853106,25.9637181 C83.5970671,25.6999286 83.4205826,25.5240715 83.155852,25.4361416 C82.8911214,25.3482117 82.4562133,25.3042475 81.8511147,25.3042475 C81.750265,25.3042475 81.6998409,25.2225995 81.6998409,25.0593012 C81.6998409,24.8960029 81.750265,24.814355 81.8511147,24.814355 C82.8596124,24.814355 83.7105195,24.5505694 84.4038616,24.0229902 C85.0972037,23.495411 85.4690816,22.8171051 85.5195065,21.9880521 C85.5195065,21.9126837 85.6077487,21.875 85.7842358,21.875 C85.9859353,21.875 86.0867835,21.9126837 86.0867835,21.9880521 L86.0867835,24.7389869 C88.2046285,24.7138641 90.4863201,24.6008131 92.9319268,24.3998306 C93.0075642,24.3998306 93.0705943,24.4751979 93.1210192,24.6259348 C93.1714441,24.7766717 93.1966561,24.96509 93.1966561,25.1911954 C93.1966561,25.4424235 93.158838,25.6873673 93.0832007,25.9260341 C93.0075634,26.1647009 92.9193212,26.2714712 92.8184714,26.2463484 C90.675414,25.7438921 88.4315405,25.4675452 86.0867835,25.4172996 L86.0867835,35.9688303 C86.0867835,37.7274275 86.4271464,39.0275138 87.1078823,39.8691282 C87.7886181,40.7107426 88.8223127,41.1315435 90.2089969,41.1315435 C91.5452562,41.1315435 92.7176171,40.7923906 93.7261147,40.1140745 L93.8017517,40.0763905 Z M109.950239,39.8879703 C110.025876,39.8879703 110.095209,39.9319345 110.158241,40.0198644 C110.221272,40.1077943 110.227575,40.1894422 110.17715,40.2648106 C108.412279,41.6716884 106.458344,42.3751168 104.315287,42.3751168 C102.525203,42.3751168 100.993571,41.9543159 99.7203424,41.1127015 C98.4471142,40.2710871 97.4890558,39.1719803 96.8461386,37.8153482 C96.2032214,36.458716 95.8817676,35.0016144 95.8817676,33.4439997 C95.8817676,31.6854025 96.2914636,30.0775663 97.1108679,28.6204428 C97.9302722,27.1633194 99.058512,26.0076871 100.495621,25.1535113 C101.93273,24.2993355 103.533696,23.872254 105.298567,23.872254 C106.786101,23.872254 107.958462,24.2679325 108.815685,25.0593012 C109.672908,25.85067 110.101513,26.8869707 110.101513,28.1682344 C110.101513,28.4697082 110.069998,28.6895296 110.006967,28.827705 C109.943936,28.9658805 109.824178,29.0349673 109.647691,29.0349673 L98.7559714,29.0726513 C98.503847,29.9268271 98.3777867,30.9317247 98.3777867,32.0873744 C98.3777867,33.795726 98.6677254,35.3407561 99.2476115,36.7225111 C99.8274977,38.104266 100.665799,39.184531 101.76254,39.9633383 C102.859281,40.7421457 104.164005,41.1315435 105.676752,41.1315435 C107.365985,41.1315435 108.777861,40.7170232 109.91242,39.8879703 L109.950239,39.8879703 Z M104.012739,24.6636188 C102.802542,24.6636188 101.756241,24.9964912 100.873806,25.6622458 C99.9913704,26.3280005 99.3358568,27.2889339 98.9072453,28.5450748 L107.45422,28.3943386 C107.479432,27.2135662 107.176888,26.2965971 106.546576,25.6434038 C105.916265,24.9902106 105.071661,24.6636188 104.012739,24.6636188 Z M131.69586,41.4706999 C131.746285,41.4706999 131.771497,41.5460672 131.771497,41.6968041 C131.771497,41.847541 131.746285,41.9229083 131.69586,41.9229083 L127.271099,41.9229083 C126.817275,41.9229083 126.010489,41.1629545 124.850717,39.643024 C123.690944,38.1230935 122.316887,36.0442116 120.728503,33.4063157 C120.249467,33.506807 119.720014,33.5570518 119.140127,33.5570518 C118.484604,33.5570518 117.992969,33.5319294 117.665207,33.4816838 L117.665207,38.8705012 C117.665207,39.6241858 117.73454,40.1831601 117.873209,40.5474409 C118.011877,40.9117218 118.270301,41.1566656 118.648487,41.2822797 C119.026674,41.4078938 119.631763,41.4706999 120.463774,41.4706999 C120.514199,41.4706999 120.539411,41.5460672 120.539411,41.6968041 C120.539411,41.847541 120.514199,41.9229083 120.463774,41.9229083 C119.757826,41.9229083 119.215766,41.9103471 118.83758,41.8852243 L116.455016,41.8475402 L114.223726,41.8852243 C113.795115,41.9103471 113.215237,41.9229083 112.484076,41.9229083 C112.433652,41.9229083 112.40844,41.847541 112.40844,41.6968041 C112.40844,41.5460672 112.433652,41.4706999 112.484076,41.4706999 C113.316087,41.4706999 113.92748,41.4078938 114.318272,41.2822797 C114.709065,41.1566656 114.973792,40.9117218 115.11246,40.5474409 C115.251129,40.1831601 115.320462,39.6241858 115.320462,38.8705012 L115.320462,27.3391855 C115.320462,26.585501 115.251129,26.0328073 115.11246,25.6810879 C114.973792,25.3293684 114.709065,25.0844246 114.318272,24.9462491 C113.92748,24.8080736 113.328693,24.7389869 112.521895,24.7389869 C112.47147,24.7389869 112.446258,24.6636196 112.446258,24.5128827 C112.446258,24.3621458 112.47147,24.2867784 112.521895,24.2867784 L114.261545,24.3244625 C115.169192,24.3747081 115.900342,24.3998306 116.455016,24.3998306 C116.934052,24.3998306 117.36896,24.3872693 117.759753,24.3621465 C118.150546,24.3370237 118.484606,24.3119013 118.761943,24.2867784 C119.568741,24.21141 120.299891,24.1737263 120.955414,24.1737263 C122.594223,24.1737263 123.84222,24.4877568 124.699443,25.1158273 C125.556666,25.7438977 125.985271,26.6483056 125.985271,27.829078 C125.985271,28.8339907 125.695332,29.7635211 125.115446,30.6176969 C124.53556,31.4718727 123.753986,32.1627398 122.770701,32.690319 C124.182597,35.0016182 125.373867,36.7790309 126.344546,38.0226104 C127.315225,39.2661898 128.210253,40.1517559 129.029658,40.6793351 C129.849062,41.2069142 130.737787,41.4706999 131.69586,41.4706999 Z M117.665207,32.8033711 C118.119031,32.8787395 118.698908,32.9164232 119.404857,32.9164232 C120.968028,32.9164232 122.045844,32.5772702 122.638336,31.8989542 C123.230828,31.2206381 123.52707,30.2031792 123.52707,28.8465471 C123.52707,26.0830371 122.342103,24.7013029 119.972134,24.7013029 C119.014061,24.7013029 118.390063,24.9022824 118.100119,25.3042475 C117.810176,25.7062126 117.665207,26.4096409 117.665207,27.4145536 L117.665207,32.8033711 Z M149.886545,41.4706999 C149.962182,41.4706999 150,41.5460672 150,41.6968041 C150,41.847541 149.962182,41.9229083 149.886545,41.9229083 L148.52508,41.8852243 C148.172105,41.8601015 147.705682,41.8475402 147.125796,41.8475402 L144.743232,41.8852243 C144.390258,41.9103471 143.911229,41.9229083 143.306131,41.9229083 C143.230493,41.9229083 143.192675,41.847541 143.192675,41.6968041 C143.192675,41.5460672 143.230493,41.4706999 143.306131,41.4706999 C143.810379,41.4706999 144.169651,41.4392968 144.383957,41.3764898 C144.598263,41.3136827 144.705414,41.2069124 144.705414,41.0561754 C144.705414,40.8551929 144.52893,40.5034787 144.175955,40.0010224 L140.242834,34.1599965 L136.990446,38.9081853 C136.51141,39.5865013 136.271895,40.1266338 136.271895,40.5285989 C136.271895,41.1566694 136.977833,41.4706999 138.389729,41.4706999 C138.465367,41.4706999 138.503185,41.5460672 138.503185,41.6968041 C138.503185,41.847541 138.465367,41.9229083 138.389729,41.9229083 C137.708993,41.9229083 137.192146,41.9103471 136.839172,41.8852243 L134.494427,41.8475402 L133.132962,41.8852243 C132.880837,41.9103471 132.477444,41.9229083 131.922771,41.9229083 C131.872346,41.9229083 131.847134,41.847541 131.847134,41.6968041 C131.847134,41.5460672 131.872346,41.4706999 131.922771,41.4706999 C132.578294,41.4706999 133.284232,41.2383173 134.040605,40.7735452 C134.796978,40.308773 135.515522,39.6116253 136.196258,38.682081 L139.86465,33.5947359 L135.742436,27.4145536 C135.112125,26.4598865 134.456612,25.7753 133.775876,25.3607735 C133.09514,24.946247 132.464838,24.7389869 131.884952,24.7389869 C131.834527,24.7389869 131.809315,24.6636196 131.809315,24.5128827 C131.809315,24.3621458 131.834527,24.2867784 131.884952,24.2867784 L133.057325,24.3244625 C133.611999,24.3747081 134.002786,24.3998306 134.229697,24.3998306 C134.910433,24.3998306 135.78025,24.3747081 136.839172,24.3244625 L138.503185,24.2867784 C138.55361,24.2867784 138.578822,24.3621458 138.578822,24.5128827 C138.578822,24.6636196 138.55361,24.7389869 138.503185,24.7389869 C137.973723,24.7389869 137.608149,24.77039 137.406449,24.833197 C137.20475,24.896004 137.103901,25.0153356 137.103901,25.1911954 C137.103901,25.4173007 137.26778,25.7690149 137.595541,26.2463484 L141.301752,31.748218 L144.327229,27.3015015 C144.831478,26.4975713 145.083599,25.9448776 145.083599,25.6434038 C145.083599,25.0404562 144.390267,24.7389869 143.003583,24.7389869 C142.927945,24.7389869 142.890127,24.6636196 142.890127,24.5128827 C142.890127,24.3621458 142.927945,24.2867784 143.003583,24.2867784 L144.55414,24.3244625 C145.411363,24.3747081 146.167725,24.3998306 146.823248,24.3998306 C147.226647,24.3998306 147.680465,24.3747081 148.184713,24.3244625 L149.357086,24.2867784 C149.432723,24.2867784 149.470541,24.3621458 149.470541,24.5128827 C149.470541,24.6636196 149.432723,24.7389869 149.357086,24.7389869 C148.701563,24.7389869 148.001928,24.9588083 147.258161,25.3984576 C146.514394,25.8381069 145.789547,26.5478158 145.083599,27.5276057 L141.679936,32.2757945 L146.066879,38.7951332 C146.69719,39.7498002 147.352704,40.4343867 148.033439,40.8489132 C148.714175,41.2634397 149.331871,41.4706999 149.886545,41.4706999 Z M4.82021897,54.1363397 C4.82021897,53.8620767 4.75989326,53.6606678 4.63924005,53.5321071 C4.51858683,53.4035463 4.32878158,53.3392669 4.06981858,53.3392669 C4.05216201,53.3392669 4.04333386,53.3221257 4.04333386,53.2878428 C4.04333386,53.25356 4.05216201,53.2364188 4.06981858,53.2364188 L4.44060465,53.2449895 C4.64071242,53.2564171 4.80256187,53.2621308 4.92615784,53.2621308 C5.03209725,53.2621308 5.17334768,53.2564171 5.34991336,53.2449895 L5.71187119,53.2364188 C5.72364224,53.2364188 5.72952767,53.25356 5.72952767,53.2878428 C5.72952767,53.3221257 5.72364224,53.3392669 5.71187119,53.3392669 C5.47056476,53.3392669 5.29400173,53.4035463 5.1821768,53.5321071 C5.07035187,53.6606678 5.01444024,53.8620767 5.01444024,54.1363397 L5.01444024,56.5875527 C5.01444024,57.2560687 4.82904906,57.7760178 4.45826113,58.1474156 C4.0874732,58.5188134 3.58721128,58.7045095 2.95746035,58.7045095 C2.52193168,58.7045095 2.14232116,58.620232 1.81861741,58.4516746 C1.49491367,58.2831171 1.2447827,58.044569 1.06821702,57.7360232 C0.891651344,57.4274773 0.803369828,57.0703695 0.803369828,56.6646888 L0.803369828,53.9306435 C0.803369828,53.7592291 0.784242166,53.6335271 0.745986269,53.5535338 C0.707730371,53.4735404 0.634162441,53.4178316 0.525280272,53.3864056 C0.416398103,53.3549796 0.247191864,53.3392669 0.0176564797,53.3392669 C0.00588543439,53.3392669 0,53.3221257 0,53.2878428 C0,53.25356 0.00588543439,53.2364188 0.0176564797,53.2364188 L0.441411993,53.2449895 C0.688603945,53.2564171 0.885765997,53.2621308 1.03290406,53.2621308 C1.19181318,53.2621308 1.39486066,53.2564171 1.64205261,53.2449895 L2.04815165,53.2364188 C2.06580822,53.2364188 2.07463637,53.25356 2.07463637,53.2878428 C2.07463637,53.3221257 2.06580822,53.3392669 2.04815165,53.3392669 C1.81861626,53.3392669 1.65088138,53.3564081 1.54494198,53.3906909 C1.43900257,53.4249738 1.366906,53.4835395 1.3286501,53.5663898 C1.2903942,53.64924 1.27126654,53.7763704 1.27126654,53.9477848 L1.27126654,56.3647152 C1.27126654,57.0332312 1.43311599,57.548895 1.75681973,57.911722 C2.08052348,58.2745491 2.53370193,58.4559599 3.11636867,58.4559599 C3.65195124,58.4559599 4.06981708,58.2916903 4.36997873,57.9631461 C4.67014039,57.6346019 4.82021897,57.1789322 4.82021897,56.5961234 L4.82021897,54.1363397 Z M8.48393851,57.8645833 C8.48393851,58.0302839 8.50012346,58.1545574 8.53249383,58.2374077 C8.5648642,58.320258 8.62813262,58.3788237 8.72230099,58.4131065 C8.81646935,58.4473894 8.95771978,58.4645306 9.1460565,58.4645306 L9.85231569,58.4645306 C10.4290969,58.4645306 10.7675094,58.121707 10.8675633,57.4360496 C10.8675633,57.4246219 10.8793341,57.4189082 10.9028762,57.4189082 C10.9205328,57.4189082 10.9367177,57.4217651 10.9514316,57.4274789 C10.9661454,57.4331927 10.9735022,57.4417633 10.9735022,57.4531909 C10.9323035,57.6988848 10.9117045,58.0359947 10.9117045,58.4645306 C10.9117045,58.5102411 10.901405,58.543095 10.8808056,58.5630933 C10.8602063,58.5830917 10.8263651,58.5930907 10.7792809,58.5930907 L7.34509557,58.5930907 C7.33332452,58.5930907 7.32743909,58.5759495 7.32743909,58.5416667 C7.32743909,58.5073838 7.33332452,58.4902426 7.34509557,58.4902426 C7.54520334,58.4902426 7.6923392,58.4759583 7.78650756,58.4473892 C7.88067592,58.4188202 7.94394434,58.3631113 7.97631472,58.2802611 C8.00868509,58.1974108 8.02487004,58.0702804 8.02487004,57.898866 L8.02487004,55.2762394 C8.02487004,55.1048251 8.00868509,54.9791231 7.97631472,54.8991297 C7.94394434,54.8191364 7.88067592,54.7634275 7.78650756,54.7320016 C7.6923392,54.7005756 7.54520334,54.6848629 7.34509557,54.6848629 C7.33332452,54.6848629 7.32743909,54.6677217 7.32743909,54.6334388 C7.32743909,54.5991559 7.33332452,54.5820148 7.34509557,54.5820148 L7.73353812,54.5905854 C7.94541694,54.6020131 8.11609454,54.6077268 8.24557603,54.6077268 C8.3927141,54.6077268 8.57221985,54.6020131 8.78409867,54.5905854 L9.15488474,54.5820148 C9.16665579,54.5820148 9.17254122,54.5991559 9.17254122,54.6334388 C9.17254122,54.6677217 9.16665579,54.6848629 9.15488474,54.6848629 C8.95477697,54.6848629 8.80911247,54.7005756 8.71788687,54.7320016 C8.62666127,54.7634275 8.5648642,54.8205648 8.53249383,54.9034151 C8.50012346,54.9862654 8.48393851,55.1133958 8.48393851,55.2848101 L8.48393851,57.8645833 Z M15.3434809,58.190269 C15.3611375,58.190269 15.375851,58.2031249 15.3876221,58.228837 C15.3993931,58.2545492 15.3964504,58.2731188 15.3787938,58.2845464 C15.1433729,58.4331055 14.93444,58.5388094 14.7519888,58.6016614 C14.5695376,58.6645133 14.3841464,58.6959388 14.1958097,58.6959388 C13.8603349,58.6959388 13.5866622,58.6045192 13.3747834,58.4216772 C13.1629046,58.2388352 13.0569668,57.9360077 13.0569668,57.5131856 L13.0569668,55.2676688 C13.0569668,55.1191097 13.0466673,55.0134057 13.0260679,54.9505538 C13.0054686,54.8877019 12.9657419,54.8462773 12.9068867,54.826279 C12.8480315,54.8062807 12.7450364,54.7962816 12.5978983,54.7962816 C12.5802417,54.7962816 12.5714136,54.7791405 12.5714136,54.7448576 C12.5714136,54.7105747 12.5802417,54.6934335 12.5978983,54.6934335 C12.8215481,54.6934335 13.005468,54.6348678 13.1496633,54.5177347 C13.2938586,54.4006016 13.3659552,54.2477594 13.3659552,54.0592036 C13.3659552,54.0420621 13.3894969,54.0334916 13.4365811,54.0334916 C13.4777797,54.0334916 13.4983788,54.0420621 13.4983788,54.0592036 L13.4983788,54.6848629 C13.8515101,54.6848629 14.3988555,54.6591511 15.1404314,54.6077268 C15.1580879,54.6077268 15.1728015,54.624868 15.1845726,54.6591508 C15.1963436,54.6934337 15.202229,54.7362867 15.202229,54.787711 C15.202229,54.8391353 15.1919295,54.8934157 15.1713302,54.9505538 C15.1507309,55.0076919 15.1316032,55.0334037 15.1139466,55.0276899 C14.5901351,54.8962722 14.0516179,54.8277075 13.4983788,54.8219937 L13.4983788,57.2217827 C13.4983788,57.638891 13.5793035,57.9445753 13.7411554,58.1388449 C13.9030072,58.3331145 14.1575523,58.4302479 14.5047981,58.4302479 C14.8167308,58.4302479 15.0904035,58.3531126 15.3258244,58.1988396 L15.3434809,58.190269 Z M21.3555122,58.4902426 C21.3672833,58.4902426 21.3731687,58.5073838 21.3731687,58.5416667 C21.3731687,58.5759495 21.3672833,58.5930907 21.3555122,58.5930907 L20.428547,58.5930907 C20.3226076,58.5930907 20.1283883,58.4216789 19.8458832,58.0788502 C19.5633781,57.7360215 19.2249657,57.2617822 18.8306356,56.6561181 C18.677612,56.6789734 18.5540179,56.6904008 18.4598496,56.6904008 C18.3774522,56.6904008 18.2479727,56.6846871 18.071407,56.6732595 L18.071407,57.898866 C18.071407,58.0759942 18.0875919,58.204553 18.1199623,58.2845464 C18.1523327,58.3645398 18.2141298,58.4188202 18.3053554,58.4473892 C18.396581,58.4759583 18.5451882,58.4902426 18.7511815,58.4902426 C18.768838,58.4902426 18.7776662,58.5073838 18.7776662,58.5416667 C18.7776662,58.5759495 18.768838,58.5930907 18.7511815,58.5930907 C18.5922724,58.5930907 18.4686782,58.5902338 18.3803954,58.58452 L17.8418728,58.5759494 L17.3298349,58.58452 C17.2356665,58.5902338 17.1032442,58.5930907 16.9325641,58.5930907 C16.920793,58.5930907 16.9149076,58.5759495 16.9149076,58.5416667 C16.9149076,58.5073838 16.920793,58.4902426 16.9325641,58.4902426 C17.1385574,58.4902426 17.2886359,58.4759583 17.3828043,58.4473892 C17.4769727,58.4188202 17.5417124,58.3631113 17.5770256,58.2802611 C17.6123387,58.1974108 17.629995,58.0702804 17.629995,57.898866 L17.629995,55.2762394 C17.629995,55.1048251 17.6123387,54.9791231 17.5770256,54.8991297 C17.5417124,54.8191364 17.4769727,54.7634275 17.3828043,54.7320016 C17.2886359,54.7005756 17.1415001,54.6848629 16.9413923,54.6848629 C16.9296213,54.6848629 16.9237358,54.6677217 16.9237358,54.6334388 C16.9237358,54.5991559 16.9296213,54.5820148 16.9413923,54.5820148 L17.3386631,54.5905854 C17.5505419,54.6020131 17.7182768,54.6077268 17.8418728,54.6077268 C17.9536977,54.6077268 18.0537501,54.6048699 18.1420329,54.5991561 C18.2303158,54.5934423 18.3038837,54.5877286 18.3627389,54.5820148 C18.5451901,54.5648733 18.7158677,54.5563027 18.8747768,54.5563027 C19.2337937,54.5563027 19.5089378,54.6277243 19.7002173,54.7705696 C19.8914967,54.9134149 19.9871351,55.1191091 19.9871351,55.3876582 C19.9871351,55.6219245 19.9209239,55.8361892 19.7884997,56.0304589 C19.6560754,56.2247285 19.478041,56.3818559 19.2543911,56.501846 C19.5898659,57.0275167 19.8708954,57.4303344 20.0974881,57.7103112 C20.3240807,57.990288 20.534485,58.1902684 20.7287072,58.3102584 C20.9229295,58.4302485 21.1318624,58.4902426 21.3555122,58.4902426 Z M18.071407,56.5104167 C18.1832319,56.5332719 18.3333105,56.5446994 18.5216472,56.5446994 C18.8924352,56.5446994 19.1513943,56.4661356 19.2985323,56.3090058 C19.4456704,56.151876 19.5192383,55.9218985 19.5192383,55.6190664 C19.5192383,54.9848333 19.2249666,54.6677215 18.6364144,54.6677215 C18.4009934,54.6677215 18.2479722,54.7162882 18.1773459,54.813423 C18.1067196,54.9105578 18.071407,55.0705421 18.071407,55.2933808 L18.071407,56.5104167 Z M26.4582349,58.1217036 C26.481777,58.1217036 26.4979619,58.1359879 26.5067902,58.1645569 C26.5156185,58.193126 26.5082617,58.213124 26.4847196,58.2245517 L25.5754109,58.6445148 C25.5518688,58.6559424 25.5312698,58.6616561 25.5136132,58.6616561 C25.4371014,58.6616561 25.3694189,58.6059473 25.3105637,58.4945279 C25.2517085,58.3831086 25.2193386,58.2302664 25.2134531,58.0359968 L24.5248503,58.3788238 C24.3306281,58.4759586 24.1717214,58.5459518 24.0481254,58.5888054 C23.9245294,58.631659 23.8068207,58.6530854 23.6949958,58.6530854 C23.5302012,58.6530854 23.3904221,58.6073756 23.2756544,58.5159546 C23.1608867,58.4245336 23.1035037,58.2931179 23.1035037,58.1217036 C23.1035037,57.9617168 23.1638294,57.8345864 23.2844826,57.7403085 C23.4051359,57.6460306 23.6302537,57.5360414 23.959843,57.4103375 L25.2134531,56.9303797 L25.2134531,55.7047732 C25.2134531,55.3562307 25.1590128,55.1019699 25.0501306,54.9419831 C24.9412484,54.7819964 24.7661568,54.7020042 24.5248503,54.7020042 C24.2776584,54.7020042 24.0760823,54.790567 23.9201159,54.9676951 C23.7641496,55.1448233 23.6685113,55.3505175 23.6331981,55.5847837 C23.6214271,55.6590633 23.5905285,55.7247712 23.5405016,55.7819093 C23.4904747,55.8390474 23.4183781,55.867616 23.3242097,55.867616 C23.2476979,55.867616 23.1844295,55.8433327 23.1344026,55.7947653 C23.0843756,55.7461979 23.0593625,55.6933459 23.0593625,55.6362078 C23.0593625,55.4990763 23.1594149,55.3405204 23.3595227,55.1605353 C23.5596305,54.9805503 23.803876,54.8262796 24.0922666,54.6977189 C24.3806572,54.5691581 24.6396163,54.5048787 24.8691517,54.5048787 C25.1104581,54.5048787 25.3032061,54.5834424 25.4474014,54.7405723 C25.5915967,54.8977021 25.6636933,55.1333933 25.6636933,55.4476529 L25.6636933,57.6674578 C25.6636933,57.8788688 25.6857637,58.0302826 25.7299051,58.1217036 C25.7740465,58.2131246 25.8520285,58.2588344 25.9638534,58.2588344 C26.0815639,58.2588344 26.2404706,58.2159814 26.4405784,58.1302742 L26.4582349,58.1217036 Z M25.2134531,57.9331487 L25.2134531,57.0332278 L24.0216407,57.504615 C23.8980447,57.5503255 23.8068205,57.6060343 23.7479652,57.6717431 C23.68911,57.737452 23.6596828,57.8331569 23.6596828,57.9588607 C23.6596828,58.2388375 23.7891624,58.3788238 24.0481254,58.3788238 C24.1776069,58.3788238 24.3159146,58.3473983 24.4630527,58.2845464 L25.2134531,57.9331487 Z M32.4526097,57.8645833 C32.4526097,58.0302839 32.4717374,58.1517005 32.5099933,58.228837 C32.5482492,58.3059735 32.6188744,58.3588254 32.7218711,58.3873945 C32.8248677,58.4159636 32.9881885,58.4302479 33.2118384,58.4302479 L34.3418531,58.4302479 C34.9245198,58.4302479 35.2688177,58.0674263 35.3747571,57.3417721 C35.3747571,57.3246307 35.3909421,57.3174885 35.4233125,57.3203455 C35.4556828,57.3232024 35.4718678,57.3332014 35.4718678,57.3503428 C35.4188981,57.801734 35.3924136,58.1731262 35.3924136,58.4645306 C35.3924136,58.5102411 35.3835855,58.543095 35.3659289,58.5630933 C35.3482723,58.5830917 35.3129597,58.5930907 35.25999,58.5930907 L31.1989997,58.5930907 C31.1872286,58.5930907 31.1813432,58.5759495 31.1813432,58.5416667 C31.1813432,58.5073838 31.1872286,58.4902426 31.1989997,58.4902426 C31.4285351,58.4902426 31.5977413,58.4759583 31.7066235,58.4473892 C31.8155056,58.4188202 31.8890736,58.3631113 31.9273295,58.2802611 C31.9655854,58.1974108 31.984713,58.0702804 31.984713,57.898866 L31.984713,53.9306435 C31.984713,53.7592291 31.9655854,53.6335271 31.9273295,53.5535338 C31.8890736,53.4735404 31.8155056,53.4178316 31.7066235,53.3864056 C31.5977413,53.3549796 31.4285351,53.3392669 31.1989997,53.3392669 C31.1872286,53.3392669 31.1813432,53.3221257 31.1813432,53.2878428 C31.1813432,53.25356 31.1872286,53.2364188 31.1989997,53.2364188 L31.6315834,53.2449895 C31.8787754,53.2564171 32.0729947,53.2621308 32.2142473,53.2621308 C32.3731564,53.2621308 32.5762039,53.2564171 32.8233958,53.2449895 L33.2383231,53.2364188 C33.2500941,53.2364188 33.2559796,53.25356 33.2559796,53.2878428 C33.2559796,53.3221257 33.2500941,53.3392669 33.2383231,53.3392669 C33.0087877,53.3392669 32.8395815,53.3549796 32.7306993,53.3864056 C32.6218171,53.4178316 32.5482492,53.4749688 32.5099933,53.5578191 C32.4717374,53.6406694 32.4526097,53.7677998 32.4526097,53.9392141 L32.4526097,57.8645833 Z M41.8193722,54.5820148 C41.8311433,54.5820148 41.8370287,54.5991559 41.8370287,54.6334388 C41.8370287,54.6677217 41.8311433,54.6848629 41.8193722,54.6848629 C41.6133789,54.6848629 41.461829,54.7005756 41.3647179,54.7320016 C41.2676068,54.7634275 41.1999243,54.8191364 41.1616684,54.8991297 C41.1234125,54.9791231 41.1042848,55.1048251 41.1042848,55.2762394 L41.1042848,57.898866 C41.1042848,58.0702804 41.1219411,58.1974108 41.1572543,58.2802611 C41.1925674,58.3631113 41.2573072,58.4188202 41.3514755,58.4473892 C41.4456439,58.4759583 41.5927798,58.4902426 41.7928875,58.4902426 C41.8105441,58.4902426 41.8193722,58.5073838 41.8193722,58.5416667 C41.8193722,58.5759495 41.8105441,58.5930907 41.7928875,58.5930907 L41.2190519,58.58452 L40.8217811,58.5930907 C40.7511549,58.5930907 40.7070141,58.5845201 40.6893575,58.5673787 C40.671701,58.5502372 40.6628728,58.5045274 40.6628728,58.4302479 L40.6628728,57.924578 C40.3744822,58.1931272 40.0934527,58.3888223 39.8197759,58.5116693 C39.5460991,58.6345162 39.2591842,58.6959388 38.9590225,58.6959388 C38.5293794,58.6959388 38.179196,58.587378 37.908462,58.3702532 C37.6377279,58.1531283 37.5023629,57.8645851 37.5023629,57.504615 L37.5023629,55.2762394 C37.5023629,55.1048251 37.4876494,54.9791231 37.4582217,54.8991297 C37.4287941,54.8191364 37.3743539,54.7634275 37.2948993,54.7320016 C37.2154448,54.7005756 37.0903793,54.6848629 36.9196991,54.6848629 C36.9079281,54.6848629 36.9020426,54.6677217 36.9020426,54.6334388 C36.9020426,54.5991559 36.9079281,54.5820148 36.9196991,54.5820148 L37.2640005,54.5905854 C37.4641082,54.6020131 37.6171295,54.6077268 37.7230689,54.6077268 C37.870207,54.6077268 38.0555982,54.6020131 38.2792481,54.5905854 L38.6500341,54.5820148 C38.6618052,54.5820148 38.6676906,54.5991559 38.6676906,54.6334388 C38.6676906,54.6677217 38.6618052,54.6848629 38.6500341,54.6848629 C38.4499264,54.6848629 38.2998478,54.702004 38.1997939,54.7362869 C38.09974,54.7705698 38.0320575,54.8291355 37.9967444,54.9119858 C37.9614312,54.994836 37.9437749,55.1219664 37.9437749,55.2933808 L37.9437749,57.1960707 C37.9437749,58.0531425 38.3498699,58.4816719 39.162072,58.4816719 C39.4269206,58.4816719 39.6770515,58.42882 39.9124724,58.3231144 C40.1478933,58.2174089 40.3980243,58.038855 40.6628728,57.7874472 L40.6628728,55.2933808 C40.6628728,55.1219664 40.6466879,54.994836 40.6143175,54.9119858 C40.5819471,54.8291355 40.5172073,54.7705698 40.4200962,54.7362869 C40.3229851,54.702004 40.1743779,54.6848629 39.9742701,54.6848629 C39.9624991,54.6848629 39.9566136,54.6677217 39.9566136,54.6334388 C39.9566136,54.5991559 39.9624991,54.5820148 39.9742701,54.5820148 L40.3627127,54.5905854 C40.5745915,54.6020131 40.7540972,54.6077268 40.9012353,54.6077268 C41.0307168,54.6077268 41.2072798,54.6020131 41.4309297,54.5905854 L41.8193722,54.5820148 Z M47.478274,58.4902426 C47.490045,58.4902426 47.4959305,58.5073838 47.4959305,58.5416667 C47.4959305,58.5759495 47.490045,58.5930907 47.478274,58.5930907 L47.1957703,58.58452 C47.1369151,58.5788062 47.0486336,58.5759494 46.9309231,58.5759494 L46.374744,58.58452 C46.2923467,58.5902338 46.1805234,58.5930907 46.0392709,58.5930907 C46.0216143,58.5930907 46.0127862,58.5759495 46.0127862,58.5416667 C46.0127862,58.5073838 46.0216143,58.4902426 46.0392709,58.4902426 C46.1569814,58.4902426 46.2408488,58.4831004 46.2908757,58.4688159 C46.3409027,58.4545314 46.3659158,58.430248 46.3659158,58.3959652 C46.3659158,58.3502547 46.3247177,58.2702625 46.2423204,58.1559863 L45.306527,56.7932489 L44.4943289,57.9502901 C44.3766185,58.1102768 44.3177641,58.2274082 44.3177641,58.3016877 C44.3177641,58.4273916 44.4943272,58.4902426 44.8474585,58.4902426 C44.8651151,58.4902426 44.8739432,58.5073838 44.8739432,58.5416667 C44.8739432,58.5759495 44.8651151,58.5930907 44.8474585,58.5930907 C44.6885494,58.5930907 44.5708407,58.5902338 44.4943289,58.58452 L43.9646345,58.5759494 L43.6556461,58.58452 C43.5967909,58.5902338 43.5055667,58.5930907 43.3819707,58.5930907 C43.3701997,58.5930907 43.3643142,58.5759495 43.3643142,58.5416667 C43.3643142,58.5073838 43.3701997,58.4902426 43.3819707,58.4902426 C43.5291088,58.4902426 43.6894869,58.4402475 43.8631098,58.3402558 C44.0367327,58.2402641 44.1941681,58.0931356 44.3354206,57.898866 L45.2270728,56.6818302 L44.2736229,55.2933808 C44.1264849,55.0762559 43.9734636,54.9205569 43.8145545,54.826279 C43.6556453,54.7320011 43.5085095,54.6848629 43.3731425,54.6848629 C43.3613714,54.6848629 43.355486,54.6677217 43.355486,54.6334388 C43.355486,54.5991559 43.3613714,54.5820148 43.3731425,54.5820148 L43.6468179,54.5905854 C43.7762994,54.6020131 43.8675236,54.6077268 43.9204933,54.6077268 C44.0735169,54.6077268 44.2559654,54.6020131 44.4678442,54.5905854 L44.8121456,54.5820148 C44.8239166,54.5820148 44.829802,54.5991559 44.829802,54.6334388 C44.829802,54.6677217 44.8239166,54.6848629 44.8121456,54.6848629 C44.6885496,54.6848629 44.6032108,54.692005 44.5561266,54.7062896 C44.5090424,54.7205741 44.4855007,54.7477143 44.4855007,54.787711 C44.4855007,54.8391353 44.523756,54.9191274 44.6002678,55.0276899 L45.5007483,56.3218618 L46.2688051,55.2248154 C46.3865156,55.053401 46.4453699,54.9334128 46.4453699,54.864847 C46.4453699,54.8019951 46.4027005,54.7562853 46.3173605,54.7277162 C46.2320204,54.6991472 46.095184,54.6848629 45.9068473,54.6848629 C45.8891907,54.6848629 45.8803626,54.6677217 45.8803626,54.6334388 C45.8803626,54.5991559 45.8891907,54.5820148 45.9068473,54.5820148 L46.2599769,54.5905854 C46.4600847,54.6020131 46.6366477,54.6077268 46.7896713,54.6077268 C46.8779541,54.6077268 46.9809492,54.6020131 47.0986597,54.5905854 L47.3723351,54.5820148 C47.3841062,54.5820148 47.3899916,54.5991559 47.3899916,54.6334388 C47.3899916,54.6677217 47.3841062,54.6848629 47.3723351,54.6848629 C47.2193115,54.6848629 47.0589334,54.7334295 46.891196,54.8305643 C46.7234586,54.9276991 46.5660233,55.076256 46.4188852,55.2762394 L45.5713742,56.4247099 L46.5777935,57.8817247 C46.7249316,58.0988495 46.8779529,58.2545486 47.036862,58.3488265 C47.1957711,58.4431044 47.342907,58.4902426 47.478274,58.4902426 Z M53.8610914,54.5820148 C53.8728625,54.5820148 53.8787479,54.5991559 53.8787479,54.6334388 C53.8787479,54.6677217 53.8728625,54.6848629 53.8610914,54.6848629 C53.6550981,54.6848629 53.5035482,54.7005756 53.4064371,54.7320016 C53.3093259,54.7634275 53.2416434,54.8191364 53.2033875,54.8991297 C53.1651317,54.9791231 53.146004,55.1048251 53.146004,55.2762394 L53.146004,57.898866 C53.146004,58.0702804 53.1636603,58.1974108 53.1989734,58.2802611 C53.2342866,58.3631113 53.2990263,58.4188202 53.3931947,58.4473892 C53.4873631,58.4759583 53.6344989,58.4902426 53.8346067,58.4902426 C53.8522633,58.4902426 53.8610914,58.5073838 53.8610914,58.5416667 C53.8610914,58.5759495 53.8522633,58.5930907 53.8346067,58.5930907 L53.2607711,58.58452 L52.8635003,58.5930907 C52.792874,58.5930907 52.7487333,58.5845201 52.7310767,58.5673787 C52.7134201,58.5502372 52.704592,58.5045274 52.704592,58.4302479 L52.704592,57.924578 C52.4162014,58.1931272 52.1351719,58.3888223 51.8614951,58.5116693 C51.5878183,58.6345162 51.3009034,58.6959388 51.0007417,58.6959388 C50.5710985,58.6959388 50.2209152,58.587378 49.9501812,58.3702532 C49.6794471,58.1531283 49.5440821,57.8645851 49.5440821,57.504615 L49.5440821,55.2762394 C49.5440821,55.1048251 49.5293685,54.9791231 49.4999409,54.8991297 C49.4705133,54.8191364 49.416073,54.7634275 49.3366185,54.7320016 C49.2571639,54.7005756 49.1320985,54.6848629 48.9614183,54.6848629 C48.9496472,54.6848629 48.9437618,54.6677217 48.9437618,54.6334388 C48.9437618,54.5991559 48.9496472,54.5820148 48.9614183,54.5820148 L49.3057196,54.5905854 C49.5058274,54.6020131 49.6588487,54.6077268 49.7647881,54.6077268 C49.9119262,54.6077268 50.0973174,54.6020131 50.3209672,54.5905854 L50.6917533,54.5820148 C50.7035244,54.5820148 50.7094098,54.5991559 50.7094098,54.6334388 C50.7094098,54.6677217 50.7035244,54.6848629 50.6917533,54.6848629 C50.4916455,54.6848629 50.341567,54.702004 50.2415131,54.7362869 C50.1414592,54.7705698 50.0737767,54.8291355 50.0384636,54.9119858 C50.0031504,54.994836 49.9854941,55.1219664 49.9854941,55.2933808 L49.9854941,57.1960707 C49.9854941,58.0531425 50.3915891,58.4816719 51.2037912,58.4816719 C51.4686397,58.4816719 51.7187707,58.42882 51.9541916,58.3231144 C52.1896125,58.2174089 52.4397435,58.038855 52.704592,57.7874472 L52.704592,55.2933808 C52.704592,55.1219664 52.6884071,54.994836 52.6560367,54.9119858 C52.6236663,54.8291355 52.5589265,54.7705698 52.4618154,54.7362869 C52.3647043,54.702004 52.2160971,54.6848629 52.0159893,54.6848629 C52.0042182,54.6848629 51.9983328,54.6677217 51.9983328,54.6334388 C51.9983328,54.5991559 52.0042182,54.5820148 52.0159893,54.5820148 L52.4044318,54.5905854 C52.6163107,54.6020131 52.7958164,54.6077268 52.9429545,54.6077268 C53.072436,54.6077268 53.248999,54.6020131 53.4726489,54.5905854 L53.8610914,54.5820148 Z M60.0232028,58.4902426 C60.0349739,58.4902426 60.0408593,58.5073838 60.0408593,58.5416667 C60.0408593,58.5759495 60.0349739,58.5930907 60.0232028,58.5930907 L59.0962377,58.5930907 C58.9902983,58.5930907 58.7960789,58.4216789 58.5135738,58.0788502 C58.2310687,57.7360215 57.8926563,57.2617822 57.4983262,56.6561181 C57.3453027,56.6789734 57.2217085,56.6904008 57.1275402,56.6904008 C57.0451429,56.6904008 56.9156633,56.6846871 56.7390976,56.6732595 L56.7390976,57.898866 C56.7390976,58.0759942 56.7552826,58.204553 56.7876529,58.2845464 C56.8200233,58.3645398 56.8818204,58.4188202 56.973046,58.4473892 C57.0642716,58.4759583 57.2128788,58.4902426 57.4188721,58.4902426 C57.4365287,58.4902426 57.4453568,58.5073838 57.4453568,58.5416667 C57.4453568,58.5759495 57.4365287,58.5930907 57.4188721,58.5930907 C57.259963,58.5930907 57.1363689,58.5902338 57.048086,58.58452 L56.5095634,58.5759494 L55.9975255,58.58452 C55.9033571,58.5902338 55.7709348,58.5930907 55.6002547,58.5930907 C55.5884836,58.5930907 55.5825982,58.5759495 55.5825982,58.5416667 C55.5825982,58.5073838 55.5884836,58.4902426 55.6002547,58.4902426 C55.806248,58.4902426 55.9563265,58.4759583 56.0504949,58.4473892 C56.1446633,58.4188202 56.209403,58.3631113 56.2447162,58.2802611 C56.2800293,58.1974108 56.2976856,58.0702804 56.2976856,57.898866 L56.2976856,55.2762394 C56.2976856,55.1048251 56.2800293,54.9791231 56.2447162,54.8991297 C56.209403,54.8191364 56.1446633,54.7634275 56.0504949,54.7320016 C55.9563265,54.7005756 55.8091907,54.6848629 55.6090829,54.6848629 C55.5973119,54.6848629 55.5914264,54.6677217 55.5914264,54.6334388 C55.5914264,54.5991559 55.5973119,54.5820148 55.6090829,54.5820148 L56.0063537,54.5905854 C56.2182325,54.6020131 56.3859674,54.6077268 56.5095634,54.6077268 C56.6213883,54.6077268 56.7214407,54.6048699 56.8097235,54.5991561 C56.8980064,54.5934423 56.9715743,54.5877286 57.0304295,54.5820148 C57.2128807,54.5648733 57.3835583,54.5563027 57.5424674,54.5563027 C57.9014843,54.5563027 58.1766284,54.6277243 58.3679079,54.7705696 C58.5591874,54.9134149 58.6548257,55.1191091 58.6548257,55.3876582 C58.6548257,55.6219245 58.5886145,55.8361892 58.4561903,56.0304589 C58.323766,56.2247285 58.1457316,56.3818559 57.9220818,56.501846 C58.2575566,57.0275167 58.538586,57.4303344 58.7651787,57.7103112 C58.9917713,57.990288 59.2021756,58.1902684 59.3963978,58.3102584 C59.5906201,58.4302485 59.799553,58.4902426 60.0232028,58.4902426 Z M56.7390976,56.5104167 C56.8509225,56.5332719 57.0010011,56.5446994 57.1893378,56.5446994 C57.5601258,56.5446994 57.8190849,56.4661356 57.966223,56.3090058 C58.113361,56.151876 58.186929,55.9218985 58.186929,55.6190664 C58.186929,54.9848333 57.8926572,54.6677215 57.304105,54.6677215 C57.0686841,54.6677215 56.9156628,54.7162882 56.8450365,54.813423 C56.7744102,54.9105578 56.7390976,55.0705421 56.7390976,55.2933808 L56.7390976,56.5104167 Z M65.4084292,54.5820148 C65.4202002,54.5820148 65.4260856,54.5991559 65.4260856,54.6334388 C65.4260856,54.6677217 65.4202002,54.6848629 65.4084292,54.6848629 C65.2318635,54.6848629 65.086199,54.7262874 64.9714313,54.8091377 C64.8566636,54.8919879 64.7521971,55.047687 64.6580288,55.2762394 L63.3073081,58.58452 C63.1778266,58.9102073 63.0100917,59.2016073 62.8040984,59.4587289 C62.5981051,59.7158504 62.3832868,59.8958328 62.1596369,59.9986814 C62.1419803,60.0043952 62.1110818,59.9915393 62.0669404,59.9601134 C62.022799,59.9286874 61.986015,59.8901198 61.9565874,59.8444093 C61.9212742,59.7872711 61.9006752,59.7258486 61.8947897,59.6601397 C61.8889042,59.5944309 61.8947896,59.5587201 61.9124462,59.5530063 C62.2008368,59.5072958 62.4465537,59.4158762 62.6496042,59.2787447 C62.8526547,59.1416132 63.0189183,58.9302054 63.1483998,58.6445148 L61.5151754,55.2933808 C61.3974649,55.0534007 61.2944698,54.8919879 61.206187,54.8091377 C61.1179041,54.7262874 60.9972527,54.6848629 60.8442292,54.6848629 C60.8265726,54.6848629 60.8177444,54.6677217 60.8177444,54.6334388 C60.8177444,54.5991559 60.8265726,54.5820148 60.8442292,54.5820148 L61.170874,54.5905854 C61.3121266,54.6020131 61.4180644,54.6077268 61.4886907,54.6077268 C61.6299432,54.6077268 61.8065062,54.6020131 62.0183851,54.5905854 L62.3626864,54.5820148 C62.3744575,54.5820148 62.3803429,54.5991559 62.3803429,54.6334388 C62.3803429,54.6677217 62.3744575,54.6848629 62.3626864,54.6848629 C62.0566392,54.6848629 61.9036179,54.7734256 61.9036179,54.9505538 C61.9036179,55.0305472 61.9271597,55.1162531 61.9742439,55.207674 L63.3955905,58.0531382 L64.4902922,55.2248154 C64.5256054,55.1276806 64.5432617,55.0448316 64.5432617,54.9762658 C64.5432617,54.8734172 64.4961782,54.7991388 64.4020098,54.7534283 C64.3078415,54.7077178 64.1548202,54.6848629 63.9429413,54.6848629 C63.9252848,54.6848629 63.9164566,54.6677217 63.9164566,54.6334388 C63.9164566,54.5991559 63.9252848,54.5820148 63.9429413,54.5820148 L64.2695862,54.5905854 C64.4343809,54.6020131 64.5844594,54.6077268 64.7198265,54.6077268 C64.8198803,54.6077268 64.9405317,54.6020131 65.0817843,54.5905854 L65.4084292,54.5820148 Z M75.7727828,58.4902426 C75.7963249,58.4902426 75.8080957,58.5073838 75.8080957,58.5416667 C75.8080957,58.5759495 75.7963249,58.5930907 75.7727828,58.5930907 C75.6668434,58.5930907 75.4961658,58.587377 75.2607449,58.5759494 C75.037095,58.5645217 74.8723028,58.558808 74.7663634,58.558808 C74.6427674,58.558808 74.480918,58.5645217 74.2808102,58.5759494 C74.0924735,58.587377 73.9512231,58.5930907 73.8570547,58.5930907 C73.8335126,58.5930907 73.8217418,58.5759495 73.8217418,58.5416667 C73.8217418,58.5073838 73.8335126,58.4902426 73.8570547,58.4902426 C74.0983611,58.4902426 74.2719815,58.4688161 74.3779209,58.4259625 C74.4838603,58.3831089 74.5368292,58.3102589 74.5368292,58.2074103 C74.5368292,58.127417 74.5044593,58.0159993 74.4397185,57.873154 L73.389158,55.6876318 L71.7029642,55.6876318 L70.9084226,57.5388977 C70.8260253,57.7331673 70.7848272,57.8931516 70.7848272,58.0188555 C70.7848272,58.184556 70.8554525,58.3045443 70.996705,58.3788238 C71.1379575,58.4531034 71.3586613,58.4902426 71.658823,58.4902426 C71.6882506,58.4902426 71.7029642,58.5073838 71.7029642,58.5416667 C71.7029642,58.5759495 71.6882506,58.5930907 71.658823,58.5930907 C71.5528836,58.5930907 71.3998623,58.587377 71.1997545,58.5759494 C70.9761047,58.5645217 70.7818853,58.558808 70.6170907,58.558808 C70.4699526,58.558808 70.2963323,58.5645217 70.0962245,58.5759494 C69.9196589,58.587377 69.7754657,58.5930907 69.6636408,58.5930907 C69.6342132,58.5930907 69.6194996,58.5759495 69.6194996,58.5416667 C69.6194996,58.5073838 69.6342132,58.4902426 69.6636408,58.4902426 C69.8284354,58.4902426 69.9682145,58.461674 70.0829822,58.4045359 C70.1977499,58.3473977 70.3066304,58.2445507 70.409627,58.0959915 C70.5126237,57.9474324 70.6229756,57.7360246 70.740686,57.4617616 L72.5857882,53.150712 C72.5975592,53.1335706 72.6166869,53.125 72.6431717,53.125 C72.6696566,53.125 72.6858415,53.1335706 72.6917271,53.150712 L74.7398787,57.4189082 C74.8752457,57.7103126 74.9958971,57.9317195 75.1018365,58.0831355 C75.2077759,58.2345516 75.3122424,58.3402555 75.4152391,58.4002505 C75.5182357,58.4602455 75.6374157,58.4902426 75.7727828,58.4902426 Z M73.3185321,55.524789 L72.4975058,53.8277954 L71.7735901,55.524789 L73.3185321,55.524789 Z M78.3682853,57.8645833 C78.3682853,58.0302839 78.3844702,58.1545574 78.4168406,58.2374077 C78.449211,58.320258 78.5124794,58.3788237 78.6066478,58.4131065 C78.7008161,58.4473894 78.8420666,58.4645306 79.0304033,58.4645306 L79.7366625,58.4645306 C80.3134437,58.4645306 80.6518562,58.121707 80.7519101,57.4360496 C80.7519101,57.4246219 80.7636809,57.4189082 80.787223,57.4189082 C80.8048796,57.4189082 80.8210645,57.4217651 80.8357783,57.4274789 C80.8504921,57.4331927 80.8578489,57.4417633 80.8578489,57.4531909 C80.8166503,57.6988848 80.7960512,58.0359947 80.7960512,58.4645306 C80.7960512,58.5102411 80.7857517,58.543095 80.7651524,58.5630933 C80.7445531,58.5830917 80.7107118,58.5930907 80.6636277,58.5930907 L77.2294423,58.5930907 C77.2176713,58.5930907 77.2117859,58.5759495 77.2117859,58.5416667 C77.2117859,58.5073838 77.2176713,58.4902426 77.2294423,58.4902426 C77.4295501,58.4902426 77.576686,58.4759583 77.6708543,58.4473892 C77.7650227,58.4188202 77.8282911,58.3631113 77.8606615,58.2802611 C77.8930319,58.1974108 77.9092168,58.0702804 77.9092168,57.898866 L77.9092168,55.2762394 C77.9092168,55.1048251 77.8930319,54.9791231 77.8606615,54.8991297 C77.8282911,54.8191364 77.7650227,54.7634275 77.6708543,54.7320016 C77.576686,54.7005756 77.4295501,54.6848629 77.2294423,54.6848629 C77.2176713,54.6848629 77.2117859,54.6677217 77.2117859,54.6334388 C77.2117859,54.5991559 77.2176713,54.5820148 77.2294423,54.5820148 L77.6178849,54.5905854 C77.8297637,54.6020131 78.0004413,54.6077268 78.1299228,54.6077268 C78.2770609,54.6077268 78.4565666,54.6020131 78.6684454,54.5905854 L79.0392315,54.5820148 C79.0510026,54.5820148 79.056888,54.5991559 79.056888,54.6334388 C79.056888,54.6677217 79.0510026,54.6848629 79.0392315,54.6848629 C78.8391237,54.6848629 78.6934592,54.7005756 78.6022336,54.7320016 C78.511008,54.7634275 78.449211,54.8205648 78.4168406,54.9034151 C78.3844702,54.9862654 78.3682853,55.1133958 78.3682853,55.2848101 L78.3682853,57.8645833 Z M83.5504621,57.8645833 C83.5504621,58.0302839 83.566647,58.1545574 83.5990174,58.2374077 C83.6313878,58.320258 83.6946562,58.3788237 83.7888246,58.4131065 C83.8829929,58.4473894 84.0242434,58.4645306 84.2125801,58.4645306 L84.9188393,58.4645306 C85.4956205,58.4645306 85.834033,58.121707 85.9340869,57.4360496 C85.9340869,57.4246219 85.9458577,57.4189082 85.9693998,57.4189082 C85.9870564,57.4189082 86.0032413,57.4217651 86.0179551,57.4274789 C86.0326689,57.4331927 86.0400257,57.4417633 86.0400257,57.4531909 C85.9988271,57.6988848 85.9782281,58.0359947 85.9782281,58.4645306 C85.9782281,58.5102411 85.9679285,58.543095 85.9473292,58.5630933 C85.9267299,58.5830917 85.8928886,58.5930907 85.8458045,58.5930907 L82.4116191,58.5930907 C82.3998481,58.5930907 82.3939627,58.5759495 82.3939627,58.5416667 C82.3939627,58.5073838 82.3998481,58.4902426 82.4116191,58.4902426 C82.6117269,58.4902426 82.7588628,58.4759583 82.8530311,58.4473892 C82.9471995,58.4188202 83.0104679,58.3631113 83.0428383,58.2802611 C83.0752087,58.1974108 83.0913936,58.0702804 83.0913936,57.898866 L83.0913936,55.2762394 C83.0913936,55.1048251 83.0752087,54.9791231 83.0428383,54.8991297 C83.0104679,54.8191364 82.9471995,54.7634275 82.8530311,54.7320016 C82.7588628,54.7005756 82.6117269,54.6848629 82.4116191,54.6848629 C82.3998481,54.6848629 82.3939627,54.6677217 82.3939627,54.6334388 C82.3939627,54.5991559 82.3998481,54.5820148 82.4116191,54.5820148 L82.8000617,54.5905854 C83.0119405,54.6020131 83.1826181,54.6077268 83.3120996,54.6077268 C83.4592377,54.6077268 83.6387434,54.6020131 83.8506222,54.5905854 L84.2214083,54.5820148 C84.2331794,54.5820148 84.2390648,54.5991559 84.2390648,54.6334388 C84.2390648,54.6677217 84.2331794,54.6848629 84.2214083,54.6848629 C84.0213005,54.6848629 83.875636,54.7005756 83.7844104,54.7320016 C83.6931848,54.7634275 83.6313878,54.8205648 83.5990174,54.9034151 C83.566647,54.9862654 83.5504621,55.1133958 83.5504621,55.2848101 L83.5504621,57.8645833 Z M87.558483,56.844673 C87.5467119,56.8503868 87.5364124,56.8318172 87.5275841,56.7889636 C87.5187559,56.74611 87.5143418,56.6989718 87.5143418,56.6475475 C87.5143418,56.5446988 87.5231699,56.4904184 87.5408265,56.4847046 L89.4300698,56.184731 C89.4418409,56.1790172 89.4521404,56.1947299 89.4609687,56.2318697 C89.469797,56.2690095 89.474211,56.310434 89.474211,56.3561445 C89.474211,56.4704207 89.4594975,56.5332717 89.4300698,56.5446994 L87.558483,56.844673 Z M92.564095,57.898866 C92.564095,58.0759942 92.5832227,58.204553 92.6214785,58.2845464 C92.6597344,58.3645398 92.731831,58.4188202 92.8377704,58.4473892 C92.9437098,58.4759583 93.1143874,58.4902426 93.3498083,58.4902426 C93.3615794,58.4902426 93.3674648,58.5073838 93.3674648,58.5416667 C93.3674648,58.5759495 93.3615794,58.5930907 93.3498083,58.5930907 C93.1732427,58.5930907 93.034935,58.5902338 92.9348811,58.58452 L92.3169043,58.5759494 L91.7254122,58.58452 C91.6194728,58.5902338 91.4752797,58.5930907 91.2928284,58.5930907 C91.2751719,58.5930907 91.2663437,58.5759495 91.2663437,58.5416667 C91.2663437,58.5073838 91.2751719,58.4902426 91.2928284,58.4902426 C91.5223638,58.4902426 91.6915701,58.4759583 91.8004522,58.4473892 C91.9093344,58.4188202 91.9843737,58.3631113 92.0255724,58.2802611 C92.066771,58.1974108 92.08737,58.0702804 92.08737,57.898866 L92.08737,53.9306435 C92.08737,53.7592291 92.066771,53.6335271 92.0255724,53.5535338 C91.9843737,53.4735404 91.9093344,53.4178316 91.8004522,53.3864056 C91.6915701,53.3549796 91.5223638,53.3392669 91.2928284,53.3392669 C91.2751719,53.3392669 91.2663437,53.3221257 91.2663437,53.2878428 C91.2663437,53.25356 91.2751719,53.2364188 91.2928284,53.2364188 L91.7254122,53.2449895 C91.9726042,53.2564171 92.1697662,53.2621308 92.3169043,53.2621308 C92.4816989,53.2621308 92.6876891,53.2564171 92.9348811,53.2449895 L93.3498083,53.2364188 C93.3615794,53.2364188 93.3674648,53.25356 93.3674648,53.2878428 C93.3674648,53.3221257 93.3615794,53.3392669 93.3498083,53.3392669 C93.120273,53.3392669 92.9510667,53.3564081 92.8421845,53.3906909 C92.7333024,53.4249738 92.6597344,53.4835395 92.6214785,53.5663898 C92.5832227,53.64924 92.564095,53.7763704 92.564095,53.9477848 L92.564095,57.898866 Z M100.103412,58.4902426 C100.115183,58.4902426 100.121068,58.5073838 100.121068,58.5416667 C100.121068,58.5759495 100.115183,58.5930907 100.103412,58.5930907 C99.9562738,58.5930907 99.8415078,58.5902338 99.7591105,58.58452 L99.2912138,58.5759494 L98.7350347,58.58452 C98.6467518,58.5902338 98.5261004,58.5930907 98.3730768,58.5930907 C98.3613058,58.5930907 98.3554203,58.5759495 98.3554203,58.5416667 C98.3554203,58.5073838 98.3613058,58.4902426 98.3730768,58.4902426 C98.5731846,58.4902426 98.7232632,58.4731014 98.8233171,58.4388186 C98.9233709,58.4045357 98.9910534,58.34597 99.0263666,58.2631197 C99.0616797,58.1802694 99.079336,58.053139 99.079336,57.8817247 L99.079336,56.1761603 C99.079336,55.6219206 98.9748696,55.236244 98.7659335,55.0191192 C98.5569974,54.8019943 98.2583116,54.6934335 97.8698671,54.6934335 C97.5991331,54.6934335 97.3475308,54.7462855 97.1150526,54.851991 C96.8825745,54.9576966 96.6309722,55.1391074 96.3602381,55.3962289 L96.3602381,57.8817247 C96.3602381,58.053139 96.3764231,58.1802694 96.4087935,58.2631197 C96.4411638,58.34597 96.5044322,58.4045357 96.5986006,58.4388186 C96.692769,58.4731014 96.8399048,58.4902426 97.0400126,58.4902426 C97.0576692,58.4902426 97.0664973,58.5073838 97.0664973,58.5416667 C97.0664973,58.5759495 97.0576692,58.5930907 97.0400126,58.5930907 C96.8811035,58.5930907 96.7575094,58.5902338 96.6692265,58.58452 L96.1218757,58.5759494 L95.5921813,58.58452 C95.4980129,58.5902338 95.3685333,58.5930907 95.2037387,58.5930907 C95.1919677,58.5930907 95.1860822,58.5759495 95.1860822,58.5416667 C95.1860822,58.5073838 95.1919677,58.4902426 95.2037387,58.4902426 C95.409732,58.4902426 95.5612819,58.4745299 95.6583931,58.4431039 C95.7555042,58.4116779 95.8231867,58.3559691 95.8614426,58.2759757 C95.8996985,58.1959824 95.9188261,58.0702804 95.9188261,57.898866 L95.9188261,55.2762394 C95.9188261,55.1048251 95.9011698,54.9791231 95.8658567,54.8991297 C95.8305436,54.8191364 95.7658038,54.7634275 95.6716354,54.7320016 C95.5774671,54.7005756 95.4303312,54.6848629 95.2302234,54.6848629 C95.2125669,54.6848629 95.2037387,54.6677217 95.2037387,54.6334388 C95.2037387,54.5991559 95.2125669,54.5820148 95.2302234,54.5820148 L95.804059,54.5905854 L96.2013298,54.5820148 C96.2719561,54.5820148 96.3160968,54.5920138 96.3337534,54.6120121 C96.35141,54.6320105 96.3602381,54.6762918 96.3602381,54.7448576 L96.3602381,55.2505274 C96.6486287,54.9819783 96.9311296,54.7862831 97.2077492,54.6634362 C97.4843687,54.5405892 97.772755,54.4791667 98.0729167,54.4791667 C98.5084453,54.4791667 98.8586287,54.5962981 99.1234772,54.8305643 C99.3883257,55.0648306 99.520748,55.4133679 99.520748,55.8761867 L99.520748,57.898866 C99.520748,58.0702804 99.5354616,58.1974108 99.5648892,58.2802611 C99.5943168,58.3631113 99.6487571,58.4188202 99.7282116,58.4473892 C99.8076662,58.4759583 99.9327317,58.4902426 100.103412,58.4902426 Z M104.02315,54.4791667 C104.2468,54.4791667 104.486632,54.5005931 104.742652,54.5434467 C104.998672,54.5863003 105.206134,54.6477229 105.365043,54.7277162 C105.406241,54.7448577 105.432726,54.7619989 105.444497,54.7791403 C105.456268,54.7962817 105.465096,54.8277072 105.470982,54.8734177 L105.568092,55.7561973 C105.568092,55.7733387 105.551907,55.7847661 105.519537,55.79048 C105.487167,55.7961938 105.468039,55.7876232 105.462153,55.7647679 C105.379756,55.3648011 105.195836,55.0691158 104.910388,54.8777031 C104.624941,54.6862904 104.261515,54.5905854 103.820101,54.5905854 C103.502283,54.5905854 103.213896,54.6705776 102.954933,54.8305643 C102.69597,54.9905511 102.492923,55.211958 102.345785,55.4947917 C102.198647,55.7776254 102.125079,56.0933087 102.125079,56.4418513 C102.125079,56.8018214 102.198647,57.1460734 102.345785,57.4746176 C102.492923,57.8031618 102.713627,58.0717069 103.007903,58.2802611 C103.302179,58.4888152 103.655305,58.5930907 104.067292,58.5930907 C104.438079,58.5930907 104.75295,58.4945289 105.011913,58.2974024 C105.270876,58.1002759 105.447439,57.7988768 105.541608,57.3931962 C105.541608,57.3760548 105.556321,57.3674842 105.585749,57.3674842 C105.59752,57.3674842 105.610762,57.3717695 105.625476,57.3803402 C105.64019,57.3889109 105.647546,57.3960531 105.647546,57.4017669 L105.523951,58.3102584 C105.518066,58.3559689 105.509237,58.3873944 105.497466,58.4045359 C105.485695,58.4216773 105.453325,58.4416753 105.400356,58.4645306 C104.947171,58.6188035 104.476336,58.6959388 103.987837,58.6959388 C103.434598,58.6959388 102.978477,58.587378 102.61946,58.3702532 C102.260443,58.1531283 102.000013,57.8817263 101.838161,57.556039 C101.676309,57.2303517 101.595384,56.9018125 101.595384,56.5704114 C101.595384,56.1818722 101.701322,55.8276211 101.913201,55.5076477 C102.12508,55.1876742 102.416409,54.9362702 102.787197,54.7534283 C103.157985,54.5705863 103.569965,54.4791667 104.02315,54.4791667 Z M108.596179,57.8645833 C108.596179,58.0302839 108.612364,58.1545574 108.644734,58.2374077 C108.677104,58.320258 108.740373,58.3788237 108.834541,58.4131065 C108.928709,58.4473894 109.06996,58.4645306 109.258297,58.4645306 L109.964556,58.4645306 C110.541337,58.4645306 110.879749,58.121707 110.979803,57.4360496 C110.979803,57.4246219 110.991574,57.4189082 111.015116,57.4189082 C111.032773,57.4189082 111.048958,57.4217651 111.063672,57.4274789 C111.078385,57.4331927 111.085742,57.4417633 111.085742,57.4531909 C111.044544,57.6988848 111.023945,58.0359947 111.023945,58.4645306 C111.023945,58.5102411 111.013645,58.543095 110.993046,58.5630933 C110.972446,58.5830917 110.938605,58.5930907 110.891521,58.5930907 L107.457336,58.5930907 C107.445565,58.5930907 107.439679,58.5759495 107.439679,58.5416667 C107.439679,58.5073838 107.445565,58.4902426 107.457336,58.4902426 C107.657443,58.4902426 107.804579,58.4759583 107.898748,58.4473892 C107.992916,58.4188202 108.056184,58.3631113 108.088555,58.2802611 C108.120925,58.1974108 108.13711,58.0702804 108.13711,57.898866 L108.13711,55.2762394 C108.13711,55.1048251 108.120925,54.9791231 108.088555,54.8991297 C108.056184,54.8191364 107.992916,54.7634275 107.898748,54.7320016 C107.804579,54.7005756 107.657443,54.6848629 107.457336,54.6848629 C107.445565,54.6848629 107.439679,54.6677217 107.439679,54.6334388 C107.439679,54.5991559 107.445565,54.5820148 107.457336,54.5820148 L107.845778,54.5905854 C108.057657,54.6020131 108.228335,54.6077268 108.357816,54.6077268 C108.504954,54.6077268 108.68446,54.6020131 108.896339,54.5905854 L109.267125,54.5820148 C109.278896,54.5820148 109.284781,54.5991559 109.284781,54.6334388 C109.284781,54.6677217 109.278896,54.6848629 109.267125,54.6848629 C109.067017,54.6848629 108.921353,54.7005756 108.830127,54.7320016 C108.738901,54.7634275 108.677104,54.8205648 108.644734,54.9034151 C108.612364,54.9862654 108.596179,55.1133958 108.596179,55.2848101 L108.596179,57.8645833 Z M117.477388,54.5820148 C117.489159,54.5820148 117.495044,54.5991559 117.495044,54.6334388 C117.495044,54.6677217 117.489159,54.6848629 117.477388,54.6848629 C117.271395,54.6848629 117.119845,54.7005756 117.022734,54.7320016 C116.925622,54.7634275 116.85794,54.8191364 116.819684,54.8991297 C116.781428,54.9791231 116.7623,55.1048251 116.7623,55.2762394 L116.7623,57.898866 C116.7623,58.0702804 116.779957,58.1974108 116.81527,58.2802611 C116.850583,58.3631113 116.915323,58.4188202 117.009491,58.4473892 C117.10366,58.4759583 117.250795,58.4902426 117.450903,58.4902426 C117.46856,58.4902426 117.477388,58.5073838 117.477388,58.5416667 C117.477388,58.5759495 117.46856,58.5930907 117.450903,58.5930907 L116.877068,58.58452 L116.479797,58.5930907 C116.409171,58.5930907 116.36503,58.5845201 116.347373,58.5673787 C116.329717,58.5502372 116.320888,58.5045274 116.320888,58.4302479 L116.320888,57.924578 C116.032498,58.1931272 115.751468,58.3888223 115.477792,58.5116693 C115.204115,58.6345162 114.9172,58.6959388 114.617038,58.6959388 C114.187395,58.6959388 113.837212,58.587378 113.566478,58.3702532 C113.295744,58.1531283 113.160379,57.8645851 113.160379,57.504615 L113.160379,55.2762394 C113.160379,55.1048251 113.145665,54.9791231 113.116237,54.8991297 C113.08681,54.8191364 113.03237,54.7634275 112.952915,54.7320016 C112.87346,54.7005756 112.748395,54.6848629 112.577715,54.6848629 C112.565944,54.6848629 112.560058,54.6677217 112.560058,54.6334388 C112.560058,54.5991559 112.565944,54.5820148 112.577715,54.5820148 L112.922016,54.5905854 C113.122124,54.6020131 113.275145,54.6077268 113.381085,54.6077268 C113.528223,54.6077268 113.713614,54.6020131 113.937264,54.5905854 L114.30805,54.5820148 C114.319821,54.5820148 114.325706,54.5991559 114.325706,54.6334388 C114.325706,54.6677217 114.319821,54.6848629 114.30805,54.6848629 C114.107942,54.6848629 113.957863,54.702004 113.85781,54.7362869 C113.757756,54.7705698 113.690073,54.8291355 113.65476,54.9119858 C113.619447,54.994836 113.601791,55.1219664 113.601791,55.2933808 L113.601791,57.1960707 C113.601791,58.0531425 114.007886,58.4816719 114.820088,58.4816719 C115.084936,58.4816719 115.335067,58.42882 115.570488,58.3231144 C115.805909,58.2174089 116.05604,58.038855 116.320888,57.7874472 L116.320888,55.2933808 C116.320888,55.1219664 116.304704,54.994836 116.272333,54.9119858 C116.239963,54.8291355 116.175223,54.7705698 116.078112,54.7362869 C115.981001,54.702004 115.832394,54.6848629 115.632286,54.6848629 C115.620515,54.6848629 115.614629,54.6677217 115.614629,54.6334388 C115.614629,54.5991559 115.620515,54.5820148 115.632286,54.5820148 L116.020728,54.5905854 C116.232607,54.6020131 116.412113,54.6077268 116.559251,54.6077268 C116.688732,54.6077268 116.865295,54.6020131 117.088945,54.5905854 L117.477388,54.5820148 Z M119.878669,55.2933808 C119.878669,55.470509 119.924281,55.6233511 120.015507,55.7519119 C120.106732,55.8804727 120.220027,55.987605 120.355394,56.0733122 C120.490761,56.1590194 120.67321,56.2618665 120.902745,56.3818565 C121.138166,56.4961328 121.3265,56.6018367 121.467752,56.6989715 C121.609005,56.7961063 121.729656,56.9146661 121.82971,57.0546545 C121.929764,57.1946429 121.97979,57.3646263 121.97979,57.5646097 C121.97979,57.8845832 121.848839,58.1531283 121.586934,58.3702532 C121.325028,58.587378 120.97043,58.6959388 120.523131,58.6959388 C120.152343,58.6959388 119.819816,58.5988055 119.52554,58.4045359 C119.496112,58.3873944 119.476984,58.3673964 119.468156,58.3445411 C119.459328,58.3216859 119.451971,58.2874035 119.446085,58.241693 L119.340147,57.4274789 C119.334261,57.4046236 119.348975,57.3903393 119.384288,57.3846255 C119.419601,57.3789117 119.4402,57.3874823 119.446085,57.4103375 C119.510826,57.7417386 119.663847,58.0188544 119.905154,58.241693 C120.14646,58.4645317 120.41719,58.5759494 120.717352,58.5759494 C120.929231,58.5759494 121.114622,58.5159552 121.273531,58.3959652 C121.43244,58.2759751 121.511894,58.0874222 121.511894,57.8303006 C121.511894,57.6417448 121.46481,57.4789036 121.370642,57.3417721 C121.276473,57.2046407 121.161707,57.0889377 121.02634,56.9946598 C120.890973,56.9003819 120.711468,56.7961064 120.487818,56.6818302 C120.252397,56.5561263 120.067006,56.4461371 119.931639,56.3518592 C119.796272,56.2575813 119.681506,56.1418783 119.587337,56.0047468 C119.493169,55.8676153 119.446085,55.7019173 119.446085,55.5076477 C119.446085,55.1819604 119.56968,54.929128 119.816871,54.7491429 C120.064063,54.5691579 120.367163,54.4791667 120.72618,54.4791667 C120.991029,54.4791667 121.267644,54.5448745 121.556035,54.6762922 C121.609004,54.7048612 121.642846,54.7262877 121.657559,54.7405723 C121.672273,54.7548568 121.682573,54.7791401 121.688458,54.813423 L121.759084,55.5419304 C121.759084,55.5647856 121.742899,55.5790699 121.710529,55.5847837 C121.678159,55.5904976 121.659031,55.581927 121.653145,55.5590717 C121.611947,55.307664 121.488353,55.0834002 121.282359,54.8862737 C121.076366,54.6891472 120.838006,54.5905854 120.567272,54.5905854 C120.349508,54.5905854 120.180301,54.6562933 120.059648,54.787711 C119.938995,54.9191286 119.878669,55.0876836 119.878669,55.2933808 Z M124.919594,57.898866 C124.919594,58.0759942 124.935779,58.204553 124.968149,58.2845464 C125.00052,58.3645398 125.062317,58.4188202 125.153542,58.4473892 C125.244768,58.4759583 125.393375,58.4902426 125.599369,58.4902426 C125.617025,58.4902426 125.625853,58.5073838 125.625853,58.5416667 C125.625853,58.5759495 125.617025,58.5930907 125.599369,58.5930907 C125.440459,58.5930907 125.316865,58.5902338 125.228582,58.58452 L124.681232,58.5759494 L124.160365,58.58452 C124.066197,58.5902338 123.936718,58.5930907 123.771923,58.5930907 C123.760152,58.5930907 123.754266,58.5759495 123.754266,58.5416667 C123.754266,58.5073838 123.760152,58.4902426 123.771923,58.4902426 C123.977916,58.4902426 124.127995,58.4759583 124.222163,58.4473892 C124.316332,58.4188202 124.3796,58.3631113 124.41197,58.2802611 C124.444341,58.1974108 124.460526,58.0702804 124.460526,57.898866 L124.460526,55.2762394 C124.460526,55.1048251 124.444341,54.9791231 124.41197,54.8991297 C124.3796,54.8191364 124.31486,54.7634275 124.217749,54.7320016 C124.120638,54.7005756 123.972031,54.6848629 123.771923,54.6848629 C123.760152,54.6848629 123.754266,54.6677217 123.754266,54.6334388 C123.754266,54.5991559 123.760152,54.5820148 123.771923,54.5820148 L124.160365,54.5905854 C124.384015,54.6020131 124.557636,54.6077268 124.681232,54.6077268 C124.82837,54.6077268 125.013761,54.6020131 125.237411,54.5905854 L125.599369,54.5820148 C125.617025,54.5820148 125.625853,54.5991559 125.625853,54.6334388 C125.625853,54.6677217 125.617025,54.6848629 125.599369,54.6848629 C125.405146,54.6848629 125.260953,54.702004 125.166785,54.7362869 C125.072616,54.7705698 125.007877,54.8291355 124.972564,54.9119858 C124.93725,54.994836 124.919594,55.1219664 124.919594,55.2933808 L124.919594,57.898866 Z M131.620228,54.5820148 C131.631999,54.5820148 131.637885,54.5991559 131.637885,54.6334388 C131.637885,54.6677217 131.631999,54.6848629 131.620228,54.6848629 C131.443662,54.6848629 131.297998,54.7262874 131.18323,54.8091377 C131.068463,54.8919879 130.963996,55.047687 130.869828,55.2762394 L129.519107,58.58452 C129.513222,58.6073753 129.480852,58.6188027 129.421996,58.6188027 C129.363141,58.6188027 129.330771,58.6073753 129.324886,58.58452 L127.726974,55.2933808 C127.609264,55.0534007 127.506269,54.8919879 127.417986,54.8091377 C127.329703,54.7262874 127.209052,54.6848629 127.056028,54.6848629 C127.038372,54.6848629 127.029543,54.6677217 127.029543,54.6334388 C127.029543,54.5991559 127.038372,54.5820148 127.056028,54.5820148 L127.382673,54.5905854 C127.523926,54.6020131 127.629863,54.6077268 127.70049,54.6077268 C127.841742,54.6077268 128.018305,54.6020131 128.230184,54.5905854 L128.574485,54.5820148 C128.586256,54.5820148 128.592142,54.5991559 128.592142,54.6334388 C128.592142,54.6677217 128.586256,54.6848629 128.574485,54.6848629 C128.268438,54.6848629 128.115417,54.7734256 128.115417,54.9505538 C128.115417,55.0305472 128.138959,55.1162531 128.186043,55.207674 L129.589733,58.0274261 L130.702091,55.2248154 C130.737404,55.1276806 130.755061,55.0448316 130.755061,54.9762658 C130.755061,54.8734172 130.707977,54.7991388 130.613809,54.7534283 C130.51964,54.7077178 130.366619,54.6848629 130.15474,54.6848629 C130.137084,54.6848629 130.128256,54.6677217 130.128256,54.6334388 C130.128256,54.5991559 130.137084,54.5820148 130.15474,54.5820148 L130.481385,54.5905854 C130.64618,54.6020131 130.796258,54.6077268 130.931625,54.6077268 C131.031679,54.6077268 131.152331,54.6020131 131.293583,54.5905854 L131.620228,54.5820148 Z M136.263882,58.1302742 C136.281539,58.1302742 136.297724,58.1402733 136.312438,58.1602716 C136.327151,58.18027 136.328623,58.1988396 136.316852,58.215981 C135.89898,58.5359545 135.442858,58.6959388 134.948475,58.6959388 C134.536488,58.6959388 134.184833,58.6002339 133.8935,58.4088212 C133.602167,58.2174085 133.382934,57.967433 133.235796,57.6588871 C133.088658,57.3503413 133.01509,57.0189452 133.01509,56.6646888 C133.01509,56.264722 133.110728,55.8976151 133.302008,55.5633571 C133.493287,55.2290991 133.755189,54.9648392 134.087721,54.7705696 C134.420253,54.5763 134.789564,54.4791667 135.195665,54.4791667 C135.53114,54.4791667 135.794513,54.5677294 135.985793,54.7448576 C136.177072,54.9219858 136.272711,55.1591054 136.272711,55.4562236 C136.272711,55.5247894 136.265354,55.573356 136.25064,55.6019251 C136.235926,55.6304942 136.20797,55.6447785 136.166772,55.6447785 L133.61541,55.6533491 C133.55067,55.8761878 133.5183,56.1190212 133.5183,56.3818565 C133.5183,56.7646819 133.587454,57.1103624 133.725763,57.4189082 C133.864073,57.7274541 134.062707,57.9717159 134.32167,58.1517009 C134.580633,58.331686 134.883732,58.4216772 135.230978,58.4216772 C135.642965,58.4216772 135.98432,58.3245439 136.255054,58.1302742 L136.263882,58.1302742 Z M134.895505,54.6505802 C134.607115,54.6505802 134.354041,54.7291439 134.136277,54.8862737 C133.918512,55.0434036 133.756663,55.2648105 133.650723,55.550501 L135.743016,55.5162183 C135.748902,55.2419554 135.673862,55.0291191 135.517896,54.8777031 C135.36193,54.726287 135.154468,54.6505802 134.895505,54.6505802 Z M147.166759,58.4902426 C147.184415,58.4902426 147.193243,58.5073838 147.193243,58.5416667 C147.193243,58.5759495 147.184415,58.5930907 147.166759,58.5930907 C146.984307,58.5930907 146.843057,58.5902338 146.743003,58.58452 L146.151511,58.5759494 L145.542362,58.58452 C145.442309,58.5902338 145.304001,58.5930907 145.127435,58.5930907 C145.109779,58.5930907 145.10095,58.5759495 145.10095,58.5416667 C145.10095,58.5073838 145.109779,58.4902426 145.127435,58.4902426 C145.362856,58.4902426 145.533534,58.4759583 145.639473,58.4473892 C145.745412,58.4188202 145.817509,58.3645398 145.855765,58.2845464 C145.894021,58.204553 145.913148,58.0759942 145.913148,57.898866 L145.913148,55.8847574 L142.390681,55.8847574 L142.390681,57.898866 C142.390681,58.0759942 142.409808,58.204553 142.448064,58.2845464 C142.48632,58.3645398 142.558417,58.4188202 142.664356,58.4473892 C142.770296,58.4759583 142.940973,58.4902426 143.176394,58.4902426 C143.188165,58.4902426 143.194051,58.5073838 143.194051,58.5416667 C143.194051,58.5759495 143.188165,58.5930907 143.176394,58.5930907 C142.999828,58.5930907 142.858578,58.5902338 142.752639,58.58452 L142.152318,58.5759494 L141.569654,58.58452 C141.463715,58.5902338 141.316579,58.5930907 141.128242,58.5930907 C141.116471,58.5930907 141.110586,58.5759495 141.110586,58.5416667 C141.110586,58.5073838 141.116471,58.4902426 141.128242,58.4902426 C141.357778,58.4902426 141.526984,58.4759583 141.635866,58.4473892 C141.744748,58.4188202 141.819788,58.3631113 141.860986,58.2802611 C141.902185,58.1974108 141.922784,58.0702804 141.922784,57.898866 L141.922784,53.9306435 C141.922784,53.7592291 141.903656,53.6335271 141.865401,53.5535338 C141.827145,53.4735404 141.753577,53.4178316 141.644695,53.3864056 C141.535812,53.3549796 141.366606,53.3392669 141.137071,53.3392669 C141.1253,53.3392669 141.119414,53.3221257 141.119414,53.2878428 C141.119414,53.25356 141.1253,53.2364188 141.137071,53.2364188 L141.569654,53.2449895 C141.816846,53.2564171 142.011066,53.2621308 142.152318,53.2621308 C142.311227,53.2621308 142.514275,53.2564171 142.761467,53.2449895 L143.176394,53.2364188 C143.188165,53.2364188 143.194051,53.25356 143.194051,53.2878428 C143.194051,53.3221257 143.188165,53.3392669 143.176394,53.3392669 C142.946859,53.3392669 142.777653,53.3564081 142.66877,53.3906909 C142.559888,53.4249738 142.48632,53.4835395 142.448064,53.5663898 C142.409808,53.64924 142.390681,53.7763704 142.390681,53.9477848 L142.390681,55.7219145 L145.913148,55.7219145 L145.913148,53.9477848 C145.913148,53.7763704 145.894021,53.64924 145.855765,53.5663898 C145.817509,53.4835395 145.743941,53.4249738 145.635059,53.3906909 C145.526177,53.3564081 145.356971,53.3392669 145.127435,53.3392669 C145.109779,53.3392669 145.10095,53.3221257 145.10095,53.2878428 C145.10095,53.25356 145.109779,53.2364188 145.127435,53.2364188 L145.542362,53.2449895 C145.789554,53.2564171 145.992602,53.2621308 146.151511,53.2621308 C146.298649,53.2621308 146.495811,53.2564171 146.743003,53.2449895 L147.166759,53.2364188 C147.184415,53.2364188 147.193243,53.25356 147.193243,53.2878428 C147.193243,53.3221257 147.184415,53.3392669 147.166759,53.3392669 C146.937223,53.3392669 146.768017,53.3549796 146.659135,53.3864056 C146.550253,53.4178316 146.475213,53.4735404 146.434015,53.5535338 C146.392816,53.6335271 146.372217,53.7592291 146.372217,53.9306435 L146.372217,57.898866 C146.372217,58.0702804 146.392816,58.1974108 146.434015,58.2802611 C146.475213,58.3631113 146.550253,58.4188202 146.659135,58.4473892 C146.768017,58.4759583 146.937223,58.4902426 147.166759,58.4902426 Z M151.033528,58.6959388 C150.621541,58.6959388 150.255173,58.6016623 149.934412,58.4131065 C149.613651,58.2245507 149.366463,57.9717183 149.19284,57.6546018 C149.019217,57.3374852 148.932407,56.9932332 148.932407,56.6218354 C148.932407,56.1761581 149.053058,55.7904816 149.294364,55.4647943 C149.535671,55.139107 149.840242,54.8934168 150.208087,54.7277162 C150.575932,54.5620157 150.951129,54.4791667 151.333688,54.4791667 C151.745674,54.4791667 152.107629,54.5763 152.419561,54.7705696 C152.731494,54.9648392 152.971325,55.2191 153.139063,55.5333597 C153.3068,55.8476194 153.390668,56.1761586 153.390668,56.5189873 C153.390668,56.9075265 153.28473,57.2689197 153.072851,57.6031777 C152.860972,57.9374357 152.574057,58.203124 152.212098,58.4002505 C151.850138,58.597377 151.457285,58.6959388 151.033528,58.6959388 Z M151.27189,58.5245253 C151.760388,58.5245253 152.150299,58.3673978 152.441632,58.0531382 C152.732965,57.7388785 152.87863,57.3017785 152.87863,56.7418249 C152.87863,56.3589995 152.808005,56.0090338 152.666752,55.6919172 C152.525499,55.3748006 152.316567,55.1219682 152.039947,54.9334124 C151.763327,54.7448566 151.4308,54.6505802 151.042356,54.6505802 C150.536201,54.6505802 150.143348,54.8077076 149.863786,55.1219673 C149.584224,55.436227 149.444444,55.8676133 149.444444,56.4161392 C149.444444,56.8046784 149.516541,57.1589295 149.660736,57.4789029 C149.804932,57.7988764 150.015336,58.0531372 150.291955,58.241693 C150.568575,58.4302488 150.895217,58.5245253 151.27189,58.5245253 Z M157.954868,58.190269 C157.972524,58.190269 157.987238,58.2031249 157.999009,58.228837 C158.01078,58.2545492 158.007837,58.2731188 157.990181,58.2845464 C157.75476,58.4331055 157.545827,58.5388094 157.363376,58.6016614 C157.180924,58.6645133 156.995533,58.6959388 156.807196,58.6959388 C156.471722,58.6959388 156.198049,58.6045192 155.98617,58.4216772 C155.774291,58.2388352 155.668354,57.9360077 155.668354,57.5131856 L155.668354,55.2676688 C155.668354,55.1191097 155.658054,55.0134057 155.637455,54.9505538 C155.616855,54.8877019 155.577129,54.8462773 155.518273,54.826279 C155.459418,54.8062807 155.356423,54.7962816 155.209285,54.7962816 C155.191629,54.7962816 155.1828,54.7791405 155.1828,54.7448576 C155.1828,54.7105747 155.191629,54.6934335 155.209285,54.6934335 C155.432935,54.6934335 155.616855,54.6348678 155.76105,54.5177347 C155.905245,54.4006016 155.977342,54.2477594 155.977342,54.0592036 C155.977342,54.0420621 156.000884,54.0334916 156.047968,54.0334916 C156.089167,54.0334916 156.109766,54.0420621 156.109766,54.0592036 L156.109766,54.6848629 C156.462897,54.6848629 157.010242,54.6591511 157.751818,54.6077268 C157.769475,54.6077268 157.784188,54.624868 157.795959,54.6591508 C157.80773,54.6934337 157.813616,54.7362867 157.813616,54.787711 C157.813616,54.8391353 157.803316,54.8934157 157.782717,54.9505538 C157.762118,55.0076919 157.74299,55.0334037 157.725333,55.0276899 C157.201522,54.8962722 156.663005,54.8277075 156.109766,54.8219937 L156.109766,57.2217827 C156.109766,57.638891 156.19069,57.9445753 156.352542,58.1388449 C156.514394,58.3331145 156.768939,58.4302479 157.116185,58.4302479 C157.428118,58.4302479 157.70179,58.3531126 157.937211,58.1988396 L157.954868,58.190269 Z M162.801571,58.1302742 C162.819228,58.1302742 162.835413,58.1402733 162.850127,58.1602716 C162.86484,58.18027 162.866312,58.1988396 162.854541,58.215981 C162.436669,58.5359545 161.980548,58.6959388 161.486164,58.6959388 C161.074177,58.6959388 160.722522,58.6002339 160.431189,58.4088212 C160.139856,58.2174085 159.920623,57.967433 159.773485,57.6588871 C159.626347,57.3503413 159.552779,57.0189452 159.552779,56.6646888 C159.552779,56.264722 159.648417,55.8976151 159.839697,55.5633571 C160.030976,55.2290991 160.292878,54.9648392 160.62541,54.7705696 C160.957942,54.5763 161.327253,54.4791667 161.733354,54.4791667 C162.068829,54.4791667 162.332202,54.5677294 162.523482,54.7448576 C162.714761,54.9219858 162.8104,55.1591054 162.8104,55.4562236 C162.8104,55.5247894 162.803043,55.573356 162.788329,55.6019251 C162.773615,55.6304942 162.745659,55.6447785 162.704461,55.6447785 L160.153099,55.6533491 C160.088359,55.8761878 160.055989,56.1190212 160.055989,56.3818565 C160.055989,56.7646819 160.125143,57.1103624 160.263452,57.4189082 C160.401762,57.7274541 160.600396,57.9717159 160.859359,58.1517009 C161.118322,58.331686 161.421421,58.4216772 161.768667,58.4216772 C162.180654,58.4216772 162.522009,58.3245439 162.792743,58.1302742 L162.801571,58.1302742 Z M161.433194,54.6505802 C161.144804,54.6505802 160.89173,54.7291439 160.673966,54.8862737 C160.456201,55.0434036 160.294352,55.2648105 160.188412,55.550501 L162.280705,55.5162183 C162.286591,55.2419554 162.211551,55.0291191 162.055585,54.8777031 C161.899619,54.726287 161.692157,54.6505802 161.433194,54.6505802 Z M165.635436,57.8645833 C165.635436,58.0302839 165.651621,58.1545574 165.683992,58.2374077 C165.716362,58.320258 165.77963,58.3788237 165.873799,58.4131065 C165.967967,58.4473894 166.109218,58.4645306 166.297554,58.4645306 L167.003814,58.4645306 C167.580595,58.4645306 167.919007,58.121707 168.019061,57.4360496 C168.019061,57.4246219 168.030832,57.4189082 168.054374,57.4189082 C168.072031,57.4189082 168.088216,57.4217651 168.102929,57.4274789 C168.117643,57.4331927 168.125,57.4417633 168.125,57.4531909 C168.083801,57.6988848 168.063202,58.0359947 168.063202,58.4645306 C168.063202,58.5102411 168.052903,58.543095 168.032303,58.5630933 C168.011704,58.5830917 167.977863,58.5930907 167.930779,58.5930907 L164.496593,58.5930907 C164.484822,58.5930907 164.478937,58.5759495 164.478937,58.5416667 C164.478937,58.5073838 164.484822,58.4902426 164.496593,58.4902426 C164.696701,58.4902426 164.843837,58.4759583 164.938005,58.4473892 C165.032174,58.4188202 165.095442,58.3631113 165.127813,58.2802611 C165.160183,58.1974108 165.176368,58.0702804 165.176368,57.898866 L165.176368,55.2762394 C165.176368,55.1048251 165.160183,54.9791231 165.127813,54.8991297 C165.095442,54.8191364 165.032174,54.7634275 164.938005,54.7320016 C164.843837,54.7005756 164.696701,54.6848629 164.496593,54.6848629 C164.484822,54.6848629 164.478937,54.6677217 164.478937,54.6334388 C164.478937,54.5991559 164.484822,54.5820148 164.496593,54.5820148 L164.885036,54.5905854 C165.096915,54.6020131 165.267592,54.6077268 165.397074,54.6077268 C165.544212,54.6077268 165.723718,54.6020131 165.935597,54.5905854 L166.306383,54.5820148 C166.318154,54.5820148 166.324039,54.5991559 166.324039,54.6334388 C166.324039,54.6677217 166.318154,54.6848629 166.306383,54.6848629 C166.106275,54.6848629 165.96061,54.7005756 165.869385,54.7320016 C165.778159,54.7634275 165.716362,54.8205648 165.683992,54.9034151 C165.651621,54.9862654 165.635436,55.1133958 165.635436,55.2848101 L165.635436,57.8645833 Z" id="path-1"></path>
    </defs>
    <g id="Page-1" stroke="none" stroke-width="1" fill="none" fill-rule="evenodd">
        <g id="LUXURY-HOTEL-STICKY-V2" transform="translate(-71.000000, -24.000000)">
            <g id="HEADER">
                <g id="HEADER-+-SLIDER">
                    <g id="Bitmap-Copy" transform="translate(71.000000, 24.000000)">
                        <mask id="mask-2" fill="white">
                            <use xlink:href="#path-1"></use>
                        </mask>
                        <use id="Mask-Copy" fill="#050609" xlink:href="#path-1"></use>
                    </g>
                </g>
            </g>
        </g>
    </g>
</svg>