<svg xmlns="http://www.w3.org/2000/svg" width="64" height="64" viewBox="0 0 64 64"><path d="M213.494,84.5a16.012,16.012,0,0,0-6.211-1.238,16.423,16.423,0,0,0-11.6,4.789,15.212,15.212,0,0,0-3.185,6.307,15.21,15.21,0,0,0-3.18-6.307,16.431,16.431,0,0,0-11.6-4.789A16.024,16.024,0,0,0,171.5,84.5c-6.992,2.921-11,10.311-11,20.276a2.014,2.014,0,0,0,2.007,2.022h.594a2.014,2.014,0,0,0,2.007-2.022c0-7.995,2.974-13.821,8.161-15.987a12,12,0,0,1,12.8,2.544c2.208,2.225,3.468,9,4.121,17.282-1.257,15.353-.179,33.645.017,36.754a1.555,1.555,0,0,0,.079.3,1.864,1.864,0,0,0,.069.262,2.1,2.1,0,0,0,.307.535.615.615,0,0,0,.037.069l.032.022a2.124,2.124,0,0,0,.155.205,2,2,0,0,0,1.324.5,1.3,1.3,0,0,0,.135-.007l.16-.007.169.007a1.039,1.039,0,0,0,.128.007,2,2,0,0,0,1.324-.5c.064-.059.1-.139.155-.205l.034-.022c.015-.02.017-.047.034-.069a1.908,1.908,0,0,0,.309-.535,2.286,2.286,0,0,0,.071-.262,2.922,2.922,0,0,0,.076-.3c.2-3.109,1.275-21.4.02-36.754.651-8.279,1.911-15.056,4.119-17.282a12,12,0,0,1,12.791-2.544c5.192,2.166,8.164,7.992,8.164,15.987A2.013,2.013,0,0,0,221.9,106.8h.592a2.014,2.014,0,0,0,2.009-2.022C224.5,94.816,220.491,87.425,213.494,84.5Z" transform="translate(-160.499 -83.267)" fill="#fff"/></svg>