<svg xmlns="http://www.w3.org/2000/svg" width="80" height="32" viewBox="0 0 80 32"><path d="M-7430.394-250.837v0c-.115-.161-4.4-6.014-10.914-6.014-6.574,0-10.875,5.96-10.916,6.02a1.652,1.652,0,0,1-1.345.7,1.584,1.584,0,0,1-.938-.3l-.8-.561a1.653,1.653,0,0,1-.674-1.07,1.662,1.662,0,0,1,.276-1.233c.22-.32,5.558-7.839,14.393-7.839s14.169,7.519,14.393,7.839c.252.344,4.442,6.008,10.916,6.008,6.572,0,10.874-5.958,10.916-6.018h0c.247-.352,5.577-7.829,14.389-7.829,8.833,0,14.17,7.519,14.391,7.839a1.659,1.659,0,0,1,.276,1.233,1.635,1.635,0,0,1-.674,1.07l-.8.561a1.611,1.611,0,0,1-.941.307,2.063,2.063,0,0,1-.287-.024,1.651,1.651,0,0,1-1.053-.677c-.093-.131-4.4-6.02-10.916-6.02-6.573,0-10.875,5.96-10.917,6.02-.247.356-5.577,7.835-14.39,7.835C-7424.835-243-7430.173-250.519-7430.394-250.837Zm0-13.855v0c-.115-.159-4.4-6.012-10.914-6.012-6.574,0-10.875,5.96-10.916,6.02a1.656,1.656,0,0,1-1.345.7,1.617,1.617,0,0,1-.938-.3l-.8-.565a1.671,1.671,0,0,1-.674-1.072,1.665,1.665,0,0,1,.276-1.235c.22-.322,5.558-7.84,14.393-7.84s14.169,7.519,14.393,7.84l0,.009.006,0c.031.041,4.344,6,10.908,6s10.874-5.964,10.916-6.02h0c.245-.357,5.577-7.837,14.389-7.837,8.833,0,14.17,7.519,14.391,7.84a1.662,1.662,0,0,1,.276,1.235,1.652,1.652,0,0,1-.674,1.072l-.8.565a1.629,1.629,0,0,1-.941.3,2.063,2.063,0,0,1-.287-.021,1.644,1.644,0,0,1-1.053-.677c-.093-.131-4.4-6.018-10.916-6.018-6.573,0-10.875,5.96-10.917,6.02-.247.356-5.577,7.831-14.39,7.831C-7424.835-256.855-7430.173-264.372-7430.394-264.692Z" transform="translate(7456 275)" fill="#fff"/></svg>