<svg xmlns="http://www.w3.org/2000/svg" width="71" height="64" viewBox="0 0 71 64"><path d="M16.449,26.713a1.721,1.721,0,0,0,2.213,1.026c1.392-.513,2.623.127,4.092,1.986l.223.281c2.328,2.943,4.527,5.721,7.95,7.773a36.786,36.786,0,0,0,10.309,4.093,24.023,24.023,0,1,0,20.843,0,36.754,36.754,0,0,0,10.284-4.091c3.431-2.055,5.63-4.833,7.958-7.779l.223-.279c1.466-1.851,2.695-2.494,4.087-1.983a1.722,1.722,0,0,0,2.213-1.026l.2-.53a1.717,1.717,0,0,0-.052-1.321,1.735,1.735,0,0,0-.97-.9c-3.028-1.106-6.054.014-8.628,3.269l-.215.276c-2.1,2.648-4.076,5.15-6.87,6.824a36.776,36.776,0,0,1-18.642,4.747l-.017,0-.019,0A36.755,36.755,0,0,1,32.99,34.331c-2.791-1.674-4.767-4.171-6.87-6.824l-.218-.281c-2.571-3.247-5.6-4.369-8.625-3.263a1.73,1.73,0,0,0-1.025,2.221ZM51.662,83.527A20.026,20.026,0,1,1,71.668,63.5,20.037,20.037,0,0,1,51.662,83.527Z" transform="translate(-16.146 -23.549)" fill="#fff"/></svg>