<svg xmlns="http://www.w3.org/2000/svg" width="83" height="64" viewBox="0 0 83 64"><path d="M-7257.75,43.477a1.848,1.848,0,0,1-1.029-1.008,1.845,1.845,0,0,1-.01-1.441l.14-.344a1.866,1.866,0,0,1,2.428-1.038,85.61,85.61,0,0,0,32.055,6.227,87.161,87.161,0,0,0,18.79-2.082,19.154,19.154,0,0,1-11.512-13.58,19.234,19.234,0,0,1,2.463-14.529,19.073,19.073,0,0,1,11.979-8.528,19.285,19.285,0,0,1,4.276-.486,19.1,19.1,0,0,1,18.683,14.98,19.176,19.176,0,0,1-2.463,14.529,19.021,19.021,0,0,1-7.991,7.128l-.008.006-.01.006a19.622,19.622,0,0,1-2.731,1.044,93.431,93.431,0,0,1-11.191,3.339,91.6,91.6,0,0,1-20.284,2.3A89.589,89.589,0,0,1-7257.75,43.477Zm56.219-32.3a15,15,0,0,0-9.415,6.7,15.121,15.121,0,0,0-1.934,11.416A15,15,0,0,0-7198.2,41.064a15.4,15.4,0,0,0,3.365-.38c.286-.065.557-.16.829-.237.8-.3,1.6-.593,2.4-.913a15.012,15.012,0,0,0,6.18-5.551,15.056,15.056,0,0,0,1.93-11.416A14.976,14.976,0,0,0-7198.172,10.8,14.971,14.971,0,0,0-7201.532,11.181Zm-59.981,3.167a19.175,19.175,0,0,1,2.46-14.529,19.147,19.147,0,0,1,7.993-7.128l.006-.006.018-.006a19.529,19.529,0,0,1,2.724-1.044,93.282,93.282,0,0,1,11.2-3.339,91.25,91.25,0,0,1,20.283-2.3,89.59,89.59,0,0,1,33.586,6.517,1.881,1.881,0,0,1,1.027,1.008,1.9,1.9,0,0,1,.012,1.435l-.142.344a1.86,1.86,0,0,1-2.428,1.044,85.6,85.6,0,0,0-32.055-6.227A87.1,87.1,0,0,0-7235.619-7.8a19.133,19.133,0,0,1,11.506,13.58,19.209,19.209,0,0,1-2.458,14.529,19.083,19.083,0,0,1-11.983,8.528,19.314,19.314,0,0,1-4.277.486A19.1,19.1,0,0,1-7261.513,14.348Zm15.35-19.03c-.284.059-.554.154-.833.231-.8.3-1.6.6-2.393.919a14.941,14.941,0,0,0-6.176,5.545,15.027,15.027,0,0,0-1.934,11.416A14.983,14.983,0,0,0-7242.832,25.2a15.085,15.085,0,0,0,3.367-.385,14.953,14.953,0,0,0,9.409-6.7A15.057,15.057,0,0,0-7228.124,6.7,14.982,14.982,0,0,0-7242.8-5.062,15.077,15.077,0,0,0-7246.163-4.683Z" transform="translate(7262.001 13.999)" fill="#fff"/></svg>