<svg xmlns="http://www.w3.org/2000/svg" width="58" height="64" viewBox="0 0 58 64"><path d="M216.811,73.368l-7.6-4.344a1.72,1.72,0,0,0-1.715,0,1.691,1.691,0,0,0-.855,1.468V72.02a5.868,5.868,0,0,1-.633-.421,6.5,6.5,0,0,1-2.367-4.889c-.019-.66-.019-1.323-.019-1.98l-.006-1.16c-.017-2.175-.036-4.347-.039-6.525l-.017-3.882c0-1.433-.008-2.862-.006-4.3l0-3.03c0-2.013,0-4.031.011-6.041l.011-1.776q.025-3.72.061-7.435c.061-5.109-1.343-8.285-4.17-9.45a6.062,6.062,0,0,0-2.311-.434c-3.64,0-7.91,2.882-10.859,5.3-.619-2.466-1.845-4.108-3.7-4.87A6.024,6.024,0,0,0,180.3,20.7c-3.987,0-8.742,3.462-11.669,5.983a36.4,36.4,0,0,0-5.119-9.153,1.725,1.725,0,0,0-2.405-.278l-.794.621a1.7,1.7,0,0,0-.294,2.378c.225.283,5.457,7.069,5.457,12.934V68.539a1.7,1.7,0,0,0,1.712,1.7h1.01a1.706,1.706,0,0,0,1.717-1.7V33.185a14.8,14.8,0,0,0-.092-1.606c2.957-2.854,7.81-6.484,10.459-6.484a1.647,1.647,0,0,1,.621.1c.927.382,1.465,2.373,1.432,5.332-.191,16.193-.019,35.8,0,37.978l1.015.022v.016l.633-.008.064.005-1.712.014a1.682,1.682,0,0,0,.516,1.2,1.717,1.717,0,0,0,1.2.487h.022l1.013-.011a1.751,1.751,0,0,0,1.7-1.765c-.019-2.136-.183-21-.017-36.969,2.971-2.84,7.76-6.4,10.382-6.4a1.626,1.626,0,0,1,.621.1c.929.382,1.468,2.373,1.432,5.329q-.033,3.114-.053,6.217l-.014,3.022c-.017,2.021-.017,4.045-.017,6.066V48.86c-.006,1.438,0,2.876.006,4.314l.014,3.882q0,3.279.042,6.552l0,1.119c0,.7,0,1.411.022,2.12a10.753,10.753,0,0,0,4.131,8.268,9.685,9.685,0,0,0,2.53,1.408c.247.082.519.132.78.2v2.464a1.711,1.711,0,0,0,2.569,1.468l7.6-4.342a1.7,1.7,0,0,0,0-2.945Z" transform="translate(-159.665 -16.885)" fill="#fff"/></svg>