<svg xmlns="http://www.w3.org/2000/svg" width="45" height="64" viewBox="0 0 45 64"><path d="M151.832,132.077a7.909,7.909,0,0,0-3.378.775V96.46a11.9,11.9,0,0,0-12.173-11.087,12.676,12.676,0,0,0-10.19,4.908,8.54,8.54,0,0,0-3.354-4.008,6.561,6.561,0,0,0-3.356-.906,7.508,7.508,0,0,0-3.622.936,1.861,1.861,0,0,0-.672,2.524l.458.811a1.871,1.871,0,0,0,2.5.713A3.26,3.26,0,0,1,120.4,90.3c.682.4,2.9,2.4,2.9,11.413,0,18.087-.294,26.875-.3,26.958a1.863,1.863,0,0,0,1.784,1.936l.925.033.065,0a1.864,1.864,0,0,0,1.271-.508,1.911,1.911,0,0,0,.582-1.306c.032-.943.3-9.689.3-27.116a46.115,46.115,0,0,0-.264-4.993c.517-1.466,2.774-6.687,8.608-6.687a7.334,7.334,0,0,1,7.541,6.429V139.6a3.628,3.628,0,0,1-1.124,2.307c-1.722,1.806-5.3,2.8-10.068,2.8a1.86,1.86,0,0,0-1.856,1.861v.933a1.859,1.859,0,0,0,1.856,1.864c6.036,0,10.449-1.356,13.161-4.008a8.015,8.015,0,1,0,6.043-13.284Zm0,11.448a3.4,3.4,0,1,1,3.376-3.395A3.391,3.391,0,0,1,151.832,143.524Z" transform="translate(-114.843 -85.368)" fill="#fff"/></svg>