<svg xmlns="http://www.w3.org/2000/svg" width="108" height="108" viewBox="0 0 108 108"><path d="M-582.895-64.013a54.062,54.062,0,0,1,54-54,54.06,54.06,0,0,1,54,54,54.061,54.061,0,0,1-54,54A54.064,54.064,0,0,1-582.895-64.013Zm54,51.125a51.41,51.41,0,0,0,6.077-.359,9.376,9.376,0,0,1-.683-3.144c-.2-2.314.508-5.639,1.879-9.466A39.758,39.758,0,0,0-519.3-39.8c.073-5.361-.62-11.262-.449-17.517.044-3.131.609-6.16.778-9.04a36.915,36.915,0,0,0-.825-8.309,55.628,55.628,0,0,1-1.054-7.609c-.027-.616-.024-1.219-.005-1.808-.292-.688-.717-1.94-1.192-3.367-.726-2.2-1.3-3.989-1.113-4.065s1.051,1.62,1.785,3.843l.044.134a21.275,21.275,0,0,0-.241-2.192c-.27-1.668-.806-2.96-.625-3.055.157-.1,1.026,1.138,1.325,2.938a5.761,5.761,0,0,1-.2,3.14c.114.389.212.758.3,1.1.074-1.167.164-2.278.147-3.33a19.9,19.9,0,0,0-.891-5.343c-.227-.83-.435-1.6-.6-2.318-.208.428-.446.947-.7,1.556a25.971,25.971,0,0,0-1.847,9.036c-.2,7.512.612,17.829.141,29.269a35.661,35.661,0,0,1,2.951,6.716c1.379,3.825,2.167,7.033,1.984,7.087s-1.277-3.044-2.652-6.85c-1.118-3.108-2.082-5.733-2.3-6.635q-.026.612-.058,1.226c-.167,3.091-.451,6.1-.864,8.992.5,1.313,1.413,4.218,2.379,7.616,1.332,4.671,2.255,8.5,2.069,8.554s-1.419-3.689-2.748-8.36c-.815-2.859-1.477-5.4-1.826-6.96-.373,2.435-.839,4.776-1.4,6.993-.627,2.54-1.445,4.909-2.116,7.1a25.861,25.861,0,0,0-1.007,6.291c-.183,3.923-.088,7.116,0,9.313l.069,1.382A6.053,6.053,0,0,0-529.5-13.1c.047.076.1.147.143.213ZM-530.1-12.9q-.012-.09-.025-.192a7.553,7.553,0,0,1-1.085-2.823c-.547-2.536-.828-4.613-.634-4.642s.784,1.975,1.321,4.467c.049.259.1.51.163.751q-.012-.144-.025-.295a84.431,84.431,0,0,1-.23-9.356,25.9,25.9,0,0,1,.941-6.427c.664-2.244,1.445-4.576,2.047-7.1a90.548,90.548,0,0,0,2.321-16.71c.617-12-.2-22.888.139-30.8a24.958,24.958,0,0,1,2.094-9.116c.321-.7.624-1.284.882-1.736-.117-.518-.21-1-.272-1.452a10.066,10.066,0,0,1-.066-2.642,4.633,4.633,0,0,1,.186-.9,14.25,14.25,0,0,0,.149,3.5c.061.346.141.712.236,1.1l.075-.121a3.791,3.791,0,0,1,.515-.73,5.319,5.319,0,0,1-.387.8q-.068.13-.145.282c.2.8.466,1.688.758,2.663a19.9,19.9,0,0,1,1.014,5.445c.058,2.066-.266,4.288-.139,6.645a56.949,56.949,0,0,0,1.113,7.514,37.1,37.1,0,0,1,.876,8.463c-.167,2.974-.719,5.937-.762,9.028-.172,6.179.5,12.09.394,17.5a39.384,39.384,0,0,1-2.5,14.1c-1.43,3.81-2.19,7.022-2.076,9.3a11.669,11.669,0,0,0,.486,3.145q1.908-.23,3.772-.6A3.8,3.8,0,0,1-519.1-15,8.69,8.69,0,0,1-517-19.752a18.761,18.761,0,0,0,1.927-2.934,4.808,4.808,0,0,0,.3-3.758,7.826,7.826,0,0,1-.292-4.627,6.9,6.9,0,0,1,1.065-2.27,2.676,2.676,0,0,1,2.4-1.285,1.288,1.288,0,0,1,.891.635,2.492,2.492,0,0,1,.244.908l.194,1.595c.117,1.055.211,2.092.289,3.1s.131,2,.167,2.948l.048,1.408.011.833c.628-.358,1.226-.7,1.8-1.03a3.284,3.284,0,0,1,1.2-.522.851.851,0,0,1,.751.278,1.085,1.085,0,0,1,.212.686,15.052,15.052,0,0,1-.594,3.828,13.767,13.767,0,0,1-.873,2.264,51.143,51.143,0,0,0,7.663-4.443,16.655,16.655,0,0,1-.339-4.557c0-2.517.161-4.561.355-4.561s.354,2.044.354,4.561a20.584,20.584,0,0,1-.3,4.507c.629-.443,1.244-.9,1.852-1.367a20.152,20.152,0,0,1-.247-2.566c-.081-2.241.208-4.047.4-4.033s.229,1.806.31,4.008c.027.8.056,1.546.073,2.173q.718-.57,1.414-1.165a20.932,20.932,0,0,1-.3-3.03c-.077-2.328.215-4.2.4-4.186s.226,1.876.3,4.164c.03,1,.065,1.916.077,2.635q.592-.518,1.166-1.053a37.633,37.633,0,0,1-.193-4.333c0-2.694.161-4.876.355-4.876s.354,2.182.354,4.876c0,1.647-.059,3.1-.149,3.988q1.02-.969,1.988-1.995c.062-.794.194-1.99.282-3.33.167-2.368.135-4.306.339-4.324.114-.014.29.716.37,1.843.04-.67.112-1.418.225-2.234.456-3.65,2.076-8.47,4.062-13.638s3.382-9.981,3.671-13.583a42.3,42.3,0,0,0-.014-5.838,5.651,5.651,0,0,1,.357,1.547,20.854,20.854,0,0,1,.153,4.332c-.16,3.682-1.518,8.612-3.5,13.791s-3.657,9.9-4.23,13.469a57.4,57.4,0,0,0-.554,5.82,4.248,4.248,0,0,1-.164-1.2l0,.061a18.055,18.055,0,0,1-.361,2.605q1.393-1.53,2.663-3.172c.035-.771.1-1.771.147-2.863.113-2.42.128-4.39.328-4.4s.5,1.97.376,4.437c-.031.694-.092,1.346-.168,1.926q1.109-1.5,2.11-3.085c.065-.976.178-2.359.243-3.895.131-2.941.037-5.335.238-5.357s.606,2.387.467,5.387a26.12,26.12,0,0,1-.259,2.742q1.057-1.773,1.973-3.636c-.012-1.05.018-2.477.092-4.044.149-3.2.435-5.8.628-5.8s.23,2.613.077,5.835c-.046.968-.1,1.879-.167,2.68a50.819,50.819,0,0,0,4.575-21.134,50.868,50.868,0,0,0-10.516-31.026c.145.6.37,1.73.717,3.211a21.151,21.151,0,0,0,1.292,3.854,41,41,0,0,1,2.007,4.675,19.631,19.631,0,0,1,.362,9.233,13.019,13.019,0,0,1-1.026,3.682c-.109-.025.234-1.445.529-3.755a21.4,21.4,0,0,0-.54-8.948,50.087,50.087,0,0,0-1.93-4.628,19.079,19.079,0,0,1-1.186-4.007,24.541,24.541,0,0,1-.423-3.576q-1.235-1.591-2.59-3.081a15.377,15.377,0,0,0,.423,2.566,32.94,32.94,0,0,0,1.879,5.247,44.265,44.265,0,0,1,2.441,6.5c1.212,4.911.154,9.463-.645,12.532-.424,1.554-.825,2.792-1.12,3.638a5.217,5.217,0,0,1-.529,1.3c-.11-.03.434-1.945,1.164-5.054.671-3.08,1.61-7.539.445-12.24a48.6,48.6,0,0,0-2.357-6.419,29.566,29.566,0,0,1-1.767-5.39,13.8,13.8,0,0,1-.3-3.072A51.629,51.629,0,0,0-495.847-103c.348.884.708,1.867,1.053,2.912,1.372,4.119,1.982,7.6,1.8,7.637s-1.109-3.332-2.471-7.415c-.481-1.454-.954-2.8-1.355-3.941q-1.712-1.383-3.544-2.62a38.6,38.6,0,0,1,1.764,4.41c.938,2.69,1.552,4.93,1.369,5s-1.1-2.061-2.037-4.769a30.074,30.074,0,0,1-1.4-4.847q-.844-.561-1.708-1.087c.241.625.518,1.439.787,2.336.24.794.439,1.537.581,2.151a3.685,3.685,0,0,1,.463-1.516c.124.032-.146,1.084-.091,2.8a32.283,32.283,0,0,0,1.2,6.623,22.109,22.109,0,0,1,.915,6.809,5.776,5.776,0,0,1-.7,2.77c-.124-.04.2-1.077.2-2.788a27.717,27.717,0,0,0-1.106-6.624,24.826,24.826,0,0,1-1.011-6.79c0-.026,0-.052,0-.078a24.821,24.821,0,0,1-1.131-3.149,28.46,28.46,0,0,1-.74-2.916q-.852-.5-1.725-.972l.019.1a4.685,4.685,0,0,1,.348.691c.346.853.382,1.62.2,1.668a.159.159,0,0,1-.138-.055q.133.763.295,1.686c.252,1.632.675,3.595.905,5.948a17.647,17.647,0,0,1-.845,6.613c.155.478.214.75.174.766s-.131-.127-.279-.4q-.134.453-.28.91A12.106,12.106,0,0,1-506.56-87a12.082,12.082,0,0,1-1.865,1.656,3.23,3.23,0,0,0-1.146,2,16.018,16.018,0,0,0,.522,5.2,16.972,16.972,0,0,0,1.814,5.254c.9,1.683,2.7,2.712,3.923,4.456A10.492,10.492,0,0,1-501.4-62.39a9.594,9.594,0,0,1-.139,1.646,3.1,3.1,0,0,1-.65,1.668,1.349,1.349,0,0,1-.967.434,1.519,1.519,0,0,1-.963-.38,3.793,3.793,0,0,1-1.007-1.481c-.4-1.014-.774-2.12-1.172-3.047-.281-.817-1.485.212-2.325.752a15.966,15.966,0,0,0-2.419,2.222,7.061,7.061,0,0,1-1.332,1.124,2.413,2.413,0,0,1-1.832.365,2.809,2.809,0,0,1-1.876-2.9,22.224,22.224,0,0,1,.42-3.229l2.025-12.069c.346-1.915.584-3.81,1.011-5.6a14.026,14.026,0,0,0,.325-5.212,5.861,5.861,0,0,0-2.387-3.988c-.617-.4-1.5-.77-1.865-1.609a8.1,8.1,0,0,1-.464-2.285c-.792-5.838-.89-10.685-.281-13.951a21.51,21.51,0,0,1,.957-3.654,50.841,50.841,0,0,0-7.966-1.356c.055.647.144,1.517.32,2.554a23.9,23.9,0,0,0,1.047,4.01,11.08,11.08,0,0,1,.781,2.452,1.774,1.774,0,0,1-.581,1.456,3.824,3.824,0,0,1-1.31.707,1.715,1.715,0,0,1-1.6-.167,2.346,2.346,0,0,1-.873-1.245,9.036,9.036,0,0,1-.215-2.554,34.835,34.835,0,0,1,.113-4.237,12.432,12.432,0,0,0,.014-3.131c-.758-.033-1.522-.051-2.287-.051a51.455,51.455,0,0,0-5.551.3c-.083.981-.389,3.046-.518,5.455-.2,3.335.011,6.058-.2,6.079-.179.03-.712-2.708-.511-6.12a23.144,23.144,0,0,1,.9-5.378q-1.505.173-2.984.433c-.016.4-.051,1.01-.1,1.8-.1,1.526-.226,3.737-.317,6.467a158.186,158.186,0,0,0,.726,21.323,48.523,48.523,0,0,1,.277,11.813c-.416,3.6-.861,6.832-.548,9.525a13.3,13.3,0,0,0,2,6,21.779,21.779,0,0,0,1.486,1.832,6.1,6.1,0,0,1-1.712-1.672,12.891,12.891,0,0,1-2.266-6.1c-.387-2.77.018-6.069.4-9.649a50.079,50.079,0,0,0-.336-11.677,136.282,136.282,0,0,1-.522-21.414c.157-2.737.362-4.948.544-6.47.081-.763.172-1.35.23-1.748h0q-1.162.207-2.306.467c-.135.374-.273.808-.453,1.248a58.724,58.724,0,0,0-2.313,8.393,57.7,57.7,0,0,0-1.011,8.645,28.364,28.364,0,0,1-.183,3.627,14.024,14.024,0,0,1-.318-3.638,43.068,43.068,0,0,1,.817-8.77,43.649,43.649,0,0,1,2.54-8.437l.427-.955-.221.053c-.572,1.51-1.406,3.671-2.22,6.1-1.579,4.6-1.719,8.557-1.915,8.554-.2.032-.369-4.076,1.244-8.773a50.235,50.235,0,0,1,2.3-5.732q-1.328.339-2.628.746-.05.107-.1.224a38.092,38.092,0,0,0-1.76,5.4c-1.084,4.321-1.018,7.977-1.233,7.977-.176.026-.562-3.707.544-8.145a25.5,25.5,0,0,1,1.9-5.245q-.757.248-1.5.519c-.387,1.217-1.086,3.293-1.646,5.715-.9,3.813-1.117,7.01-1.328,7-.178,0-.284-3.262.639-7.163q.057-.248.118-.49c-.073.244-.149.495-.228.749-.817,2.642-1.634,4.744-1.824,4.7s.325-2.248,1.149-4.909,1.639-4.762,1.825-4.7a7.01,7.01,0,0,1-.448,2.48,26.72,26.72,0,0,1,1.221-3.189,50.862,50.862,0,0,0-4.919,2.15,17.91,17.91,0,0,0-1.522,2.015c-1.178,1.806-1.686,3.517-1.886,3.47-.183-.022.033-1.923,1.292-3.854a9.469,9.469,0,0,1,.608-.843q-1.006.547-1.985,1.138a14.652,14.652,0,0,1-1.2,3.7c-.824,1.985-1.643,3.543-1.829,3.478s.34-1.741,1.175-3.751a21.572,21.572,0,0,1,1.6-3.276A51.427,51.427,0,0,0-576.7-82.151c.105.344.26,1.88.534,4.175.314,2.62.821,6.233,1.6,10.182s1.686,7.484,2.394,10.028a31.987,31.987,0,0,1,1.08,4.145,21.119,21.119,0,0,1-1.558-4,85.891,85.891,0,0,1-2.614-10.035,86.569,86.569,0,0,1-1.4-10.273,38.763,38.763,0,0,1-.133-3.972,50.885,50.885,0,0,0-3.228,17.887q0,1.507.087,2.995a8.376,8.376,0,0,1,.3-2.645c.226,0-.066,4.474,1.058,9.813,1.08,5.346,3.116,9.335,2.911,9.429a9.433,9.433,0,0,1-1.437-2.554l-.018-.04a51.043,51.043,0,0,0,6.333,12.284,23.944,23.944,0,0,1-.519-3.059c-.3-2.821-.041-5.12.146-5.109.2.007.263,2.273.558,5.036.176,1.687.4,3.173.5,4.088q.837,1.138,1.735,2.227a20.286,20.286,0,0,1-.693-3.29c-.365-2.8-.069-5.087.112-5.072.208.011.234,2.255.591,4.981.222,1.764.525,3.3.66,4.177q.394.459.8.908c-.176-.662-.347-1.428-.483-2.254-.442-2.642-.343-4.82-.158-4.824.205-.007.424,2.12.858,4.708.2,1.249.422,2.381.57,3.225q.33.351.668.7a21.357,21.357,0,0,1-.691-2.918c-.59-3.5-.142-6.368.033-6.339.211.015.087,2.832.664,6.223a38.739,38.739,0,0,0,.864,3.9q.9.88,1.848,1.716a30.719,30.719,0,0,1-.833-3.139c-.835-3.89-.711-7.134-.529-7.131.208-.007.4,3.172,1.219,6.985.317,1.517.685,2.9,1,4.025q1,.847,2.049,1.645A8.117,8.117,0,0,1-560.773-25a27.731,27.731,0,0,1-1.628-8.018,42.664,42.664,0,0,1,.088-8.159,12.3,12.3,0,0,1,.627-3.321,22.82,22.82,0,0,1-.128,3.361,60.371,60.371,0,0,0,.121,8.061,33.651,33.651,0,0,0,1.383,7.886,9.61,9.61,0,0,0,1.323,2.48q1.457,1.064,2.99,2.027a28.823,28.823,0,0,1-1.211-5.711c-.489-4.266.106-7.726.277-7.693.216.019-.054,3.442.427,7.617a57.5,57.5,0,0,0,1.051,6.124q1.508.92,3.081,1.737c-.069-.349-.1-1.659-.367-3.567a31.8,31.8,0,0,0-.824-3.879,29.351,29.351,0,0,1-1.021-4.85,25.328,25.328,0,0,1,1.011-8.918,16.649,16.649,0,0,1,1.186-3.514,22.481,22.481,0,0,1-.7,3.631,29.188,29.188,0,0,0-.792,8.733,31.079,31.079,0,0,0,.887,4.489c-.039-.723,0-1.156.073-1.157.208-.018.544,2.7,1.54,5.912.54,1.781,1.165,3.327,1.583,4.367q.8.362,1.62.7a22.968,22.968,0,0,1-1.51-3.819c-1.193-3.948-1-7.335-.828-7.316.219-.007.343,3.28,1.507,7.115a35.646,35.646,0,0,0,1.608,4.329q.822.32,1.658.613a27.856,27.856,0,0,1-1.446-3.607c-1.265-3.857-1.4-7.174-1.215-7.181.2-.026.65,3.193,1.887,6.966a40.354,40.354,0,0,0,1.55,4.087q1.486.493,3.011.9a16.461,16.461,0,0,1-2.719-4.8c-1.244-3.314-1.146-6.226-.97-6.211.215-.018.43,2.776,1.631,5.966a36.055,36.055,0,0,0,2.511,5.167c.332.085.663.165,1,.243-.142-.461-.377-1.5-.71-2.933-.133-.6-.288-1.267-.451-1.993-.67-2.587-1.055-4.519-.9-4.553h.007q-.1-.632-.183-1.288A23.957,23.957,0,0,1-542.527-33a8.034,8.034,0,0,1,1.161-3.117c.11.044-.357,1.219-.668,3.208a28.2,28.2,0,0,0,0,7.839c.231,1.807.534,3.507.81,5.012.2.679.417,1.422.632,2.2a17.52,17.52,0,0,0,1.467,3.942,50.906,50.906,0,0,0,5.531.814,3.944,3.944,0,0,1-.981-.873,9.85,9.85,0,0,1-1.694-3.543c-.726-2.945-1.156-5.357-.963-5.39s.927,2.288,1.638,5.186a13.6,13.6,0,0,0,1.424,3.452c.411.652.8,1.029.9,1.2.438.037.875.069,1.316.1a14.564,14.564,0,0,1-1.81-4.128c-.741-2.54-.774-4.7-.588-4.712.2-.022.547,2.048,1.266,4.514.6,2.1,1.282,3.822,1.353,4.337C-531.192-12.936-530.646-12.915-530.1-12.9Zm13.5-6.547a8.847,8.847,0,0,0-2.222,4.47,4.225,4.225,0,0,0,.038,1.088q1.629-.328,3.219-.758c.293-1.477,1.085-4.584,2.093-8.15,1.059-3.751,2.054-6.942,2.556-8.246q-.02-.181-.041-.362c-.066-.522-.131-1.051-.2-1.584-.048-.544-.208-.879-.558-.938-1.347-.062-2.3,1.693-2.672,3.036a7.234,7.234,0,0,0,.252,4.281,4.864,4.864,0,0,1,.213.978,9.366,9.366,0,0,1,1.028-2.547c.19.055-.551,3.171-1.653,6.962s-2.146,6.821-2.332,6.766.519-3.036,1.581-6.715C-515.73-20.538-516.187-19.979-516.6-19.449Zm-23.227,5.384a10.073,10.073,0,0,1-.6-1.158c.055.475.081.83.082,1.042Zm27.033-8.543c-.964,3.426-1.877,6.38-2.411,7.861a50.755,50.755,0,0,0,5.176-1.745,14.508,14.508,0,0,1,.729-2.924c.558-1.693,1.164-3.014,1.35-2.952s-.117,1.481-.679,3.175a18.228,18.228,0,0,1-1.017,2.546q1.084-.442,2.142-.932a19.622,19.622,0,0,0,.779-2.473,15.806,15.806,0,0,0,.438-3.719c-.018-.346-.124-.481-.4-.449a2.963,2.963,0,0,0-.975.475c-.85.51-1.744,1.043-2.675,1.606l-.055-1.876-.01-.217a36.5,36.5,0,0,1-1.132,4.027c-.97,2.875-2.058,5.09-2.233,5.017s.6-2.39,1.561-5.244c.773-2.273,1.423-4.208,1.753-4.87l-.005-.107c-.062-.95-.128-1.923-.2-2.927-.05-.6-.106-1.216-.169-1.836C-511.186-28.545-511.907-25.759-512.8-22.609Zm-37.7,4.931a22.489,22.489,0,0,1-1.566-3.84q-.091-.294-.172-.583a13.216,13.216,0,0,1-.066,3.536Q-551.4-18.1-550.492-17.678Zm43.914-46.88a1.2,1.2,0,0,1,.9.664c.482,1.11.8,2.1,1.2,3.124.339.931,1.215,1.868,1.781,1.211a2.007,2.007,0,0,0,.4-.924c-.2-.065-.491-2.244-1.211-4.823-.421-1.547-.9-2.89-1.191-3.754a24.345,24.345,0,0,1-2.817-3.027c.2.724.272,1.184.187,1.213-.19.062-1.012-1.877-2.051-4.241l-.32-.729c.437,1.03.9,2.2,1.363,3.462,1.577,4.306,2.427,7.93,2.245,7.981s-1.343-3.463-2.912-7.74-2.941-7.711-2.755-7.795a11.167,11.167,0,0,1,1.473,2.752,7.1,7.1,0,0,1-.827-2.311,8.077,8.077,0,0,1,1.707,2.658c-.094-.4-.179-.8-.259-1.191-.041-.249-.086-.5-.133-.744-.2-.013-.367-1.1-.805-2.346-.427-1.263-.97-2.226-.81-2.346.117-.1.7.436,1.164,1.366a7.486,7.486,0,0,1,.1-1.359q.01-.061.023-.122a13.393,13.393,0,0,1-.767-1.6c-.435-1.007-.8-1.839-.632-1.949s.818.595,1.282,1.668a5.977,5.977,0,0,1,.364,1.107,3.879,3.879,0,0,1,.555-.908A18.8,18.8,0,0,1-510.84-88c-.8-1.609-1.42-2.93-1.252-3.037s1.076,1.08,1.886,2.723a11.642,11.642,0,0,1,1.059,2.855,3.216,3.216,0,0,1,.358-.322,12.071,12.071,0,0,0,1.821-1.584,11.735,11.735,0,0,0,2.16-3.937l.056-.17c-.355-1.062-2.348-4.026-4.631-7.552-2.85-4.3-5.387-7.637-5.23-7.765a9.92,9.92,0,0,1,1.886,2.018c1.081,1.314,2.5,3.193,3.934,5.358s2.621,4.2,3.416,5.7a6.934,6.934,0,0,1,.77,1.782q.118-.377.228-.749a94.512,94.512,0,0,0-4.581-8.42c-3.128-5.057-6.342-8.685-6.178-8.831a11.973,11.973,0,0,1,2.245,2.259,50.37,50.37,0,0,1,4.532,6.2,49.914,49.914,0,0,1,3.554,6.809c.231.549.424,1.038.579,1.455.172-.622.322-1.235.442-1.835-.326-.233-2.125-3.7-4.7-7.685-2.686-4.193-5.2-7.368-5.04-7.5.135-.12,2.92,2.88,5.635,7.12a40.572,40.572,0,0,1,4.133,7.924A13.5,13.5,0,0,0-503.5-99c-.19-2.31-.577-4.3-.781-5.934-.111-.791-.21-1.5-.3-2.111a9.363,9.363,0,0,1-.446-.965,4.967,4.967,0,0,1-.43-1.437q-1.033-.535-2.093-1.024l.038.05a12.268,12.268,0,0,1,1.737,2.952c.306.865.178,1.456.091,1.444-.106,0-.16-.521-.551-1.247a24.011,24.011,0,0,0-1.84-2.719c-.294-.389-.587-.757-.869-1.1q-.835-.355-1.684-.681a36.439,36.439,0,0,1,3.1,4.012c2.255,3.347,3.5,6.39,3.328,6.463-.185.088-1.693-2.773-3.915-6.069-1.325-1.984-2.6-3.67-3.38-4.731q-2.3-.836-4.706-1.454a25.361,25.361,0,0,0-.819,3.664c-.522,3.244-.35,8.021.5,13.841a7.855,7.855,0,0,0,.437,2.124c.277.635.978.938,1.69,1.376a6.431,6.431,0,0,1,2.671,4.342,14.545,14.545,0,0,1-.3,5.44c-.286,1.244-.483,2.523-.688,3.824a40.488,40.488,0,0,1,3.119,7.255,46.874,46.874,0,0,1,2.007,7.372,1.844,1.844,0,0,1,.865-.258C-506.666-64.564-506.622-64.562-506.578-64.558Zm-7.463,4.784a1.35,1.35,0,0,0,.643,0,7.98,7.98,0,0,1-.811-2.552c-.346-1.412-.638-2.569-.453-2.646s.778,1.011,1.139,2.478a5.191,5.191,0,0,1,.177,2.707,4.386,4.386,0,0,0,1.8-1.283,19.481,19.481,0,0,1,1.728-1.687c-.332-.668-.994-2.623-1.772-4.922-.97-2.884-1.759-5.226-1.572-5.3s1.266,2.164,2.244,5.072a30.17,30.17,0,0,1,1.306,4.978c.189-.154.381-.3.578-.442a14.492,14.492,0,0,1,1.28-.836c-.39-.878-1.306-3.808-2.5-7.243-1.164-3.376-2.236-6.206-2.495-7.187-.078.49-.158.983-.246,1.479l-.182,1.111a28.173,28.173,0,0,1,2.683,5.75c1.245,3.307,1.92,6.1,1.737,6.153s-1.164-2.621-2.4-5.9c-1.01-2.7-1.886-4.97-2.064-5.742-.563,3.425-1.148,6.993-1.753,10.676-.135.888-.333,1.808-.39,2.685.05-.379.178-.648.331-.648.194,0,.354.448.354,1s-.16,1-.354,1c-.174,0-.317-.352-.348-.817A2.089,2.089,0,0,0-514.04-59.774Zm11.221-5.719a16.871,16.871,0,0,1,.651,4.289,8.994,8.994,0,0,0,.079-1.19,9.8,9.8,0,0,0-1.37-5.027A18.886,18.886,0,0,1-502.819-65.492Zm-23.3-46.433c-.1,1.2,0,2.605.04,4.174a8.871,8.871,0,0,0,.227,2.372c.222.726.85,1.273,1.587.952.829-.277,1.511-.726,1.42-1.459a11.835,11.835,0,0,0-.7-2.271,21.052,21.052,0,0,1-.927-4.153,17.93,17.93,0,0,1-.125-2.653c-.586-.049-1.173-.088-1.765-.117A9.6,9.6,0,0,1-526.119-111.925Zm-12.393,93.742c-1.147-3.127-1.23-5.824-1.076-5.839.229-.04.638,2.587,1.737,5.591,1.069,3.044,2.952,4.909,2.813,5.051a.028.028,0,0,1-.027.012C-535.341-13.368-537.441-15.136-538.512-18.183Zm10.882-.744c-.6-3.04-.536-5.566-.35-5.569.089,0,.188.464.32,1.243-.348-2.708-.255-4.7-.108-4.7.208-.007.427,3,1.139,6.631.7,3.634,1.616,6.506,1.423,6.579-.168.069-1.364-2.64-2.08-6.244.1.6.218,1.248.351,1.924.577,2.985,1.273,5.36,1.08,5.43h-.008C-526.06-13.631-527.051-15.926-527.63-18.927Zm-11.889,2.948a52.4,52.4,0,0,1-.968-5.3,52.7,52.7,0,0,1,.547-17.746,42.937,42.937,0,0,1,3.076-9.328,11.167,11.167,0,0,1,1.143-1.941c.452-.544.894-1.069,1.317-1.58a5.615,5.615,0,0,0,1.175-3.295,12.256,12.256,0,0,0-1.058-5.127,12.452,12.452,0,0,1-.693-1.847,8.984,8.984,0,0,1,.945,1.737,11.688,11.688,0,0,1,1.306,5.262,6.076,6.076,0,0,1-1.193,3.605q-.629.783-1.3,1.617a10.89,10.89,0,0,0-1.048,1.849,44.612,44.612,0,0,0-2.974,9.193,56.4,56.4,0,0,0-.745,17.542c.227,2.248.536,4.055.742,5.306a10.642,10.642,0,0,1,.288,1.952h0A10.788,10.788,0,0,1-539.519-15.979Zm10.841-1.6c-.526-1.5-.481-2.813-.292-2.824s.464,1.182.959,2.595,1.026,2.521.854,2.631a.047.047,0,0,1-.027.008A4.656,4.656,0,0,1-528.678-17.581Zm17.437,1.35c-.186-.062.142-1.562.73-3.353s1.219-3.193,1.4-3.131-.142,1.562-.734,3.353a9.176,9.176,0,0,1-1.389,3.133Zm-15.7-7.481c-.817-3.77-.977-6.9-.792-6.919.2-.022.675,3.044,1.482,6.773s1.624,6.719,1.43,6.78h-.006C-525.016-17.076-526.143-19.977-526.937-23.711Zm-20.3-1.642c-.307-4.433.4-7.992.576-7.955.212.025-.171,3.561.128,7.908.278,4.35,1.128,7.8.92,7.856h0C-545.8-17.544-546.959-20.957-547.238-25.354Zm39.039,7.463c-.178-.076.019-.934.442-1.912s.909-1.708,1.087-1.632-.018.934-.437,1.913c-.4.93-.866,1.636-1.064,1.636A.071.071,0,0,1-508.2-17.891Zm4.784-3.255a25.71,25.71,0,0,1-.121-3.467,30.4,30.4,0,0,1,2.511-11.148c1.854-4.1,4.094-7.44,5.16-10.13a45.089,45.089,0,0,0,1.449-4.448,3.748,3.748,0,0,1-.077,1.274,16.677,16.677,0,0,1-.905,3.357c-.97,2.8-3.171,6.229-4.977,10.232a33.412,33.412,0,0,0-2.66,10.89c-.2,2.883-.022,4.685-.146,4.693h0A4.287,4.287,0,0,1-503.414-21.146Zm-51.936-6.335c-.595-4.371.11-7.922.277-7.882.219.022-.16,3.529.424,7.788.551,4.266,1.831,7.55,1.627,7.63h-.006C-553.211-19.944-554.791-23.159-555.35-27.482Zm29.18,1.223c-.872-3.4-1.263-6.226-1.073-6.262s.89,2.708,1.759,6.087,1.57,6.124,1.38,6.186h-.006C-524.31-20.247-525.315-22.89-526.171-26.258Zm23.87,1.4c-.084-1.726.186-3.11.376-3.1s.247,1.387.332,3.062.157,3.044-.041,3.076h-.008C-501.834-21.817-502.225-23.157-502.3-24.861ZM-525.328-27.8c-.9-3.245-1.471-5.923-1.284-5.981s1.066,2.533,1.967,5.792,1.471,5.937,1.281,5.981h-.005C-523.57-22.007-524.442-24.584-525.328-27.8Zm26.859,1.65a23.547,23.547,0,0,1-.04-6.2,23.693,23.693,0,0,1,1.576-6,7.279,7.279,0,0,1,1.23-2.255c.208.087-1.533,3.616-2.1,8.346-.62,4.722.19,8.572-.036,8.6h0A7.339,7.339,0,0,1-498.47-26.149Zm-24.49,2.291c-.1-.007-.121-.8-.482-2.033s-.84-2.984-1.314-4.911c-.952-3.857-1.569-7.022-1.38-7.069s1.117,3.043,2.069,6.9c.471,1.931.872,3.678,1.113,4.971a3.593,3.593,0,0,1,0,2.142Zm-1.149-10.624c-.891-3.766-1.744-6.791-1.551-6.853.178-.062,1.338,2.89,2.24,6.689s1.2,6.959,1.011,6.985h0C-522.615-27.659-523.212-30.735-524.109-34.481ZM-514-27.689c-.19-.054-.077-.974.248-2.047s.737-1.905.923-1.847.077.975-.248,2.051c-.311,1.037-.709,1.845-.9,1.845A.064.064,0,0,1-514-27.689Zm5.93-5.927c0-.627-.007-1.393-.014-2.288a6.346,6.346,0,0,0-.369-2.857,1.7,1.7,0,0,0-1.157-.912c-.489-.11-1.025.274-1.813.332a1.808,1.808,0,0,1-1.726-1.475,4.442,4.442,0,0,1,.234-2.295c.412-1.426.846-2.923,1.3-4.478a19.143,19.143,0,0,1,1.792-4.759,4.72,4.72,0,0,1,1.989-1.842,2.237,2.237,0,0,1,1.441-.149,1.811,1.811,0,0,1,1.1.956,5.765,5.765,0,0,1,.222,4.8c-.62,1.453-1.634,2.485-2.062,3.66-.182.409-.066.364.493-.029.394-.355.993-.96,1.777-.745a.9.9,0,0,1,.555.879c.007.285,0,.545-.011.8a11.372,11.372,0,0,1-.179,1.444,10.485,10.485,0,0,1-.7,2.216,8.708,8.708,0,0,1-.7,1.281c-.19.277-.307.409-.325.4-.051-.033.332-.621.77-1.781a11.307,11.307,0,0,0,.563-2.179,10.32,10.32,0,0,0,.117-1.4c-.007-.467.062-1.146-.252-1.193a.882.882,0,0,0-.616.147,4.158,4.158,0,0,0-.65.544c-.095.07-.183.15-.287.225a.067.067,0,0,1,.054,0c.171.091-.158,1.186-.734,2.449a6.909,6.909,0,0,1-1.3,2.141,2.588,2.588,0,0,1,.543.724,6.509,6.509,0,0,1,.325,3.1c-.044.891-.077,1.66-.106,2.289a10.727,10.727,0,0,1-.178,1.948A10.712,10.712,0,0,1-508.067-33.616Zm-1.445-6.6a1.953,1.953,0,0,1,.829.384,7.866,7.866,0,0,1,.784-2.323,8.415,8.415,0,0,1,1.225-2.09,1.391,1.391,0,0,1-.719.193.406.406,0,0,1-.34-.056c-.157.319-.323.66-.492,1.015-.59,1.223-1.062,2.314-1.363,2.865Zm-1.927.288a2.809,2.809,0,0,0,.751-.158l.026-.008a31.892,31.892,0,0,1,1.93-5.269c1.347-3.011,2.752-5.291,2.92-5.2s-.938,2.507-2.273,5.493l-.5,1.124a12.59,12.59,0,0,1,1.253-1.959c.517-.995,1.247-1.887,1.663-2.924a5.126,5.126,0,0,0-.226-4.226,1.15,1.15,0,0,0-1.66-.489,4.018,4.018,0,0,0-1.664,1.576,18.8,18.8,0,0,0-1.726,4.573c-.464,1.547-.913,3.043-1.339,4.463a3.985,3.985,0,0,0-.252,1.966,1.565,1.565,0,0,0,.266.583,20.6,20.6,0,0,1,1.248-3c-.147-.146.428-2.12,1.474-4.4,1.066-2.335,2.2-4.087,2.372-4,.141.076-.385,1.317-1.145,3.007,1.268-2.388,2.259-4.049,2.4-3.977.172.094-1.105,2.959-2.853,6.4a43.742,43.742,0,0,1-3.429,6.053A.967.967,0,0,0-511.439-39.925Zm1.1-.25a2.5,2.5,0,0,1,.415-.062,9.478,9.478,0,0,1,.538-1.934C-509.782-41.3-510.11-40.6-510.34-40.175Zm-12.4-2.177c-1.025-3.762-2.037-6.765-1.847-6.842s1.493,2.854,2.533,6.653,1.413,6.984,1.227,7.01h0C-521.037-35.531-521.706-38.614-522.741-42.352Zm15.269,6.3c-.19-.011-.256-1.256.117-2.726s1-2.54,1.175-2.463-.143,1.226-.49,2.634-.6,2.555-.8,2.555Zm20.06-.464a4.9,4.9,0,0,1-.022-1.383,29.625,29.625,0,0,1,.464-3.73,117.43,117.43,0,0,1,3.211-11.937,47.147,47.147,0,0,0,2.208-12.02c.076-3.135-.394-5.051-.263-5.072a4.543,4.543,0,0,1,.383,1.328,20.284,20.284,0,0,1,.38,3.748,41.723,41.723,0,0,1-2.03,12.214c-1.38,4.631-2.748,8.762-3.4,11.839-.692,3.063-.817,5.014-.934,5.014Zm-32.73-1.186c-.105,0-.146-.854-.5-2.174s-1.033-3.106-1.715-5.109c-1.369-4-2.332-7.3-2.149-7.372s1.445,3.131,2.821,7.141a37.423,37.423,0,0,1,1.533,5.234,4.332,4.332,0,0,1,.015,2.281Zm12.324-2c-.175-.087.073-.931.551-1.879s1.007-1.65,1.183-1.562-.073.931-.551,1.88c-.451.9-.947,1.569-1.149,1.569A.074.074,0,0,1-507.819-39.706Zm-37.609-4.156a5.594,5.594,0,0,1-.245-1.172,9.977,9.977,0,0,1-.135-1.576,30.722,30.722,0,0,1,1.515-8.967,39.422,39.422,0,0,0,1.773-8.772c.1-2.282-.284-3.679-.146-3.712.048-.011.161.328.325.967a10.94,10.94,0,0,1,.321,2.752,32.712,32.712,0,0,1-1.588,8.951,36.307,36.307,0,0,0-1.7,8.78c-.055,2.281.368,3.667.229,3.7h0A2.914,2.914,0,0,1-545.428-43.862Zm-9.51-4.708a21.208,21.208,0,0,1,.336-4.306,14.81,14.81,0,0,1,1.975-4.927,17.3,17.3,0,0,0,2.186-4.617,4.86,4.86,0,0,0-.486-3.883,3.663,3.663,0,0,0-2.153-1.569c-.634-.147-1.014-.051-1.025-.117a1.544,1.544,0,0,1,1.073-.154,3.743,3.743,0,0,1,2.515,1.552,5.248,5.248,0,0,1,.711,4.316,16.66,16.66,0,0,1-2.208,4.825,16.884,16.884,0,0,0-2.423,8.886,32.131,32.131,0,0,1-.142,3.93h0A16.628,16.628,0,0,1-554.938-48.57Zm43.926,3.548c-.186-.048-.055-1.165.474-2.434s1.223-2.157,1.387-2.062-.229,1.11-.733,2.332C-510.378-46-510.8-45.021-511-45.02Zm-64.77-4a50.794,50.794,0,0,1-1.953-6.541,1.722,1.722,0,0,1-.16-.6c-.005-.057-.008-.112-.009-.166l-.024-.115a51.244,51.244,0,0,1-1.043-7.649,11.9,11.9,0,0,1,.043-3.2,18.125,18.125,0,0,1,.453,3.157c.238,1.945.616,4.623,1.241,7.547s1.35,5.529,1.927,7.4a11.965,11.965,0,0,0,1.32,2.828.016.016,0,0,1-.015.007A5.014,5.014,0,0,1-575.782-49.019Zm1.146-1.733a51,51,0,0,1-2.573-8.083,51.12,51.12,0,0,1-1.208-8.4,13.752,13.752,0,0,1,.051-3.51,23.484,23.484,0,0,1,.449,3.47c.2,1.772.527,4.1,1.049,6.662a67.706,67.706,0,0,1-1.089-8.586,15.153,15.153,0,0,1,.014-3.591,22.459,22.459,0,0,1,.486,3.547c.251,2.19.656,5.207,1.288,8.507s1.379,6.25,1.959,8.375a22,22,0,0,1,.865,3.478c-.028.01-.107-.121-.226-.377a6.339,6.339,0,0,1,.511,1.648h0A14.884,14.884,0,0,1-574.637-50.753Zm52.626-2.576c-1.109-3.08-2.039-5.576-1.858-5.656s1.4,2.31,2.525,5.415,1.7,5.729,1.522,5.781h-.006C-520.034-47.788-520.906-50.278-522.011-53.329Zm-.011-4.127c-1.084-2.879-2.168-5.138-1.989-5.237.16-.095,1.547,2.051,2.653,4.989s1.492,5.456,1.31,5.493h-.005C-520.256-52.211-520.937-54.606-522.022-57.456Zm25.8,4.992c-.4,0,.879-8.663-2.31-18.911a30.567,30.567,0,0,1,.967-13.549,30.06,30.06,0,0,1,1.456-3.868,5.8,5.8,0,0,1,.733-1.325c.116.051-.825,1.993-1.708,5.328a32.562,32.562,0,0,0-.751,13.3c.427,2.58,1.222,5,1.6,7.288a36.531,36.531,0,0,1,.4,6.119c-.026,1.745-.113,3.15-.19,4.117a6.3,6.3,0,0,1-.2,1.5Zm-77.6-3.763A80.632,80.632,0,0,1-576-65.112a79.858,79.858,0,0,1-1.16-9.072,17.1,17.1,0,0,1-.037-3.792,24.106,24.106,0,0,1,.536,3.744c.277,2.314.712,5.5,1.358,8.992s1.394,6.62,1.963,8.875a23.6,23.6,0,0,1,.847,3.69h0A18.313,18.313,0,0,1-573.823-56.227Zm4.2.416c-.277-.733-.635-1.81-1.04-3.149a86.239,86.239,0,0,1-2.452-10.67,85.941,85.941,0,0,1-1.092-10.9c-.047-1.4-.05-2.533-.022-3.317a3.9,3.9,0,0,1,.113-1.215,39.113,39.113,0,0,1,.409,4.506c.215,2.777.6,6.613,1.288,10.805s1.551,7.952,2.237,10.652a38.188,38.188,0,0,1,1.054,4.4h0A4.461,4.461,0,0,1-569.619-55.811Zm-1.781-3.076a73.165,73.165,0,0,1-2.4-10.108,72.881,72.881,0,0,1-.956-10.349,20.2,20.2,0,0,1,.176-4.3,36.166,36.166,0,0,1,.324,4.28c.168,2.639.5,6.273,1.154,10.251s1.5,7.532,2.19,10.086a35.183,35.183,0,0,1,1.058,4.157h0A21.107,21.107,0,0,1-571.4-58.887Zm2.142,1.5c-.251-.734-.572-1.81-.934-3.149A87.738,87.738,0,0,1-572.3-71.174a87.5,87.5,0,0,1-.781-10.816c-.007-1.387.018-2.507.069-3.284a3.868,3.868,0,0,1,.142-1.2,37.807,37.807,0,0,1,.293,4.47c.139,2.758.419,6.561.981,10.736s1.3,7.915,1.895,10.612a36.792,36.792,0,0,1,.9,4.387h0A4.208,4.208,0,0,1-569.258-57.39Zm14.659.65c-.219-.077.891-2.818,2.1-6.1a3.984,3.984,0,0,0-.328-4.04,3.843,3.843,0,0,0-1.5-.941c-.047-.076.884-.306,1.858.595,1.026.851,1.347,2.891.65,4.587a25.4,25.4,0,0,1-2.777,5.9Zm34.121-1.6a29.392,29.392,0,0,0-1.533-3.683c-1.357-2.849-2.317-5.233-2.142-5.316s1.423,2.16,2.785,5.018a16.228,16.228,0,0,1,1.376,3.861c.193,1.047.105,1.712.018,1.715h0C-520.081-56.744-520.172-57.375-520.478-58.339Zm-46.586-2.909c-.632-2.741-1.895-6.492-2.61-10.8a64.023,64.023,0,0,1-.949-11.093c0-1.427.069-2.577.131-3.372a4.1,4.1,0,0,1,.186-1.229c.109.007.069,1.762.183,4.595a83.3,83.3,0,0,0,1.149,10.98c.7,4.255,1.879,8,2.4,10.816a22.5,22.5,0,0,1,.4,3.361,3.538,3.538,0,0,1-.069,1.245h0C-566.357-56.744-566.4-58.5-567.064-61.248Zm12.5,1.241c-.241-.066.357-1.65.419-3.529a4.747,4.747,0,0,0-.554-2.285c-.292-.536-.6-.806-.536-.9.04-.073.482.062.949.609a4.047,4.047,0,0,1,.85,2.573,5.675,5.675,0,0,1-1.121,3.53Zm32.292-5.35c-1.263-2.989-2.146-5.477-1.966-5.561s1.35,2.284,2.62,5.288,2.149,5.489,1.967,5.562h-.008C-519.866-60.067-521.025-62.407-522.27-65.357Zm18.451,5.113c-.1-.018-.069-.547-.259-1.368s-.591-1.96-.956-3.234c-.741-2.551-1.19-4.667-1-4.726s.941,1.971,1.686,4.532a18.973,18.973,0,0,1,.766,3.354c.076.9-.136,1.442-.227,1.442Zm-9.262-3.93c-.467-1.631-.956-2.938-.778-3.025s.971,1.124,1.456,2.831.46,3.161.27,3.175h0C-512.337-61.192-512.613-62.55-513.081-64.174Zm-51.656,1.723c-.237-.737-.533-1.817-.858-3.161a78.588,78.588,0,0,1-1.769-10.651,78.274,78.274,0,0,1-.3-10.795c.062-1.38.147-2.5.238-3.263a4.012,4.012,0,0,1,.208-1.19,38.4,38.4,0,0,1,.055,4.463c0,2.748.105,6.543.508,10.715s1.029,7.918,1.554,10.616a37.7,37.7,0,0,1,.8,4.39h0A4.375,4.375,0,0,1-564.737-62.452Zm1.227-.609c-.282-.847-.628-2.088-1-3.639a73.674,73.674,0,0,1-1.85-12.316,73.674,73.674,0,0,1,.256-12.455c.175-1.584.361-2.861.533-3.737a5.272,5.272,0,0,1,.325-1.347c.112.015-.139,1.967-.358,5.127a94.438,94.438,0,0,0-.048,12.364,93.956,93.956,0,0,0,1.632,12.258c.624,3.1,1.12,5.007,1.014,5.039h0A5.559,5.559,0,0,1-563.51-63.061Zm-2.172.149c-.248-.726-.554-1.792-.9-3.117a80.279,80.279,0,0,1-1.945-10.528,80.909,80.909,0,0,1-.537-10.692c.03-1.372.088-2.478.158-3.241a3.855,3.855,0,0,1,.179-1.182,37.991,37.991,0,0,1,.167,4.419c.066,2.726.256,6.485.737,10.612s1.168,7.832,1.73,10.495a36.988,36.988,0,0,1,.858,4.34h0A4.076,4.076,0,0,1-565.682-62.912Zm53.17-3.317c-.687-2.321-1.332-4.181-1.147-4.262s1.124,1.694,1.825,4.062.876,4.369.686,4.4h-.005C-511.352-62.032-511.824-63.932-512.511-66.229Zm6.557.945c-.113-.759-.139-1.4.051-1.459s.526.54.646,1.357-.03,1.485-.223,1.485S-505.841-64.525-505.954-65.284Zm-16.024-3.959c-1.212-2.879-2.351-5.156-2.172-5.259.16-.095,1.591,2.058,2.821,4.981s1.788,5.449,1.606,5.5h-.007C-519.94-64.024-520.773-66.4-521.978-69.243Zm-.344-4.371c-1.215-3.081-2.219-5.573-2.036-5.657s1.471,2.291,2.693,5.394,1.905,5.721,1.723,5.78h-.007C-520.159-68.1-521.12-70.579-522.321-73.615Zm-32.981-.84a6.375,6.375,0,0,1,.266-3.2,6.877,6.877,0,0,1,2.606-2.916,3.808,3.808,0,0,0,1.751-2.894,4.71,4.71,0,0,0-.73-2.77,26.258,26.258,0,0,0-1.788-2.156,4.827,4.827,0,0,1,2.2,1.879,5.021,5.021,0,0,1,.968,3.08,4,4,0,0,1-.544,1.9,5.878,5.878,0,0,1-1.42,1.51,6.658,6.658,0,0,0-2.441,2.609,6.335,6.335,0,0,0-.376,2.9c.154,1.719.5,2.774.387,2.806h0A6.668,6.668,0,0,1-555.3-74.454Zm60.179-2.281c.154-2.106.88-4.927,1.31-8.04a14.875,14.875,0,0,0-.876-7.834c-.785-1.9-1.613-2.912-1.515-2.982a7.391,7.391,0,0,1,1.975,2.777,13.1,13.1,0,0,1,1.11,3.561,16.752,16.752,0,0,1,.007,4.565c-.445,3.2-1.241,5.963-1.515,8.015-.332,2.043-.252,3.332-.373,3.339h0A8.555,8.555,0,0,1-495.123-76.735Zm-27.486-2.843c-1-2.726-1.81-4.945-1.627-5.025s1.281,2.029,2.291,4.78,1.533,5.076,1.346,5.127h-.008C-520.809-74.694-521.619-76.887-522.609-79.578Zm-33.727,2.361a4.613,4.613,0,0,1,.563-2.281,7.208,7.208,0,0,1,1.985-2.021A7.74,7.74,0,0,0-551.9-83.3a2.328,2.328,0,0,0,.339-1.894c-.318-1.149-.806-1.832-.689-1.89a3.437,3.437,0,0,1,1.171,1.751,2.769,2.769,0,0,1-.266,2.375,7.422,7.422,0,0,1-2.011,2,7.5,7.5,0,0,0-1.858,1.8,4.551,4.551,0,0,0-.62,1.967A10.066,10.066,0,0,1-556-75.155h0A4.458,4.458,0,0,1-556.336-77.217Zm72.037-7.2c-.876-3.43-1.435-6.25-1.245-6.3s1.055,2.693,1.93,6.124,1.438,6.255,1.248,6.3h-.005C-482.57-78.289-483.427-81.012-484.3-84.417Zm-71.879,5.15c-.085-.033.047-.591.464-1.394.4-.814,1.1-1.829,1.66-3.007a5.635,5.635,0,0,0,.533-3.172c-.136-.821-.482-1.263-.391-1.336.043-.058.58.292.876,1.219a5.107,5.107,0,0,1-.376,3.584,20.309,20.309,0,0,1-1.876,2.967c-.487.686-.772,1.141-.878,1.141Zm33.708-5.423c-.635-1.813-1.167-3.284-.986-3.371s1,1.284,1.653,3.138.854,3.441.668,3.485h-.009C-521.343-81.438-521.845-82.9-522.471-84.691Zm10.816-7.634c-1.876-2.938-3.448-5.3-3.288-5.415s1.993,2.069,3.883,5.035,3.113,5.55,2.941,5.639a.024.024,0,0,1-.011,0C-508.349-87.063-509.806-89.443-511.655-92.325Zm3.146,2.259c-.694-1.186-1.865-2.708-3.1-4.456-2.467-3.481-4.339-6.4-4.178-6.511s2.288,2.621,4.755,6.1a35.405,35.405,0,0,1,2.963,4.627,4.523,4.523,0,0,1,.671,2.2h-.006C-507.508-88.106-507.81-88.905-508.508-90.066Zm-23.17-2.182a44.21,44.21,0,0,1-1.65-9.372,43.923,43.923,0,0,1,.4-9.506,15.508,15.508,0,0,1,.9-3.832,34.257,34.257,0,0,1-.4,3.9,55.822,55.822,0,0,0-.194,9.393,56.358,56.358,0,0,0,1.427,9.287,35.222,35.222,0,0,1,.916,3.813h0A16.1,16.1,0,0,1-531.678-92.248Zm24.472.029c-.832-1.244-2.16-2.883-3.485-4.769-2.693-3.748-4.755-6.886-4.6-7.007s2.474,2.831,5.182,6.6c1.332,1.9,2.587,3.568,3.332,4.919a3.836,3.836,0,0,1,.73,2.38h0A23.716,23.716,0,0,0-507.206-92.219Zm-50.539,2.092a5.964,5.964,0,0,0,2.65-2.591,7.564,7.564,0,0,0,.8-3.912,1.853,1.853,0,0,0-1.08-1.686,1.94,1.94,0,0,0-2.062.562,2.562,2.562,0,0,0-.741,2.128,1.178,1.178,0,0,0,1.387,1.022,1.7,1.7,0,0,0,1.127-1.38.814.814,0,0,0-.408-.932c-.036.164-.089.376-.157.633a1.16,1.16,0,0,1-.259.584.534.534,0,0,1-.824-.175,1.111,1.111,0,0,1,.8-1.583,1.2,1.2,0,0,1,1.1.357,1.516,1.516,0,0,1,.339,1.172,2.281,2.281,0,0,1-1.533,1.952,1.846,1.846,0,0,1-2.245-1.511,3.207,3.207,0,0,1,.913-2.758,2.623,2.623,0,0,1,2.817-.715,2.493,2.493,0,0,1,1.479,2.266,7.661,7.661,0,0,1-1.008,4.219,5.122,5.122,0,0,1-2.062,2.054,2.625,2.625,0,0,1-.972.307C-557.725-90.117-557.743-90.121-557.744-90.128Zm1.31-6.839a.682.682,0,0,0-.536.887c.146.318.4.051.489-.306.095-.234.177-.429.244-.579a.663.663,0,0,0-.1-.008A.691.691,0,0,0-556.434-96.967Zm48.258-8.809c-2.211-3.518-4.537-5.992-4.383-6.142.117-.131,2.719,2.167,4.977,5.762,2.285,3.584,3.248,6.919,3.081,6.967h-.008C-504.732-99.187-505.97-102.314-508.176-105.776Z" transform="translate(582.895 118.012)" fill="#a39dbc"/></svg>