<svg xmlns="http://www.w3.org/2000/svg" width="63.996" height="64" viewBox="0 0 63.996 64"><path d="M113.043,189.071a2.136,2.136,0,0,0,1.3.991l1.027.274a2.117,2.117,0,0,0,2.609-1.506l10.154-37.911a2.124,2.124,0,0,0-2.606-2.6L87.615,158.471a2.147,2.147,0,0,0-1.293.994,2.12,2.12,0,0,0-.213,1.615l.274,1.03a2.125,2.125,0,0,0,2.609,1.5l27.426-7.35-32.5,32.506L77.341,182.2a2.127,2.127,0,0,0-3.009,0l-.753.75a2.128,2.128,0,0,0,0,3.012l6.572,6.575L64.83,207.854a2.127,2.127,0,0,0,0,3.009l.753.758a2.132,2.132,0,0,0,3.009,0L83.915,196.3l6.572,6.572a2.135,2.135,0,0,0,3.012,0l.75-.758a2.125,2.125,0,0,0,0-3.009l-6.572-6.572,32.5-32.5-7.344,27.426A2.123,2.123,0,0,0,113.043,189.071Z" transform="translate(-64.206 -148.243)" fill="#fff"/></svg>