<svg xmlns="http://www.w3.org/2000/svg" width="42" height="64" viewBox="0 0 42 64"><path d="M120.971,71.256A9.536,9.536,0,0,0,129.7,57.994a153.617,153.617,0,0,1-2.986-28.432,7.655,7.655,0,0,1,7.625-7.665,6.591,6.591,0,0,1,6.305,8.035C133.376,60.064,133.523,67.31,134.5,72.8v0l0,0c.012.065.021.127.032.192,0,.03.025.051.032.081,1.044,5.542,4.711,9.118,9.427,9.118a9.522,9.522,0,0,0,9.489-9.535,1.555,1.555,0,0,0-1.553-1.558h-.576a1.555,1.555,0,0,0-1.553,1.558,5.831,5.831,0,0,1-5.807,5.838c-3,0-5.19-2.364-5.867-6.324v0c-.908-5.081-1.018-11.9,6.13-41.488a.36.36,0,0,0,0-.051A10.276,10.276,0,0,0,134.343,18.2a11.349,11.349,0,0,0-11.309,11.364A151.5,151.5,0,0,0,125.1,53.149a9.392,9.392,0,0,0-4.128-.961,9.534,9.534,0,0,0,0,19.068Zm0-15.369a5.789,5.789,0,0,1,5.232,3.347c.26,1.3.463,2.2.56,2.632a5.8,5.8,0,1,1-5.791-5.979Z" transform="translate(-111.482 -18.199)" fill="#fff"/></svg>