<svg xmlns="http://www.w3.org/2000/svg" width="59" height="64" viewBox="0 0 59 64"><path d="M120.988,109.089a4.241,4.241,0,0,0-.957-.112c-3.1,0-6.507,3.394-8.923,6.808V114.6c0-2.144,0-4.288.015-6.43l.013-2.683c.018-2.374.033-4.751.062-7.123.059-5.311-1.37-8.61-4.25-9.8a6.123,6.123,0,0,0-2.362-.45c-3.886,0-8.566,3.3-11.634,5.875-.6-2.773-1.872-4.61-3.852-5.426a6.092,6.092,0,0,0-2.36-.45c-4.26,0-9.415,3.895-12.452,6.568a38.374,38.374,0,0,0-5.5-10.031,1.819,1.819,0,0,0-2.547-.3l-.421.332a1.811,1.811,0,0,0-.3,2.54c.059.074,5.825,7.483,5.825,13.913v37.617a1.811,1.811,0,0,0,1.813,1.809h.536a1.811,1.811,0,0,0,1.813-1.809V101.138a15.955,15.955,0,0,0-.118-1.812c3-2.916,8.323-7.061,11.336-7.061a2.039,2.039,0,0,1,.78.133c1.108.46,1.718,2.617,1.68,5.924-.2,17.225-.021,38.077,0,40.4l.541.015v.033l-.541,0a1.818,1.818,0,0,0,1.816,1.8h.021l.541-.008a1.809,1.809,0,0,0,1.79-1.827c0-.2-.205-21.557-.013-39.508,3.021-2.908,8.254-6.959,11.231-6.959a2.057,2.057,0,0,1,.78.133c1.105.46,1.718,2.617,1.677,5.924-.026,2.489-.041,4.976-.059,7.465l-.013,2.359c-.013,2.152-.013,4.3-.013,6.456l0,3.215c0,1.679.005,3.35.01,5.027l.013,3.7c0,.92.013,1.84.015,2.76-.018.884,0,1.51.008,1.712l.005.023c.005.825.01,1.648.015,2.479l.005,1.015v.253c0,.721,0,1.444.021,2.165.008.171.031.335.046.509-2.649,2.934-5.124,5.405-6.769,7.041a1.812,1.812,0,0,0-.533,1.28,1.793,1.793,0,0,0,.533,1.278l.377.381a1.822,1.822,0,0,0,2.567,0c1.318-1.316,3.155-3.151,5.178-5.318a10.4,10.4,0,0,0,2.862,3.422A9.751,9.751,0,0,0,113.9,147a9.559,9.559,0,0,0,3.088.534,1.812,1.812,0,0,0,1.813-1.807v-.534a1.811,1.811,0,0,0-1.813-1.809,5.442,5.442,0,0,1-1.706-.3,6.07,6.07,0,0,1-1.482-.861,6.734,6.734,0,0,1-2.288-3.529c6.1-7.023,12.616-16.249,12.616-24.223C124.132,110.461,122.163,109.378,120.988,109.089Zm-9.841,20.448c.046-2.313.372-6.172,1.6-8.5,2.447-4.654,5.817-7.6,7.069-7.889a4.531,4.531,0,0,1,.154,1.326c0,5.62-4.14,12.329-8.795,18.168C111.157,131.6,111.154,130.569,111.147,129.537Z" transform="translate(-65.132 -83.966)" fill="#fff"/></svg>