<svg xmlns="http://www.w3.org/2000/svg" width="40" height="64" viewBox="0 0 40 64"><path d="M152.139,148.419l-.484-.364a2.052,2.052,0,0,0-2.863.391c-.1.133-9.631,13.036-10.679,28.341h-10.3c-.932-15.436-10.573-28.516-10.676-28.651a2.044,2.044,0,0,0-2.875-.411l-.48.362a2.056,2.056,0,0,0-.413,2.873c.093.128,8.807,11.967,9.739,25.827h-2.732a2.049,2.049,0,0,0-2.049,2.053v.608a2.046,2.046,0,0,0,2.049,2.048H123.1c-.932,13.853-9.646,25.707-9.732,25.832a2.041,2.041,0,0,0,.406,2.875l.48.367a2.087,2.087,0,0,0,1.232.406,2.5,2.5,0,0,0,.3-.025,2.061,2.061,0,0,0,1.355-.815c.418-.566,9.752-13.479,10.664-28.641h10.273c.792,15.438,10.271,28.412,10.689,28.986a2.05,2.05,0,0,0,1.355.8,1.634,1.634,0,0,0,.29.025,2.05,2.05,0,0,0,1.235-.416l.484-.364a2.057,2.057,0,0,0,.411-2.868c-.093-.126-8.94-12.186-9.757-26.165h3.163a2.047,2.047,0,0,0,2.051-2.048v-.608a2.049,2.049,0,0,0-2.051-2.053h-3.133c1.04-13.688,9.634-25.374,9.727-25.5A2.057,2.057,0,0,0,152.139,148.419Z" transform="translate(-112.955 -147.309)" fill="#fff"/></svg>