<svg xmlns="http://www.w3.org/2000/svg" width="94.001" height="48" viewBox="0 0 94.001 48"><path d="M-6678.909-227a.629.629,0,0,1-.628-.629v-3.351a.628.628,0,0,1,.627-.629h91.819a.627.627,0,0,1,.627.629v3.351a.627.627,0,0,1-.627.629Zm60.046-13.016a2.145,2.145,0,0,1-.417-.087,1.783,1.783,0,0,1-.32-.065,1.863,1.863,0,0,1-.436-.216,1.266,1.266,0,0,1-.27-.136c-.042-.025-.057-.07-.092-.106a2.244,2.244,0,0,1-.285-.34,2.716,2.716,0,0,1-.25-.369,2.093,2.093,0,0,1-.121-.4,2.289,2.289,0,0,1-.094-.464,1,1,0,0,1-.027-.122,1.864,1.864,0,0,1,.062-.3,2.257,2.257,0,0,1,.091-.451,2.293,2.293,0,0,1,.225-.434,2.266,2.266,0,0,1,.134-.255,16.176,16.176,0,0,0,3.618-10.262,16.4,16.4,0,0,0-16.408-16.369,16.4,16.4,0,0,0-16.4,16.369,16.412,16.412,0,0,0,3.623,10.263c.059.077.074.164.125.245a2.144,2.144,0,0,1,.233.446,2.215,2.215,0,0,1,.089.436,2.222,2.222,0,0,1,.062.315c0,.04-.022.079-.027.122a2.011,2.011,0,0,1-.092.461,2.244,2.244,0,0,1-.119.4,2.947,2.947,0,0,1-.256.376,2.16,2.16,0,0,1-.273.329c-.039.032-.054.082-.092.109a2.638,2.638,0,0,1-.394.223c-.072.035-.134.084-.208.114a2.346,2.346,0,0,1-.847.169h-29.655a2.308,2.308,0,0,1-2.312-2.3,2.312,2.312,0,0,1,2.312-2.31h25.462a20.986,20.986,0,0,1-2.25-9.395A21.023,21.023,0,0,1-6633.453-275a21.027,21.027,0,0,1,21.029,20.978,21,21,0,0,1-2.25,9.395h26.362a2.313,2.313,0,0,1,2.312,2.31,2.309,2.309,0,0,1-2.312,2.3Z" transform="translate(6680 275)" fill="#fff"/></svg>