<?xml version="1.0" encoding="utf-8"?>
<!-- Generator: Adobe Illustrator 24.3.0, SVG Export Plug-In . SVG Version: 6.00 Build 0)  -->
<svg version="1.0" id="_x2014_ÎÓÈ_x5F_1" xmlns="http://www.w3.org/2000/svg" xmlns:xlink="http://www.w3.org/1999/xlink"
	 x="0px" y="0px" viewBox="0 0 38.864 52" style="enable-background:new 0 0 38.864 52;" xml:space="preserve">
<g>
	<path style="fill:#FF8400;" d="M19.432,29.56c-0.009,0-0.018,0-0.027,0c-2.793,0-5.212-1.001-7.188-2.974
		c-1.982-1.98-2.988-4.405-2.989-7.206c0.001-2.8,1.006-5.224,2.989-7.203c1.976-1.974,4.395-2.976,7.191-2.976
		c0.007,0.001,0.016,0.001,0.025,0c2.8,0,5.223,1.001,7.203,2.975c1.982,1.98,2.988,4.404,2.989,7.203
		c-0.001,2.802-1.007,5.227-2.988,7.206C24.654,28.56,22.231,29.56,19.432,29.56z M19.418,27.53c0.003,0,0.008,0,0.011,0
		c2.276,0,4.163-0.779,5.772-2.381c1.608-1.607,2.39-3.494,2.392-5.769c-0.001-2.272-0.784-4.158-2.393-5.766
		c-1.607-1.601-3.494-2.381-5.768-2.381c-0.004,0-0.008,0.001-0.014,0c-0.004,0-0.008,0-0.012,0c-2.269,0-4.151,0.778-5.755,2.381
		c-1.609,1.608-2.392,3.494-2.393,5.767c0.001,2.274,0.784,4.161,2.393,5.769c1.604,1.601,3.486,2.38,5.755,2.38
		C19.41,27.53,19.414,27.53,19.418,27.53z"/>
</g>
<g>
	<path style="fill:#FF8400;" d="M19.419,52L19.419,52c-0.305,0-0.595-0.138-0.788-0.375c-1.445-1.775-2.881-3.589-4.268-5.389
		c-0.246-0.314-0.493-0.635-0.738-0.954c-3.762-4.903-7.245-9.815-10.352-14.597C1.097,27.326-0.004,23.553,0,19.469
		c-0.009-5.346,1.901-9.973,5.679-13.752C9.458,1.941,14.08,0.018,19.416,0c0.002,0,0.005,0,0.007,0
		c5.332,0.018,9.95,1.941,13.724,5.717c3.789,3.777,5.714,8.404,5.718,13.752c0,4.085-1.106,7.858-3.286,11.216
		c-3.116,4.792-6.612,9.717-10.391,14.636l-0.531,0.695c-1.429,1.852-2.926,3.738-4.45,5.61C20.014,51.862,19.725,52,19.419,52z
		 M19.419,2.031c-4.779,0.017-8.92,1.74-12.305,5.122c-3.381,3.383-5.092,7.527-5.083,12.316c-0.004,3.688,0.988,7.089,2.947,10.111
		c3.078,4.738,6.53,9.606,10.26,14.467c0.241,0.315,0.484,0.63,0.73,0.945c1.128,1.464,2.285,2.931,3.452,4.38
		c1.24-1.536,2.457-3.077,3.626-4.592l0.529-0.692c3.75-4.881,7.215-9.761,10.302-14.509c1.962-3.022,2.957-6.424,2.958-10.108
		c-0.004-4.788-1.727-8.933-5.122-12.317C28.33,3.771,24.194,2.048,19.419,2.031z"/>
</g>
</svg>
