<?xml version="1.0" encoding="utf-8"?>
<!-- Generator: Adobe Illustrator 24.3.0, SVG Export Plug-In . SVG Version: 6.00 Build 0)  -->
<svg version="1.0" id="_x2014_ÎÓÈ_x5F_1" xmlns="http://www.w3.org/2000/svg" xmlns:xlink="http://www.w3.org/1999/xlink"
	 x="0px" y="0px" viewBox="0 0 57.493 52" style="enable-background:new 0 0 57.493 52;" xml:space="preserve">
<g>
	<g>
		<path style="fill:#FF8400;" d="M5.989,44.813v-6.485H3.593C1.612,38.329,0,36.717,0,34.735V15.571
			c0-1.981,1.612-3.593,3.593-3.593H32.34c1.981,0,3.593,1.612,3.593,3.593v19.164c0,1.981-1.612,3.593-3.593,3.593H12.474
			L5.989,44.813z M3.593,14.373c-0.661,0-1.198,0.537-1.198,1.198v19.164c0,0.66,0.537,1.198,1.198,1.198h4.791v3.097l3.097-3.097
			H32.34c0.661,0,1.198-0.537,1.198-1.198V15.571c0-0.66-0.537-1.198-1.198-1.198H3.593z"/>
	</g>
	<g>
		<path style="fill:#FF8400;" d="M51.504,52l-6.485-6.485H25.153c-1.981,0-3.593-1.612-3.593-3.593v-1.198h2.396v1.198
			c0,0.66,0.537,1.198,1.198,1.198h20.858l3.097,3.097V43.12H53.9c0.661,0,1.198-0.537,1.198-1.198V22.758
			c0-0.66-0.537-1.198-1.198-1.198H38.329v-2.396H53.9c1.981,0,3.593,1.612,3.593,3.593v19.164c0,1.981-1.612,3.593-3.593,3.593
			h-2.396V52z"/>
	</g>
	<g>
		<path style="fill:#FF8400;" d="M47.911,16.769h-2.396V3.593c0-0.66-0.537-1.198-1.198-1.198H15.571
			c-0.661,0-1.198,0.537-1.198,1.198v5.989h-2.396V3.593C11.978,1.612,13.59,0,15.571,0h28.746c1.981,0,3.593,1.612,3.593,3.593
			V16.769z"/>
	</g>
</g>
</svg>
