<?xml version="1.0" encoding="utf-8"?>
<!-- Generator: Adobe Illustrator 24.3.0, SVG Export Plug-In . SVG Version: 6.00 Build 0)  -->
<svg version="1.0" id="icons" xmlns="http://www.w3.org/2000/svg" xmlns:xlink="http://www.w3.org/1999/xlink" x="0px" y="0px"
	 viewBox="0 0 75.91 52" style="enable-background:new 0 0 75.91 52;" xml:space="preserve">
<g>
	<g>
		<polygon style="fill:#FF8400;" points="37.955,52 8.016,52 8.016,37.341 17.735,22.762 20.357,24.51 11.167,38.295 11.167,48.848 
			37.955,48.848 		"/>
	</g>
	<g>
		<polygon style="fill:#FF8400;" points="67.895,52 37.955,52 37.955,48.848 64.743,48.848 64.743,38.295 55.553,24.51 
			58.175,22.762 67.895,37.341 		"/>
	</g>
	<g>
		<path style="fill:#FF8400;" d="M37.955,40.97c-6.082,0-11.03-4.595-11.03-10.242s4.948-10.242,11.03-10.242
			s11.03,4.595,11.03,10.242S44.037,40.97,37.955,40.97z M37.955,23.636c-4.344,0-7.879,3.181-7.879,7.091s3.535,7.091,7.879,7.091
			s7.879-3.181,7.879-7.091S42.299,23.636,37.955,23.636z"/>
	</g>
	<g>
		<path style="fill:#FF8400;" d="M70.368,26.8l-0.919-0.012c-5.323-0.072-11.581-1.325-16.333-3.268l-0.979-0.402v-7.971
			c-1.782-0.822-6.437-2.541-14.182-2.541s-12.4,1.719-14.182,2.541v7.971l-0.979,0.402c-4.752,1.944-11.01,3.196-16.333,3.268
			L5.542,26.8l-0.463-0.794c-1.785-3.059-3.764-7.009-4.914-13.108L0,12.026l0.661-0.592C2.79,9.524,14.593,0,37.955,0
			S73.12,9.524,75.249,11.433l0.661,0.592l-0.165,0.873c-1.15,6.098-3.129,10.049-4.914,13.108L70.368,26.8z M55.288,20.983
			c3.948,1.46,8.956,2.453,13.282,2.628C70,21.06,71.495,17.833,72.47,13.211C69.54,10.864,58.352,3.152,37.955,3.152
			S6.371,10.864,3.44,13.211c0.975,4.623,2.471,7.85,3.899,10.401c4.326-0.175,9.335-1.168,13.282-2.628v-7.711l0.789-0.455
			c0.973-0.562,6.345-3.362,16.545-3.362s15.571,2.801,16.545,3.362l0.789,0.455V20.983z"/>
	</g>
</g>
</svg>
