<?xml version="1.0" encoding="utf-8"?>
<!-- Generator: Adobe Illustrator 24.3.0, SVG Export Plug-In . SVG Version: 6.00 Build 0)  -->
<svg version="1.0" id="Isolation_Mode" xmlns="http://www.w3.org/2000/svg" xmlns:xlink="http://www.w3.org/1999/xlink" x="0px"
	 y="0px" viewBox="0 0 53.448 52" style="enable-background:new 0 0 53.448 52;" xml:space="preserve">
<g>
	<path style="fill:#F5841F;" d="M20.855,0C10.357-0.017,1.311,8.416,1.288,19.51c-0.023,11.293,9.219,19.67,19.631,19.613
		c11.006-0.06,19.614-9.156,19.456-19.594C40.497,9.119,31.914,0.018,20.855,0z M20.8,37.748
		c-9.765-0.003-18.112-7.827-18.135-18.149C2.643,9.301,10.949,1.33,20.894,1.378c10.604,0.052,18.18,8.752,18.131,18.147
		C39.112,29.06,31.371,37.751,20.8,37.748z"/>
	<path style="fill:#F5841F;" d="M49.098,43.508c-1.977-1.984-3.959-3.963-5.94-5.943c-0.475-0.475-0.943-0.959-1.429-1.423
		c-1.051-1.005-1.528-1.016-2.543-0.05c-0.527,0.502-1.04,1.019-1.548,1.542c-1.189,1.223-1.189,1.56-0.03,2.768
		c0.039,0.04,0.079,0.079,0.119,0.119c2.535,2.535,5.068,5.072,7.607,7.603c0.271,0.27,0.581,0.502,0.842,0.725
		c1.337-1.361,2.625-2.671,4.061-4.132C49.856,44.31,49.487,43.898,49.098,43.508z"/>
	<path style="fill:#F5841F;" d="M53.109,47.578c-0.618-0.703-1.222-1.435-1.916-1.851c-1.412,1.332-2.745,2.59-4.236,3.996
		c0.7,0.702,1.262,1.32,1.882,1.874c0.605,0.539,1.205,0.539,1.794-0.013c0.855-0.801,1.684-1.633,2.475-2.496
		C53.564,48.592,53.559,48.089,53.109,47.578z"/>
	<path style="fill:#F5841F;" d="M37.954,35.958c-0.693-0.692-1.275-1.284-1.872-1.862c-0.106-0.103-0.27-0.145-0.44-0.231
		c-0.114,0.165-0.311,0.347-0.277,0.414c0.433,0.866,1.151,1.479,1.935,2.008C37.377,36.34,37.634,36.126,37.954,35.958z"/>
	<polygon style="fill:#F5841F;" points="0.038,46.084 0.098,45.975 0,45.961 	"/>
	<path style="fill:#F5841F;" d="M20.922,2.349C11.881,2.286,3.641,9.562,3.639,19.569c-0.002,9.946,8.19,17.18,17.13,17.205
		c9.76,0.027,17.45-8.106,17.246-17.22C38.226,10.682,30.807,2.418,20.922,2.349z M35.52,18.894
		c-0.402-0.189-0.761-0.468-1.144-0.701c-2.505-1.527-5.165-1.782-7.944-0.934c-1.276,0.39-1.456,0.658-1.553,2.047
		c-0.011,0.162,0.021,0.326,0.032,0.479c0.118,0.049,0.234,0.145,0.301,0.118c0.945-0.377,1.841-0.294,2.734,0.188
		c0.54,0.292,1.127,0.497,1.674,0.778c0.104,0.054,0.208,0.353,0.159,0.411c-0.122,0.145-0.349,0.322-0.503,0.297
		c-0.382-0.062-0.799-0.154-1.109-0.368c-1.32-0.913-2.572-0.425-3.822,0.125c-0.795,0.349-1.36,1.325-1.184,2.169
		c0.111,0.53,0.024,0.998-0.106,1.485c-0.247,0.922-0.552,1.833-0.728,2.768c-0.152,0.813-0.158,1.654-0.239,2.596
		c-0.263-0.111-0.52-0.136-0.616-0.274c-0.34-0.486-0.367-1.054-0.249-1.62c0.206-0.989,0.43-1.975,0.651-2.961
		c0.059-0.264,0.137-0.524,0.298-1.13c-0.557,0.496-0.866,0.763-1.167,1.04c-0.289,0.266-0.568,0.541-0.924,0.881
		c0.01,0.217,0.001,0.489,0.038,0.755c0.07,0.5-0.113,0.872-0.511,1.164c-0.498,0.366-0.997,0.731-1.482,1.114
		c-1.248,0.986-2.348,2.096-2.978,3.598c-0.06,0.144-0.186,0.275-0.313,0.371c-0.074,0.055-0.223,0.061-0.315,0.026
		c-0.089-0.034-0.214-0.153-0.208-0.225c0.028-0.327,0.03-0.682,0.163-0.971c0.601-1.304,1.592-2.293,2.647-3.239
		c0.43-0.385,1.072-0.577,1.244-1.221c-0.456,0.155-0.923,0.284-1.362,0.477c-1.246,0.545-2.541,0.906-3.892,1.041
		c-0.877,0.088-1.28-0.291-1.229-1.157c0.097-1.653,0.631-3.183,1.344-4.665c0.182-0.379,0.56-0.708,0.444-1.393
		c-0.474,0.594-0.847,1.068-1.227,1.537c-0.853,1.053-1.769,2.048-2.957,2.73c-0.429,0.246-0.922,0.389-1.401,0.53
		c-0.104,0.031-0.331-0.117-0.39-0.238c-0.055-0.113,0.01-0.311,0.075-0.447c0.041-0.085,0.171-0.141,0.272-0.182
		c1.682-0.681,2.851-1.964,3.931-3.349c0.207-0.266,0.431-0.525,0.597-0.816c0.466-0.816,1.129-1.047,2.037-0.644
		c0.646-0.667,1.261-1.301,2.073-2.139c-0.502,0.075-0.743,0.094-0.975,0.148c-0.985,0.226-1.959,0.516-2.954,0.671
		c-0.533,0.083-1.111-0.016-1.649-0.127c-0.177-0.037-0.291-0.372-0.443-0.582c0.201-0.113,0.3-0.219,0.391-0.213
		c1.721,0.121,3.34-0.346,4.948-0.86c0.66-0.211,1.304-0.347,1.782,0.017c1.9-0.343,2.111-1.855,2.55-3.164
		c0.093-0.277-0.041-0.659-0.145-0.967c-0.196-0.585-0.459-1.148-0.663-1.731c-0.07-0.201-0.069-0.435-0.057-0.651
		c0.005-0.086,0.113-0.199,0.202-0.238c0.087-0.039,0.22-0.027,0.313,0.012c0.096,0.041,0.205,0.125,0.244,0.217
		c0.394,0.929,0.862,1.841,1.123,2.807c0.132,0.49-0.115,1.083-0.206,1.74c0.372,0.028,0.741,0.098,1.103,0.075
		c0.62-0.04,1.006-0.395,1.229-0.986c1.078-2.851,0.934-5.613-0.556-8.286c-0.245-0.44-0.544-0.852-0.779-1.297
		c-0.059-0.112-0.005-0.413,0.064-0.438c0.18-0.063,0.482-0.107,0.583-0.006c0.314,0.314,0.597,0.675,0.82,1.059
		c1.513,2.598,1.97,5.349,1.132,8.272c-0.077,0.27-0.177,0.533-0.26,0.802c-0.065,0.211-0.121,0.424-0.198,0.697
		c0.245,0.229,0.485,0.453,0.773,0.722c0.485-0.144,0.961-0.291,1.44-0.426c3.18-0.892,6.116-0.312,8.847,1.478
		c0.412,0.27,0.404,0.281,0.797,1.106C35.914,18.838,35.671,18.965,35.52,18.894z"/>
	<path style="fill:#F5841F;" d="M21.189,20.486c-2.346,2.33-4.688,4.663-7.019,7.008c-0.141,0.142-0.175,0.39-0.259,0.589
		c0,0-0.012,0.011-0.012,0.011c4.394-0.762,7.99-4.24,8.912-7.046c-0.359-0.274-0.744-0.569-1.117-0.853
		C21.473,20.319,21.302,20.373,21.189,20.486z"/>
	<path style="fill:#F5841F;" d="M20.796,19.331c-0.261-0.367-0.54-0.76-0.804-1.132c-3.506,1.378-6.61,5.388-6.822,8.726
		C14.174,26.233,19.728,20.716,20.796,19.331z"/>
	<path style="fill:#F5841F;" d="M23.22,17.65c-0.613-0.642-1.287-0.628-2.241-0.035c0.491,1.15,1.295,1.958,2.46,2.433
		c0.433-0.846,0.513-0.955,0.397-1.265C23.685,18.382,23.508,17.951,23.22,17.65z"/>
	<path style="fill:#F5841F;" d="M13.909,28.083c-0.284-0.018-0.566-0.036-0.848-0.054c-0.001,0.047-0.001,0.094-0.002,0.141
		c0.28-0.026,0.56-0.051,0.84-0.077C13.899,28.093,13.911,28.083,13.909,28.083z"/>
	<path style="fill:#F5841F;" d="M18.907,27.434c-0.08-0.037-0.202-0.126-0.233-0.101c-0.09,0.072-0.156,0.174-0.227,0.271
		c0.124-0.013,0.248-0.024,0.369-0.049C18.853,27.547,18.877,27.476,18.907,27.434z"/>
	<path style="fill:#F5841F;" d="M18.447,27.604c-0.02,0.002-0.04,0.004-0.06,0.006l0,0c-0.004,0.018-0.012,0.033-0.017,0.051
		c0.016-0.005,0.032-0.01,0.048-0.016C18.427,27.631,18.437,27.617,18.447,27.604z"/>
</g>
</svg>
