<?xml version="1.0" encoding="utf-8"?>
<!-- Generator: Adobe Illustrator 24.3.0, SVG Export Plug-In . SVG Version: 6.00 Build 0)  -->
<svg version="1.0" id="Isolation_Mode" xmlns="http://www.w3.org/2000/svg" xmlns:xlink="http://www.w3.org/1999/xlink" x="0px"
	 y="0px" viewBox="0 0 96.926 52" style="enable-background:new 0 0 96.926 52;" xml:space="preserve">
<g>
	<path style="fill:#F5841F;" d="M90.972,42.101c-1.416-0.054-2.839,0.026-4.25-0.076c-1.194-0.086-1.828-0.746-1.946-1.953
		c-0.098-1.003-0.114-2.027-0.04-3.032c0.113-1.525,0.77-2.177,2.314-2.254c1.617-0.081,3.24-0.009,4.86-0.05
		c0.774-0.02,1.545-0.145,2.336-0.224c0.315-1.378,0.39-2.544-0.091-3.818c-0.841-0.055-1.637-0.082-2.426-0.167
		c-0.596-0.064-1.309-0.026-1.751-0.341c-1.085-0.773-2.258-0.762-3.476-0.762c-20.053,0.005-40.106,0.006-60.16-0.002
		c-1.223-0.001-2.399,0.125-3.576,0.519c-2.87,0.961-5.762,0.888-8.67,0.056c-1.054-0.302-2.167-0.516-3.259-0.543
		c-2.935-0.073-5.874-0.035-8.81-0.011c-0.575,0.005-1.149,0.141-1.665,0.209c-0.434,2.931-0.316,10.832,0.178,12.892
		c1.964,0.349,3.948,0.31,6.011,0.022c0.44-1.199,0.779-2.365,1.282-3.456c2.084-4.517,5.499-7.247,10.6-7.32
		c4.953-0.071,8.458,2.392,10.656,6.742c0.632,1.25,1.041,2.612,1.592,4.023c2.265,0.413,4.594,0.149,6.906,0.193
		c2.43,0.046,4.861,0.01,7.292,0.01c2.329,0,4.66,0.043,6.988-0.012c2.406-0.057,4.835,0.277,7.267-0.27
		c0.597-2.344,1.448-4.49,2.937-6.338c4.891-6.072,14.104-5.82,18.539,0.58c0.852,1.229,1.37,2.691,2.02,4.057
		c0.292,0.613,0.527,1.253,0.823,1.965c3.156,0,6.189,0.006,9.221-0.007c0.386-0.002,0.772-0.105,1.487-0.21
		C92.928,41.861,91.926,42.138,90.972,42.101z"/>
	<path style="fill:#F5841F;" d="M0.319,18.489c1.226,0.355,2.289,0.423,3.337-0.024c0.131-1.789,0.122-3.51,0.402-5.182
		c1.34-8.006,9.525-13.36,17.438-11.62c5.966,1.312,11.515,6.776,11.52,14.189c0.001,0.874,0.058,1.747,0.091,2.669
		c0.594,0.103,0.982,0.229,1.37,0.229c16.611,0.005,33.223-0.001,49.834-0.019c0.157,0,0.314-0.186,0.472-0.286
		c-0.052-0.174-0.054-0.453-0.163-0.504c-2.124-0.989-3.412-2.772-4.633-4.672c-1.916-2.982-3.908-5.914-5.895-8.849
		c-1.956-2.889-4.667-4.412-8.189-4.413c-0.405,0-0.81-0.006-1.215-0.006c-19.549,0-39.099-0.001-58.648,0.002
		c-0.709,0-1.422-0.022-2.125,0.049C1.805,0.265,0.396,1.61,0.069,3.711c-0.077,0.497-0.069,1.01-0.068,1.515
		c0.012,3.95,0.023,7.9,0.061,11.85C0.067,17.552,0.231,18.026,0.319,18.489z M50.318,2.335c0.001-0.189,0.121-0.377,0.303-0.905
		c0.549-0.099,1.03-0.261,1.512-0.261c4.449,0.003,8.899,0.053,13.348,0.053c3.448,0,5.964,1.473,7.697,4.476
		c1.769,3.063,3.695,6.036,5.52,9.067c0.346,0.574,0.543,1.237,0.906,2.089c-0.645,0.188-1.088,0.419-1.536,0.429
		c-2.123,0.046-4.247,0.036-6.371,0.037c-5.967,0.003-11.934,0.005-17.901-0.003c-0.996-0.001-1.993-0.051-3.016-0.079
		c-0.209-0.53-0.474-0.892-0.476-1.255C50.283,11.434,50.299,6.885,50.318,2.335z"/>
	<path style="fill:#F5841F;" d="M32.759,20.549c-1.519,2.29-2.951,4.45-4.7,7.086c19.934,0,39.463,0.002,58.993-0.01
		c0.486,0,0.972-0.149,1.374-0.214c0.172-0.291,0.315-0.453,0.372-0.641c0.415-1.365,1.332-1.93,2.743-1.863
		c0.762,0.036,1.564,0.102,2.355-0.216c-1.641-2.739-4.123-4.255-6.92-4.257c-17.413-0.01-34.826-0.007-52.239,0
		C34.038,20.435,33.34,20.514,32.759,20.549z"/>
	<path style="fill:#F5841F;" d="M90.812,50.767c-0.795-0.115-1.605-0.158-2.41-0.16c-4.352-0.015-8.704-0.003-13.056-0.021
		c-0.442-0.002-1.035,0.179-1.189-0.59c0.683-0.567,1.433-1.09,2.064-1.73c2.635-2.669,2.663-6.893,0.102-9.596
		c-2.45-2.586-6.612-2.867-9.381-0.633c-3.253,2.623-3.421,7.498-0.401,10.46c0.611,0.6,1.619,0.805,1.947,1.787
		c-2.347,0.389-42.771,0.506-47.57,0.112c1.151-0.958,1.979-1.527,2.661-2.236c2.332-2.423,2.519-6.253,0.495-8.914
		c-2.103-2.766-5.995-3.548-8.998-1.808c-2.928,1.697-4.178,5.221-2.999,8.401c0.549,1.481,1.51,2.612,2.815,3.473
		c0.405,0.267,0.914,0.483,0.585,1.288c-3.279,0-6.613-0.007-9.948,0.004c-1.011,0.003-2.026,0.009-3.028,0.115
		c-0.269,0.028-0.498,0.429-0.836,0.742c1.452,0.769,2.791,0.488,4.077,0.489c27.225,0.017,54.45,0.013,81.675,0.011
		c0.911,0,1.823,0.01,2.731-0.046c0.368-0.023,0.726-0.209,1.207-0.358C91.12,51.198,90.993,50.793,90.812,50.767z M14.453,43.28
		c0.082-2.211,1.947-3.975,4.165-3.939c2.224,0.036,3.998,1.847,4.001,4.085c0.003,2.209-1.808,4.079-3.992,4.124
		C16.361,47.596,14.368,45.558,14.453,43.28z M67.236,43.267c0.068-2.229,1.913-3.979,4.146-3.933
		c2.213,0.045,4.011,1.891,3.999,4.104c-0.012,2.185-1.856,4.073-4.02,4.116C69.075,47.599,67.164,45.613,67.236,43.267z"/>
	<path style="fill:#F5841F;" d="M28.448,24.071c4.367-5.444,3.65-13.723-1.646-17.406c-0.851,0.958-1.74,1.919-2.576,2.924
		c-0.273,0.328-0.408,0.771-0.656,1.26c0.839,0.141,1.443,0.214,2.031,0.351c0.586,0.136,1.327,0.289,1.312,1.018
		c-0.018,0.825-0.775,0.762-1.381,0.749c-0.303-0.006-0.606-0.066-0.909-0.062c-1.161,0.014-1.793,0.705-2.312,1.708
		c0.816,1.123,2.018,1.48,3.062,2.017c1.382,0.712,2.057,1.895,2.474,3.28c0.061,0.203-0.17,0.627-0.378,0.739
		c-0.206,0.111-0.663,0.06-0.819-0.103c-0.415-0.432-0.698-0.987-1.086-1.449c-0.722-0.86-1.6-1.431-2.802-1.462
		c-0.679,1.924,1.503,2.051,1.849,3.578c-0.096,1.302-0.197,2.916-0.346,4.525c-0.047,0.509-0.242,1.052-0.904,0.962
		c-0.617-0.084-0.721-0.642-0.745-1.153c-0.019-0.401,0.059-0.806,0.08-1.21c0.041-0.803,0.073-1.607,0.108-2.41
		c-0.181-0.046-0.362-0.092-0.543-0.138c-0.243,0.515-0.452,1.051-0.737,1.542c-0.659,1.134-1.287,2.296-2.056,3.354
		c-0.667,0.918-1.572,0.898-2.251-0.073c-0.806-1.154-1.455-2.419-2.15-3.647c-0.224-0.396-0.239-1.014-0.959-0.746
		c-0.37,1.467,0.498,3.036-0.396,4.492c-1.896-0.037-0.673-2.165-1.926-2.694c-0.263,0.218-0.601,0.436-0.856,0.727
		c-0.251,0.286-0.418,0.646-0.607,0.95C15.46,30.502,23.94,29.692,28.448,24.071z"/>
	<path style="fill:#F5841F;" d="M12.326,4.915c-7.198,3.178-9.072,12.762-3.482,19.52c1.734-1.992,3.33-3.803,4.893-5.642
		c0.249-0.293,0.431-0.715-0.136-1.165c-0.991,0.295-1.964,0.712-2.586,1.739c-0.259,0.428-0.537,0.868-0.898,1.203
		c-0.168,0.156-0.629,0.19-0.825,0.068c-0.203-0.126-0.398-0.554-0.334-0.772c0.411-1.391,1.12-2.546,2.495-3.255
		c1.038-0.535,2.246-0.881,3.059-2.042c-0.59-0.943-1.197-1.665-2.356-1.663c-0.503,0.001-1.029,0.121-1.501,0.007
		c-0.302-0.073-0.6-0.441-0.745-0.749c-0.056-0.12,0.271-0.578,0.494-0.643c0.765-0.225,1.569-0.498,2.344-0.46
		c0.733,0.036,1.448,0.441,2.219,0.7c0.453-1.002,0.863-1.911,1.248-2.763C14.796,6.219,14.74,6.162,12.326,4.915z"/>
	<path style="fill:#F5841F;" d="M8.817,27.385c-0.988-1.257-1.837-2.211-2.538-3.264c-0.768-1.152-1.398-2.396-2.082-3.588
		c-1.416-0.071-2.702-0.367-4.029,0.348c-0.203,2.111-0.164,4.182-0.007,6.661C3.153,27.635,5.803,27.833,8.817,27.385z"/>
	<path style="fill:#F5841F;" d="M86.533,37.046c0,0.941,0,1.899,0,3.038c3.516,0.301,6.874,0.258,10.393,0.036
		c0-1.16,0-2.124,0-3.244C93.438,36.357,88.593,36.447,86.533,37.046z"/>
	<path style="fill:#F5841F;" d="M17.673,3.17c-0.928,0.065-2.01-0.191-2.726,0.789c1.164,1.56,2.274,3.049,3.431,4.6
		c1.26-1.602,2.419-3.078,3.585-4.561C20.441,3.17,19.841,3.018,17.673,3.17z"/>
	<path style="fill:#F5841F;" d="M19.639,14.382c-0.583,2.958-0.321,5.499-0.089,8.024C21.152,19.543,21.211,16.99,19.639,14.382z"/>
	<path style="fill:#F5841F;" d="M21.51,9.891c1.393-1.495,2.865-2.787,3.902-4.815c-2.414-0.103-3.32,1.518-4.368,2.878
		C20.598,8.531,20.346,9.204,21.51,9.891z"/>
	<path style="fill:#F5841F;" d="M90.718,27.043c0,0.426,0,0.89,0,1.336c1.022,0.513,2.016,0.388,2.977,0.224
		c0.279-0.047,0.622-0.473,0.698-0.784c0.128-0.525-0.166-0.99-0.722-1.096C92.7,26.539,91.714,26.427,90.718,27.043z"/>
	<path style="fill:#F5841F;" d="M19.642,11.379c-0.23-0.44-0.78-0.712-1.03-0.924c-1.07,0.084-1.63,0.661-1.577,1.346
		c0.04,0.519,0.648,0.897,1.349,0.84C19.224,12.573,19.929,11.928,19.642,11.379z"/>
	<path style="fill:#F5841F;" d="M16.925,22.453c0.717-1.223,0.727-1.401,0.226-4.184C15.695,19.226,15.684,19.433,16.925,22.453z"/>
	<path style="fill:#F5841F;" d="M17.066,14.488c-0.216,0.087-0.475,0.131-0.631,0.281c-0.07,0.068,0.063,0.347,0.105,0.531
		c0.161-0.083,0.381-0.129,0.464-0.261C17.092,14.897,17.05,14.675,17.066,14.488z"/>
	<path style="fill:#F5841F;" d="M53.688,15.615c7.285,0.012,14.571,0.014,21.856-0.004c0.366-0.001,0.732-0.208,1.22-0.357
		c-0.277-0.59-0.449-1.059-0.703-1.478c-1.468-2.422-3.006-4.803-4.42-7.256c-1.268-2.202-3.028-3.472-5.62-3.494
		c-4.346-0.036-8.692-0.091-13.038-0.121c-0.177-0.001-0.356,0.165-0.533,0.253c-0.537,2.117-0.616,8.955-0.1,12.23
		C52.904,15.486,53.296,15.615,53.688,15.615z"/>
	<path style="fill:#F5841F;" d="M71.267,41.074c-1.237,0.021-2.268,1.102-2.256,2.365c0.012,1.323,0.983,2.276,2.308,2.266
		c1.32-0.01,2.275-0.991,2.251-2.313C73.548,42.116,72.492,41.054,71.267,41.074z"/>
	<path style="fill:#F5841F;" d="M18.693,41.08c-1.254-0.075-2.348,0.932-2.4,2.21c-0.056,1.365,0.823,2.348,2.159,2.414
		c1.27,0.063,2.394-0.923,2.469-2.166C20.992,42.36,19.897,41.152,18.693,41.08z"/>
</g>
</svg>
