<?xml version="1.0" encoding="utf-8"?>
<!-- Generator: Adobe Illustrator 24.3.0, SVG Export Plug-In . SVG Version: 6.00 Build 0)  -->
<svg version="1.0" id="_x2014_ÎÓÈ_x5F_1" xmlns="http://www.w3.org/2000/svg" xmlns:xlink="http://www.w3.org/1999/xlink"
	 x="0px" y="0px" viewBox="0 0 63.88 52" style="enable-background:new 0 0 63.88 52;" xml:space="preserve">
<g>
	<path style="fill:#FF8400;" d="M22.889,1.969c0.007,0.003,0.013,0.006,0.02,0.009c0.038-0.215,0.052-0.493-0.016-0.782
		c-0.109-0.466-0.399-0.819-0.862-1.052c-1.121-0.557-2.767,0.608-3.674,1.624c0.666,0.114,1.314,0.266,1.915,0.464
		C21.055,1.799,21.939,1.622,22.889,1.969z"/>
	<path style="fill:#FF8400;" d="M56.866,28.628c-0.537-3.222-4.36-17.046-11.999-20.785C38.255,4.608,33.512,6.19,30.372,7.237
		c-0.574,0.191-1.069,0.357-1.524,0.475c-2.834,0.741-3.908-0.389-4.319-0.837c-0.573,1.633-1.882,3.414-4.086,4.71
		c-0.092,0.054-0.193,0.08-0.292,0.08c-0.198,0-0.39-0.102-0.498-0.284c-0.161-0.275-0.07-0.628,0.205-0.789
		c0.001-0.001,0.002-0.001,0.003-0.002c2.73-1.607,4.002-4.156,3.849-5.843c-0.054-0.59-0.308-1.363-1.217-1.694
		c-2.313-0.845-4.505,3.574-4.527,3.619c-0.052,0.109-0.134,0.194-0.231,0.25c-0.159,0.092-0.36,0.107-0.538,0.021
		c-0.287-0.137-0.409-0.482-0.271-0.769c0.06-0.125,0.886-1.823,2.19-3.07c-2.546-0.626-5.795-0.547-7.625-0.154
		C9.067,3.469,0.965,6.701,0,7.518C-0.027,8.24,1.509,9.55,2.61,10.143c0.571,0.307,1.644,0.622,2.599,0.862
		c0.1-0.002,0.198,0.023,0.286,0.071c0.539,0.131,1.018,0.234,1.309,0.291c0.313,0.061,0.516,0.364,0.455,0.677
		c-0.061,0.313-0.364,0.515-0.677,0.455c-0.053-0.01-0.588-0.117-1.292-0.285c-1.542-0.704-1.326,0.557-0.968,0.675
		c0.3,0.103,0.693,0.232,1.15,0.382c3.984,1.306,7.936,2.693,8.683,4.038c0.883,1.589,4.249,6.962,6.6,9.649
		c0.344,0.393,0.732,0.773,1.107,1.14c1.12,1.095,2.275,2.23,2.685,4.024c0.002,0.007,0.004,0.013,0.005,0.02
		c0.003,0.011,0.007,0.021,0.009,0.032c0.369,1.688-0.44,4.867-0.585,5.416c-0.011,0.128-0.059,0.254-0.141,0.366
		c-0.519,0.705-2.72,0.934-3.382,0.988c-0.42,0.034-0.714,0.15-0.829,0.326c-0.031,0.048-0.05,0.102-0.062,0.156
		c1.047,0.012,3.45,0.017,4.782-0.174c1.452-0.207,2.107-1.77,2.113-1.785l0.031-0.064c0.023-0.041,1.791-3.213,2.408-6.006
		c-0.002-0.054,0.001-0.109,0.015-0.164c0.01-0.04,0.025-0.078,0.043-0.114c0.14-0.718,0.197-1.404,0.117-1.993
		c-0.043-0.316,0.178-0.606,0.494-0.648c0.314-0.043,0.606,0.179,0.649,0.494c0.082,0.604,0.047,1.279-0.063,1.981
		c0.734,0.184,2.135,0.53,3.639,0.882c-0.264-0.85-0.119-1.599,0.119-2.161c0.616-1.458,2.306-2.569,2.917-2.569
		c0.319,0,0.577,0.258,0.577,0.577c0,0.301-0.231,0.549-0.526,0.574c-0.325,0.096-1.662,0.953-1.998,2.127
		c-0.227,0.792,0.042,1.568,0.822,2.37c2.714,2.794,6.441,3.159,6.478,3.162l1.228,0.11l-0.871,0.872
		c-0.073,0.073-1.823,1.781-5.756,2.049c-1.707,0.116-2.246,0.566-2.415,0.824c-0.026,0.04-0.047,0.08-0.062,0.119
		c2.075-0.158,8.919-0.691,10.548-0.974c0.991-0.172,1.099-0.492,1.277-1.021c0.107-0.319,0.229-0.68,0.529-1.017
		c0.133-0.15,0.273-0.274,0.407-0.395c0.312-0.278,0.558-0.503,0.468-1.013c-0.029-0.065-0.047-0.135-0.051-0.209
		c-0.102-0.331-0.319-0.764-0.707-1.365c-0.173-0.267-0.096-0.624,0.172-0.797c0.267-0.173,0.624-0.096,0.797,0.172
		c0.352,0.546,0.59,1.009,0.746,1.412c2.53,0.106,5.484-1.519,7.068-3.19C56.537,30.455,57.002,29.439,56.866,28.628z M10.06,9.527
		c-1.073,0-1.945-0.738-1.945-1.646s0.872-1.646,1.945-1.646c1.072,0,1.945,0.738,1.945,1.646S11.132,9.527,10.06,9.527z"/>
	<path style="fill:#FF8400;" d="M10.06,7.389c-0.453,0-0.792,0.26-0.792,0.492c0,0.232,0.339,0.492,0.792,0.492
		c0.466,0,0.792-0.259,0.792-0.492S10.527,7.389,10.06,7.389z"/>
	<path style="fill:#FF8400;" d="M34.984,34.325c-1.728,0.118-2.261,0.576-2.424,0.838c-0.023,0.036-0.04,0.072-0.054,0.108
		c0.797-0.057,2.312-0.169,4.035-0.314c-0.312-0.215-0.623-0.45-0.929-0.71C35.449,34.276,35.236,34.308,34.984,34.325z"/>
	<path style="fill:#FF8400;" d="M57.836,30.028c-0.211,0.618-0.584,1.254-1.115,1.882c2.84,1.34,5.475,5.038,5.101,8.939
		c-0.439,4.58-3.747,9.774-11.624,9.362c-2.966-0.157-4.973-1.099-6.743-1.93c-2.293-1.076-4.273-2.005-7.914-1.284
		c-2.233,0.442-3.673,1.448-4.59,2.46c1.942-1.66,4.772-2.201,7.666-1.268c0.805,0.26,1.722,0.62,2.783,1.037
		c4.142,1.628,9.815,3.857,14.462,2.173c4.358-1.579,9.024-5.883,7.829-12.814C62.723,32.976,59.223,30.717,57.836,30.028z"/>
	<path style="fill:#FF8400;" d="M21.405,29.264c-0.022,1.871-0.559,3.956-0.678,4.394c-0.011,0.127-0.059,0.252-0.141,0.363
		c-0.519,0.705-2.72,0.934-3.382,0.988c-0.42,0.034-0.714,0.15-0.829,0.326c-0.031,0.048-0.051,0.102-0.062,0.156
		c1.047,0.012,3.449,0.017,4.781-0.174c1.095-0.157,1.997-2.151,2.301-3.035C23.082,31.034,22.293,30.145,21.405,29.264z"/>
</g>
</svg>
