<?xml version="1.0" encoding="utf-8"?>
<!-- Generator: Adobe Illustrator 24.3.0, SVG Export Plug-In . SVG Version: 6.00 Build 0)  -->
<svg version="1.0" id="_x2014_ÎÓÈ_x5F_1" xmlns="http://www.w3.org/2000/svg" xmlns:xlink="http://www.w3.org/1999/xlink"
	 x="0px" y="0px" viewBox="0 0 28.718 52" style="enable-background:new 0 0 28.718 52;" xml:space="preserve">
<g>
	<path style="fill:#FF8400;" d="M11.833,49.83c0.266,0.421,0.549,0.81,0.848,1.143C13.282,51.645,13.862,52,14.358,52
		c0.496,0,1.077-0.355,1.678-1.027c0.312-0.348,0.608-0.757,0.884-1.2c-0.811,0.222-1.747,0.403-2.661,0.403
		C13.515,50.176,12.702,50.058,11.833,49.83z"/>
	<path style="fill:#FF8400;" d="M9.956,45.169c0.226,1.091,0.655,2.351,1.225,3.502c0.822,0.279,1.968,0.583,3.078,0.583
		c1.174,0,2.414-0.336,3.305-0.644c0.562-1.148,0.984-2.396,1.204-3.477c-0.998,0.411-2.792,1.032-4.509,1.032
		C12.622,46.166,10.966,45.596,9.956,45.169z"/>
	<path style="fill:#FF8400;" d="M18.005,9.919c-0.046-0.351-0.214-0.76-0.414-1.144c-0.059,0.98-0.214,2.257-0.598,3.317
		c0.305,0.069,0.62,0.157,0.931,0.271C18.023,11.817,18.133,10.901,18.005,9.919z"/>
	<path style="fill:#FF8400;" d="M11.727,12.091c-0.383-1.059-0.539-2.336-0.598-3.316c-0.201,0.384-0.368,0.793-0.414,1.144
		c-0.128,0.986-0.023,1.903,0.072,2.446C11.1,12.25,11.419,12.161,11.727,12.091z"/>
	<path style="fill:#FF8400;" d="M13.358,24.892c0.396-0.032,0.739-0.06,1-0.06c0.261,0,0.604,0.028,1,0.06
		c1.594,0.129,4.261,0.344,5.404-1.006c1.24-1.466-0.257-6.72-1.357-9.046c-0.004-0.007-0.007-0.015-0.01-0.022
		c-0.079-0.165-0.155-0.316-0.228-0.449c-0.723-1.309-3.263-1.596-4.181-1.596h-1.255c-0.918,0.001-3.46,0.291-4.181,1.596
		c-1.099,1.989-2.929,7.941-1.596,9.516C9.098,25.237,11.765,25.021,13.358,24.892z"/>
	<path style="fill:#FF8400;" d="M17.808,36.146c-0.19-1.051-0.38-2.061-0.552-2.957c-0.673,0.281-1.868,0.702-2.977,0.702
		c-1.088,0-2.191-0.383-2.827-0.649c-0.176,0.915-0.366,1.926-0.555,2.972c0.611,0.277,2.048,0.857,3.375,0.857
		C15.619,37.072,17.17,36.436,17.808,36.146z"/>
	<path style="fill:#FF8400;" d="M14.404,30.674c-0.015,0.002-0.03,0.002-0.045,0.002c-0.015,0-0.03-0.001-0.045-0.002
		c-0.196-0.019-1.201-0.132-2.263-0.463c-0.109,0.535-0.254,1.259-0.419,2.104c0.513,0.227,1.613,0.654,2.647,0.654
		c1.051,0,2.249-0.465,2.798-0.706c-0.174-0.889-0.318-1.604-0.409-2.052C15.605,30.542,14.6,30.655,14.404,30.674z"/>
	<path style="fill:#FF8400;" d="M11.891,29.18c0.903,0.337,1.93,0.515,2.467,0.572c0.536-0.057,1.562-0.236,2.465-0.572
		c0.007-0.003,0.014-0.005,0.02-0.008c0.652-0.245,1.238-0.572,1.522-0.998c0.564-0.846,0.608-1.834,0.575-2.399
		c-1.274,0.228-2.656,0.116-3.657,0.036c-0.377-0.03-0.702-0.057-0.926-0.057c-0.224,0-0.549,0.026-0.926,0.057
		c-0.558,0.045-1.236,0.1-1.947,0.1c-0.561,0-1.143-0.035-1.704-0.135c-0.035,0.565,0.005,1.553,0.569,2.398
		c0.283,0.425,0.864,0.751,1.512,0.995C11.873,29.173,11.882,29.176,11.891,29.18z"/>
	<path style="fill:#FF8400;" d="M18.473,40.059c-0.152-0.972-0.323-1.983-0.498-2.977c-0.793,0.345-2.307,0.912-3.704,0.912
		c-1.37,0-2.782-0.516-3.542-0.844c-0.175,0.994-0.344,1.999-0.495,2.963c0.668,0.311,2.421,1.05,4.03,1.05
		C15.89,41.163,17.768,40.381,18.473,40.059z"/>
	<path style="fill:#FF8400;" d="M9.795,44.088c0.785,0.372,2.653,1.157,4.464,1.157c1.905,0,4.001-0.882,4.665-1.184
		c0.02-0.283,0.019-0.541-0.006-0.765c-0.076-0.691-0.18-1.468-0.302-2.289c-0.894,0.391-2.702,1.08-4.352,1.08
		c-1.629,0-3.319-0.644-4.174-1.024c-0.117,0.799-0.218,1.555-0.293,2.234C9.773,43.526,9.773,43.794,9.795,44.088z"/>
	<path style="fill:#FF8400;" d="M20.344,14.683c1.079-1.364,5.623-7.216,6.208-9.777c0.681-2.99-1.32-4.725-1.406-4.797
		c-0.194-0.164-0.483-0.14-0.648,0.053c-0.165,0.193-0.142,0.484,0.051,0.649c0.068,0.058,1.657,1.46,1.104,3.89
		c-0.439,1.924-3.747,6.494-5.769,9.076L20.344,14.683z M21.474,17.852c0.727-0.258,2.09-0.732,2.108-0.738
		c0.117-0.041,0.212-0.126,0.265-0.238c0.053-0.112,0.059-0.24,0.017-0.356l-1.11-3.04c-0.087-0.239-0.352-0.362-0.591-0.275
		c-0.239,0.087-0.362,0.352-0.275,0.591l0.949,2.6c-0.453,0.158-1.154,0.402-1.63,0.571L21.474,17.852z M19.749,27.213
		c0.475-0.15,1.583-0.536,4.276-1.536c0.131-0.049,0.233-0.154,0.277-0.286c0.218-0.654,0.502-1.431,0.633-1.7
		c0.528-0.22,2.235-0.962,3.023-1.305c0.234-0.102,0.34-0.373,0.239-0.607c-0.102-0.234-0.373-0.34-0.607-0.239
		c-1.123,0.489-2.961,1.286-3.103,1.339c-0.21,0.071-0.351,0.119-0.99,2.011c-1.371,0.508-2.828,1.038-3.628,1.314L19.749,27.213z
		 M17.942,31.888l5.452-0.575l-0.277,2.569c-0.026,0.243,0.141,0.463,0.382,0.504l4.005,0.675c0.026,0.004,0.052,0.006,0.077,0.006
		c0.221,0,0.416-0.159,0.454-0.384c0.042-0.251-0.127-0.489-0.378-0.531l-3.577-0.603l0.291-2.705
		c0.015-0.139-0.034-0.276-0.132-0.375c-0.099-0.098-0.237-0.148-0.375-0.133l-6.102,0.644L17.942,31.888z M18.81,36.514
		c1.219,0.9,3.36,2.487,4.714,3.492l1.447,4.208c0.026,0.076,0.071,0.143,0.131,0.196l2.849,2.511
		c0.088,0.077,0.196,0.115,0.305,0.115c0.128,0,0.255-0.053,0.346-0.156c0.168-0.191,0.15-0.482-0.041-0.651l-2.757-2.43
		l-1.454-4.227c-0.03-0.088-0.086-0.165-0.161-0.22c-0.206-0.153-4.7-3.487-5.618-4.157L18.81,36.514z M10.144,35.201
		c-0.696,0.518-4.199,3.105-5.614,4.15c-0.075,0.055-0.132,0.132-0.162,0.221l-1.456,4.228l-2.756,2.429
		c-0.191,0.168-0.209,0.46-0.041,0.651c0.091,0.103,0.218,0.156,0.346,0.156c0.108,0,0.217-0.038,0.305-0.115l2.847-2.509
		c0.06-0.053,0.105-0.12,0.131-0.196l1.449-4.207c0.602-0.445,3.27-2.415,4.71-3.481L10.144,35.201z M10.957,30.97l-6.106-0.634
		c-0.139-0.014-0.276,0.035-0.374,0.133c-0.098,0.099-0.147,0.236-0.132,0.375l0.291,2.705L1.06,34.152
		c-0.251,0.042-0.42,0.28-0.378,0.531c0.038,0.225,0.233,0.384,0.454,0.384c0.026,0,0.051-0.002,0.077-0.006l4.005-0.675
		c0.241-0.041,0.408-0.261,0.382-0.504l-0.277-2.57l5.454,0.566L10.957,30.97z M8.851,26.183c-0.869-0.308-2.424-0.864-3.632-1.296
		C4.58,22.998,4.44,22.95,4.235,22.88c-0.148-0.055-1.985-0.851-3.108-1.341c-0.234-0.102-0.505,0.005-0.607,0.239
		c-0.102,0.233,0.005,0.505,0.239,0.607c0.787,0.343,2.495,1.085,3.023,1.305c0.131,0.269,0.415,1.046,0.633,1.7
		c0.045,0.134,0.149,0.24,0.282,0.288c0.382,0.137,3.341,1.197,4.27,1.522L8.851,26.183z M7.507,16.98
		c-0.469-0.168-1.174-0.419-1.628-0.58l0.95-2.603c0.087-0.239-0.036-0.504-0.275-0.591c-0.24-0.087-0.504,0.036-0.591,0.275
		l-1.11,3.04c-0.042,0.116-0.036,0.243,0.016,0.354c0.052,0.111,0.147,0.197,0.263,0.238c0.017,0.006,1.391,0.494,2.107,0.751
		L7.507,16.98z M8.828,13.785c-1.322-1.698-5.261-6.89-5.758-9.072c-0.552-2.426,1.033-3.826,1.1-3.883
		c0.194-0.165,0.218-0.456,0.054-0.65s-0.456-0.218-0.65-0.054C3.488,0.199,1.491,1.932,2.171,4.918
		c0.587,2.576,5.227,8.548,6.197,9.777L8.828,13.785z"/>
</g>
</svg>
