<?xml version="1.0" encoding="utf-8"?>
<!-- Generator: Adobe Illustrator 24.3.0, SVG Export Plug-In . SVG Version: 6.00 Build 0)  -->
<svg version="1.0" id="_x2014_ÎÓÈ_x5F_1" xmlns="http://www.w3.org/2000/svg" xmlns:xlink="http://www.w3.org/1999/xlink"
	 x="0px" y="0px" viewBox="0 0 50.05 52" style="enable-background:new 0 0 50.05 52;" xml:space="preserve">
<g>
	<path style="fill:#FF8400;" d="M22.724,35.796l-2.929,2.929c-0.087,0.087-0.206,0.136-0.327,0.136c-0.017,0-0.035,0-0.052-0.004
		c-0.139-0.015-0.266-0.095-0.34-0.214l-5.04-8.001l-4.955,1.3c-1.086,0.299-2.136,0.737-3.116,1.3
		c0.457,1.402,2.134,7.044,2.498,15.063c0.004,0.061-0.007,0.121-0.026,0.176l15.355,3.488V40.228
		C23.471,38.851,22.995,36.851,22.724,35.796z"/>
	<path style="fill:#FF8400;" d="M31.198,42.464c0-3.818,2.177-7.135,5.352-8.784c0.035-0.024,0.071-0.043,0.111-0.058
		c1.291-0.648,2.739-1.023,4.275-1.046c-0.581-0.253-1.179-0.468-1.792-0.635l-4.708-1.049l-4.769,7.75
		c-0.074,0.121-0.201,0.201-0.34,0.217c-0.019,0.002-0.035,0.004-0.054,0.004c-0.123,0-0.24-0.048-0.327-0.136l-2.923-2.923
		l-1.306,4.439V52l9.834-2.123C32.496,48.063,31.198,45.413,31.198,42.464z"/>
	<path style="fill:#FF8400;" d="M5.154,33.748c-2.611,1.748-5.146,4.621-5.146,7.98v6.597c0,0.028-0.004,0.054-0.007,0.082h7.546
		c-0.004-0.019-0.007-0.037-0.007-0.058C7.195,40.792,5.674,35.397,5.154,33.748z"/>
	<path style="fill:#FF8400;" d="M18.354,31.376c-1.124-1.226-1.943-2.784-2.396-3.764l-1.211,2.422l4.803,7.627l2.698-2.698
		C21.456,34.314,19.669,32.812,18.354,31.376z"/>
	<path style="fill:#FF8400;" d="M17.45,26.03c-0.397,0.234-0.695,0.44-0.904,0.6c0.141,0.338,0.351,0.819,0.622,1.391L17.45,26.03z"
		/>
	<polygon style="fill:#FF8400;" points="41.065,49.099 41.071,49.094 41.061,49.094 	"/>
	<path style="fill:#FF8400;" d="M42.413,41.065c-0.058,0.015-0.121,0.032-0.188,0.046L41.5,41.938v6.546
		C43.569,45.318,42.779,42.139,42.413,41.065z"/>
	<path style="fill:#FF8400;" d="M46.969,35.709l-3.828,4.361c0.004,0.097,0.007,0.195,0.009,0.293l1.476-1.259l1.944,0.332
		c0.253,0.043,0.422,0.282,0.379,0.535c-0.043,0.253-0.284,0.422-0.535,0.379l-1.517-0.26l-1.434,1.222
		c0.048,0.173,0.095,0.362,0.139,0.57c0.477,0.264,1.928,1.023,2.856,1.504l0.123,0.063l0.908,1.603
		c0.126,0.223,0.048,0.505-0.175,0.631c-0.072,0.041-0.15,0.059-0.228,0.059c-0.162,0-0.318-0.085-0.403-0.236l-0.773-1.363
		c-0.737-0.383-1.543-0.804-2.136-1.12c0.045,0.492,0.056,1.034,0.011,1.612l1.458,1.005l-0.266,3.774
		c-0.017,0.243-0.221,0.431-0.462,0.431c-0.011,0-0.022,0-0.033-0.002c-0.254-0.019-0.448-0.24-0.429-0.494l0.228-3.246
		l-0.635-0.438c-0.264,1.358-0.873,2.845-2.095,4.303l-0.139,0.169h-0.696l-0.139-0.165c-1.198-1.43-1.809-2.89-2.084-4.227
		l-0.598,0.474l0.208,3.137c0.017,0.254-0.176,0.475-0.431,0.492c-0.011,0-0.02,0.002-0.032,0.002c-0.241,0-0.446-0.188-0.462-0.433
		l-0.158-2.377l-1.872,2.132c1.582,1.402,3.66,2.256,5.937,2.256c4.942,0,8.963-4.021,8.963-8.963
		C50.05,39.771,48.856,37.353,46.969,35.709z"/>
	<path style="fill:#FF8400;" d="M42.191,39.747c-0.097-1.142-0.396-1.263-1.057-1.263c-0.693,0-1.163,0.123-1.246,1.673
		c0.264,0.074,0.678,0.16,1.133,0.147h0.013h0.002h0.002h0.026c0.245,0.007,0.474-0.015,0.678-0.046L42.191,39.747z"/>
	<path style="fill:#FF8400;" d="M39.284,44.813c0.002,0.017,0.006,0.035,0.006,0.052c0.13,1.094,0.496,2.312,1.283,3.54v-5.412
		l-1.319,1.502C39.264,44.601,39.273,44.707,39.284,44.813z"/>
	<path style="fill:#FF8400;" d="M40.575,41.217c-0.349-0.028-0.654-0.091-0.886-0.154c-0.017,0.05-0.035,0.104-0.054,0.162
		c-0.004,0.017-0.009,0.032-0.015,0.048c-0.074,0.24-0.156,0.542-0.225,0.897c0.004,0.072-0.011,0.143-0.039,0.21
		c-0.037,0.217-0.067,0.449-0.089,0.698l1.307-1.489C40.575,41.589,40.575,41.217,40.575,41.217z"/>
	<path style="fill:#FF8400;" d="M38.309,44.17c-0.013-0.394,0.002-0.765,0.032-1.114c-0.583,0.31-1.371,0.719-2.091,1.092
		l-0.773,1.363c-0.085,0.15-0.241,0.236-0.403,0.236c-0.078,0-0.156-0.019-0.228-0.059c-0.223-0.126-0.301-0.409-0.175-0.631
		l0.908-1.603l0.123-0.063c0.906-0.468,2.314-1.203,2.802-1.471c0.048-0.24,0.102-0.457,0.156-0.65l-1.382-1.177l-1.515,0.26
		c-0.253,0.043-0.492-0.126-0.535-0.379s0.126-0.492,0.379-0.535l1.943-0.332l1.41,1.2c0.032-1.01,0.202-1.944,0.914-2.42
		c-0.758-1.985-1.933-2.806-3.035-3.309c-2.802,1.517-4.712,4.483-4.712,7.889c0,2.334,0.897,4.461,2.364,6.058L38.309,44.17z"/>
	<path style="fill:#FF8400;" d="M29.698,30.758c0.513-0.585,0.943-1.233,1.296-1.852l-0.565-3.213
		c-0.022-0.009-0.046-0.017-0.071-0.026c-1.681,2.216-3.861,3.556-6.242,3.558c-2.303,0-4.418-1.255-6.075-3.339l-0.412,2.916
		c0.39,0.659,0.862,1.352,1.41,1.95c1.426,1.556,3.486,3.243,4.045,3.692c0.072,0.015,0.137,0.061,0.206,0.175
		c0.059,0.065,0.097,0.147,0.11,0.234c0.184,0.472,0.429,1.458,0.91,3.506l1.047-3.564c0.009-0.032,0.022-0.061,0.037-0.089
		c0.002-0.004,0.004-0.006,0.006-0.009c0.015-0.024,0.03-0.048,0.048-0.069c0.006-0.007,0.013-0.013,0.02-0.02
		c0.015-0.015,0.03-0.032,0.046-0.045c0.002-0.002,0.004-0.004,0.007-0.006C25.543,34.535,28.091,32.591,29.698,30.758z"/>
	<path style="fill:#FF8400;" d="M32.855,6.324c0-1.969-1.06-3.75-2.769-4.652C28.05,0.596,26.286,0.065,24.579,0v9.146
		c2.455,0.05,4.994,0.665,8.277,1.996V6.324H32.855z"/>
	<path style="fill:#FF8400;" d="M34.586,17.628c0.243-0.769,0.282-1.545,0.111-2.186c-0.087-0.327-0.312-0.903-0.834-1.066
		c-0.046-0.015-0.091-0.024-0.137-0.032c0,0.032,0.002,0.061,0.002,0.093c0,0.41-0.013,0.815-0.035,1.216l-0.002,0.093
		c0,0.007-0.004,0.013-0.004,0.02c-0.08,1.378-0.284,2.702-0.594,3.945c0.132-0.076,0.245-0.16,0.331-0.23
		C33.93,19.056,34.342,18.399,34.586,17.628z"/>
	<path style="fill:#FF8400;" d="M14.541,15.747l-0.002-0.098c-0.022-0.399-0.035-0.802-0.035-1.211c0-0.032,0.002-0.061,0.002-0.093
		c-0.046,0.007-0.091,0.017-0.137,0.032c-0.522,0.165-0.747,0.739-0.836,1.066c-0.171,0.641-0.132,1.417,0.111,2.186
		c0.243,0.771,0.656,1.428,1.164,1.853c0.085,0.071,0.201,0.156,0.331,0.23c-0.31-1.244-0.514-2.567-0.594-3.945
		C14.545,15.762,14.541,15.754,14.541,15.747z"/>
	<path style="fill:#FF8400;" d="M23.653,0c-1.709,0.063-3.471,0.596-5.506,1.671c-1.71,0.901-2.771,2.684-2.771,4.652v4.821
		c3.283-1.332,5.82-1.948,8.277-1.998V0z"/>
	<path style="fill:#FF8400;" d="M42.274,37.837c0.362,0.228,0.576,0.583,0.7,1.016l3.265-3.718
		c-0.288-0.202-0.587-0.392-0.899-0.559C43.845,35.367,42.837,36.439,42.274,37.837z"/>
	<path style="fill:#FF8400;" d="M32.782,14.855l0.065-2.713c-3.543-1.467-6.164-2.091-8.729-2.073c-0.002,0-0.004,0-0.006,0
		c-2.557-0.022-5.185,0.604-8.729,2.073l0.065,2.713c3.419-2.366,6.049-3.378,8.673-3.352
		C26.737,11.473,29.363,12.489,32.782,14.855z"/>
	<path style="fill:#FF8400;" d="M24.115,28.297c4.465-0.002,8.153-5.408,8.63-12.333c-3.493-2.494-6.088-3.568-8.626-3.534
		c-0.026,0-0.052,0-0.078,0c-2.524,0-5.098,1.066-8.556,3.534C15.962,22.889,19.65,28.295,24.115,28.297z"/>
	<path style="fill:#FF8400;" d="M33.696,30.329l-1.086-2.585c-0.433,1.001-1.161,2.422-2.216,3.627
		c-1.285,1.467-3.088,2.957-3.898,3.597l2.689,2.689L33.696,30.329z"/>
	<path style="fill:#FF8400;" d="M40.744,37.581c0.123-0.015,0.251-0.026,0.39-0.026c0.089,0,0.169,0.006,0.251,0.013
		c0.563-1.449,1.523-2.593,2.921-3.467c-0.999-0.386-2.084-0.6-3.218-0.6c-1.12,0-2.193,0.208-3.181,0.585
		C38.944,34.69,40.027,35.685,40.744,37.581z"/>
	<path style="fill:#FF8400;" d="M32.16,26.654c-0.184-0.169-0.488-0.412-0.958-0.691l0.373,2.123
		C31.839,27.493,32.034,26.995,32.16,26.654z"/>
</g>
</svg>
