<?xml version="1.0" encoding="utf-8"?>
<!-- Generator: Adobe Illustrator 24.3.0, SVG Export Plug-In . SVG Version: 6.00 Build 0)  -->
<svg version="1.0" id="_x2014_ÎÓÈ_x5F_1" xmlns="http://www.w3.org/2000/svg" xmlns:xlink="http://www.w3.org/1999/xlink"
	 x="0px" y="0px" viewBox="0 0 52 52" style="enable-background:new 0 0 52 52;" xml:space="preserve">
<g>
	<path style="fill:#FF8400;" d="M29.838,24.467c-0.023-0.975-0.751-1.688-0.758-1.695l-0.048-0.047
		c-0.016-0.016-0.732-0.751-1.715-0.769c-0.012,0-0.025,0-0.037,0c-0.535,0-1.066,0.216-1.583,0.64
		c0.007,0.013,0.016,0.029,0.023,0.043l3.438,3.438c0.013,0.007,0.029,0.016,0.041,0.022C29.634,25.566,29.851,25.019,29.838,24.467
		z"/>
	<path style="fill:#FF8400;" d="M30.227,21.64c-0.03-0.045-0.068-0.084-0.114-0.113c-0.16-0.103-0.487-0.28-0.872-0.315
		c-0.173-0.016-0.335,0.087-0.394,0.251c-0.059,0.163,0.001,0.346,0.145,0.443c0.3,0.204,0.473,0.386,0.484,0.399l0.033,0.032
		c0.002,0.002,0.169,0.162,0.362,0.441c0.072,0.105,0.189,0.162,0.311,0.162c0.045,0,0.09-0.008,0.135-0.024
		c0.163-0.061,0.264-0.227,0.245-0.4c-0.001-0.016-0.002-0.033-0.005-0.049C30.5,22.1,30.326,21.791,30.227,21.64z"/>
	<path style="fill:#FF8400;" d="M15.69,36.125l0.064,0.508l-0.05-0.494c5.719-0.578,9.213-3.68,11.148-6.205l-2.163-2.164
		l-6.644,6.644c-0.097,0.097-0.224,0.146-0.351,0.146c-0.127,0-0.254-0.048-0.351-0.146c-0.194-0.194-0.194-0.508,0-0.702
		l6.644-6.644l-2.109-2.109C19.361,26.906,16.267,30.414,15.69,36.125z"/>
	<path style="fill:#FF8400;" d="M26.528,19.051c0.042-0.115,0.041-0.242-0.005-0.356l-1.482-3.704
		c-0.102-0.255-0.391-0.379-0.646-0.277c-0.255,0.102-0.378,0.391-0.277,0.646l1.411,3.527l-0.959,2.603l0.376,0.376l0.71-0.45
		L26.528,19.051z"/>
	<path style="fill:#FF8400;" d="M23.72,34.271c0.12,0.249,0.206,0.483,0.219,0.61c-0.119,0.098-0.373,0.28-0.602,0.445
		c-1.569,1.126-4.834,3.469-5.695,6.501c-0.075,0.264,0.078,0.539,0.342,0.614c0.045,0.013,0.091,0.019,0.136,0.019
		c0.216,0,0.415-0.143,0.477-0.361c0.767-2.698,3.841-4.905,5.319-5.965c0.62-0.445,0.803-0.581,0.907-0.761
		c0.261-0.463-0.003-1.165-0.289-1.698L23.72,34.271z"/>
	<path style="fill:#FF8400;" d="M26.667,38.37c0.086,0.175,0.263,0.277,0.446,0.277c0.074,0,0.149-0.016,0.219-0.051
		c0.246-0.121,0.347-0.419,0.226-0.665c-0.56-1.135,0.525-4.63,0.988-6.122c0.015-0.048,0.029-0.094,0.043-0.138l-0.796-0.796
		c-0.053,0.181-0.125,0.412-0.195,0.639C26.792,34.11,25.989,36.995,26.667,38.37z"/>
	<path style="fill:#FF8400;" d="M36.433,27.674c0.06,0.024,0.123,0.036,0.184,0.036c0.197,0,0.384-0.118,0.461-0.312
		c0.102-0.255-0.022-0.544-0.277-0.646l-3.704-1.482c-0.114-0.046-0.241-0.047-0.356-0.005l-2.366,0.872l-0.448,0.71l0.376,0.376
		l2.603-0.959L36.433,27.674z"/>
	<path style="fill:#FF8400;" d="M44.818,23.576c-0.06-0.055-5.951-5.342-13.818-1.768l0.185,1.01
		c7.363-3.502,12.73,1.278,12.961,1.489c0.095,0.088,0.216,0.131,0.336,0.131c0.134,0,0.268-0.054,0.366-0.16
		C45.033,24.076,45.02,23.762,44.818,23.576z"/>
	<path style="fill:#FF8400;" d="M28.835,20.61l1.038,0.125c3.569-7.857-1.6-13.698-1.654-13.757
		c-0.184-0.203-0.498-0.218-0.701-0.034c-0.203,0.184-0.219,0.498-0.035,0.701C27.688,7.871,32.388,13.217,28.835,20.61z"/>
	<path style="fill:#FF8400;" d="M16.912,27.858c0.132,0.016,0.377,0.111,0.637,0.243l0.593-0.814
		c-0.542-0.299-1.257-0.578-1.721-0.314c-0.177,0.101-0.314,0.285-0.762,0.909c-1.06,1.477-3.267,4.549-5.963,5.314
		c-0.264,0.075-0.417,0.349-0.342,0.613c0.062,0.219,0.261,0.361,0.477,0.361c0.045,0,0.09-0.006,0.136-0.019
		c3.03-0.859,5.373-4.122,6.499-5.69C16.631,28.232,16.813,27.978,16.912,27.858z"/>
	<path style="fill:#FF8400;" d="M13.861,24.237c-0.246-0.122-0.544-0.02-0.665,0.226c-0.121,0.246-0.02,0.544,0.226,0.665
		c0.363,0.179,0.83,0.255,1.37,0.255c1.508,0,3.579-0.593,5.492-1.187c0.226-0.07,0.455-0.141,0.635-0.194l-0.796-0.796
		c-0.043,0.013-0.087,0.027-0.134,0.042C18.496,23.71,14.998,24.797,13.861,24.237z"/>
	<path style="fill:#FF8400;" d="M26,0C11.664,0,0,11.664,0,26s11.664,26,26,26s26-11.664,26-26S40.336,0,26,0z M41.221,43.732
		C36.98,47.378,31.575,49.385,26,49.385C13.105,49.385,2.615,38.895,2.615,26c0-5.574,2.008-10.98,5.653-15.221
		c0.079-0.092,0.193-0.147,0.314-0.151c0.006,0,0.011,0,0.017,0c0.117,0,0.226,0.046,0.308,0.128l32.339,32.339
		c0.086,0.086,0.132,0.203,0.127,0.325C41.368,43.539,41.313,43.653,41.221,43.732z M43.732,41.221
		c-0.079,0.092-0.193,0.147-0.314,0.151c-0.006,0-0.011,0-0.016,0c-0.115,0-0.226-0.046-0.308-0.128L10.755,8.907
		c-0.086-0.086-0.132-0.203-0.127-0.325c0.005-0.121,0.059-0.235,0.151-0.314C15.02,4.622,20.426,2.615,26,2.615
		c12.895,0,23.385,10.491,23.385,23.385C49.385,31.575,47.378,36.98,43.732,41.221z"/>
</g>
</svg>
