<svg xmlns="http://www.w3.org/2000/svg" width="461" height="312" viewBox="0 0 461 312"><path d="M415.139,248.8c-1.695-.057-3.39,1.473-5.085,1.757-1.937.324-7.094,8.751-7.74,10.37s-5.2,7.763-5.2,7.763-3.519,4.574-6.1,8.783a13.355,13.355,0,0,1-6.5,5.5,25.072,25.072,0,0,1-6.44,1.927c-3.874.648-10.992,3.214-13.9,2.89s-12.566,4.234-16.44,6.176-8.7,6.16-10.96,8.1a13.941,13.941,0,0,1-5.537,2.607s-7.409,2.906-8.7,3.23-3.866,3.538-3.22,5.157-2.6,3.57-2.6,3.57-5.141,2.89-7.4,5.157a3.158,3.158,0,0,0-.847,2.1L131.137,280.7s-1.961-9.714-3.9-9.066-5.48,3.2-5.48,4.816.96,8.783.96,8.783,5.173,2.242,5.819.623S308,327.541,309.267,327.848c.431,1.183.9,2.245,1.017,2.72l-1.638,4.816s4.85.364,5.819,1.983,6.158,7.083,6.158,7.083l5.141-2.89,4.859-.34s7.078-3.869,7.4-6.46,4.237-8.726,4.237-8.726l7.062-.34.339,8.1s-2.566,2.267-4.181,2.267-2.906,1.6-4.52,4.193-.96,3.886-.96,9.066-.678,4.557-2.938,6.176.339,5.5.339,5.5-2.575,8.4-3.22,10.993,3.244,12.652,4.859,15.243,7.4,17.792,7.4,17.792l-1.921,8.443s-5.488.648-6.779,0-4.859,5.157-4.859,5.157l-89.771-54.4-1.921,3.23,89.093,58.307,49.094,32.695s-9.394,7.115-9.717,5.5-3.543-6.492-5.48-7.14-6.449,8.742-7.74,9.066-8.079,4.533-8.079,4.533L251.53,437.377l.96,7.48,135.249,48.222,89.149,36.265s27.763,17.525,33.9,22.383,21.3-1.983,21.3-1.983,34.535,11.373,39.377,11.05,11.3-8.443,11.3-8.443l-6.44-1.643s-14.883-2.542-18.756-1.247S530.1,539.09,530.1,539.09l-56.5-23.969-62.6-45.672,5.141-5.5,17.8-22.042,20.62-20.682c2.26-2.267,2.3-1.959,4.237-4.873s-.977-4.873-1.3-7.14-1.614-1.271-2.26-2.89a32.941,32.941,0,0,0-2.938-5.836c-1.291-1.943-2.9-2.25-5.48-4.193s-6.473-1.943-9.378-2.267a9.191,9.191,0,0,1-4.52-1.643,16.911,16.911,0,0,0,2.938-4.193c1.291-2.59,4.487-3.23,6.1-3.23s3.591-6.184,4.237-7.48.977-5.464,1.3-7.083-1.663-3.57-3.277-5.837-3.188-1.619-4.8-2.267a25.078,25.078,0,0,0-9.717-1.643c-3.551.324-7.748-1.91-11.3-1.587s-7.425-1.668-9.039-1.02-3.882-4.493-1.3-7.083,1.34-2.307,3.277-4.25,6.11-7.447,7.4-9.066.985.032,2.6-1.587,7.078-1.627,9.661-1.3,5.2-.648,7.457,0,4.834.316,7.74.963,6.457,2.267,11.3,4.533,8.708,1.635,12.259,2.607,5.5,1.263,11.638,1.587,7.417,1.3,10,1.3,9.039,2.267,9.039,2.267l7.062-.283s3.121-.21,6.384-.4l-28.3,140.244s-9.039-1.3-9.039,0,.63,5.845,1.921,7.14,4.859,2.267,4.859,2.267l-1.3,14.563,2.6.623,1.3-15.186,4.52-2.607s.936-4.825-.678-6.12c-1.554-1.247,25.666-131.2,27.74-141.093.836-.038,2.24-.113,2.6-.113a4.516,4.516,0,0,0,3.9-2.267c.969-1.3,3.543-3.538,3.22-5.157s2.26-2.267,2.26-2.267,3.567-.672,2.6-3.91-.363-.615.282-3.853-1.267-2.607-2.881-4.873-3.236-1.3-5.819-2.267-4.536-.356-7.118-.68-2.583,1-6.779.68-5.141,2.607-5.141,2.607-10.306-.979-14.18-1.3-8.079-3.238-10.339-4.533-6.8-.648-8.418-2.267-4.818-3.238-5.141-4.533-17.465-8.427-18.756-10.37-3.2-1.635-5.141-2.607S432,297.176,430.39,296.852s-2.276.68-2.6-1.587.67-2.947,1.638-5.213,2.244-3.23,4.181-5.5.985-4.169,2.6-7.083.3-3.61.621-7.82-.654-3.23-1.3-7.763-2.906-3.246-4.52-5.836-3.866-2.914-7.74-4.533a68.091,68.091,0,0,0-7.4-2.55,2.687,2.687,0,0,0-.734-.17Zm-24.462,176,12.6.963,5.819,4.533-12.6,8.1-5.819-13.6Zm47.8,75.079,14.519,10.37-16.5-6.46,1.977-3.91Zm70.676,38.872c1.291,0,13.559,6.176,13.559,6.176l-2.6,2.89Z" transform="translate(-121.759 -248.799)" fill="#fac864"/></svg>