<?xml version="1.0" encoding="utf-8"?>
<!-- Generator: Adobe Illustrator 24.3.0, SVG Export Plug-In . SVG Version: 6.00 Build 0)  -->
<svg version="1.0" id="Layer_2" xmlns="http://www.w3.org/2000/svg" xmlns:xlink="http://www.w3.org/1999/xlink" x="0px" y="0px"
	 viewBox="0 0 86.406 76" style="enable-background:new 0 0 86.406 76;" xml:space="preserve">
<g>
	<path style="fill:#4CD43B;" d="M53.127,24.94c0,0,5.306-1.508,5.657-7.314c0.343-5.672-4.264-8.094-7.596-8.094H40.777
		c-0.385,0-0.726,0.254-0.847,0.62L34.306,27.72c-0.157,0.475-0.828,0.48-0.99,0.007l-6.011-17.585
		c-0.123-0.361-0.463-0.61-0.844-0.61h-3.92c-0.614,0-1.045,0.613-0.843,1.193l8.559,24.616c0.125,0.359,0.463,0.625,0.843,0.625
		h5.833c0.378,0,0.714-0.261,0.841-0.617l3.57-9.093c1.887,0,3.477,0,4.478,0c1.719,0,8.42,9.289,8.42,9.289
		c0.165,0.248,0.444,0.421,0.743,0.421h4.283c0.709,0,1.135-0.81,0.747-1.403L53.127,24.94z M53.01,17.781
		c-0.64,3.25-4.063,2.9-6.635,2.9h-3.824l2.224-5.932c0,0,5.29-0.135,5.729-0.135C51.769,14.614,53.355,15.826,53.01,17.781z"/>
	<path style="fill:#4CD43B;" d="M86.384,55.616V13.308c0-0.048-0.003-0.096-0.008-0.142c0.018-0.163,0.03-0.326,0.03-0.49
		c0-3.744-4.584-6.964-13.255-9.311C65.134,1.195,54.498,0,43.203,0C31.908,0,21.272,1.195,13.255,3.364
		C4.584,5.711,0,8.931,0,12.675c0,0.265,0.025,0.528,0.069,0.787v41.806C0.023,55.529,0,55.793,0,56.06
		c0,3.311,3.451,6.14,10.257,8.41c0.142,0.047,0.285,0.07,0.427,0.07c0.334,0,0.653-0.128,0.898-0.347
		c0.325-0.246,0.536-0.635,0.536-1.074V49.886c1.391-0.429,2.91-0.831,4.533-1.199L13.645,68.63
		c-0.274,1.843,0.265,3.708,1.479,5.117c1.21,1.404,2.965,2.209,4.816,2.209c0.022,0,0.043-0.001,0.065-0.002
		c2.697-0.025,5.029-1.6,5.951-4.019l3.15-8.096h25.392l3.113,8.087C58.554,74.4,60.902,76,63.592,76
		c1.851,0,3.569-0.81,4.788-2.224c1.231-1.427,1.82-3.311,1.46-5.167c0,0,0,0,0-0.001l-3.021-20.529
		c1.707,0.321,3.316,0.675,4.819,1.061v14.878c0,0.745,0.604,1.349,1.349,1.349c0.146,0,0.286-0.024,0.417-0.067
		c0.005-0.001,0.011-0.002,0.016-0.003c7.587-2.09,11.976-4.861,12.829-8.067c0.085-0.177,0.135-0.375,0.135-0.584v-0.162
		c0.013-0.141,0.022-0.282,0.022-0.424C86.406,55.911,86.398,55.763,86.384,55.616z M2.766,56.55v-0.986
		c0.321-1.183,1.719-2.252,2.915-2.975c0.637-0.385,0.842-1.214,0.457-1.852c-0.385-0.637-1.214-0.842-1.852-0.457
		c-0.562,0.34-1.068,0.689-1.52,1.046V17.421c1.562,1.228,3.782,2.356,6.653,3.375v40.508C5.583,59.823,3.189,58.116,2.766,56.55z
		 M66.379,72.015c-0.705,0.818-1.721,1.288-2.787,1.288c-1.562,0-2.92-0.918-3.463-2.342l-3.448-8.955
		c-0.2-0.521-0.701-0.864-1.259-0.864H28.183c-0.556,0-1.055,0.341-1.257,0.86l-3.488,8.965c-0.538,1.413-1.879,2.291-3.498,2.291
		c-0.017,0-0.033,0-0.05,0.001c-1.046-0.014-2.037-0.476-2.723-1.272c-0.701-0.813-1.013-1.891-0.854-2.956l3.243-21.522
		c0.359-2.416,2.413-4.169,4.884-4.169h2.391c2.719,0,4.667,2.274,4.913,4.382c0.079,0.68,0.655,1.193,1.34,1.193h17.442
		c0.684,0,1.26-0.513,1.34-1.193c0.246-2.107,2.194-4.382,4.913-4.382h2.391c2.47,0,4.524,1.754,4.884,4.17l3.205,21.499
		C67.416,70.086,67.097,71.183,66.379,72.015z M66.142,45.215c-1.164-2.736-3.838-4.574-6.976-4.574h-2.391
		c-3.749,0-6.481,2.667-7.345,5.574H34.175c-0.864-2.908-3.596-5.574-7.345-5.574h-2.391c-3.362,0-6.224,2.11-7.242,5.171
		c-0.042,0.005-0.085,0.011-0.127,0.02c-1.763,0.375-3.423,0.79-4.953,1.237V19.782c0-0.719-0.562-1.304-1.271-1.345
		c-4.738-1.615-7.696-3.578-8.1-5.35c-0.005-0.033-0.012-0.065-0.02-0.098c-0.019-0.105-0.03-0.21-0.03-0.314
		c0-1.769,2.959-4.46,11.263-6.707c7.794-2.109,18.179-3.271,29.243-3.271c11.064,0,21.45,1.161,29.243,3.271
		c8.304,2.247,11.262,4.938,11.262,6.707c0,2.658-5.685,5.171-11.004,6.637c-0.231,0.064-0.431,0.184-0.59,0.342
		c-0.291,0.247-0.476,0.615-0.476,1.027v25.679C69.924,45.938,68.088,45.556,66.142,45.215z M74.336,62.216V49.9
		c0.209,0.065,0.415,0.13,0.619,0.196c0.138,0.045,0.279,0.066,0.417,0.066c0.569,0,1.097-0.362,1.282-0.932
		c0.23-0.708-0.158-1.469-0.866-1.699c-0.47-0.153-0.955-0.302-1.452-0.447V21.651c4.188-1.227,7.325-2.673,9.351-4.292v34.003
		c-0.969-0.771-2.193-1.504-3.674-2.195c-0.675-0.315-1.477-0.024-1.793,0.651c-0.315,0.675-0.024,1.478,0.651,1.793
		c2.876,1.343,4.604,2.849,4.815,4.177v0.549C83.35,58.622,78.938,60.775,74.336,62.216z"/>
	<path style="fill:#4CD43B;" d="M74.066,11.557c0.487,0.193,0.949,0.394,1.374,0.595c0.124,0.059,0.256,0.087,0.385,0.087
		c0.336,0,0.659-0.189,0.813-0.513c0.213-0.449,0.022-0.985-0.426-1.198c-0.46-0.218-0.958-0.435-1.482-0.642
		c-0.461-0.183-0.984,0.042-1.167,0.504C73.379,10.851,73.605,11.373,74.066,11.557z"/>
	<path style="fill:#4CD43B;" d="M72.126,10.752c0.394,0,0.755-0.26,0.866-0.658c0.133-0.478-0.147-0.974-0.625-1.107
		c-0.929-0.259-1.981-0.538-3.125-0.829c-0.481-0.124-0.971,0.168-1.093,0.649c-0.123,0.481,0.168,0.971,0.649,1.093
		c1.132,0.288,2.17,0.564,3.087,0.819C71.965,10.741,72.046,10.752,72.126,10.752z"/>
	<path style="fill:#4CD43B;" d="M66.962,7.497c-0.878-0.215-1.445-0.349-1.445-0.349c-0.483-0.114-0.967,0.186-1.081,0.669
		c-0.114,0.483,0.186,0.967,0.669,1.081c0,0,0.56,0.132,1.428,0.345c0.072,0.018,0.144,0.026,0.215,0.026
		c0.404,0,0.772-0.275,0.872-0.685C67.739,8.102,67.444,7.615,66.962,7.497z"/>
	<path style="fill:#4CD43B;" d="M76.212,14.484c-0.166-0.079-0.332-0.156-0.498-0.231c-0.453-0.204-0.985-0.002-1.189,0.451
		c-0.204,0.453-0.002,0.985,0.451,1.189c0.155,0.07,0.31,0.141,0.464,0.215c0.125,0.059,0.256,0.087,0.385,0.087
		c0.336,0,0.659-0.189,0.813-0.513C76.851,15.233,76.66,14.697,76.212,14.484z"/>
	<path style="fill:#4CD43B;" d="M73.076,15.062c0.369,0,0.716-0.229,0.847-0.597c0.167-0.468-0.077-0.982-0.545-1.149
		c-0.81-0.289-1.664-0.559-2.537-0.803c-0.478-0.134-0.974,0.145-1.108,0.624c-0.134,0.478,0.146,0.974,0.624,1.108
		c0.833,0.233,1.646,0.49,2.417,0.765C72.874,15.045,72.976,15.062,73.076,15.062z"/>
	<path style="fill:#4CD43B;" d="M9.403,9.885c-0.523,0.208-1.022,0.424-1.482,0.642c-0.449,0.213-0.639,0.749-0.426,1.198
		c0.154,0.324,0.476,0.513,0.813,0.513c0.129,0,0.261-0.028,0.385-0.087c0.424-0.202,0.887-0.402,1.374-0.595
		c0.462-0.183,0.687-0.706,0.504-1.167C10.387,9.928,9.865,9.702,9.403,9.885z"/>
	<path style="fill:#4CD43B;" d="M14.891,8.157c-1.144,0.292-2.196,0.571-3.125,0.829c-0.478,0.133-0.758,0.629-0.625,1.107
		c0.111,0.398,0.472,0.658,0.866,0.658c0.08,0,0.161-0.011,0.242-0.033c0.917-0.255,1.955-0.531,3.087-0.819
		c0.481-0.123,0.772-0.612,0.649-1.093C15.862,8.325,15.373,8.034,14.891,8.157z"/>
	<path style="fill:#4CD43B;" d="M28.841,53.228h-2.158v-2.338c0-0.745-0.604-1.349-1.349-1.349c-0.745,0-1.349,0.604-1.349,1.349
		v2.338h-2.158c-0.745,0-1.349,0.604-1.349,1.349s0.604,1.349,1.349,1.349h2.158v1.978c0,0.745,0.604,1.349,1.349,1.349
		c0.745,0,1.349-0.604,1.349-1.349v-1.978h2.158c0.745,0,1.349-0.604,1.349-1.349S29.585,53.228,28.841,53.228z"/>
	<path style="fill:#4CD43B;" d="M38.551,55.926h-2.338c-0.745,0-1.349,0.604-1.349,1.349c0,0.745,0.604,1.349,1.349,1.349h2.338
		c0.745,0,1.349-0.604,1.349-1.349C39.9,56.529,39.296,55.926,38.551,55.926z"/>
	<path style="fill:#4CD43B;" d="M46.463,55.926h-2.338c-0.745,0-1.349,0.604-1.349,1.349c0,0.745,0.604,1.349,1.349,1.349h2.338
		c0.745,0,1.349-0.604,1.349-1.349C47.812,56.529,47.208,55.926,46.463,55.926z"/>
	<path style="fill:#4CD43B;" d="M52.928,51.029c-1.276,0-2.313,1.038-2.313,2.313c0,1.276,1.038,2.313,2.313,2.313
		c1.276,0,2.313-1.038,2.313-2.313C55.241,52.067,54.204,51.029,52.928,51.029z M52.928,53.858c-0.284,0-0.515-0.231-0.515-0.515
		c0-0.284,0.231-0.515,0.515-0.515c0.284,0,0.515,0.231,0.515,0.515C53.443,53.627,53.212,53.858,52.928,53.858z"/>
	<path style="fill:#4CD43B;" d="M57.134,51.45c1.276,0,2.313-1.038,2.313-2.313c0-1.276-1.038-2.313-2.313-2.313
		s-2.313,1.038-2.313,2.313C54.821,50.412,55.858,51.45,57.134,51.45z M57.134,48.622c0.284,0,0.515,0.231,0.515,0.515
		s-0.231,0.515-0.515,0.515c-0.284,0-0.515-0.231-0.515-0.515S56.85,48.622,57.134,48.622z"/>
	<path style="fill:#4CD43B;" d="M57.041,55.322c-1.276,0-2.313,1.038-2.313,2.313c0,1.276,1.038,2.313,2.313,2.313
		c1.276,0,2.313-1.038,2.313-2.313C59.354,56.36,58.316,55.322,57.041,55.322z M57.041,58.15c-0.284,0-0.515-0.231-0.515-0.515
		c0-0.284,0.231-0.515,0.515-0.515s0.515,0.231,0.515,0.515C57.556,57.919,57.325,58.15,57.041,58.15z"/>
	<path style="fill:#4CD43B;" d="M61.247,51.116c-1.276,0-2.313,1.038-2.313,2.313c0,1.276,1.038,2.313,2.313,2.313
		c1.276,0,2.313-1.038,2.313-2.313C63.56,52.154,62.522,51.116,61.247,51.116z M61.247,53.944c-0.284,0-0.515-0.231-0.515-0.515
		s0.231-0.515,0.515-0.515s0.515,0.231,0.515,0.515S61.531,53.944,61.247,53.944z"/>
</g>
</svg>
