<?xml version="1.0" encoding="utf-8"?>
<!-- Generator: Adobe Illustrator 24.3.0, SVG Export Plug-In . SVG Version: 6.00 Build 0)  -->
<svg version="1.0" id="Layer_2" xmlns="http://www.w3.org/2000/svg" xmlns:xlink="http://www.w3.org/1999/xlink" x="0px" y="0px"
	 viewBox="0 0 84.501 72" style="enable-background:new 0 0 84.501 72;" xml:space="preserve">
<g>
	<path style="fill:#4CD43B;" d="M84.445,7.011c-0.226-1.748-1.119-3.304-2.516-4.38c-2.882-2.221-7.034-1.685-9.256,1.197
		L59.318,21.152c-1.561,0.313-5.699,1.129-9.734,1.715c0.981-1.254,1.765-2.934,2.329-4.73h0.573c1.597,0,2.868-1.321,2.868-2.918
		v-5.047c0-1.582-1.261-2.871-2.838-2.895C51.252,3.028,47.279,0,42.685,0c-0.017,0-0.034,0-0.05,0c-4.57,0-8.54,3.053-9.797,7.363
		h-0.12c-1.597,0-2.865,1.212-2.865,2.81v5.047c0,1.597,1.267,2.918,2.865,2.918h0.788c0.597,1.975,1.428,3.589,2.465,4.862
		c-5.331-0.643-11.553-1.673-13.396-1.982L11.162,10.095C8.533,7.579,4.347,7.67,1.831,10.3c-1.244,1.3-1.895,3.016-1.826,4.819
		c0.067,1.748,0.859,3.389,2.123,4.598l12.866,12.309c0.991,0.948,2.279,1.573,3.637,1.766c4.266,0.985,8.987,2.178,11.004,2.823
		L27.78,54.407c-0.103,0.986,0.613,1.87,1.6,1.972c0.986,0.103,1.869-0.613,1.972-1.6l2-19.172l-0.001-0.099
		c-0.01-1.529-1.439-1.96-3.249-2.504c-1.07-0.322-2.553-0.724-4.407-1.195c-3.133-0.796-6.306-1.529-6.338-1.536l-0.088-0.02
		l-0.09-0.011c-0.635-0.08-1.239-0.368-1.702-0.811L4.52,17.034c-0.801-0.767-1.124-1.901-0.81-3.039
		c0.037-0.135,0.087-0.267,0.148-0.393c0.953-1.959,3.391-2.282,4.82-0.915l12.208,11.68l0.54,0.093
		c0.631,0.109,15.522,2.66,21.138,2.66c5.647,0,17.625-2.478,18.132-2.584l0.651-0.135l14.17-18.38
		c1.013-1.313,2.905-1.558,4.219-0.545c0.685,0.528,1.104,1.309,1.165,2.181c0.052,0.753-0.201,1.495-0.661,2.092L65.326,29.094
		c-0.481,0.624-1.176,1.029-1.955,1.141l-0.112,0.016l-0.109,0.03c-0.026,0.007-2.587,0.713-5.116,1.485
		c-1.502,0.459-2.705,0.853-3.576,1.171c-1.361,0.498-2.769,1.014-2.76,2.488l0.001,0.099l2.244,19.153
		c0.115,0.985,1.008,1.69,1.993,1.575h0c0.985-0.115,1.69-1.008,1.575-1.993l-2.092-17.852c1.668-0.629,5.369-1.749,8.583-2.636
		c1.662-0.269,3.139-1.148,4.17-2.485l14.956-19.399C84.203,10.491,84.671,8.76,84.445,7.011z M33.444,14.546v-3.592h18.317v3.592
		H33.444z M42.652,3.592c0.011,0,0.022,0,0.033,0c2.61,0,4.918,1.437,6.007,3.771H36.675C37.759,5.028,40.056,3.592,42.652,3.592z
		 M48.126,18.138c-0.402,1.077-0.895,1.949-1.473,2.644c-1.02,1.227-2.299,1.846-3.911,1.846c-0.01,0-0.019,0-0.029,0
		c-2.462,0-4.28-1.437-5.423-4.489H48.126z"/>
	<path style="fill:#4CD43B;" d="M47.365,64.587c-0.084-0.167-0.195-0.325-0.334-0.465l-4.958-4.958c-0.701-0.701-1.838-0.701-2.54,0
		c-0.701,0.701-0.701,1.838,0,2.54l1.815,1.814c-7.488-0.064-14.472-0.869-19.758-2.284c-5.424-1.452-7.446-3.185-7.446-3.937
		c0-0.506,1.224-2.169,6.811-3.762c0.954-0.272,1.507-1.266,1.235-2.219c-0.272-0.954-1.265-1.506-2.219-1.235
		c-6.249,1.782-9.418,4.209-9.418,7.216c0,3.119,3.401,5.611,10.109,7.406c5.614,1.502,12.987,2.352,20.84,2.407l-1.822,1.822
		c-0.701,0.701-0.701,1.838,0,2.54C40.03,71.825,40.489,72,40.949,72c0.46,0,0.919-0.175,1.27-0.526l4.812-4.812
		c0.14-0.14,0.25-0.297,0.334-0.465l0.805-0.805L47.365,64.587z"/>
	<path style="fill:#4CD43B;" d="M67.247,50.922c-0.93-0.345-1.963,0.13-2.308,1.06c-0.345,0.93,0.13,1.963,1.06,2.308
		c3.549,1.315,4.487,2.543,4.487,3.008c0,0.752-2.021,2.485-7.446,3.937c-3.405,0.911-7.514,1.569-12.009,1.94l0.947,0.947
		c0.701,0.701,0.701,1.838,0,2.54l-0.039,0.039c4.475-0.398,8.583-1.074,12.029-1.996c6.708-1.795,10.109-4.287,10.109-7.406
		C74.078,54.747,71.78,52.602,67.247,50.922z"/>
</g>
</svg>
