<?xml version="1.0" encoding="utf-8"?>
<!-- Generator: Adobe Illustrator 24.3.0, SVG Export Plug-In . SVG Version: 6.00 Build 0)  -->
<svg version="1.0" id="Layer_2" xmlns="http://www.w3.org/2000/svg" xmlns:xlink="http://www.w3.org/1999/xlink" x="0px" y="0px"
	 viewBox="0 0 85.735 85" style="enable-background:new 0 0 85.735 85;" xml:space="preserve">
<g>
	<path style="fill:#4CD43B;" d="M32.633,27.205H31.06c-1.967-4.853-6.694-8.089-11.971-8.089h-1.272
		c-7.124,0-12.964,5.771-12.964,12.894v6.338c0,4.123,2.785,7.816,6.74,8.98c0.042,0.012,0.095,0.023,0.138,0.031l5.916,1.135
		l5.594,2.534c0.031,0.014,0.064,0.027,0.097,0.039c0.717,0.261,1.465,0.39,2.209,0.39c1.309,0,2.6-0.397,3.7-1.167
		c1.725-1.208,2.749-3.185,2.749-5.291v-5.211h0.638c1.665,0,2.957-1.382,2.957-3.047v-6.57
		C35.59,28.506,34.298,27.205,32.633,27.205z M17.818,21.813h1.272c3.796,0,7.234,2.157,8.997,5.392H17.599
		c-1.699,0-3.196,0.828-4.058,2.157H7.945C9.115,25.006,13.096,21.813,17.818,21.813z M17.599,37.092c-1.18,0-2.14-0.987-2.14-2.166
		v-2.938c0-1.179,0.961-2.085,2.14-2.085h0.196v7.19H17.599z M7.549,32.059h5.213v2.867c0,0.311,0.032,0.614,0.088,0.908H7.549
		V32.059z M29.299,44.999c0,1.245-0.578,2.368-1.598,3.082c-1.007,0.705-2.24,0.875-3.397,0.469l-5.685-2.577
		c-0.097-0.044-0.197-0.076-0.301-0.096l-6-1.152c-2.726-0.831-4.641-3.354-4.719-6.195h6.782c0.856,0.765,1.984,1.258,3.219,1.258
		h11.7V44.999z M32.894,36.741c0,0.178-0.083,0.351-0.261,0.351H20.491v-7.19h12.142c0.178,0,0.261,0.091,0.261,0.269V36.741z"/>
	<path style="fill:#4CD43B;" d="M12.225,49.788C5.506,49.788,0,55.254,0,61.972v21.68C0,84.397,0.603,85,1.348,85
		s1.348-0.603,1.348-1.348v-21.68c0-5.232,4.297-9.488,9.529-9.488c8.827,0,16.031,7.175,16.045,15.999l-0.146,4.021l-1.656-8.539
		c-0.142-0.731-0.847-1.208-1.578-1.066c-0.731,0.142-1.207,0.85-1.065,1.581l3.724,19.142c0.044,0.224,0.142,0.423,0.276,0.589
		c0.205,0.448,0.648,0.768,1.174,0.788C29.017,85,29.034,85,29.052,85c0.72,0,1.318-0.57,1.346-1.296l0.587-15.143
		c0.001-0.017-0.019-0.035-0.019-0.052C30.966,58.186,22.548,49.788,12.225,49.788z"/>
	<path style="fill:#4CD43B;" d="M15.878,66.862c-0.091-0.739-0.763-1.265-1.502-1.174c-0.739,0.091-1.265,0.763-1.174,1.502
		l2.004,16.338c0.084,0.683,0.665,1.184,1.336,1.184c0.055,0,0.11-0.003,0.166-0.01c0.739-0.091,1.265-0.763,1.174-1.502
		L15.878,66.862z"/>
	<path style="fill:#4CD43B;" d="M78.969,5.605c0.215,0,0.433-0.052,0.636-0.161l5.419-2.908c0.656-0.352,0.903-1.169,0.55-1.825
		c-0.352-0.656-1.169-0.902-1.825-0.55L78.33,3.068c-0.656,0.352-0.903,1.169-0.55,1.825C78.023,5.347,78.488,5.605,78.969,5.605z"
		/>
	<path style="fill:#4CD43B;" d="M73.446,8.568c0.215,0,0.433-0.052,0.636-0.16l1.571-0.843c0.656-0.352,0.902-1.169,0.55-1.825
		c-0.352-0.656-1.169-0.902-1.825-0.55l-1.571,0.843c-0.656,0.352-0.902,1.169-0.55,1.825C72.5,8.31,72.966,8.568,73.446,8.568z"/>
	<path style="fill:#4CD43B;" d="M38.801,25.81c0.243,0.453,0.708,0.711,1.189,0.711c0.215,0,0.433-0.052,0.636-0.16l29.211-15.675
		c0.656-0.352,0.903-1.169,0.55-1.825c-0.352-0.656-1.169-0.902-1.825-0.55L39.352,23.985C38.695,24.337,38.449,25.154,38.801,25.81
		z"/>
	<path style="fill:#4CD43B;" d="M85.102,69.146l-15.268-9.558c-0.631-0.395-1.463-0.204-1.858,0.427
		c-0.395,0.631-0.204,1.463,0.427,1.858l15.268,9.558c0.222,0.139,0.47,0.206,0.714,0.206c0.449,0,0.888-0.224,1.144-0.633
		C85.924,70.373,85.733,69.541,85.102,69.146z"/>
	<path style="fill:#4CD43B;" d="M65.884,57.116l-1.852-1.159c-0.631-0.395-1.463-0.204-1.858,0.427
		c-0.395,0.631-0.204,1.463,0.427,1.858l1.852,1.159c0.222,0.139,0.47,0.206,0.714,0.206c0.449,0,0.888-0.224,1.144-0.633
		C66.707,58.343,66.515,57.511,65.884,57.116z"/>
	<path style="fill:#4CD43B;" d="M60.391,53.678L37.729,39.492c-0.631-0.395-1.463-0.204-1.858,0.427
		c-0.395,0.631-0.204,1.463,0.427,1.858L58.96,55.963c0.222,0.139,0.47,0.206,0.714,0.206c0.449,0,0.888-0.224,1.144-0.633
		C61.213,54.905,61.022,54.073,60.391,53.678z"/>
	<path style="fill:#4CD43B;" d="M49.565,9.57c0.333,0,0.667-0.123,0.927-0.37l1.057-1.003c0.54-0.512,0.563-1.365,0.051-1.906
		s-1.366-0.563-1.906-0.051l-1.057,1.002c-0.54,0.512-0.563,1.366-0.051,1.906C48.852,9.429,49.208,9.57,49.565,9.57z"/>
	<path style="fill:#4CD43B;" d="M37.014,21.473c0.333,0,0.667-0.123,0.928-0.37l9.061-8.593c0.54-0.512,0.563-1.366,0.051-1.906
		c-0.512-0.54-1.366-0.563-1.906-0.051l-9.061,8.593c-0.54,0.512-0.563,1.366-0.051,1.906C36.3,21.332,36.657,21.473,37.014,21.473z
		"/>
	<path style="fill:#4CD43B;" d="M53.364,61.053c-0.549-0.503-1.401-0.466-1.905,0.082c-0.503,0.549-0.466,1.401,0.082,1.905
		l1.402,1.286c0.259,0.237,0.585,0.355,0.911,0.355c0.365,0,0.728-0.147,0.994-0.437c0.503-0.549,0.466-1.401-0.082-1.905
		L53.364,61.053z"/>
	<path style="fill:#4CD43B;" d="M37.925,46.894c-0.549-0.503-1.401-0.466-1.905,0.082c-0.503,0.549-0.466,1.401,0.082,1.905
		L47.691,59.51c0.259,0.237,0.585,0.355,0.911,0.355c0.365,0,0.728-0.147,0.994-0.437c0.503-0.549,0.466-1.401-0.082-1.905
		L37.925,46.894z"/>
	<path style="fill:#4CD43B;" d="M84.896,43.103c0.083-2.443,0.125-5.002,0.125-7.605c0-1.934-0.023-3.855-0.07-5.71
		c-0.012-0.496-0.419-0.89-0.921-0.876c-0.496,0.012-0.889,0.424-0.876,0.921c0.046,1.84,0.069,3.746,0.069,5.666
		c0,2.583-0.042,5.121-0.124,7.544c-0.017,0.496,0.372,0.912,0.868,0.929c0.01,0,0.021,0.001,0.031,0.001
		C84.481,43.971,84.88,43.589,84.896,43.103z"/>
	<path style="fill:#4CD43B;" d="M81.677,60.362c1.144,0,1.636-1.405,2.058-3.672c0.353-1.896,0.656-4.623,0.878-7.888
		c0.034-0.495-0.341-0.924-0.836-0.957c-0.496-0.032-0.924,0.341-0.957,0.836c-0.359,5.298-0.824,7.831-1.148,9.021
		c-0.665-2.517-1.436-9.347-1.532-20.09c-0.004-0.494-0.406-0.879-0.899-0.879c-0.003,0-0.005,0-0.008,0
		c-0.496,0-0.895,0.399-0.891,0.895c0.053,5.977,0.332,11.515,0.785,15.605C79.788,59.2,80.563,60.362,81.677,60.362z"/>
	<path style="fill:#4CD43B;" d="M81.677,10.634c-1.116,0-1.891,1.171-2.552,7.157c-0.454,4.105-0.732,9.686-0.783,15.678
		c-0.004,0.496,0.395,0.927,0.891,0.927c0.003,0,0.005,0,0.008,0c0.493,0,0.894-0.418,0.899-0.911
		c0.093-10.79,0.866-17.667,1.533-20.185c0.38,1.426,0.872,4.448,1.21,10c0.03,0.496,0.456,0.867,0.952,0.84
		c0.496-0.03,0.873-0.458,0.843-0.953c-0.215-3.536-0.522-6.505-0.888-8.584C83.358,12.152,82.854,10.634,81.677,10.634z"/>
	<path style="fill:#4CD43B;" d="M69.497,53.559c1.009,0,1.611-0.903,2.101-5.837c0.325-3.27,0.504-7.612,0.504-12.225
		c0-4.613-0.179-8.955-0.504-12.225c-0.491-4.934-1.093-5.837-2.101-5.837c-1.113,0-1.61,1.289-2.046,5.306
		c-0.316,2.915-0.512,6.855-0.552,11.12c-0.005,0.496,0.394,0.893,0.89,0.893c0.003,0,0.006,0,0.009,0
		c0.492,0,0.894-0.383,0.899-0.876c0.057-6.18,0.425-10.563,0.802-12.924c0.42,2.639,0.807,7.735,0.807,14.54
		c0,6.812-0.387,11.908-0.808,14.545c-0.388-2.418-0.762-6.926-0.805-13.355c-0.003-0.494-0.405-0.851-0.899-0.851
		c-0.002,0-0.004,0-0.006,0c-0.496,0-0.896,0.367-0.893,0.864c0.029,4.366,0.22,8.411,0.539,11.426
		C67.872,52.254,68.373,53.559,69.497,53.559z"/>
	<path style="fill:#4CD43B;" d="M83.044,26.127v0.539c0,0.496,0.402,0.899,0.899,0.899s0.899-0.402,0.899-0.899v-0.539
		c0-0.496-0.402-0.899-0.899-0.899S83.044,25.63,83.044,26.127z"/>
</g>
</svg>
