<?xml version="1.0" encoding="UTF-8"?>
<svg viewBox="0 0 72 60" xmlns="http://www.w3.org/2000/svg">
<defs>
<style>.cls-1 {
        fill: #fff;
        fill-rule: evenodd;
      }</style>
</defs>
<path class="cls-1" transform="translate(-1365 -2416)" d="m1436.5 2445a1.179 1.179 0 0 0-1.12-0.12l-12 4.8a1.2 1.2 0 0 0-0.75 1.11h-2.4v-7.2a3.6 3.6 0 0 0-3.6-3.6h-40.8a3.6 3.6 0 0 0-3.6 3.6v0.73l-5.62-1.87a1.2 1.2 0 0 0-1.58 1.14v14.4a1.2 1.2 0 0 0 1.58 1.14l5.62-1.87v15.13a3.6 3.6 0 0 0 3.6 3.6h40.8a3.6 3.6 0 0 0 3.6-3.6v-7.2h2.4a1.2 1.2 0 0 0 0.75 1.11l12 4.8a1.2 1.2 0 0 0 1.65-1.11v-24a1.189 1.189 0 0 0-0.53-0.99zm-64.27 9.72-4.8 1.61v-11.08l4.8 1.61v7.86zm45.6 17.67a1.2 1.2 0 0 1-1.2 1.2h-40.8a1.2 1.2 0 0 1-1.2-1.2v-28.8a1.2 1.2 0 0 1 1.2-1.2h40.8a1.2 1.2 0 0 1 1.2 1.2v28.8zm4.8-9.6h-2.4v-9.6h2.4v9.6zm12 5.43-9.6-3.84v-12.78l9.6-3.84v20.46zm-36-40.23a12 12 0 1 0-12 12 12 12 0 0 0 12-12zm-12 9.6a9.6 9.6 0 1 1 9.6-9.6 9.6 9.6 0 0 1-9.6 9.6zm31.2-6a8.4 8.4 0 1 0-8.4 8.4 8.4 8.4 0 0 0 8.4-8.4zm-8.4 6a6 6 0 1 1 6-6 6 6 0 0 1-6 6zm-1.2 9.6h-24a1.2 1.2 0 0 0-1.2 1.2v19.2a1.2 1.2 0 0 0 1.2 1.2h24a1.2 1.2 0 0 0 1.2-1.2v-19.2a1.2 1.2 0 0 0-1.2-1.2zm-1.2 19.2h-21.6v-16.8h21.6v16.8z"/>
</svg>
