<?xml version="1.0" encoding="UTF-8"?>
<svg viewBox="0 0 60 60" xmlns="http://www.w3.org/2000/svg">
<defs>
<style>.cls-1 {
        fill: #fff;
        fill-rule: evenodd;
      }</style>
</defs>
<path class="cls-1" transform="translate(-489 -2416)" d="m519 2416a30 30 0 1 0 30 30 30.035 30.035 0 0 0-30-30zm26.858 21.86-10.492 6.46a16.4 16.4 0 0 0-4.522-9.71l3.264-12.24a28.18 28.18 0 0 1 11.75 15.49zm-26.858 22.66a14.52 14.52 0 1 1 14.516-14.52 14.539 14.539 0 0 1-14.516 14.52zm13.382-39.18-3.148 11.8a16.349 16.349 0 0 0-9.676-3.56l-6.737-10.95a28.028 28.028 0 0 1 19.561 2.71zm-21.518-2.2 6.456 10.49a16.391 16.391 0 0 0-9.709 4.53l-12.242-3.27a28.2 28.2 0 0 1 15.495-11.75zm-16.527 13.48 11.805 3.15a16.328 16.328 0 0 0-3.566 9.67l-10.947 6.74a27.984 27.984 0 0 1 2.708-19.56zm-2.195 21.52 10.491-6.46a16.405 16.405 0 0 0 4.523 9.71l-3.264 12.24a28.18 28.18 0 0 1-11.75-15.49zm13.476 16.52 3.148-11.8a16.349 16.349 0 0 0 9.676 3.56l6.736 10.95a28.025 28.025 0 0 1-19.56-2.71zm21.518 2.2-6.456-10.49a16.391 16.391 0 0 0 9.709-4.53l12.242 3.27a28.2 28.2 0 0 1-15.5 11.75zm16.527-13.48-11.805-3.15a16.328 16.328 0 0 0 3.566-9.67l10.947-6.74a27.967 27.967 0 0 1-2.708 19.56zm-24.663-22.09a8.71 8.71 0 1 0 8.71 8.71 8.721 8.721 0 0 0-8.71-8.71zm0 15.48a6.77 6.77 0 1 1 6.774-6.77 6.782 6.782 0 0 1-6.774 6.77zm0-11.61a4.84 4.84 0 1 0 4.839 4.84 4.844 4.844 0 0 0-4.839-4.84zm0 7.74a2.9 2.9 0 1 1 2.9-2.9 2.9 2.9 0 0 1-2.9 2.9z"/>
</svg>
