<?xml version="1.0" encoding="UTF-8"?>
<svg viewBox="0 0 60 60" xmlns="http://www.w3.org/2000/svg">
<defs>
<style>.cls-1 {
        fill: #fff;
        fill-rule: evenodd;
      }</style>
</defs>
<path class="cls-1" transform="translate(-783 -2416)" d="m813 2416h-13a1 1 0 0 0-1 1v7h-15a1 1 0 0 0-1 1v50a1 1 0 0 0 1 1h29a1 1 0 0 0 1-1v-58a1 1 0 0 0-1-1zm-1 52h-11v-2h11v2zm-27-37h14v30h-14v-30zm27-4h-11v-3h11v3zm-27 36h14v3h-14v-3zm16 1v-35h11v35h-11zm11-46v4h-11v-4h11zm-13 8v3h-14v-3h14zm-14 42h14v6h-14v-6zm16 6v-4h11v4h-11zm41.968-3.25-12-46a0.978 0.978 0 0 0-0.464-0.61 1.016 1.016 0 0 0-0.762-0.11l-15 4a1.008 1.008 0 0 0-0.71 1.22l12 46a1.022 1.022 0 0 0 0.464 0.62 1.011 1.011 0 0 0 0.761 0.1l15-4a1.008 1.008 0 0 0 0.711-1.22zm-25.156-34.93 13.068-3.49 0.47 1.8-13.067 3.49zm14.043 0.25 5.8 22.25-13.063 3.49-5.8-22.25zm6.309 24.19 1.024 3.92-13.068 3.49-1.02-3.93zm-8.878-34.03 1.089 4.17-13.068 3.48-1.087-4.17zm-1.572 47.55-1.089-4.18 13.068-3.48 1.088 4.17zm-31.714-39.78h-8a1 1 0 0 0-1 1v8a1 1 0 0 0 1 1h8a1 1 0 0 0 1-1v-8a1 1 0 0 0-1-1zm-1 8h-6v-6h6v6z"/>
</svg>
