<?xml version="1.0" encoding="UTF-8"?>
<svg viewBox="0 0 66.63 60" xmlns="http://www.w3.org/2000/svg">
<defs>
<style>.cls-1 {
        fill: #fff;
        fill-rule: evenodd;
      }</style>
</defs>
<path class="cls-1" transform="translate(-1074 -2416.2)" d="m1128.4 2416.2a12.231 12.231 0 0 0-12.21 12.23 12.067 12.067 0 0 0 0.47 3.33h-25.62l-1.3-12.35a3.559 3.559 0 0 0-3.54-3.21h-8.89a3.276 3.276 0 0 0-2.34 0.98 3.32 3.32 0 0 0-0.9 3.11 3.472 3.472 0 0 0 3.42 2.58h5.5l4.19 37.79a5.556 5.556 0 0 0 0.13 11.1h5.66a5.556 5.556 0 0 0 10.89 0h11.33a5.55 5.55 0 0 0 10.88 0h4.56a1.11 1.11 0 1 0 0-2.22h-4.56a5.55 5.55 0 0 0-10.88 0h-11.33a5.556 5.556 0 0 0-10.89 0h-5.66a3.335 3.335 0 0 1 0-6.67h42.59a3.313 3.313 0 0 0 3.27-2.7l4.59-23.9a12.216 12.216 0 0 0-9.36-20.07zm-7.77 51.12a3.335 3.335 0 1 1-3.33 3.33 3.329 3.329 0 0 1 3.33-3.33zm-22.21 0a3.335 3.335 0 1 1-3.34 3.33 3.329 3.329 0 0 1 3.34-3.33zm32.57-7.57a1.106 1.106 0 0 1-1.09 0.9h-40.48l-4.23-38.03a2.219 2.219 0 0 0-2.21-1.97h-5.49a1.249 1.249 0 0 1-1.25-0.86 1.039 1.039 0 0 1 0.31-1.04 1 1 0 0 1 0.76-0.32h8.89a1.337 1.337 0 0 1 1.33 1.22l1.41 13.33a1.107 1.107 0 0 0 1.1 1h27.49a12.058 12.058 0 0 0 1.46 2.23h-28.51a1.119 1.119 0 0 0-0.83 0.36 1.173 1.173 0 0 0-0.29 0.86l1.97 20a1.107 1.107 0 0 0 1.1 1h35.97a1.1 1.1 0 0 0 1.1-0.93l2.93-17.54a12.892 12.892 0 0 0 2.61-1.28zm-19.25-10.21v-4.44h8.02l-0.5 4.44h-7.52zm7.28 2.22-0.5 4.45h-6.78v-4.45h7.28zm-7.28-8.89v-4.44h8.76l-0.49 4.44h-8.27zm-9.74 6.67-0.5-4.44h8.02v4.44h-7.52zm7.52 2.22v4.45h-6.77l-0.5-4.45h7.27zm-8.26-8.89-0.49-4.44h8.75v4.44h-8.26zm-1.99 2.23 0.5 4.44h-6.98l-0.44-4.44h6.92zm-7.14-2.23-0.43-4.44h6.83l0.5 4.44h-6.9zm7.89 8.89 0.48 4.45h-7.06l-0.43-4.45h7.01zm29.3-6.66-0.75 4.44h-7.07l0.5-4.44h7.32zm-7.08-2.23 0.41-3.66a11.917 11.917 0 0 0 7.43 1.31l-0.4 2.35h-7.44zm5.96 8.89-0.74 4.45h-6.7l0.49-4.45h6.95zm0.2-13.33a10 10 0 1 1 10-10 10 10 0 0 1-10 10zm-1.11-8.89v5.55a1.115 1.115 0 1 0 2.23 0v-5.55h5.55a1.11 1.11 0 1 0 0-2.22h-5.55v-5.56a1.115 1.115 0 0 0-2.23 0v5.56h-5.55a1.11 1.11 0 1 0 0 2.22h5.55z"/>
</svg>
