<?xml version="1.0" encoding="UTF-8"?>
<svg viewBox="0 0 78 59.97" xmlns="http://www.w3.org/2000/svg">
<defs>
<style>.cls-1 {
        fill: #f36;
        fill-rule: evenodd;
      }</style>
</defs>
<path class="cls-1" transform="translate(-386 -7099.5)" d="m462.7 7106a1.3 1.3 0 0 0-1.3 1.3v46.72h-7.059a111.18 111.18 0 0 0-24.856 2.82 2.59 2.59 0 0 1-2.73-1.08 29.538 29.538 0 0 1 15.419-4.34h15.326a1.3 1.3 0 0 0 1.3-1.3v-9.08a1.3 1.3 0 0 0-2.6 0v7.78h-14.026a32.327 32.327 0 0 0-15.874 4.17v-35.31a1.3 1.3 0 1 0-2.6 0v35.31a32.327 32.327 0 0 0-15.874-4.17h-14.026v-46.72h20.02a9.888 9.888 0 0 1 9.88 9.87 1.3 1.3 0 0 0 2.6 0 9.888 9.888 0 0 1 9.88-9.87h20.02v33.75a1.3 1.3 0 1 0 2.6 0v-35.04a1.3 1.3 0 0 0-1.3-1.3h-21.32a12.485 12.485 0 0 0-11.18 6.92 12.486 12.486 0 0 0-11.18-6.92h-21.32a1.3 1.3 0 0 0-1.3 1.3v49.31a1.3 1.3 0 0 0 1.3 1.3h15.326a29.551 29.551 0 0 1 15.422 4.34 2.593 2.593 0 0 1-2.73 1.08 110.62 110.62 0 0 0-24.859-2.82h-7.059v-46.72a1.3 1.3 0 0 0-2.6 0v48.01a1.3 1.3 0 0 0 1.3 1.3h8.359a108.33 108.33 0 0 1 24.271 2.76 5.181 5.181 0 0 0 5.07-1.64 5.181 5.181 0 0 0 5.07 1.64 108.33 108.33 0 0 1 24.271-2.76h8.359a1.3 1.3 0 0 0 1.3-1.3v-48.01a1.3 1.3 0 0 0-1.3-1.3zm-41.96 4.69a12.449 12.449 0 0 0-6.92-2.1h-14.82a1.3 1.3 0 1 0 0 2.6h14.82a9.822 9.822 0 0 1 5.483 1.66 1.314 1.314 0 0 0 1.8-0.36 1.3 1.3 0 0 0-0.36-1.8h-3e-3zm30.26-2.1h-14.82a12.463 12.463 0 0 0-6.926 2.1 1.3 1.3 0 0 0-0.36 1.8 1.314 1.314 0 0 0 1.8 0.36 9.822 9.822 0 0 1 5.483-1.66h14.823a1.3 1.3 0 0 0 0-2.6zm-30.26 8.59a12.449 12.449 0 0 0-6.92-2.1h-14.82a1.3 1.3 0 1 0 0 2.6h14.82a9.892 9.892 0 0 1 5.483 1.65 1.295 1.295 0 1 0 1.443-2.15h-6e-3zm30.26-2.1h-14.82a12.463 12.463 0 0 0-6.926 2.1 1.295 1.295 0 1 0 1.443 2.15 9.892 9.892 0 0 1 5.483-1.65h14.82a1.3 1.3 0 0 0 0-2.6zm-30.26 8.58a12.519 12.519 0 0 0-6.92-2.09h-14.82a1.3 1.3 0 1 0 0 2.6h14.82a9.812 9.812 0 0 1 5.483 1.65 1.3 1.3 0 1 0 1.443-2.16h-6e-3zm30.26-2.09h-14.82a12.534 12.534 0 0 0-6.926 2.09 1.3 1.3 0 1 0 1.443 2.16 9.892 9.892 0 0 1 5.483-1.65h14.82a1.3 1.3 0 0 0 0-2.6zm-30.26 8.58a12.519 12.519 0 0 0-6.92-2.09h-14.82a1.3 1.3 0 1 0 0 2.6h14.82a9.812 9.812 0 0 1 5.483 1.65 1.3 1.3 0 1 0 1.443-2.16h-6e-3zm30.26-2.09h-14.82a12.534 12.534 0 0 0-6.926 2.09 1.3 1.3 0 1 0 1.443 2.16 9.812 9.812 0 0 1 5.483-1.65h14.82a1.3 1.3 0 0 0 0-2.6zm-30.26 8.58a12.519 12.519 0 0 0-6.92-2.09h-14.82a1.3 1.3 0 1 0 0 2.6h14.82a9.812 9.812 0 0 1 5.483 1.65 1.3 1.3 0 1 0 1.443-2.16h-6e-3zm30.26-2.09h-14.82a12.534 12.534 0 0 0-6.926 2.09 1.3 1.3 0 1 0 1.443 2.16 9.812 9.812 0 0 1 5.483-1.65h14.82a1.3 1.3 0 0 0 0-2.6zm-37.18 6.49h-14.82a1.3 1.3 0 1 0 0 2.59h14.82a9.9 9.9 0 0 1 5.483 1.66 1.3 1.3 0 1 0 1.443-2.16 12.456 12.456 0 0 0-6.926-2.09zm37.18 0h-14.82a12.453 12.453 0 0 0-6.926 2.09 1.3 1.3 0 1 0 1.443 2.16 9.9 9.9 0 0 1 5.483-1.66h14.82a1.3 1.3 0 1 0 0-2.59z"/>
</svg>
